<svg width="120" height="26" viewBox="0 0 120 26" fill="none" xmlns="http://www.w3.org/2000/svg">
<path fill-rule="evenodd" clip-rule="evenodd" d="M119.034 13.8033H117.177C117.177 10.0239 117.552 8.44797 115.877 8.44797C114.118 8.44797 114.483 10.3026 114.483 13.8033H112.626V10.0636C112.626 8.02338 110.71 8.32528 109.959 8.69573V13.8033H108.102V7.56161C109.276 6.9851 112.563 6.351 113.847 7.96579C115.044 6.46016 117.984 6.59144 118.815 8.36976C119.101 8.98237 119.034 9.05822 119.034 13.8033ZM106.197 19.8997C105.488 19.8997 104.97 19.4005 104.97 18.7039C104.97 18.0073 105.488 17.5079 106.197 17.5079C106.91 17.5079 107.429 18.0073 107.429 18.7039C107.429 19.4005 106.91 19.8997 106.197 19.8997ZM106.197 17.945C105.763 17.945 105.485 18.2708 105.485 18.7042C105.485 19.1339 105.763 19.4631 106.197 19.4631C106.632 19.4631 106.914 19.1339 106.914 18.7042C106.914 18.2708 106.632 17.945 106.197 17.945ZM106.296 17.3456C106.275 17.3628 106.251 17.3734 106.223 17.3734C106.166 17.3734 106.106 17.3245 106.106 17.2587C106.106 17.2312 106.116 17.203 106.137 17.1824L106.431 16.8738C106.455 16.8462 106.491 16.8323 106.526 16.8323C106.597 16.8323 106.667 16.8912 106.667 16.9673C106.667 17.0019 106.654 17.037 106.625 17.0611L106.296 17.3456ZM102.756 14.0245C97.8859 14.0245 97.8489 6.93641 102.756 6.93641C107.675 6.93641 107.636 14.0245 102.756 14.0245ZM103.525 8.54574C100.77 7.19288 99.845 12.5785 102.756 12.5785C104.929 12.5785 105.079 9.31049 103.525 8.54574ZM99.2412 19.4632C99.605 19.4632 99.7919 19.2413 99.7919 18.9189V17.7717C99.7919 17.6366 99.9052 17.5255 100.053 17.5255C100.191 17.5255 100.304 17.6366 100.304 17.7717V18.9331C100.304 19.5088 99.9578 19.9001 99.2412 19.9001C98.5248 19.9001 98.1793 19.5049 98.1793 18.9364V17.7717C98.1793 17.6366 98.2919 17.5255 98.4367 17.5255C98.5744 17.5255 98.6872 17.6366 98.6872 17.7717V18.9189C98.6872 19.2413 98.878 19.4632 99.2412 19.4632ZM96.9379 12.2723C97.1916 12.1589 97.3549 12.0448 97.4218 11.9788L98.2177 13.1907C97.7288 13.5777 97.1502 13.7803 96.5395 13.9009C90.8268 15.0213 90.3994 6.97544 95.6043 6.97544C98.2046 6.97544 98.7001 8.33388 97.5945 9.20348C97.2692 8.88439 96.9873 8.68585 96.4931 8.5393C92.8337 7.44494 93.0205 14.0133 96.9379 12.2723ZM92.3593 17.5252C92.539 17.5117 92.7192 17.6159 92.7861 17.7852L93.4711 19.5218C93.4814 19.5534 93.4887 19.5843 93.4887 19.6157C93.4887 19.7438 93.3826 19.8792 93.2201 19.8792C93.1144 19.8792 93.0153 19.8166 92.9771 19.7161L92.8851 19.4668H91.8756L91.7802 19.7161C91.7413 19.8166 91.6429 19.8792 91.5331 19.8792C91.3748 19.8792 91.2684 19.747 91.2684 19.6157C91.2684 19.5843 91.2723 19.5534 91.286 19.5218L91.9745 17.7852C92.0346 17.6292 92.193 17.5252 92.3593 17.5252ZM92.7479 19.0342L92.381 18.0387L92.0134 19.0342H92.7479ZM89.4489 14.0244C87.8588 14.0244 87.8459 11.6529 89.4489 11.6529C91.0364 11.6529 91.0544 14.0244 89.4489 14.0244ZM88.1538 17.7581C88.1538 17.6434 88.2526 17.5465 88.3727 17.5465H89.7035C89.8373 17.5465 89.9609 17.6606 89.9609 17.817C89.9609 17.8791 89.9396 17.945 89.9014 17.997L88.8315 19.4253H89.7737C89.8904 19.4253 89.9895 19.522 89.9895 19.6366C89.9895 19.7614 89.8904 19.8583 89.7737 19.8583H88.4292C88.2881 19.8583 88.1538 19.7403 88.1538 19.5811C88.1538 19.522 88.1716 19.467 88.2068 19.4182L89.287 17.9796H88.3727C88.2526 17.9796 88.1538 17.8827 88.1538 17.7581ZM86.2443 12.4545C86.5871 12.3686 86.8453 12.2188 86.901 12.1614L87.591 13.2562C87.2175 13.6228 86.4094 13.9855 85.4549 13.9855C82.5195 13.9855 83.0405 11.5318 83.0405 8.64347C82.5259 8.64347 81.3189 8.7956 81.979 7.15803H83.0405C83.0405 6.3935 82.652 4.51291 84.8979 5.38616V7.15803C86.1236 7.15803 87.6982 6.81251 86.9407 8.64347H84.8979C84.8979 11.3002 84.5236 12.9 86.2443 12.4545ZM81.3542 19.8794C81.2586 19.8794 81.1632 19.8345 81.1032 19.7548L80.0587 18.3508V19.6366C80.0587 19.7688 79.9457 19.8794 79.8045 19.8794C79.6707 19.8794 79.5574 19.7688 79.5574 19.6366V17.8411C79.5574 17.6783 79.6986 17.5255 79.8855 17.5255C79.9915 17.5255 80.0972 17.5745 80.1608 17.6606L81.1632 18.9987V17.7681C81.1632 17.6366 81.2764 17.5255 81.4176 17.5255C81.5515 17.5255 81.6647 17.6366 81.6647 17.7681V19.5812C81.6647 19.7372 81.5338 19.8794 81.3542 19.8794ZM74.8684 13.3734C73.9838 12.6924 73.0602 9.26709 78.3975 9.70544C78.6627 9.72735 78.8172 9.74218 78.8617 9.75077C78.8617 8.88805 78.5754 8.27844 77.1237 8.27844C76.1065 8.27844 75.6604 8.65104 75.2797 8.86462C74.6946 8.53866 74.0955 6.97544 77.0307 6.97544C81.3632 6.97544 80.6793 9.32639 80.6793 13.7509C80.2985 13.882 76.1787 14.3837 74.8684 13.3734ZM78.8484 10.884C78.7702 10.8597 78.4792 10.8384 78.3976 10.8324C77.2469 10.746 76.0494 10.7226 76.0494 11.8226C76.0494 12.9698 77.7626 12.9053 78.8484 12.6696V10.884ZM74.4649 17.5462C74.6907 17.5116 74.9202 17.5949 74.9202 17.8234V19.633C74.9202 19.7684 74.8074 19.8791 74.6662 19.8791C74.5285 19.8791 74.4157 19.7684 74.4157 19.633V18.2396L73.7805 19.789C73.7592 19.8408 73.7061 19.8791 73.6391 19.8791C73.5791 19.8791 73.5259 19.8408 73.5048 19.789L72.8701 18.2396V19.6363C72.8701 19.7684 72.7568 19.8791 72.6154 19.8791C72.4818 19.8791 72.3685 19.7684 72.3685 19.6363V17.8234C72.3685 17.671 72.4955 17.5462 72.6511 17.5462C72.8804 17.5219 73.0783 17.5707 73.1629 17.7714L73.6425 18.9433L74.123 17.7714C74.1791 17.6362 74.3099 17.5462 74.4649 17.5462ZM66.0458 13.8029C66.0458 4.32919 65.7084 4.19962 67.0142 4.19962C67.3466 4.19962 67.6915 4.27375 67.9029 4.35605V7.79579C68.8602 6.38556 72.9847 6.55896 72.9847 10.2716C72.9847 13.8592 69.6632 14.3897 66.0458 13.8029ZM69.4422 8.44774C67.5455 8.44774 67.9031 10.5797 67.9031 12.461C68.1863 12.5987 69.3083 12.6499 69.8997 12.4219C71.6786 11.733 71.421 8.44774 69.4422 8.44774ZM64.7076 19.4253C64.8238 19.4253 64.9227 19.522 64.9227 19.6366C64.9227 19.7614 64.8238 19.8583 64.7076 19.8583H63.5182C63.3627 19.8583 63.2357 19.7337 63.2357 19.5811V17.8236C63.2357 17.6713 63.3627 17.5465 63.5182 17.5465H64.7076C64.8238 17.5465 64.9227 17.6434 64.9227 17.7648C64.9227 17.8827 64.8238 17.9796 64.7076 17.9796H63.7372V18.4685H64.6831C64.7991 18.4685 64.8982 18.5658 64.8982 18.6868C64.8982 18.8048 64.7991 18.9021 64.6831 18.9021H63.7372V19.4253H64.7076ZM63.0936 13.8813C55.5706 14.581 57.1248 10.2749 59.3127 9.8032C60.2633 9.59821 61.8572 9.67686 62.238 9.75077C62.238 8.83948 61.9086 8.27844 60.5001 8.27844C59.4818 8.27844 59.0368 8.65104 58.656 8.86462C58.0496 8.52684 57.4886 6.97544 60.407 6.97544C64.7507 6.97544 64.0554 9.37281 64.0554 13.7509C63.9248 13.796 63.2329 13.8682 63.0936 13.8813ZM62.2247 10.8839C62.1465 10.8596 61.8555 10.8384 61.7739 10.8323C60.3465 10.7253 59.4255 10.8326 59.4255 11.8225C59.4255 12.9689 61.151 12.9025 62.2247 12.6695V10.8839ZM54.0261 8.73435V13.8031H52.1689V7.73088C53.3821 6.83742 56.9583 6.49061 56.9583 7.83488C56.9583 8.17761 56.8745 8.41096 56.5604 8.72146C56.2941 8.46425 54.8766 8.26807 54.0261 8.73435ZM51.6489 19.8583H51.0026C50.8477 19.8583 50.7207 19.7337 50.7207 19.5811V17.8236C50.7207 17.6713 50.8477 17.5465 51.0026 17.5465H51.6489C52.3866 17.5465 52.8982 18.0076 52.8982 18.7042C52.8982 19.4008 52.3866 19.8583 51.6489 19.8583ZM51.6489 17.9792H51.2217V19.4249H51.6489C52.1143 19.4249 52.3866 19.0952 52.3866 18.7037C52.3866 18.2944 52.1322 17.9792 51.6489 17.9792ZM45.7869 11.2625C46.1367 12.8279 48.6381 12.7419 49.6613 12.2395L50.1652 13.5297C50.0799 13.6133 49.5191 13.7675 49.4022 13.7968C42.3205 15.5678 42.37 6.93641 47.4722 6.93641C49.4738 6.93641 50.5632 8.07976 50.5632 9.5031C50.5632 11.7526 48.1729 11.2625 45.7869 11.2625ZM48.739 8.95592C48.2953 7.68622 45.7342 7.96362 45.7342 10.0503C47.8787 10.0503 49.2449 10.4033 48.739 8.95592ZM42.7917 19.6366C42.7917 19.7614 42.6926 19.8583 42.5762 19.8583H41.2317C41.0903 19.8583 40.956 19.7403 40.956 19.5811C40.956 19.522 40.9736 19.467 41.0091 19.4182L42.0895 17.9796H41.1749C41.0548 17.9796 40.956 17.8827 40.956 17.7581C40.956 17.6434 41.0548 17.5465 41.1749 17.5465H42.5057C42.6395 17.5465 42.7631 17.6606 42.7631 17.817C42.7631 17.8791 42.742 17.945 42.7036 17.997L41.6335 19.4253H42.5762C42.6926 19.4253 42.7917 19.522 42.7917 19.6366ZM42.1394 4.35635V13.8032H40.2813C40.2813 4.91954 39.667 3.39521 42.1394 4.35635ZM39.4192 19.4253C39.5353 19.4253 39.6341 19.522 39.6341 19.6366C39.6341 19.7614 39.5353 19.8583 39.4192 19.8583H38.2297C38.0741 19.8583 37.9471 19.7337 37.9471 19.5811V17.8236C37.9471 17.6713 38.0741 17.5465 38.2297 17.5465H39.4192C39.5353 17.5465 39.6341 17.6434 39.6341 17.7648C39.6341 17.8827 39.5353 17.9796 39.4192 17.9796H38.4486V18.4685H39.3945C39.5106 18.4685 39.6096 18.5658 39.6096 18.6868C39.6096 18.8048 39.5106 18.9021 39.3945 18.9021H38.4486V19.4253H39.4192ZM31.9035 12.7021C31.6942 12.126 31.7312 11.3804 31.9366 10.8842C32.5232 9.46499 35.3748 9.55029 36.4075 9.75077C36.4075 9.37668 36.4193 8.9394 35.9831 8.6042C35.4133 8.16714 34.1593 8.19787 33.4422 8.51996C33.0866 8.67833 33.1178 8.70089 32.8255 8.86463C32.2303 8.53329 31.6463 6.97544 34.5766 6.97544C38.9183 6.97544 38.2252 9.37474 38.2252 13.7509C37.8444 13.882 32.6197 14.6759 31.9035 12.7021ZM36.394 10.8841C36.0135 10.7661 34.3613 10.7023 33.8802 11.0996C33.2562 11.6125 33.3318 13.3341 36.394 12.6697V10.8841ZM32.621 17.5255C32.7267 17.5255 32.8326 17.5745 32.896 17.6606L33.8986 18.9987V17.7681C33.8986 17.6366 34.0117 17.5255 34.153 17.5255C34.2869 17.5255 34.3999 17.6366 34.3999 17.7681V19.5812C34.3999 19.7372 34.2691 19.8794 34.0894 19.8794C33.994 19.8794 33.8986 19.8345 33.8385 19.7548L32.7942 18.3508V19.6366C32.7942 19.7688 32.6809 19.8794 32.5397 19.8794C32.4059 19.8794 32.2929 19.7688 32.2929 19.6366V17.8411C32.2929 17.6783 32.434 17.5255 32.621 17.5255ZM36.1766 17.5255C36.3109 17.5255 36.4241 17.6366 36.4241 17.7681V19.6366C36.4241 19.7688 36.3109 19.8794 36.1697 19.8794C36.0358 19.8794 35.9226 19.7688 35.9226 19.6366V17.7681C35.9226 17.6366 36.0358 17.5255 36.1766 17.5255ZM44.491 17.5465H45.447C45.8954 17.5465 46.1249 17.8271 46.1249 18.1359C46.1249 18.4268 45.9412 18.621 45.7194 18.666C45.9698 18.7042 46.1711 18.9436 46.1711 19.2345C46.1711 19.5811 45.9343 19.8583 45.4861 19.8583H44.491C44.3354 19.8583 44.2084 19.7337 44.2084 19.5811V17.8236C44.2084 17.6713 44.3354 17.5465 44.491 17.5465ZM44.7099 19.4325H45.3562C45.5468 19.4325 45.6601 19.3323 45.6601 19.1656C45.6601 19.0194 45.5543 18.8948 45.3562 18.8948H44.7099V19.4325ZM44.7099 18.472H45.3384C45.5078 18.472 45.6143 18.3681 45.6143 18.2225C45.6143 18.0769 45.5078 17.9689 45.3384 17.9689H44.7099V18.472ZM47.888 17.5465H49.0775C49.1938 17.5465 49.2926 17.6434 49.2926 17.7648C49.2926 17.8827 49.1938 17.9796 49.0775 17.9796H48.1071V18.4685H49.0528C49.1691 18.4685 49.2679 18.5658 49.2679 18.6868C49.2679 18.8048 49.1691 18.9021 49.0528 18.9021H48.1071V19.4253H49.0775C49.1938 19.4253 49.2926 19.522 49.2926 19.6366C49.2926 19.7337 49.2365 19.7996 49.1764 19.869C49.1055 19.9524 49.0245 20.0354 49.0245 20.1703C49.0245 20.278 49.0878 20.3196 49.1553 20.3196C49.2187 20.3196 49.2537 20.2707 49.3034 20.2468C49.3212 20.2367 49.3384 20.2292 49.3635 20.2292C49.4196 20.2292 49.4624 20.2707 49.4624 20.3196C49.4624 20.4271 49.2789 20.5034 49.1553 20.5034C48.9677 20.5034 48.8021 20.4133 48.8021 20.1909C48.8021 20.0629 48.8586 19.9483 48.9608 19.8583H47.888C47.7326 19.8583 47.6056 19.7337 47.6056 19.5811V17.8236C47.6056 17.6713 47.7326 17.5465 47.888 17.5465ZM54.6394 17.5255C54.7451 17.5255 54.851 17.5745 54.9144 17.6606L55.917 18.9987V17.7681C55.917 17.6366 56.0302 17.5255 56.1714 17.5255C56.3053 17.5255 56.4185 17.6366 56.4185 17.7681V19.5812C56.4185 19.7372 56.2875 19.8794 56.108 19.8794C56.0124 19.8794 55.917 19.8345 55.8571 19.7548L54.8125 18.3508V19.6366C54.8125 19.7688 54.6995 19.8794 54.5583 19.8794C54.4243 19.8794 54.3112 19.7688 54.3112 19.6366V17.8411C54.3112 17.6783 54.4524 17.5255 54.6394 17.5255ZM58.1143 17.5289C58.1916 17.5289 58.2727 17.5669 58.3184 17.64L58.8479 18.4752L59.3672 17.6434C59.413 17.571 59.4908 17.5289 59.5752 17.5289C59.7201 17.5289 59.815 17.64 59.815 17.7547C59.815 17.796 59.8047 17.8379 59.78 17.8759L59.0986 18.9123V19.6366C59.0986 19.7688 58.9858 19.8794 58.8444 19.8794C58.7108 19.8794 58.5975 19.7688 58.5975 19.6366V18.9123L57.9095 17.8727C57.8844 17.8379 57.8741 17.796 57.8741 17.7547C57.8741 17.6434 57.9729 17.5289 58.1143 17.5289ZM66.6047 17.5255C66.7392 17.5255 66.8518 17.6366 66.8518 17.7681V19.4254H67.6531C67.7698 19.4254 67.8686 19.5221 67.8686 19.6366C67.8686 19.7615 67.7698 19.8584 67.6531 19.8584H66.6329C66.478 19.8584 66.351 19.7338 66.351 19.5812V17.7681C66.351 17.6366 66.4636 17.5255 66.6047 17.5255ZM69.5358 17.5465H70.7254C70.8421 17.5465 70.9409 17.6434 70.9409 17.7648C70.9409 17.8827 70.8421 17.9796 70.7254 17.9796H69.7548V18.4685H70.7007C70.8174 18.4685 70.9164 18.5658 70.9164 18.6868C70.9164 18.8048 70.8174 18.9021 70.7007 18.9021H69.7548V19.4253H70.7254C70.8421 19.4253 70.9409 19.522 70.9409 19.6366C70.9409 19.7614 70.8421 19.8583 70.7254 19.8583H69.5358C69.3809 19.8583 69.2539 19.7337 69.2539 19.5811V17.8236C69.2539 17.6713 69.3809 17.5465 69.5358 17.5465ZM76.7254 17.5465H77.9147C78.0309 17.5465 78.1298 17.6434 78.1298 17.7648C78.1298 17.8827 78.0309 17.9796 77.9147 17.9796H76.9443V18.4685H77.89C78.0062 18.4685 78.1051 18.5658 78.1051 18.6868C78.1051 18.8048 78.0062 18.9021 77.89 18.9021H76.9443V19.4253H77.9147C78.0309 19.4253 78.1298 19.522 78.1298 19.6366C78.1298 19.7614 78.0309 19.8583 77.9147 19.8583H76.7254C76.5696 19.8583 76.4428 19.7337 76.4428 19.5811V17.8236C76.4428 17.6713 76.5696 17.5465 76.7254 17.5465ZM83.2405 17.5465H84.7261C84.8428 17.5465 84.9416 17.6434 84.9416 17.7648C84.9416 17.8827 84.8428 17.9796 84.7261 17.9796H84.2356V19.6333C84.2356 19.7687 84.123 19.8794 83.9816 19.8794C83.8438 19.8794 83.7312 19.7687 83.7312 19.6333V17.9796H83.2405C83.1203 17.9796 83.0215 17.8827 83.0215 17.7581C83.0215 17.6434 83.1203 17.5465 83.2405 17.5465ZM95.1316 17.5255C95.2657 17.5255 95.3785 17.6366 95.3785 17.7681V18.5797L96.1551 17.6162C96.1974 17.5603 96.2677 17.5328 96.3352 17.5328C96.4622 17.5328 96.575 17.6333 96.575 17.7582C96.575 17.8095 96.5571 17.862 96.5223 17.9034L95.8938 18.6314L96.6035 19.5013C96.6349 19.5429 96.6527 19.5917 96.6527 19.6399C96.6527 19.7615 96.5468 19.8794 96.4091 19.8794C96.3352 19.8794 96.2643 19.8479 96.2185 19.7855L95.562 18.9331L95.3785 19.1478V19.6366C95.3785 19.7688 95.2657 19.8794 95.1245 19.8794C94.9902 19.8794 94.8774 19.7688 94.8774 19.6366V17.7681C94.8774 17.6366 94.9902 17.5255 95.1316 17.5255ZM102.105 17.5465H102.924C103.436 17.5465 103.714 17.886 103.714 18.2914C103.714 18.6937 103.432 19.0368 102.924 19.0368H102.324V19.6366C102.324 19.7687 102.211 19.8794 102.07 19.8794C101.936 19.8794 101.823 19.7687 101.823 19.6366V17.8236C101.823 17.6713 101.95 17.5465 102.105 17.5465ZM102.324 18.6039H102.857C103.055 18.6039 103.204 18.4822 103.204 18.2912C103.204 18.0975 103.055 17.9792 102.857 17.9792H102.324V18.6039ZM108.878 17.5045C108.998 17.5045 109.108 17.5842 109.139 17.7054L109.513 19.2168L109.916 17.7054C109.944 17.6016 110.043 17.5251 110.163 17.5251C110.272 17.5251 110.368 17.6016 110.396 17.7054L110.798 19.2168L111.165 17.7086C111.193 17.5874 111.306 17.5045 111.433 17.5045C111.592 17.5045 111.702 17.6259 111.702 17.7608C111.702 17.7851 111.698 17.8092 111.691 17.83L111.165 19.6363C111.123 19.7783 110.989 19.8791 110.84 19.8791H110.833C110.678 19.8791 110.548 19.7783 110.512 19.6363L110.156 18.2705L109.803 19.6363C109.767 19.7783 109.63 19.8791 109.485 19.8791H109.478C109.326 19.8791 109.192 19.7783 109.15 19.6363L108.62 17.8268C108.614 17.806 108.61 17.7819 108.61 17.7608C108.61 17.6291 108.719 17.5045 108.878 17.5045Z" fill="black"/>
<path fill-rule="evenodd" clip-rule="evenodd" d="M13.2319 26C5.9295 26 0 20.1764 0 12.9955C0 5.82357 5.9295 0 13.2319 0C20.5434 0 26.4732 5.82357 26.4732 12.9955C26.4732 20.1764 20.5434 26 13.2319 26ZM17.518 20.7908C17.5459 20.8459 17.602 20.8826 17.6768 20.8826H19.8057C19.9366 20.8826 20.0486 20.7818 20.0486 20.6533V7.74959C20.0486 7.62131 19.9366 7.51108 19.8057 7.51108H15.4543C15.389 7.51108 15.3236 7.47455 15.305 7.41932C15.2676 7.36432 15.2768 7.29104 15.3142 7.24528C15.641 6.81423 15.8372 6.28242 15.8372 5.71364C15.8372 4.30126 14.67 3.16413 13.2318 3.16413C11.7939 3.16413 10.6359 4.30126 10.6359 5.71364C10.6359 6.28242 10.8226 6.81423 11.1589 7.24528C11.1963 7.29104 11.1963 7.36432 11.1682 7.41932C11.1402 7.47455 11.0841 7.51108 11.0188 7.51108H6.65791C6.52727 7.51108 6.42456 7.62131 6.42456 7.74959V9.84055C6.42456 9.91403 6.46173 9.96883 6.51781 9.99655C6.58313 10.0238 6.64867 10.0238 6.6953 9.97828C7.13429 9.65726 7.67578 9.47375 8.26411 9.47375C9.70206 9.47375 10.86 10.6109 10.86 12.0233C10.86 13.4356 9.70206 14.5728 8.26411 14.5728C7.67578 14.5728 7.13429 14.3897 6.6953 14.0684C6.64867 14.0227 6.58313 14.0227 6.51781 14.0504C6.46173 14.0777 6.42456 14.1327 6.42456 14.1965V20.6533C6.42456 20.7818 6.52727 20.8826 6.65791 20.8826H13.2413C13.3066 20.8826 13.3627 20.8459 13.3906 20.7908C13.4186 20.7358 13.4186 20.6716 13.3812 20.6258C13.0451 20.1948 12.8584 19.6627 12.8584 19.0852C12.8584 17.6728 14.0161 16.5354 15.4543 16.5354C16.8925 16.5354 18.0597 17.6728 18.0597 19.0852C18.0597 19.6627 17.8635 20.1948 17.5367 20.6258C17.4993 20.6716 17.49 20.7358 17.518 20.7908ZM9.58064 19.8369C9.70204 19.8369 9.81421 19.7817 9.87029 19.6811L15.0995 11.5281C15.1369 11.4728 15.1369 11.4088 15.0995 11.3536C15.0714 11.3078 15.0155 11.2711 14.95 11.2711H14.1283C14.0161 11.2711 13.9042 11.3263 13.8481 11.4271L8.61885 19.5801C8.58146 19.6353 8.58146 19.6994 8.61885 19.7544C8.647 19.8096 8.70308 19.8369 8.76841 19.8369H9.58064Z" fill="#E32E33"/>
</svg>
