<svg width="22" height="18" viewBox="0 0 22 18" fill="none" xmlns="http://www.w3.org/2000/svg">
<path d="M5.0835 13.648V4.68262C5.0835 4.22045 4.71339 3.85034 4.25122 3.85034C3.78905 3.85034 3.41895 4.22045 3.41895 4.68262V13.6254C3.41895 14.0876 3.78905 14.4577 4.25122 14.4577C4.71429 14.4568 5.0835 14.0876 5.0835 13.648V13.648Z" fill="#312E38"/>
<path d="M7.62573 3.87412C7.16356 3.87412 6.79346 4.24422 6.79346 4.70639V13.6492C6.79346 14.1113 7.16356 14.4814 7.62573 14.4814C8.08791 14.4814 8.45801 14.1113 8.45801 13.6492V4.68282C8.45801 4.24323 8.08791 3.87402 7.62573 3.87402V3.87412Z" fill="#312E38"/>
<path d="M11.0002 3.87412C10.5381 3.87412 10.168 4.24422 10.168 4.70639V13.6492C10.168 14.1113 10.5381 14.4814 11.0002 14.4814C11.4624 14.4814 11.8325 14.1113 11.8325 13.6492V4.68282C11.8325 4.24323 11.4624 3.87402 11.0002 3.87402V3.87412Z" fill="#312E38"/>
<path d="M14.3743 3.87412C13.9121 3.87412 13.542 4.24422 13.542 4.70639V13.6492C13.542 14.1113 13.9121 14.4814 14.3743 14.4814C14.8364 14.4814 15.2065 14.1113 15.2065 13.6492L15.2056 4.68282C15.1831 4.24323 14.813 3.87402 14.3743 3.87402V3.87412Z" fill="#312E38"/>
<path d="M18.5566 13.648V4.68262C18.5566 4.22045 18.1865 3.85034 17.7244 3.85034C17.2622 3.85034 16.8921 4.22045 16.8921 4.68262V13.6254C16.8921 14.0876 17.2622 14.4577 17.7244 14.4577C18.1874 14.4568 18.5566 14.0876 18.5566 13.648V13.648Z" fill="#312E38"/>
<path d="M5.70851 0.499756H0.855715C0.393544 0.499756 0.0234375 0.869862 0.0234375 1.33203V6.18483C0.0234375 6.647 0.393544 7.0171 0.855715 7.0171C1.31789 7.0171 1.68799 6.647 1.68799 6.18483L1.68709 2.14083H5.73108C6.19325 2.14083 6.56336 1.77073 6.56336 1.30855C6.56336 0.846384 6.1707 0.499756 5.70853 0.499756H5.70851Z" fill="#312E38"/>
<path d="M21.1441 0.499756H16.2913C15.8291 0.499756 15.459 0.869862 15.459 1.33203C15.459 1.7942 15.8291 2.16431 16.2913 2.16431H20.3353V6.2083C20.3353 6.67048 20.7054 7.04058 21.1675 7.04058C21.6297 7.04058 21.9998 6.67048 21.9998 6.2083V1.35551C21.9763 0.869862 21.6062 0.499779 21.1441 0.499779L21.1441 0.499756Z" fill="#312E38"/>
<path d="M21.144 11.3374C20.6818 11.3374 20.3117 11.7075 20.3117 12.1697V16.2137H16.2913C15.8291 16.2137 15.459 16.5838 15.459 17.0459C15.459 17.5081 15.8291 17.8782 16.2913 17.8782H21.1441C21.6062 17.8782 21.9763 17.5081 21.9763 17.0459V12.1932C21.9763 11.6841 21.6062 11.3374 21.1441 11.3374L21.144 11.3374Z" fill="#312E38"/>
<path d="M5.70855 16.1902H1.66455V12.1462C1.66455 11.6841 1.29445 11.314 0.832277 11.314C0.370106 11.314 0 11.6841 0 12.1462V16.999C0 17.4612 0.370106 17.8313 0.832277 17.8313H5.68507C6.14724 17.8313 6.51735 17.4612 6.51735 16.999C6.51735 16.5369 6.17072 16.1902 5.70855 16.1902Z" fill="#312E38"/>
</svg>
