<svg width="40" height="40" viewBox="0 0 40 40" fill="none" xmlns="http://www.w3.org/2000/svg">
<circle cx="20" cy="20" r="20" fill="#5CE46E"/>
<path d="M12.4382 12C11.6549 12 11 12.6308 11 13.4062V26.7735C11 27.5488 11.65 28.1758 12.4303 28.1797L24.2521 28.25C24.9446 29.8643 26.5675 31 28.4483 31C30.9563 31 33 28.9795 33 26.5C33 24.2735 31.3514 22.4258 29.1991 22.0703V15.75C29.1991 15.4737 28.9729 15.2501 28.6933 15.2501H25.9196V12.5001C25.9196 12.2237 25.6934 12.0001 25.4138 12.0001L12.4382 12ZM12.4382 13H24.9079V15.25H12.0114V13.4062C12.0114 13.1728 12.1921 13 12.4381 13H12.4382ZM12.0115 16.25H28.1875V19.75H23.541C22.4653 19.75 21.6207 20.6689 21.6207 21.75C21.6207 22.832 22.4653 23.75 23.541 23.75H24.8607C24.2621 24.5117 23.8966 25.4638 23.8966 26.5C23.8966 26.7558 23.9262 27.0058 23.9677 27.2499L12.4382 27.1796C12.1893 27.1787 12.0115 27.0068 12.0115 26.7734L12.0115 16.25ZM23.541 20.75H28.1875V22.0156C27.3627 22.0625 26.5942 22.3242 25.9433 22.75H23.541C23.0471 22.75 22.6322 22.33 22.6322 21.75C22.6322 21.1699 23.0471 20.75 23.541 20.75ZM28.4482 23C30.409 23 31.9885 24.5615 31.9885 26.5C31.9885 28.4384 30.409 29.9999 28.4482 29.9999C26.4875 29.9999 24.908 28.4384 24.908 26.5C24.908 24.5615 26.4875 23 28.4482 23ZM28.3929 24.4922C28.1322 24.5205 27.9366 24.7412 27.9425 25V26H26.931C26.9152 25.999 26.8994 25.999 26.8836 26C26.7493 26.0058 26.6228 26.0644 26.5329 26.163C26.4421 26.2607 26.3956 26.3906 26.4016 26.5234C26.4075 26.6562 26.4668 26.7812 26.5665 26.8701C26.6653 26.9599 26.7967 27.0058 26.931 26.9999H27.9425V27.9999C27.9405 28.1337 27.9929 28.2626 28.0877 28.3583C28.1835 28.4531 28.3129 28.5068 28.4483 28.5068C28.5836 28.5068 28.713 28.4531 28.8088 28.3583C28.9036 28.2626 28.956 28.1337 28.954 27.9999V26.9999H29.9655C30.1008 27.0019 30.2312 26.9501 30.328 26.8564C30.4238 26.7617 30.4782 26.6337 30.4782 26.4999C30.4782 26.3661 30.4238 26.2382 30.328 26.1435C30.2312 26.0497 30.1008 25.998 29.9655 25.9999H28.954V24.9999C28.957 24.8564 28.8977 24.7177 28.79 24.6201C28.6824 24.5234 28.5381 24.4765 28.3929 24.4921L28.3929 24.4922Z" fill="white"/>
</svg>
