<svg width="24" height="20" viewBox="0 0 24 20" fill="none" xmlns="http://www.w3.org/2000/svg">
<path fill-rule="evenodd" clip-rule="evenodd" d="M19.5456 11.8662C19.1623 12.0206 18.7086 11.941 18.3995 11.6294C17.9833 11.2106 17.9833 10.5305 18.3986 10.1117L20.1253 8.37054C20.5405 7.95182 21.2141 7.95182 21.6284 8.37054L23.3561 10.1127C23.7704 10.5305 23.7704 11.2106 23.3552 11.6284C22.9399 12.0471 22.2654 12.0471 21.852 11.6284L21.774 11.5498C21.0347 16.3339 16.9265 20 11.9755 20C8.28432 20 5.06208 17.9623 3.35236 14.9385C3.2058 14.6742 3.17668 14.3596 3.27344 14.0726C3.35611 13.8263 3.52429 13.6207 3.7441 13.4919L3.85966 13.4313C4.35944 13.2134 4.94285 13.4114 5.20685 13.8869C6.54839 16.2571 9.07844 17.8552 11.9758 17.8552C15.6379 17.8552 18.7142 15.3021 19.5456 11.8662ZM2.18547 8.40851C2.94267 3.64526 7.04072 0 11.9775 0C15.6714 0 18.8958 2.04055 20.6026 5.06446L20.6054 5.0692C20.751 5.33349 20.7801 5.64706 20.6834 5.93411C20.5913 6.20977 20.3912 6.43524 20.131 6.55839L20.1 6.5726C20.0596 6.58965 19.991 6.61618 19.9544 6.62565C19.4903 6.75354 18.9886 6.54986 18.749 6.11884C17.4084 3.74674 14.8765 2.14473 11.9765 2.14473C8.30598 2.14473 5.22564 4.7091 4.40265 8.15646C4.79627 7.97268 5.27822 8.04467 5.60234 8.3715C6.01759 8.79023 6.01759 9.46945 5.60234 9.88817L3.87467 11.6303C3.45942 12.049 2.78585 12.0481 2.37154 11.6294L0.644811 9.88817C0.229562 9.46944 0.229562 8.78928 0.644811 8.3715C1.06006 7.95277 1.73363 7.95277 2.14888 8.3715L2.18547 8.40851Z" fill="#003B80"/>
<path d="M11.3641 13.8822C10.4353 13.8424 9.54049 13.6471 8.67959 13.2965V11.312C9.17154 11.5471 9.70589 11.7444 10.2826 11.9038C10.8594 12.0592 11.3662 12.1369 11.803 12.1369C12.1635 12.1369 12.4264 12.097 12.5918 12.0173C12.7614 11.9337 12.8463 11.7962 12.8463 11.6049C12.8463 11.4734 12.7848 11.3618 12.6618 11.2702C12.543 11.1785 12.3416 11.0749 12.0575 10.9594C11.7776 10.8438 11.398 10.7043 10.9188 10.5409C10.3802 10.3537 9.9455 10.1445 9.61471 9.91333C9.28392 9.67822 9.04219 9.41721 8.88952 9.1303C8.74109 8.83941 8.66687 8.47878 8.66687 8.04842C8.66687 7.39091 8.89164 6.87687 9.34117 6.50628C9.7907 6.13568 10.465 5.90656 11.3641 5.81889V5H12.6809V5.80693C13.5248 5.85077 14.3751 6.04603 15.2318 6.39271L14.4748 8.09623C13.5884 7.72166 12.789 7.53437 12.0765 7.53437C11.7373 7.53437 11.4977 7.57422 11.3577 7.65391C11.222 7.72963 11.1541 7.8432 11.1541 7.99462C11.1541 8.12612 11.2029 8.2357 11.3005 8.32337C11.4022 8.40705 11.5761 8.50269 11.8221 8.61028C12.0681 8.71389 12.4094 8.83543 12.8463 8.9749C13.7326 9.26977 14.3687 9.60649 14.7547 9.98506C15.1406 10.3596 15.3335 10.8438 15.3335 11.4375C15.3335 12.107 15.1066 12.6509 14.6529 13.0693C14.2033 13.4877 13.546 13.7468 12.6809 13.8464V15H11.3641V13.8822Z" fill="#003B80"/>
</svg>
