<svg width="19" height="18" viewBox="0 0 19 18" fill="none" xmlns="http://www.w3.org/2000/svg">
<rect x="0.5" width="18" height="18" rx="9" fill="#0072F9"/>
<path d="M13.5907 5.10035C13.3359 5.10948 13.094 5.21598 12.9173 5.39853C11.041 7.26752 9.60848 8.82837 7.867 10.5956L6.01213 9.03771C5.81395 8.87112 5.55607 8.78973 5.29667 8.81102C5.03727 8.83308 4.79776 8.95707 4.63019 9.15484C4.46261 9.35337 4.38074 9.60896 4.4037 9.86682C4.42666 10.1247 4.55138 10.3628 4.75109 10.5286L7.29769 12.6707C7.68642 12.9962 8.26033 12.9727 8.61997 12.6159C10.7297 10.5141 12.2318 8.83535 14.3008 6.7739C14.5916 6.49473 14.6804 6.06647 14.5227 5.69601C14.3659 5.32481 13.9955 5.08899 13.5907 5.1004L13.5907 5.10035Z" fill="white"/>
</svg>
