<svg width="18" height="14" viewBox="0 0 18 14" fill="none" xmlns="http://www.w3.org/2000/svg">
<path d="M15.818 0.50058C15.3933 0.515793 14.9902 0.693285 14.6957 0.997539C11.5685 4.11253 9.18096 6.71394 6.27849 9.65928L3.18705 7.06283C2.85674 6.78519 2.42695 6.64955 1.99462 6.68502C1.56228 6.72179 1.16309 6.92844 0.883812 7.25806C0.604512 7.58894 0.468063 8.01492 0.506328 8.4447C0.544592 8.87447 0.75247 9.27131 1.08532 9.54767L5.32965 13.1178C5.97753 13.6604 6.93404 13.6211 7.53344 13.0265C11.0497 9.52357 13.5532 6.72557 17.0016 3.28983C17.4862 2.82454 17.6341 2.11078 17.3714 1.49335C17.11 0.874678 16.4927 0.481642 15.818 0.500661L15.818 0.50058Z" fill="#312E38"/>
</svg>
