<svg xmlns="http://www.w3.org/2000/svg" width="36" height="32" fill="none" viewBox="0 0 36 32">
    <path fill="#E42D31" d="M33.158 15.19L30.4 13.504c-.352-.208-.465-.646-.266-1.031l1.598-2.817c.291-.543.122-1.2-.395-1.531L28.581 6.44c-.352-.208-.465-.646-.265-1.031l1.597-2.817c.23-.393.203-.886-.088-1.244-.26-.366-.729-.51-1.164-.398L1.292 8.071c-.435.114-.775.469-.826.916-.05.447.132.9.524 1.13l2.756 1.685c.353.209.465.646.266 1.031L2.415 15.65c-.292.543-.123 1.2.394 1.532l2.757 1.684c.352.208.465.646.266 1.031l-1.598 2.817c-.291.543-.122 1.2.395 1.532l2.756 1.684c.353.208.465.646.266 1.031l-1.597 2.817c-.23.394-.203.887.088 1.244.26.366.729.511 1.164.398l27.369-7.12c.435-.114.775-.469.826-.916.05-.446-.132-.899-.524-1.13l-2.756-1.685c-.353-.208-.465-.646-.266-1.031l1.597-2.817c.3-.512.123-1.2-.394-1.532zm-20.415-3.76c1.057-.276 2.154.373 2.427 1.435.274 1.063-.371 2.165-1.429 2.44-1.057.275-2.153-.374-2.427-1.436-.305-1.055.34-2.157 1.429-2.44zm1.603 10.988c-.306-.154-.51-.434-.599-.778-.089-.344-.037-.657.148-.972l6.016-10.27c.161-.275.44-.481.75-.562.312-.081.655-.037.968.148.274.162.51.435.599.778.088.344.037.658-.148.973l-5.993 10.23c-.345.59-1.154.8-1.741.453zm8.886-1.445c-1.057.276-2.154-.373-2.427-1.436-.274-1.063.371-2.164 1.429-2.44 1.057-.274 2.153.374 2.427 1.437.274 1.063-.34 2.156-1.429 2.44z"/>
    <path fill="url(#paint0_linear)" d="M33.158 15.19L30.4 13.504c-.352-.208-.465-.646-.266-1.031l1.598-2.817c.291-.543.122-1.2-.395-1.531L28.581 6.44c-.352-.208-.465-.646-.265-1.031l1.597-2.817c.23-.393.203-.886-.088-1.244-.26-.366-.729-.51-1.164-.398L1.292 8.071c-.435.114-.775.469-.826.916-.05.447.132.9.524 1.13l2.756 1.685c.353.209.465.646.266 1.031L2.415 15.65c-.292.543-.123 1.2.394 1.532l2.757 1.684c.352.208.465.646.266 1.031l-1.598 2.817c-.291.543-.122 1.2.395 1.532l2.756 1.684c.353.208.465.646.266 1.031l-1.597 2.817c-.23.394-.203.887.088 1.244.26.366.729.511 1.164.398l27.369-7.12c.435-.114.775-.469.826-.916.05-.446-.132-.899-.524-1.13l-2.756-1.685c-.353-.208-.465-.646-.266-1.031l1.597-2.817c.3-.512.123-1.2-.394-1.532zm-20.415-3.76c1.057-.276 2.154.373 2.427 1.435.274 1.063-.371 2.165-1.429 2.44-1.057.275-2.153-.374-2.427-1.436-.305-1.055.34-2.157 1.429-2.44zm1.603 10.988c-.306-.154-.51-.434-.599-.778-.089-.344-.037-.657.148-.972l6.016-10.27c.161-.275.44-.481.75-.562.312-.081.655-.037.968.148.274.162.51.435.599.778.088.344.037.658-.148.973l-5.993 10.23c-.345.59-1.154.8-1.741.453zm8.886-1.445c-1.057.276-2.154-.373-2.427-1.436-.274-1.063.371-2.164 1.429-2.44 1.057-.274 2.153.374 2.427 1.437.274 1.063-.34 2.156-1.429 2.44z"/>
    <defs>
        <linearGradient id="paint0_linear" x1="12.057" x2="-2.446" y1="-6.821" y2="27.447" gradientUnits="userSpaceOnUse">
            <stop stop-color="#FF0065"/>
            <stop offset="1" stop-color="#E42D31"/>
        </linearGradient>
    </defs>
</svg>
