<svg width="18" height="19" viewBox="0 0 18 19" fill="none" xmlns="http://www.w3.org/2000/svg">
<path fill-rule="evenodd" clip-rule="evenodd" d="M2.86113 0.833548H15.1377L15.1379 0.833496C16.7249 0.833496 17.999 2.10758 17.999 3.69463L18 17.1165C18 18.0014 17.2969 18.7035 16.413 18.7035C16.0228 18.7035 15.6326 18.5734 15.3461 18.2869L13.6036 16.6745C12.7715 15.8942 11.6782 15.4776 10.5342 15.4776H2.86113C1.30051 15.4776 0 14.2035 0 12.6165V3.69468C0 2.13406 1.27409 0.833548 2.86113 0.833548ZM14.8258 15.3728L16.1781 16.6215L16.1781 3.69473C16.1781 3.12271 15.7097 2.65432 15.1377 2.65432H2.86108C2.28906 2.65432 1.82067 3.12271 1.82067 3.69473V12.6417C1.82067 13.2138 2.28906 13.6822 2.86108 13.6822H10.5076C12.1213 13.6822 13.6553 14.2806 14.8258 15.3728ZM6.86777 10.3274C7.07605 9.33887 7.93352 8.585 9.00033 8.58496C10.0407 8.58496 10.9247 9.33884 11.1584 10.3274C11.1848 10.5357 11.0283 10.744 10.7946 10.744H7.2315C6.99782 10.744 6.81595 10.5357 6.86777 10.3274ZM14.2276 7.02432C14.2276 8.30757 12.3032 8.30757 12.3032 7.02432C12.3032 5.74108 14.2276 5.74108 14.2276 7.02432ZM5.69709 7.02432C5.69709 8.30757 3.77173 8.30757 3.77173 7.02432C3.77173 5.74108 5.69709 5.74108 5.69709 7.02432Z" fill="#524962"/>
</svg>
