<svg width="20" height="20" viewBox="0 0 20 20" fill="none" xmlns="http://www.w3.org/2000/svg">
<path fill-rule="evenodd" clip-rule="evenodd" d="M9.03021 0.5C7.53685 0.5 6.32221 1.71464 6.32221 3.20801V6.32221H3.20801C1.7147 6.32221 0.5 7.53679 0.5 9.02934V16.792C0.5 18.2863 1.7147 19.5 3.20801 19.5H10.9707C12.464 19.5 13.6787 18.2854 13.6787 16.792V13.6778H16.792C18.2853 13.6778 19.5 12.4632 19.5 10.9707V3.20904C19.501 1.7147 18.2863 0.5 16.7929 0.5H9.03021ZM7.85733 3.20888C7.85733 2.56172 8.38412 2.03512 9.03021 2.03512H16.7929C17.4396 2.03512 17.9657 2.5624 17.9657 3.20888V10.9707C17.9657 11.6176 17.4392 12.1435 16.7929 12.1435H9.03021C8.38325 12.1435 7.85733 11.6169 7.85733 10.9707V3.20888ZM2.03512 9.02934C2.03512 8.38238 2.56172 7.85646 3.20801 7.85646H6.32133V10.9707C6.32133 12.4641 7.53609 13.6778 9.02934 13.6778H12.1435V16.792C12.1435 17.4392 11.6167 17.9657 10.9707 17.9657H3.20801C2.56124 17.9657 2.03512 17.4385 2.03512 16.792V9.02934Z" fill="#524962"/>
</svg>
