<?xml version="1.0" encoding="UTF-8" standalone="no"?>
<svg
   width="95.016251"
   height="116.28899"
   viewBox="0 0 95.016251 116.28899"
   fill="none"
   version="1.1"
   id="svg71"
   sodipodi:docname="Artboard 4 1 (1).svg"
   inkscape:version="1.1.2 (0a00cf5339, 2022-02-04)"
   xmlns:inkscape="http://www.inkscape.org/namespaces/inkscape"
   xmlns:sodipodi="http://sodipodi.sourceforge.net/DTD/sodipodi-0.dtd"
   xmlns="http://www.w3.org/2000/svg"
   xmlns:svg="http://www.w3.org/2000/svg">
  <sodipodi:namedview
     id="namedview73"
     pagecolor="#ffffff"
     bordercolor="#666666"
     borderopacity="1.0"
     inkscape:pageshadow="2"
     inkscape:pageopacity="0.0"
     inkscape:pagecheckerboard="0"
     showgrid="false"
     fit-margin-top="0"
     fit-margin-left="0"
     fit-margin-right="0"
     fit-margin-bottom="0"
     inkscape:zoom="5.0839161"
     inkscape:cx="47.011004"
     inkscape:cy="55.764099"
     inkscape:window-width="1920"
     inkscape:window-height="1002"
     inkscape:window-x="0"
     inkscape:window-y="27"
     inkscape:window-maximized="1"
     inkscape:current-layer="svg71" />
  <path
     d="m 94.654273,56.510131 c -0.124,0.221 -0.279,0.4226 -0.469,0.5932 -0.486,0.4381 -1.142,0.6204 -1.631,1.0546 -0.066,0.2869 -0.136,0.57 -0.209,0.853 -0.54,1.9735 -1.39,3.8462 -2.535,5.5522 -1.274,1.8959 -2.904,3.5748 -4.783,4.8736 -1.083,0.7483 -2.236,1.3842 -3.459,1.8688 -0.322,0.128 -0.745,0.0233 -0.889,-0.3218 -0.132,-0.3179 -0.027,-0.7483 0.323,-0.8879 0.516,-0.2055 1.02,-0.4342 1.51,-0.6901 0.24,-0.1241 0.477,-0.2559 0.714,-0.3916 0.112,-0.0659 0.225,-0.1318 0.338,-0.2016 0.054,-0.031 0.104,-0.0659 0.155,-0.0969 0.035,-0.0233 0.066,-0.0427 0.101,-0.066 0.916,-0.6009 1.774,-1.2911 2.562,-2.051 0.194,-0.19 0.388,-0.3838 0.574,-0.5816 0.02,-0.0194 0.07,-0.0775 0.086,-0.0892 0.035,-0.0387 0.07,-0.0775 0.105,-0.1163 0.093,-0.1047 0.186,-0.2093 0.279,-0.3179 0.361,-0.4187 0.703,-0.8569 1.025,-1.3105 0.322,-0.4536 0.621,-0.9189 0.901,-1.3997 0.066,-0.1124 0.132,-0.2287 0.194,-0.345 0.027,-0.0504 0.054,-0.1009 0.081,-0.1474 l 0.008,-0.0155 c 0.019,-0.0349 0.039,-0.0698 0.054,-0.1085 0.125,-0.2404 0.245,-0.4886 0.361,-0.7367 0.26,-0.5622 0.493,-1.1399 0.695,-1.7292 0.097,-0.287 0.187,-0.5739 0.272,-0.8647 0.043,-0.1551 0.085,-0.3101 0.124,-0.4652 0.02,-0.0737 0.035,-0.1474 0.054,-0.221 0.012,-0.0466 0.02,-0.0931 0.032,-0.1357 0.011,-0.0427 0.023,-0.0892 0.038,-0.128 -0.186,-0.1085 -0.368,-0.2249 -0.539,-0.3451 -0.858,-0.4613 -1.328,-1.4694 -1.258,-2.3844 0.101,-1.0934 0.699,-2.3729 1.933,-2.6521 0.19,-0.0504 0.385,-0.0775 0.575,-0.0891 0.772,-0.0427 1.549,0.2171 2.205,0.7017 0.78,0.5778 0.974,1.8068 0.745,2.6986 -0.062,0.2365 -0.151,0.4691 -0.272,0.6824 z"
     fill="#300000"
     id="path2" />
  <path
     d="m 88.583273,49.166731 c 0.043,-0.3916 0.342,-0.6436 0.745,-0.6359 0.435,0.0078 0.66,0.283 0.839,0.6398 0.605,1.2329 0.819,2.6054 1.149,3.9237 0.004,0.0232 0.008,0.0465 0.004,0.0659 0,0.0465 -0.008,0.093 -0.039,0.1396 -0.183,0.2559 -0.474,0.632 -0.842,0.5389 -0.175,-0.0465 -0.21,-0.1473 -0.288,-0.2985 -0.361,-0.7251 -0.679,-1.4734 -0.974,-2.2294 -0.249,-0.6398 -0.66,-1.5587 -0.594,-2.1441 z"
     fill="#300000"
     id="path4" />
  <path
     d="m 91.277273,52.830631 c 0.353,-1.4151 0.555,-2.8458 1.246,-4.1447 0.167,-0.3063 0.722,-0.4226 0.982,-0.0892 0.121,0.2055 0.117,0.5545 0.051,0.7987 -0.505,1.2601 -0.951,2.6249 -1.584,3.8811 -0.171,0.0892 -0.388,0.0078 -0.695,-0.442 z"
     fill="#300000"
     id="path6" />
  <path
     d="m 91.475273,52.900431 c 0.206,-0.8336 0.361,-1.6788 0.602,-2.5008 0.12,-0.411 0.256,-0.8142 0.431,-1.2058 0.097,-0.221 0.186,-0.5234 0.458,-0.5777 0.306,-0.0659 0.434,0.2094 0.427,0.4653 -0.012,0.3761 -0.241,0.7715 -0.373,1.1244 -0.151,0.4032 -0.303,0.8064 -0.462,1.2058 -0.159,0.4032 -0.322,0.8064 -0.501,1.2019 -0.039,0.0814 -0.147,0.4459 -0.24,0.473 -0.105,0.031 -0.326,-0.3218 -0.377,-0.3916 -0.159,-0.221 -0.485,0.0504 -0.326,0.2676 0.182,0.252 0.474,0.6319 0.842,0.535 0.175,-0.0465 0.21,-0.1473 0.288,-0.3024 0.143,-0.2908 0.275,-0.5893 0.403,-0.8879 0.276,-0.6475 0.517,-1.3027 0.765,-1.9619 0.186,-0.4885 0.47,-0.9925 0.384,-1.5314 -0.062,-0.3916 -0.345,-0.6437 -0.749,-0.6359 -0.435,0.0077 -0.66,0.283 -0.834,0.6436 -0.602,1.233 -0.812,2.6055 -1.134,3.9276 -0.062,0.2598 0.33,0.4071 0.396,0.1473 z"
     fill="#300000"
     id="path8" />
  <path
     d="m 1.666773,68.246431 c 0.1902,0.1706 0.3998,0.3102 0.6366,0.411 0.5979,0.2598 1.2811,0.2249 1.8828,0.4769 0.1514,0.252 0.3105,0.4963 0.4736,0.7405 1.1413,1.6983 2.5465,3.2026 4.1808,4.4511 1.8129,1.388 3.8936,2.4581 6.0908,3.0901 1.2655,0.3645 2.562,0.5971 3.878,0.6669 0.3494,0.0194 0.7143,-0.2133 0.7376,-0.5894 0.0233,-0.3411 -0.2174,-0.7172 -0.5901,-0.7366 -0.5551,-0.031 -1.1063,-0.0853 -1.6537,-0.1706 -0.2678,-0.0427 -0.5357,-0.0892 -0.8035,-0.1435 -0.1281,-0.0271 -0.2562,-0.0543 -0.3844,-0.0853 -0.0582,-0.0155 -0.1203,-0.0271 -0.1785,-0.0426 -0.0388,-0.0117 -0.0777,-0.0194 -0.1165,-0.031 -1.0597,-0.2753 -2.0962,-0.6553 -3.0861,-1.1244 -0.2446,-0.1164 -0.4891,-0.2404 -0.7298,-0.3645 -0.0233,-0.0116 -0.0932,-0.0504 -0.1087,-0.0582 -0.0466,-0.0232 -0.0893,-0.0504 -0.1359,-0.0775 -0.1242,-0.0698 -0.2445,-0.1396 -0.3649,-0.2132 -0.4775,-0.2831 -0.9394,-0.5894 -1.3897,-0.9151 -0.4503,-0.3256 -0.8851,-0.6707 -1.3005,-1.0352 -0.1009,-0.0853 -0.1979,-0.1745 -0.295,-0.2636 -0.0427,-0.0388 -0.0815,-0.0776 -0.1242,-0.1163 l -0.0155,-0.0117 c -0.0272,-0.0271 -0.0583,-0.0543 -0.0854,-0.0814 -0.198,-0.19 -0.3882,-0.3838 -0.5784,-0.5816 -0.4271,-0.4497 -0.8347,-0.9228 -1.2112,-1.4152 -0.1825,-0.2403 -0.361,-0.4846 -0.5318,-0.7327 -0.0893,-0.1319 -0.1786,-0.2637 -0.2679,-0.3994 -0.0427,-0.062 -0.0815,-0.128 -0.1203,-0.19 -0.0233,-0.0426 -0.0466,-0.0814 -0.0699,-0.1163 -0.0233,-0.0388 -0.0505,-0.0737 -0.0776,-0.1086 0.1397,-0.1589 0.2795,-0.3295 0.3998,-0.5001 0.6638,-0.7096 0.7841,-1.8146 0.427,-2.6598 -0.4464,-1.0042 -1.4208,-2.0278 -2.6785,-1.8959 -0.1941,0.0155 -0.3882,0.0465 -0.5745,0.1008 -0.7454,0.2055 -1.3975,0.7017 -1.8634,1.3725 -0.55509999,0.7948 -0.34549999,2.0239 0.1553,2.7955 0.132,0.2055 0.295,0.3954 0.4775,0.5622 z"
     fill="#300000"
     id="path10" />
  <path
     d="m 5.067373,59.352131 c -0.167,-0.3567 -0.5319,-0.5002 -0.9123,-0.3645 -0.4115,0.1435 -0.5357,0.4769 -0.5862,0.8763 -0.1785,1.3609 0.0583,2.7295 0.1708,4.0866 0,0.0232 0.0078,0.0465 0.0156,0.0659 0.0116,0.0426 0.0349,0.0853 0.0815,0.1202 0.2523,0.1822 0.6521,0.4497 0.9705,0.2442 0.1514,-0.0969 0.1514,-0.2055 0.1747,-0.3761 0.1086,-0.8025 0.1746,-1.6129 0.2096,-2.4232 0.031,-0.6863 0.1242,-1.6866 -0.1242,-2.2217 z"
     fill="#300000"
     id="path12" />
  <path
     d="m 3.685373,63.682931 c -0.7881,-1.229 -1.4364,-2.5202 -2.5078,-3.5321 -0.25619999,-0.2365 -0.81909999,-0.1667 -0.96269999,0.2288 -0.0466,0.2326 0.066,0.5621 0.2058,0.7715 0.88499999,1.0352 1.74289999,2.1829 2.74449999,3.1716 0.1902,0.031 0.3688,-0.1163 0.5163,-0.6398 z"
     fill="#300000"
     id="path14" />
  <path
     d="m 3.522273,63.814831 c -0.4619,-0.7251 -0.8812,-1.4734 -1.3703,-2.179 -0.2445,-0.349 -0.5046,-0.6902 -0.7958,-1.0042 -0.163,-0.1784 -0.3455,-0.4343 -0.61719999,-0.4033 -0.3144,0.0388 -0.3455,0.3374 -0.2523,0.5777 0.132,0.3529 0.4774,0.6553 0.71419999,0.9461 0.2718,0.3334 0.5435,0.6669 0.823,0.9964 0.2795,0.3335 0.5629,0.6592 0.8579,0.9771 0.0621,0.0659 0.2834,0.3761 0.3766,0.3722 0.1125,-0.0039 0.2057,-0.411 0.229,-0.4885 0.0815,-0.2598 0.4736,-0.1086 0.396,0.1512 -0.0932,0.2985 -0.2485,0.7522 -0.625,0.7793 -0.1786,0.0116 -0.2485,-0.0737 -0.3688,-0.1939 -0.229,-0.2287 -0.4503,-0.4691 -0.6677,-0.7134 -0.4658,-0.5234 -0.9084,-1.0701 -1.35479999,-1.6129 -0.3338,-0.4032 -0.7647,-0.7871 -0.854,-1.326 -0.066,-0.3877 0.1203,-0.7173 0.5046,-0.8413 0.4154,-0.1319 0.71429999,0.0581 0.99769999,0.345 0.9627,0.9771 1.6032,2.21 2.333,3.3577 0.1437,0.2249 -0.1824,0.4924 -0.3299,0.2636 z"
     fill="#300000"
     id="path16" />
  <path
     d="m 66.374673,85.108731 c 0.3145,0.422 0.6328,0.845 0.9239,1.287 l -0.0233,-0.023 c 0.0427,0.05 0.1087,0.124 0.1476,0.194 0.3571,0.511 0.7065,1.023 1.052,1.539 0.6987,1.047 1.3742,2.101 2.0302,3.164 1.3082,2.117 2.5542,4.257 3.7852,6.401 0.698,1.213 1.393,2.430999 2.092,3.643999 0.229,0.4 0.73,0.691 1.052,0.555 0.318,-0.132 0.423,-0.551 0.179,-0.977 -2.504,-4.334999 -4.927,-8.707999 -7.7215,-12.926999 -0.4076,-0.616 -0.8269,-1.233 -1.25,-1.841 -0.427,-0.609 -0.8618,-1.218 -1.3082,-1.823 -0.2834,-0.3836 -0.8463,-0.5116 -1.0753,-0.2944 -0.2679,0.252 -0.1902,0.6824 0.1164,1.0974 z"
     fill="#300000"
     id="path18" />
  <path
     d="m 77.232273,101.42773 c 0.159,-0.031 0.322,-0.07 0.482,-0.116 0.159,-0.047 0.318,-0.105 0.477,-0.167 0.524,-0.283 1.223,-0.648 1.739,-1.121 0.128,-0.119999 0.249,-0.243999 0.346,-0.375999 0.073,-0.097 0.151,-0.205 0.221,-0.322 0.07,-0.116 0.132,-0.244 0.171,-0.368 0.155,-0.384 -0.124,-0.709 -0.458,-0.868 -0.4,-0.14 -0.788,-0.214 -1.18,-0.113 -0.105,0.023 -0.21,0.058 -0.307,0.097 -0.897,0.365 -1.51,1.291 -1.564,2.314999 -0.008,0.085 -0.012,0.174 -0.012,0.263 0.058,0.179 -0.023,0.365 0.035,0.543 0.011,0.078 0.031,0.155 0.054,0.233 z"
     fill="#300000"
     id="path20" />
  <path
     d="m 77.329273,101.95073 c 0.451,-0.085 0.897,-0.221 1.301,-0.438 0.403,-0.217 0.803,-0.446 1.176,-0.709 0.388,-0.272 0.737,-0.601 1.013,-0.988999 0.256,-0.365 0.509,-0.845 0.408,-1.307 -0.202,-0.903 -1.347,-1.217 -2.155,-1.089 -0.827,0.132 -1.572,0.702 -1.987,1.419 -0.245,0.419 -0.4,0.88 -0.451,1.364999 -0.011,0.1 -0.015,0.201 -0.019,0.302 0,0.082 -0.008,0.163 0,0.244 0.008,0.027 0.015,0.055 0.019,0.082 0,-0.066 0,-0.07 0,-0.012 -0.023,0.241 0.012,0.473 0.074,0.706 0.074,0.271 0.322,0.5 0.621,0.43 0.264,-0.058 0.509,-0.333 0.431,-0.62 -0.019,-0.078 -0.039,-0.155 -0.054,-0.233 -0.004,-0.027 -0.016,-0.155 -0.016,-0.031 0,-0.027 0,-0.058 0,-0.085 0.004,-0.105 0.008,-0.202 0,-0.306 0,0 -0.023,-0.128 -0.011,-0.062 0,0.038 0,0.027 0,-0.031 0,-0.035 0,-0.07 0.007,-0.105 0.004,-0.082 0.012,-0.163 0.02,-0.244 0,-0.031 0.008,-0.062 0.011,-0.094 0,0.004 0.028,-0.146999 0.012,-0.073 -0.015,0.073 0.019,-0.074 0.019,-0.07 0.012,-0.039 0.02,-0.074 0.032,-0.111999 0.023,-0.082 0.054,-0.163 0.085,-0.241 0.019,-0.042 0.039,-0.085 0.054,-0.128 -0.007,0.02 -0.05,0.089 0,0 0.035,-0.066 0.074,-0.132 0.117,-0.197 0.042,-0.063 0.085,-0.128 0.132,-0.187 0.019,-0.023 0.039,-0.046 0.058,-0.069 0.043,-0.047 0.039,-0.047 -0.008,0.004 0.02,-0.024 0.043,-0.043 0.062,-0.066 0.097,-0.097 0.198,-0.183 0.311,-0.264 0.019,-0.016 0.143,-0.085 0.031,-0.019 0.027,-0.016 0.05,-0.031 0.078,-0.047 0.077,-0.043 0.159,-0.081 0.244,-0.116 -0.012,0.004 0.152,-0.055 0.086,-0.035 -0.066,0.023 0.104,-0.027 0.089,-0.023 0.074,-0.02 0.151,-0.031 0.225,-0.039 0.101,-0.012 0.019,0 0,0 0.047,0 0.089,0 0.136,0.004 0.031,0 0.062,0.004 0.089,0.007 0.016,0 0.171,0.028 0.113,0.016 -0.078,-0.016 0.073,0.019 0.07,0.019 0.031,0.008 0.062,0.016 0.093,0.027 0.046,0.012 0.093,0.031 0.139,0.043 0.101,0.027 0.016,0 -0.007,-0.012 0.031,0.02 0.151,0.07 0.163,0.113 l -0.051,-0.043 c 0,0 0.035,0.035 0.055,0.058 l 0.023,0.031 c 0.035,0.051 0.031,0.039 -0.016,-0.027 -0.007,0 0.039,0.058 0.031,0.066 l -0.019,-0.062 c 0.008,0.023 0.012,0.051 0.012,0.074 -0.024,-0.101 -0.012,-0.058 -0.008,-0.023 l 0.012,-0.055 c -0.008,0.027 -0.016,0.055 -0.028,0.082 -0.011,0.031 -0.023,0.062 -0.035,0.093 0,0.008 -0.073,0.155 -0.023,0.062 -0.043,0.081 -0.093,0.159 -0.143,0.236 -0.051,0.078 -0.105,0.148 -0.163,0.221 0,0 -0.121,0.136 -0.055,0.062 -0.027,0.027 -0.054,0.055 -0.081,0.082 -0.144,0.143 -0.303,0.271 -0.466,0.391 -0.082,0.059 -0.167,0.116999 -0.253,0.174999 -0.089,0.058 0.109,-0.066 -0.042,0.027 -0.047,0.027 -0.093,0.058 -0.14,0.085 -0.179,0.109 -0.365,0.21 -0.547,0.31 -0.171,0.094 -0.334,0.171 -0.517,0.237 -0.17,0.062 0.047,-0.012 -0.054,0.019 -0.062,0.02 -0.124,0.035 -0.186,0.055 -0.105,0.027 -0.214,0.05 -0.322,0.069 -0.276,0.051 -0.497,0.338 -0.431,0.621 0.062,0.279 0.33,0.488 0.621,0.43 z"
     fill="#300000"
     id="path22" />
  <path
     d="m 40.194973,86.635731 c -0.1126,0.291 -0.2213,0.582 -0.33,0.873 -0.0504,0.139 -0.1009,0.275 -0.1514,0.415 -0.0233,0.062 -0.0466,0.124 -0.066,0.186 0.0427,-0.113 -0.0582,0.159 -0.0698,0.19 -0.2097,0.585 -0.4115,1.171 -0.6056,1.76 -0.396,1.194 -0.7686,2.388 -1.1219,3.59 -0.7065,2.385 -1.3393,4.781 -1.9604,7.172999 -0.3532,1.357 -0.7026,2.714 -1.0559,4.067 -0.1164,0.446 -0.5201,0.857 -0.8656,0.814 -0.3416,-0.042 -0.5551,-0.418 -0.4309,-0.895 1.2694,-4.842999 2.4495,-9.700999 4.0333,-14.504999 0.2329,-0.702 0.4736,-1.403 0.722,-2.105 0.2485,-0.698 0.5086,-1.396 0.7764,-2.094 0.1708,-0.438 0.6716,-0.702 0.9472,-0.547 0.3222,0.179 0.3649,0.609 0.1863,1.082 z"
     fill="#300000"
     id="path24" />
  <path
     d="m 34.045973,105.21573 c -0.163,0.015 -0.3299,0.019 -0.4969,0.015 -0.1669,0 -0.3338,-0.015 -0.5046,-0.035 -0.5823,-0.135 -1.3509,-0.302 -1.972,-0.624 -0.1553,-0.081 -0.3028,-0.17 -0.4348,-0.271 -0.0971,-0.074 -0.2019,-0.159 -0.2989,-0.252 -0.0971,-0.097 -0.1902,-0.202 -0.2601,-0.31 -0.2523,-0.33 -0.0699,-0.718 0.2135,-0.958 0.3494,-0.24 0.7026,-0.415 1.1102,-0.419 0.1087,0 0.2174,0 0.3222,0.016 0.9589,0.112 1.7974,0.845 2.1196,1.818 0.031,0.082 0.0582,0.167 0.0815,0.252 -0.0078,0.186 0.1164,0.349 0.1087,0.535 0.0077,0.082 0.0116,0.159 0.0116,0.241 z"
     fill="#300000"
     id="path26" />
  <path
     d="m 34.092573,105.74673 c -0.4581,0.035 -0.9239,0.023 -1.3703,-0.081 -0.4465,-0.105 -0.8929,-0.221 -1.3238,-0.376 -0.4464,-0.163 -0.8695,-0.384 -1.2383,-0.691 -0.3455,-0.283 -0.7143,-0.682 -0.7376,-1.151 -0.0466,-0.927 0.9783,-1.532 1.7896,-1.617 0.8346,-0.089 1.7042,0.264 2.2942,0.845 0.3455,0.341 0.6172,0.745 0.7919,1.198 0.035,0.093 0.0699,0.19 0.101,0.283 0.0232,0.078 0.0504,0.155 0.0621,0.237 0,0.027 0,0.058 0.0038,0.085 -0.0155,-0.066 -0.0155,-0.07 0,-0.011 0.0854,0.228 0.1126,0.457 0.1165,0.697 0,0.28 -0.1786,0.567 -0.4852,0.582 -0.2679,0.012 -0.5784,-0.186 -0.5823,-0.485 0,-0.081 -0.0039,-0.159 -0.0117,-0.24 0,-0.027 -0.0271,-0.151 0.0078,-0.031 -0.0078,-0.027 -0.0155,-0.054 -0.0272,-0.081 -0.031,-0.097 -0.0621,-0.194 -0.0776,-0.295 0,0 -0.0117,-0.132 -0.0039,-0.062 0.0116,0.039 0.0116,0.027 -0.0078,-0.031 -0.0116,-0.035 -0.0233,-0.066 -0.0349,-0.101 -0.0272,-0.077 -0.0543,-0.155 -0.0854,-0.229 -0.0116,-0.031 -0.0233,-0.058 -0.0388,-0.089 0,0.004 -0.066,-0.136 -0.0311,-0.066 0.035,0.07 -0.0388,-0.066 -0.0349,-0.062 -0.0194,-0.035 -0.0388,-0.066 -0.0621,-0.101 -0.0466,-0.073 -0.0932,-0.143 -0.1475,-0.209 -0.0272,-0.039 -0.0583,-0.074 -0.0893,-0.109 0.0699,0.074 0.0116,0.016 0,0 -0.0544,-0.054 -0.1087,-0.108 -0.1631,-0.159 -0.0582,-0.05 -0.1164,-0.1 -0.1785,-0.143 -0.0233,-0.019 -0.0505,-0.035 -0.0738,-0.054 -0.0505,-0.035 -0.0505,-0.035 0.0078,0 -0.0272,-0.016 -0.0505,-0.031 -0.0777,-0.047 -0.1164,-0.066 -0.2407,-0.124 -0.3688,-0.17 -0.0232,-0.008 -0.163,-0.043 -0.0349,-0.012 -0.031,-0.008 -0.0582,-0.016 -0.0854,-0.023 -0.0893,-0.02 -0.1786,-0.039 -0.2678,-0.047 0.0155,0 -0.1592,-0.011 -0.0932,-0.008 0.0699,0 -0.1087,0 -0.0932,0 -0.0776,0 -0.1514,0.012 -0.229,0.02 -0.0194,0.004 -0.1009,0.015 0,0 -0.0427,0.011 -0.0854,0.023 -0.1281,0.039 -0.0272,0.011 -0.0582,0.019 -0.0854,0.031 -0.0155,0.007 -0.1592,0.069 -0.1048,0.046 0.0698,-0.035 -0.066,0.039 -0.0621,0.035 -0.0272,0.016 -0.0544,0.031 -0.0816,0.05 -0.0427,0.028 -0.0815,0.055 -0.1203,0.078 -0.0932,0.054 -0.0155,0.008 0.0039,-0.012 -0.0272,0.027 -0.1281,0.109 -0.1281,0.152 l 0.0349,-0.055 c -0.0116,0.024 -0.0233,0.047 -0.0349,0.07 l -0.0156,0.035 c -0.0194,0.058 -0.0194,0.046 0.0078,-0.031 0.0078,0 -0.0194,0.066 -0.0116,0.074 v -0.066 c 0,0.023 0.0039,0.05 0.0077,0.073 -0.0038,-0.104 0,-0.058 0,-0.023 l -0.0271,-0.05 c 0.0155,0.023 0.031,0.05 0.0465,0.069 0.0194,0.028 0.0389,0.055 0.0583,0.082 0.0038,0.008 0.1125,0.132 0.0388,0.05 0.0621,0.066 0.132,0.132 0.2019,0.19 0.0698,0.058 0.1436,0.117 0.2173,0.171 0,0 0.1514,0.101 0.066,0.046 0.0311,0.02 0.066,0.039 0.101,0.059 0.1785,0.1 0.3649,0.182 0.5512,0.255 0.0932,0.035 0.1902,0.07 0.2873,0.101 0.1009,0.031 -0.1204,-0.035 0.0465,0.016 0.0544,0.015 0.1049,0.031 0.1592,0.046 0.2019,0.058 0.4076,0.105 0.6133,0.155 0.1864,0.043 0.3688,0.078 0.5629,0.093 0.1786,0.016 -0.0466,0 0.0583,0 0.0659,0 0.1281,0 0.1941,0 0.1086,0 0.2212,-0.007 0.3299,-0.015 0.2795,-0.023 0.5668,0.194 0.5823,0.485 0.0117,0.287 -0.1863,0.558 -0.4852,0.581 z"
     fill="#300000"
     id="path28" />
  <path
     d="M 75.766273,29.277931 46.636873,9.1374309 c -0.9519,-0.6552 -2.1041,-0.9477 -3.2486,-0.819 -1.1445,0.1287 -2.2081,0.6669 -2.9903,1.5172 l -24.0847,26.0882001 c -0.9596,1.0414 -1.422,2.4493 -1.2679,3.8651 l 5.1445,47.1568 c 0.2929,2.672 2.6782,4.606 5.3179,4.314 l 53.2175,-5.948 c 2.64,-0.296 4.551,-2.7106 4.262,-5.3822 l -5.144,-47.157 c -0.155,-1.4158 -0.91,-2.6872 -2.074,-3.4907 z"
     fill="url(#paint0_linear_544_13038)"
     id="path30"
     style="fill:url(#paint0_linear_544_13038)" />
  <path
     opacity="0.8"
     d="m 31.378973,30.805131 c 4.6377,-5.0959 7.7581,-9.8072 6.9696,-10.523 -0.7884,-0.7159 -5.1872,2.8349 -9.8249,7.9308 -4.6377,5.0959 -7.758,9.8072 -6.9696,10.523 0.7885,0.7159 5.1873,-2.8349 9.8249,-7.9308 z"
     fill="#ffffff"
     id="path32" />
  <path
     d="m 44.212773,20.149631 c -2.2943,0.1396 -4.274,-1.6129 -4.4138,-3.9043 -0.1397,-2.2914 1.6149,-4.2688 3.9091,-4.4084 2.2942,-0.1396 4.274,1.6129 4.4138,3.9044 0.1397,2.2914 -1.6149,4.2688 -3.913,4.4083 z m -0.3882,-6.4012 c -1.2384,0.0736 -2.1856,1.1399 -2.1118,2.3806 0.0738,1.2368 1.1452,2.1828 2.3835,2.1092 1.2383,-0.0737 2.1855,-1.1438 2.1118,-2.3806 -0.0738,-1.2369 -1.1452,-2.1829 -2.3835,-2.1092 z"
     fill="#ffffff"
     id="path34" />
  <path
     d="m 44.228273,20.370631 c -2.4145,0.1474 -4.4991,-1.6982 -4.6428,-4.1098 -0.1475,-2.4116 1.7003,-4.4937 4.1149,-4.6371 2.4145,-0.1474 4.4991,1.6982 4.6428,4.1098 0.1436,2.4116 -1.7003,4.4937 -4.1149,4.6371 z m -0.5007,-8.3127 c -2.1739,0.1318 -3.8354,2.0045 -3.7073,4.1796 0.132,2.1713 2.007,3.8346 4.1808,3.7028 2.1778,-0.1319 3.8354,-2.0045 3.7073,-4.1758 -0.132,-2.1751 -2.007,-3.8345 -4.1808,-3.7027 z"
     fill="#ffffff"
     id="path36" />
  <path
     d="m 44.111873,18.420431 c -1.3315,0.0814 -2.4806,-0.9383 -2.5621,-2.2643 -0.0815,-1.3299 0.9394,-2.4775 2.2671,-2.5589 1.3315,-0.0815 2.4805,0.9382 2.562,2.2643 0.0815,1.3298 -0.9394,2.4775 -2.267,2.555 z m -0.2756,-4.5828 c -1.1996,0.0736 -2.1157,1.105 -2.0419,2.303 0.0737,1.1981 1.1063,2.1131 2.3058,2.0394 1.1995,-0.0736 2.1157,-1.105 2.0419,-2.303 -0.0737,-1.1981 -1.1063,-2.1131 -2.3058,-2.0394 z"
     fill="#ffffff"
     id="path38" />
  <path
     d="m 42.221373,15.283731 c -0.1009,-1.6555 -0.722,-3.5554 -1.3237,-5.3931001 -0.9084,-2.7684 -1.6925,-5.1606 -0.7919,-6.8045 1.0558,-1.9309 4.7631,-2.15189996 6.0441,-0.3645 1.0909,1.5199 0.6017,3.9896 0.035,6.8471 -0.3766,1.8960001 -0.7687,3.8579001 -0.6677,5.5134001"
     stroke="#191919"
     stroke-width="3"
     stroke-miterlimit="10"
     stroke-linecap="round"
     id="path40" />
  <path
     opacity="0.05"
     d="m 26.033873,113.99173 c -0.3169,1.547 3.7292,1.787 5.2826,1.977 5.5174,0.681 11.1288,0.131 16.6383,-0.313 0.6222,-0.082 1.2483,-0.156 1.8744,-0.219 5.7522,-0.585 11.387,0.444 17.1274,0.56 4.77,0.099 9.5677,0.046 14.3217,-0.363 0.755,-0.063 2.066,-0.13 2.547,-0.747 0.482,-0.62 -0.019,-1.096 -0.72,-1.308 -3.392,-1.015 -7.078,-1.018 -10.62,-1.124 -7.2113,-0.219 -14.3291,1.223 -21.5174,0.864 -1.6005,-0.082 -3.1813,-0.297 -4.7661,-0.501 -0.5283,-0.067 -1.0565,-0.134 -1.5848,-0.194 -3.0209,-0.338 -6.1044,-0.398 -9.1605,-0.278 -1.5574,0.06 -3.1148,0.151 -4.6643,0.289 -1.2757,0.113 -2.9935,0.13 -4.0735,0.631 -0.407,0.186 -0.6261,0.451 -0.6809,0.722 z"
     fill="#111111"
     id="path42" />
  <path
     d="m 38.921673,70.599931 c -0.8734,-1.3415 -2.7212,-1.6091 -4.1536,-1.2563 -0.0078,0 -0.0156,0.0039 -0.0233,0.0078 -0.0078,0 -0.0156,0 -0.0233,0 -1.2189,0.3296 -2.7639,1.2174 -2.9658,2.5977 -0.2057,1.4113 1.3237,2.2178 2.5116,2.3729 1.2422,0.1628 2.5427,-0.1706 3.5908,-0.8453 0.9627,-0.6164 1.7857,-1.7641 1.0636,-2.8807 z"
     fill="#f46e6e"
     id="path44" />
  <path
     d="m 64.786973,65.710731 c 0,0 -0.0155,0 -0.0233,0 -0.0077,0 -0.0155,0 -0.0233,0 -1.3858,0 -2.8066,0.5622 -3.5364,1.799 -0.295,0.5002 -0.4115,1.1012 -0.1592,1.644 0.2446,0.5273 0.7298,0.8917 1.2423,1.1321 1.1141,0.5273 2.4689,0.6165 3.6529,0.2947 1.1218,-0.3024 2.5892,-1.233 2.4689,-2.5745 -0.1514,-1.6245 -2.2671,-2.2682 -3.6219,-2.2992 z"
     fill="#f46e6e"
     id="path46" />
  <path
     d="m 50.303573,68.855131 c -1.2694,-1.1282 -2.7756,-0.0581 -3.3812,1.1981 1.0481,0.7328 2.3292,1.1244 3.6025,0.8685 1.3082,-0.2598 2.4145,-1.074 3.1443,-2.1558 -1.0947,-0.8103 -2.4689,-1.2523 -3.3656,0.0892 z"
     fill="#f46e6e"
     id="path48" />
  <path
     d="m 54.503873,65.540131 c -0.1747,-0.411 -0.5785,-0.6591 -1.1142,-0.5893 -0.7337,0.0969 -1.3276,0.6203 -2.003,0.8801 -1.1685,0.4498 -2.4418,0.6359 -3.6879,0.5234 -0.6793,-0.062 -1.5333,-0.3257 -2.17,0.031 -0.8618,0.4808 -0.4542,1.6944 0.0117,2.3225 0.3804,0.5118 0.8501,0.9732 1.3819,1.3454 0.6056,-1.2562 2.1118,-2.3225 3.3812,-1.1981 0.8967,-1.3415 2.2709,-0.8995 3.3656,-0.0892 0.5163,-0.7638 0.8463,-1.6594 0.9278,-2.5822 0.0194,-0.2404 -0.0116,-0.4614 -0.0931,-0.6475 z"
     fill="#300000"
     id="path50" />
  <path
     d="m 31.732373,67.226731 c 0.1592,-1.0624 0.6561,-2.2255 1.8012,-2.5202 1.1568,-0.2985 2.3137,0.4459 2.896,1.4036 0.6638,1.1011 2.3446,0.0193 1.6808,-1.0818 -1.0287,-1.6982 -3.0667,-2.714 -5.0348,-2.2604 -1.8673,0.4304 -3.0202,2.2216 -3.288,4.0129 -0.0816,0.5312 0.1979,1.0701 0.7492,1.1942 0.4969,0.1124 1.118,-0.2133 1.1956,-0.7483 z"
     fill="#300000"
     id="path52" />
  <path
     d="m 61.553273,63.640331 c 0.3106,-1.0275 0.9705,-2.1053 2.1506,-2.2333 1.1879,-0.1279 2.2244,0.7716 2.6592,1.8068 0.5007,1.1825 2.3175,0.3567 1.8167,-0.8297 -0.7725,-1.8262 -2.6436,-3.1289 -4.6544,-2.9622 -1.9099,0.1589 -3.3113,1.7602 -3.8354,3.4972 -0.1553,0.5157 0.0388,1.0856 0.5707,1.2911 0.4736,0.1823 1.1374,-0.0504 1.2926,-0.5699 z"
     fill="#300000"
     id="path54" />
  <defs
     id="defs69">
    <linearGradient
       id="paint0_linear_544_13038"
       x1="42.998299"
       y1="65.500198"
       x2="110.994"
       y2="65.500198"
       gradientUnits="userSpaceOnUse"
       gradientTransform="translate(-27.983727,-15.711269)">
      <stop
         offset="0.09"
         stop-color="#F44100"
         id="stop56" />
      <stop
         offset="0.1"
         stop-color="#F33F00"
         id="stop58" />
      <stop
         offset="0.29"
         stop-color="#EC250E"
         id="stop60" />
      <stop
         offset="0.48"
         stop-color="#E71319"
         id="stop62" />
      <stop
         offset="0.68"
         stop-color="#E4081F"
         id="stop64" />
      <stop
         offset="0.91"
         stop-color="#E30521"
         id="stop66" />
    </linearGradient>
  </defs>
</svg>
