<svg xmlns="http://www.w3.org/2000/svg" width="85.593" height="114.756" fill="none"><path fill="#111" d="M72.41 111.46c.27 1.839-2.544 2.2-3.624 2.457-3.831.913-7.767.362-11.623-.067-.439-.084-.877-.16-1.316-.223-4.033-.593-7.936.74-11.939.985-3.325.202-6.678.23-10.007-.17-.532-.062-1.447-.117-1.801-.845-.355-.732-.022-1.308.459-1.573 2.338-1.276 4.911-1.347 7.379-1.541 5.029-.391 10.045 1.195 15.048.636 1.114-.126 2.211-.413 3.312-.686a33.74 33.74 0 0 1 1.101-.261c2.097-.46 4.248-.585 6.383-.501 1.089.042 2.181.122 3.265.26.895.115 2.093.102 2.865.679.291.218.451.526.498.85z" opacity=".05"/><path fill="#300000" d="M42.338 90.633c.038.568.076 1.14.148 1.712v-.037c0 .07 0 .18.017.265a106.173 106.173 0 0 0 .78 6.05c.414 2.669.899 5.312 1.397 7.95.283 1.495.569 2.989.848 4.483.093.492-.114 1.08-.477 1.199-.358.118-.738-.151-.839-.682-.996-5.34-2.089-10.655-2.759-16.105a93.046 93.046 0 0 1-.473-4.823c-.038-.513.338-1.018.679-1.001.401.016.642.429.679.989z"/><path fill="#300000" d="M44.908 111.742a5.338 5.338 0 0 1-.992.441c-.633.135-1.468.329-2.227.299a3.305 3.305 0 0 1-.553-.067 3.351 3.351 0 0 1-.413-.11 1.876 1.876 0 0 1-.401-.185c-.401-.206-.401-.673-.236-1.04.232-.4.497-.731.898-.925.106-.055.215-.101.325-.135.996-.332 2.16 0 2.928.808.067.068.135.135.198.207.076.185.279.286.355.475.046.076.084.152.122.232z"/><path fill="#300000" d="M45.199 112.242a4.899 4.899 0 0 1-1.384.556c-.489.105-.979.198-1.477.244a4.408 4.408 0 0 1-1.535-.105c-.468-.118-1.021-.341-1.262-.791-.472-.888.249-1.953 1.009-2.416.776-.471 1.797-.53 2.645-.231.498.176.949.446 1.333.808.08.075.156.155.232.23.059.064.122.13.169.203a.434.434 0 0 0 .042.08c-.046-.055-.046-.06-.004-.013.19.185.325.396.439.636.13.273.084.639-.211.795-.258.135-.659.084-.798-.21-.038-.08-.08-.156-.122-.232-.017-.025-.097-.14-.009-.033-.021-.026-.042-.047-.063-.068a2.639 2.639 0 0 1-.215-.252l-.034-.06c.03.03.021.022-.021-.024-.025-.03-.05-.055-.08-.085-.063-.063-.122-.126-.19-.185a.935.935 0 0 0-.076-.067l-.063-.051-.063-.046c-.034-.025-.072-.046-.106-.071a3.293 3.293 0 0 0-.24-.14 1.135 1.135 0 0 1-.135-.067c.105.038.021.009 0 0-.08-.03-.156-.06-.237-.08a2.324 2.324 0 0 0-.337-.075c-.068-.01-.063-.013.008 0-.033 0-.063-.01-.097-.01a2.669 2.669 0 0 0-.438 0c-.026 0-.182.035-.038 0a.681.681 0 0 1-.097.018c-.097.02-.19.046-.283.076a.777.777 0 0 1-.093.034c.068-.03-.105.05-.093.046-.076.038-.147.08-.215.126-.017.013-.093.059 0 0-.038.034-.076.063-.109.097-.026.02-.047.046-.068.07-.013.014-.122.144-.084.094.05-.067-.047.067-.047.063l-.059.084c-.029.042-.055.089-.084.135-.063.097-.013.013 0-.013-.013.038-.072.164-.055.207l.008-.072v.126c.009.068.005.055 0-.033.009 0 .013.075.021.075l-.029-.063a.785.785 0 0 0 .042.072c-.05-.101-.029-.055-.008-.021l-.051-.034a.45.45 0 0 0 .08.046l.093.055c.008 0 .173.076.063.034.093.038.19.067.287.092.097.026.194.047.291.068 0 0 .194.029.089.016l.126.013c.22.017.443.013.663-.004.109-.01.219-.021.329-.034.114-.012-.135.02.055-.008.059-.01.118-.017.177-.03.223-.038.451-.084.675-.13.207-.042.396-.097.595-.168.181-.068-.047.02.059-.021l.19-.09c.105-.05.211-.108.316-.167.266-.152.65-.072.797.21.148.278.072.636-.211.796zM61.584 90.658c-.025.336-.05.673-.08 1.01-.012.16-.025.32-.042.48-.008.07-.013.143-.021.21l-.021.219a108.297 108.297 0 0 1-.781 6.051c-.413 2.668-.898 5.31-1.396 7.95-.283 1.494-.569 2.988-.848 4.482-.093.492.114 1.08.477 1.199.358.118.738-.151.839-.682.996-5.34 2.089-10.655 2.759-16.105.097-.8.19-1.6.266-2.4.08-.802.148-1.606.207-2.41.038-.51-.338-.997-.679-.976-.401.025-.642.429-.684.976z"/><path fill="#300000" d="M59.019 111.742a5.338 5.338 0 0 0 .992.441c.633.135 1.468.329 2.227.299.19-.008.376-.03.553-.067.131-.025.27-.063.413-.11.14-.046.279-.11.401-.185.401-.206.401-.673.236-1.04-.232-.4-.497-.731-.898-.925a1.976 1.976 0 0 0-.325-.135c-.996-.332-2.16 0-2.928.808-.067.068-.135.135-.198.207-.076.185-.278.286-.354.475a2.341 2.341 0 0 0-.123.232z"/><path fill="#300000" d="M58.724 112.242c.435.249.899.45 1.384.556.489.105.979.198 1.476.244.515.05 1.034.025 1.536-.105.468-.118 1.021-.341 1.261-.791.473-.888-.248-1.953-1.008-2.416-.776-.471-1.797-.53-2.645-.231a3.754 3.754 0 0 0-1.333.808c-.08.075-.156.155-.232.23-.059.064-.122.13-.169.203a.505.505 0 0 1-.042.08c.046-.055.046-.06.004-.013a2.14 2.14 0 0 0-.439.636c-.13.273-.084.639.211.795.258.135.658.084.798-.21.038-.08.08-.156.122-.232.017-.025.097-.14.008-.033.022-.026.043-.047.064-.068.076-.08.147-.16.215-.252l.034-.06c-.03.03-.021.022.021-.024.025-.03.05-.055.08-.085.063-.063.122-.126.19-.185a.935.935 0 0 1 .076-.067l.063-.051.063-.046c.034-.025.072-.046.106-.071.08-.051.16-.097.24-.14.047-.02.093-.041.135-.067-.021.009-.105.038 0 0 .076-.03.156-.06.236-.08a2.406 2.406 0 0 1 .338-.075c.067-.01.063-.013-.008 0 .033 0 .063-.01.097-.01.147-.011.295-.011.438 0 .026 0 .182.035.038 0a.681.681 0 0 0 .097.018c.097.02.19.046.283.076-.013-.004.164.063.093.034-.068-.03.105.05.093.046.076.038.147.08.215.126.093.059.017.013 0 0 .038.034.076.063.109.097.026.02.047.046.068.07.013.014.122.144.084.094-.05-.067.047.067.047.063l.059.084c.029.042.055.089.084.135.063.097.013.013 0-.013.013.038.072.164.055.207l-.008-.072v.126c-.009.068-.005.055 0-.033-.009 0-.013.075-.022.075l.03-.063a.785.785 0 0 1-.042.072c.05-.101.029-.055.008-.021l.051-.034a.45.45 0 0 1-.08.046l-.093.055c-.009 0-.173.076-.063.034-.093.038-.19.067-.287.092-.097.026-.194.047-.291.068 0 0-.194.029-.089.016a4.304 4.304 0 0 1-.789.009 9.166 9.166 0 0 1-.329-.034c-.114-.012.135.02-.055-.008-.059-.01-.118-.017-.177-.03a20.052 20.052 0 0 1-.675-.13 4.203 4.203 0 0 1-.595-.168c-.181-.068.047.02-.059-.021l-.19-.09a5.374 5.374 0 0 1-.316-.167c-.266-.152-.65-.072-.797.21-.148.278-.072.636.21.796zM17.275 72.718a24.228 24.228 0 0 0-2.413 2.18l.034-.03c-1.004 1.107-1.954 2.285-2.595 3.619v-.063a13.968 13.968 0 0 0-1.46 7.377c.021.324.047.648.085.973.02.172.042.345.063.513.013.08.025.16.034.24.012.08 0-.025-.004-.034.008.059.02.122.029.18.063.37-.076.792-.485.897-.342.085-.831-.088-.899-.483a20.097 20.097 0 0 1-.29-3.76c-.06-5.027 3.04-9.518 6.939-12.464.342-.219.831-.328 1.11.08.164.27.097.615-.148.775z"/><path fill="#300000" d="M10.837 88.49a2.362 2.362 0 0 0-.983.48c-.75.682-1.287 1.679-1.05 2.765.038.168.088.328.152.48.341 1.014 1.472 1.599 2.438 1.283 1.515-.51 1.544-2.525.721-3.766a3.365 3.365 0 0 0-.438-.585 2.95 2.95 0 0 0-.523-.438 14.598 14.598 0 0 1-.317-.223z"/><path fill="#300000" d="M11.023 89.109a2.728 2.728 0 0 0-.401.126c.11-.05-.089.05-.089.05a2.477 2.477 0 0 0-.173.11c-.012.009-.177.148-.067.047a1.213 1.213 0 0 0-.11.109c-.071.076-.143.152-.21.232a1.143 1.143 0 0 0-.098.122c-.017.02-.114.164-.025.029-.06.084-.114.173-.165.265-.042.076-.08.152-.118.232a1.872 1.872 0 0 0-.059.143c.06-.148-.017.063-.025.092-.03.1-.05.202-.068.307l-.012.106c.017-.152 0 .025 0 .046 0 .109 0 .215.012.324 0 .02.038.198.005.055.017.08.038.16.059.24.03.1.067.197.105.294.017.05.038.1.06.147-.064-.151.008.005.02.03.05.093.11.177.173.257-.101-.135 0 0 .026.02.033.039.071.072.11.106.037.034.08.063.117.097.127.105-.113-.06.03.017l.266.138c.143.072-.123-.03.033.013.043.013.08.025.119.034.042.008.08.02.122.025.034.004.063.013.097.017-.084-.01-.089-.01-.017 0 .101 0 .198 0 .3-.01.16-.011-.123.039.033-.007.043-.013.08-.021.123-.034.042-.012.08-.03.118-.042.156-.055-.118.072.02-.008.06-.038.246-.11.275-.177l-.063.05a.798.798 0 0 1 .067-.063c.034-.03.064-.063.093-.096.021-.021.038-.047.055-.068.097-.113-.067.122.004-.008.042-.076.089-.152.127-.236.017-.038.093-.147.008-.012.03-.047.038-.122.055-.173a2.13 2.13 0 0 0 .047-.223c.008-.046.012-.093.02-.14-.02.169 0 .01 0-.02a3.23 3.23 0 0 0-.029-.572c.021.164 0 .004-.008-.026a3.096 3.096 0 0 0-.047-.19 2.91 2.91 0 0 0-.105-.323.578.578 0 0 1-.034-.093 7.725 7.725 0 0 1-.038-.088c.038.084.042.093.008.025-.054-.096-.105-.197-.164-.294-.08-.126-.16-.253-.253-.375-.009-.012-.085-.097-.017-.021a4.122 4.122 0 0 0-.186-.193c-.257-.25-.434-.345-.742-.564-.274-.198-.266-.686-.038-.914.274-.27.62-.248.915-.037.03.02.055.042.085.059.093.067-.064-.047.02.012.068.046.132.093.199.139.156.109.304.223.439.354.249.239.464.52.645.812.258.408.46.862.553 1.342.19.972.067 2.113-.696 2.824a2.503 2.503 0 0 1-3.055.269c-1.029-.665-1.501-1.936-1.324-3.122.19-1.284 1.232-2.534 2.51-2.832.329-.076.717.084.806.433.08.324-.085.72-.435.804z"/><path fill="#300000" d="M12.782 89.559c.067.08.135.16.21.236.022.02.043.042.068.063l-.046-.033c-.038 0-.232-.034-.24 0a.144.144 0 0 0 .059-.017c.033-.013.025-.01-.021.012-.047.02-.055.026-.022.009a.248.248 0 0 0 .055-.034c.097-.05-.042.017-.03.03l.03-.03c.038-.042.038-.042.004 0-.025.042-.03.046-.012.017a.233.233 0 0 0 .03-.055c-.03 0-.039.152-.039.173v.033c.043.059 0-.042 0 0-.03-.037-.05-.084-.076-.126-.03-.05-.038-.06 0-.008-.063-.076-.139-.14-.21-.206-.038-.034-.06-.051-.005-.01-.038-.028-.084-.054-.126-.08a1.67 1.67 0 0 0-.24-.121c-.039-.017-.077-.03-.11-.046.1.042-.022-.01-.043-.013-.084-.025-.173-.046-.257-.071a8.248 8.248 0 0 0-1.198-.236l.291-1.258c.54.059 1.059.379 1.384.804.152.197.304.395.439.6.054.086.11.174.16.262.097.177.13.35.156.552.038.336-.3.669-.629.664-.375-.004-.624-.265-.666-.627-.017-.16.038.1.042.097 0 0-.055-.097-.063-.101-.051-.08-.102-.16-.152-.235a6.543 6.543 0 0 0-.346-.468c.042.055.008.013-.017-.012-.03-.03-.063-.055-.093-.084-.034-.034-.063-.055-.008-.013a.768.768 0 0 0-.097-.06 1.26 1.26 0 0 1-.102-.054c-.139-.071.051 0-.033-.012-.089-.017-.173-.042-.266-.051-.338-.038-.57-.463-.485-.774.101-.37.413-.522.776-.484a6.722 6.722 0 0 1 1.57.345c.582.206 1.126.535 1.459 1.069.173.274.287.58.22.905-.064.303-.258.534-.494.724-.232.18-.578.303-.87.244-.362-.072-.594-.308-.826-.568-.224-.253-.304-.65-.038-.914.228-.223.675-.311.915-.038z"/><path fill="url(#a)" d="M18.098 34.94 47.321 9.751a5.291 5.291 0 0 1 3.43-1.279c1.261 0 2.48.442 3.438 1.258L83.577 34.73a5.243 5.243 0 0 1 1.852 3.985l.164 51.195c.009 2.903-2.349 5.269-5.256 5.28l-58.611.19c-2.911.009-5.282-2.343-5.295-5.243l-.164-51.195a5.254 5.254 0 0 1 1.826-3.997z" style="fill:url(#a)"/><path fill="#fff" d="M66.515 30.766c-5.635-4.927-9.584-9.626-8.82-10.494.763-.869 5.949 2.421 11.584 7.349 5.634 4.927 9.583 9.626 8.82 10.494-.764.869-5.95-2.421-11.584-7.349z" opacity=".8"/><path fill="#7acdea" d="m15.41 26.872.19.151c.156.114.27.257.346.43.11.16.169.34.181.538.03.198.009.383-.063.564-.038.185-.122.35-.249.493l-.265.256a1.426 1.426 0 0 1-.705.274c-.13 0-.257-.008-.388-.008a1.484 1.484 0 0 1-.675-.3l-.19-.15a1.038 1.038 0 0 1-.346-.43c-.11-.16-.169-.34-.181-.539a1.067 1.067 0 0 1 .063-.564c.038-.185.122-.349.249-.492l.266-.257c.21-.155.443-.244.704-.273.13 0 .258.008.388.008.25.042.477.143.675.299zM16.241 11.71a3.216 3.216 0 0 1-.57-1.187C15.242 8.772 13.792 7 11.77 7.85c-1.898.888-.94 3.262-.134 4.697.11.185.223.37.337.551.81 1.275 1.76 2.483 2.464 3.813 1.16 2.184 1.645 4.705.995 7.116-.274.732-.877.543-1.404.219-.393-.244-.545-.875-.642-1.3-.076-2.214-.869-4.15-2.113-5.749-1.726-2.214-3.793-4.625-3.869-7.58-.046-1.741.772-3.404 2.067-4.553 1.54-1.367 3.16-1.485 5.139-1.46.236.038.472.088.708.156 2.861.804 6.248 4.877 4.093 7.802-.519.707-1.498 1.124-2.316.808a2.038 2.038 0 0 1-.853-.66z"/><path fill="#300000" d="M10.031 39.05c.047 0 .093.01.14.014.11.004.21.037.303.092.106.042.19.11.262.198a.644.644 0 0 1 .152.29.619.619 0 0 1 .042.316l-.046.206a.789.789 0 0 1-.25.358l-.19.122a.898.898 0 0 1-.417.076l-.14-.013a.641.641 0 0 1-.303-.093.635.635 0 0 1-.261-.197.643.643 0 0 1-.152-.29c-.042-.102-.055-.207-.042-.316l.046-.207a.79.79 0 0 1 .249-.357l.19-.122a.9.9 0 0 1 .417-.076zM5.505 31.543a1.868 1.868 0 0 1-.658-.383c-.777-.698-2.042-1.073-2.73-.017-.616 1.036.608 1.86 1.46 2.286.114.054.228.105.341.155.802.345 1.646.619 2.414 1.027 1.26.67 2.311 1.713 2.784 3.076.105.438-.245.543-.6.556-.265.013-.543-.244-.729-.413-.755-1.035-1.763-1.7-2.877-2.062-1.544-.5-3.312-.98-4.308-2.369-.586-.816-.734-1.877-.489-2.84.291-1.15 1.025-1.73 1.979-2.357.126-.06.253-.11.388-.156 1.628-.539 4.565.312 4.489 2.403-.022.505-.35 1.023-.844 1.132a1.215 1.215 0 0 1-.625-.038z"/><path fill="#fff" d="M51.021 21.767c2.497-.067 4.476-2.146 4.408-4.637a4.53 4.53 0 0 0-4.649-4.398c-2.497.067-4.476 2.146-4.413 4.638a4.53 4.53 0 0 0 4.649 4.397zm-.186-6.956a2.452 2.452 0 0 1 2.51 2.378 2.445 2.445 0 0 1-4.889.126 2.445 2.445 0 0 1 2.379-2.504z"/><path fill="#fff" d="M51.029 22.003c2.628-.067 4.712-2.26 4.641-4.878-.068-2.621-2.266-4.696-4.894-4.629-2.628.068-4.712 2.26-4.641 4.878.068 2.622 2.266 4.696 4.894 4.629zm-.24-9.035a4.294 4.294 0 0 1 4.404 4.17 4.288 4.288 0 0 1-4.181 4.394c-2.366.063-4.345-1.81-4.404-4.17a4.294 4.294 0 0 1 4.181-4.399z"/><path fill="#fff" d="M50.974 19.886a2.632 2.632 0 0 0 2.561-2.689 2.632 2.632 0 0 0-2.696-2.554 2.632 2.632 0 0 0-2.561 2.689 2.629 2.629 0 0 0 2.696 2.55zm-.131-4.983a2.371 2.371 0 0 1 2.43 2.298 2.368 2.368 0 0 1-4.733.126c-.034-1.3 1-2.39 2.303-2.424z"/><path stroke="#191919" stroke-linecap="round" stroke-miterlimit="10" stroke-width="3" d="M52.725 16.317c-.046-1.8.447-3.913.928-5.954.726-3.08 1.346-5.74.215-7.432-1.324-1.99-5.357-1.877-6.577.172-1.037 1.747-.274 4.373.608 7.407.586 2.016 1.194 4.099 1.244 5.9"/><path fill="#300000" d="M69.579 69.481c.194-2.12-1.181-4.174-3.194-4.789-1.548-.463-3.113.017-4.248 1.183-1.097 1.208-1.552 2.861-1.135 4.448.447 1.75 1.819 3.148 3.578 3.421 1.873.278 3.75-.761 4.552-2.5a4.775 4.775 0 0 0 .451-1.763z"/><path fill="#fff" d="M65.748 68.21c.043-.673-.392-1.25-.97-1.519-1-.412-2.114.425-2.021 1.49a1.53 1.53 0 0 0 .869 1.27c.536.27 1.211.19 1.633-.21a1.47 1.47 0 0 0 .489-1.03z"/><path fill="#300000" d="M38.39 67.158c.194-2.12-1.182-4.174-3.194-4.789-1.548-.463-3.113.017-4.248 1.183-1.097 1.208-1.553 2.861-1.135 4.448.447 1.75 1.818 3.148 3.578 3.421 1.873.278 3.75-.761 4.552-2.5a4.775 4.775 0 0 0 .451-1.763z"/><path fill="#fff" d="M34.555 65.887c.042-.673-.392-1.25-.97-1.519-1-.412-2.114.425-2.021 1.49.046.551.371 1.044.869 1.27.536.27 1.211.19 1.633-.21.282-.252.468-.614.489-1.03z"/><path fill="#f46e6e" d="M65.318 74.54s.017.004.025.008h.026c1.32.274 3.029 1.12 3.332 2.58.313 1.494-1.269 2.449-2.527 2.693-1.316.253-2.725-.016-3.889-.67-1.068-.596-2.021-1.766-1.321-3.003.844-1.486 2.802-1.894 4.354-1.608zM29.311 75.285c.055-1.743 2.274-2.563 3.717-2.685h.05c1.481-.089 3.034.416 3.894 1.691.346.514.511 1.149.274 1.743-.227.576-.721.997-1.252 1.288-1.156.635-2.595.816-3.882.55-1.215-.252-2.847-1.148-2.801-2.587z"/><path fill="#300000" d="M46.928 70.125c.055.004.11.013.165.021 1.658.215 3.303.408 4.978.413.376 0 .629.244.76.572a1.4 1.4 0 0 1 .101.526c-.009 1.09-1.139 1.208-1.996 1.157-1.189-.067-2.396-.096-3.552-.408-.498-.135-1.164-.332-1.451-.804-.304-.505.013-1.367.62-1.473.127-.02.253-.016.38 0zM72.114 85.877c-1.506 2.306-4.117 3.375-6.817 3.45a12.152 12.152 0 0 1-8.037-2.718c-1.426-1.161-2.599-2.634-3.468-4.25-.194-.362-.156-.8.203-1.048.308-.214.856-.156 1.05.202 1.355 2.52 3.468 4.667 6.194 5.673 2.071.766 4.522.909 6.619.177 1.16-.404 2.223-1.115 2.898-2.155.224-.341.616-.54 1.013-.341.333.164.569.665.341 1.01z"/><path fill="#300000" d="M53.628 76.623c.945.215 1.603 1.006 1.97 1.864.135-.025.27-.025.397-.008.308.042.599.15.81.383.227.252.286.58.274.913-.017.564-.266 1.086-.599 1.528-1.321 1.738-3.873 1.809-5.248.1-.772-.96-1.009-2.326-.443-3.442a2.56 2.56 0 0 1 2.839-1.33z"/><defs><linearGradient id="a" x1="169.433" x2="95.47" y1="74.473" y2="82.907" gradientTransform="translate(-82.739 -25.033)" gradientUnits="userSpaceOnUse"><stop offset=".09" stop-color="#F44100"/><stop offset=".1" stop-color="#F33F00"/><stop offset=".29" stop-color="#EC250E"/><stop offset=".48" stop-color="#E71319"/><stop offset=".68" stop-color="#E4081F"/><stop offset=".91" stop-color="#E30521"/></linearGradient></defs></svg>