<svg width="20" height="20" viewBox="0 0 20 20" fill="none" xmlns="http://www.w3.org/2000/svg">
<path d="M17.5003 15.0005C17.5003 15.6634 17.2366 16.2993 16.7678 16.7681C16.2991 17.2369 15.6631 17.5005 15.0002 17.5005H5.00008C3.61943 17.5005 2.50004 16.3812 2.50004 15.0005V13.7505H0V15.0005C0 16.3262 0.527352 17.5982 1.46487 18.5356C2.40238 19.4729 3.67437 20.0004 4.99993 20.0004H15.0001C16.3258 20.0004 17.5978 19.4731 18.5351 18.5356C19.4725 17.598 20 16.3261 20 15.0005V13.7505H17.5L17.5003 15.0005Z" fill="#312E38"/>
<path d="M8.75033 0V10.7314L6.25029 8.23139L4.48145 10.0002L9.11652 14.6341C9.3509 14.8697 9.66828 15.0015 10.0003 15.0015C10.3324 15.0015 10.6497 14.8697 10.8841 14.6341L15.5192 10.0002L13.7503 8.23139L11.2503 10.7314V0H8.75033Z" fill="#312E38"/>
</svg>
