<?xml version="1.0" encoding="UTF-8" standalone="no"?>
<svg
   xmlns:dc="http://purl.org/dc/elements/1.1/"
   xmlns:cc="http://creativecommons.org/ns#"
   xmlns:rdf="http://www.w3.org/1999/02/22-rdf-syntax-ns#"
   xmlns:svg="http://www.w3.org/2000/svg"
   xmlns="http://www.w3.org/2000/svg"
   xmlns:sodipodi="http://sodipodi.sourceforge.net/DTD/sodipodi-0.dtd"
   xmlns:inkscape="http://www.inkscape.org/namespaces/inkscape"
   width="268"
   height="46"
   viewBox="0 0 268 46"
   version="1.1"
   id="svg46"
   sodipodi:docname="extension-info.svg"
   style="fill:none"
   inkscape:version="0.92.5 (2060ec1f9f, 2020-04-08)">
  <metadata
     id="metadata50">
    <rdf:RDF>
      <cc:Work
         rdf:about="">
        <dc:format>image/svg+xml</dc:format>
        <dc:type
           rdf:resource="http://purl.org/dc/dcmitype/StillImage" />
        <dc:title></dc:title>
      </cc:Work>
    </rdf:RDF>
  </metadata>
  <sodipodi:namedview
     pagecolor="#ffffff"
     bordercolor="#666666"
     borderopacity="1"
     objecttolerance="10"
     gridtolerance="10"
     guidetolerance="10"
     inkscape:pageopacity="0"
     inkscape:pageshadow="2"
     inkscape:window-width="1920"
     inkscape:window-height="1004"
     id="namedview48"
     showgrid="false"
     fit-margin-top="0"
     fit-margin-left="0"
     fit-margin-right="0"
     fit-margin-bottom="0"
     inkscape:zoom="3.1043712"
     inkscape:cx="95.985896"
     inkscape:cy="-7.3408817"
     inkscape:window-x="0"
     inkscape:window-y="28"
     inkscape:window-maximized="1"
     inkscape:current-layer="g4" />
  <g
     id="g4"
     style="filter:url(#filter0_d)"
     transform="translate(-30,-20)" />
  <path
     d="M 180.629,32.2648 C 175.315,32.2648 171,27.9498 171,22.6291 171,17.315 175.315,13 180.629,13 c 5.321,0 9.636,4.315 9.636,9.6291 0,5.3207 -4.315,9.6357 -9.636,9.6357 z m 3.119,-3.8599 c 0.02,0.0408 0.061,0.068 0.115,0.068 h 1.55 c 0.095,0 0.176,-0.0746 0.176,-0.1699 v -9.561 c 0,-0.0951 -0.081,-0.1768 -0.176,-0.1768 h -3.167 c -0.047,0 -0.095,-0.027 -0.109,-0.068 -0.027,-0.0407 -0.02,-0.095 0.007,-0.1289 0.238,-0.3194 0.381,-0.7135 0.381,-1.1349 0,-1.0465 -0.85,-1.8891 -1.896,-1.8891 -1.047,0 -1.889,0.8426 -1.889,1.8891 0,0.4214 0.136,0.8155 0.38,1.1349 0.027,0.0339 0.027,0.0882 0.007,0.1289 -0.02,0.041 -0.061,0.068 -0.109,0.068 h -3.173 c -0.095,0 -0.17,0.0817 -0.17,0.1768 v 1.5493 c 0,0.0544 0.027,0.095 0.068,0.1155 0.047,0.0203 0.095,0.0203 0.129,-0.0135 0.319,-0.2379 0.714,-0.3738 1.142,-0.3738 1.046,0 1.889,0.8425 1.889,1.8891 0,1.0465 -0.843,1.889 -1.889,1.889 -0.428,0 -0.823,-0.1356 -1.142,-0.3737 -0.034,-0.0339 -0.082,-0.0339 -0.129,-0.0133 -0.041,0.0202 -0.068,0.0609 -0.068,0.1082 v 4.7842 c 0,0.0953 0.075,0.1699 0.17,0.1699 h 4.791 c 0.047,0 0.088,-0.0272 0.108,-0.068 0.021,-0.0407 0.021,-0.0883 -0.007,-0.1222 -0.244,-0.3194 -0.38,-0.7136 -0.38,-1.1416 0,-1.0465 0.842,-1.8892 1.889,-1.8892 1.047,0 1.896,0.8427 1.896,1.8892 0,0.428 -0.143,0.8222 -0.381,1.1416 -0.027,0.0339 -0.034,0.0815 -0.013,0.1222 z m -5.776,-0.7066 c 0.088,0 0.17,-0.0409 0.211,-0.1154 l 3.805,-6.0411 c 0.027,-0.0409 0.027,-0.0883 0,-0.1293 -0.02,-0.0339 -0.061,-0.0611 -0.109,-0.0611 h -0.598 c -0.081,0 -0.163,0.0409 -0.204,0.1156 l -3.805,6.041 c -0.027,0.0409 -0.027,0.0884 0,0.1292 0.02,0.0409 0.061,0.0611 0.109,0.0611 z"
     id="path6"
     inkscape:connector-curvature="0"
     style="clip-rule:evenodd;fill:#524962;fill-rule:evenodd" />
  <rect
     x="179.633"
     y="21.6334"
     width="13.7963"
     height="13.7963"
     rx="2.06409"
     id="rect8"
     style="fill:url(#paint0_linear);stroke:#ffffff;stroke-width:1.37606001" />
  <path
     d="m 185.006,30.9081 h -1.069 v -4.0289 c -0.39,0.3652 -0.851,0.6353 -1.381,0.8103 v -0.9701 c 0.279,-0.0913 0.582,-0.2638 0.909,-0.5174 0.328,-0.2562 0.552,-0.5542 0.674,-0.8941 h 0.867 z m 3.409,-5.6002 c 0.54,0 0.962,0.1928 1.267,0.5783 0.363,0.4566 0.544,1.2136 0.544,2.2713 0,1.0551 -0.183,1.8134 -0.548,2.2751 -0.302,0.3804 -0.723,0.5706 -1.263,0.5706 -0.543,0 -0.98,-0.208 -1.313,-0.6239 -0.332,-0.4185 -0.498,-1.1629 -0.498,-2.2332 0,-1.0501 0.183,-1.8059 0.548,-2.2675 0.302,-0.3804 0.723,-0.5707 1.263,-0.5707 z m 0,0.8865 c -0.129,0 -0.245,0.0418 -0.346,0.1255 -0.102,0.0812 -0.18,0.2283 -0.236,0.4413 -0.074,0.2765 -0.11,0.7419 -0.11,1.3963 0,0.6544 0.033,1.1045 0.098,1.3506 0.066,0.2435 0.149,0.4058 0.248,0.4869 0.101,0.0812 0.217,0.1218 0.346,0.1218 0.129,0 0.245,-0.0406 0.346,-0.1218 0.102,-0.0837 0.18,-0.232 0.236,-0.4451 0.074,-0.2739 0.11,-0.738 0.11,-1.3924 0,-0.6544 -0.033,-1.1033 -0.099,-1.3468 -0.065,-0.246 -0.149,-0.4096 -0.251,-0.4908 -0.099,-0.0837 -0.213,-0.1255 -0.342,-0.1255 z"
     id="path10"
     inkscape:connector-curvature="0"
     style="fill:#ffffff" />
  <rect
     x="12"
     y="12"
     width="135"
     height="22"
     rx="11"
     id="rect12"
     style="opacity:0.4;fill:#d7d7d7" />
  <path
     d="m 216.795,31.1414 h 3.673 v -5.0241 c 0,-0.1077 0.029,-0.2135 0.083,-0.3066 0.055,-0.0931 0.132,-0.1703 0.226,-0.2237 0.094,-0.0534 0.2,-0.0812 0.307,-0.0805 0.108,6e-4 0.214,0.0298 0.307,0.0843 0.277,0.1629 0.593,0.2475 0.914,0.2449 0.487,0 0.954,-0.1935 1.298,-0.5379 0.345,-0.3444 0.538,-0.8116 0.538,-1.2987 0,-0.487 -0.193,-0.9542 -0.538,-1.2986 -0.344,-0.3444 -0.811,-0.5379 -1.298,-0.5379 -0.321,-0.0026 -0.637,0.082 -0.914,0.2448 -0.093,0.055 -0.199,0.084 -0.306,0.084 -0.108,0 -0.214,-0.029 -0.307,-0.084 -0.094,-0.0525 -0.173,-0.1295 -0.227,-0.2228 -0.055,-0.0934 -0.083,-0.1996 -0.083,-0.3077 v -4.2037 h -4.616 c -0.108,5e-4 -0.214,-0.0281 -0.307,-0.0826 -0.094,-0.0546 -0.171,-0.1332 -0.223,-0.2276 -0.055,-0.0927 -0.084,-0.1984 -0.084,-0.3061 0,-0.1077 0.029,-0.2135 0.084,-0.3061 0.164,-0.2766 0.25,-0.5926 0.249,-0.9142 0,-0.4871 -0.194,-0.9543 -0.538,-1.2987 C 214.688,14.1935 214.221,14 213.734,14 c -0.487,0 -0.954,0.1935 -1.299,0.5379 -0.344,0.3444 -0.537,0.8116 -0.537,1.2987 -0.003,0.3213 0.082,0.6372 0.244,0.9142 0.055,0.0926 0.084,0.1984 0.084,0.3061 0,0.1077 -0.029,0.2134 -0.084,0.3061 -0.052,0.0944 -0.129,0.173 -0.222,0.2276 -0.094,0.0545 -0.2,0.0831 -0.308,0.0826 H 207 v 3.265 h 0.204 c 0.812,0 1.59,0.3225 2.164,0.8965 0.575,0.5741 0.897,1.3526 0.897,2.1644 0,0.8119 -0.322,1.5904 -0.897,2.1645 -0.574,0.574 -1.352,0.8965 -2.164,0.8965 H 207 v 4.0813 h 3.673 c 0,-0.0694 0,-0.1347 0,-0.2041 0,-0.8118 0.323,-1.5904 0.897,-2.1644 0.574,-0.574 1.352,-0.8965 2.164,-0.8965 0.812,0 1.591,0.3225 2.165,0.8965 0.574,0.574 0.896,1.3526 0.896,2.1644 0,0.0694 0,0.1347 0,0.2041 z"
     id="path14"
     inkscape:connector-curvature="0"
     style="opacity:0.4;fill:#000000" />
  <g
     id="g22"
     style="opacity:0.4"
     transform="translate(-30,-20)">
    <path
       d="m 275,33 c 5.519,0 10,4.481 10,10 0,5.519 -4.481,10 -10,10 -5.519,0 -10,-4.481 -10,-10 0,-5.519 4.481,-10 10,-10 z m 0,1.1321 c -4.9,0 -8.868,3.9675 -8.868,8.8679 0,4.9004 3.968,8.8679 8.868,8.8679 4.9,0 8.868,-3.9675 8.868,-8.8679 0,-4.9004 -3.968,-8.8679 -8.868,-8.8679 z"
       id="path16"
       inkscape:connector-curvature="0"
       style="fill:#000000" />
    <path
       d="m 268.903,48.0648 c 0.234,-1.9873 1.935,-3.5419 3.982,-3.5419 h 4.231 c 2.047,0 3.748,1.5546 3.982,3.5415 -1.453,1.748 -3.645,2.8604 -6.098,2.8604 -2.453,0 -4.644,-1.1124 -6.097,-2.86 z"
       id="path18"
       inkscape:connector-curvature="0"
       style="clip-rule:evenodd;fill:#000000;fill-rule:evenodd" />
    <path
       d="m 275,36.1086 c 1.892,0 3.425,1.6772 3.425,3.747 0,2.0693 -1.533,3.7465 -3.425,3.7465 -1.891,0 -3.424,-1.6772 -3.424,-3.7465 0,-2.0698 1.533,-3.747 3.424,-3.747 z"
       id="path20"
       inkscape:connector-curvature="0"
       style="clip-rule:evenodd;fill:#000000;fill-rule:evenodd" />
  </g>
  <defs
     id="defs44">
    <filter
       id="filter0_d"
       x="0"
       y="0"
       width="328"
       height="106"
       filterUnits="userSpaceOnUse"
       style="color-interpolation-filters:sRGB">
      <feFlood
         flood-opacity="0"
         result="BackgroundImageFix"
         id="feFlood24" />
      <feColorMatrix
         in="SourceAlpha"
         type="matrix"
         values="0 0 0 0 0 0 0 0 0 0 0 0 0 0 0 0 0 0 127 0"
         id="feColorMatrix26" />
      <feOffset
         dy="10"
         id="feOffset28" />
      <feGaussianBlur
         stdDeviation="15"
         id="feGaussianBlur30" />
      <feColorMatrix
         type="matrix"
         values="0 0 0 0 0.321569 0 0 0 0 0.286275 0 0 0 0 0.384314 0 0 0 0.1 0"
         id="feColorMatrix32" />
      <feBlend
         mode="normal"
         in2="BackgroundImageFix"
         result="effect1_dropShadow"
         id="feBlend34" />
      <feBlend
         mode="normal"
         in="SourceGraphic"
         in2="effect1_dropShadow"
         result="shape"
         id="feBlend36" />
    </filter>
    <linearGradient
       id="paint0_linear"
       x1="216.53101"
       y1="33.5811"
       x2="201.80299"
       y2="48.753502"
       gradientUnits="userSpaceOnUse"
       gradientTransform="translate(-30,-20)">
      <stop
         stop-color="#FF0065"
         id="stop39" />
      <stop
         offset="1"
         stop-color="#E42D31"
         id="stop41" />
    </linearGradient>
  </defs>
</svg>
