<svg width="16" height="12" viewBox="0 0 16 12" fill="none" xmlns="http://www.w3.org/2000/svg">
<path d="M1.81378 1.10735C2.15037 0.415452 2.80456 0 3.51498 0H12.4677C13.1963 0 13.8505 0.415452 14.1689 1.12664L15.9255 5.06094C15.9628 5.13971 16 5.21924 16 5.31809V10.0232C16 11.1104 15.1589 12 14.1309 12H1.86911C0.841102 12 0 11.1104 0 10.0232L0.000730515 5.29812C0.000730515 5.19928 0.0197144 5.12052 0.0752039 5.04098L1.81378 1.10735ZM4.80437 4.72516C5.06574 4.72516 5.29064 4.90276 5.34611 5.17999C5.36509 5.27883 5.81339 7.51286 8.00007 7.51286C10.1686 7.51286 10.6359 5.25966 10.654 5.17999C10.6913 4.90355 10.9344 4.72516 11.1958 4.72516H14.5989L13.216 1.62172C13.0853 1.32519 12.805 1.12751 12.4874 1.12751H3.53468C3.23532 1.12751 2.93671 1.30512 2.80602 1.58234L1.42317 4.68578L4.8044 4.68501L4.80437 4.72516Z" fill="#4CD321"/>
</svg>
