<svg width="31" height="20" viewBox="0 0 31 20" fill="none" xmlns="http://www.w3.org/2000/svg">
<path fill-rule="evenodd" clip-rule="evenodd" d="M29.4903 3.04996L20.2919 0.0472267C20.1338 -0.0157422 19.9758 -0.0157422 19.7856 0.0472267L10.5884 3.04996C10.2723 3.14503 10.0513 3.46112 10.0513 3.80804V15.8819C10.0513 16.2301 10.2723 16.514 10.5884 16.64L19.7869 19.6439C19.882 19.676 19.9449 19.676 20.04 19.676C20.1351 19.676 20.198 19.676 20.2931 19.6439L29.4916 16.6091C29.8077 16.514 30.0287 16.1979 30.0287 15.851L30.0274 3.80782C30.0274 3.46086 29.8064 3.17567 29.4904 3.04974L29.4903 3.04996ZM19.2488 17.8105L11.6307 15.314V4.8834L14.6655 5.86375V11.7741C14.6655 12.2161 15.0137 12.5643 15.4557 12.5643C15.8977 12.5643 16.2459 12.2161 16.2459 11.7741V6.40076L19.2808 7.38111V17.8104L19.2488 17.8105ZM17.8894 5.29468L20.039 5.9898L26.709 3.80814L20.0404 1.62894L13.3706 3.80937L15.488 4.50449L18.8698 3.27229C19.2809 3.14637 19.7229 3.33525 19.881 3.74641C20.039 4.15756 19.818 4.59956 19.4068 4.7576L17.8894 5.29468ZM28.4473 15.3141L25.4124 16.2944V12.8805C25.4124 12.4385 25.0642 12.0903 24.6222 12.0903C24.1802 12.0903 23.8642 12.4372 23.8642 12.8805V16.8314L20.8293 17.8118V7.38123L28.4474 4.88473L28.4473 15.3141ZM0.790193 4.66259H6.38445C6.7956 4.66259 7.14377 5.00955 7.17464 5.45278C7.17464 5.89478 6.82645 6.24298 6.38445 6.24298H0.790193C0.348191 6.24298 0 5.89478 0 5.45278C0 5.01078 0.348191 4.66259 0.790193 4.66259ZM6.38445 9.05543H0.790193C0.348191 9.05543 0 9.40362 0 9.84563C0 10.2876 0.348191 10.6358 0.790193 10.6358H6.38445C6.82645 10.6358 7.17464 10.2876 7.17464 9.84563C7.17464 9.40362 6.7956 9.05543 6.38445 9.05543ZM0.790193 13.4483H6.38445C6.7956 13.4483 7.17464 13.7965 7.17464 14.2385C7.17464 14.6805 6.82645 15.0287 6.38445 15.0287H0.790193C0.348191 15.0287 0 14.6805 0 14.2385C0 13.7965 0.348191 13.4483 0.790193 13.4483Z" fill="#2F2542"/>
</svg>
