<svg width="15" height="16" fill="none" xmlns="http://www.w3.org/2000/svg">
    <path d="M14.628 7.203c-.023-.203-.26-.354-.464-.354a1.585 1.585 0 0 1-1.09-2.767.4.4 0 0 0 .045-.546 7.278 7.278 0 0 0-1.142-1.152.402.402 0 0 0-.549.044 1.657 1.657 0 0 1-1.795.406 1.604 1.604 0 0 1-.97-1.564.404.404 0 0 0-.355-.423 7.285 7.285 0 0 0-1.62-.004.402.402 0 0 0-.357.41c.024.668-.37 1.28-.987 1.536a1.67 1.67 0 0 1-1.783-.405.4.4 0 0 0-.544-.044c-.43.338-.82.724-1.164 1.152a.404.404 0 0 0 .042.548c.505.453.669 1.175.408 1.8-.28.61-.898.99-1.568.968a.392.392 0 0 0-.415.355 7.1 7.1 0 0 0 0 1.635c.019.21.264.355.47.355a1.585 1.585 0 0 1 1.48.988c.251.62.09 1.328-.4 1.78a.4.4 0 0 0-.045.544c.334.426.717.813 1.14 1.152a.402.402 0 0 0 .548-.041 1.66 1.66 0 0 1 1.798-.408c.622.263 1.012.888.972 1.563a.403.403 0 0 0 .355.422 7.3 7.3 0 0 0 1.62.002.402.402 0 0 0 .358-.413 1.597 1.597 0 0 1 .984-1.535 1.663 1.663 0 0 1 1.78.41.4.4 0 0 0 .542.045c.43-.339.82-.725 1.164-1.152a.401.401 0 0 0-.042-.549 1.585 1.585 0 0 1 1.072-2.772h.09a.404.404 0 0 0 .422-.355c.06-.542.06-1.089 0-1.631Zm-7.145 3.213a2.4 2.4 0 1 1 0-4.8 2.4 2.4 0 0 1 0 4.8Z"
          fill="#CBC8D0"/>
</svg>