<svg width="20" height="20" viewBox="0 0 20 20" fill="none" xmlns="http://www.w3.org/2000/svg">
<path d="M19.4201 8.49633L17.1665 8.21301C16.9896 7.50376 16.7072 6.82507 16.3295 6.19916L17.7239 4.40291C17.9267 4.12329 17.8915 3.73626 17.6406 3.49831L16.5017 2.35944C16.2637 2.10852 15.8767 2.07242 15.5971 2.27611L13.8008 3.67052C13.1749 3.29274 12.4962 3.01034 11.787 2.83351L11.5037 0.579865C11.449 0.239132 11.1509 -0.0090167 10.8055 0.00025123H9.19446C8.8491 -0.0090077 8.55002 0.239132 8.49633 0.579865L8.21301 2.83351C7.50376 3.01036 6.82507 3.29276 6.19916 3.67052L4.40291 2.27611C4.12329 2.07241 3.73626 2.10852 3.49831 2.35944L2.35944 3.49831C2.10852 3.73626 2.07242 4.12329 2.27611 4.40291L3.67052 6.19916C3.29274 6.82507 3.01034 7.50376 2.83351 8.21301L0.579865 8.49633C0.239132 8.55096 -0.0090167 8.8491 0.00025123 9.19446V10.8055C-0.0090077 11.1509 0.239132 11.45 0.579865 11.5037L2.83351 11.787C3.01036 12.4962 3.29276 13.1749 3.67052 13.8008L2.27611 15.5971C2.07334 15.8767 2.10852 16.2637 2.35944 16.5017L3.49831 17.6406C3.73534 17.8915 4.12329 17.9276 4.40291 17.7239L6.19916 16.3295C6.82507 16.7073 7.50376 16.9897 8.21301 17.1665L8.49633 19.4201C8.55096 19.7609 8.8491 20.009 9.19446 19.9997H10.8055C11.1509 20.009 11.45 19.7609 11.5037 19.4201L11.787 17.1665C12.4962 16.9896 13.1749 16.7072 13.8008 16.3295L15.5971 17.7239C15.8767 17.9276 16.2637 17.8915 16.5017 17.6406L17.6406 16.5017C17.8915 16.2637 17.9276 15.8767 17.7239 15.5971L16.3295 13.8008C16.7073 13.1749 16.9897 12.4962 17.1665 11.787L19.4201 11.5037C19.7609 11.449 20.009 11.1509 19.9998 10.8055V9.19446C20.009 8.8491 19.7609 8.55097 19.4201 8.49633ZM19.259 10.7778L16.5554 11.1176L16.5017 11.3768C16.3323 12.1768 16.0156 12.9379 15.5684 13.6222L15.4249 13.8444L17.098 15.9999L15.9981 17.0989L13.8435 15.4268L13.6213 15.5703H13.6203C12.9361 16.0175 12.175 16.3342 11.375 16.5036L11.1158 16.5573L10.7778 19.259H9.22227L8.88246 16.5554L8.6232 16.5017C7.82322 16.3322 7.06213 16.0156 6.37787 15.5684L6.15565 15.4249L4.00013 17.098L2.90109 15.998L4.57328 13.8434L4.42976 13.6212V13.6203C3.98255 12.9361 3.66588 12.1749 3.49645 11.375L3.44275 11.1157L0.741061 10.7777V9.22222L3.44464 8.88241L3.49835 8.62314C3.66779 7.82316 3.98445 7.06208 4.43166 6.37781L4.57517 6.15559L2.90206 4.00008L4.00203 2.90103L6.1566 4.57322L6.37882 4.4297H6.37974C7.06398 3.9825 7.82509 3.66582 8.62507 3.49639L8.88434 3.44269L9.2223 0.741004H10.7778L11.1176 3.44459L11.3769 3.49829C12.1769 3.66773 12.938 3.98439 13.6222 4.4316L13.8444 4.57512L16 2.902L17.099 4.00197L15.4268 6.15654L15.5703 6.37876V6.37969C16.0175 7.06393 16.3342 7.82503 16.5036 8.62502L16.5573 8.88428L19.259 9.22224V10.7778ZM10.0001 5.55572C8.82141 5.55572 7.69089 6.02423 6.85753 6.85754C6.02423 7.69085 5.55571 8.8214 5.55571 10.0001C5.55571 11.1788 6.02423 12.3093 6.85753 13.1427C7.69084 13.976 8.82139 14.4445 10.0001 14.4445C11.1788 14.4445 12.3093 13.976 13.1427 13.1427C13.976 12.3094 14.4445 11.1788 14.4445 10.0001C14.4436 8.82142 13.9741 7.69182 13.1417 6.85849C12.3084 6.02611 11.1788 5.55667 10.0001 5.55574L10.0001 5.55572ZM10.0001 13.7037C9.01772 13.7037 8.07607 13.3139 7.38161 12.6185C6.68626 11.9241 6.29646 10.9825 6.29646 10C6.29646 9.01761 6.68626 8.076 7.38161 7.38155C8.07604 6.68619 9.01767 6.29639 10.0001 6.29639C10.9825 6.29639 11.9241 6.68619 12.6186 7.38155C13.3139 8.07598 13.7037 9.01761 13.7037 10C13.7028 10.9824 13.3121 11.9231 12.6177 12.6176C11.9232 13.312 10.9825 13.7027 10.0001 13.7037L10.0001 13.7037Z" fill="#524962"/>
</svg>
