<svg width="50" height="51" viewBox="0 0 50 51" fill="none" xmlns="http://www.w3.org/2000/svg">
<path d="M16.6667 26.6423V24.3578C16.6667 24.1476 16.8353 23.9849 17.0425 23.9849H39.0182C39.2253 23.9849 39.394 24.1506 39.394 24.3578V26.6423C39.394 26.8524 39.2253 27.0152 39.0182 27.0152H17.0425C16.8353 27.0152 16.6667 26.8494 16.6667 26.6423ZM16.6667 35.7332V33.4486C16.6667 33.2385 16.8353 33.0758 17.0425 33.0758H39.0182C39.2253 33.0758 39.394 33.2415 39.394 33.4486V35.7332C39.394 35.9433 39.2253 36.106 39.0182 36.106H17.0425C16.8353 36.106 16.6667 35.9403 16.6667 35.7332ZM16.6667 17.5514V15.2669C16.6667 15.0568 16.8353 14.894 17.0425 14.894H39.0182C39.2253 14.894 39.394 15.0597 39.394 15.2669V17.5514C39.394 17.7615 39.2253 17.9243 39.0182 17.9243H17.0425C16.8353 17.9243 16.6667 17.7586 16.6667 17.5514ZM10.6061 27.0181V23.9818C10.6061 23.7688 10.7748 23.606 10.9819 23.606H14.0181C14.2312 23.606 14.3939 23.7747 14.3939 23.9818V27.0181C14.3939 27.2311 14.2253 27.3939 14.0181 27.3939H10.9819C10.7688 27.3939 10.6061 27.2252 10.6061 27.0181ZM10.6061 36.1089V33.0727C10.6061 32.8597 10.7748 32.6969 10.9819 32.6969H14.0181C14.2312 32.6969 14.3939 32.8656 14.3939 33.0727V36.1089C14.3939 36.322 14.2253 36.4848 14.0181 36.4848H10.9819C10.7688 36.4848 10.6061 36.3161 10.6061 36.1089ZM10.6061 17.9272V14.891C10.6061 14.6779 10.7748 14.5151 10.9819 14.5151H14.0181C14.2312 14.5151 14.3939 14.6838 14.3939 14.891V17.9272C14.3939 18.1402 14.2253 18.303 14.0181 18.303H10.9819C10.7688 18.303 10.6061 18.1343 10.6061 17.9272Z" fill="#524962"/>
<path d="M3.79378 3.53029C3.3706 3.53029 3.03029 3.8706 3.03029 4.29377V46.7058C3.03029 47.1289 3.37061 47.4693 3.79378 47.4693H46.2058C46.629 47.4693 46.9693 47.1289 46.9693 46.7058V4.29377C46.9693 3.8706 46.6289 3.53029 46.2058 3.53029H3.79378ZM0 1.25461C0 0.837355 0.346234 0.5 0.754611 0.5H49.2454C49.6626 0.5 50 0.846234 50 1.25461V49.7454C50 50.1626 49.6538 50.5 49.2454 50.5H0.754611C0.337355 50.5 0 50.1538 0 49.7454V1.25461Z" fill="#524962"/>
</svg>
