<svg width="27" height="26" viewBox="0 0 27 26" fill="none" xmlns="http://www.w3.org/2000/svg">
<path fill-rule="evenodd" clip-rule="evenodd" d="M13.2319 26C5.9295 26 0 20.1764 0 12.9955C0 5.82357 5.9295 0 13.2319 0C20.5434 0 26.4732 5.82357 26.4732 12.9955C26.4732 20.1764 20.5434 26 13.2319 26ZM17.518 20.7907C17.5459 20.8457 17.602 20.8825 17.6768 20.8825H19.8058C19.9366 20.8825 20.0486 20.7817 20.0486 20.6532V7.74947C20.0486 7.62119 19.9366 7.51096 19.8058 7.51096H15.4543C15.389 7.51096 15.3237 7.47443 15.305 7.41921C15.2676 7.3642 15.2768 7.29093 15.3142 7.24516C15.641 6.81412 15.8372 6.2823 15.8372 5.71352C15.8372 4.30114 14.67 3.16402 13.2319 3.16402C11.7939 3.16402 10.6359 4.30114 10.6359 5.71352C10.6359 6.2823 10.8227 6.81412 11.1589 7.24516C11.1963 7.29093 11.1963 7.3642 11.1682 7.41921C11.1403 7.47443 11.0842 7.51096 11.0189 7.51096H6.65794C6.5273 7.51096 6.42459 7.62119 6.42459 7.74947V9.84043C6.42459 9.91392 6.46176 9.96871 6.51784 9.99643C6.58316 10.0237 6.6487 10.0237 6.69533 9.97817C7.13432 9.65714 7.67581 9.47364 8.26414 9.47364C9.70209 9.47364 10.8601 10.6108 10.8601 12.0231C10.8601 13.4355 9.70209 14.5726 8.26414 14.5726C7.67581 14.5726 7.13432 14.3896 6.69533 14.0683C6.6487 14.0226 6.58316 14.0226 6.51784 14.0503C6.46176 14.0776 6.42459 14.1326 6.42459 14.1964V20.6532C6.42459 20.7817 6.5273 20.8825 6.65794 20.8825H13.2413C13.3066 20.8825 13.3627 20.8457 13.3907 20.7907C13.4186 20.7357 13.4186 20.6715 13.3812 20.6257C13.0451 20.1947 12.8584 19.6626 12.8584 19.085C12.8584 17.6727 14.0162 16.5353 15.4543 16.5353C16.8925 16.5353 18.0597 17.6727 18.0597 19.085C18.0597 19.6626 17.8635 20.1947 17.5367 20.6257C17.4993 20.6715 17.4901 20.7357 17.518 20.7907ZM9.58069 19.8369C9.7021 19.8369 9.81426 19.7817 9.87035 19.6811L15.0996 11.5281C15.137 11.4729 15.137 11.4088 15.0996 11.3536C15.0714 11.3079 15.0156 11.2711 14.95 11.2711H14.1283C14.0162 11.2711 13.9042 11.3263 13.8481 11.4271L8.61891 19.5802C8.58152 19.6354 8.58152 19.6994 8.61891 19.7544C8.64706 19.8096 8.70314 19.8369 8.76846 19.8369H9.58069Z" fill="white"/>
</svg>
