<svg width="74" height="13" viewBox="0 0 74 13" fill="none" xmlns="http://www.w3.org/2000/svg">
<path fill-rule="evenodd" clip-rule="evenodd" d="M6.35263 0.967529L7.85229 5.56354H12.7053L8.77912 8.40404L10.2788 13.0001L6.35263 10.1596L2.42649 13.0001L3.92614 8.40404L0 5.56354H4.85298L6.35263 0.967529ZM21.6763 0.967529L23.176 5.56354H28.029L24.1028 8.40404L25.6025 13.0001L21.6763 10.1596L17.7502 13.0001L19.2498 8.40404L15.3237 5.56354H20.1767L21.6763 0.967529ZM38.4997 5.56354L37 0.967529L35.5004 5.56354H30.6474L34.5735 8.40404L33.0739 13.0001L37 10.1596L40.9262 13.0001L39.4265 8.40404L43.3527 5.56354H38.4997ZM52.3237 0.967529L53.8233 5.56354H58.6763L54.7502 8.40404L56.2498 13.0001L52.3237 10.1596L48.3975 13.0001L49.8972 8.40404L45.971 5.56354H50.824L52.3237 0.967529ZM69.147 5.56354L67.6474 0.967529L66.1477 5.56354H61.2947L65.2209 8.40404L63.7212 13.0001L67.6474 10.1596L71.5735 13.0001L70.0739 8.40404L74 5.56354H69.147Z" fill="#FFC51E"/>
</svg>
