<svg width="50" height="50" viewBox="0 0 50 50" fill="none" xmlns="http://www.w3.org/2000/svg">
<path fill-rule="evenodd" clip-rule="evenodd" d="M0.601305 10.8599L24.5629 0.118765C24.8358 -0.0395882 25.1642 -0.0395882 25.4371 0.118765L49.3987 10.8599C49.7825 11.0183 50 11.3864 50 11.7545V38.2877C50 38.6558 49.7804 39.024 49.3987 39.1823L25.4371 49.9213C25.1642 50.0262 24.8358 50.0262 24.5629 49.9213L0.601305 39.1823C0.217487 39.0239 0 38.6558 0 38.2877V11.7545C0 11.3864 0.219638 11.0182 0.601305 10.8599ZM16.7566 17.2829L25 20.9682L45.032 12.0181L36.7886 8.33282L16.7566 17.2829ZM13.2643 15.7035L33.2963 6.75339L25 3.06807L4.96796 12.0181L13.2643 15.7035ZM12.0634 18.3357L2.94833 14.2288L2.94854 37.1304L23.5264 46.3437V23.4421L15.0101 19.6519V26.1281C15.0101 26.9178 14.3555 27.5491 13.5368 27.5491C12.718 27.5491 12.0634 26.9178 12.0634 26.1281V18.3357ZM26.4732 23.4421V46.3437L47.0511 37.1304V14.2288L26.4732 23.4421ZM41.3205 23.2833C41.7576 23.0714 42.3035 23.1249 42.7406 23.3881V23.3877C43.1777 23.6509 43.4506 24.0725 43.3952 24.5476V31.3365C43.3952 31.8629 43.0668 32.3894 42.5209 32.5992L32.1498 37.2325C31.9856 37.3374 31.766 37.3909 31.5485 37.3909C31.2202 37.3909 30.9473 37.3395 30.7298 37.1811C30.3481 36.9179 30.0752 36.4428 30.0752 35.9698V29.1794C30.0752 28.6529 30.4036 28.1264 30.9494 27.9167L41.3205 23.2833ZM33.0242 33.7612L40.5017 30.444V26.8121L33.0242 30.1293V33.7612Z" fill="#524962"/>
</svg>
