<svg width="21" height="24" viewBox="0 0 21 24" fill="none" xmlns="http://www.w3.org/2000/svg">
<g clip-path="url(#clip0_5108_830)">
<path d="M12.5398 1.10135L17.4761 6.15336V22.8982H3.03831V1.10087H12.5398M12.9849 -0.000488281H1.96338V23.9995H18.5507V5.6963L12.9849 -0.000488281Z" fill="#524962"/>
<path d="M12.3462 1.10132V6.35598H17.4758V22.8984H3.03803V1.10112H12.346M12.9844 -0.000244141H1.96289V23.9998H18.5502V5.69654L18.1182 5.25434H13.4207V0.44677L12.9844 -0.000244141Z" fill="#524962"/>
<path d="M16.3783 4.93955H13.7798V2.24927L16.3783 4.84524V4.93955Z" fill="#524962"/>
<path d="M14.3173 3.5557L15.1512 4.38888H14.3173V3.5557ZM13.9812 1.6814H13.2422V5.49024H16.9155V4.61315L13.9812 1.6814Z" fill="#524962"/>
<path fill-rule="evenodd" clip-rule="evenodd" d="M18.5511 10.2566V8.34668L20.4154 10.2566V18.9299H0.0986328V10.2566L1.96312 8.34668V10.2566H18.5511ZM3.14087 17.5996V11.8726H5.18793C5.49184 11.8726 5.78141 11.9049 6.05664 11.9695C6.33188 12.0282 6.57271 12.1339 6.77913 12.2867C6.98556 12.4335 7.14898 12.6303 7.2694 12.877C7.39555 13.1178 7.45862 13.4174 7.45862 13.7757C7.45862 14.1281 7.39555 14.4307 7.2694 14.6832C7.14898 14.9358 6.98556 15.1443 6.77913 15.3088C6.57271 15.4674 6.33474 15.5878 6.06524 15.67C5.79574 15.7464 5.51477 15.7846 5.22233 15.7846H4.62026V17.5996H3.14087ZM4.62026 14.5863H5.15353C5.44596 14.5863 5.66099 14.5158 5.79861 14.3748C5.94196 14.2339 6.01364 14.0342 6.01364 13.7757C6.01364 13.5173 5.93623 13.3352 5.78141 13.2294C5.62659 13.1237 5.40582 13.0708 5.11912 13.0708H4.62026V14.5863ZM8.37036 17.5996V11.8726H10.0218C10.4461 11.8726 10.8331 11.9254 11.1829 12.0312C11.5384 12.1369 11.8423 12.3043 12.0946 12.5334C12.3469 12.7625 12.5419 13.0562 12.6795 13.4145C12.8229 13.7728 12.8945 14.2045 12.8945 14.7097C12.8945 15.2148 12.8257 15.6495 12.6881 16.0137C12.5505 16.3779 12.3555 16.6774 12.1032 16.9124C11.8567 17.1473 11.5614 17.3206 11.2173 17.4322C10.879 17.5438 10.5092 17.5996 10.1078 17.5996H8.37036ZM9.84975 16.3837H9.93576C10.1365 16.3837 10.3257 16.3602 10.5034 16.3132C10.6812 16.2604 10.8331 16.1723 10.9593 16.0489C11.0912 15.9256 11.1944 15.7552 11.2689 15.5379C11.3435 15.3205 11.3807 15.0445 11.3807 14.7097C11.3807 14.3748 11.3435 14.1017 11.2689 13.8903C11.1944 13.6788 11.0912 13.5143 10.9593 13.3968C10.8331 13.2794 10.6812 13.2001 10.5034 13.1589C10.3257 13.112 10.1365 13.0885 9.93576 13.0885H9.84975V16.3837ZM13.8926 11.8726V17.5996H15.372V15.5026H17.2298V14.2339H15.372V13.1413H17.5394V11.8726H13.8926Z" fill="#524962"/>
</g>
<defs>
<clipPath id="clip0_5108_830">
<rect width="20.5" height="24" fill="white"/>
</clipPath>
</defs>
</svg>
