<svg width="278" height="252" viewBox="0 0 278 252" fill="none" xmlns="http://www.w3.org/2000/svg">
<path d="M210.748 149.53C210.538 149.903 210.276 150.244 209.955 150.532C209.135 151.273 208.028 151.581 207.202 152.315C207.091 152.8 206.973 153.278 206.848 153.757C205.937 157.093 204.502 160.258 202.568 163.142C200.419 166.347 197.666 169.185 194.494 171.38C192.665 172.645 190.719 173.72 188.654 174.539C188.11 174.756 187.396 174.579 187.154 173.995C186.931 173.458 187.108 172.73 187.698 172.494C188.569 172.147 189.421 171.76 190.247 171.328C190.653 171.118 191.053 170.895 191.453 170.666C191.643 170.555 191.833 170.443 192.023 170.325C192.115 170.273 192.2 170.214 192.285 170.161C192.344 170.122 192.397 170.089 192.456 170.05C194.002 169.034 195.451 167.867 196.781 166.583C197.109 166.262 197.437 165.934 197.751 165.6C197.784 165.567 197.869 165.469 197.895 165.449C197.954 165.383 198.013 165.318 198.072 165.252C198.23 165.075 198.387 164.898 198.544 164.715C199.154 164.007 199.73 163.267 200.274 162.5C200.818 161.733 201.323 160.946 201.795 160.134C201.906 159.944 202.018 159.747 202.123 159.55C202.169 159.465 202.214 159.38 202.26 159.301L202.273 159.275C202.306 159.216 202.339 159.157 202.365 159.092C202.575 158.685 202.778 158.266 202.975 157.846C203.414 156.896 203.807 155.92 204.148 154.923C204.312 154.438 204.462 153.953 204.607 153.462C204.679 153.2 204.751 152.938 204.816 152.675C204.849 152.551 204.875 152.426 204.908 152.302C204.928 152.223 204.941 152.145 204.961 152.072C204.98 152 205 151.922 205.026 151.856C204.711 151.673 204.403 151.476 204.115 151.273C202.667 150.493 201.874 148.789 201.992 147.242C202.162 145.394 203.171 143.231 205.255 142.759C205.577 142.674 205.904 142.628 206.225 142.609C207.53 142.537 208.84 142.976 209.948 143.795C211.265 144.771 211.593 146.849 211.206 148.356C211.102 148.756 210.951 149.149 210.748 149.51V149.53Z" fill="#300000"/>
<path d="M200.504 137.123C200.576 136.461 201.081 136.035 201.762 136.048C202.496 136.061 202.877 136.527 203.178 137.13C204.2 139.214 204.561 141.534 205.118 143.762C205.125 143.801 205.131 143.841 205.125 143.874C205.125 143.952 205.111 144.031 205.059 144.109C204.751 144.542 204.259 145.178 203.637 145.02C203.342 144.942 203.283 144.771 203.152 144.516C202.542 143.29 202.005 142.025 201.507 140.747C201.087 139.666 200.393 138.113 200.504 137.123Z" fill="#300000"/>
<path d="M205.052 143.31C205.649 140.918 205.989 138.499 207.156 136.304C207.438 135.786 208.375 135.59 208.814 136.153C209.017 136.5 209.011 137.09 208.899 137.503C208.047 139.633 207.294 141.94 206.225 144.064C205.937 144.214 205.57 144.077 205.052 143.317V143.31Z" fill="#300000"/>
<path d="M205.386 143.434C205.734 142.025 205.996 140.597 206.402 139.207C206.606 138.512 206.835 137.831 207.13 137.169C207.294 136.795 207.444 136.284 207.903 136.192C208.421 136.081 208.637 136.546 208.624 136.979C208.604 137.615 208.218 138.283 207.995 138.879C207.739 139.561 207.484 140.243 207.215 140.918C206.946 141.599 206.671 142.281 206.37 142.949C206.304 143.087 206.121 143.703 205.963 143.749C205.786 143.801 205.413 143.205 205.327 143.087C205.059 142.713 204.508 143.172 204.777 143.539C205.085 143.965 205.577 144.608 206.199 144.444C206.494 144.365 206.553 144.195 206.684 143.932C206.927 143.441 207.149 142.936 207.366 142.432C207.831 141.337 208.237 140.23 208.657 139.115C208.971 138.29 209.45 137.438 209.306 136.527C209.201 135.865 208.722 135.439 208.041 135.452C207.307 135.465 206.927 135.93 206.632 136.54C205.616 138.624 205.262 140.944 204.718 143.179C204.613 143.618 205.275 143.867 205.386 143.428V143.434Z" fill="#300000"/>
<path d="M57.0387 169.375C57.3598 169.663 57.7137 169.899 58.1135 170.07C59.1228 170.509 60.2763 170.45 61.2922 170.876C61.5478 171.302 61.8165 171.715 62.0917 172.127C64.0186 174.998 66.3911 177.541 69.1503 179.651C72.211 181.998 75.7239 183.807 79.4334 184.875C81.57 185.491 83.759 185.884 85.9808 186.002C86.5706 186.035 87.1867 185.642 87.226 185.006C87.2653 184.429 86.859 183.793 86.2298 183.761C85.2926 183.708 84.3619 183.616 83.4378 183.472C82.9856 183.4 82.5334 183.322 82.0812 183.23C81.8649 183.184 81.6486 183.138 81.4323 183.086C81.334 183.059 81.2292 183.04 81.1309 183.013C81.0653 182.994 80.9998 182.981 80.9342 182.961C79.145 182.496 77.3951 181.853 75.7239 181.06C75.311 180.864 74.8981 180.654 74.4917 180.444C74.4524 180.425 74.3345 180.359 74.3082 180.346C74.2296 180.307 74.1575 180.261 74.0788 180.215C73.8691 180.097 73.666 179.979 73.4628 179.855C72.6567 179.376 71.8767 178.858 71.1165 178.308C70.3562 177.757 69.6222 177.174 68.9209 176.558C68.7505 176.414 68.5867 176.263 68.4228 176.112C68.3507 176.047 68.2852 175.981 68.2131 175.916L68.1869 175.896C68.141 175.85 68.0886 175.804 68.0427 175.758C67.7084 175.437 67.3873 175.109 67.0662 174.775C66.3452 174.015 65.6571 173.215 65.0213 172.383C64.7133 171.977 64.4118 171.564 64.1235 171.144C63.9727 170.922 63.822 170.699 63.6712 170.469C63.5991 170.364 63.5336 170.253 63.4681 170.148C63.4287 170.076 63.3894 170.011 63.3501 169.952C63.3108 169.886 63.2649 169.827 63.219 169.768C63.455 169.499 63.6909 169.211 63.8941 168.923C65.0148 167.723 65.218 165.855 64.615 164.427C63.8613 162.729 62.2163 160.999 60.0928 161.222C59.7651 161.248 59.4374 161.3 59.1228 161.392C57.8645 161.739 56.7634 162.578 55.9769 163.712C55.0397 165.056 55.3936 167.133 56.2391 168.438C56.4619 168.785 56.7372 169.106 57.0452 169.388L57.0387 169.375Z" fill="#300000"/>
<path d="M62.7734 154.333C62.4916 153.73 61.8755 153.488 61.2332 153.717C60.5385 153.96 60.3288 154.524 60.2436 155.199C59.9421 157.499 60.3419 159.813 60.532 162.106C60.532 162.146 60.5451 162.185 60.5582 162.218C60.5779 162.29 60.6172 162.362 60.6958 162.421C61.1218 162.729 61.7969 163.181 62.3343 162.834C62.5899 162.67 62.5899 162.487 62.6292 162.198C62.8127 160.841 62.9242 159.472 62.9831 158.102C63.0356 156.942 63.1929 155.251 62.7734 154.347V154.333Z" fill="#300000"/>
<path d="M60.4467 161.654C59.1162 159.576 58.0217 157.394 56.2129 155.683C55.7803 155.284 54.83 155.402 54.5875 156.07C54.5088 156.463 54.6989 157.02 54.9348 157.374C56.4291 159.124 57.8776 161.064 59.5685 162.735C59.8896 162.788 60.1911 162.539 60.4401 161.654H60.4467Z" fill="#300000"/>
<path d="M60.1649 161.877C59.385 160.652 58.6772 159.387 57.8514 158.194C57.4385 157.604 56.9994 157.027 56.5079 156.496C56.2326 156.195 55.9246 155.762 55.4658 155.815C54.9349 155.88 54.8825 156.385 55.0398 156.791C55.2626 157.388 55.8459 157.899 56.2457 158.391C56.7045 158.954 57.1632 159.518 57.6351 160.075C58.107 160.638 58.5854 161.189 59.0835 161.726C59.1884 161.838 59.562 162.362 59.7193 162.356C59.9093 162.349 60.0666 161.661 60.106 161.53C60.2436 161.091 60.9055 161.346 60.7745 161.785C60.6172 162.29 60.355 163.057 59.7193 163.103C59.4178 163.122 59.2998 162.978 59.0966 162.775C58.71 162.388 58.3364 161.982 57.9694 161.569C57.1829 160.684 56.4358 159.76 55.6821 158.843C55.1184 158.161 54.3909 157.512 54.2402 156.601C54.1288 155.946 54.4434 155.389 55.0922 155.179C55.7935 154.956 56.2981 155.277 56.7766 155.762C58.4019 157.414 59.4833 159.498 60.7155 161.438C60.958 161.818 60.4074 162.27 60.1584 161.884L60.1649 161.877Z" fill="#300000"/>
<path d="M163.009 197.871C163.54 198.585 164.077 199.3 164.569 200.047L164.529 200.008C164.602 200.093 164.713 200.217 164.778 200.335C165.381 201.2 165.971 202.066 166.555 202.937C167.734 204.707 168.875 206.489 169.982 208.285C172.191 211.864 174.295 215.481 176.372 219.106C177.552 221.157 178.725 223.215 179.905 225.266C180.292 225.941 181.137 226.433 181.681 226.204C182.218 225.981 182.395 225.273 181.983 224.552C177.755 217.225 173.666 209.832 168.947 202.701C168.259 201.659 167.551 200.617 166.836 199.588C166.115 198.559 165.381 197.53 164.628 196.508C164.149 195.859 163.199 195.643 162.812 196.01C162.36 196.436 162.491 197.163 163.009 197.865V197.871Z" fill="#300000"/>
<path d="M181.34 225.457C181.609 225.404 181.884 225.339 182.153 225.26C182.422 225.181 182.69 225.083 182.959 224.978C183.844 224.5 185.024 223.884 185.895 223.084C186.112 222.881 186.315 222.671 186.479 222.448C186.603 222.284 186.734 222.101 186.852 221.904C186.97 221.708 187.075 221.491 187.141 221.282C187.403 220.633 186.931 220.082 186.367 219.814C185.692 219.578 185.037 219.453 184.375 219.624C184.198 219.663 184.021 219.722 183.857 219.787C182.343 220.403 181.308 221.97 181.216 223.7C181.203 223.844 181.196 223.995 181.196 224.146C181.294 224.447 181.157 224.762 181.255 225.063C181.275 225.194 181.308 225.325 181.347 225.457H181.34Z" fill="#300000"/>
<path d="M181.498 226.348C182.258 226.204 183.012 225.975 183.693 225.608C184.375 225.241 185.05 224.854 185.679 224.408C186.334 223.949 186.924 223.392 187.39 222.737C187.822 222.121 188.248 221.308 188.078 220.528C187.737 219.001 185.804 218.47 184.44 218.687C183.044 218.909 181.786 219.873 181.085 221.085C180.672 221.793 180.41 222.573 180.324 223.392C180.305 223.563 180.298 223.733 180.292 223.904C180.292 224.041 180.279 224.179 180.292 224.316C180.305 224.362 180.318 224.408 180.324 224.454C180.324 224.343 180.324 224.336 180.324 224.434C180.285 224.841 180.344 225.234 180.449 225.627C180.574 226.086 180.993 226.473 181.498 226.355C181.943 226.256 182.356 225.791 182.225 225.306C182.192 225.175 182.16 225.044 182.133 224.913C182.127 224.867 182.107 224.651 182.107 224.86C182.107 224.815 182.107 224.762 182.107 224.716C182.114 224.539 182.12 224.375 182.107 224.198C182.107 224.198 182.068 223.982 182.087 224.094C182.087 224.159 182.087 224.139 182.087 224.041C182.087 223.982 182.087 223.923 182.101 223.864C182.107 223.727 182.12 223.589 182.133 223.451C182.133 223.399 182.146 223.346 182.153 223.294C182.153 223.301 182.199 223.045 182.173 223.169C182.146 223.294 182.205 223.045 182.205 223.051C182.225 222.986 182.238 222.927 182.258 222.861C182.297 222.724 182.35 222.586 182.402 222.455C182.435 222.383 182.468 222.311 182.494 222.239C182.481 222.272 182.409 222.39 182.494 222.239C182.553 222.127 182.618 222.016 182.69 221.905C182.763 221.8 182.835 221.688 182.913 221.59C182.946 221.551 182.979 221.511 183.012 221.472C183.084 221.393 183.077 221.393 182.998 221.479C183.031 221.439 183.071 221.406 183.103 221.367C183.267 221.203 183.438 221.059 183.628 220.921C183.66 220.895 183.87 220.777 183.68 220.889C183.726 220.862 183.765 220.836 183.811 220.81C183.942 220.738 184.08 220.672 184.224 220.613C184.204 220.62 184.48 220.522 184.368 220.554C184.257 220.594 184.545 220.509 184.519 220.515C184.644 220.482 184.775 220.463 184.899 220.45C185.07 220.43 184.932 220.45 184.899 220.45C184.978 220.45 185.05 220.45 185.129 220.456C185.181 220.456 185.233 220.463 185.279 220.469C185.305 220.469 185.568 220.515 185.469 220.495C185.338 220.469 185.594 220.528 185.587 220.528C185.64 220.541 185.692 220.554 185.745 220.574C185.823 220.594 185.902 220.627 185.981 220.646C186.151 220.692 186.007 220.646 185.967 220.627C186.02 220.659 186.223 220.745 186.243 220.817L186.157 220.745C186.157 220.745 186.216 220.804 186.249 220.843L186.289 220.895C186.348 220.98 186.341 220.961 186.262 220.849C186.249 220.849 186.328 220.948 186.315 220.961L186.282 220.856C186.295 220.895 186.302 220.941 186.302 220.98C186.262 220.81 186.282 220.882 186.289 220.941L186.308 220.849C186.295 220.895 186.282 220.941 186.262 220.987C186.243 221.039 186.223 221.092 186.203 221.144C186.203 221.157 186.079 221.406 186.164 221.249C186.092 221.387 186.007 221.518 185.922 221.649C185.836 221.78 185.745 221.898 185.646 222.023C185.646 222.023 185.443 222.252 185.555 222.127C185.509 222.173 185.463 222.219 185.417 222.265C185.174 222.508 184.906 222.724 184.63 222.927C184.493 223.025 184.349 223.124 184.204 223.222C184.054 223.32 184.388 223.11 184.132 223.268C184.054 223.314 183.975 223.366 183.896 223.412C183.595 223.595 183.28 223.766 182.972 223.936C182.684 224.094 182.409 224.225 182.101 224.336C181.812 224.441 182.179 224.316 182.009 224.369C181.904 224.402 181.799 224.428 181.694 224.461C181.517 224.506 181.334 224.546 181.15 224.579C180.685 224.664 180.311 225.149 180.423 225.627C180.528 226.099 180.98 226.453 181.471 226.355L181.498 226.348Z" fill="#300000"/>
<path d="M117.499 200.453C117.309 200.945 117.125 201.436 116.942 201.928C116.856 202.164 116.771 202.393 116.686 202.629C116.647 202.734 116.607 202.839 116.575 202.944C116.647 202.754 116.476 203.213 116.457 203.265C116.103 204.255 115.762 205.244 115.434 206.24C114.766 208.259 114.137 210.278 113.54 212.309C112.347 216.34 111.279 220.39 110.23 224.434C109.634 226.728 109.044 229.022 108.448 231.309C108.251 232.063 107.57 232.758 106.986 232.685C106.409 232.613 106.049 231.978 106.259 231.172C108.402 222.986 110.394 214.774 113.068 206.653C113.462 205.467 113.868 204.281 114.287 203.095C114.707 201.915 115.146 200.735 115.598 199.555C115.886 198.815 116.732 198.369 117.197 198.631C117.741 198.933 117.813 199.66 117.512 200.46L117.499 200.453Z" fill="#300000"/>
<path d="M107.111 231.86C106.835 231.886 106.554 231.893 106.272 231.886C105.99 231.886 105.708 231.86 105.42 231.827C104.437 231.598 103.139 231.316 102.09 230.772C101.828 230.634 101.579 230.484 101.356 230.313C101.193 230.189 101.016 230.045 100.852 229.887C100.688 229.723 100.531 229.546 100.413 229.363C99.9866 228.806 100.295 228.15 100.773 227.744C101.363 227.338 101.959 227.043 102.648 227.036C102.831 227.036 103.015 227.036 103.192 227.062C104.81 227.253 106.226 228.491 106.77 230.136C106.822 230.274 106.868 230.418 106.908 230.562C106.894 230.877 107.104 231.152 107.091 231.467C107.104 231.604 107.111 231.735 107.111 231.873V231.86Z" fill="#300000"/>
<path d="M107.196 232.764C106.423 232.823 105.636 232.803 104.882 232.626C104.129 232.45 103.375 232.253 102.647 231.991C101.894 231.715 101.179 231.342 100.557 230.824C99.9735 230.346 99.3509 229.671 99.3115 228.878C99.2329 227.311 100.963 226.289 102.333 226.145C103.742 225.994 105.21 226.59 106.206 227.573C106.79 228.15 107.248 228.832 107.543 229.599C107.602 229.756 107.661 229.92 107.714 230.077C107.753 230.208 107.799 230.339 107.819 230.477C107.819 230.523 107.819 230.575 107.825 230.621C107.799 230.51 107.799 230.503 107.825 230.601C107.969 230.988 108.015 231.375 108.022 231.781C108.022 232.253 107.72 232.738 107.202 232.764C106.75 232.784 106.226 232.45 106.219 231.945C106.219 231.807 106.213 231.676 106.2 231.539C106.2 231.493 106.154 231.283 106.213 231.486C106.2 231.44 106.187 231.394 106.167 231.348C106.115 231.185 106.062 231.021 106.036 230.85C106.036 230.85 106.016 230.628 106.029 230.746C106.049 230.811 106.049 230.791 106.016 230.693C105.997 230.634 105.977 230.582 105.957 230.523C105.911 230.392 105.865 230.261 105.813 230.136C105.793 230.084 105.774 230.038 105.747 229.985C105.747 229.992 105.636 229.756 105.695 229.874C105.754 229.992 105.63 229.762 105.636 229.769C105.603 229.71 105.571 229.658 105.531 229.599C105.453 229.474 105.374 229.356 105.282 229.245C105.236 229.179 105.184 229.12 105.131 229.061C105.151 229.087 105.249 229.186 105.131 229.061C105.04 228.969 104.948 228.878 104.856 228.792C104.758 228.707 104.66 228.622 104.555 228.55C104.515 228.517 104.469 228.491 104.43 228.458C104.345 228.399 104.345 228.399 104.443 228.458C104.397 228.432 104.358 228.406 104.312 228.38C104.116 228.268 103.906 228.17 103.69 228.091C103.65 228.078 103.414 228.019 103.631 228.072C103.578 228.058 103.532 228.045 103.486 228.032C103.336 227.999 103.185 227.967 103.034 227.954C103.06 227.954 102.765 227.934 102.877 227.94C102.995 227.94 102.693 227.94 102.72 227.94C102.589 227.94 102.464 227.96 102.333 227.973C102.163 227.999 102.3 227.98 102.333 227.973C102.261 227.993 102.189 228.013 102.117 228.039C102.071 228.058 102.018 228.072 101.972 228.091C101.946 228.104 101.704 228.209 101.795 228.17C101.913 228.111 101.684 228.235 101.691 228.229C101.645 228.255 101.599 228.281 101.553 228.314C101.481 228.36 101.415 228.406 101.35 228.445C101.193 228.537 101.324 228.458 101.356 228.425C101.31 228.471 101.14 228.609 101.14 228.681L101.199 228.589C101.179 228.629 101.16 228.668 101.14 228.707L101.114 228.766C101.081 228.865 101.081 228.845 101.127 228.714C101.14 228.714 101.094 228.825 101.107 228.838V228.727C101.107 228.766 101.114 228.812 101.12 228.851C101.114 228.674 101.12 228.753 101.12 228.812L101.075 228.727C101.101 228.766 101.127 228.812 101.153 228.845C101.186 228.891 101.219 228.937 101.252 228.983C101.258 228.996 101.442 229.205 101.317 229.068C101.422 229.179 101.54 229.291 101.658 229.389C101.776 229.487 101.9 229.585 102.025 229.677C102.025 229.677 102.28 229.848 102.136 229.756C102.189 229.789 102.248 229.821 102.307 229.854C102.608 230.025 102.923 230.162 103.237 230.287C103.395 230.346 103.558 230.405 103.722 230.457C103.893 230.51 103.519 230.398 103.801 230.483C103.893 230.51 103.978 230.536 104.07 230.562C104.41 230.66 104.758 230.739 105.105 230.824C105.42 230.896 105.728 230.955 106.056 230.981C106.357 231.008 105.977 230.981 106.154 230.981C106.265 230.981 106.37 230.981 106.482 230.981C106.665 230.981 106.855 230.968 107.039 230.955C107.51 230.916 107.995 231.283 108.022 231.774C108.041 232.259 107.707 232.718 107.202 232.758L107.196 232.764Z" fill="#300000"/>
<path opacity="0.05" d="M94.9597 246.783C93.9635 249.66 106.678 250.106 111.567 250.46C128.915 251.725 146.559 250.702 163.874 249.876C165.834 249.726 167.8 249.588 169.766 249.47C187.855 248.382 205.564 250.296 223.606 250.512C238.595 250.696 253.682 250.597 268.625 249.837C271.004 249.719 275.127 249.595 276.634 248.448C278.148 247.294 276.575 246.409 274.373 246.016C263.703 244.129 252.116 244.122 240.981 243.925C218.304 243.519 195.923 246.2 173.325 245.531C168.298 245.38 163.324 244.981 158.343 244.6C156.684 244.476 155.02 244.351 153.362 244.24C143.865 243.611 134.172 243.499 124.57 243.722C119.668 243.834 114.772 244.004 109.909 244.26C105.898 244.469 100.504 244.502 97.0962 245.433C95.8182 245.78 95.1366 246.272 94.9597 246.776V246.783Z" fill="#111111"/>
<path d="M177.454 81.3362C179.892 82.5749 181.57 84.4755 182.717 86.8546C183.864 84.4755 185.548 82.5618 187.986 81.3231C185.548 80.0844 183.864 78.1838 182.717 75.8047C181.57 78.1838 179.892 80.0975 177.454 81.3362Z" fill="#FFE6A6"/>
<path d="M201.028 126.611C202.444 127.332 203.42 128.433 204.089 129.816C204.757 128.433 205.734 127.319 207.15 126.604C205.734 125.883 204.757 124.782 204.089 123.399C203.42 124.782 202.45 125.896 201.028 126.611Z" fill="#FFE6A6"/>
<path d="M104.306 62.8016C106.042 63.6864 107.235 65.0365 108.054 66.7339C108.874 65.0365 110.073 63.6732 111.81 62.795C110.073 61.9102 108.874 60.5601 108.054 58.8627C107.235 60.5601 106.042 61.9234 104.306 62.8016Z" fill="#FFE6A6"/>
<path d="M0.51123 131.27C1.91377 131.985 2.87719 133.073 3.53259 134.442C4.18798 133.073 5.15795 131.978 6.56049 131.264C5.15795 130.549 4.19453 129.461 3.53259 128.092C2.87719 129.461 1.91377 130.556 0.51123 131.27Z" fill="#FFE6A6"/>
<path d="M98.0597 69.3424C99.069 69.8536 99.7637 70.64 100.236 71.6297C100.707 70.6466 101.409 69.8536 102.418 69.3424C101.409 68.8312 100.714 68.0447 100.236 67.0551C99.7637 68.0381 99.069 68.8312 98.0597 69.3424Z" fill="#FFE6A6"/>
<path d="M245.503 244.882C245.503 246.167 236.065 247.216 224.432 247.216C212.799 247.216 203.361 246.167 203.361 244.882C203.361 244.856 203.361 244.836 203.375 244.81V238.512H245.497V244.797C245.497 244.797 245.51 244.85 245.51 244.882H245.503Z" fill="#F49B51"/>
<path d="M224.426 240.904C236.063 240.904 245.497 239.86 245.497 238.571C245.497 237.282 236.063 236.238 224.426 236.238C212.789 236.238 203.355 237.282 203.355 238.571C203.355 239.86 212.789 240.904 224.426 240.904Z" fill="#FCC659"/>
<path d="M250.484 237.28C250.484 238.564 241.046 239.613 229.413 239.613C217.78 239.613 208.342 238.564 208.342 237.28C208.342 237.254 208.342 237.234 208.356 237.208V230.909H250.478V237.195C250.478 237.195 250.491 237.247 250.491 237.28H250.484Z" fill="#F49B51"/>
<path d="M229.407 233.302C241.044 233.302 250.477 232.257 250.477 230.968C250.477 229.68 241.044 228.635 229.407 228.635C217.77 228.635 208.336 229.68 208.336 230.968C208.336 232.257 217.77 233.302 229.407 233.302Z" fill="#FCC659"/>
<path d="M245.503 229.684C245.503 230.968 236.065 232.017 224.432 232.017C212.799 232.017 203.361 230.968 203.361 229.684C203.361 229.658 203.361 229.638 203.375 229.612V223.313H245.497V229.599C245.497 229.599 245.51 229.651 245.51 229.684H245.503Z" fill="#F49B51"/>
<path d="M224.426 225.706C236.063 225.706 245.497 224.661 245.497 223.372C245.497 222.084 236.063 221.039 224.426 221.039C212.789 221.039 203.355 222.084 203.355 223.372C203.355 224.661 212.789 225.706 224.426 225.706Z" fill="#FCC659"/>
<path d="M224.432 247.458C215.86 247.458 203.112 246.77 203.112 244.876H203.61C203.61 245.603 210.761 246.96 224.439 246.96C224.937 246.96 225.428 246.96 225.92 246.96V247.458C225.435 247.458 224.937 247.458 224.439 247.458H224.432Z" fill="#2E4882"/>
<path d="M232.782 247.268L232.756 246.77C234.892 246.665 236.845 246.527 238.569 246.357L238.621 246.855C236.885 247.032 234.925 247.17 232.782 247.274V247.268Z" fill="#2E4882"/>
<path d="M216.109 239.298C208.192 238.578 208.192 237.581 208.192 237.254H208.69C208.69 237.496 210.033 238.25 216.155 238.807L216.109 239.305V239.298Z" fill="#2E4882"/>
<path d="M229.518 239.829C227.152 239.829 224.825 239.784 222.604 239.698L222.623 239.2C226.588 239.351 230.973 239.371 235.056 239.246L235.069 239.744C233.26 239.797 231.392 239.823 229.518 239.823V239.829Z" fill="#2E4882"/>
<path d="M240.299 239.502L240.266 239.003C242.514 238.853 244.474 238.663 246.093 238.433L246.165 238.925C244.533 239.154 242.56 239.351 240.306 239.495L240.299 239.502Z" fill="#2E4882"/>
<path d="M210.256 225.358C203.23 224.644 203.23 223.739 203.23 223.399H203.729C203.729 223.399 203.906 224.211 210.302 224.867L210.25 225.365L210.256 225.358Z" fill="#2E4882"/>
<path d="M224.557 225.974C222.132 225.974 219.766 225.928 217.518 225.843L217.538 225.345C219.779 225.437 222.145 225.476 224.563 225.476C228.889 225.476 233.044 225.332 236.577 225.057L236.616 225.555C233.07 225.83 228.902 225.974 224.563 225.974H224.557Z" fill="#2E4882"/>
<path d="M252.968 222.081C252.968 223.366 243.53 224.415 231.897 224.415C220.264 224.415 210.826 223.366 210.826 222.081C210.826 222.055 210.826 222.035 210.839 222.009V215.711H252.961V221.996C252.961 221.996 252.975 222.049 252.975 222.081H252.968Z" fill="#F49B51"/>
<path d="M231.897 218.103C243.534 218.103 252.968 217.059 252.968 215.77C252.968 214.481 243.534 213.437 231.897 213.437C220.26 213.437 210.826 214.481 210.826 215.77C210.826 217.059 220.26 218.103 231.897 218.103Z" fill="#FCC659"/>
<path d="M249.062 215.77C249.062 216.635 241.374 217.336 231.897 217.336C222.42 217.336 214.732 216.635 214.732 215.77C214.732 214.905 222.42 214.203 231.897 214.203C241.374 214.203 249.062 214.905 249.062 215.77Z" fill="#F49B51"/>
<path d="M168.606 0.00844109C156.855 0.336137 147.601 10.1342 147.928 21.892C148.256 33.6431 158.054 42.9038 169.812 42.5696C181.563 42.2419 190.824 32.4438 190.49 20.686C190.162 8.93487 180.364 -0.319255 168.606 0.00844109ZM186.334 20.804C186.465 25.3786 184.801 29.7304 181.655 33.0533C178.516 36.3827 174.269 38.2833 169.687 38.4144C160.243 38.6765 152.346 31.2182 152.077 21.7674C151.946 17.1928 153.604 12.841 156.75 9.51817C159.785 6.30675 163.848 4.42578 168.239 4.17673C168.396 4.17018 168.554 4.16362 168.717 4.15707C178.004 3.88836 185.797 11.1108 186.308 20.3321C186.315 20.4894 186.328 20.6467 186.328 20.7975L186.334 20.804Z" fill="#FCC659"/>
<path d="M186.315 20.3385C186.321 20.4958 186.334 20.6531 186.334 20.8039C186.465 25.3785 184.801 29.7303 181.655 33.0531C178.516 36.3825 174.269 38.2831 169.687 38.4142C160.243 38.6764 152.346 31.218 152.077 21.7673C151.946 17.1927 153.604 12.8409 156.75 9.51802C159.784 6.3066 163.848 4.42563 168.239 4.17658C168.396 4.17003 168.554 4.16347 168.717 4.15692C178.004 3.88821 185.797 11.1106 186.308 20.332L186.315 20.3385Z" fill="#F49B51"/>
<path d="M168.848 34.4361L168.671 31.2182C166.823 31.2903 164.877 30.8184 163.717 30.0844L164.366 27.9085C165.558 28.6097 167.249 29.1209 169.032 29.0226C171.293 28.8981 172.755 27.5087 172.65 25.6867C172.551 23.9368 171.247 22.9209 168.835 22.0951C165.512 21.0006 163.422 19.644 163.271 16.8717C163.127 14.2239 164.89 12.1135 167.8 11.4712L167.623 8.25326L169.596 8.14185L169.766 11.2353C171.68 11.1894 173.017 11.6285 173.974 12.1201L173.292 14.2698C172.604 13.9224 171.254 13.2932 169.215 13.4112C166.764 13.5488 165.919 15.0628 165.991 16.3408C166.083 17.9989 167.308 18.7592 170.146 19.7554C173.502 20.9089 175.252 22.4753 175.409 25.3131C175.547 27.8298 173.928 30.2875 170.677 31.0085L170.86 34.3247L168.855 34.4361H168.848Z" fill="#FCC659"/>
<path d="M185.371 16.0983C185.325 15.9607 185.279 15.8231 185.233 15.692C183.614 11.078 180.095 7.40127 175.566 5.57929L175.737 5.14673C180.39 7.02115 184.008 10.7962 185.659 15.5085C185.718 15.6789 185.764 15.8165 185.81 15.9607L185.364 16.0983H185.371Z" fill="#2E4882"/>
<path d="M175.566 5.57269C171.922 4.10462 167.859 3.96043 164.123 5.15324L163.979 4.71413C167.819 3.48199 171.994 3.63274 175.737 5.14014L175.566 5.57269Z" fill="#2E4882"/>
<path d="M184.709 29.1995L184.296 28.9897C185.325 26.9908 185.941 24.8608 186.125 22.6521L186.59 22.6914C186.4 24.9591 185.771 27.1546 184.709 29.206V29.1995Z" fill="#2E4882"/>
<path d="M182.166 4.71408C180.442 3.36398 178.535 2.30224 176.49 1.54199L176.661 1.07666C178.752 1.85002 180.711 2.94453 182.468 4.32085L182.16 4.71408H182.166Z" fill="#2E4882"/>
<path d="M182.192 38.4733L181.891 38.0736C187.304 33.9708 190.424 27.4759 190.234 20.6926C190.116 16.4784 188.759 12.4478 186.308 9.03972L186.714 8.75134C189.218 12.2446 190.607 16.367 190.732 20.686C190.929 27.6266 187.737 34.2788 182.192 38.4799V38.4733Z" fill="#2E4882"/>
<path d="M42.7905 87.6866C33.1235 89.9346 27.1135 99.6016 29.3615 109.269C31.6095 118.936 41.2766 124.952 50.9436 122.698C60.6106 120.45 66.6271 110.783 64.3725 101.116C62.1246 91.4486 52.4575 85.4386 42.7905 87.6866ZM60.9645 101.909C61.8427 105.671 61.2005 109.55 59.1556 112.834C57.1174 116.118 53.9191 118.405 50.1571 119.283C42.3907 121.092 34.5981 116.242 32.7892 108.476C31.911 104.714 32.5533 100.834 34.5916 97.5503C36.5577 94.3847 39.6053 92.1367 43.2034 91.1995C43.3345 91.1667 43.4656 91.134 43.5966 91.1078C51.2385 89.3251 58.9 93.9915 60.8728 101.528C60.9055 101.653 60.9383 101.784 60.9711 101.909H60.9645Z" fill="#FCC659"/>
<path d="M60.8662 101.522C60.899 101.647 60.9317 101.778 60.9645 101.902C61.8427 105.664 61.2004 109.544 59.1556 112.828C57.1173 116.111 53.919 118.398 50.1571 119.277C42.3907 121.086 34.5915 116.236 32.7827 108.469C31.9044 104.707 32.5467 100.827 34.585 97.5439C36.5512 94.3784 39.5987 92.1304 43.1968 91.1932C43.3279 91.1604 43.459 91.1276 43.5901 91.1014C51.2319 89.3188 58.8935 93.9851 60.8662 101.522Z" fill="#F49B51"/>
<path d="M48.7873 116.124L48.0992 113.49C46.5787 113.857 44.8943 113.798 43.8064 113.385L43.9768 111.471C45.0778 111.851 46.5656 111.989 48.0271 111.609C49.8818 111.124 50.8518 109.728 50.4586 108.24C50.085 106.805 48.8332 106.189 46.6966 105.907C43.767 105.559 41.8074 104.793 41.211 102.525C40.6474 100.362 41.755 98.3173 44.0489 97.2949L43.3607 94.6603L44.9795 94.2343L45.6415 96.7641C47.221 96.4036 48.4007 96.5412 49.2723 96.7903L49.0692 98.6844C48.44 98.514 47.221 98.219 45.5497 98.6581C43.5442 99.1825 43.0986 100.578 43.3738 101.627C43.7277 102.984 44.8681 103.41 47.3848 103.751C50.3603 104.144 52.0709 105.147 52.6738 107.467C53.2112 109.525 52.2871 111.832 49.7114 112.978L50.4193 115.692L48.7742 116.124H48.7873Z" fill="#FCC659"/>
<path d="M59.3784 98.1732C59.3194 98.0683 59.2539 97.9634 59.1949 97.8586C57.078 94.3129 53.5454 91.8617 49.4951 91.1146L49.5672 90.7279C53.7355 91.4947 57.3598 94.0114 59.5226 97.6357C59.6013 97.7668 59.6602 97.8717 59.7258 97.9831L59.385 98.1732H59.3784Z" fill="#2E4882"/>
<path d="M49.4887 91.1146C46.2248 90.5116 42.843 91.0753 39.9462 92.6941L39.7561 92.3533C42.725 90.6886 46.2052 90.1118 49.5608 90.7279L49.4887 91.1146Z" fill="#2E4882"/>
<path d="M61.0366 109.131L60.6565 109.026C61.1743 107.198 61.325 105.33 61.1022 103.475L61.4888 103.429C61.7117 105.336 61.5609 107.257 61.0301 109.138L61.0366 109.131Z" fill="#2E4882"/>
<path d="M54.8039 89.2924C53.1523 88.4666 51.3893 87.903 49.5739 87.6277L49.6394 87.2148C51.5007 87.5032 53.303 88.08 54.9939 88.9189L54.8039 89.2924Z" fill="#2E4882"/>
<path d="M60.5123 117.225L60.1977 116.95C63.9924 112.644 65.4802 106.746 64.1759 101.168C63.3698 97.7013 61.5675 94.5948 58.9656 92.1829L59.2539 91.8749C61.9148 94.3457 63.7565 97.5244 64.5888 101.07C65.9193 106.785 64.3988 112.821 60.5189 117.225H60.5123Z" fill="#2E4882"/>
<path d="M247.332 75.4834C234.899 72.1147 222.092 79.4682 218.724 91.9075C215.355 104.34 222.709 117.153 235.148 120.515C247.581 123.884 260.394 116.531 263.756 104.091C267.124 91.6584 259.771 78.8521 247.332 75.4834ZM259.365 102.905C258.054 107.742 254.934 111.786 250.582 114.283C246.237 116.78 241.177 117.435 236.334 116.124C226.346 113.417 220.415 103.088 223.121 93.0937C224.432 88.257 227.545 84.2132 231.897 81.7161C236.092 79.3109 240.955 78.6161 245.641 79.7434C245.811 79.7827 245.975 79.8286 246.145 79.8745C255.976 82.5288 261.868 92.5694 259.489 102.4C259.45 102.564 259.41 102.735 259.365 102.898V102.905Z" fill="#FCC659"/>
<path d="M259.489 102.407C259.45 102.571 259.41 102.741 259.365 102.905C258.054 107.742 254.934 111.786 250.582 114.283C246.237 116.78 241.177 117.435 236.334 116.124C226.346 113.418 220.415 103.089 223.121 93.0939C224.432 88.2571 227.545 84.2134 231.897 81.7163C236.092 79.311 240.955 78.6163 245.641 79.7436C245.811 79.7829 245.975 79.8288 246.145 79.8747C255.976 82.529 261.868 92.5696 259.489 102.4V102.407Z" fill="#F49B51"/>
<path d="M236.714 111.681L237.547 108.246C235.581 107.735 233.693 106.628 232.703 105.494L234.073 103.416C235.102 104.53 236.714 105.599 238.615 106.064C241.027 106.647 243 105.645 243.465 103.711C243.917 101.843 242.868 100.362 240.601 98.7367C237.462 96.5412 235.699 94.457 236.413 91.5012C237.094 88.6765 239.618 87.0249 242.868 87.2674L243.701 83.8331L245.811 84.3443L245.012 87.641C247.037 88.2046 248.295 89.0828 249.147 89.9021L247.758 91.9403C247.142 91.357 245.929 90.2756 243.753 89.7513C241.138 89.1156 239.768 90.446 239.441 91.8027C239.015 93.5722 240.057 94.7585 242.718 96.6985C245.877 98.9727 247.214 101.168 246.486 104.196C245.837 106.883 243.36 108.948 239.716 108.679L238.864 112.212L236.721 111.694L236.714 111.681Z" fill="#FCC659"/>
<path d="M259.843 97.6618C259.843 97.5045 259.837 97.3472 259.83 97.1899C259.594 91.8354 257.058 86.8675 252.883 83.525L253.204 83.1252C257.497 86.5595 260.099 91.665 260.341 97.1375C260.348 97.3341 260.354 97.4914 260.361 97.6553H259.85L259.843 97.6618Z" fill="#2E4882"/>
<path d="M252.883 83.525C249.521 80.8379 245.306 79.3961 241.007 79.4682V78.957C245.418 78.8783 249.75 80.3595 253.197 83.1187L252.876 83.5185L252.883 83.525Z" fill="#2E4882"/>
<path d="M255.006 111.202L254.639 110.848C256.35 109.079 257.674 107.034 258.565 104.773L259.037 104.963C258.119 107.283 256.763 109.387 255.006 111.202Z" fill="#2E4882"/>
<path d="M260.072 84.7047C258.69 82.7451 257.025 81.0214 255.118 79.5861L255.445 79.1536C257.398 80.6282 259.102 82.3912 260.518 84.3967L260.072 84.7113V84.7047Z" fill="#2E4882"/>
<path d="M249.435 120.135L249.245 119.624C256.225 117.035 261.547 111.202 263.494 104.026C264.699 99.569 264.549 94.9091 263.061 90.5573L263.579 90.3804C265.106 94.837 265.257 99.6017 264.024 104.17C262.039 111.517 256.586 117.487 249.442 120.135H249.435Z" fill="#2E4882"/>
<path d="M24.2626 202.459L23.6072 202.708C18.7049 189.79 19.4848 175.824 26.0518 158.758L26.7072 159.013C20.1992 175.909 19.4258 189.712 24.2626 202.459Z" fill="#2E4882"/>
<path d="M22.2506 212.46L21.6542 212.827C7.5436 190.013 15.7819 166.524 25.6914 146.554L26.3206 146.869C16.4897 166.662 8.32352 189.935 22.2506 212.46Z" fill="#2E4882"/>
<path d="M245.7 60.9404C237.415 44.844 227.63 35.0786 214.896 30.2025L215.145 29.5471C228.05 34.4822 237.959 44.359 246.322 60.6192L245.7 60.9404Z" fill="#2E4882"/>
<path d="M255.019 68.7264C246.781 48.2192 234.846 26.6306 208.768 22.0429L208.893 21.3481C235.312 26.0014 247.364 47.7735 255.675 68.4642L255.019 68.7264Z" fill="#2E4882"/>
<path d="M176.91 102.754L126.261 70.5875C124.61 69.5388 122.63 69.1128 120.697 69.3947C118.764 69.6765 116.987 70.6399 115.696 72.1145L76.2221 117.297C74.6491 119.1 73.9413 121.492 74.2821 123.864L85.6859 202.773C86.3348 207.243 90.4965 210.356 94.9728 209.714L185.096 196.691C189.565 196.042 192.679 191.881 192.036 187.411L180.632 108.502C180.292 106.136 178.935 104.039 176.916 102.754H176.91Z" fill="url(#paint0_linear_2321_8783)"/>
<path opacity="0.8" d="M101.546 107.312C109.083 98.4403 114.081 90.3044 112.71 89.1396C111.339 87.9749 104.118 94.2224 96.5812 103.094C89.0444 111.965 84.046 120.101 85.417 121.266C86.7879 122.431 94.0092 116.183 101.546 107.312Z" fill="white"/>
<path d="M122.545 86.5005C118.698 87.0051 115.159 84.2852 114.654 80.4315C114.15 76.5778 116.876 73.0453 120.723 72.5406C124.57 72.036 128.116 74.7624 128.614 78.6096C129.112 82.4567 126.392 85.9958 122.545 86.5005ZM121.143 75.7521C119.065 76.0208 117.597 77.9345 117.866 80.0121C118.134 82.0897 120.048 83.5578 122.126 83.2891C124.203 83.0203 125.671 81.1066 125.403 79.029C125.134 76.9514 123.22 75.4833 121.143 75.7521Z" fill="white"/>
<path d="M122.598 86.8676C118.547 87.3985 114.818 84.5279 114.294 80.4841C113.763 76.4338 116.633 72.7112 120.684 72.1803C124.734 71.6494 128.457 74.5135 128.988 78.5638C129.518 82.6141 126.648 86.3367 122.598 86.8676ZM120.776 72.9078C117.125 73.3862 114.549 76.7418 115.028 80.3858C115.506 84.0363 118.855 86.612 122.506 86.1401C126.156 85.6617 128.732 82.3061 128.26 78.6621C127.782 75.0116 124.433 72.4293 120.782 72.9078H120.776Z" fill="white"/>
<path d="M122.172 83.5905C119.943 83.8789 117.885 82.2994 117.59 80.0711C117.302 77.8362 118.881 75.7848 121.11 75.4899C123.345 75.2015 125.396 76.781 125.691 79.0094C125.986 81.2377 124.4 83.2956 122.172 83.584V83.5905ZM121.169 75.8963C119.157 76.1584 117.735 78.0066 117.997 80.0187C118.259 82.0307 120.107 83.4529 122.119 83.1908C124.131 82.9286 125.553 81.0804 125.291 79.0683C125.029 77.0563 123.181 75.6341 121.169 75.8963Z" fill="white"/>
<path d="M118.619 78.5243C118.259 75.7455 116.987 72.6127 115.755 69.5848C113.9 65.0233 112.301 61.0778 113.625 58.2072C115.172 54.8254 121.392 54.0193 123.764 56.8833C125.783 59.3214 125.245 63.5421 124.623 68.4248C124.21 71.6689 123.777 75.018 124.144 77.8034" stroke="#191919" stroke-width="3" stroke-miterlimit="10" stroke-linecap="round"/>
<path d="M116.653 169.421C115.178 167.153 112.059 166.701 109.64 167.297C109.627 167.297 109.614 167.304 109.601 167.31C109.588 167.31 109.575 167.31 109.562 167.31C107.504 167.867 104.895 169.368 104.554 171.701C104.207 174.087 106.789 175.45 108.795 175.712C110.892 175.988 113.088 175.424 114.857 174.284C116.483 173.242 117.872 171.302 116.653 169.414V169.421Z" fill="#F46E6E"/>
<path d="M160.328 161.15C160.328 161.15 160.302 161.15 160.289 161.15C160.276 161.15 160.263 161.15 160.25 161.15C157.91 161.15 155.511 162.1 154.279 164.191C153.781 165.036 153.584 166.052 154.01 166.97C154.423 167.861 155.242 168.477 156.108 168.883C157.989 169.775 160.276 169.926 162.275 169.382C164.169 168.87 166.646 167.297 166.443 165.03C166.187 162.284 162.616 161.196 160.328 161.143V161.15Z" fill="#F46E6E"/>
<path d="M135.869 166.472C133.726 164.564 131.183 166.373 130.161 168.497C131.93 169.735 134.093 170.397 136.243 169.965C138.451 169.526 140.319 168.149 141.551 166.321C139.703 164.951 137.383 164.204 135.869 166.472Z" fill="#F46E6E"/>
<path d="M142.967 160.861C142.672 160.167 141.99 159.747 141.086 159.865C139.847 160.029 138.845 160.914 137.704 161.353C135.732 162.113 133.582 162.428 131.478 162.238C130.331 162.133 128.889 161.687 127.814 162.29C126.359 163.103 127.048 165.154 127.834 166.216C128.476 167.081 129.269 167.861 130.167 168.49C131.19 166.367 133.733 164.564 135.876 166.465C137.39 164.197 139.71 164.944 141.558 166.314C142.43 165.023 142.987 163.509 143.124 161.949C143.157 161.543 143.105 161.169 142.967 160.855V160.861Z" fill="#300000"/>
<path d="M104.522 163.719C104.79 161.923 105.629 159.957 107.563 159.459C109.516 158.954 111.469 160.212 112.452 161.831C113.573 163.693 116.411 161.864 115.29 160.003C113.553 157.132 110.112 155.415 106.789 156.182C103.637 156.909 101.69 159.937 101.238 162.965C101.101 163.863 101.573 164.774 102.503 164.984C103.342 165.174 104.391 164.623 104.522 163.719Z" fill="#300000"/>
<path d="M154.869 157.65C155.393 155.913 156.507 154.091 158.5 153.875C160.505 153.658 162.255 155.179 162.989 156.929C163.835 158.928 166.902 157.532 166.056 155.526C164.752 152.439 161.593 150.237 158.198 150.519C154.974 150.788 152.608 153.495 151.723 156.431C151.461 157.302 151.789 158.266 152.686 158.613C153.486 158.921 154.607 158.528 154.869 157.65Z" fill="#300000"/>
<defs>
<linearGradient id="paint0_linear_2321_8783" x1="74.7943" y1="140.659" x2="190.38" y2="136.785" gradientUnits="userSpaceOnUse">
<stop offset="0.09" stop-color="#F44100"/>
<stop offset="0.1" stop-color="#F33F00"/>
<stop offset="0.29" stop-color="#EC250E"/>
<stop offset="0.48" stop-color="#E71319"/>
<stop offset="0.68" stop-color="#E4081F"/>
<stop offset="0.91" stop-color="#E30521"/>
</linearGradient>
</defs>
</svg>
