<svg width="229" height="221" viewBox="0 0 229 221" fill="none" xmlns="http://www.w3.org/2000/svg">
<path d="M60.7914 166.748C59.0427 166.333 57.3493 165.835 55.6905 165.199L55.7596 165.22C53.4925 164.28 51.2669 163.188 49.3799 161.66L49.4352 161.75C46.1383 159.186 43.5878 155.744 42.0948 151.818C41.8944 151.32 41.7147 150.823 41.5419 150.318C41.452 150.049 41.3621 149.779 41.2792 149.509C41.2377 149.385 41.2032 149.254 41.1617 149.122C41.1202 148.991 41.1755 149.164 41.1755 149.178C41.1479 149.081 41.1202 148.984 41.0926 148.887C40.9267 148.293 40.4221 147.761 39.7448 147.899C39.178 148.01 38.5767 148.611 38.7564 149.247C39.3162 151.244 40.0489 153.187 40.9543 155.032C44.3895 162.538 52.1308 167.045 59.9758 168.697C60.6324 168.787 61.4342 168.607 61.5586 167.805C61.6139 167.287 61.2752 166.824 60.7914 166.754V166.748Z" fill="#300000"/>
<path d="M40.194 147.816C39.8899 147.885 39.5789 147.913 39.2817 147.913C38.9844 147.913 38.6872 147.864 38.3969 147.795C36.8072 147.304 35.3142 146.199 34.9064 144.422C34.8442 144.146 34.8097 143.876 34.7959 143.6C34.5885 141.851 35.8534 140.199 37.5122 139.985C40.118 139.688 41.5695 142.653 41.217 145.079C41.1755 145.487 41.0995 145.881 40.9751 146.254C40.8576 146.606 40.7055 146.945 40.5051 147.277C40.4152 147.436 40.3115 147.615 40.194 147.823V147.816Z" fill="#300000"/>
<path d="M40.035 146.765C39.8069 146.814 39.5788 146.855 39.3507 146.855C39.5443 146.855 39.1849 146.842 39.1849 146.842C39.0743 146.835 38.9637 146.821 38.8531 146.8C38.8254 146.8 38.4868 146.703 38.7218 146.779C38.6388 146.752 38.5628 146.724 38.4798 146.696C38.3209 146.641 38.1619 146.572 38.0098 146.503C37.9338 146.468 37.8578 146.427 37.7818 146.392C37.7472 146.372 37.4984 146.233 37.7195 146.365C37.5744 146.275 37.4292 146.185 37.291 146.088C37.1735 146.005 37.0629 145.915 36.9523 145.825C36.8901 145.77 36.8279 145.715 36.7588 145.653C36.9454 145.832 36.6897 145.57 36.6551 145.535C36.5445 145.404 36.4339 145.273 36.3441 145.127C36.3095 145.079 36.2819 145.031 36.2473 144.982C36.3786 145.196 36.2335 144.948 36.2128 144.913C36.1298 144.754 36.0607 144.595 36.0054 144.422C35.9916 144.388 35.9225 144.104 35.9778 144.339C35.9501 144.208 35.9156 144.077 35.8948 143.939C35.8672 143.766 35.8533 143.6 35.8395 143.427C35.8395 143.337 35.8257 143.254 35.8188 143.164C35.8326 143.434 35.8257 143.151 35.8326 143.102C35.8464 142.929 35.8741 142.763 35.9086 142.598C35.8533 142.867 35.9086 142.598 35.9294 142.549C35.957 142.473 35.9847 142.39 36.0192 142.314C36.0538 142.238 36.0883 142.162 36.1229 142.086C36.2404 141.844 35.9916 142.259 36.1506 142.038C36.2473 141.906 36.3441 141.775 36.4478 141.644C36.6137 141.436 36.2819 141.775 36.4892 141.602C36.5376 141.561 36.5929 141.512 36.6413 141.471C36.6966 141.43 36.745 141.388 36.8003 141.347C36.8417 141.312 36.8901 141.284 36.9316 141.257C36.8141 141.326 36.8072 141.333 36.9109 141.271C37.056 141.201 37.2081 141.132 37.3601 141.077C37.602 140.98 37.1528 141.105 37.4154 141.063C37.4845 141.056 37.5537 141.036 37.6159 141.029C37.685 141.022 37.7541 141.015 37.8232 141.008C38.0928 140.98 37.5951 140.98 37.8578 141.008C37.9753 141.022 38.3001 140.994 38.3831 141.077L38.2518 141.042C38.3001 141.056 38.3485 141.07 38.39 141.084C38.4591 141.105 38.5282 141.132 38.5904 141.167C38.6319 141.188 38.6803 141.208 38.7218 141.229C38.9499 141.326 38.5351 141.098 38.7356 141.236C38.8531 141.319 38.9775 141.402 39.0881 141.492C39.1434 141.54 39.33 141.644 39.1088 141.499C39.1849 141.547 39.254 141.651 39.3093 141.72C39.3922 141.817 39.4682 141.913 39.5374 142.017C39.5788 142.079 39.6203 142.141 39.6618 142.211C39.5166 141.976 39.648 142.197 39.6756 142.245C39.8208 142.522 39.9313 142.819 40.035 143.116C39.9521 142.853 40.035 143.116 40.0419 143.157C40.0696 143.261 40.0903 143.365 40.111 143.469C40.1456 143.655 40.1733 143.835 40.1871 144.021C40.1871 144.077 40.194 144.125 40.2009 144.18C40.2009 144.236 40.2009 144.284 40.2009 144.339C40.2009 144.187 40.2009 144.174 40.2009 144.291C40.1871 144.478 40.1802 144.657 40.1594 144.844C40.1318 145.086 40.0972 145.335 40.0488 145.577C40.0488 145.604 39.9936 145.777 40.0419 145.618C40.0005 145.756 39.959 145.895 39.9037 146.033C39.6963 146.579 39.5028 146.848 39.1987 147.394C38.9291 147.878 39.2885 148.604 39.7793 148.777C40.3737 148.991 40.8714 148.715 41.1617 148.196C41.1893 148.148 41.2169 148.099 41.2446 148.044C41.3344 147.885 41.1824 148.155 41.2653 148.01C41.3275 147.892 41.3967 147.782 41.4658 147.664C41.6178 147.394 41.763 147.125 41.8667 146.835C42.0671 146.302 42.1846 145.743 42.2537 145.176C42.3505 144.388 42.3298 143.572 42.1293 142.798C41.7284 141.222 40.7538 139.612 39.1157 139.093C37.3463 138.527 35.3902 139.238 34.4019 140.828C33.3443 142.535 33.531 144.754 34.6299 146.392C35.8119 148.169 38.231 149.295 40.3322 148.846C40.8714 148.728 41.3344 148.224 41.2239 147.636C41.1202 147.097 40.5949 146.627 40.0143 146.745L40.035 146.765Z" fill="#300000"/>
<path d="M42.3298 144.871C42.3782 144.706 42.4127 144.54 42.4749 144.374C42.4888 144.325 42.5095 144.284 42.5302 144.236L42.4888 144.319C42.4335 144.339 42.1708 144.533 42.1363 144.491C42.1708 144.484 42.2054 144.477 42.233 144.471C42.2883 144.471 42.2814 144.464 42.1915 144.471C42.1086 144.471 42.0948 144.471 42.157 144.471C42.1915 144.471 42.2261 144.471 42.2607 144.477C42.4404 144.484 42.1846 144.477 42.1915 144.457L42.2607 144.477C42.3436 144.519 42.3436 144.512 42.2607 144.471C42.1915 144.429 42.1846 144.422 42.2261 144.457C42.2537 144.477 42.2814 144.491 42.3021 144.519C42.2607 144.54 42.1362 144.319 42.1224 144.291C42.2054 144.457 42.0464 144.118 42.1017 144.236C42.1293 144.298 42.1224 144.118 42.1017 144.236C42.0879 144.312 42.081 144.401 42.074 144.477C42.0671 144.574 42.0533 144.595 42.081 144.484C42.0395 144.643 41.9773 144.789 41.9151 144.934C41.8805 145.01 41.8598 145.051 41.9151 144.954C41.8736 145.024 41.8321 145.093 41.7837 145.162C41.7008 145.286 41.6109 145.404 41.5142 145.514C41.4727 145.563 41.4243 145.611 41.3829 145.659C41.5004 145.528 41.3552 145.687 41.3276 145.708C41.217 145.811 41.1064 145.901 40.9958 145.998C40.4843 146.434 39.959 146.834 39.3853 147.18C39.8208 147.733 40.2631 148.293 40.6986 148.846C41.452 148.383 41.998 147.546 42.1846 146.682C42.2676 146.288 42.3574 145.881 42.4127 145.48C42.4335 145.314 42.4542 145.148 42.468 144.975C42.4888 144.643 42.4196 144.36 42.316 144.049C42.1362 143.524 41.4036 143.261 40.9198 143.503C40.3668 143.772 40.1802 144.332 40.3737 144.899C40.4567 145.148 40.3599 144.726 40.3737 144.726C40.3737 144.726 40.3599 144.906 40.353 144.92C40.3392 145.072 40.3184 145.224 40.2977 145.376C40.2493 145.687 40.1871 146.005 40.1111 146.309C40.1387 146.199 40.118 146.281 40.0973 146.344C40.0696 146.406 40.042 146.468 40.0212 146.53C39.9936 146.606 39.9659 146.655 40.0212 146.558C39.9936 146.613 39.9521 146.662 39.9175 146.717C39.883 146.765 39.8415 146.814 39.8069 146.869C39.648 147.076 39.883 146.828 39.7655 146.917C39.6411 147.007 39.5374 147.097 39.4061 147.18C38.9291 147.47 38.8877 148.272 39.2333 148.666C39.648 149.143 40.2148 149.15 40.7193 148.839C41.4658 148.383 42.1846 147.844 42.8067 147.228C43.5255 146.516 44.0992 145.646 44.2167 144.623C44.2789 144.097 44.2375 143.565 43.9057 143.13C43.6016 142.729 43.1523 142.515 42.6685 142.404C42.1985 142.293 41.604 142.356 41.2101 142.653C40.7262 143.012 40.5465 143.524 40.3876 144.077C40.2355 144.609 40.3875 145.252 40.9681 145.459C41.4589 145.632 42.1846 145.445 42.3505 144.878L42.3298 144.871Z" fill="#300000"/>
<path opacity="0.05" d="M81.7205 214.744C81.2781 217.764 85.8883 218.358 87.6578 218.78C93.9337 220.28 100.383 219.375 106.7 218.67C107.419 218.531 108.138 218.407 108.856 218.303C115.464 217.329 121.858 219.52 128.417 219.921C133.864 220.252 139.359 220.301 144.812 219.644C145.683 219.54 147.183 219.451 147.763 218.255C148.344 217.052 147.798 216.105 147.01 215.67C143.181 213.575 138.965 213.458 134.921 213.14C126.682 212.497 118.464 215.103 110.266 214.184C108.442 213.976 106.645 213.506 104.841 213.057C104.239 212.905 103.638 212.76 103.037 212.629C99.6015 211.875 96.0764 211.668 92.579 211.806C90.7958 211.875 89.0056 212.006 87.2292 212.235C85.7639 212.421 83.8009 212.4 82.5361 213.347C82.0592 213.707 81.7965 214.211 81.7205 214.744Z" fill="#111111"/>
<path d="M130.988 180.537C130.926 181.47 130.864 182.41 130.746 183.35V183.288C130.746 183.405 130.746 183.585 130.719 183.723C130.608 184.829 130.491 185.928 130.359 187.02C130.097 189.246 129.786 191.457 129.44 193.662C128.763 198.044 127.968 202.385 127.152 206.719C126.689 209.173 126.219 211.626 125.763 214.08C125.611 214.889 125.95 215.856 126.544 216.05C127.131 216.243 127.754 215.801 127.919 214.93C129.551 206.159 131.341 197.429 132.44 188.478C132.599 187.165 132.751 185.852 132.875 184.539C133.007 183.218 133.117 181.898 133.214 180.557C133.276 179.714 132.661 178.885 132.101 178.912C131.444 178.94 131.05 179.617 130.988 180.537Z" fill="#300000"/>
<path d="M126.779 215.206C127.028 215.352 127.297 215.49 127.567 215.607C127.836 215.732 128.12 215.835 128.403 215.932C129.44 216.153 130.809 216.471 132.053 216.423C132.364 216.409 132.668 216.375 132.958 216.312C133.172 216.271 133.401 216.209 133.636 216.133C133.864 216.057 134.092 215.953 134.292 215.829C134.949 215.49 134.949 214.723 134.679 214.121C134.299 213.465 133.864 212.919 133.207 212.601C133.034 212.511 132.854 212.435 132.675 212.38C131.044 211.833 129.136 212.38 127.878 213.707C127.767 213.817 127.657 213.928 127.553 214.045C127.429 214.349 127.097 214.515 126.972 214.826C126.896 214.951 126.834 215.075 126.772 215.206H126.779Z" fill="#300000"/>
<path d="M126.302 216.029C127.014 216.437 127.774 216.769 128.569 216.941C129.371 217.114 130.173 217.266 130.988 217.342C131.831 217.425 132.682 217.384 133.504 217.169C134.271 216.976 135.177 216.61 135.571 215.87C136.345 214.412 135.163 212.663 133.919 211.903C132.647 211.129 130.974 211.032 129.585 211.522C128.77 211.813 128.03 212.255 127.401 212.85C127.27 212.974 127.145 213.105 127.021 213.23C126.924 213.333 126.82 213.444 126.744 213.562C126.724 213.61 126.703 213.651 126.675 213.693C126.751 213.603 126.751 213.596 126.682 213.672C126.371 213.976 126.15 214.322 125.963 214.716C125.749 215.165 125.825 215.766 126.309 216.022C126.73 216.243 127.387 216.16 127.615 215.677C127.677 215.545 127.747 215.421 127.816 215.296C127.843 215.255 127.975 215.068 127.829 215.241C127.864 215.2 127.899 215.165 127.933 215.13C128.058 214.999 128.175 214.868 128.286 214.716C128.286 214.716 128.403 214.508 128.341 214.619C128.293 214.667 128.306 214.654 128.376 214.578C128.417 214.529 128.458 214.488 128.507 214.439C128.611 214.336 128.707 214.232 128.818 214.135C128.859 214.094 128.901 214.059 128.942 214.025C128.942 214.025 129.15 213.859 129.046 213.942C128.935 214.025 129.157 213.859 129.15 213.866C129.205 213.824 129.267 213.79 129.322 213.748C129.454 213.665 129.585 213.589 129.716 213.52C129.792 213.485 129.868 213.451 129.938 213.409C129.903 213.423 129.765 213.472 129.938 213.409C130.069 213.361 130.193 213.313 130.325 213.278C130.456 213.237 130.587 213.209 130.719 213.181C130.774 213.168 130.822 213.161 130.878 213.154C130.988 213.14 130.981 213.133 130.864 213.154C130.919 213.154 130.967 213.14 131.023 213.14C131.265 213.119 131.507 213.119 131.742 213.14C131.783 213.14 132.039 213.195 131.804 213.14C131.859 213.154 131.908 213.161 131.963 213.168C132.122 213.202 132.274 213.244 132.426 213.292C132.405 213.285 132.695 213.396 132.578 213.347C132.467 213.299 132.751 213.43 132.73 213.423C132.854 213.485 132.972 213.555 133.083 213.631C133.235 213.727 133.11 213.651 133.083 213.631C133.145 213.686 133.207 213.734 133.262 213.79C133.304 213.824 133.338 213.866 133.373 213.907C133.394 213.928 133.573 214.142 133.511 214.059C133.428 213.949 133.587 214.17 133.587 214.163C133.622 214.211 133.649 214.253 133.684 214.301C133.732 214.37 133.774 214.446 133.822 214.522C133.926 214.681 133.843 214.543 133.822 214.502C133.843 214.564 133.94 214.771 133.912 214.84L133.898 214.723C133.898 214.771 133.898 214.813 133.898 214.861V214.93C133.884 215.041 133.891 215.02 133.898 214.875C133.884 214.875 133.877 214.999 133.864 214.999L133.912 214.895C133.891 214.937 133.87 214.972 133.843 215.013C133.926 214.847 133.891 214.923 133.857 214.978L133.94 214.923C133.898 214.951 133.857 214.978 133.808 214.999C133.76 215.027 133.705 215.061 133.656 215.089C133.642 215.089 133.373 215.213 133.553 215.144C133.4 215.207 133.241 215.255 133.083 215.296C132.924 215.338 132.765 215.372 132.606 215.407C132.606 215.407 132.288 215.455 132.46 215.435C132.391 215.442 132.322 215.448 132.253 215.455C131.894 215.483 131.527 215.476 131.168 215.448C130.988 215.435 130.809 215.414 130.629 215.393C130.442 215.372 130.85 215.428 130.539 215.379C130.442 215.366 130.345 215.352 130.249 215.331C129.882 215.269 129.509 215.193 129.143 215.117C128.804 215.048 128.493 214.958 128.168 214.84C127.871 214.73 128.244 214.875 128.071 214.806C127.968 214.757 127.864 214.709 127.76 214.66C127.588 214.578 127.415 214.481 127.242 214.384C126.807 214.135 126.178 214.267 125.936 214.73C125.694 215.186 125.818 215.773 126.281 216.036L126.302 216.029Z" fill="#300000"/>
<path d="M99.4494 180.578C99.4909 181.131 99.5323 181.684 99.5807 182.237C99.6015 182.5 99.6222 182.762 99.6499 183.025C99.6637 183.143 99.6706 183.26 99.6844 183.371C99.6637 183.156 99.712 183.668 99.719 183.73C99.8295 184.829 99.9471 185.928 100.078 187.027C100.341 189.253 100.652 191.464 100.998 193.669C101.675 198.051 102.47 202.392 103.285 206.726C103.749 209.18 104.219 211.633 104.675 214.087C104.827 214.896 104.488 215.863 103.894 216.057C103.306 216.25 102.684 215.808 102.518 214.937C100.887 206.166 99.0969 197.436 97.9979 188.485C97.8389 187.172 97.6869 185.859 97.5625 184.546C97.4311 183.225 97.3205 181.905 97.2238 180.585C97.1616 179.749 97.7767 178.947 98.3366 178.982C98.9932 179.023 99.3872 179.687 99.4563 180.585L99.4494 180.578Z" fill="#300000"/>
<path d="M103.659 215.207C103.41 215.352 103.14 215.49 102.871 215.607C102.601 215.732 102.318 215.836 102.034 215.932C100.998 216.153 99.6291 216.471 98.385 216.423C98.0739 216.409 97.7698 216.375 97.4795 216.312C97.2653 216.271 97.0372 216.209 96.8022 216.133C96.5741 216.057 96.346 215.953 96.1455 215.829C95.4889 215.49 95.4889 214.723 95.7585 214.121C96.1386 213.465 96.5741 212.919 97.2307 212.601C97.4035 212.511 97.5832 212.435 97.7629 212.38C99.3941 211.834 101.302 212.38 102.56 213.707C102.67 213.817 102.781 213.928 102.885 214.045C103.009 214.349 103.341 214.515 103.465 214.826C103.541 214.951 103.603 215.075 103.666 215.207H103.659Z" fill="#300000"/>
<path d="M104.136 216.029C103.424 216.437 102.663 216.769 101.869 216.942C101.067 217.114 100.265 217.266 99.4494 217.342C98.6062 217.425 97.756 217.384 96.9335 217.17C96.1663 216.976 95.2608 216.61 94.8668 215.87C94.0927 214.412 95.2746 212.663 96.5188 211.903C97.7906 211.129 99.4632 211.032 100.853 211.523C101.668 211.813 102.408 212.255 103.037 212.85C103.168 212.974 103.292 213.105 103.417 213.23C103.514 213.334 103.617 213.444 103.693 213.562C103.714 213.61 103.735 213.651 103.762 213.693C103.686 213.603 103.686 213.596 103.756 213.672C104.067 213.976 104.288 214.322 104.474 214.716C104.689 215.165 104.613 215.767 104.129 216.022C103.707 216.243 103.05 216.16 102.822 215.677C102.76 215.545 102.691 215.421 102.622 215.296C102.594 215.255 102.463 215.068 102.608 215.241C102.574 215.2 102.539 215.165 102.504 215.131C102.38 214.999 102.263 214.868 102.152 214.716C102.152 214.716 102.034 214.509 102.097 214.619C102.145 214.668 102.131 214.654 102.062 214.578C102.021 214.529 101.979 214.488 101.931 214.439C101.827 214.336 101.73 214.232 101.62 214.135C101.578 214.094 101.537 214.059 101.495 214.025C101.495 214.025 101.288 213.859 101.392 213.942C101.502 214.025 101.281 213.859 101.288 213.866C101.233 213.824 101.17 213.79 101.115 213.748C100.984 213.665 100.853 213.589 100.721 213.52C100.645 213.486 100.569 213.451 100.5 213.41C100.535 213.423 100.673 213.472 100.5 213.41C100.376 213.361 100.244 213.313 100.113 213.278C99.9816 213.237 99.8503 213.209 99.719 213.181C99.6637 213.168 99.6153 213.161 99.56 213.154C99.4494 213.14 99.4563 213.133 99.5738 213.154C99.5185 213.154 99.4701 213.14 99.4149 213.14C99.1729 213.119 98.931 213.119 98.696 213.14C98.6545 213.14 98.3988 213.195 98.6338 213.14C98.5785 213.154 98.5301 213.161 98.4748 213.168C98.3159 213.202 98.1638 213.244 98.0117 213.292C98.0325 213.285 97.7422 213.396 97.8597 213.347C97.9703 213.299 97.6869 213.43 97.7076 213.423C97.5832 213.486 97.4657 213.555 97.3551 213.631C97.203 213.728 97.3275 213.651 97.3551 213.631C97.2929 213.686 97.2307 213.734 97.1754 213.79C97.1339 213.824 97.0994 213.866 97.0648 213.907C97.0441 213.928 96.8644 214.142 96.9266 214.059C97.0095 213.949 96.8505 214.17 96.8505 214.163C96.816 214.211 96.7883 214.253 96.7538 214.301C96.7054 214.37 96.6639 214.446 96.6155 214.522C96.5119 214.681 96.5948 214.543 96.6155 214.502C96.5948 214.564 96.498 214.771 96.5257 214.84L96.5395 214.723C96.5395 214.771 96.5395 214.813 96.5395 214.861V214.93C96.5533 215.041 96.5464 215.02 96.5395 214.875C96.5533 214.875 96.5602 214.999 96.5741 214.999L96.5257 214.896C96.5464 214.937 96.5672 214.972 96.5948 215.013C96.5119 214.847 96.5464 214.923 96.581 214.979L96.498 214.923C96.5395 214.951 96.581 214.979 96.6294 214.999C96.6778 215.027 96.733 215.061 96.7814 215.089C96.7952 215.089 97.0648 215.214 96.8851 215.144C97.0372 215.207 97.1961 215.255 97.3551 215.296C97.5141 215.338 97.6731 215.373 97.832 215.407C97.832 215.407 98.15 215.455 97.9772 215.435C98.0463 215.442 98.1154 215.449 98.1845 215.455C98.544 215.483 98.9103 215.476 99.2697 215.449C99.4494 215.435 99.6291 215.414 99.8088 215.393C99.9954 215.373 99.5876 215.428 99.8987 215.379C99.9954 215.366 100.092 215.352 100.189 215.331C100.555 215.269 100.929 215.193 101.295 215.117C101.634 215.048 101.945 214.958 102.269 214.84C102.567 214.73 102.193 214.875 102.366 214.806C102.47 214.757 102.574 214.709 102.677 214.661C102.85 214.578 103.023 214.481 103.196 214.384C103.631 214.135 104.26 214.267 104.502 214.73C104.744 215.186 104.619 215.773 104.156 216.036L104.136 216.029Z" fill="#300000"/>
<path d="M175.853 155.004C177.277 153.905 178.618 152.758 179.862 151.486L179.807 151.535C181.479 149.744 183.062 147.837 184.154 145.659L184.141 145.763C186.09 142.065 186.995 137.884 186.732 133.688C186.712 133.156 186.67 132.624 186.622 132.091C186.594 131.808 186.567 131.525 186.525 131.248C186.511 131.117 186.491 130.986 186.47 130.847C186.456 130.709 186.47 130.889 186.477 130.903C186.463 130.806 186.449 130.702 186.428 130.605C186.332 129.997 186.573 129.306 187.244 129.147C187.804 129.016 188.599 129.313 188.702 129.963C189.02 132.015 189.145 134.082 189.082 136.142C189.048 144.402 183.85 151.694 177.388 156.435C176.821 156.788 176.019 156.953 175.577 156.276C175.314 155.827 175.432 155.267 175.839 155.004H175.853Z" fill="#300000"/>
<path d="M186.808 129.271C187.119 129.209 187.41 129.112 187.679 128.981C187.949 128.85 188.205 128.691 188.433 128.511C189.677 127.412 190.582 125.788 190.223 123.998C190.167 123.721 190.085 123.458 189.988 123.203C189.456 121.523 187.617 120.542 186.027 121.032C183.532 121.834 183.428 125.138 184.749 127.198C184.949 127.55 185.191 127.875 185.454 128.165C185.702 128.442 185.986 128.684 186.304 128.898C186.456 129.009 186.622 129.126 186.815 129.271H186.808Z" fill="#300000"/>
<path d="M186.525 128.248C186.753 128.2 186.974 128.138 187.189 128.048C187.009 128.124 187.334 127.965 187.334 127.972C187.43 127.917 187.527 127.861 187.617 127.799C187.645 127.785 187.914 127.557 187.728 127.723C187.79 127.668 187.852 127.606 187.914 127.55C188.039 127.433 188.156 127.308 188.267 127.177C188.322 127.115 188.377 127.046 188.433 126.984C188.46 126.949 188.626 126.721 188.474 126.935C188.571 126.797 188.668 126.652 188.751 126.507C188.82 126.382 188.889 126.258 188.951 126.126C188.986 126.05 189.02 125.974 189.055 125.891C188.958 126.133 189.082 125.788 189.096 125.739C189.145 125.574 189.186 125.408 189.214 125.242C189.221 125.186 189.234 125.131 189.241 125.069C189.207 125.318 189.241 125.027 189.241 124.993C189.248 124.813 189.241 124.64 189.228 124.461C189.228 124.426 189.172 124.136 189.221 124.371C189.193 124.24 189.165 124.108 189.131 123.977C189.082 123.811 189.027 123.652 188.965 123.486C188.937 123.403 188.91 123.32 188.875 123.237C188.979 123.486 188.861 123.23 188.841 123.189C188.758 123.037 188.668 122.899 188.564 122.76C188.73 122.982 188.564 122.76 188.523 122.726C188.467 122.664 188.405 122.608 188.343 122.546C188.281 122.491 188.218 122.436 188.149 122.387C187.942 122.214 188.336 122.491 188.101 122.353C187.956 122.27 187.811 122.194 187.665 122.118C187.43 121.993 187.866 122.173 187.61 122.097C187.548 122.076 187.479 122.055 187.417 122.035C187.348 122.014 187.285 122 187.216 121.986C187.161 121.972 187.113 121.966 187.057 121.959C187.189 121.972 187.202 121.972 187.085 121.959C186.919 121.959 186.76 121.959 186.594 121.959C186.331 121.972 186.795 121.896 186.539 121.972C186.47 121.993 186.408 122.007 186.338 122.021C186.269 122.042 186.207 122.062 186.145 122.09C185.889 122.173 186.338 121.972 186.11 122.104C186.007 122.159 185.703 122.277 185.661 122.387L185.765 122.304C185.73 122.339 185.689 122.366 185.654 122.401C185.599 122.449 185.55 122.505 185.502 122.56C185.468 122.595 185.44 122.636 185.405 122.671C185.239 122.857 185.523 122.47 185.398 122.684C185.322 122.809 185.246 122.933 185.184 123.065C185.156 123.127 185.025 123.306 185.17 123.085C185.122 123.161 185.101 123.279 185.08 123.369C185.046 123.486 185.018 123.611 184.998 123.735C184.984 123.811 184.97 123.887 184.963 123.963C185.004 123.687 184.963 123.949 184.963 123.998C184.942 124.316 184.963 124.627 184.998 124.938C184.97 124.668 184.998 124.931 185.004 124.979C185.025 125.083 185.046 125.186 185.074 125.29C185.115 125.47 185.17 125.65 185.233 125.829C185.253 125.878 185.267 125.933 185.288 125.981C185.309 126.03 185.329 126.078 185.35 126.126C185.288 125.988 185.281 125.974 185.336 126.085C185.419 126.251 185.502 126.41 185.599 126.569C185.723 126.783 185.861 126.984 186 127.191C186.014 127.212 186.131 127.35 186.027 127.225C186.124 127.336 186.221 127.447 186.325 127.55C186.739 127.965 187.03 128.124 187.527 128.497C187.977 128.829 187.942 129.631 187.569 129.997C187.113 130.433 186.546 130.391 186.069 130.039C186.02 130.004 185.979 129.969 185.931 129.935C185.779 129.824 186.034 130.011 185.896 129.914C185.792 129.838 185.682 129.762 185.578 129.686C185.329 129.506 185.087 129.313 184.866 129.099C184.465 128.698 184.12 128.235 183.829 127.744C183.415 127.066 183.104 126.313 182.959 125.525C182.675 123.928 182.903 122.055 184.175 120.908C185.557 119.664 187.631 119.505 189.186 120.549C190.852 121.668 191.591 123.763 191.273 125.712C190.928 127.813 189.186 129.838 187.092 130.294C186.553 130.412 185.917 130.142 185.785 129.562C185.661 129.029 185.938 128.38 186.518 128.255L186.525 128.248Z" fill="#300000"/>
<path d="M183.657 127.467C183.546 127.336 183.442 127.198 183.318 127.073C183.283 127.039 183.249 127.004 183.207 126.97L183.276 127.025C183.339 127.025 183.657 127.087 183.67 127.032C183.636 127.032 183.601 127.046 183.574 127.06C183.518 127.08 183.532 127.073 183.608 127.039C183.684 127.004 183.698 126.997 183.643 127.025C183.608 127.039 183.581 127.06 183.553 127.08C183.394 127.163 183.622 127.053 183.608 127.032L183.56 127.08C183.498 127.149 183.498 127.149 183.553 127.08C183.594 127.011 183.608 127.004 183.574 127.053C183.553 127.08 183.539 127.108 183.525 127.142C183.574 127.142 183.594 126.894 183.594 126.859C183.594 127.046 183.594 126.672 183.594 126.804C183.594 126.873 183.532 126.7 183.594 126.804C183.643 126.866 183.677 126.942 183.719 127.011C183.767 127.094 183.781 127.108 183.719 127.025C183.823 127.149 183.94 127.26 184.058 127.364C184.12 127.419 184.154 127.447 184.064 127.377C184.127 127.426 184.203 127.467 184.272 127.509C184.396 127.585 184.528 127.654 184.659 127.716C184.721 127.744 184.776 127.771 184.839 127.799C184.673 127.723 184.873 127.813 184.908 127.82C185.046 127.868 185.191 127.903 185.329 127.944C185.972 128.131 186.622 128.276 187.285 128.359C187.113 129.043 186.947 129.734 186.774 130.419C185.896 130.308 185.053 129.769 184.528 129.064C184.286 128.739 184.037 128.407 183.823 128.062C183.733 127.917 183.643 127.778 183.567 127.626C183.415 127.329 183.359 127.046 183.325 126.721C183.27 126.168 183.829 125.629 184.369 125.643C184.984 125.663 185.385 126.099 185.447 126.686C185.474 126.949 185.392 126.52 185.385 126.527C185.385 126.527 185.474 126.686 185.481 126.7C185.557 126.831 185.64 126.963 185.723 127.094C185.896 127.357 186.083 127.619 186.283 127.868C186.214 127.778 186.269 127.847 186.311 127.889C186.359 127.937 186.414 127.979 186.463 128.027C186.518 128.083 186.567 128.117 186.477 128.048C186.525 128.083 186.58 128.117 186.636 128.152C186.691 128.186 186.746 128.214 186.802 128.241C187.03 128.366 186.719 128.241 186.857 128.269C187.002 128.297 187.14 128.338 187.292 128.359C187.845 128.428 188.212 129.14 188.066 129.645C187.887 130.253 187.375 130.495 186.781 130.419C185.917 130.315 185.032 130.115 184.216 129.81C183.27 129.458 182.385 128.905 181.853 128.013C181.576 127.557 181.396 127.053 181.521 126.52C181.631 126.023 181.956 125.65 182.35 125.345C182.737 125.055 183.304 124.862 183.781 124.965C184.369 125.097 184.749 125.484 185.122 125.919C185.481 126.341 185.606 126.99 185.163 127.419C184.783 127.785 184.051 127.91 183.664 127.46L183.657 127.467Z" fill="#300000"/>
<path d="M27.8495 151.59C27.7527 151.549 27.725 151.424 27.7872 151.307C28.0983 150.712 29.059 148.922 30.3861 146.994C32.5633 143.821 34.6231 141.803 36.5031 141.008C37.768 140.469 38.943 140.503 39.9936 141.105C41.528 141.989 42.4335 143.282 42.6823 144.955C43.2145 148.535 40.6917 153.339 38.1205 157.603C38.0583 157.714 37.9339 157.755 37.844 157.7C37.7542 157.645 37.7403 157.52 37.8025 157.41C40.3323 153.228 42.7998 148.521 42.2953 145.093C42.0602 143.51 41.2377 142.335 39.7655 141.492C38.8117 140.946 37.7403 140.911 36.5791 141.402C32.6463 143.068 28.7826 150.187 28.119 151.466C28.0637 151.576 27.9462 151.625 27.8495 151.59Z" fill="#2B2B2B"/>
<path d="M27.013 190.096C27.1443 190.525 30.2823 193.096 30.2823 193.096L30.0957 196.275L25.5615 194.858L27.013 190.096Z" fill="#FA3174"/>
<path d="M47.7624 159.483L49.8498 158.35L30.1026 196.268L28.6166 193.697L25.5615 194.851L47.7624 159.483Z" fill="#7C1818"/>
<path d="M24.2552 142.211L49.8499 158.35L25.5616 194.851L0.789429 179.459L24.2552 142.211Z" fill="url(#paint0_linear_2321_9224)"/>
<path d="M27.7389 152.039C27.5039 151.963 27.4278 151.625 27.5661 151.279C27.7043 150.933 28.0084 150.712 28.2434 150.788C28.4784 150.864 28.5545 151.203 28.4162 151.549C28.278 151.894 27.9739 152.115 27.7389 152.039Z" fill="#F0F0F0"/>
<path d="M37.5191 158.294C37.3048 158.184 37.2703 157.824 37.45 157.5C37.6297 157.168 37.9476 156.995 38.1688 157.106C38.3831 157.216 38.4176 157.576 38.2379 157.9C38.0582 158.232 37.7403 158.405 37.5191 158.294Z" fill="#F0F0F0"/>
<path d="M27.8495 151.59C27.7527 151.549 27.725 151.424 27.7872 151.307C28.0983 150.712 29.059 148.922 30.3861 146.994C32.5633 143.821 34.6231 141.803 36.5031 141.008C37.768 140.469 38.943 140.503 39.9936 141.105C41.528 141.989 42.4335 143.282 42.6823 144.955C43.2145 148.535 40.6917 153.339 38.1205 157.603C38.0583 157.714 37.9339 157.755 37.844 157.7C37.7542 157.645 37.7403 157.52 37.8025 157.41C40.3323 153.228 42.7998 148.521 42.2953 145.093C42.0602 143.51 41.2377 142.335 39.7655 141.492C38.8117 140.946 37.7403 140.911 36.5791 141.402C32.6463 143.068 28.7826 150.187 28.119 151.466C28.0637 151.576 27.9462 151.625 27.8495 151.59Z" fill="#2B2B2B"/>
<path d="M29.8262 152.35C29.7225 152.323 29.6534 152.212 29.6879 152.108C29.8469 151.548 30.3584 149.841 31.2016 147.975C32.5909 144.906 34.1599 142.888 35.8672 141.976C37.0214 141.36 38.2241 141.271 39.4544 141.699C41.2515 142.328 42.5164 143.392 43.2076 144.858C44.6867 148.003 43.3804 152.565 41.8736 156.649C41.839 156.753 41.7215 156.801 41.6178 156.767C41.5142 156.732 41.4658 156.615 41.5003 156.511C42.9795 152.502 44.2651 148.037 42.8481 145.024C42.1984 143.634 41.0441 142.667 39.3231 142.065C38.2034 141.678 37.1044 141.761 36.0538 142.321C32.4803 144.222 30.4137 151.002 30.0681 152.212C30.0405 152.316 29.9299 152.378 29.8262 152.35Z" fill="#F7B978"/>
<path d="M39.0811 186.875C39.3299 187.241 43.2075 189.211 43.2075 189.211L43.8572 192.073L38.8599 191.285L39.088 186.875H39.0811Z" fill="#8B3BF2"/>
<path d="M52.2068 157.313L54.0385 156.083L43.8504 192.073L41.6662 189.923L38.8531 191.285L52.2068 157.313Z" fill="#3B1675"/>
<path d="M23.7023 144.333L54.0384 156.083L38.8531 191.285L9.54675 180.115L23.7023 144.333Z" fill="#8B3BF2"/>
<path d="M29.8331 152.758C29.5773 152.717 29.4046 152.419 29.4599 152.101C29.5082 151.777 29.764 151.549 30.0197 151.59C30.2755 151.631 30.4482 151.929 30.3929 152.247C30.3446 152.571 30.0888 152.8 29.8331 152.758Z" fill="#F7B978"/>
<path d="M41.445 157.327C41.1962 157.251 41.0718 156.933 41.1685 156.622C41.2653 156.311 41.5487 156.117 41.7975 156.193C42.0463 156.269 42.1708 156.587 42.074 156.898C41.9772 157.209 41.6938 157.403 41.445 157.327Z" fill="#F7B978"/>
<path d="M29.8262 152.35C29.7225 152.323 29.6534 152.212 29.6879 152.108C29.8469 151.548 30.3584 149.841 31.2016 147.975C32.5909 144.906 34.1599 142.888 35.8672 141.976C37.0214 141.36 38.2241 141.271 39.4544 141.699C41.2515 142.328 42.5164 143.392 43.2076 144.858C44.6867 148.003 43.3804 152.565 41.8736 156.649C41.839 156.753 41.7215 156.801 41.6178 156.767C41.5142 156.732 41.4658 156.615 41.5003 156.511C42.9795 152.502 44.2651 148.037 42.8481 145.024C42.1984 143.634 41.0441 142.667 39.3231 142.065C38.2034 141.678 37.1044 141.761 36.0538 142.321C32.4803 144.222 30.4137 151.002 30.0681 152.212C30.0405 152.316 29.9299 152.378 29.8262 152.35Z" fill="#F7B978"/>
<path d="M183.318 143.448C183.194 143.475 183.076 143.365 183.055 143.213C182.945 142.397 182.634 139.909 182.592 137.033C182.516 132.299 183.145 128.808 184.472 126.666C185.364 125.221 186.567 124.419 188.046 124.281C190.216 124.074 192.048 124.73 193.485 126.23C196.568 129.444 197.46 136.066 197.909 142.176C197.923 142.328 197.826 142.459 197.702 142.473C197.577 142.48 197.467 142.369 197.46 142.21C197.017 136.211 196.146 129.728 193.195 126.645C191.833 125.221 190.168 124.633 188.094 124.827C186.746 124.958 185.647 125.691 184.839 127.004C182.081 131.476 183.27 141.374 183.511 143.13C183.532 143.282 183.449 143.42 183.332 143.441L183.318 143.448Z" fill="#2B2B2B"/>
<path d="M209.894 182.7C210.33 183.032 215.313 183.377 215.313 183.377L217.393 186.702L211.829 188.513L209.894 182.7Z" fill="#42CE49"/>
<path d="M208.926 137.192L210.212 134.573L217.387 186.702L214.069 185.175L211.823 188.513L208.926 137.192Z" fill="#156817"/>
<path d="M173.026 136.591L210.212 134.573L211.823 188.513L175.991 190.697L173.026 136.591Z" fill="#42CE49"/>
<path d="M183.525 143.98C183.235 144.076 182.917 143.786 182.813 143.344C182.71 142.901 182.855 142.459 183.145 142.369C183.436 142.273 183.753 142.563 183.857 143.005C183.961 143.448 183.816 143.89 183.525 143.98Z" fill="#F0F0F0"/>
<path d="M197.798 143.296C197.501 143.337 197.218 142.998 197.162 142.542C197.107 142.086 197.308 141.678 197.598 141.637C197.895 141.595 198.178 141.934 198.234 142.39C198.289 142.846 198.089 143.254 197.791 143.296H197.798Z" fill="#F0F0F0"/>
<path d="M183.318 143.448C183.194 143.475 183.076 143.365 183.055 143.213C182.945 142.397 182.634 139.909 182.592 137.033C182.516 132.299 183.145 128.808 184.472 126.666C185.364 125.221 186.567 124.419 188.046 124.281C190.216 124.074 192.048 124.73 193.485 126.23C196.568 129.444 197.46 136.066 197.909 142.176C197.923 142.328 197.826 142.459 197.702 142.473C197.577 142.48 197.467 142.369 197.46 142.21C197.017 136.211 196.146 129.728 193.195 126.645C191.833 125.221 190.168 124.633 188.094 124.827C186.746 124.958 185.647 125.691 184.839 127.004C182.081 131.476 183.27 141.374 183.511 143.13C183.532 143.282 183.449 143.42 183.332 143.441L183.318 143.448Z" fill="#2B2B2B"/>
<path d="M185.841 142.805C185.716 142.853 185.571 142.791 185.523 142.66C185.281 141.982 184.583 139.902 184.099 137.434C183.304 133.37 183.442 130.225 184.514 128.089C185.233 126.652 186.38 125.698 187.914 125.256C190.168 124.606 192.193 124.772 193.928 125.753C197.653 127.854 199.595 133.363 200.992 138.54C201.026 138.671 200.95 138.803 200.819 138.837C200.688 138.872 200.556 138.796 200.522 138.665C199.153 133.591 197.259 128.193 193.693 126.175C192.048 125.249 190.202 125.097 188.053 125.719C186.65 126.126 185.606 126.99 184.949 128.304C182.717 132.755 185.468 141.035 185.979 142.494C186.021 142.618 185.958 142.756 185.834 142.805H185.841Z" fill="#F7B978"/>
<path d="M219.716 170.874C220.227 171.067 225.522 170.286 225.522 170.286L228.211 172.699L222.626 175.463L219.716 170.874Z" fill="#3896F4"/>
<path d="M211.836 131.856L212.804 129.313L228.204 172.699L224.478 172.097L222.626 175.463L211.836 131.856Z" fill="#0F4A7A"/>
<path d="M173.98 139.121L212.804 129.313L222.626 175.463L185.253 185.126L173.98 139.121Z" fill="#3896F4"/>
<path d="M186.138 143.213C185.848 143.358 185.468 143.178 185.295 142.819C185.115 142.459 185.205 142.051 185.495 141.906C185.786 141.761 186.166 141.941 186.339 142.3C186.518 142.66 186.428 143.067 186.138 143.213Z" fill="#F7B978"/>
<path d="M201.054 139.529C200.75 139.632 200.397 139.404 200.273 139.017C200.148 138.637 200.294 138.243 200.598 138.139C200.902 138.036 201.254 138.264 201.379 138.651C201.503 139.031 201.358 139.425 201.054 139.529Z" fill="#F7B978"/>
<path d="M185.841 142.805C185.716 142.853 185.571 142.791 185.523 142.66C185.281 141.982 184.583 139.902 184.099 137.434C183.304 133.37 183.442 130.225 184.514 128.089C185.233 126.652 186.38 125.698 187.914 125.256C190.168 124.606 192.193 124.772 193.928 125.753C197.653 127.854 199.595 133.363 200.992 138.54C201.026 138.671 200.95 138.803 200.819 138.837C200.688 138.872 200.556 138.796 200.522 138.665C199.153 133.591 197.259 128.193 193.693 126.175C192.048 125.249 190.202 125.097 188.053 125.719C186.65 126.126 185.606 126.99 184.949 128.304C182.717 132.755 185.468 141.035 185.979 142.494C186.021 142.618 185.958 142.756 185.834 142.805H185.841Z" fill="#F7B978"/>
<path d="M187.396 24.5427C189.967 25.849 191.737 27.8534 192.946 30.3624C194.156 27.8534 195.932 25.8352 198.503 24.5288C195.932 23.2225 194.156 21.2181 192.946 18.709C191.737 21.2181 189.967 23.2363 187.396 24.5427Z" fill="#FFE6A6"/>
<path d="M212.258 72.2898C213.751 73.0501 214.781 74.2113 215.486 75.6697C216.191 74.2113 217.221 73.0363 218.714 72.2829C217.221 71.5226 216.191 70.3614 215.486 68.903C214.781 70.3614 213.758 71.5364 212.258 72.2898Z" fill="#FFE6A6"/>
<path d="M110.253 4.99583C112.084 5.92893 113.342 7.35277 114.206 9.14295C115.07 7.35277 116.335 5.9151 118.167 4.98891C116.335 4.05581 115.07 2.63197 114.206 0.841797C113.342 2.63197 112.084 4.06964 110.253 4.99583Z" fill="#FFE6A6"/>
<path d="M17.2106 52.3522C18.6897 53.1056 19.7058 54.253 20.3969 55.6976C21.0881 54.253 22.1111 53.0987 23.5902 52.3453C22.1111 51.5919 21.095 50.4446 20.3969 49C19.7058 50.4446 18.6897 51.5989 17.2106 52.3522Z" fill="#FFE6A6"/>
<path d="M103.666 11.8939C104.73 12.433 105.463 13.2624 105.96 14.3061C106.458 13.2693 107.198 12.433 108.262 11.8939C107.198 11.3547 106.465 10.5253 105.96 9.48163C105.463 10.5184 104.73 11.3547 103.666 11.8939Z" fill="#FFE6A6"/>
<path d="M163.571 77.3771L112.651 39.8111C110.992 38.5877 108.939 37.9933 106.887 38.1454C104.834 38.2974 102.892 39.1821 101.426 40.6406L56.5751 85.2705C54.7849 87.0537 53.8656 89.5144 54.0523 92.0303L60.2384 175.885C60.5909 180.64 64.738 184.221 69.4934 183.868L165.264 176.804C170.02 176.452 173.6 172.305 173.247 167.549L167.061 83.6946C166.875 81.1786 165.603 78.877 163.571 77.3771Z" fill="url(#paint1_linear_2321_9224)"/>
<path opacity="0.8" d="M83.9503 76.6599C92.5336 67.8827 98.3921 59.692 97.0357 58.3656C95.6793 57.0391 87.6215 63.0791 79.0382 71.8564C70.4549 80.6336 64.5964 88.8242 65.9529 90.1507C67.3093 91.4771 75.367 85.4371 83.9503 76.6599Z" fill="white"/>
<path d="M107.571 56.2751C103.486 56.5171 99.9608 53.3998 99.7119 49.308C99.47 45.2231 102.594 41.698 106.679 41.4561C110.764 41.2142 114.289 44.3314 114.538 48.4233C114.78 52.5082 111.656 56.0332 107.571 56.2751ZM106.886 44.8637C104.682 44.995 102.995 46.8958 103.126 49.1075C103.258 51.3124 105.165 52.9989 107.37 52.8676C109.575 52.7363 111.262 50.8286 111.13 48.6237C110.999 46.4188 109.091 44.7323 106.886 44.8637Z" fill="white"/>
<path d="M107.598 56.6623C103.299 56.918 99.5876 53.628 99.3319 49.3357C99.0761 45.0365 102.366 41.3317 106.665 41.0691C110.965 40.8134 114.676 44.0965 114.932 48.3957C115.188 52.6949 111.898 56.3996 107.598 56.6623ZM106.707 41.8432C102.836 42.0782 99.871 45.4167 100.106 49.2873C100.341 53.1579 103.679 56.1231 107.55 55.8881C111.421 55.6531 114.386 52.3147 114.151 48.4441C113.916 44.5665 110.578 41.6082 106.707 41.8432Z" fill="white"/>
<path d="M107.391 53.1925C105.02 53.3376 102.974 51.5198 102.836 49.1559C102.691 46.7852 104.509 44.7393 106.88 44.601C109.25 44.4559 111.296 46.2737 111.435 48.6445C111.58 51.0152 109.762 53.0611 107.391 53.1994V53.1925ZM106.9 45.0226C104.765 45.154 103.133 46.9925 103.265 49.1283C103.396 51.2641 105.235 52.8952 107.37 52.7639C109.506 52.6326 111.137 50.7941 111.013 48.6583C110.882 46.5225 109.043 44.8913 106.907 45.0157L106.9 45.0226Z" fill="white"/>
<path d="M104.025 47.6008C103.845 44.6494 102.739 41.2626 101.668 37.9864C100.051 33.0513 98.6614 28.7867 100.265 25.856C102.145 22.4139 108.746 22.0269 111.027 25.2132C112.969 27.9227 112.091 32.3256 111.082 37.4196C110.405 40.7995 109.714 44.2969 109.886 47.2483" stroke="#191919" stroke-width="3" stroke-miterlimit="10" stroke-linecap="round"/>
<path d="M79.8197 137.614C79.4879 134.075 81.7619 130.64 85.1073 129.61C87.6854 128.829 90.2912 129.624 92.185 131.559C94.0166 133.571 94.7839 136.328 94.0996 138.976C93.3669 141.899 91.086 144.243 88.1623 144.699C85.0451 145.169 81.914 143.448 80.5731 140.552C80.1515 139.66 79.8819 138.672 79.8128 137.614H79.8197Z" fill="#300000"/>
<path d="M83.3793 136.425C83.3033 135.299 84.029 134.338 84.9829 133.882C86.6417 133.183 88.5079 134.58 88.3559 136.356C88.2798 137.282 87.7476 138.098 86.9182 138.485C86.0266 138.934 84.9068 138.81 84.1949 138.139C83.7249 137.718 83.4139 137.116 83.3793 136.425Z" fill="white"/>
<path d="M132.073 134.317C131.783 130.958 133.801 127.613 136.877 126.458C140.596 125.124 144.736 127.26 146.098 131.082C147.134 133.965 146.554 137.22 144.459 139.411C142.483 141.388 139.642 142.114 137.091 141.181C134.942 140.358 133.186 138.616 132.467 136.349C132.26 135.706 132.122 135.029 132.073 134.317Z" fill="#300000"/>
<path d="M135.509 133.197C135.412 132.195 136.068 131.234 136.898 130.785C138.038 130.191 139.448 130.688 140.105 131.697C140.762 132.769 140.527 134.227 139.462 135.022C138.522 135.672 137.147 135.762 136.338 134.898C135.861 134.483 135.55 133.881 135.509 133.197Z" fill="white"/>
<path d="M94.1963 148.694C92.7863 146.219 89.5239 145.549 86.9389 146.033C86.9251 146.033 86.9112 146.04 86.8974 146.047C86.8836 146.047 86.8698 146.047 86.8559 146.047C84.658 146.51 81.8172 147.927 81.3195 150.366C80.808 152.862 83.4415 154.451 85.5427 154.845C87.7337 155.26 90.0769 154.797 92.0122 153.712C93.7885 152.71 95.3714 150.754 94.1963 148.694Z" fill="#F46E6E"/>
<path d="M140.679 142.632C140.679 142.632 140.651 142.632 140.637 142.632C140.623 142.632 140.61 142.632 140.596 142.632C138.128 142.494 135.55 143.344 134.126 145.473C133.553 146.33 133.283 147.394 133.677 148.383C134.057 149.343 134.887 150.042 135.771 150.525C137.7 151.576 140.098 151.873 142.234 151.424C144.259 150.995 146.968 149.496 146.886 147.097C146.789 144.187 143.091 142.833 140.686 142.639L140.679 142.632Z" fill="#F46E6E"/>
<path d="M121.643 141.042C121.194 139.922 119.611 139.764 118.941 140.786C118.609 141.284 118.664 142.058 118.519 142.632C118.277 143.593 117.856 144.533 117.227 145.314C115.913 146.945 113.75 147.436 111.911 146.351C110.978 145.798 110.232 144.947 109.7 144.007C109.313 143.323 109.23 142.273 108.608 141.768C107.363 140.752 105.877 141.968 106.14 143.392V143.406C106.14 143.406 106.147 143.441 106.154 143.454C107.059 146.586 109.693 149.475 113.031 149.965C116.321 150.449 119.286 148.327 120.731 145.493C121.319 144.346 122.162 142.342 121.643 141.049V141.042Z" fill="#300000"/>
<defs>
<linearGradient id="paint0_linear_2321_9224" x1="10.3202" y1="160.915" x2="40.4502" y2="176.473" gradientUnits="userSpaceOnUse">
<stop offset="0.09" stop-color="#F44100"/>
<stop offset="0.1" stop-color="#F33F00"/>
<stop offset="0.29" stop-color="#EC250E"/>
<stop offset="0.48" stop-color="#E71319"/>
<stop offset="0.68" stop-color="#E4081F"/>
<stop offset="0.91" stop-color="#E30521"/>
</linearGradient>
<linearGradient id="paint1_linear_2321_9224" x1="53.356" y1="109.736" x2="175.236" y2="114.163" gradientUnits="userSpaceOnUse">
<stop offset="0.09" stop-color="#F44100"/>
<stop offset="0.1" stop-color="#F33F00"/>
<stop offset="0.29" stop-color="#EC250E"/>
<stop offset="0.48" stop-color="#E71319"/>
<stop offset="0.68" stop-color="#E4081F"/>
<stop offset="0.91" stop-color="#E30521"/>
</linearGradient>
</defs>
</svg>
