<svg width="260" height="246" viewBox="0 0 260 246" fill="none" xmlns="http://www.w3.org/2000/svg">
<path d="M133.245 198.651C133.42 197.963 133.845 197.563 134.576 197.482C136.976 197.2 139.263 196.38 141.444 195.373C143.275 194.529 145.213 193.59 145.932 191.557C146.744 189.268 145.875 186.828 144.394 185.02L146.825 184.607C147.138 185.189 147.456 185.79 147.756 186.403C148.912 188.736 148.606 191.595 147.181 193.778C145.419 196.474 142.251 197.363 139.426 198.52C138.501 198.895 137.526 199.146 136.514 199.465C136.664 199.684 136.776 199.834 136.882 199.996C137.407 200.81 137.72 201.667 137.557 202.674C137.382 203.756 136.476 204.857 135.57 204.976C134.626 205.101 133.639 204.413 133.164 203.293C132.501 201.735 132.845 200.19 133.239 198.645L133.245 198.651Z" fill="#300000"/>
<path d="M137.438 204.745C138.113 203.575 138.163 202.061 137.682 200.816C137.401 200.084 136.988 199.421 136.432 198.864C136.32 198.752 136.201 198.639 136.076 198.533C135.982 198.445 135.882 198.358 135.77 198.289C135.732 198.276 135.701 198.257 135.67 198.239C135.389 197.963 135.07 197.769 134.714 197.607C134.682 197.594 134.657 197.582 134.626 197.576C134.432 197.5 134.226 197.494 134.039 197.551C133.832 197.607 133.651 197.732 133.545 197.951C133.195 198.601 132.908 199.296 132.77 200.022C132.633 200.747 132.514 201.479 132.464 202.217C132.408 202.981 132.464 203.75 132.676 204.488C132.87 205.183 133.214 205.99 133.895 206.327C135.232 206.997 136.788 205.883 137.445 204.745H137.438Z" fill="#300000"/>
<path d="M124.633 198.508C124.408 197.839 123.952 197.469 123.221 197.438C120.034 197.307 117.078 196.243 114.184 195.03C113.097 194.573 112.203 193.829 111.647 192.746C110.384 190.282 111.122 187.717 112.516 185.74L110.059 185.508C109.791 186.109 109.516 186.735 109.26 187.366C108.372 189.55 108.703 192.114 109.909 194.11C111.678 197.038 115.447 197.851 118.465 198.833C119.415 199.14 120.409 199.315 121.44 199.559C121.309 199.784 121.209 199.947 121.115 200.116C120.652 200.966 120.402 201.842 120.64 202.831C120.896 203.9 121.883 204.926 122.79 204.983C123.74 205.039 124.677 204.276 125.064 203.131C125.608 201.523 125.152 200.009 124.646 198.502L124.633 198.508Z" fill="#300000"/>
<path d="M120.471 204.745C119.796 203.575 119.746 202.061 120.227 200.816C120.509 200.084 120.921 199.421 121.477 198.864C121.59 198.752 121.709 198.639 121.834 198.533C121.927 198.445 122.027 198.358 122.14 198.289C122.177 198.276 122.208 198.258 122.24 198.239C122.521 197.964 122.84 197.77 123.196 197.607C123.227 197.594 123.252 197.582 123.283 197.576C123.477 197.501 123.683 197.494 123.871 197.551C124.077 197.607 124.258 197.732 124.365 197.951C124.715 198.602 125.002 199.296 125.139 200.022C125.277 200.747 125.396 201.479 125.446 202.217C125.502 202.981 125.446 203.75 125.233 204.488C125.04 205.183 124.696 205.99 124.015 206.327C122.677 206.997 121.121 205.883 120.465 204.745H120.471Z" fill="#300000"/>
<path d="M192.777 159.572C191.984 158.953 191.334 158.171 190.915 157.245C190.496 156.319 190.321 155.28 190.49 154.273C190.652 153.297 191.134 152.321 191.852 151.646C192.459 151.077 193.583 150.426 193.933 151.608C194.027 151.94 193.971 152.296 193.833 152.616C193.483 153.441 192.915 154.011 192.865 154.961C192.827 155.775 193.14 156.569 193.746 157.113C194.102 157.432 194.458 157.676 194.821 157.845C195.177 158.014 195.533 158.096 195.877 158.083C197.033 158.039 197.964 156.663 198.233 155.668C198.621 154.229 197.958 153.229 196.871 152.353C196.258 151.859 196.039 151.195 196.508 150.52C196.571 150.426 196.646 150.351 196.727 150.282C197.133 149.957 197.733 149.988 198.339 150.363C198.696 150.582 199.021 150.82 199.302 151.083C200.677 152.34 201.158 154.311 200.989 156.131C201.914 155.118 202.783 154.104 203.62 153.016C204.058 152.447 204.97 151.546 205.751 152.103C206.401 152.565 206.114 153.548 205.82 154.136C205.095 155.587 203.876 156.669 202.739 157.795C202.626 157.908 202.52 158.02 202.408 158.127C202.301 158.239 202.189 158.352 202.083 158.465C202.214 158.446 202.339 158.427 202.464 158.402C202.589 158.377 202.714 158.352 202.839 158.321C203.783 158.102 204.608 157.795 205.507 157.414C206.157 157.138 206.932 156.744 207.664 156.838C208.351 156.932 208.682 157.764 208.345 158.346C207.945 159.034 206.876 159.497 206.176 159.778C204.701 160.379 203.164 160.861 201.589 161.117C199.595 161.442 197.458 161.486 195.496 160.942C194.521 160.667 193.583 160.21 192.784 159.584L192.777 159.572Z" fill="#300000"/>
<path d="M180.866 156.288C181.534 156.788 181.872 157.739 182.322 158.427C182.978 159.428 183.772 160.498 184.884 161.011C185.978 161.517 187.234 161.461 188.346 161.036C189.734 160.504 191.077 159.872 192.552 159.234C193.533 159.853 194.596 160.279 195.758 160.567C195.396 160.598 195.027 160.642 194.665 160.717C193.677 160.917 192.821 161.449 191.921 161.868C190.902 162.343 189.865 162.775 188.803 163.15C187.134 163.732 185.34 163.707 183.766 162.869C182.209 162.043 180.872 160.548 180.022 159.021C179.897 158.796 179.778 158.558 179.672 158.321C179.497 157.933 179.353 157.514 179.385 157.088C179.441 156.432 179.991 155.925 180.647 156.163C180.722 156.188 180.797 156.231 180.86 156.281L180.866 156.288Z" fill="#300000"/>
<path d="M67.9942 159.572C68.7879 158.953 69.4378 158.171 69.8565 157.245C70.2752 156.319 70.4502 155.281 70.2815 154.273C70.119 153.298 69.6378 152.322 68.9191 151.646C68.3129 151.077 67.188 150.426 66.838 151.608C66.7443 151.94 66.8005 152.297 66.938 152.616C67.288 153.441 67.8567 154.011 67.9067 154.962C67.9442 155.775 67.6317 156.569 67.0255 157.114C66.6693 157.433 66.3131 157.677 65.9506 157.845C65.5944 158.014 65.2382 158.096 64.8944 158.083C63.7383 158.039 62.8071 156.663 62.5384 155.668C62.1509 154.23 62.8133 153.229 63.9008 152.353C64.5132 151.859 64.7319 151.196 64.2632 150.52C64.2007 150.426 64.1257 150.351 64.0445 150.282C63.6383 149.957 63.0383 149.988 62.4321 150.364C62.0759 150.583 61.7509 150.82 61.4697 151.083C60.0948 152.34 59.6136 154.311 59.7824 156.131C58.8574 155.118 57.9888 154.105 57.1513 153.016C56.7139 152.447 55.8014 151.546 55.0203 152.103C54.3703 152.566 54.6578 153.548 54.9515 154.136C55.6765 155.587 56.8951 156.669 58.0325 157.795C58.145 157.908 58.2512 158.021 58.3637 158.127C58.47 158.24 58.5825 158.352 58.6887 158.465C58.5575 158.446 58.4325 158.427 58.3075 158.402C58.1825 158.377 58.0575 158.352 57.9325 158.321C56.9888 158.102 56.1639 157.795 55.264 157.414C54.614 157.139 53.8391 156.744 53.1079 156.838C52.4205 156.932 52.0892 157.764 52.4267 158.346C52.8267 159.034 53.8953 159.497 54.5953 159.778C56.0702 160.379 57.6075 160.861 59.1824 161.117C61.176 161.442 63.3133 161.486 65.2757 160.942C66.2506 160.667 67.188 160.21 67.9879 159.585L67.9942 159.572Z" fill="#300000"/>
<path d="M79.9057 156.288C79.237 156.788 78.8995 157.739 78.4496 158.427C77.7934 159.428 76.9997 160.498 75.8873 161.011C74.7936 161.517 73.5375 161.461 72.4251 161.036C71.0377 160.504 69.694 159.872 68.2192 159.234C67.238 159.853 66.1756 160.279 65.0132 160.567C65.3757 160.598 65.7444 160.642 66.1068 160.717C67.0943 160.917 67.9504 161.449 68.8504 161.868C69.869 162.343 70.9064 162.775 71.9689 163.15C73.6375 163.732 75.4311 163.707 77.0059 162.869C78.5621 162.043 79.8994 160.548 80.7494 159.021C80.8744 158.796 80.9931 158.558 81.0993 158.321C81.2743 157.933 81.4181 157.514 81.3868 157.088C81.3306 156.432 80.7806 155.925 80.1244 156.163C80.0494 156.188 79.9744 156.231 79.9119 156.281L79.9057 156.288Z" fill="#300000"/>
<path d="M129.401 73.8242C128.158 73.8242 126.958 73.2611 126.333 72.2414C126.208 72.035 126.271 71.7598 126.483 71.6284C126.689 71.5033 126.964 71.5658 127.095 71.7785C127.889 73.0797 129.839 73.2236 131.051 72.4854C132.27 71.741 133.07 70.2396 133.195 68.463C133.307 66.8427 132.889 65.21 132.414 63.5397C132.414 63.5272 132.414 63.5209 132.407 63.5084C131.801 63.7336 131.158 63.865 130.476 63.8838C129.37 63.915 128.37 63.6148 127.683 63.0392C126.814 62.3073 126.464 61.0874 126.858 60.1428C127.12 59.511 127.67 59.0543 128.402 58.8604C129.326 58.6164 130.408 58.8291 131.151 59.4109C132.064 60.1241 132.576 61.1625 132.951 62.2635C135.107 60.9999 136.501 58.3161 136.545 55.8827C136.613 52.0166 134.232 48.5947 132.214 46.4052C132.045 46.2238 132.058 45.9423 132.239 45.7796C132.42 45.617 132.701 45.6232 132.864 45.8046C134.989 48.113 137.501 51.7414 137.426 55.9014C137.376 58.7353 135.757 61.7693 133.22 63.1456C133.232 63.1956 133.251 63.2519 133.264 63.302C133.757 65.0473 134.195 66.7614 134.076 68.5255C133.939 70.5899 132.976 72.3541 131.508 73.2486C130.858 73.6427 130.12 73.8304 129.401 73.8304V73.8242ZM129.177 59.6424C128.989 59.6424 128.795 59.6674 128.62 59.7112C128.295 59.7988 127.87 59.9989 127.67 60.4744C127.427 61.0624 127.67 61.8694 128.245 62.3511C128.77 62.789 129.545 63.0142 130.439 62.9892C131.033 62.9704 131.601 62.8516 132.133 62.6451C131.795 61.6192 131.364 60.7058 130.595 60.1053C130.214 59.805 129.683 59.6424 129.177 59.6424Z" fill="#FF41AA"/>
<path d="M187.365 181.323C187.203 181.323 187.047 181.236 186.972 181.079C186.859 180.86 186.947 180.591 187.165 180.479C189.29 179.39 190.584 176.675 190.627 173.216C190.64 172.359 190.565 171.602 190.409 170.951C189.684 171.839 188.671 172.384 187.634 172.396C186.84 172.396 185.997 172.04 185.428 171.402C184.922 170.839 184.69 170.157 184.778 169.481C184.884 168.637 185.453 167.942 186.34 167.586C187.465 167.135 188.815 167.317 189.69 168.03C189.99 168.274 190.253 168.561 190.478 168.887C191.102 166.597 189.859 164.095 189.003 162.731C188.603 162.093 188.153 161.461 187.721 160.848C186.665 159.353 185.572 157.808 185.003 156.006C184.172 153.354 184.94 149.863 187.634 148.856C187.865 148.768 188.121 148.887 188.203 149.119C188.29 149.35 188.171 149.607 187.94 149.688C185.797 150.489 185.128 153.466 185.84 155.743C186.365 157.414 187.372 158.834 188.434 160.341C188.878 160.967 189.328 161.611 189.746 162.262C190.79 163.92 192.334 167.116 191.027 169.957C191.371 170.851 191.534 171.946 191.515 173.228C191.465 177.019 189.99 180.022 187.572 181.267C187.509 181.298 187.44 181.317 187.372 181.317L187.365 181.323ZM187.628 168.236C187.297 168.236 186.965 168.292 186.665 168.418C186.328 168.555 185.74 168.887 185.653 169.594C185.603 170.013 185.753 170.444 186.084 170.814C186.478 171.251 187.072 171.514 187.615 171.514C188.671 171.495 189.553 170.745 190.04 169.919C189.803 169.431 189.496 169.031 189.121 168.724C188.728 168.405 188.184 168.23 187.628 168.23V168.236Z" fill="#FFAF00"/>
<path d="M82.693 212.877C82.5742 212.877 82.4617 212.833 82.3742 212.746C82.2055 212.57 82.2055 212.289 82.3805 212.12C84.749 209.818 86.1614 206.465 86.1552 203.155C86.1552 202.073 85.9989 200.991 85.7115 199.94C84.9053 200.159 84.0553 200.209 83.2304 200.071C81.2993 199.746 79.562 198.376 78.7933 196.574C78.3746 195.586 78.3996 194.354 78.8558 193.497C79.1745 192.909 79.662 192.533 80.2744 192.421C81.1306 192.258 82.0055 192.633 82.9679 193.565C84.4803 195.023 85.6115 196.825 86.2926 198.789C86.8988 198.507 87.4551 198.113 87.8988 197.619C89.4674 195.88 89.7924 192.977 88.7737 189.843C88.08 187.704 87.0363 186.002 85.6802 184.77C84.1428 183.375 82.143 182.649 80.3244 182.818C80.0744 182.843 79.8619 182.662 79.8432 182.418C79.8182 182.174 79.9994 181.955 80.2432 181.936C82.3367 181.736 84.5365 182.53 86.2739 184.113C87.7425 185.445 88.8674 187.285 89.6111 189.568C90.7298 193.009 90.3361 196.237 88.555 198.213C88.005 198.826 87.3113 199.308 86.5551 199.64C86.8676 200.778 87.0301 201.961 87.0363 203.155C87.0363 206.753 85.5677 210.249 82.9929 212.758C82.9054 212.839 82.7929 212.883 82.6867 212.883L82.693 212.877ZM80.6619 193.271C80.5869 193.271 80.5181 193.278 80.4431 193.29C80.0994 193.353 79.8307 193.565 79.6432 193.916C79.312 194.535 79.2995 195.486 79.612 196.224C80.2619 197.751 81.7368 198.92 83.3741 199.196C84.0616 199.308 84.7678 199.271 85.4427 199.089C84.799 197.244 83.7366 195.542 82.3492 194.197C81.7055 193.578 81.1493 193.271 80.6556 193.271H80.6619Z" fill="#FF0E41"/>
<path d="M209.326 44.5412C209.182 44.5412 209.045 44.4724 208.963 44.3473C208.826 44.1471 208.876 43.8718 209.076 43.7279C210.388 42.8209 211.17 41.0004 211.057 39.0987C211.007 38.2354 210.801 37.3471 210.426 36.3962C209.607 36.7027 208.707 36.8278 207.795 36.7528C206.214 36.6151 204.864 35.8645 204.076 34.6884C203.501 33.8188 203.333 32.8805 203.614 32.1048C203.82 31.548 204.264 31.0913 204.858 30.8348C205.595 30.5158 206.507 30.5033 207.251 30.8161C208.495 31.3353 209.313 32.4738 209.945 33.5186C210.301 34.1003 210.607 34.6634 210.863 35.2014C211.213 34.9949 211.526 34.7509 211.794 34.4632C213.582 32.5739 213.769 29.2834 212.226 26.8061C210.857 24.6166 208.307 23.0402 205.233 22.4959C204.989 22.4521 204.833 22.2207 204.876 21.9829C204.92 21.739 205.145 21.5763 205.389 21.6264C208.713 22.2144 211.476 23.9347 212.976 26.3432C214.725 29.152 214.494 32.9055 212.438 35.0825C212.088 35.4578 211.676 35.7706 211.22 36.0271C211.644 37.0843 211.876 38.079 211.932 39.0549C212.063 41.2945 211.157 43.3714 209.57 44.4661C209.495 44.5162 209.407 44.5474 209.32 44.5474L209.326 44.5412ZM206.076 31.4729C205.776 31.4729 205.476 31.5292 205.214 31.6481C204.951 31.7607 204.601 31.9921 204.445 32.4113C204.264 32.9117 204.401 33.5749 204.814 34.1942C205.445 35.145 206.557 35.7519 207.87 35.8645C208.626 35.927 209.382 35.8207 210.07 35.5767C209.826 35.0637 209.538 34.5382 209.201 33.9815C208.638 33.0556 207.932 32.0547 206.92 31.6356C206.664 31.5292 206.376 31.4729 206.082 31.4729H206.076Z" fill="#FF0E41"/>
<path d="M57.3075 75.6196C57.12 75.6196 56.945 75.5007 56.8826 75.313C56.8076 75.0816 56.9388 74.8314 57.17 74.7563C59.5761 73.9931 61.3884 71.7035 61.5822 69.1824C61.6072 68.8196 61.6009 68.4505 61.5634 68.0877C59.2511 68.7195 56.6701 68.1314 55.0265 66.4487C54.1453 65.5478 53.5391 64.1215 54.1578 62.9517C54.9202 61.5254 56.9388 61.4503 58.4574 62.201C60.3198 63.1269 61.6946 64.8972 62.2321 66.8928C62.4258 66.8052 62.6133 66.7051 62.8008 66.5925C64.9819 65.2726 66.2693 62.5701 65.9943 59.8676C65.7006 56.99 63.9195 54.6378 62.0321 52.1417C60.201 49.727 58.3074 47.2247 57.9075 44.1969C57.4575 40.7938 59.1949 37.1842 62.1446 35.4201C62.3571 35.295 62.6258 35.3638 62.7508 35.5765C62.8758 35.7892 62.8071 36.0582 62.5946 36.1833C59.9448 37.766 58.3762 41.0128 58.7824 44.0781C59.1574 46.8744 60.8947 49.1703 62.7383 51.6037C64.6132 54.081 66.5567 56.6459 66.8755 59.7738C67.1817 62.8078 65.7318 65.8543 63.257 67.3432C62.982 67.5059 62.7008 67.6498 62.4133 67.7749C62.4821 68.2566 62.4946 68.7445 62.4571 69.2325C62.2384 72.1038 60.1698 74.7125 57.4325 75.5821C57.3888 75.5946 57.345 75.6008 57.3013 75.6008L57.3075 75.6196ZM56.4951 62.6201C55.8264 62.6201 55.2264 62.8453 54.9515 63.3708C54.539 64.1403 55.0202 65.16 55.6702 65.8293C57.0825 67.2744 59.3886 67.7749 61.4134 67.2056C60.9572 65.4165 59.7386 63.8275 58.0762 63.0017C57.5887 62.7578 57.02 62.6201 56.4951 62.6201Z" fill="#00D339"/>
<path d="M241.286 126.391C241.155 126.391 241.023 126.385 240.892 126.366C240.648 126.341 240.473 126.116 240.505 125.872C240.536 125.628 240.755 125.453 240.998 125.484C242.767 125.685 244.298 124.046 244.617 122.388C244.917 120.824 244.473 119.047 243.304 117.095C242.842 116.332 242.305 115.588 241.786 114.862C241.173 114.011 240.536 113.129 240.005 112.191C239.161 110.696 238.28 108.437 238.911 106.204C239.661 103.527 242.598 101.75 245.317 102.319C245.554 102.369 245.711 102.607 245.661 102.845C245.611 103.083 245.373 103.239 245.136 103.189C242.898 102.713 240.386 104.24 239.767 106.442C239.217 108.387 240.017 110.402 240.78 111.753C241.286 112.648 241.905 113.511 242.505 114.343C243.036 115.081 243.579 115.838 244.061 116.633C245.348 118.772 245.829 120.761 245.486 122.55C245.117 124.477 243.373 126.379 241.292 126.379L241.286 126.391Z" fill="#FF41AA"/>
<path d="M26.1101 140.292C26.0789 140.292 26.0476 140.292 26.0164 140.279C25.7789 140.229 25.6289 139.991 25.6789 139.747C26.0039 138.265 25.1039 136.788 24.2353 135.356C23.3041 133.829 22.3667 131.89 23.1479 130.101C23.2666 129.832 23.4103 129.594 23.5791 129.375C22.0292 126.704 22.4479 123.044 24.1478 120.642C26.1414 117.815 29.7161 116.063 33.9532 115.832C34.1907 115.807 34.4094 116.007 34.4219 116.251C34.4344 116.495 34.2469 116.707 34.0032 116.72C30.0973 116.933 26.6851 118.59 24.879 121.155C23.4416 123.188 23.0416 126.354 24.2415 128.7C24.7102 128.299 25.2227 128.005 25.6477 127.786C26.3413 127.43 27.2663 127.011 28.2787 127.036C29.3723 127.048 30.3535 127.611 30.7785 128.462C31.0722 129.056 31.0784 129.751 30.7972 130.426C30.4722 131.202 29.7911 131.84 29.0286 132.084C27.7912 132.484 26.3163 132.122 25.0789 131.114C24.7227 130.827 24.404 130.501 24.129 130.157C24.0728 130.257 24.0165 130.351 23.9728 130.458C23.3541 131.871 24.1915 133.548 24.9852 134.855C25.9226 136.394 26.96 138.102 26.5601 139.935C26.5163 140.141 26.3288 140.285 26.1289 140.285L26.1101 140.292ZM24.6977 129.469C24.9602 129.819 25.2602 130.145 25.6164 130.433C26.3913 131.064 27.6162 131.609 28.7349 131.246C29.2599 131.077 29.7348 130.633 29.9598 130.088C30.141 129.657 30.141 129.225 29.9598 128.869C29.6411 128.237 28.8661 127.943 28.2412 127.93C27.435 127.899 26.6288 128.268 26.0351 128.581C25.4789 128.869 25.0352 129.163 24.6915 129.469H24.6977Z" fill="#FFAF00"/>
<path d="M72.4624 222.317C72.3062 222.154 72.1375 222.129 71.8562 222.086C71.7938 222.705 71.5375 223.349 71.175 224.062C71.4 224.106 71.5313 224.187 71.7125 224.363C72.1437 223.631 72.3187 223.18 72.4624 222.317Z" fill="white"/>
<path d="M251.916 227.566C251.691 228.585 251.685 229.167 252.229 230.143C253.966 230.118 254.997 230.224 256.672 230.55C256.572 229.93 256.635 229.48 256.76 229.117C254.835 228.804 253.685 228.366 251.916 227.566Z" fill="white"/>
<path d="M242.261 144.79C242.286 143.976 242.236 143.088 241.705 142.312C241.048 142.137 240.611 141.981 240.005 141.618C240.136 142.206 239.93 142.569 239.311 143.163C240.305 143.451 241.142 144.014 242.261 144.79Z" fill="white"/>
<path d="M183.459 17.9355C183.035 17.9167 182.766 18.0356 182.466 18.3922C182.547 18.8363 182.666 19.1428 182.916 19.3743C183.378 19.2554 183.722 19.3117 184.291 19.4556C183.891 18.9301 183.659 18.5861 183.459 17.9355Z" fill="white"/>
<path d="M33.6908 63.3333C33.6908 63.033 33.6408 62.8578 33.4533 62.5701C33.1596 62.7953 32.9409 62.8766 32.6846 62.8954C32.6659 63.1769 32.7034 63.3645 32.7909 63.6586C33.0784 63.4834 33.3158 63.4083 33.6908 63.3333Z" fill="white"/>
<path d="M132.689 218.451C133.164 218.776 133.495 218.926 133.957 219.058C134.039 218.682 134.026 218.432 133.957 218.201C133.657 218.182 133.464 218.057 133.176 217.838C133.082 218.157 132.951 218.294 132.689 218.445V218.451Z" fill="white"/>
<path d="M39.2715 173.278C39.0715 172.853 39.0903 172.559 39.1715 172.127C38.4341 172.315 37.7154 172.59 37.4404 172.809C37.5154 173.166 37.6654 173.447 37.9216 173.81C38.2279 173.554 38.6153 173.441 39.2653 173.278H39.2715Z" fill="white"/>
<path d="M247.935 198.239C246.992 197.782 246.185 197.513 245.311 197.582C244.973 198.195 244.886 198.639 244.942 199.177C246.004 199.177 246.598 199.34 247.517 199.846C247.435 199.127 247.492 198.695 247.929 198.239H247.935Z" fill="white"/>
<path d="M86.2551 239.214C85.7051 239.089 85.4302 238.995 85.0739 238.676C84.9677 238.87 84.8677 238.976 84.7302 239.02C85.0927 239.389 85.4177 239.552 85.9864 239.733C86.1301 239.577 86.2051 239.408 86.2489 239.214H86.2551Z" fill="white"/>
<path d="M1.77461 154.58C1.54962 154.411 1.35589 154.373 1.04967 154.455C0.924679 154.73 0.87468 154.943 0.924676 155.168C1.22465 155.28 1.39339 155.437 1.65586 155.737C1.63712 155.293 1.63712 155.018 1.77461 154.58Z" fill="white"/>
<path d="M229.556 168.862C229.981 168.111 230.131 167.654 229.937 166.747C228.556 166.341 227.768 166.003 226.525 165.34C226.456 165.853 226.293 166.197 226.106 166.453C227.556 167.173 228.35 167.798 229.556 168.862Z" fill="white"/>
<path d="M116.44 231.882C116.784 232.852 117.14 233.377 118.052 234.109C118.765 233.033 119.377 232.545 120.208 232.189C119.958 231.25 119.633 230.668 119.021 229.824C118.265 230.718 117.577 231.225 116.44 231.882Z" fill="white"/>
<path d="M96.8103 18.7048C97.0415 19.3742 97.2603 19.762 97.6165 20.2312C97.9727 19.9247 98.1414 19.6682 98.2414 19.3867C97.9602 19.1489 97.854 18.8862 97.7352 18.4608C97.4102 18.7048 97.179 18.7486 96.8103 18.7048Z" fill="white"/>
<path d="M171.829 229.217C171.023 229.336 170.542 229.167 169.861 228.804C169.804 230.131 169.898 231.469 170.129 232.039C170.767 232.089 171.31 231.982 172.035 231.732C171.76 231.088 171.773 230.393 171.823 229.217H171.829Z" fill="white"/>
<path d="M238.361 85.2724C237.555 84.9409 236.961 84.9909 236.136 85.4663C235.986 86.3734 236.005 87.0428 236.324 87.6746C237.299 87.7622 237.917 88.1 238.911 88.7756C238.505 87.4807 238.292 86.6737 238.355 85.2724H238.361Z" fill="white"/>
<path d="M12.155 145.878C12.3425 145.421 12.63 145.071 13.2487 144.808C12.2113 143.532 11.3926 142.85 10.1302 141.924C9.30528 142.406 8.96781 142.863 8.76782 143.213C10.3114 143.876 11.0926 144.627 12.1613 145.872L12.155 145.878Z" fill="white"/>
<path d="M92.0295 226.79C92.567 227.015 92.8857 227.078 93.4794 226.877C93.6419 225.92 93.8044 225.357 94.1544 224.475C93.8044 224.469 93.5669 224.388 93.3732 224.281C93.0045 225.313 92.6482 225.895 92.0295 226.79Z" fill="white"/>
<path d="M141.419 245.57C141.844 245.476 142.088 245.357 142.444 245.013C142.032 244.656 141.857 244.369 141.75 244C141.344 244.056 141.082 244.162 140.694 244.369C141.032 244.738 141.207 245.05 141.419 245.57Z" fill="white"/>
<path d="M226.993 211.382C226.656 212.02 226.35 212.746 226.468 213.571C226.925 213.972 227.206 214.266 227.55 214.791C227.681 214.272 227.981 214.059 228.712 213.834C228.031 213.215 227.587 212.439 227 211.382H226.993Z" fill="white"/>
<path d="M16.9921 110.396C18.367 109.67 19.1419 109.076 20.0481 108.144C19.2606 107.468 18.6482 107.186 18.0107 107.055C17.592 107.743 17.0483 108.056 16.1609 108.469C16.7983 109.101 16.9608 109.576 16.9921 110.396Z" fill="white"/>
<path d="M144.963 242.548C144.513 242.454 144.225 242.473 143.731 242.654C143.981 243.174 144.025 243.524 143.975 243.931C144.394 244.049 144.694 244.062 145.156 244.018C144.988 243.524 144.95 243.142 144.956 242.548H144.963Z" fill="white"/>
<path d="M240.611 198.176C240.105 197.907 239.711 197.432 239.274 196.105C238.742 196.387 238.355 196.775 237.999 197.438C238.455 198.376 238.805 198.896 239.599 199.527C239.786 198.939 240.049 198.652 240.605 198.176H240.611Z" fill="#FFAF00"/>
<path d="M253.291 193.878C253.716 194.454 253.941 195.073 253.803 196.037C256.166 195.699 257.622 195.186 259.722 194.31C259.734 192.921 259.422 192.164 259.141 191.645C257.159 193.071 255.647 193.484 253.297 193.885L253.291 193.878Z" fill="#FF0E41"/>
<path d="M217.163 171.314C216.919 171.551 216.869 171.814 216.807 172.252C217.763 172.352 218.75 172.746 219.85 173.303C219.919 172.953 220.044 172.753 220.319 172.471C219.188 171.808 218.5 171.539 217.163 171.307V171.314Z" fill="#FFAF00"/>
<path d="M228.531 209.862C229.087 209.28 229.568 209.042 230.524 209.136C230.137 208.154 229.649 207.597 228.7 206.64C227.95 206.596 227.568 206.803 226.981 207.422C227.787 208.248 228.306 208.899 228.531 209.862Z" fill="#FFAF00"/>
<path d="M254.11 138.408C252.841 137.777 252.16 137.301 251.16 136.275C250.648 136.757 250.298 137.257 250.173 137.902C250.773 138.659 251.71 139.409 253.054 140.291C253.16 139.266 253.372 138.759 254.11 138.415V138.408Z" fill="#00D339"/>
<path d="M232.03 63.0956C232.83 63.8025 233.743 63.9089 235.199 63.7212C235.161 61.394 235.411 60.024 236.243 57.9721C235.168 58.0535 234.424 57.7657 233.068 56.9149C232.243 59.0106 232.024 60.7685 232.03 63.0956Z" fill="#FFAF00"/>
<path d="M68.844 230.95C69.294 231.844 70.0564 232.257 71.3938 232.595C72.1687 230.549 72.8562 229.436 74.2935 227.935C73.3311 227.634 72.7812 227.121 71.8812 225.914C70.4376 227.459 69.6377 228.917 68.844 230.956V230.95Z" fill="#FFAF00"/>
<path d="M96.0106 6.28711C95.0544 6.31839 94.5419 6.4435 93.792 7.1504C94.2045 8.68932 94.3419 9.63393 94.4357 11.1916C94.9606 10.9602 95.3731 10.9164 95.7293 10.9476C95.5731 9.16475 95.6981 8.04497 96.0106 6.29336V6.28711Z" fill="#FF41AA"/>
<path d="M11.8237 61.4191C11.2112 63.5523 10.9425 65.3227 11.3925 67.1181C12.7861 67.606 13.7485 67.631 14.8484 67.3182C14.4797 65.1037 14.5922 63.8088 15.3171 61.7131C13.8485 62.1385 12.9298 62.1698 11.8237 61.4253V61.4191Z" fill="#FF41AA"/>
<path d="M256.635 84.1463C255.385 84.9533 253.804 85.2473 250.248 84.5591C250.204 86.1293 250.591 87.4994 251.648 89.1446C254.36 89.2885 255.985 89.1571 258.428 88.15C257.335 86.9739 257.01 86.023 256.635 84.14V84.1463Z" fill="#FF0E41"/>
<path d="M203.495 213.822C204.064 214.197 204.333 214.429 204.602 214.942C204.808 214.767 204.964 214.685 205.139 214.704C204.889 214.128 204.589 213.803 204.02 213.353C203.795 213.465 203.633 213.622 203.495 213.822Z" fill="#FFAF00"/>
<path d="M20.5106 111.353C20.1856 112.009 20.2731 112.635 20.6606 113.573C22.1979 113.135 23.1541 113.054 24.6665 113.236C24.4227 112.535 24.479 111.991 24.7977 110.933C23.2541 110.758 22.0542 110.933 20.5106 111.353Z" fill="#FF41AA"/>
<path d="M255.472 155.262C254.566 153.641 253.885 152.859 252.004 152.209C249.729 154.298 248.223 155.38 245.623 156.938C246.485 157.639 246.942 158.308 247.204 158.946C250.135 157.076 252.173 156.3 255.478 155.262H255.472Z" fill="#FFAF00"/>
<path d="M57.3887 194.16C57.6636 194.504 57.8386 194.86 57.9824 195.386C58.8073 194.629 59.401 194.172 60.1572 193.772C60.1447 193.184 59.9885 192.896 59.7135 192.533C59.151 192.796 58.2886 193.39 57.3887 194.16Z" fill="#FFAF00"/>
<path d="M159.399 39.699C158.149 39.6614 156.78 39.7428 155.587 40.556C155.312 41.5694 155.074 42.2388 154.518 43.1709C155.424 42.9707 155.987 43.2835 156.899 44.2469C157.343 42.708 158.212 41.4256 159.399 39.6927V39.699Z" fill="#00D339"/>
<path d="M202.396 194.097C202.57 194.773 202.995 195.123 203.714 195.668C204.845 194.06 206.526 192.696 208.614 191.295C208.058 190.826 207.833 190.407 207.601 189.637C205.302 190.988 204.133 191.945 202.396 194.097Z" fill="#008DF0"/>
<path d="M254.66 168.505C255.047 167.923 255.535 167.51 256.46 167.323C255.366 165.271 254.416 164.107 252.91 162.481C251.635 162.931 251.047 163.469 250.666 163.901C252.622 165.239 253.504 166.491 254.653 168.511L254.66 168.505Z" fill="#FF0E41"/>
<path d="M59.9323 86.1294C59.901 86.7862 60.0885 87.1991 60.6322 87.662C61.3134 87.5369 61.7821 87.3555 62.1508 86.9676C61.9696 86.2545 62.0508 85.729 62.2758 84.8469C61.4634 85.46 60.9384 85.8166 59.9323 86.1231V86.1294Z" fill="#00D339"/>
<path d="M45.2959 151.54C45.2209 150.639 44.9022 150.113 44.071 149.569C43.1649 149.857 42.5524 150.188 42.1274 150.776C42.5024 151.721 42.4774 152.447 42.3212 153.685C43.3211 152.703 43.971 152.128 45.2897 151.533L45.2959 151.54Z" fill="#FF0E41"/>
<path d="M95.6356 201.335C95.1731 201.335 94.9044 201.417 94.4607 201.698C94.8107 202.155 94.9294 202.486 94.9607 202.887C95.3919 202.918 95.6856 202.862 96.1293 202.724C95.8606 202.274 95.7481 201.911 95.6293 201.335H95.6356Z" fill="#FF41AA"/>
<path d="M214.882 125.872C215.382 125.14 215.613 124.633 215.819 123.92C215.244 123.789 214.857 123.814 214.501 123.92C214.476 124.383 214.282 124.683 213.944 125.128C214.432 125.278 214.644 125.472 214.876 125.878L214.882 125.872Z" fill="#FF0E41"/>
<path d="M138.813 14.3259C139.932 12.6869 140.444 11.5547 140.913 9.96569C139.626 9.67792 138.77 9.72797 137.97 9.96569C137.913 10.9916 137.482 11.6673 136.732 12.6619C137.82 12.9935 138.295 13.4314 138.813 14.3385V14.3259Z" fill="#FF0E41"/>
<path d="M180.347 196.712C179.697 197.019 179.241 196.994 178.579 196.862C178.866 198.001 179.291 199.108 179.629 199.533C180.178 199.415 180.61 199.183 181.166 198.789C180.772 198.314 180.603 197.719 180.347 196.712Z" fill="#008DF0"/>
<path d="M198.958 35.295C198.258 36.7526 197.846 37.9913 197.946 39.3425C198.883 39.8617 199.577 39.9994 200.408 39.9118C200.414 38.2728 200.652 37.3532 201.433 35.9394C200.327 36.0645 199.658 35.9707 198.952 35.3013L198.958 35.295Z" fill="#00D339"/>
<path d="M230.874 160.591C230.687 161.442 230.537 161.861 230.043 162.412C230.343 162.575 230.505 162.725 230.568 162.937C231.137 162.381 231.387 161.874 231.668 160.992C231.43 160.773 231.168 160.654 230.868 160.585L230.874 160.591Z" fill="#00D339"/>
<path d="M165.33 226.008C165.067 226.358 165.011 226.659 165.136 227.121C165.561 227.309 165.892 227.391 166.236 227.309C166.405 226.846 166.648 226.583 167.111 226.183C166.43 226.214 166.005 226.214 165.33 226.002V226.008Z" fill="#FF41AA"/>
<path d="M238.799 90.0205C239.311 89.9517 239.78 90.0205 240.336 90.4521C240.948 88.8444 241.136 87.7434 241.317 86.1044C240.448 85.6102 239.855 85.5414 239.436 85.5414C239.642 87.293 239.374 88.394 238.805 90.0205H238.799Z" fill="#FF0E41"/>
<path d="M145.106 31.0786C144.55 31.1287 143.95 31.235 143.463 31.6604C143.394 32.1233 143.325 32.4361 143.125 32.874C143.519 32.7364 143.781 32.849 144.231 33.2243C144.35 32.5237 144.663 31.9044 145.1 31.0786H145.106Z" fill="#008DF0"/>
<path d="M162.043 1.58901C160.899 1.88303 159.63 1.70787 157.124 0.294067C156.699 1.46389 156.643 2.59618 157.024 4.11007C159.03 4.90456 160.293 5.21109 162.386 5.06721C161.855 3.90364 161.849 3.1029 162.043 1.58901Z" fill="#00D339"/>
<path d="M20.773 54.2313C20.948 53.5682 21.0792 53.2429 21.4792 52.8237C21.248 52.6861 21.123 52.561 21.0792 52.3921C20.6105 52.8112 20.4043 53.1991 20.1543 53.8872C20.3355 54.0686 20.5355 54.1687 20.7667 54.2313H20.773Z" fill="#FFAF00"/>
<path d="M67.1005 49.5018C67.5005 49.6707 67.8317 49.5894 68.3754 49.4392C68.0067 48.2756 67.9629 46.9244 68.0629 45.3605C67.6254 45.4606 67.3255 45.4105 66.863 45.2354C66.663 46.8869 66.6943 47.8252 67.1067 49.4955L67.1005 49.5018Z" fill="#FF41AA"/>
<path d="M11.8362 92.7418C12.1112 93.211 12.4549 93.6989 13.0361 93.9554C13.4735 93.8241 13.7798 93.7552 14.2485 93.7427C13.9673 93.455 13.9548 93.1735 14.0985 92.6167C13.4298 92.8044 12.7549 92.7856 11.8424 92.7418H11.8362Z" fill="#00D339"/>
<path d="M178.06 49.483C176.904 48.8262 176.198 48.601 174.804 48.895C174.179 51.022 173.66 52.2418 172.642 54.1561C173.429 54.2624 173.954 54.5064 174.354 54.8004C175.46 52.5671 176.423 51.3347 178.066 49.4768L178.06 49.483Z" fill="#008DF0"/>
<path d="M26.2039 71.3159C25.0227 72.1104 24.1541 72.8736 23.6416 73.9433C24.1228 74.7566 24.5853 75.1695 25.2602 75.4697C25.9914 74.2311 26.5851 73.6368 27.81 72.9049C26.9101 72.5108 26.4476 72.1417 26.2101 71.3159H26.2039Z" fill="#FFAF00"/>
<path d="M225.156 139.347C226.656 138.821 227.462 138.265 228.587 136.857C226.931 135.762 226.175 134.811 225.631 133.529C224.187 133.917 223.287 134.417 221.988 135.362C223.369 136.525 224.144 137.583 225.156 139.347Z" fill="#00D339"/>
<path d="M60.6198 153.585C61.651 153.229 62.2447 152.897 62.9759 152.34C62.5009 151.79 62.1072 151.533 61.676 151.377C61.3135 151.815 60.9073 151.971 60.2449 152.165C60.6198 152.666 60.6823 153.016 60.6198 153.585Z" fill="#FF0E41"/>
<path d="M14.4985 171.952C14.9048 172.183 15.186 172.252 15.7172 172.233C15.6359 171.652 15.7047 171.301 15.8797 170.932C15.511 170.688 15.2297 170.582 14.7673 170.476C14.7798 171.007 14.6923 171.389 14.4985 171.952Z" fill="#FFAF00"/>
<path d="M222.238 94.4807C222.419 95.7256 222.156 96.4701 221.6 97.5148C223.644 97.6023 225.7 97.4522 226.581 97.0956C226.656 96.1135 226.493 95.2752 226.112 94.1492C225.125 94.5683 224.05 94.5558 222.238 94.4745V94.4807Z" fill="#00D339"/>
<path d="M111.091 43.1648C110.584 44.4034 110.653 45.323 111.384 46.5992C112.778 46.8306 113.815 46.8056 114.778 46.3052C114.915 44.8038 115.44 43.8467 116.478 42.3077C114.49 42.9333 113.24 43.2586 111.084 43.1585L111.091 43.1648Z" fill="#FF41AA"/>
<path d="M43.0399 42.095C43.3836 39.9055 43.6961 38.8045 44.8585 37.3281C44.0585 36.9528 43.6273 36.6024 43.4336 36.0645C42.0712 37.5721 41.5212 38.8921 40.9463 41.1817C41.59 41.7009 42.2712 41.9636 43.0399 42.095Z" fill="#008DF0"/>
<path d="M26.6663 167.654C26.2039 168.23 25.6852 168.643 24.8853 169.068C26.4164 170.144 27.3788 170.945 28.2975 172.033C29.2474 171.802 29.6661 171.445 30.1536 170.857C29.5224 170.031 28.2475 168.843 26.6663 167.648V167.654Z" fill="#008DF0"/>
<path d="M183.147 11.4669C183.459 11.9361 183.616 12.424 183.478 13.1747C185.341 12.987 186.503 12.6367 188.178 12.0111C188.234 10.9226 188.009 10.3158 187.809 9.90295C186.209 10.9539 185.009 11.2292 183.147 11.4669Z" fill="#FF41AA"/>
<path d="M160.53 217.444C159.824 217.15 159.286 216.712 158.886 215.761C156.924 217.362 155.874 218.626 154.443 220.578C155.187 221.848 155.893 222.367 156.43 222.686C157.455 220.309 158.605 219.102 160.53 217.45V217.444Z" fill="#008DF0"/>
<path d="M110.841 239.358C111.366 240.465 111.434 241.785 110.497 244.606C111.765 244.813 112.922 244.637 114.378 243.956C114.784 241.76 114.853 240.421 114.297 238.325C113.222 239.089 112.415 239.251 110.841 239.358Z" fill="#FF0E41"/>
<path d="M222.187 157.539C222.537 156.713 222.631 156.219 222.325 155.305C220.85 155.055 219.988 154.799 218.625 154.267C218.613 154.805 218.494 155.18 218.325 155.468C219.913 156.037 220.812 156.588 222.187 157.545V157.539Z" fill="#FF0E41"/>
<path d="M236.361 118.741C236.224 118.084 236.03 117.708 235.499 117.164C234.949 117.802 234.505 118.071 233.943 118.228C234.03 118.853 234.193 119.266 234.518 119.86C235.08 119.341 235.568 119.072 236.361 118.741Z" fill="#00D339"/>
<path d="M240.142 187.285C239.255 187.717 238.824 188.054 238.417 189.037C239.461 190.306 239.986 191.138 240.736 192.571C241.136 192.133 241.505 191.914 241.848 191.789C240.942 190.175 240.592 189.068 240.142 187.285Z" fill="#FF41AA"/>
<path d="M223.212 72.9797C222.075 71.91 221.331 71.4596 219.656 71.4095C218.357 73.6679 217.432 74.9128 215.738 76.8208C216.607 77.1648 217.138 77.584 217.513 78.0281C219.388 75.7823 220.825 74.6438 223.212 72.9735V72.9797Z" fill="#FFAF00"/>
<path d="M208.132 53.0614C209.113 53.5807 210.232 54.0561 211.507 53.8747C212.119 53.174 212.576 52.7361 213.382 52.2107C212.582 52.0105 212.257 51.5413 211.907 50.4215C210.951 51.4725 209.757 52.1544 208.132 53.0614Z" fill="#008DF0"/>
<path d="M19.8355 186.396C18.5169 187.86 17.6294 188.592 15.8921 189.543C16.3483 190.406 16.8795 191.057 17.6919 191.464C18.9231 190.938 20.273 189.968 21.9478 188.498C20.6167 187.979 20.023 187.497 19.8355 186.39V186.396Z" fill="#008DF0"/>
<path d="M38.8465 96.32C39.4027 95.4254 39.6527 94.8061 39.8715 93.9491C39.1778 93.824 38.7216 93.8678 38.3028 94.0116C38.2966 94.5621 38.0841 94.9312 37.7029 95.4755C38.2903 95.6256 38.5528 95.8508 38.8528 96.32H38.8465Z" fill="#FFAF00"/>
<path d="M132.982 215.461C131.864 213.34 130.951 212.145 129.514 210.744C128.477 211.958 128.045 212.902 127.839 213.891C128.902 214.535 129.383 215.373 130.014 216.743C130.983 215.767 131.72 215.505 132.982 215.461Z" fill="#FF41AA"/>
<path d="M34.5782 180.178C34.4719 179.984 34.4282 179.784 34.5094 179.49C33.7657 179.49 33.297 179.59 32.6158 179.778C32.5533 180.203 32.6158 180.453 32.6846 180.622C33.3533 180.266 33.8345 180.203 34.5782 180.178Z" fill="#FFAF00"/>
<path d="M236.968 186.715C235.099 186.659 233.937 186.828 232.43 187.266C232.855 188.442 233.33 189.099 233.924 189.612C234.768 189.136 235.524 189.13 236.699 189.23C236.405 188.192 236.518 187.591 236.968 186.715Z" fill="#00D339"/>
<path d="M86.5801 17.9665C86.1052 17.5786 85.7927 17.1157 85.7052 16.2899C83.8241 17.0656 82.7242 17.7913 81.1743 18.9611C81.4555 20.1122 81.8743 20.6752 82.2117 21.0443C83.5554 19.4553 84.7178 18.7922 86.5801 17.9665Z" fill="#00D339"/>
<path d="M7.25537 101.719C7.28662 102.657 7.40536 103.683 8.07405 104.54C8.84274 104.696 9.36144 104.846 10.0801 105.222C9.89265 104.552 10.0989 104.115 10.7801 103.389C9.61142 103.126 8.60526 102.532 7.25537 101.719Z" fill="#00D339"/>
<path d="M232.88 115.494C232.737 116.194 232.762 116.632 233.049 117.389C233.855 117.001 234.393 116.933 235.011 117.014C235.193 116.37 235.211 115.907 235.149 115.187C234.386 115.45 233.799 115.506 232.887 115.494H232.88Z" fill="#008DF0"/>
<path d="M179.629 96.2698L136.338 58.8291C134.926 57.6093 133.12 56.9336 131.258 56.9274C129.389 56.9274 127.583 57.5842 126.164 58.7978L82.6303 95.957C80.893 97.4396 79.8931 99.5979 79.8868 101.881L79.6431 177.982C79.6306 182.299 83.1241 185.815 87.43 185.833L174.254 186.115C178.566 186.127 182.078 182.63 182.097 178.32L182.341 102.219C182.347 99.9357 181.36 97.7649 179.635 96.276L179.629 96.2698Z" fill="url(#paint0_linear_2321_8648)"/>
<path opacity="0.8" d="M107.901 90.0643C116.248 82.7397 122.097 75.7552 120.966 74.464C119.836 73.1728 112.153 78.0638 103.806 85.3885C95.4592 92.7131 89.6096 99.6976 90.7404 100.989C91.8712 102.28 99.5542 97.3889 107.901 90.0643Z" fill="white"/>
<path d="M130.614 73.3363C126.914 73.2737 123.952 70.2084 124.014 66.505C124.077 62.8016 127.139 59.8364 130.839 59.8989C134.539 59.9615 137.501 63.0268 137.438 66.7302C137.376 70.4336 134.314 73.3988 130.614 73.3363ZM130.789 62.9893C128.795 62.958 127.139 64.5532 127.102 66.555C127.064 68.5569 128.664 70.2084 130.664 70.2459C132.664 70.2772 134.314 68.682 134.351 66.6802C134.382 64.6783 132.789 63.0268 130.789 62.9893Z" fill="white"/>
<path d="M130.608 73.6865C126.714 73.6177 123.596 70.396 123.664 66.4987C123.733 62.6013 126.958 59.486 130.845 59.5485C134.739 59.6173 137.857 62.8391 137.788 66.7364C137.72 70.6337 134.501 73.7491 130.608 73.6865ZM130.833 60.2492C127.327 60.1866 124.427 62.9955 124.364 66.5112C124.302 70.0207 127.108 72.9296 130.614 72.9859C134.12 73.0484 137.02 70.2396 137.082 66.7239C137.145 63.2144 134.339 60.3055 130.833 60.2492Z" fill="white"/>
<path d="M130.658 70.5336C128.514 70.4961 126.795 68.7194 126.827 66.5737C126.864 64.428 128.639 62.7077 130.789 62.7389C132.932 62.7765 134.651 64.5531 134.62 66.7051C134.588 68.8571 132.807 70.5711 130.658 70.5336ZM130.783 63.1268C128.851 63.0955 127.252 64.6407 127.22 66.58C127.189 68.513 128.733 70.1145 130.664 70.1458C132.595 70.177 134.195 68.6319 134.232 66.6926C134.263 64.7595 132.72 63.1581 130.783 63.1205V63.1268Z" fill="white"/>
<path d="M128.014 65.2601C128.058 62.5826 127.295 59.4485 126.558 56.4207C125.446 51.854 124.483 47.9066 126.133 45.3793C128.064 42.4016 134.045 42.5142 135.882 45.542C137.445 48.1256 136.351 52.0354 135.082 56.5584C134.239 59.5611 133.37 62.6702 133.32 65.3477" stroke="#191919" stroke-width="3" stroke-miterlimit="10" stroke-linecap="round"/>
<path d="M110.978 146.722C109.791 144.301 106.753 143.469 104.285 143.77C104.272 143.77 104.26 143.77 104.247 143.776C104.235 143.776 104.222 143.776 104.21 143.776C102.104 144.083 99.3414 145.252 98.7228 147.529C98.0916 149.857 100.485 151.514 102.441 152.021C104.491 152.547 106.728 152.253 108.622 151.333C110.359 150.495 111.972 148.737 110.984 146.722H110.978Z" fill="#F46E6E"/>
<path d="M155.243 143.782C155.243 143.782 155.218 143.782 155.205 143.782C155.193 143.782 155.18 143.776 155.168 143.776C152.849 143.494 150.356 144.145 148.881 146.072C148.287 146.848 147.969 147.836 148.281 148.799C148.581 149.731 149.325 150.445 150.131 150.951C151.887 152.059 154.137 152.484 156.18 152.19C158.118 151.908 160.767 150.651 160.83 148.374C160.911 145.621 157.499 144.114 155.243 143.782Z" fill="#F46E6E"/>
<path d="M136.882 143.419C136.551 142.375 135.132 142.137 134.457 143.007C134.126 143.438 134.126 144.139 133.957 144.639C133.67 145.49 133.232 146.316 132.62 146.973C131.326 148.361 129.345 148.656 127.758 147.561C126.952 147.004 126.339 146.184 125.921 145.302C125.621 144.664 125.608 143.707 125.083 143.207C124.027 142.212 122.608 143.207 122.752 144.508V144.52C122.752 144.52 122.752 144.552 122.758 144.564C123.364 147.454 125.558 150.232 128.527 150.895C131.458 151.546 134.276 149.825 135.763 147.367C136.37 146.366 137.263 144.614 136.882 143.419Z" fill="#300000"/>
<path d="M99.2101 138.903C100.797 140.817 103.416 142.268 105.947 142.275C108.541 142.281 110.79 140.561 112.072 138.402C113.134 136.607 110.347 134.98 109.284 136.77C108.553 138.002 107.247 139.178 105.71 139.028C104.047 138.865 102.541 137.864 101.497 136.607C100.941 135.938 99.7913 136.031 99.2101 136.607C98.5477 137.27 98.6476 138.221 99.2101 138.897V138.903Z" fill="#300000"/>
<path d="M147.181 138.903C148.769 140.817 151.387 142.268 153.918 142.275C156.512 142.281 158.762 140.561 160.043 138.402C161.105 136.607 158.318 134.98 157.255 136.77C156.524 138.002 155.218 139.178 153.681 139.028C152.018 138.865 150.512 137.864 149.469 136.607C148.912 135.938 147.762 136.031 147.181 136.607C146.519 137.27 146.619 138.221 147.181 138.897V138.903Z" fill="#300000"/>
<defs>
<linearGradient id="paint0_linear_2321_8648" x1="78.0165" y1="117.833" x2="187.591" y2="130.285" gradientUnits="userSpaceOnUse">
<stop offset="0.09" stop-color="#F44100"/>
<stop offset="0.1" stop-color="#F33F00"/>
<stop offset="0.29" stop-color="#EC250E"/>
<stop offset="0.48" stop-color="#E71319"/>
<stop offset="0.68" stop-color="#E4081F"/>
<stop offset="0.91" stop-color="#E30521"/>
</linearGradient>
</defs>
</svg>
