<svg xmlns="http://www.w3.org/2000/svg" width="31" height="32" fill="none" viewBox="0 0 31 32">
    <path fill="#E42D31" fill-rule="evenodd" d="M6.788 2.18c.078-.294.267-.545.526-.702.27-.162.595-.207.9-.125L14.11 2.94 18.736.257c.557-.323 1.27-.131 1.591.428l2.67 4.649 5.898 1.588c.62.167.99.809.823 1.433l-1.58 5.927 2.67 4.648c.322.56.13 1.275-.426 1.599l-4.625 2.683-1.58 5.927c-.167.624-.805.995-1.427.828l-5.897-1.589-4.625 2.684c-.557.323-1.27.131-1.59-.428l-2.671-4.649-5.897-1.588c-.621-.167-.99-.809-.824-1.433l1.58-5.927-2.67-4.648c-.321-.56-.13-1.275.426-1.599l4.626-2.683 1.58-5.927zm15.526 11.559c.774-.755.155-2.039-.836-2.039-.344 0-.688.211-.836.36l-6.257 6.284-3.894-3.909c-.257-.258-.536-.364-.836-.364-.3 0-.64.133-.852.345-.212.213-.33.542-.33.843 0 .313.105.622.346.854l4.73 4.747c.462.464 1.21.464 1.672 0l7.093-7.121z" clip-rule="evenodd"/>
    <path fill="url(#paint0_linear)" fill-rule="evenodd" d="M6.788 2.18c.078-.294.267-.545.526-.702.27-.162.595-.207.9-.125L14.11 2.94 18.736.257c.557-.323 1.27-.131 1.591.428l2.67 4.649 5.898 1.588c.62.167.99.809.823 1.433l-1.58 5.927 2.67 4.648c.322.56.13 1.275-.426 1.599l-4.625 2.683-1.58 5.927c-.167.624-.805.995-1.427.828l-5.897-1.589-4.625 2.684c-.557.323-1.27.131-1.59-.428l-2.671-4.649-5.897-1.588c-.621-.167-.99-.809-.824-1.433l1.58-5.927-2.67-4.648c-.321-.56-.13-1.275.426-1.599l4.626-2.683 1.58-5.927zm15.526 11.559c.774-.755.155-2.039-.836-2.039-.344 0-.688.211-.836.36l-6.257 6.284-3.894-3.909c-.257-.258-.536-.364-.836-.364-.3 0-.64.133-.852.345-.212.213-.33.542-.33.843 0 .313.105.622.346.854l4.73 4.747c.462.464 1.21.464 1.672 0l7.093-7.121z" clip-rule="evenodd"/>
    <defs>
        <linearGradient id="paint0_linear" x1="15.482" x2="-14.731" y1="-15.004" y2="15.964" gradientUnits="userSpaceOnUse">
            <stop stop-color="#FF0065"/>
            <stop offset="1" stop-color="#E42D31"/>
        </linearGradient>
    </defs>
</svg>
