<svg width="40" height="40" viewBox="0 0 40 40" fill="none" xmlns="http://www.w3.org/2000/svg">
<circle cx="20" cy="20" r="20" fill="#5B7FEC"/>
<path d="M29.9932 15.4852C30.608 14.7863 31 13.8636 31 12.8851C31 10.7329 29.2386 9 27.1149 9C26.108 9 25.2137 9.36363 24.5148 9.97841C23.0887 9.36363 21.5796 9.0284 19.9865 9.0284C13.9206 9.0284 9 13.949 9 20.0149C8.99891 26.0796 13.9195 31.0002 19.9854 31.0002C26.0512 31.0002 30.9718 26.0796 30.9718 20.0423C30.9718 18.4764 30.6366 16.9673 30.0218 15.5695C30.0207 15.5411 29.9934 15.5127 29.9934 15.4854L29.9932 15.4852ZM19.9851 29.8818C17.9726 29.8818 16.1 29.2943 14.534 28.2602C14.534 28.2045 14.5624 28.1488 14.5624 28.1205C14.5624 25.1296 16.9942 22.6978 19.985 22.6978C22.9758 22.6978 25.4077 25.1296 25.4077 28.1205C25.4077 28.1761 25.4077 28.2318 25.436 28.2602C23.8701 29.2943 21.9973 29.8818 19.9849 29.8818H19.9851ZM17.5249 18.8397C17.5249 17.4704 18.6431 16.3795 19.9851 16.3795C21.3272 16.3795 22.4454 17.4693 22.4454 18.8397C22.4454 20.0977 21.5226 21.1318 20.2931 21.2716C20.1817 21.2716 20.0976 21.2999 19.9851 21.2999C19.8737 21.2999 19.7897 21.2999 19.6772 21.2716C18.4476 21.1318 17.5249 20.0693 17.5249 18.8397ZM26.7499 27.1976C26.4147 24.7101 24.7374 22.6407 22.4726 21.7464C23.3112 21.0476 23.8419 19.9851 23.8419 18.8397C23.843 16.7147 22.11 14.9817 19.985 14.9817C17.86 14.9817 16.127 16.6874 16.127 18.8112C16.127 19.9851 16.6577 21.0476 17.4963 21.7464C15.2326 22.6408 13.5553 24.7102 13.2201 27.1976C11.319 25.409 10.1166 22.8372 10.1166 20.0135C10.1166 14.5624 14.5337 10.1452 19.9848 10.1452C21.2985 10.1452 22.5849 10.4248 23.7587 10.8998C23.4235 11.4873 23.228 12.1578 23.228 12.885C23.228 15.0373 24.9894 16.7702 27.1132 16.7702C27.8404 16.7702 28.5109 16.5747 29.0984 16.2111C29.6018 17.4134 29.853 18.6713 29.853 20.0135C29.853 22.8375 28.6507 25.409 26.7494 27.1976L26.7499 27.1976ZM27.1136 15.6806C25.5761 15.6806 24.3465 14.451 24.3465 12.9135C24.3465 11.376 25.6045 10.1464 27.1136 10.1464C28.6227 10.1464 29.8806 11.376 29.8806 12.9135C29.8806 14.451 28.6511 15.6806 27.1136 15.6806Z" fill="white"/>
<path d="M28.8195 12.8849C28.8195 13.1928 28.5684 13.444 28.2604 13.444H27.6456V14.0588C27.6456 14.3667 27.3945 14.6179 27.0865 14.6179C26.7786 14.6179 26.5274 14.3667 26.5274 14.0588V13.444H25.94C25.632 13.444 25.3809 13.1928 25.3809 12.8849C25.3809 12.5769 25.632 12.3258 25.94 12.3258H26.5274V11.7383C26.5274 11.4303 26.7786 11.1792 27.0865 11.1792C27.3945 11.1792 27.6456 11.4304 27.6456 11.7383V12.3258H28.2604C28.5673 12.3258 28.8195 12.5769 28.8195 12.8849Z" fill="white"/>
</svg>
