<svg width="13" height="13" viewBox="0 0 13 13" fill="none" xmlns="http://www.w3.org/2000/svg">
<path d="M5.41736 3.68066V6.93061C5.41736 7.28945 5.70851 7.5806 6.06735 7.5806H8.88397V6.28062H6.71734V3.68066H5.41736Z" fill="#746E7E"/>
<path d="M9.45187 0.708971C7.61446 -0.227924 5.44187 -0.236395 3.59698 0.684428C1.75209 1.60525 0.453627 3.347 0.0974328 5.37822C-0.258025 7.40944 0.370797 9.48897 1.79265 10.9818C3.2145 12.4756 5.261 13.2052 7.30738 12.9495C9.35299 12.6931 11.1566 11.482 12.1663 9.6844C13.1768 7.88592 13.2741 5.716 12.4286 3.83536C12.0867 4.12058 11.6652 4.29408 11.2218 4.33133C11.9149 5.83443 11.8514 7.57781 11.0499 9.02685C10.2485 10.4749 8.80553 11.4559 7.16344 11.6667C5.52154 11.8783 3.87709 11.2951 2.73527 10.0967C1.59356 8.8983 1.08997 7.22766 1.38028 5.59748C1.67057 3.96744 2.72004 2.57351 4.20535 1.84314C5.69067 1.11277 7.4358 1.13307 8.90348 1.89816C8.95934 1.45467 9.15058 1.03906 9.45187 0.708971Z" fill="#746E7E"/>
<path d="M11.9173 2.16429C11.9173 3.31954 10.184 3.31954 10.184 2.16429C10.184 1.00904 11.9173 1.00904 11.9173 2.16429Z" fill="#746E7E"/>
</svg>
