<svg xmlns="http://www.w3.org/2000/svg" width="1126" height="1126"><g shape-rendering="crispEdges"><path fill="#fff" d="M0 0h1126v1126H0z"/><path d="M70 70h34v34H70zM104 70h34v34h-34zM138 70h34v34h-34zM172 70h34v34h-34zM206 70h34v34h-34zM240 70h34v34h-34zM274 70h34v34h-34z"/><path fill="#fff" d="M308 70h34v34h-34zM342 70h34v34h-34zM376 70h34v34h-34zM410 70h34v34h-34z"/><path d="M444 70h34v34h-34z"/><path fill="#fff" d="M478 70h34v34h-34zM512 70h34v34h-34zM546 70h34v34h-34z"/><path d="M580 70h34v34h-34z"/><path fill="#fff" d="M614 70h34v34h-34z"/><path d="M648 70h34v34h-34zM682 70h34v34h-34zM716 70h34v34h-34z"/><path fill="#fff" d="M750 70h34v34h-34zM784 70h34v34h-34z"/><path d="M818 70h34v34h-34zM852 70h34v34h-34zM886 70h34v34h-34zM920 70h34v34h-34zM954 70h34v34h-34zM988 70h34v34h-34zM1022 70h34v34h-34zM70 104h34v34H70z"/><path fill="#fff" d="M104 104h34v34h-34zM138 104h34v34h-34zM172 104h34v34h-34zM206 104h34v34h-34zM240 104h34v34h-34z"/><path d="M274 104h34v34h-34z"/><path fill="#fff" d="M308 104h34v34h-34z"/><path d="M342 104h34v34h-34zM376 104h34v34h-34z"/><path fill="#fff" d="M410 104h34v34h-34z"/><path d="M444 104h34v34h-34z"/><path fill="#fff" d="M478 104h34v34h-34z"/><path d="M512 104h34v34h-34zM546 104h34v34h-34zM580 104h34v34h-34z"/><path fill="#fff" d="M614 104h34v34h-34zM648 104h34v34h-34z"/><path d="M682 104h34v34h-34z"/><path fill="#fff" d="M716 104h34v34h-34z"/><path d="M750 104h34v34h-34z"/><path fill="#fff" d="M784 104h34v34h-34z"/><path d="M818 104h34v34h-34z"/><path fill="#fff" d="M852 104h34v34h-34zM886 104h34v34h-34zM920 104h34v34h-34zM954 104h34v34h-34zM988 104h34v34h-34z"/><path d="M1022 104h34v34h-34zM70 138h34v34H70z"/><path fill="#fff" d="M104 138h34v34h-34z"/><path d="M138 138h34v34h-34zM172 138h34v34h-34zM206 138h34v34h-34z"/><path fill="#fff" d="M240 138h34v34h-34z"/><path d="M274 138h34v34h-34z"/><path fill="#fff" d="M308 138h34v34h-34z"/><path d="M342 138h34v34h-34z"/><path fill="#fff" d="M376 138h34v34h-34zM410 138h34v34h-34zM444 138h34v34h-34z"/><path d="M478 138h34v34h-34z"/><path fill="#fff" d="M512 138h34v34h-34z"/><path d="M546 138h34v34h-34z"/><path fill="#fff" d="M580 138h34v34h-34zM614 138h34v34h-34z"/><path d="M648 138h34v34h-34zM682 138h34v34h-34z"/><path fill="#fff" d="M716 138h34v34h-34zM750 138h34v34h-34zM784 138h34v34h-34z"/><path d="M818 138h34v34h-34z"/><path fill="#fff" d="M852 138h34v34h-34z"/><path d="M886 138h34v34h-34zM920 138h34v34h-34zM954 138h34v34h-34z"/><path fill="#fff" d="M988 138h34v34h-34z"/><path d="M1022 138h34v34h-34zM70 172h34v34H70z"/><path fill="#fff" d="M104 172h34v34h-34z"/><path d="M138 172h34v34h-34zM172 172h34v34h-34zM206 172h34v34h-34z"/><path fill="#fff" d="M240 172h34v34h-34z"/><path d="M274 172h34v34h-34z"/><path fill="#fff" d="M308 172h34v34h-34zM342 172h34v34h-34zM376 172h34v34h-34z"/><path d="M410 172h34v34h-34zM444 172h34v34h-34zM478 172h34v34h-34z"/><path fill="#fff" d="M512 172h34v34h-34z"/><path d="M546 172h34v34h-34z"/><path fill="#fff" d="M580 172h34v34h-34zM614 172h34v34h-34zM648 172h34v34h-34z"/><path d="M682 172h34v34h-34z"/><path fill="#fff" d="M716 172h34v34h-34zM750 172h34v34h-34zM784 172h34v34h-34z"/><path d="M818 172h34v34h-34z"/><path fill="#fff" d="M852 172h34v34h-34z"/><path d="M886 172h34v34h-34zM920 172h34v34h-34zM954 172h34v34h-34z"/><path fill="#fff" d="M988 172h34v34h-34z"/><path d="M1022 172h34v34h-34zM70 206h34v34H70z"/><path fill="#fff" d="M104 206h34v34h-34z"/><path d="M138 206h34v34h-34zM172 206h34v34h-34zM206 206h34v34h-34z"/><path fill="#fff" d="M240 206h34v34h-34z"/><path d="M274 206h34v34h-34z"/><path fill="#fff" d="M308 206h34v34h-34z"/><path d="M342 206h34v34h-34z"/><path fill="#fff" d="M376 206h34v34h-34zM410 206h34v34h-34z"/><path d="M444 206h34v34h-34z"/><path fill="#fff" d="M478 206h34v34h-34z"/><path d="M512 206h34v34h-34z"/><path fill="#fff" d="M546 206h34v34h-34z"/><path d="M580 206h34v34h-34zM614 206h34v34h-34zM648 206h34v34h-34zM682 206h34v34h-34z"/><path fill="#fff" d="M716 206h34v34h-34zM750 206h34v34h-34zM784 206h34v34h-34z"/><path d="M818 206h34v34h-34z"/><path fill="#fff" d="M852 206h34v34h-34z"/><path d="M886 206h34v34h-34zM920 206h34v34h-34zM954 206h34v34h-34z"/><path fill="#fff" d="M988 206h34v34h-34z"/><path d="M1022 206h34v34h-34zM70 240h34v34H70z"/><path fill="#fff" d="M104 240h34v34h-34zM138 240h34v34h-34zM172 240h34v34h-34zM206 240h34v34h-34zM240 240h34v34h-34z"/><path d="M274 240h34v34h-34z"/><path fill="#fff" d="M308 240h34v34h-34z"/><path d="M342 240h34v34h-34zM376 240h34v34h-34zM410 240h34v34h-34z"/><path fill="#fff" d="M444 240h34v34h-34zM478 240h34v34h-34z"/><path d="M512 240h34v34h-34z"/><path fill="#fff" d="M546 240h34v34h-34z"/><path d="M580 240h34v34h-34zM614 240h34v34h-34zM648 240h34v34h-34z"/><path fill="#fff" d="M682 240h34v34h-34z"/><path d="M716 240h34v34h-34zM750 240h34v34h-34z"/><path fill="#fff" d="M784 240h34v34h-34z"/><path d="M818 240h34v34h-34z"/><path fill="#fff" d="M852 240h34v34h-34zM886 240h34v34h-34zM920 240h34v34h-34zM954 240h34v34h-34zM988 240h34v34h-34z"/><path d="M1022 240h34v34h-34zM70 274h34v34H70zM104 274h34v34h-34zM138 274h34v34h-34zM172 274h34v34h-34zM206 274h34v34h-34zM240 274h34v34h-34zM274 274h34v34h-34z"/><path fill="#fff" d="M308 274h34v34h-34z"/><path d="M342 274h34v34h-34z"/><path fill="#fff" d="M376 274h34v34h-34z"/><path d="M410 274h34v34h-34z"/><path fill="#fff" d="M444 274h34v34h-34z"/><path d="M478 274h34v34h-34z"/><path fill="#fff" d="M512 274h34v34h-34z"/><path d="M546 274h34v34h-34z"/><path fill="#fff" d="M580 274h34v34h-34z"/><path d="M614 274h34v34h-34z"/><path fill="#fff" d="M648 274h34v34h-34z"/><path d="M682 274h34v34h-34z"/><path fill="#fff" d="M716 274h34v34h-34z"/><path d="M750 274h34v34h-34z"/><path fill="#fff" d="M784 274h34v34h-34z"/><path d="M818 274h34v34h-34zM852 274h34v34h-34zM886 274h34v34h-34zM920 274h34v34h-34zM954 274h34v34h-34zM988 274h34v34h-34zM1022 274h34v34h-34z"/><path fill="#fff" d="M70 308h34v34H70zM104 308h34v34h-34zM138 308h34v34h-34zM172 308h34v34h-34zM206 308h34v34h-34zM240 308h34v34h-34zM274 308h34v34h-34zM308 308h34v34h-34z"/><path d="M342 308h34v34h-34zM376 308h34v34h-34z"/><path fill="#fff" d="M410 308h34v34h-34z"/><path d="M444 308h34v34h-34zM478 308h34v34h-34z"/><path fill="#fff" d="M512 308h34v34h-34zM546 308h34v34h-34z"/><path d="M580 308h34v34h-34z"/><path fill="#fff" d="M614 308h34v34h-34z"/><path d="M648 308h34v34h-34zM682 308h34v34h-34z"/><path fill="#fff" d="M716 308h34v34h-34z"/><path d="M750 308h34v34h-34z"/><path fill="#fff" d="M784 308h34v34h-34zM818 308h34v34h-34zM852 308h34v34h-34zM886 308h34v34h-34zM920 308h34v34h-34zM954 308h34v34h-34zM988 308h34v34h-34zM1022 308h34v34h-34z"/><path d="M70 342h34v34H70zM104 342h34v34h-34z"/><path fill="#fff" d="M138 342h34v34h-34z"/><path d="M172 342h34v34h-34z"/><path fill="#fff" d="M206 342h34v34h-34zM240 342h34v34h-34z"/><path d="M274 342h34v34h-34zM308 342h34v34h-34z"/><path fill="#fff" d="M342 342h34v34h-34zM376 342h34v34h-34z"/><path d="M410 342h34v34h-34zM444 342h34v34h-34z"/><path fill="#fff" d="M478 342h34v34h-34z"/><path d="M512 342h34v34h-34zM546 342h34v34h-34z"/><path fill="#fff" d="M580 342h34v34h-34zM614 342h34v34h-34zM648 342h34v34h-34z"/><path d="M682 342h34v34h-34zM716 342h34v34h-34z"/><path fill="#fff" d="M750 342h34v34h-34zM784 342h34v34h-34z"/><path d="M818 342h34v34h-34zM852 342h34v34h-34zM886 342h34v34h-34z"/><path fill="#fff" d="M920 342h34v34h-34z"/><path d="M954 342h34v34h-34zM988 342h34v34h-34z"/><path fill="#fff" d="M1022 342h34v34h-34z"/><path d="M70 376h34v34H70z"/><path fill="#fff" d="M104 376h34v34h-34z"/><path d="M138 376h34v34h-34z"/><path fill="#fff" d="M172 376h34v34h-34zM206 376h34v34h-34zM240 376h34v34h-34zM274 376h34v34h-34zM308 376h34v34h-34z"/><path d="M342 376h34v34h-34z"/><path fill="#fff" d="M376 376h34v34h-34zM410 376h34v34h-34zM444 376h34v34h-34z"/><path d="M478 376h34v34h-34zM512 376h34v34h-34z"/><path fill="#fff" d="M546 376h34v34h-34zM580 376h34v34h-34zM614 376h34v34h-34zM648 376h34v34h-34zM682 376h34v34h-34zM716 376h34v34h-34z"/><path d="M750 376h34v34h-34zM784 376h34v34h-34zM818 376h34v34h-34z"/><path fill="#fff" d="M852 376h34v34h-34zM886 376h34v34h-34z"/><path d="M920 376h34v34h-34z"/><path fill="#fff" d="M954 376h34v34h-34zM988 376h34v34h-34z"/><path d="M1022 376h34v34h-34zM70 410h34v34H70zM104 410h34v34h-34zM138 410h34v34h-34z"/><path fill="#fff" d="M172 410h34v34h-34z"/><path d="M206 410h34v34h-34z"/><path fill="#fff" d="M240 410h34v34h-34z"/><path d="M274 410h34v34h-34z"/><path fill="#fff" d="M308 410h34v34h-34zM342 410h34v34h-34z"/><path d="M376 410h34v34h-34zM410 410h34v34h-34z"/><path fill="#fff" d="M444 410h34v34h-34zM478 410h34v34h-34z"/><path d="M512 410h34v34h-34zM546 410h34v34h-34z"/><path fill="#fff" d="M580 410h34v34h-34z"/><path d="M614 410h34v34h-34zM648 410h34v34h-34z"/><path fill="#fff" d="M682 410h34v34h-34z"/><path d="M716 410h34v34h-34z"/><path fill="#fff" d="M750 410h34v34h-34zM784 410h34v34h-34zM818 410h34v34h-34zM852 410h34v34h-34zM886 410h34v34h-34z"/><path d="M920 410h34v34h-34zM954 410h34v34h-34zM988 410h34v34h-34z"/><path fill="#fff" d="M1022 410h34v34h-34zM70 444h34v34H70z"/><path d="M104 444h34v34h-34zM138 444h34v34h-34z"/><path fill="#fff" d="M172 444h34v34h-34zM206 444h34v34h-34z"/><path d="M240 444h34v34h-34z"/><path fill="#fff" d="M274 444h34v34h-34z"/><path d="M308 444h34v34h-34zM342 444h34v34h-34z"/><path fill="#fff" d="M376 444h34v34h-34zM410 444h34v34h-34zM444 444h34v34h-34z"/><path d="M478 444h34v34h-34zM512 444h34v34h-34z"/><path fill="#fff" d="M546 444h34v34h-34zM580 444h34v34h-34zM614 444h34v34h-34zM648 444h34v34h-34zM682 444h34v34h-34z"/><path d="M716 444h34v34h-34z"/><path fill="#fff" d="M750 444h34v34h-34zM784 444h34v34h-34zM818 444h34v34h-34zM852 444h34v34h-34zM886 444h34v34h-34zM920 444h34v34h-34z"/><path d="M954 444h34v34h-34zM988 444h34v34h-34z"/><path fill="#fff" d="M1022 444h34v34h-34z"/><path d="M70 478h34v34H70z"/><path fill="#fff" d="M104 478h34v34h-34zM138 478h34v34h-34z"/><path d="M172 478h34v34h-34z"/><path fill="#fff" d="M206 478h34v34h-34zM240 478h34v34h-34z"/><path d="M274 478h34v34h-34z"/><path fill="#fff" d="M308 478h34v34h-34z"/><path d="M342 478h34v34h-34z"/><path fill="#fff" d="M376 478h34v34h-34zM410 478h34v34h-34z"/><path d="M444 478h34v34h-34z"/><path fill="#fff" d="M478 478h34v34h-34z"/><path d="M512 478h34v34h-34z"/><path fill="#fff" d="M546 478h34v34h-34zM580 478h34v34h-34zM614 478h34v34h-34z"/><path d="M648 478h34v34h-34z"/><path fill="#fff" d="M682 478h34v34h-34zM716 478h34v34h-34z"/><path d="M750 478h34v34h-34zM784 478h34v34h-34zM818 478h34v34h-34zM852 478h34v34h-34z"/><path fill="#fff" d="M886 478h34v34h-34z"/><path d="M920 478h34v34h-34z"/><path fill="#fff" d="M954 478h34v34h-34z"/><path d="M988 478h34v34h-34zM1022 478h34v34h-34z"/><path fill="#fff" d="M70 512h34v34H70zM104 512h34v34h-34z"/><path d="M138 512h34v34h-34z"/><path fill="#fff" d="M172 512h34v34h-34zM206 512h34v34h-34zM240 512h34v34h-34zM274 512h34v34h-34zM308 512h34v34h-34z"/><path d="M342 512h34v34h-34z"/><path fill="#fff" d="M376 512h34v34h-34z"/><path d="M410 512h34v34h-34z"/><path fill="#fff" d="M444 512h34v34h-34zM478 512h34v34h-34z"/><path d="M512 512h34v34h-34z"/><path fill="#fff" d="M546 512h34v34h-34zM580 512h34v34h-34zM614 512h34v34h-34zM648 512h34v34h-34zM682 512h34v34h-34z"/><path d="M716 512h34v34h-34zM750 512h34v34h-34zM784 512h34v34h-34z"/><path fill="#fff" d="M818 512h34v34h-34zM852 512h34v34h-34zM886 512h34v34h-34zM920 512h34v34h-34zM954 512h34v34h-34zM988 512h34v34h-34zM1022 512h34v34h-34zM70 546h34v34H70zM104 546h34v34h-34z"/><path d="M138 546h34v34h-34zM172 546h34v34h-34z"/><path fill="#fff" d="M206 546h34v34h-34z"/><path d="M240 546h34v34h-34zM274 546h34v34h-34zM308 546h34v34h-34zM342 546h34v34h-34zM376 546h34v34h-34zM410 546h34v34h-34zM444 546h34v34h-34zM478 546h34v34h-34zM512 546h34v34h-34z"/><path fill="#fff" d="M546 546h34v34h-34zM580 546h34v34h-34zM614 546h34v34h-34z"/><path d="M648 546h34v34h-34z"/><path fill="#fff" d="M682 546h34v34h-34zM716 546h34v34h-34zM750 546h34v34h-34zM784 546h34v34h-34z"/><path d="M818 546h34v34h-34z"/><path fill="#fff" d="M852 546h34v34h-34z"/><path d="M886 546h34v34h-34zM920 546h34v34h-34zM954 546h34v34h-34zM988 546h34v34h-34zM1022 546h34v34h-34zM70 580h34v34H70zM104 580h34v34h-34zM138 580h34v34h-34z"/><path fill="#fff" d="M172 580h34v34h-34zM206 580h34v34h-34zM240 580h34v34h-34zM274 580h34v34h-34z"/><path d="M308 580h34v34h-34z"/><path fill="#fff" d="M342 580h34v34h-34zM376 580h34v34h-34zM410 580h34v34h-34zM444 580h34v34h-34zM478 580h34v34h-34z"/><path d="M512 580h34v34h-34z"/><path fill="#fff" d="M546 580h34v34h-34zM580 580h34v34h-34z"/><path d="M614 580h34v34h-34zM648 580h34v34h-34zM682 580h34v34h-34z"/><path fill="#fff" d="M716 580h34v34h-34z"/><path d="M750 580h34v34h-34zM784 580h34v34h-34zM818 580h34v34h-34z"/><path fill="#fff" d="M852 580h34v34h-34zM886 580h34v34h-34z"/><path d="M920 580h34v34h-34z"/><path fill="#fff" d="M954 580h34v34h-34z"/><path d="M988 580h34v34h-34z"/><path fill="#fff" d="M1022 580h34v34h-34z"/><path d="M70 614h34v34H70zM104 614h34v34h-34zM138 614h34v34h-34zM172 614h34v34h-34zM206 614h34v34h-34z"/><path fill="#fff" d="M240 614h34v34h-34z"/><path d="M274 614h34v34h-34z"/><path fill="#fff" d="M308 614h34v34h-34zM342 614h34v34h-34zM376 614h34v34h-34zM410 614h34v34h-34zM444 614h34v34h-34zM478 614h34v34h-34zM512 614h34v34h-34z"/><path d="M546 614h34v34h-34zM580 614h34v34h-34z"/><path fill="#fff" d="M614 614h34v34h-34z"/><path d="M648 614h34v34h-34z"/><path fill="#fff" d="M682 614h34v34h-34zM716 614h34v34h-34z"/><path d="M750 614h34v34h-34zM784 614h34v34h-34z"/><path fill="#fff" d="M818 614h34v34h-34zM852 614h34v34h-34zM886 614h34v34h-34zM920 614h34v34h-34zM954 614h34v34h-34z"/><path d="M988 614h34v34h-34z"/><path fill="#fff" d="M1022 614h34v34h-34zM70 648h34v34H70z"/><path d="M104 648h34v34h-34zM138 648h34v34h-34z"/><path fill="#fff" d="M172 648h34v34h-34zM206 648h34v34h-34zM240 648h34v34h-34zM274 648h34v34h-34zM308 648h34v34h-34z"/><path d="M342 648h34v34h-34z"/><path fill="#fff" d="M376 648h34v34h-34z"/><path d="M410 648h34v34h-34zM444 648h34v34h-34zM478 648h34v34h-34zM512 648h34v34h-34z"/><path fill="#fff" d="M546 648h34v34h-34zM580 648h34v34h-34zM614 648h34v34h-34zM648 648h34v34h-34zM682 648h34v34h-34zM716 648h34v34h-34zM750 648h34v34h-34z"/><path d="M784 648h34v34h-34zM818 648h34v34h-34zM852 648h34v34h-34z"/><path fill="#fff" d="M886 648h34v34h-34z"/><path d="M920 648h34v34h-34z"/><path fill="#fff" d="M954 648h34v34h-34zM988 648h34v34h-34z"/><path d="M1022 648h34v34h-34zM70 682h34v34H70z"/><path fill="#fff" d="M104 682h34v34h-34zM138 682h34v34h-34zM172 682h34v34h-34z"/><path d="M206 682h34v34h-34z"/><path fill="#fff" d="M240 682h34v34h-34z"/><path d="M274 682h34v34h-34z"/><path fill="#fff" d="M308 682h34v34h-34z"/><path d="M342 682h34v34h-34z"/><path fill="#fff" d="M376 682h34v34h-34z"/><path d="M410 682h34v34h-34z"/><path fill="#fff" d="M444 682h34v34h-34zM478 682h34v34h-34zM512 682h34v34h-34zM546 682h34v34h-34zM580 682h34v34h-34zM614 682h34v34h-34zM648 682h34v34h-34zM682 682h34v34h-34zM716 682h34v34h-34zM750 682h34v34h-34zM784 682h34v34h-34z"/><path d="M818 682h34v34h-34z"/><path fill="#fff" d="M852 682h34v34h-34z"/><path d="M886 682h34v34h-34z"/><path fill="#fff" d="M920 682h34v34h-34zM954 682h34v34h-34z"/><path d="M988 682h34v34h-34zM1022 682h34v34h-34z"/><path fill="#fff" d="M70 716h34v34H70zM104 716h34v34h-34zM138 716h34v34h-34zM172 716h34v34h-34zM206 716h34v34h-34z"/><path d="M240 716h34v34h-34z"/><path fill="#fff" d="M274 716h34v34h-34zM308 716h34v34h-34zM342 716h34v34h-34z"/><path d="M376 716h34v34h-34z"/><path fill="#fff" d="M410 716h34v34h-34z"/><path d="M444 716h34v34h-34z"/><path fill="#fff" d="M478 716h34v34h-34zM512 716h34v34h-34zM546 716h34v34h-34z"/><path d="M580 716h34v34h-34zM614 716h34v34h-34zM648 716h34v34h-34zM682 716h34v34h-34zM716 716h34v34h-34zM750 716h34v34h-34z"/><path fill="#fff" d="M784 716h34v34h-34z"/><path d="M818 716h34v34h-34z"/><path fill="#fff" d="M852 716h34v34h-34z"/><path d="M886 716h34v34h-34z"/><path fill="#fff" d="M920 716h34v34h-34zM954 716h34v34h-34z"/><path d="M988 716h34v34h-34zM1022 716h34v34h-34zM70 750h34v34H70z"/><path fill="#fff" d="M104 750h34v34h-34z"/><path d="M138 750h34v34h-34zM172 750h34v34h-34zM206 750h34v34h-34z"/><path fill="#fff" d="M240 750h34v34h-34z"/><path d="M274 750h34v34h-34z"/><path fill="#fff" d="M308 750h34v34h-34z"/><path d="M342 750h34v34h-34zM376 750h34v34h-34z"/><path fill="#fff" d="M410 750h34v34h-34z"/><path d="M444 750h34v34h-34z"/><path fill="#fff" d="M478 750h34v34h-34z"/><path d="M512 750h34v34h-34z"/><path fill="#fff" d="M546 750h34v34h-34z"/><path d="M580 750h34v34h-34zM614 750h34v34h-34z"/><path fill="#fff" d="M648 750h34v34h-34z"/><path d="M682 750h34v34h-34zM716 750h34v34h-34zM750 750h34v34h-34zM784 750h34v34h-34zM818 750h34v34h-34zM852 750h34v34h-34zM886 750h34v34h-34z"/><path fill="#fff" d="M920 750h34v34h-34z"/><path d="M954 750h34v34h-34z"/><path fill="#fff" d="M988 750h34v34h-34zM1022 750h34v34h-34zM70 784h34v34H70zM104 784h34v34h-34zM138 784h34v34h-34zM172 784h34v34h-34zM206 784h34v34h-34zM240 784h34v34h-34zM274 784h34v34h-34zM308 784h34v34h-34z"/><path d="M342 784h34v34h-34z"/><path fill="#fff" d="M376 784h34v34h-34zM410 784h34v34h-34zM444 784h34v34h-34z"/><path d="M478 784h34v34h-34z"/><path fill="#fff" d="M512 784h34v34h-34z"/><path d="M546 784h34v34h-34zM580 784h34v34h-34zM614 784h34v34h-34z"/><path fill="#fff" d="M648 784h34v34h-34zM682 784h34v34h-34z"/><path d="M716 784h34v34h-34zM750 784h34v34h-34z"/><path fill="#fff" d="M784 784h34v34h-34zM818 784h34v34h-34zM852 784h34v34h-34z"/><path d="M886 784h34v34h-34z"/><path fill="#fff" d="M920 784h34v34h-34z"/><path d="M954 784h34v34h-34zM988 784h34v34h-34zM1022 784h34v34h-34zM70 818h34v34H70zM104 818h34v34h-34zM138 818h34v34h-34zM172 818h34v34h-34zM206 818h34v34h-34zM240 818h34v34h-34zM274 818h34v34h-34z"/><path fill="#fff" d="M308 818h34v34h-34z"/><path d="M342 818h34v34h-34zM376 818h34v34h-34zM410 818h34v34h-34z"/><path fill="#fff" d="M444 818h34v34h-34zM478 818h34v34h-34zM512 818h34v34h-34zM546 818h34v34h-34zM580 818h34v34h-34zM614 818h34v34h-34z"/><path d="M648 818h34v34h-34z"/><path fill="#fff" d="M682 818h34v34h-34zM716 818h34v34h-34z"/><path d="M750 818h34v34h-34z"/><path fill="#fff" d="M784 818h34v34h-34z"/><path d="M818 818h34v34h-34z"/><path fill="#fff" d="M852 818h34v34h-34z"/><path d="M886 818h34v34h-34z"/><path fill="#fff" d="M920 818h34v34h-34zM954 818h34v34h-34z"/><path d="M988 818h34v34h-34z"/><path fill="#fff" d="M1022 818h34v34h-34z"/><path d="M70 852h34v34H70z"/><path fill="#fff" d="M104 852h34v34h-34zM138 852h34v34h-34zM172 852h34v34h-34zM206 852h34v34h-34zM240 852h34v34h-34z"/><path d="M274 852h34v34h-34z"/><path fill="#fff" d="M308 852h34v34h-34zM342 852h34v34h-34z"/><path d="M376 852h34v34h-34zM410 852h34v34h-34zM444 852h34v34h-34zM478 852h34v34h-34zM512 852h34v34h-34z"/><path fill="#fff" d="M546 852h34v34h-34zM580 852h34v34h-34zM614 852h34v34h-34zM648 852h34v34h-34z"/><path d="M682 852h34v34h-34z"/><path fill="#fff" d="M716 852h34v34h-34z"/><path d="M750 852h34v34h-34z"/><path fill="#fff" d="M784 852h34v34h-34zM818 852h34v34h-34zM852 852h34v34h-34z"/><path d="M886 852h34v34h-34zM920 852h34v34h-34zM954 852h34v34h-34zM988 852h34v34h-34z"/><path fill="#fff" d="M1022 852h34v34h-34z"/><path d="M70 886h34v34H70z"/><path fill="#fff" d="M104 886h34v34h-34z"/><path d="M138 886h34v34h-34zM172 886h34v34h-34zM206 886h34v34h-34z"/><path fill="#fff" d="M240 886h34v34h-34z"/><path d="M274 886h34v34h-34z"/><path fill="#fff" d="M308 886h34v34h-34zM342 886h34v34h-34z"/><path d="M376 886h34v34h-34z"/><path fill="#fff" d="M410 886h34v34h-34z"/><path d="M444 886h34v34h-34z"/><path fill="#fff" d="M478 886h34v34h-34z"/><path d="M512 886h34v34h-34z"/><path fill="#fff" d="M546 886h34v34h-34zM580 886h34v34h-34zM614 886h34v34h-34z"/><path d="M648 886h34v34h-34z"/><path fill="#fff" d="M682 886h34v34h-34zM716 886h34v34h-34z"/><path d="M750 886h34v34h-34zM784 886h34v34h-34zM818 886h34v34h-34zM852 886h34v34h-34zM886 886h34v34h-34z"/><path fill="#fff" d="M920 886h34v34h-34zM954 886h34v34h-34z"/><path d="M988 886h34v34h-34zM1022 886h34v34h-34zM70 920h34v34H70z"/><path fill="#fff" d="M104 920h34v34h-34z"/><path d="M138 920h34v34h-34zM172 920h34v34h-34zM206 920h34v34h-34z"/><path fill="#fff" d="M240 920h34v34h-34z"/><path d="M274 920h34v34h-34z"/><path fill="#fff" d="M308 920h34v34h-34z"/><path d="M342 920h34v34h-34zM376 920h34v34h-34z"/><path fill="#fff" d="M410 920h34v34h-34z"/><path d="M444 920h34v34h-34zM478 920h34v34h-34z"/><path fill="#fff" d="M512 920h34v34h-34zM546 920h34v34h-34zM580 920h34v34h-34zM614 920h34v34h-34z"/><path d="M648 920h34v34h-34z"/><path fill="#fff" d="M682 920h34v34h-34zM716 920h34v34h-34z"/><path d="M750 920h34v34h-34z"/><path fill="#fff" d="M784 920h34v34h-34z"/><path d="M818 920h34v34h-34zM852 920h34v34h-34zM886 920h34v34h-34zM920 920h34v34h-34zM954 920h34v34h-34z"/><path fill="#fff" d="M988 920h34v34h-34zM1022 920h34v34h-34z"/><path d="M70 954h34v34H70z"/><path fill="#fff" d="M104 954h34v34h-34z"/><path d="M138 954h34v34h-34zM172 954h34v34h-34zM206 954h34v34h-34z"/><path fill="#fff" d="M240 954h34v34h-34z"/><path d="M274 954h34v34h-34z"/><path fill="#fff" d="M308 954h34v34h-34zM342 954h34v34h-34z"/><path d="M376 954h34v34h-34zM410 954h34v34h-34zM444 954h34v34h-34zM478 954h34v34h-34z"/><path fill="#fff" d="M512 954h34v34h-34zM546 954h34v34h-34zM580 954h34v34h-34zM614 954h34v34h-34zM648 954h34v34h-34z"/><path d="M682 954h34v34h-34zM716 954h34v34h-34zM750 954h34v34h-34zM784 954h34v34h-34z"/><path fill="#fff" d="M818 954h34v34h-34zM852 954h34v34h-34z"/><path d="M886 954h34v34h-34zM920 954h34v34h-34zM954 954h34v34h-34z"/><path fill="#fff" d="M988 954h34v34h-34z"/><path d="M1022 954h34v34h-34zM70 988h34v34H70z"/><path fill="#fff" d="M104 988h34v34h-34zM138 988h34v34h-34zM172 988h34v34h-34zM206 988h34v34h-34zM240 988h34v34h-34z"/><path d="M274 988h34v34h-34z"/><path fill="#fff" d="M308 988h34v34h-34z"/><path d="M342 988h34v34h-34zM376 988h34v34h-34zM410 988h34v34h-34z"/><path fill="#fff" d="M444 988h34v34h-34z"/><path d="M478 988h34v34h-34zM512 988h34v34h-34zM546 988h34v34h-34zM580 988h34v34h-34zM614 988h34v34h-34zM648 988h34v34h-34zM682 988h34v34h-34zM716 988h34v34h-34zM750 988h34v34h-34z"/><path fill="#fff" d="M784 988h34v34h-34zM818 988h34v34h-34zM852 988h34v34h-34zM886 988h34v34h-34zM920 988h34v34h-34zM954 988h34v34h-34z"/><path d="M988 988h34v34h-34z"/><path fill="#fff" d="M1022 988h34v34h-34z"/><path d="M70 1022h34v34H70zM104 1022h34v34h-34zM138 1022h34v34h-34zM172 1022h34v34h-34zM206 1022h34v34h-34zM240 1022h34v34h-34zM274 1022h34v34h-34z"/><path fill="#fff" d="M308 1022h34v34h-34z"/><path d="M342 1022h34v34h-34zM376 1022h34v34h-34z"/><path fill="#fff" d="M410 1022h34v34h-34zM444 1022h34v34h-34z"/><path d="M478 1022h34v34h-34z"/><path fill="#fff" d="M512 1022h34v34h-34zM546 1022h34v34h-34z"/><path d="M580 1022h34v34h-34z"/><path fill="#fff" d="M614 1022h34v34h-34z"/><path d="M648 1022h34v34h-34z"/><path fill="#fff" d="M682 1022h34v34h-34z"/><path d="M716 1022h34v34h-34zM750 1022h34v34h-34z"/><path fill="#fff" d="M784 1022h34v34h-34zM818 1022h34v34h-34zM852 1022h34v34h-34z"/><path d="M886 1022h34v34h-34zM920 1022h34v34h-34z"/><path fill="#fff" d="M954 1022h34v34h-34z"/><path d="M988 1022h34v34h-34z"/><path fill="#fff" d="M1022 1022h34v34h-34z"/><path fill="none" d="M0 0h1126v70H0zM0 70h70v986H0zM1056 70h70v986h-70zM0 1056h1126v70H0z"/></g></svg>