<svg xmlns="http://www.w3.org/2000/svg" width="287" height="132" fill="none"><g clip-path="url(#a)"><rect width="287" height="132" fill="#fff" rx="6"/><g clip-path="url(#b)" opacity=".15"><path fill="#fff" d="M280.969-40H161.426C138.547-40 120-21.453 120 1.426v119.148C120 143.453 138.547 162 161.426 162h119.543c22.879 0 41.426-18.547 41.426-41.426V1.426c0-22.879-18.547-41.426-41.426-41.426Z"/><path fill="url(#c)" d="M221 149.375c48.808 0 88.375-39.567 88.375-88.375S269.808-27.375 221-27.375 132.625 12.192 132.625 61s39.567 88.375 88.375 88.375Z"/><path fill="red" d="m281.363.242-67.859 53.262 15.781 15.781L281.363.242Z"/><path fill="#fff" d="m160.242 121.363 53.262-67.86 15.781 15.782-69.043 52.078Z"/><path fill="#000" d="M221-18.695v13.02Zm0 145.976v13.02Zm13.808-144.793L232.56-4.689ZM209.44 126.216l-2.249 12.901Zm38.782-140.098-4.458 12.23Zm-49.947 137.139-4.458 12.23Zm8.916-140.769 2.249 12.823Zm25.369 143.728 2.248 12.901ZM193.777-13.882l4.458 12.23Zm49.908 137.139 4.459 12.23Zm-62.454-131.3 6.549 11.284Zm73.028 126.408 6.51 11.283ZM169.908-.152l8.364 9.981Zm93.82 111.849 8.364 9.982ZM160.045 9.632l9.981 8.364Zm111.849 93.898 9.982 8.365ZM152.075 21.073l11.284 6.51Zm126.487 72.989 11.284 6.509ZM146.236 33.62l12.231 4.458Zm137.139 49.829 12.231 4.458ZM142.646 46.876l12.862 2.288Zm143.846 25.486 12.822 2.25Zm-144.99-11.56h13.019Zm145.976 0h13.02Zm-144.793 13.81 12.823-2.25Zm143.807-25.37 12.822-2.248ZM146.355 88.026l12.23-4.458Zm137.099-49.908 12.231-4.458Zm-131.3 62.454 11.284-6.51Zm126.487-72.988 11.283-6.51Zm-118.557 84.312 9.982-8.365Zm111.771-93.82 9.982-8.364ZM169.79 121.758l8.364-9.982Zm93.819-111.85 8.364-9.981Zm-82.378 119.74 6.549-11.283ZM254.259 3.241l6.51-11.284Zm-40.203-21.62.631 7.1Zm13.256 151.341.632 7.102ZM200.405-15.934l1.855 6.865Zm39.335 146.687 1.854 6.865ZM187.386-11.199l2.998 6.43Zm64.151 137.652 3.037 6.431ZM175.392-4.334l4.064 5.839ZM262.544 120.1l4.064 5.839ZM164.779 4.582l5.011 5.01ZM272.21 112.013l5.011 5.01ZM155.902 15.234l5.839 4.064Zm124.435 87.192 5.76 3.945ZM148.958 27.189l6.431 2.998Zm137.652 64.15 6.431 3.038ZM144.224 40.21l6.865 1.853Zm146.687 39.334 6.865 1.854ZM141.817 53.898l7.102.632ZM293.16 67.155l7.101.63Zm-151.264.63 7.102-.63ZM293.239 54.53l7.101-.632ZM144.224 81.397l6.865-1.854Zm146.687-39.335 6.865-1.854ZM148.958 94.417l6.431-2.999ZM286.61 30.266l6.431-2.998Zm-130.708 76.105 5.839-4.064ZM280.337 19.18l5.76-3.946ZM175.392 125.94l4.064-5.839ZM262.505 1.505l4.103-5.84Zm-75.119 131.3 3.038-6.431Zm64.19-137.692 3.038-6.43ZM200.405 137.54l1.855-6.865ZM239.74-9.148l1.854-6.864Zm-25.684 149.054.631-7.101Zm13.256-151.342.632-7.102Z"/><path fill="#fff" fill-rule="evenodd" d="M220.408-5.676v-13.02h1.184v13.02h-1.184Zm8.125-12.81-.631 7.102-1.179-.104.631-7.102 1.179.105Zm-14.435 7.26-.631-7.101 1.179-.105.631 7.101-1.179.105Zm-5.241 6.639-2.249-12.823 1.166-.204 2.249 12.822-1.166.205Zm23.12-.205 2.249-12.822 1.165.204-2.249 12.823-1.165-.205Zm10.189-11.066-1.855 6.865-1.142-.309 1.854-6.865 1.143.309Zm-40.478 6.944-1.854-6.865 1.143-.309 1.854 6.865-1.143.309Zm-4.009 7.465-4.458-12.23 1.112-.406 4.458 12.23-1.112.406Zm45.529-.405 4.458-12.23 1.113.405-4.459 12.23-1.112-.405Zm11.941-9.21-3.038 6.43-1.07-.506 3.038-6.43 1.07.505Zm-65.301 6.546-2.999-6.431 1.073-.5 2.999 6.43-1.073.5Zm-2.58 8.056-6.549-11.284 1.024-.594 6.549 11.284-1.024.594Zm74.013-11.285-6.51 11.283-1.025-.591 6.51-11.284 1.025.592Zm5.811 3.753-4.103 5.839-.969-.68 4.103-5.84.969.68ZM178.97 1.843l-4.064-5.84.972-.675 4.063 5.839-.971.676Zm-1.152 8.366L169.454.228l.908-.76 8.364 9.981-.908.76ZM272.427.307l-8.364 9.981-.907-.76 8.364-9.982.907.76ZM169.371 10.01l-5.01-5.01.837-.837 5.01 5.01-.837.837Zm.275 8.439-9.981-8.364.76-.908 9.981 8.364-.76.908Zm112.571-8.285-9.982 8.364-.76-.908 9.981-8.364.761.908Zm4.215 5.558-5.76 3.945-.669-.977 5.76-3.945.669.977Zm-125.029 4.06-5.839-4.063.676-.971 5.839 4.063-.676.972Zm1.66 8.313-11.284-6.51.592-1.025 11.284 6.51-.592 1.025Zm127.157-6.51-11.283 6.51-.592-1.025 11.284-6.51.591 1.025Zm-135.081 9.137-6.431-2.998.5-1.073 6.431 2.999-.5 1.072Zm138.152-2.92-6.431 3-.5-1.073 6.431-2.999.5 1.073Zm-135.027 10.83-12.231-4.458.406-1.111 12.23 4.458-.405 1.112Zm137.623-4.418-12.23 4.458-.406-1.112 12.231-4.458.405 1.112Zm-144.952 8.419-6.865-1.855.308-1.142 6.865 1.854-.308 1.143Zm146.995-1.855-6.865 1.855-.309-1.143 6.865-1.854.309 1.142Zm-142.526 8.968-12.862-2.289.208-1.165 12.861 2.288-.207 1.166Zm144.013-2.17-12.823 2.249-.204-1.166 12.822-2.249.205 1.166Zm-150.55 7.542-7.102-.631.105-1.18 7.101.632-.104 1.18Zm151.525-.631-7.101.631-.105-1.179 7.102-.631.104 1.179Zm-145.871 6.907h-13.019V60.21h13.019v1.184Zm145.977 0h-13.02V60.21h13.02v1.184Zm-151.448 6.35-7.101.63-.105-1.179 7.101-.63.105 1.178Zm151.159.63-7.102-.63.105-1.18 7.102.631-.105 1.18Zm-144.599 4.57-12.822 2.25-.205-1.167 12.822-2.248.205 1.165Zm143.602 2.25-12.822-2.25.204-1.165 12.823 2.248-.205 1.166Zm-147.969 4.92-6.865 1.854-.308-1.143 6.865-1.854.308 1.142Zm146.378 1.854-6.865-1.855.309-1.142 6.865 1.854-.309 1.143Zm-2.218 6.494-12.23-4.458.405-1.112 12.23 4.458-.405 1.112Zm-136.615-4.34-12.231 4.458-.405-1.112 12.23-4.458.406 1.112Zm134 10.79-6.43-3.038.505-1.07 6.431 3.037-.506 1.07Zm-137.149-2.958-6.431 2.998-.5-1.073 6.431-2.998.5 1.073Zm8.094 2.62-11.283 6.509-.592-1.025 11.284-6.51.591 1.025Zm125.817 6.509-11.284-6.51.592-1.025 11.283 6.51-.591 1.025Zm-127.471 1.709-5.839 4.064-.676-.972 5.839-4.063.676.971Zm123.684 4.066-5.76-3.945.669-.976 5.76 3.945-.669.976Zm-115.317-2.875-9.982 8.364-.76-.907 9.982-8.364.76.907Zm111.05 8.364-9.982-8.364.76-.907 9.982 8.364-.76.907Zm-9.858 9.711-8.364-9.982.907-.76 8.364 9.982-.907.76Zm-93.031-9.903-8.364 9.982-.907-.76 8.364-9.982.907.76Zm98.195 5.286-5.01-5.011.836-.837 5.011 5.011-.837.837Zm-88.51 1.22-6.549 11.284-1.024-.595 6.549-11.283 1.024.594Zm71.964 11.282-6.51-11.283 1.025-.592 6.51 11.284-1.025.591Zm-80.315-9.505-4.063 5.839-.972-.676 4.064-5.839.971.676Zm86.181 5.839-4.064-5.839.972-.676 4.063 5.839-.971.676Zm-72.861 9.007 4.458-12.231 1.112.406-4.458 12.23-1.112-.405Zm54.327.405-4.459-12.23 1.112-.406 4.459 12.231-1.112.405Zm-40.98 3.326 2.249-12.902 1.166.204-2.249 12.901-1.166-.203Zm27.617.203-2.248-12.901 1.166-.204 2.248 12.902-1.166.203Zm-43.266-12.592-3.038 6.43-1.07-.505 3.038-6.431 1.07.506Zm63.08 6.509-3.038-6.431 1.071-.505 3.038 6.431-1.071.505Zm-33.631 7.165v-13.02h1.184v13.02h-1.184Zm-17.577-9.472-1.854 6.864-1.143-.308 1.854-6.865 1.143.309Zm38.192 6.943-1.854-6.865 1.142-.308 1.855 6.865-1.143.308Zm-25.746-4.915-.631 7.102-1.179-.105.631-7.102 1.179.105Zm12.077 7.259-.631-7.101 1.179-.105.631 7.102-1.179.104Z" clip-rule="evenodd"/></g></g><defs><clipPath id="a"><rect width="287" height="132" fill="#fff" rx="6"/></clipPath><clipPath id="b"><path fill="#fff" d="M120-40h202v202H120z"/></clipPath><linearGradient id="c" x1="132.625" x2="132.625" y1="-27.375" y2="149.375" gradientUnits="userSpaceOnUse"><stop stop-color="#19D7FF"/><stop offset="1" stop-color="#1E64F0"/></linearGradient></defs></svg>