<svg width="20" height="20" viewBox="0 0 20 20" fill="none" xmlns="http://www.w3.org/2000/svg">
<path fill-rule="evenodd" clip-rule="evenodd" d="M15.9716 14.3179C17.3237 12.8002 18.1629 10.7897 18.1629 8.59492C18.1629 3.8558 14.3123 0 9.58185 0C4.85038 0 1 3.856 1 8.59492C1 13.3338 4.85059 17.1898 9.58103 17.1898C11.2603 17.1898 12.8172 16.6978 14.1276 15.8773L17.8956 19.6514C18.1212 19.8774 18.4284 20 18.7357 20C19.0429 20 19.3501 19.8766 19.5757 19.6514C20.0677 19.1802 20.0677 18.4206 19.5965 17.9494L15.9716 14.3179ZM3.71618 8.59472C3.71618 5.36567 6.33766 2.72108 9.58033 2.72108C12.8238 2.72108 15.4256 5.36586 15.4256 8.59472C15.4256 11.8236 12.8042 14.4684 9.58111 14.4684C6.35727 14.4684 3.71618 11.8426 3.71618 8.59472Z" fill="#958AA8"/>
</svg>
