<svg width="40" height="41" viewBox="0 0 40 41" fill="none" xmlns="http://www.w3.org/2000/svg">
<circle cx="20" cy="20.5" r="20" fill="#00DAC6"/>
<path d="M29.6698 14.0296C29.411 13.7219 29.0297 13.5455 28.6279 13.5455H13.2974L13.168 12.6592C13.0659 11.9867 12.4853 11.4924 11.8059 11.5001H9.68105C9.30476 11.5001 9 11.8052 9 12.1819C9 12.5586 9.30476 12.8637 9.68105 12.8637H11.8195L13.6856 25.3408C13.7878 26.0133 14.3684 26.5076 15.0477 26.4999H28.0693C28.4456 26.4999 28.7504 26.1948 28.7504 25.8181C28.7504 25.4414 28.4456 25.1363 28.0693 25.1363H15.0342L14.7277 23.0909H27.4905C28.163 23.1003 28.7419 22.6162 28.8526 21.9523L29.9831 15.1342C30.0461 14.7379 29.9312 14.3339 29.6698 14.0297L29.6698 14.0296ZM27.4905 21.7271H14.5506L13.5018 14.9091H28.6278L27.4905 21.7271Z" fill="white"/>
<path d="M18 29C18 29.8287 17.3287 30.5 16.5 30.5C15.6713 30.5 15 29.8287 15 29C15 28.1713 15.6713 27.5 16.5 27.5C17.3287 27.5 18 28.1713 18 29Z" fill="white"/>
<path d="M27 29C27 29.8287 26.3287 30.5 25.5 30.5C24.6713 30.5 24 29.8287 24 29C24 28.1713 24.6713 27.5 25.5 27.5C26.3287 27.5 27 28.1713 27 29Z" fill="white"/>
</svg>
