<svg width="151" height="167" viewBox="0 0 151 167" fill="none" xmlns="http://www.w3.org/2000/svg">
<path opacity="0.05" d="M46.7517 150.762C46.4127 153.072 49.9466 153.527 51.3029 153.849C56.1137 154.996 61.057 154.304 65.8996 153.765C66.4506 153.659 67.0016 153.564 67.5527 153.484C72.6178 152.739 77.5187 154.415 82.5467 154.721C86.7217 154.975 90.9338 155.012 95.1141 154.51C95.7817 154.431 96.9314 154.362 97.3765 153.447C97.8215 152.527 97.403 151.803 96.799 151.47C93.8638 149.868 90.6318 149.778 87.5323 149.535C81.2168 149.044 74.9172 151.037 68.6335 150.334C67.2348 150.175 65.8572 149.815 64.4744 149.472C64.0134 149.355 63.5525 149.244 63.0915 149.144C60.4583 148.568 57.7562 148.409 55.0753 148.515C53.7084 148.568 52.3361 148.668 50.9744 148.843C49.8512 148.985 48.3465 148.97 47.3769 149.694C47.0114 149.969 46.81 150.355 46.7517 150.762Z" fill="#111111"/>
<path d="M84.5176 124.598C84.4699 125.312 84.4222 126.031 84.3322 126.75V126.702C84.3322 126.792 84.3322 126.93 84.311 127.035C84.2262 127.881 84.1361 128.722 84.0354 129.557C83.8341 131.259 83.5957 132.951 83.3308 134.638C82.8116 137.989 82.2023 141.309 81.5771 144.624C81.2221 146.501 80.8618 148.377 80.5121 150.254C80.3956 150.873 80.6552 151.613 81.1108 151.761C81.5612 151.909 82.038 151.571 82.1652 150.904C83.4155 144.196 84.7878 137.519 85.6302 130.673C85.7521 129.668 85.8686 128.664 85.964 127.659C86.0647 126.649 86.1494 125.64 86.2236 124.614C86.2713 123.969 85.7998 123.335 85.3706 123.356C84.8673 123.377 84.5653 123.895 84.5176 124.598Z" fill="#300000"/>
<path d="M81.2909 151.116C81.4817 151.227 81.6883 151.333 81.8949 151.423C82.1016 151.518 82.3188 151.597 82.536 151.671C83.3308 151.84 84.3798 152.083 85.3335 152.046C85.5719 152.036 85.805 152.009 86.0276 151.962C86.1918 151.93 86.3667 151.882 86.5468 151.824C86.7216 151.766 86.8965 151.687 87.0501 151.592C87.5535 151.333 87.5535 150.746 87.3468 150.286C87.0554 149.784 86.7216 149.366 86.2183 149.123C86.0859 149.054 85.9481 148.996 85.8103 148.954C84.5599 148.536 83.0976 148.954 82.1334 149.969C82.0486 150.053 81.9638 150.138 81.8843 150.228C81.789 150.46 81.5347 150.587 81.4393 150.825C81.381 150.92 81.3333 151.015 81.2856 151.116H81.2909Z" fill="#300000"/>
<path d="M80.9254 151.745C81.4711 152.057 82.0539 152.311 82.6632 152.443C83.2778 152.575 83.8924 152.691 84.5176 152.749C85.164 152.813 85.8157 152.781 86.4461 152.617C87.0343 152.469 87.7283 152.189 88.0303 151.623C88.6237 150.508 87.7177 149.17 86.764 148.589C85.7892 147.997 84.507 147.923 83.442 148.298C82.8168 148.52 82.2499 148.859 81.7678 149.313C81.6671 149.408 81.5718 149.509 81.4764 149.604C81.4022 149.683 81.3227 149.768 81.2645 149.858C81.2486 149.895 81.2327 149.926 81.2115 149.958C81.2698 149.889 81.2698 149.884 81.2168 149.942C80.9784 150.175 80.8088 150.439 80.6658 150.741C80.5015 151.084 80.5598 151.544 80.9307 151.74C81.2539 151.909 81.7572 151.845 81.932 151.475C81.9797 151.375 82.0327 151.28 82.0857 151.185C82.1069 151.153 82.2076 151.01 82.0963 151.142C82.1228 151.111 82.1493 151.084 82.1758 151.058C82.2711 150.957 82.3612 150.857 82.446 150.741C82.446 150.741 82.536 150.582 82.4884 150.667C82.4513 150.704 82.4619 150.693 82.5148 150.635C82.5466 150.598 82.5784 150.566 82.6155 150.529C82.695 150.45 82.7692 150.371 82.8539 150.296C82.8857 150.265 82.9175 150.238 82.9493 150.212C82.9493 150.212 83.1082 150.085 83.0288 150.148C82.944 150.212 83.1135 150.085 83.1082 150.09C83.1506 150.059 83.1983 150.032 83.2407 150C83.3414 149.937 83.442 149.879 83.5427 149.826C83.601 149.8 83.6593 149.773 83.7123 149.741C83.5798 149.789 83.6858 149.752 83.7123 149.741C83.8129 149.704 83.9083 149.667 84.009 149.641C84.1096 149.609 84.2103 149.588 84.311 149.567C84.3533 149.556 84.3904 149.551 84.4328 149.546C84.5176 149.535 84.5123 149.53 84.4222 149.546C84.4646 149.546 84.5017 149.535 84.5441 149.535C84.7295 149.519 84.9149 149.519 85.0951 149.535C85.1269 149.535 85.3229 149.578 85.1428 149.535C85.1852 149.546 85.2222 149.551 85.2646 149.556C85.3865 149.583 85.5031 149.615 85.6196 149.652C85.6037 149.646 85.8263 149.731 85.7362 149.694C85.6514 149.657 85.8686 149.757 85.8527 149.752C85.9481 149.8 86.0382 149.852 86.1229 149.911C86.1441 149.926 86.2395 149.985 86.1229 149.911C86.1706 149.953 86.2183 149.99 86.2607 150.032C86.2925 150.059 86.319 150.09 86.3455 150.122C86.3614 150.138 86.4991 150.302 86.4515 150.238C86.3879 150.154 86.5097 150.323 86.5097 150.318C86.5362 150.355 86.5574 150.386 86.5839 150.423C86.621 150.476 86.6528 150.534 86.6899 150.593C86.7693 150.714 86.7058 150.608 86.6899 150.577C86.7058 150.624 86.7799 150.783 86.7587 150.836L86.7482 150.746C86.7482 150.783 86.7482 150.815 86.7482 150.852V150.904C86.7376 150.989 86.7429 150.973 86.7482 150.862C86.7376 150.862 86.7322 150.957 86.7217 150.957L86.7587 150.878C86.7428 150.91 86.727 150.936 86.7058 150.968C86.7693 150.841 86.7429 150.899 86.7164 150.941L86.7799 150.899C86.7482 150.92 86.7164 150.941 86.6793 150.957C86.6422 150.978 86.5998 151.005 86.5627 151.026C86.5521 151.026 86.3455 151.121 86.4832 151.068C86.3667 151.116 86.2448 151.153 86.1229 151.185C86.0011 151.216 85.8792 151.243 85.7574 151.269C85.7574 151.269 85.5137 151.306 85.6461 151.29C85.5931 151.296 85.5401 151.301 85.4872 151.306C85.2117 151.327 84.9308 151.322 84.6553 151.301C84.5176 151.29 84.3798 151.275 84.2421 151.259C84.099 151.243 84.4116 151.285 84.1732 151.248C84.099 151.238 84.0249 151.227 83.9507 151.211C83.6699 151.163 83.3838 151.105 83.103 151.047C82.8433 150.994 82.6049 150.926 82.3559 150.836C82.1281 150.751 82.4142 150.862 82.2817 150.809C82.2022 150.772 82.1228 150.735 82.0433 150.698C81.9109 150.635 81.7784 150.561 81.6459 150.487C81.3121 150.296 80.83 150.397 80.6446 150.751C80.4591 151.1 80.5545 151.549 80.9095 151.75L80.9254 151.745Z" fill="#300000"/>
<path d="M60.3469 124.63C60.3787 125.053 60.4105 125.476 60.4476 125.899C60.4635 126.1 60.4794 126.301 60.5006 126.501C60.5112 126.591 60.5165 126.681 60.5271 126.766C60.5112 126.602 60.5483 126.993 60.5536 127.041C60.6384 127.881 60.7284 128.722 60.8291 129.562C61.0304 131.265 61.2689 132.956 61.5338 134.643C62.053 137.995 62.6623 141.315 63.2875 144.629C63.6425 146.506 64.0027 148.383 64.3524 150.259C64.469 150.878 64.2094 151.618 63.7537 151.766C63.3034 151.914 62.8265 151.576 62.6994 150.91C61.449 144.201 60.0767 137.524 59.2343 130.678C59.1125 129.673 58.9959 128.669 58.9005 127.664C58.7999 126.655 58.7151 125.645 58.6409 124.635C58.5932 123.996 59.0648 123.382 59.4939 123.409C59.9973 123.44 60.2993 123.948 60.3523 124.635L60.3469 124.63Z" fill="#300000"/>
<path d="M63.5683 151.116C63.3776 151.227 63.171 151.333 62.9643 151.423C62.7577 151.518 62.5405 151.597 62.3233 151.671C61.5285 151.84 60.4795 152.083 59.5258 152.046C59.2874 152.036 59.0542 152.009 58.8317 151.962C58.6675 151.93 58.4926 151.882 58.3125 151.824C58.1376 151.766 57.9628 151.687 57.8091 151.592C57.3058 151.333 57.3058 150.746 57.5124 150.286C57.8038 149.784 58.1376 149.366 58.641 149.123C58.7734 149.054 58.9112 148.996 59.0489 148.954C60.2993 148.536 61.7616 148.954 62.7259 149.969C62.8107 150.053 62.8955 150.138 62.9749 150.228C63.0703 150.46 63.3246 150.587 63.42 150.825C63.4783 150.92 63.526 151.015 63.5736 151.116H63.5683Z" fill="#300000"/>
<path d="M63.9392 151.745C63.3935 152.057 62.8107 152.311 62.2014 152.443C61.5868 152.575 60.9722 152.691 60.347 152.749C59.7006 152.813 59.0489 152.781 58.4184 152.617C57.8303 152.469 57.1362 152.189 56.8342 151.623C56.2408 150.508 57.1468 149.17 58.1005 148.589C59.0754 147.997 60.3576 147.923 61.4225 148.298C62.0477 148.52 62.6146 148.859 63.0968 149.313C63.1974 149.408 63.2928 149.509 63.3882 149.604C63.4624 149.683 63.5418 149.768 63.6001 149.858C63.616 149.895 63.6319 149.926 63.6531 149.958C63.5948 149.889 63.5948 149.884 63.6478 149.942C63.8862 150.175 64.0558 150.439 64.1988 150.741C64.3631 151.084 64.3048 151.544 63.9339 151.74C63.6107 151.909 63.1074 151.845 62.9325 151.475C62.8848 151.375 62.8319 151.28 62.7789 151.185C62.7577 151.153 62.657 151.01 62.7683 151.142C62.7418 151.111 62.7153 151.084 62.6888 151.058C62.5934 150.957 62.5034 150.857 62.4186 150.741C62.4186 150.741 62.3285 150.582 62.3762 150.667C62.4133 150.704 62.4027 150.693 62.3497 150.635C62.3179 150.598 62.2861 150.566 62.249 150.529C62.1696 150.45 62.0954 150.371 62.0106 150.296C61.9788 150.265 61.947 150.238 61.9153 150.212C61.9153 150.212 61.7563 150.085 61.8358 150.148C61.9206 150.212 61.751 150.085 61.7563 150.09C61.7139 150.059 61.6662 150.032 61.6239 150C61.5232 149.937 61.4225 149.879 61.3219 149.826C61.2636 149.8 61.2053 149.773 61.1523 149.741C61.1788 149.752 61.2848 149.789 61.1523 149.741C61.057 149.704 60.9563 149.667 60.8556 149.641C60.7549 149.609 60.6543 149.588 60.5536 149.567C60.5112 149.556 60.4741 149.551 60.4317 149.546C60.347 149.535 60.3523 149.53 60.4423 149.546C60.4 149.546 60.3629 149.535 60.3205 149.535C60.1351 149.519 59.9496 149.519 59.7695 149.535C59.7377 149.535 59.5416 149.578 59.7218 149.535C59.6794 149.546 59.6423 149.551 59.5999 149.556C59.4781 149.583 59.3615 149.615 59.2449 149.652C59.2608 149.646 59.0383 149.731 59.1284 149.694C59.2132 149.657 58.9959 149.757 59.0118 149.752C58.9165 149.8 58.8264 149.852 58.7416 149.911C58.625 149.985 58.7204 149.926 58.7416 149.911C58.6939 149.953 58.6462 149.99 58.6038 150.032C58.5721 150.059 58.5456 150.09 58.5191 150.122C58.5032 150.138 58.3654 150.302 58.4131 150.238C58.4767 150.154 58.3548 150.323 58.3548 150.318C58.3284 150.355 58.3072 150.386 58.2807 150.423C58.2436 150.476 58.2118 150.534 58.1747 150.593C58.0952 150.714 58.1588 150.608 58.1747 150.577C58.1588 150.624 58.0846 150.783 58.1058 150.836L58.1164 150.746C58.1164 150.783 58.1164 150.815 58.1164 150.852V150.904C58.127 150.989 58.1217 150.973 58.1164 150.862C58.127 150.862 58.1323 150.957 58.1429 150.957L58.1058 150.878C58.1217 150.91 58.1376 150.936 58.1588 150.968C58.0952 150.841 58.1217 150.899 58.1482 150.941L58.0846 150.899C58.1164 150.92 58.1482 150.941 58.1853 150.957C58.2224 150.978 58.2648 151.005 58.3019 151.026C58.3125 151.026 58.5191 151.121 58.3813 151.068C58.4979 151.116 58.6197 151.153 58.7416 151.185C58.8635 151.216 58.9853 151.243 59.1072 151.269C59.1072 151.269 59.3509 151.306 59.2184 151.29C59.2714 151.296 59.3244 151.301 59.3774 151.306C59.6529 151.327 59.9337 151.322 60.2092 151.301C60.347 151.29 60.4847 151.275 60.6225 151.259C60.7655 151.243 60.4529 151.285 60.6914 151.248C60.7655 151.238 60.8397 151.227 60.9139 151.211C61.1947 151.163 61.4808 151.105 61.7616 151.047C62.0212 150.994 62.2597 150.926 62.5087 150.836C62.7365 150.751 62.4504 150.862 62.5828 150.809C62.6623 150.772 62.7418 150.735 62.8213 150.698C62.9537 150.635 63.0862 150.561 63.2186 150.487C63.5524 150.296 64.0346 150.397 64.22 150.751C64.4054 151.1 64.3101 151.549 63.9551 151.75L63.9392 151.745Z" fill="#300000"/>
<path d="M115.995 102.093C117.07 102.949 118.082 103.848 119.025 104.832L118.983 104.795C120.244 106.185 121.436 107.665 122.241 109.341V109.262C123.682 112.111 124.323 115.325 124.074 118.529C124.048 118.936 124.016 119.343 123.968 119.75C123.942 119.967 123.915 120.184 123.889 120.395C123.873 120.496 123.857 120.596 123.847 120.697C123.831 120.797 123.847 120.665 123.852 120.654C123.841 120.728 123.825 120.808 123.815 120.882C123.735 121.347 123.91 121.876 124.424 122.008C124.853 122.113 125.468 121.897 125.553 121.4C125.823 119.835 125.945 118.254 125.918 116.679C125.992 110.361 122.098 104.721 117.203 101.02C116.773 100.745 116.159 100.608 115.809 101.12C115.602 101.459 115.687 101.892 115.995 102.093Z" fill="#300000"/>
<path d="M124.08 121.907C124.318 121.96 124.535 122.039 124.742 122.14C124.949 122.24 125.139 122.367 125.314 122.51C126.257 123.366 126.93 124.619 126.633 125.983C126.586 126.195 126.522 126.396 126.443 126.586C126.014 127.86 124.594 128.595 123.38 128.198C121.478 127.559 121.441 125.026 122.474 123.467C122.633 123.197 122.819 122.954 123.025 122.732C123.221 122.526 123.439 122.341 123.682 122.182C123.799 122.103 123.931 122.008 124.08 121.902V121.907Z" fill="#300000"/>
<path d="M123.847 122.684C124.016 122.727 124.191 122.774 124.35 122.843C124.212 122.78 124.461 122.907 124.461 122.907C124.535 122.949 124.61 122.996 124.678 123.044C124.694 123.055 124.901 123.229 124.763 123.102C124.811 123.144 124.859 123.192 124.901 123.24C124.991 123.335 125.081 123.43 125.166 123.53C125.208 123.578 125.251 123.631 125.288 123.684C125.309 123.71 125.431 123.89 125.319 123.721C125.394 123.826 125.463 123.937 125.526 124.054C125.579 124.149 125.627 124.244 125.674 124.344C125.701 124.403 125.727 124.466 125.749 124.524C125.674 124.339 125.77 124.604 125.78 124.641C125.818 124.767 125.844 124.894 125.865 125.026C125.871 125.069 125.876 125.111 125.881 125.159C125.86 124.968 125.881 125.19 125.881 125.217C125.881 125.354 125.881 125.486 125.865 125.624C125.865 125.65 125.818 125.872 125.86 125.693C125.839 125.793 125.812 125.893 125.786 125.994C125.749 126.121 125.701 126.242 125.653 126.364C125.632 126.427 125.606 126.491 125.579 126.549C125.659 126.359 125.569 126.554 125.553 126.586C125.489 126.702 125.415 126.808 125.335 126.908C125.463 126.739 125.335 126.908 125.304 126.935C125.261 126.982 125.214 127.025 125.166 127.067C125.118 127.109 125.065 127.146 125.017 127.189C124.859 127.321 125.161 127.115 124.98 127.21C124.869 127.268 124.758 127.326 124.647 127.384C124.466 127.474 124.8 127.347 124.604 127.4C124.551 127.416 124.504 127.432 124.456 127.442C124.403 127.453 124.355 127.469 124.302 127.474C124.26 127.479 124.223 127.49 124.18 127.495C124.286 127.485 124.292 127.485 124.202 127.495C124.074 127.495 123.953 127.495 123.825 127.485C123.624 127.469 123.979 127.532 123.783 127.474C123.73 127.458 123.682 127.448 123.629 127.432C123.576 127.416 123.529 127.395 123.481 127.379C123.285 127.31 123.629 127.469 123.455 127.368C123.38 127.321 123.147 127.231 123.11 127.146L123.19 127.21C123.163 127.183 123.137 127.157 123.105 127.131C123.062 127.094 123.025 127.051 122.988 127.009C122.962 126.982 122.941 126.951 122.919 126.924C122.798 126.782 123.004 127.078 122.914 126.914C122.861 126.819 122.803 126.723 122.755 126.618C122.734 126.57 122.639 126.433 122.745 126.602C122.707 126.544 122.697 126.449 122.676 126.385C122.649 126.29 122.633 126.2 122.617 126.105C122.607 126.047 122.601 125.989 122.591 125.93C122.617 126.142 122.591 125.941 122.591 125.904C122.58 125.661 122.596 125.423 122.628 125.185C122.601 125.391 122.628 125.19 122.639 125.153C122.654 125.074 122.676 124.995 122.697 124.915C122.734 124.778 122.776 124.641 122.829 124.508C122.845 124.471 122.861 124.434 122.872 124.392C122.888 124.355 122.903 124.318 122.919 124.281C122.872 124.387 122.866 124.397 122.909 124.313C122.978 124.191 123.041 124.064 123.115 123.943C123.216 123.784 123.317 123.625 123.433 123.472C123.444 123.456 123.539 123.351 123.455 123.446C123.529 123.361 123.608 123.282 123.688 123.203C124.011 122.891 124.233 122.769 124.62 122.494C124.964 122.246 124.954 121.632 124.668 121.347C124.323 121.009 123.889 121.035 123.518 121.299C123.481 121.326 123.449 121.352 123.412 121.373C123.296 121.458 123.492 121.315 123.386 121.389C123.301 121.447 123.221 121.506 123.137 121.564C122.941 121.701 122.755 121.844 122.586 122.008C122.273 122.309 122.003 122.663 121.775 123.028C121.452 123.541 121.197 124.112 121.081 124.715C120.842 125.936 120.996 127.368 121.955 128.262C122.999 129.235 124.588 129.377 125.791 128.6C127.084 127.765 127.677 126.168 127.455 124.678C127.216 123.065 125.908 121.495 124.302 121.12C123.889 121.024 123.402 121.225 123.29 121.664C123.19 122.071 123.396 122.568 123.836 122.674L123.847 122.684Z" fill="#300000"/>
<path d="M121.637 123.25C121.552 123.351 121.468 123.451 121.372 123.546C121.346 123.573 121.319 123.599 121.288 123.625L121.346 123.583C121.393 123.583 121.637 123.541 121.648 123.583C121.621 123.583 121.595 123.573 121.574 123.562C121.531 123.546 121.542 123.551 121.6 123.578C121.658 123.604 121.669 123.61 121.627 123.588C121.6 123.578 121.579 123.562 121.558 123.546C121.436 123.483 121.611 123.567 121.595 123.583L121.558 123.546C121.51 123.493 121.51 123.493 121.552 123.546C121.584 123.599 121.59 123.604 121.568 123.567C121.552 123.546 121.542 123.525 121.531 123.499C121.568 123.499 121.579 123.689 121.579 123.715C121.579 123.573 121.579 123.858 121.579 123.758C121.526 123.832 121.579 123.705 121.579 123.758C121.616 123.71 121.642 123.652 121.674 123.599C121.711 123.536 121.722 123.525 121.674 123.588C121.754 123.493 121.849 123.414 121.939 123.329C121.987 123.287 122.013 123.266 121.945 123.319C121.992 123.282 122.05 123.25 122.103 123.218C122.199 123.16 122.299 123.107 122.405 123.065C122.453 123.044 122.501 123.028 122.543 123.007C122.416 123.06 122.57 122.996 122.596 122.991C122.702 122.959 122.813 122.933 122.919 122.901C123.412 122.769 123.915 122.663 124.424 122.605C124.302 122.077 124.18 121.553 124.058 121.024C123.38 121.098 122.729 121.5 122.321 122.034C122.13 122.283 121.939 122.531 121.77 122.79C121.701 122.896 121.632 123.007 121.568 123.118C121.446 123.34 121.404 123.557 121.372 123.811C121.325 124.233 121.748 124.651 122.162 124.646C122.633 124.641 122.946 124.313 122.999 123.858C123.02 123.657 122.951 123.985 122.946 123.98C122.946 123.98 123.015 123.858 123.025 123.853C123.089 123.752 123.152 123.652 123.216 123.557C123.349 123.356 123.502 123.155 123.651 122.97C123.598 123.039 123.64 122.986 123.672 122.954C123.709 122.917 123.751 122.885 123.788 122.848C123.831 122.806 123.868 122.78 123.799 122.832C123.836 122.806 123.878 122.78 123.921 122.758C123.963 122.737 124.006 122.716 124.048 122.69C124.223 122.6 123.984 122.69 124.09 122.674C124.202 122.653 124.308 122.621 124.424 122.61C124.848 122.563 125.139 122.029 125.033 121.638C124.906 121.172 124.514 120.982 124.058 121.03C123.396 121.098 122.718 121.236 122.088 121.463C121.356 121.722 120.673 122.135 120.254 122.806C120.037 123.15 119.894 123.536 119.979 123.943C120.058 124.323 120.302 124.614 120.599 124.852C120.89 125.079 121.325 125.233 121.69 125.159C122.146 125.069 122.437 124.773 122.729 124.445C123.009 124.128 123.11 123.631 122.776 123.298C122.49 123.018 121.929 122.907 121.627 123.25H121.637Z" fill="#300000"/>
<path d="M114.961 54.635L78.2604 22.9946C77.063 21.9637 75.5318 21.3927 73.9529 21.3875C72.3688 21.3875 70.8376 21.9425 69.6349 22.9682L32.7273 54.3707C31.2544 55.6236 30.4067 57.4475 30.4014 59.3771L30.1947 123.689C30.1841 127.337 33.1458 130.308 36.7963 130.324L110.405 130.562C114.061 130.572 117.038 127.617 117.054 123.974L117.261 59.6626C117.266 57.733 116.429 55.8985 114.967 54.6403L114.961 54.635Z" fill="url(#paint0_linear_406_13435)"/>
<path opacity="0.8" d="M54.1555 49.3927C61.2317 43.2028 66.191 37.3003 65.2323 36.2092C64.2736 35.118 57.76 39.2514 50.6838 45.4413C43.6075 51.6312 38.6483 57.5337 39.607 58.6248C40.5656 59.716 47.0793 55.5826 54.1555 49.3927Z" fill="white"/>
<path d="M118.336 44.5005L118.098 44.6909C117.902 44.8336 117.759 45.0134 117.663 45.2301C117.526 45.431 117.451 45.6583 117.436 45.9068C117.399 46.1553 117.425 46.3879 117.515 46.6152C117.563 46.8478 117.669 47.054 117.828 47.2337L118.161 47.5562C118.426 47.7518 118.718 47.8628 119.046 47.8998C119.211 47.8998 119.369 47.8893 119.534 47.8893C119.846 47.8364 120.132 47.7095 120.381 47.5139L120.62 47.3236C120.816 47.1809 120.959 47.0011 121.054 46.7844C121.192 46.5835 121.266 46.3562 121.282 46.1077C121.319 45.8592 121.293 45.6266 121.203 45.3993C121.155 45.1667 121.049 44.9605 120.89 44.7807L120.556 44.4583C120.291 44.2626 120 44.1516 119.671 44.1146C119.507 44.1146 119.348 44.1252 119.184 44.1252C118.871 44.1781 118.585 44.3049 118.336 44.5005Z" fill="#7ACDEA"/>
<path d="M117.293 25.4529C117.637 25.0141 117.881 24.4748 118.008 23.962C118.548 21.7628 120.371 19.5371 122.909 20.605C125.293 21.7205 124.09 24.7022 123.078 26.5049C122.94 26.7375 122.797 26.9701 122.654 27.1974C121.637 28.7993 120.445 30.3165 119.56 31.9871C118.103 34.7309 117.494 37.8976 118.31 40.9268C118.654 41.8467 119.412 41.6088 120.074 41.2017C120.567 40.8951 120.758 40.1021 120.879 39.5681C120.975 36.7874 121.971 34.3555 123.534 32.3466C125.701 29.5658 128.297 26.5366 128.392 22.8254C128.451 20.6367 127.423 18.5485 125.796 17.1053C123.862 15.3871 121.828 15.2391 119.343 15.2708C119.046 15.3184 118.75 15.3818 118.453 15.4664C114.861 16.4762 110.606 21.5936 113.314 25.2678C113.965 26.156 115.194 26.6793 116.222 26.2829C116.646 26.119 117.006 25.8176 117.293 25.4529Z" fill="#7ACDEA"/>
<path d="M125.092 59.8C125.033 59.8 124.975 59.8106 124.917 59.8159C124.779 59.8212 124.652 59.8635 124.535 59.9322C124.403 59.9851 124.297 60.0697 124.207 60.1807C124.111 60.2864 124.048 60.408 124.016 60.5455C123.963 60.6723 123.947 60.8045 123.963 60.942L124.021 61.201C124.085 61.3808 124.186 61.5288 124.334 61.6504L124.572 61.8037C124.742 61.8777 124.917 61.9094 125.097 61.8988L125.272 61.883C125.409 61.8777 125.537 61.8354 125.653 61.7667C125.786 61.7138 125.892 61.6292 125.982 61.5182C126.077 61.4125 126.141 61.2909 126.172 61.1534C126.225 61.0265 126.241 60.8944 126.225 60.7569L126.167 60.4979C126.104 60.3181 126.003 60.1701 125.855 60.0485L125.616 59.8952C125.447 59.8212 125.272 59.7895 125.092 59.8Z" fill="#300000"/>
<path d="M130.777 50.3687C131.084 50.2683 131.375 50.0938 131.603 49.8876C132.578 49.0101 134.167 48.5396 135.031 49.8665C135.805 51.167 134.268 52.2032 133.198 52.7371C133.055 52.8059 132.912 52.8693 132.769 52.9327C131.762 53.3662 130.702 53.7099 129.738 54.2227C128.154 55.0632 126.835 56.3743 126.241 58.0872C126.109 58.637 126.549 58.7692 126.994 58.785C127.327 58.8009 127.677 58.4784 127.91 58.2669C128.859 56.9664 130.125 56.1311 131.524 55.6765C133.463 55.0474 135.683 54.4447 136.933 52.7001C137.67 51.6745 137.855 50.3423 137.548 49.1317C137.182 47.6884 136.26 46.9588 135.063 46.1711C134.904 46.0971 134.745 46.0337 134.575 45.9755C132.53 45.2989 128.843 46.3667 128.938 48.9942C128.965 49.6286 129.378 50.2788 129.998 50.4163C130.257 50.4745 130.522 50.448 130.782 50.3687H130.777Z" fill="#300000"/>
<path d="M73.6139 38.0879C70.4773 38.0033 67.9924 35.3917 68.0772 32.262C68.162 29.1324 70.7793 26.6529 73.9159 26.7375C77.0524 26.8221 79.5373 29.4337 79.4578 32.5634C79.373 35.6931 76.7557 38.1725 73.6192 38.0879H73.6139ZM73.847 29.3491C72.1568 29.3068 70.7422 30.6443 70.6945 32.3361C70.6521 34.0278 71.9926 35.4393 73.6827 35.4816C75.3782 35.5239 76.7928 34.1864 76.8352 32.4947C76.8776 30.8029 75.5371 29.3914 73.847 29.3491Z" fill="white"/>
<path d="M73.6033 38.3839C70.3025 38.2994 67.6851 35.545 67.7752 32.2567C67.86 28.9632 70.6204 26.3569 73.9212 26.4415C77.222 26.526 79.8393 29.2804 79.7492 32.5687C79.6645 35.8622 76.9041 38.4685 73.6033 38.3839ZM73.9053 27.0336C70.9329 26.9543 68.4534 29.3068 68.3739 32.2726C68.2944 35.2384 70.6468 37.7178 73.6245 37.7918C76.5968 37.8711 79.0817 35.5186 79.1558 32.5528C79.2353 29.587 76.8829 27.1076 73.9053 27.0283V27.0336Z" fill="white"/>
<path d="M73.6721 35.7248C71.8548 35.6772 70.4084 34.1599 70.4561 32.3466C70.5038 30.5333 72.0244 29.09 73.8417 29.1376C75.659 29.1852 77.1054 30.7025 77.0577 32.5158C77.01 34.3291 75.4894 35.767 73.6721 35.7195V35.7248ZM73.8364 29.4654C72.1992 29.4231 70.8323 30.7183 70.7846 32.3519C70.7422 33.9855 72.0403 35.3547 73.6774 35.397C75.3146 35.4393 76.6868 34.1441 76.7292 32.5105C76.7716 30.8769 75.4735 29.5077 73.8364 29.4654Z" fill="white"/>
<path d="M71.4733 31.2417C71.5316 28.979 70.9117 26.3252 70.3077 23.7612C69.3964 19.8913 68.6176 16.5502 70.0375 14.425C71.7011 11.9244 76.7663 12.0671 78.2975 14.6417C79.6008 16.8357 78.6418 20.1345 77.5345 23.9462C76.7981 26.4785 76.0351 29.0954 75.9715 31.358" stroke="#191919" stroke-width="3" stroke-miterlimit="10" stroke-linecap="round"/>
<path d="M50.3068 98.0276C50.0631 95.3632 51.7903 92.7833 54.3176 92.0114C56.262 91.4299 58.2277 92.0326 59.6529 93.497C61.0305 95.0142 61.6027 97.0919 61.0781 99.085C60.5165 101.284 58.7946 103.039 56.5852 103.383C54.2328 103.732 51.8751 102.426 50.8684 100.243C50.5505 99.5713 50.3492 98.8259 50.3015 98.0276H50.3068Z" fill="#300000"/>
<path d="M55.1176 96.4311C55.0646 95.5852 55.6104 94.8609 56.3362 94.5226C57.5919 94.0045 58.9906 95.0565 58.8741 96.3941C58.8158 97.0866 58.4078 97.7051 57.7826 97.9906C57.1098 98.329 56.2621 98.2285 55.7322 97.7263C55.3772 97.4091 55.1441 96.9544 55.1176 96.4311Z" fill="white"/>
<path d="M89.4767 95.1094C89.233 92.445 90.9603 89.8651 93.4875 89.0932C95.432 88.5117 97.3976 89.1144 98.8228 90.5788C100.2 92.096 100.773 94.1737 100.248 96.1667C99.6865 98.366 97.9645 100.121 95.7552 100.465C93.4027 100.814 91.045 99.5079 90.0384 97.3245C89.7205 96.6531 89.5191 95.9077 89.4714 95.1094H89.4767Z" fill="#300000"/>
<path d="M94.2929 93.5129C94.2399 92.667 94.7856 91.9427 95.5115 91.6044C96.7671 91.0863 98.1659 92.1383 98.0493 93.4758C97.991 94.1684 97.5831 94.7869 96.9579 95.0724C96.285 95.4108 95.4373 95.3103 94.9075 94.8081C94.5525 94.4909 94.3194 94.0362 94.2929 93.5129Z" fill="white"/>
<path d="M55.658 104.382C55.658 104.382 55.6368 104.387 55.6263 104.393C55.6157 104.393 55.6051 104.393 55.5945 104.393C53.9361 104.736 51.7903 105.799 51.4089 107.633C51.0168 109.51 53.0036 110.71 54.5825 111.017C56.2355 111.334 58.0052 110.996 59.4675 110.176C60.8079 109.426 62.0053 107.956 61.1258 106.402C60.0662 104.535 57.6078 104.023 55.658 104.382Z" fill="#F46E6E"/>
<path d="M100.879 105.318C100.81 103.129 98.0228 102.098 96.2108 101.945C96.2002 101.945 96.1896 101.945 96.179 101.945C96.1684 101.945 96.1578 101.945 96.1472 101.945C94.2876 101.834 92.3378 102.468 91.257 104.07C90.8225 104.715 90.6159 105.513 90.9126 106.259C91.1987 106.983 91.8186 107.512 92.4861 107.877C93.9379 108.675 95.7446 108.902 97.3605 108.569C98.8864 108.252 100.937 107.126 100.879 105.318Z" fill="#F46E6E"/>
<path d="M78.7531 98.8365C78.6842 98.8418 78.6153 98.8523 78.5465 98.8629C76.4642 99.1325 74.3979 99.3757 72.2945 99.381C71.823 99.381 71.5051 99.6876 71.3408 100.1C71.2561 100.306 71.2137 100.533 71.2137 100.761C71.2243 102.13 72.6442 102.278 73.7198 102.215C75.2139 102.13 76.7292 102.093 78.1809 101.702C78.8061 101.533 79.6432 101.284 80.0035 100.692C80.3849 100.058 79.9876 98.9739 79.2246 98.8417C79.0657 98.8153 78.9067 98.8206 78.7478 98.8417L78.7531 98.8365Z" fill="#300000"/>
<path d="M47.1226 118.624C49.014 121.521 52.2937 122.864 55.6845 122.959C59.3562 123.06 62.9378 121.865 65.7777 119.544C67.5685 118.085 69.0414 116.235 70.1328 114.205C70.3766 113.75 70.3289 113.2 69.8785 112.888C69.4918 112.619 68.803 112.693 68.5593 113.142C66.8585 116.309 64.2041 119.005 60.7814 120.268C58.18 121.231 55.1017 121.41 52.4685 120.49C51.0115 119.983 49.6763 119.09 48.8286 117.784C48.5478 117.356 48.0551 117.107 47.557 117.356C47.1385 117.562 46.8418 118.191 47.1279 118.624H47.1226Z" fill="#300000"/>
<path d="M70.3395 106.999C69.1527 107.269 68.3261 108.263 67.8652 109.341C67.6957 109.309 67.5261 109.309 67.3672 109.33C66.9804 109.383 66.6148 109.521 66.3499 109.812C66.0638 110.129 65.9896 110.541 66.0055 110.959C66.0267 111.667 66.3393 112.323 66.7579 112.878C68.4162 115.061 71.6217 115.151 73.3489 113.005C74.3185 111.799 74.6152 110.081 73.9052 108.68C73.2429 107.374 71.7594 106.687 70.3395 107.01V106.999Z" fill="#300000"/>
<defs>
<linearGradient id="paint0_linear_406_13435" x1="28.8129" y1="72.8506" x2="121.701" y2="83.4408" gradientUnits="userSpaceOnUse">
<stop offset="0.09" stop-color="#F44100"/>
<stop offset="0.1" stop-color="#F33F00"/>
<stop offset="0.29" stop-color="#EC250E"/>
<stop offset="0.48" stop-color="#E71319"/>
<stop offset="0.68" stop-color="#E4081F"/>
<stop offset="0.91" stop-color="#E30521"/>
</linearGradient>
</defs>
</svg>
