<svg xmlns="http://www.w3.org/2000/svg" width="15" height="15" viewBox="0 0 15 15">
    <path fill="#000" fill-rule="evenodd" d="M6.22 7.389c-1.341 1.212-2.289 2.952-2.399 4.547C.601 11.856 0 11.186 0 9.416 0 8.01 1.121 6.112 2.716 5.202a2.888 2.888 0 0 1-1.074-2.266c0-1.627 1.31-2.936 2.905-2.936 1.169 0 2.18.702 2.637 1.708a4.484 4.484 0 0 0-.963 5.68zm5.812.24C13.783 8.6 15 10.692 15 12.239 15 14.314 14.242 15 10.026 15s-4.974-.686-4.974-2.76c0-1.548 1.216-3.639 2.968-4.627a3.23 3.23 0 0 1-1.168-2.49c0-1.771 1.421-3.207 3.174-3.207S13.2 3.352 13.2 5.139c0 1.005-.458 1.9-1.168 2.49z" opacity=".2"/>
</svg>
