<svg width="20" height="20" viewBox="0 0 20 20" fill="none" xmlns="http://www.w3.org/2000/svg">
<path d="M10.9677 9.99997C10.9677 11.2903 9.03223 11.2903 9.03223 9.99997C9.03223 8.70965 10.9677 8.70965 10.9677 9.99997Z" fill="#958AA8"/>
<path d="M9.03226 18.0028V20H10.9677V18.0028C12.7583 17.786 14.4242 16.9745 15.6994 15.6994C16.9745 14.4242 17.7861 12.7583 18.0028 10.9677H20V9.03226H18.0028C17.786 7.24168 16.9745 5.57581 15.6994 4.30065C14.4242 3.02548 12.7583 2.21393 10.9677 1.99723V0H9.03226V1.99723C7.24168 2.21396 5.57581 3.02545 4.30065 4.30065C3.02548 5.57584 2.21394 7.24168 1.99723 9.03226H0V10.9677H1.99723C2.21396 12.7583 3.02545 14.4242 4.30065 15.6994C5.57584 16.9745 7.24168 17.7861 9.03226 18.0028ZM10 3.87084C12.19 3.87084 14.2126 5.03893 15.3074 6.93535C16.4023 8.83177 16.4024 11.1679 15.3074 13.0644C14.2124 14.9608 12.19 16.1289 10 16.1289C7.81003 16.1289 5.78742 14.9608 4.69258 13.0644C3.59774 11.168 3.59758 8.83181 4.69258 6.93535C5.78758 5.0389 7.81003 3.87084 10 3.87084Z" fill="#958AA8"/>
</svg>
