<svg width="114" height="114" fill="none" xmlns="http://www.w3.org/2000/svg"><path d="M110.589 69.544c-3.868 6.827-9.642 15.474-17.607 23.438-7.936 7.936-16.611 13.739-23.438 17.607-7.794 4.409-17.323 4.409-25.088 0-1.621-.91-3.356-1.962-5.177-3.1V79.784A28.727 28.727 0 0057 85.871C72.93 85.871 85.871 72.93 85.871 57c0-15.929-12.942-28.871-28.87-28.871-15.93 0-28.872 12.942-28.872 28.871v42.41a98.058 98.058 0 01-7.111-6.428C13.082 85.046 7.279 76.371 3.41 69.544-1 61.75-1 52.221 3.41 44.456c3.868-6.827 9.642-15.474 17.607-23.438C28.954 13.082 37.629 7.279 44.456 3.41a25.446 25.446 0 0125.088 0c6.827 3.868 15.474 9.642 23.438 17.607 7.936 7.936 13.739 16.611 17.607 23.438a25.446 25.446 0 010 25.088zM74.721 57c0-9.757-7.936-17.72-17.72-17.72-9.757 0-17.722 7.935-17.722 17.72 0 9.756 7.936 17.72 17.721 17.72 9.757 0 17.72-7.964 17.72-17.72z" fill="#26D37C"/></svg>