<svg width="364" height="415" fill="none" xmlns="http://www.w3.org/2000/svg"><g clip-path="url(#a)"><circle opacity=".4" cx="286.5" cy="89.5" r="65.03" stroke="#fff" stroke-width=".94"/><circle opacity=".4" cx="286.5" cy="89.5" r="152.03" stroke="#fff" stroke-width=".94"/><circle opacity=".4" cx="286.5" cy="89.5" r="246.03" stroke="#fff" stroke-width=".94"/><rect x="21" y="73" width="304" height="254" rx="6.51" fill="#fff"/><rect x="40" y="243" width="40" height="4" rx="2" fill="#E4E4E4"/><rect x="103" y="133" width="40" height="4" rx="2" fill="#E4E4E4"/><rect x="103" y="186" width="26" height="4" rx="2" fill="#E4E4E4"/><rect x="40" y="259" width="69" height="4" rx="2" fill="#E4E4E4"/><rect x="103.04" y="149.76" width="153.96" height="22.48" rx="3" fill="#EEE"/><path d="m246.87 163.25-2.8-2.88-2.79 2.88-.86-.89 3.65-3.76 3.66 3.76-.86.89ZM47.7 284l-1.7 4.68h-.7l1.96-5.14h.45l-.02.45Zm1.42 4.68-1.7-4.69-.01-.45h.44l1.97 5.14h-.7Zm-.09-1.9v.55h-2.88v-.55h2.88Zm3.87 1.16v-4.68h.65v5.42h-.6l-.05-.74Zm-2.58-1.13v-.07c0-.3.04-.56.11-.8s.18-.44.3-.62c.14-.17.3-.3.48-.4.2-.09.4-.13.63-.13.24 0 .45.04.62.13.19.08.34.2.46.36.13.16.23.35.3.57.08.22.13.48.16.76v.32c-.03.28-.08.54-.16.76-.07.22-.17.41-.3.57-.12.16-.27.28-.46.37a1.53 1.53 0 0 1-1.25-.02c-.18-.1-.34-.24-.47-.41a1.99 1.99 0 0 1-.3-.62 2.7 2.7 0 0 1-.12-.77Zm.66-.07v.07c0 .2.02.37.06.54.04.16.1.31.18.44.08.13.19.23.32.3.12.07.27.1.45.1a.95.95 0 0 0 .87-.5c.09-.15.15-.31.2-.49v-.85a1.9 1.9 0 0 0-.12-.37 1.14 1.14 0 0 0-.2-.33.88.88 0 0 0-.31-.23.99.99 0 0 0-.43-.08.9.9 0 0 0-.46.11.9.9 0 0 0-.32.3c-.08.13-.14.28-.18.45-.04.17-.06.35-.06.54Zm6.07 1.2v-4.68h.66v5.42h-.6l-.06-.74Zm-2.57-1.13v-.07c0-.3.04-.56.11-.8s.17-.44.3-.62c.14-.17.3-.3.48-.4.19-.09.4-.13.62-.13.24 0 .45.04.63.13.18.08.34.2.46.36.13.16.23.35.3.57.08.22.13.48.15.76v.32c-.02.28-.07.54-.15.76-.07.22-.17.41-.3.57-.12.16-.28.28-.46.37a1.53 1.53 0 0 1-1.25-.02c-.18-.1-.34-.24-.47-.41a1.98 1.98 0 0 1-.31-.62 2.7 2.7 0 0 1-.1-.77Zm.66-.07v.07c0 .2.02.37.06.54.04.16.1.31.18.44.08.13.19.23.31.3.13.07.28.1.46.1a.95.95 0 0 0 .87-.5c.09-.15.15-.31.2-.49v-.85a1.89 1.89 0 0 0-.12-.37 1.14 1.14 0 0 0-.2-.33.88.88 0 0 0-.32-.23.99.99 0 0 0-.42-.08.9.9 0 0 0-.47.11.9.9 0 0 0-.31.3c-.08.13-.14.28-.18.45-.04.17-.06.35-.06.54Zm7.06 1.47c.16 0 .3-.03.44-.1a.88.88 0 0 0 .32-.25.73.73 0 0 0 .14-.39h.63c-.02.23-.1.44-.23.63a1.57 1.57 0 0 1-1.3.65c-.28 0-.53-.05-.75-.15a1.5 1.5 0 0 1-.53-.42 1.87 1.87 0 0 1-.31-.6c-.07-.24-.1-.48-.1-.74v-.14c0-.26.03-.5.1-.73.07-.23.17-.44.31-.61.14-.18.32-.32.53-.42.22-.1.47-.15.75-.15.3 0 .56.06.79.18a1.43 1.43 0 0 1 .74 1.2h-.63a.94.94 0 0 0-.13-.43.87.87 0 0 0-.77-.42c-.2 0-.36.05-.5.13a.87.87 0 0 0-.32.31c-.08.13-.14.28-.17.44-.03.16-.05.33-.05.5v.14c0 .17.02.34.05.5.03.16.09.3.16.44.08.13.2.24.33.32.13.07.3.11.5.11Zm2.16-1.4v-.08c0-.28.04-.53.13-.77.08-.23.19-.44.34-.61.15-.18.33-.32.55-.41.21-.1.45-.15.72-.15.27 0 .5.05.72.15.22.1.4.23.55.4.16.18.27.39.35.62.08.24.12.5.12.77v.08c0 .28-.04.53-.12.77-.08.23-.2.44-.35.62a1.6 1.6 0 0 1-1.26.55c-.27 0-.51-.05-.73-.14a1.64 1.64 0 0 1-.9-1.03c-.08-.24-.12-.5-.12-.77Zm.66-.08v.08c0 .2.02.37.07.54.04.17.1.32.2.45.09.13.2.23.34.3a1 1 0 0 0 .48.11c.17 0 .33-.03.47-.1a.98.98 0 0 0 .33-.31c.1-.13.16-.28.2-.45a2 2 0 0 0 .08-.54v-.08c0-.19-.03-.37-.07-.53a1.38 1.38 0 0 0-.21-.45.94.94 0 0 0-.81-.42.96.96 0 0 0-.81.42c-.1.13-.16.28-.2.45-.05.16-.07.34-.07.53Zm4.37-1.11v3.06h-.66v-3.82h.62l.04.76Zm-.14 1h-.3c0-.27.04-.5.1-.73.07-.22.17-.42.3-.58.13-.17.29-.3.48-.38.2-.1.42-.14.67-.14.18 0 .34.02.5.08a1 1 0 0 1 .64.65c.07.17.1.37.1.61v2.55h-.66v-2.51c0-.2-.03-.37-.1-.49a.58.58 0 0 0-.28-.26 1.01 1.01 0 0 0-.43-.08c-.2 0-.36.03-.49.1a.82.82 0 0 0-.3.28c-.08.12-.14.26-.18.42-.03.15-.05.31-.05.48Zm2.48-.36-.44.14c0-.21.04-.41.1-.6.07-.2.17-.37.3-.52.13-.15.29-.27.47-.36.2-.09.4-.13.65-.13.2 0 .39.02.54.08.16.05.3.14.4.25.12.11.2.25.26.43.05.17.08.38.08.62v2.5h-.66v-2.5a1 1 0 0 0-.1-.5.53.53 0 0 0-.28-.26 1.14 1.14 0 0 0-.81 0 .88.88 0 0 0-.45.5c-.04.11-.06.23-.06.35Zm4.08-.64v3.06h-.66v-3.82h.62l.04.76Zm-.14 1h-.3c0-.27.04-.5.1-.73.07-.22.17-.42.3-.58.12-.17.29-.3.48-.38.2-.1.41-.14.67-.14.18 0 .34.02.5.08a1 1 0 0 1 .64.65c.06.17.1.37.1.61v2.55h-.66v-2.51c0-.2-.03-.37-.1-.49a.58.58 0 0 0-.28-.26 1.01 1.01 0 0 0-.43-.08c-.2 0-.36.03-.49.1a.82.82 0 0 0-.3.28c-.09.12-.14.26-.18.42a2.3 2.3 0 0 0-.05.48Zm2.48-.36-.44.14c0-.21.04-.41.1-.6.07-.2.17-.37.3-.52.12-.15.28-.27.47-.36.19-.09.4-.13.65-.13.2 0 .38.02.54.08.16.05.3.14.4.25.11.11.2.25.25.43.06.17.09.38.09.62v2.5h-.66v-2.5a1 1 0 0 0-.1-.5.53.53 0 0 0-.28-.26 1.14 1.14 0 0 0-.81 0 .88.88 0 0 0-.45.5c-.04.11-.06.23-.06.35Zm5.01 2.49a1.64 1.64 0 0 1-1.63-1.1 2.15 2.15 0 0 1-.12-.75v-.14c0-.32.04-.6.13-.83.1-.25.22-.46.38-.63a1.6 1.6 0 0 1 1.16-.51c.27 0 .5.04.7.14.2.1.37.22.5.4.12.16.21.36.28.59.06.22.09.47.09.74v.3h-2.86v-.54H84v-.05c0-.17-.04-.33-.1-.5a.89.89 0 0 0-.28-.39.83.83 0 0 0-.53-.16.9.9 0 0 0-.73.38c-.1.12-.16.27-.21.44-.05.18-.08.38-.08.62v.14c0 .18.03.36.08.52.05.15.12.3.22.41.1.12.22.22.36.28.14.07.3.1.48.1.23 0 .42-.04.58-.13.16-.1.3-.22.42-.38l.4.31c-.08.13-.19.25-.32.36-.12.11-.28.2-.47.27-.18.07-.4.1-.65.1Zm2.98-3.08v3h-.65v-3.81h.62l.03.81Zm-.16.95h-.27c0-.27.04-.5.12-.73.07-.22.18-.42.32-.58a1.4 1.4 0 0 1 1.12-.52c.18 0 .35.02.5.08.16.05.28.13.39.24.1.1.19.25.25.43.05.17.08.38.08.64v2.5h-.66v-2.51c0-.2-.02-.36-.08-.48a.54.54 0 0 0-.26-.27.92.92 0 0 0-.42-.08.97.97 0 0 0-.78.38 1.41 1.41 0 0 0-.3.9Zm5.18-1.76v.5H89.1v-.5h2.06Zm-1.37-.93h.66v3.8c0 .13.02.23.06.3.04.06.09.1.15.13.07.02.13.03.2.03.06 0 .12 0 .18-.02l.13-.02v.53a1.77 1.77 0 0 1-.5.07c-.16 0-.3-.03-.44-.1a.7.7 0 0 1-.32-.31 1.33 1.33 0 0 1-.12-.61v-3.8Zm2.74 4.4c0-.1.04-.2.1-.28.07-.07.18-.11.3-.11.14 0 .24.04.3.11.08.08.11.17.11.28 0 .11-.03.2-.1.28-.07.07-.17.11-.3.11-.13 0-.24-.04-.3-.11a.4.4 0 0 1-.1-.28Zm2.5 0c0-.1.04-.2.1-.28.07-.07.18-.11.3-.11.14 0 .24.04.3.11.08.08.11.17.11.28 0 .11-.03.2-.1.28-.07.07-.17.11-.3.11-.13 0-.24-.04-.3-.11a.4.4 0 0 1-.1-.28Zm2.5 0c0-.1.04-.2.1-.28.07-.07.18-.11.3-.11.14 0 .24.04.3.11.08.08.11.17.11.28 0 .11-.03.2-.1.28-.07.07-.17.11-.3.11-.13 0-.24-.04-.3-.11a.4.4 0 0 1-.1-.28Z" fill="#757575"/><rect x="39.26" y="277.26" width="187.48" height="17.48" rx="2.84" stroke="#D6D6D6" stroke-width=".52"/><path d="M43.91 105.54h-2.95v-1.86h2.95c.46 0 .83-.07 1.12-.22.28-.15.5-.36.62-.63a2.34 2.34 0 0 0 0-1.88 1.6 1.6 0 0 0-.62-.72 2.05 2.05 0 0 0-1.12-.27H41.8v9.71H39.4V98.1h4.51c.91 0 1.69.17 2.33.5a3.52 3.52 0 0 1 2.01 3.3c0 .75-.17 1.4-.51 1.94-.35.55-.84.97-1.5 1.27-.64.3-1.42.44-2.33.44Zm5.37-.08v-.17c0-.63.09-1.21.27-1.74.18-.54.44-1 .79-1.4.34-.39.77-.69 1.27-.9.5-.23 1.08-.34 1.73-.34.66 0 1.24.11 1.74.33.51.22.94.53 1.29.92.34.39.61.85.79 1.39.18.53.27 1.1.27 1.74v.17c0 .62-.09 1.2-.27 1.74-.18.53-.45 1-.8 1.39-.34.4-.76.7-1.27.91-.5.22-1.08.33-1.73.33a4.4 4.4 0 0 1-1.74-.33 3.6 3.6 0 0 1-2.07-2.3 5.43 5.43 0 0 1-.27-1.74Zm2.29-.17v.17c0 .36.03.7.1 1 .06.32.16.6.3.83.14.24.33.42.55.55.23.13.51.2.84.2a1.5 1.5 0 0 0 1.37-.75c.13-.23.24-.51.3-.82.07-.32.1-.65.1-1.01v-.17c0-.35-.03-.68-.1-.99a2.6 2.6 0 0 0-.31-.82 1.54 1.54 0 0 0-.55-.58c-.23-.13-.5-.2-.83-.2-.32 0-.6.07-.82.2-.23.14-.4.33-.55.58-.14.23-.24.51-.3.82-.07.31-.1.64-.1.99Zm11.92 2a.74.74 0 0 0-.14-.44c-.1-.13-.28-.26-.54-.37a5.27 5.27 0 0 0-1.1-.32c-.44-.1-.84-.21-1.22-.35-.37-.15-.7-.33-.97-.54a2.03 2.03 0 0 1-.87-1.71 2.31 2.31 0 0 1 .91-1.86c.3-.25.66-.44 1.08-.58.43-.14.91-.21 1.45-.21.75 0 1.39.12 1.92.36.55.23.96.56 1.24.98.3.42.44.89.44 1.42H63.4c0-.23-.05-.42-.14-.6a.95.95 0 0 0-.43-.42c-.2-.1-.44-.16-.75-.16-.25 0-.47.05-.66.14a1 1 0 0 0-.43.35c-.1.14-.14.3-.14.47 0 .13.03.25.08.36.06.1.15.2.28.28.12.08.29.16.49.24.2.07.46.13.76.19.62.13 1.18.3 1.67.5.48.2.87.48 1.16.83.28.34.43.8.43 1.36 0 .38-.09.73-.26 1.05-.17.31-.41.6-.73.83-.32.23-.7.42-1.15.55a5.36 5.36 0 0 1-3.52-.24 3.24 3.24 0 0 1-1.25-1.09c-.28-.44-.43-.9-.43-1.37h2.18c0 .32.09.57.23.76.16.19.35.33.58.41.24.09.5.13.78.13.3 0 .54-.04.74-.12.2-.08.34-.2.44-.33a.8.8 0 0 0 .16-.5Zm7.93-6.22v1.62H66.4v-1.62h5Zm-3.77-2.13h2.29v8.14c0 .25.03.44.1.57.06.13.16.23.3.28.13.05.3.07.5.07a3.94 3.94 0 0 0 .67-.06l.01 1.68a4.24 4.24 0 0 1-2.71-.04 1.82 1.82 0 0 1-.86-.8c-.2-.38-.3-.87-.3-1.47v-8.37Zm13.77 8.8v-3.84c0-.28-.05-.51-.14-.7a1 1 0 0 0-.42-.48 1.4 1.4 0 0 0-.72-.17c-.25 0-.47.05-.66.14a.95.95 0 0 0-.43.37c-.1.16-.15.35-.15.57h-2.3c0-.37.1-.71.26-1.04.17-.33.42-.62.74-.87.33-.25.71-.45 1.16-.6a4.98 4.98 0 0 1 3.29.12c.52.23.93.56 1.22 1 .3.45.46 1 .46 1.67v3.69c0 .47.02.85.08 1.16.06.3.15.55.26.78v.13h-2.32a3.3 3.3 0 0 1-.25-.87 7.2 7.2 0 0 1-.08-1.07Zm.3-3.3.02 1.29h-1.28c-.3 0-.57.03-.79.1-.22.07-.4.17-.55.3-.14.12-.25.26-.32.42-.06.17-.1.35-.1.55 0 .2.05.37.14.53.1.15.22.27.4.36.16.09.36.13.59.13.34 0 .64-.07.9-.2.25-.14.45-.31.59-.52.14-.2.21-.39.22-.57l.6.97a3.9 3.9 0 0 1-.9 1.34c-.22.2-.49.37-.8.5-.31.13-.68.19-1.11.19-.55 0-1.04-.1-1.49-.33a2.72 2.72 0 0 1-1.05-.91 2.72 2.72 0 0 1-.13-2.54c.17-.35.42-.64.75-.88.34-.24.75-.43 1.25-.55.5-.13 1.08-.19 1.73-.19h1.33Zm6.06-1.5v6.73H85.5v-8.6h2.16l.13 1.87Zm2.6-1.93-.05 2.13a5.69 5.69 0 0 0-.82-.07c-.33 0-.6.04-.85.13-.23.08-.43.2-.58.36-.16.16-.28.35-.35.58-.08.22-.12.48-.13.78l-.46-.15c0-.55.05-1.06.16-1.53.12-.47.28-.88.49-1.23.22-.35.48-.62.8-.82.3-.19.66-.28 1.07-.28a2.49 2.49 0 0 1 .71.1Zm5.69.06v1.62h-5.01v-1.62h5Zm-3.77-2.13h2.29v8.14c0 .25.03.44.1.57.06.13.16.23.3.28.13.05.3.07.5.07a3.93 3.93 0 0 0 .67-.06l.01 1.68a4.24 4.24 0 0 1-2.71-.04 1.82 1.82 0 0 1-.86-.8c-.2-.38-.3-.87-.3-1.47v-8.37Zm7.49 2.13v8.6h-2.3v-8.6h2.3Zm-2.44-2.24c0-.34.11-.61.35-.83.23-.22.54-.33.93-.33.4 0 .7.11.93.33.24.22.36.5.36.83 0 .33-.12.6-.36.82-.23.22-.54.33-.93.33s-.7-.11-.93-.33c-.24-.22-.35-.5-.35-.82Zm7.88 9.21c.28 0 .53-.05.75-.16a1.26 1.26 0 0 0 .7-1.17h2.16c0 .6-.16 1.15-.48 1.62-.32.46-.75.83-1.28 1.1a4 4 0 0 1-1.8.4c-.67 0-1.25-.11-1.75-.33-.49-.23-.9-.53-1.23-.93-.33-.4-.58-.85-.74-1.38a5.7 5.7 0 0 1-.25-1.7v-.23c0-.61.09-1.18.25-1.7.16-.53.41-1 .74-1.39.33-.4.74-.7 1.23-.93.5-.22 1.07-.33 1.74-.33.7 0 1.32.13 1.85.4s.95.66 1.25 1.16c.31.5.47 1.1.47 1.78h-2.15c0-.29-.07-.55-.18-.78a1.38 1.38 0 0 0-1.28-.77c-.34 0-.61.07-.82.21-.22.14-.38.33-.5.58-.11.23-.2.5-.24.81-.05.3-.07.62-.07.96v.23c0 .33.03.65.07.96.04.3.12.58.24.82s.28.43.5.56c.2.14.48.21.82.21Zm7.36-10.58v12.21h-2.3V97.46h2.3Zm5.85 12.37a4.8 4.8 0 0 1-1.8-.32 3.93 3.93 0 0 1-2.48-3.85v-.31c0-.66.09-1.25.27-1.8.19-.53.45-1 .8-1.4.35-.4.77-.7 1.27-.92.5-.21 1.06-.32 1.69-.32.6 0 1.15.1 1.62.3.47.2.87.49 1.18.86.33.37.57.82.73 1.34.17.5.25 1.08.25 1.71v.96h-6.84v-1.53h4.6v-.17a2 2 0 0 0-.18-.86 1.36 1.36 0 0 0-.51-.6 1.58 1.58 0 0 0-.88-.22c-.3 0-.56.06-.78.2-.21.13-.4.31-.53.55-.13.24-.23.52-.3.85-.06.31-.1.66-.1 1.05v.31c0 .35.05.67.15.96.1.29.24.54.42.75.18.21.4.38.67.5a2.8 2.8 0 0 0 2.05-.06c.36-.17.67-.42.93-.75l1.11 1.21a3.95 3.95 0 0 1-1.85 1.34c-.44.15-.93.22-1.49.22Z" fill="#181818"/><path d="M344.98 79.51c0-3.6-2.92-6.51-6.52-6.51h-72.58v254h72.58c3.6 0 6.52-2.92 6.52-6.51V79.5Z" fill="#F9F9F9"/><path d="M280.54 290.64c0-.25.2-.45.45-.45h1.44c.15 0 .28-.12.28-.26a.27.27 0 0 0-.27-.27h-1.45c-.55 0-1 .44-1 .98v4.43c0 .54.45.98 1 .98h4.52c.55 0 1-.44 1-.98v-1.42a.27.27 0 0 0-.27-.26.27.27 0 0 0-.28.26v1.42c0 .25-.2.45-.45.45H281a.45.45 0 0 1-.45-.45v-4.43Z" fill="#8B8E93"/><path d="M283.8 289.93c0-.15.11-.27.26-.27h2.18c.14 0 .27.12.27.27v2.13c0 .14-.13.26-.27.26a.27.27 0 0 1-.28-.26v-1.5l-3.34 3.3c-.11.1-.28.1-.39 0a.26.26 0 0 1 0-.38l3.35-3.29h-1.52a.27.27 0 0 1-.27-.26Z" fill="#8B8E93"/><path d="m280.97 255.4-1.4 3.87h-.58l1.62-4.25h.37l-.01.38Zm1.18 3.87-1.41-3.87v-.38h.36l1.63 4.25h-.58Zm-.07-1.57v.46h-2.39v-.46h2.38Zm2.48 1.18c.13 0 .24-.02.35-.08.11-.05.2-.12.27-.21a.6.6 0 0 0 .12-.32h.51a.96.96 0 0 1-.19.52 1.28 1.28 0 0 1-1.06.54c-.24 0-.45-.05-.63-.13-.17-.08-.31-.2-.43-.34-.12-.15-.2-.32-.26-.5-.06-.2-.09-.4-.09-.6v-.13c0-.21.03-.41.09-.6.06-.2.14-.36.26-.5.12-.15.26-.27.44-.35.17-.08.38-.13.62-.13s.46.06.64.16c.19.1.33.23.44.4.1.18.16.37.17.59h-.51a.78.78 0 0 0-.11-.35.72.72 0 0 0-.63-.35.74.74 0 0 0-.68.36c-.07.1-.12.23-.15.36-.02.14-.04.27-.04.4v.13c0 .14.02.28.04.41.03.13.08.25.14.36.07.11.16.2.27.27.1.06.25.1.42.1Zm3.26-2.77v.42h-1.7v-.42h1.7Zm-1.13-.76h.54v3.14c0 .1.02.18.05.24.04.05.08.09.13.1.05.02.1.03.17.03a.98.98 0 0 0 .25-.03v.44l-.16.04-.25.02a.83.83 0 0 1-.37-.08.59.59 0 0 1-.26-.26 1.1 1.1 0 0 1-.1-.5v-3.14Zm2.43.76v3.16h-.54v-3.16h.54Zm-.58-.83c0-.1.02-.16.08-.22.05-.07.13-.1.24-.1.1 0 .18.03.23.1a.3.3 0 0 1 .09.22.3.3 0 0 1-.09.21c-.05.06-.13.09-.23.09s-.19-.03-.24-.09a.32.32 0 0 1-.08-.21Zm1.39 2.45v-.07c0-.23.03-.44.1-.63.06-.2.16-.37.28-.51.13-.15.28-.26.45-.34.18-.08.38-.13.6-.13.22 0 .42.05.6.13.17.08.33.19.45.33.13.15.22.32.29.52.06.19.1.4.1.63v.06c0 .23-.04.44-.1.64-.07.2-.16.36-.29.5a1.3 1.3 0 0 1-1.05.47 1.34 1.34 0 0 1-1.05-.46 1.53 1.53 0 0 1-.29-.51c-.06-.2-.1-.4-.1-.63Zm.53-.07v.06c0 .16.02.31.06.45.04.14.1.26.17.37.07.1.17.19.28.25.11.06.24.1.4.1a.8.8 0 0 0 .66-.35c.08-.1.13-.23.17-.37.04-.14.06-.29.06-.44v-.07c0-.16-.02-.3-.06-.44-.04-.14-.1-.27-.17-.37a.79.79 0 0 0-.67-.35.8.8 0 0 0-.4.1.84.84 0 0 0-.27.25c-.08.1-.13.23-.17.37a1.7 1.7 0 0 0-.06.44Zm3.64-.87v2.48h-.54v-3.16h.5l.04.68Zm-.13.78h-.23c0-.22.04-.42.1-.6.06-.19.15-.35.26-.49a1.18 1.18 0 0 1 .92-.43c.16 0 .3.03.43.07.12.04.23.1.31.2.1.09.16.2.2.35.05.15.08.32.08.53v2.07h-.55v-2.07c0-.17-.02-.3-.07-.4a.45.45 0 0 0-.21-.22.78.78 0 0 0-.34-.07.8.8 0 0 0-.66.32 1.18 1.18 0 0 0-.24.74Z" fill="#9F9F9F"/><path d="M280 209.28c0-.4.31-.53.72-.53h3.43c.4 0 .73.31.73.7v.36h-.55v-.53h-3.8V213h3.8v-1.6h.55v1.43c0 .4-.32.7-.73.7h-3.43a.71.71 0 0 1-.73-.7v-3.55Z" fill="#A1A1A1"/><path d="M286.5 214.6c0 .4-.32.53-.72.53h-3.44a.71.71 0 0 1-.72-.7v-.36h.54v.53h3.8v-3.72h-3.8v1.6h-.54v-1.43c0-.4.32-.7.72-.7h3.44c.4 0 .73.3.73.7v3.55Z" fill="#A1A1A1"/><path d="m281.06 117-1.4 3.86h-.58l1.62-4.25h.37v.38Zm1.18 3.86-1.4-3.87-.01-.38h.37l1.62 4.25h-.58Zm-.07-1.57v.46h-2.39v-.46h2.39Zm3.2.96v-3.87h.55v4.48h-.5l-.04-.61Zm-2.12-.93v-.06c0-.25.03-.46.1-.66.05-.2.14-.37.25-.51a1.13 1.13 0 0 1 .9-.44c.2 0 .37.03.52.1a1 1 0 0 1 .38.3c.1.13.19.29.25.48.06.18.1.39.12.62v.27a2.8 2.8 0 0 1-.12.62c-.06.19-.15.35-.25.48s-.23.23-.38.3a1.25 1.25 0 0 1-1.03-.02 1.2 1.2 0 0 1-.4-.34c-.1-.14-.19-.31-.25-.5-.06-.2-.09-.41-.09-.64Zm.55-.06v.06c0 .16.01.3.04.44.04.14.09.26.15.36.07.11.16.2.26.25.1.06.23.09.38.09.18 0 .32-.04.44-.11a.85.85 0 0 0 .28-.3c.07-.13.12-.26.16-.4v-.71c-.02-.1-.05-.21-.1-.31a.95.95 0 0 0-.17-.27.73.73 0 0 0-.25-.19.81.81 0 0 0-.36-.07.74.74 0 0 0-.38.1c-.1.05-.19.14-.26.25-.06.1-.12.22-.15.36-.03.14-.04.29-.04.45Zm5.03.99v-3.87h.54v4.48h-.5l-.04-.61Zm-2.13-.93v-.06c0-.25.03-.46.1-.66.05-.2.14-.37.25-.51a1.14 1.14 0 0 1 .9-.44c.2 0 .37.03.52.1a1 1 0 0 1 .38.3c.1.13.19.29.25.48.06.18.1.39.12.62v.27c-.02.23-.06.44-.12.62-.06.19-.14.35-.25.48-.1.13-.23.23-.38.3a1.26 1.26 0 0 1-1.03-.02 1.2 1.2 0 0 1-.4-.34c-.1-.14-.19-.31-.25-.5a2.2 2.2 0 0 1-.09-.64Zm.55-.06v.06c0 .16.01.3.04.44.04.14.09.26.16.36.06.11.15.2.25.25.11.06.24.09.38.09.18 0 .33-.04.44-.11a.85.85 0 0 0 .28-.3c.07-.13.13-.26.16-.4v-.71c-.02-.1-.05-.21-.1-.31a.95.95 0 0 0-.17-.27.73.73 0 0 0-.25-.19.82.82 0 0 0-.35-.07.75.75 0 0 0-.38.1c-.11.05-.2.14-.26.25-.07.1-.12.22-.16.36-.03.14-.04.29-.04.45Z" fill="#9F9F9F"/><path fill-rule="evenodd" clip-rule="evenodd" d="M283.8 269.98v.54h2.16v3.8h-2.71v-.54h-2.17v3.53a.27.27 0 0 1-.54 0v-7.33h3.25Zm-2.72.54h2.17v2.71h-2.17v-2.71Zm2.71.54h1.63v2.72h-1.63v-2.72Z" fill="#8B8E93"/><path d="M42.97 132.6h-.6V135l2.12 1.27.3-.5-1.82-1.07v-2.12Z" fill="#A1A1A1"/><path fill-rule="evenodd" clip-rule="evenodd" d="M47 134.6a4.03 4.03 0 1 1-8.06 0 4.03 4.03 0 0 1 8.07 0Zm-.57 0a3.46 3.46 0 1 1-6.91 0 3.46 3.46 0 0 1 6.91 0Z" fill="#A1A1A1"/><path fill="#fff" d="M53.57 128.61H84.5v13.03H53.57z"/><path d="M56.2 137.61H55l.01-.61h1.18c.4 0 .74-.09 1.01-.26.28-.17.48-.4.61-.72.14-.3.21-.67.21-1.08v-.35c0-.33-.04-.61-.12-.87-.07-.25-.19-.47-.34-.64a1.45 1.45 0 0 0-.55-.4 1.9 1.9 0 0 0-.75-.14h-1.28v-.62h1.28c.37 0 .71.07 1.02.19a2.34 2.34 0 0 1 1.3 1.38c.13.33.19.7.19 1.1v.35c0 .41-.06.78-.18 1.11a2.33 2.33 0 0 1-1.33 1.38c-.32.12-.67.18-1.07.18Zm-.79-5.69v5.69h-.75v-5.69h.75Zm6.96 4.97v-2.18a.88.88 0 0 0-.1-.43.67.67 0 0 0-.3-.3c-.13-.06-.3-.1-.49-.1-.18 0-.34.04-.48.1a.84.84 0 0 0-.32.25.54.54 0 0 0-.11.33h-.72c0-.16.04-.3.11-.45.08-.15.2-.29.34-.4.15-.13.33-.22.53-.3.21-.07.44-.1.7-.1.3 0 .57.05.8.15.25.1.43.26.56.47.14.21.2.47.2.79v1.97c0 .14.02.29.04.45.03.16.07.3.12.4v.07h-.76a2.68 2.68 0 0 1-.12-.72Zm.13-1.84v.5h-.72c-.2 0-.4.02-.55.06-.17.03-.3.08-.41.14a.65.65 0 0 0-.34.59c0 .13.03.25.1.36.05.11.14.2.26.26a1.19 1.19 0 0 0 1.44-.4c.1-.12.16-.26.16-.38l.31.34c-.01.11-.06.23-.15.37a1.75 1.75 0 0 1-.8.68c-.18.08-.38.12-.61.12-.29 0-.54-.06-.76-.17a1.19 1.19 0 0 1-.68-1.09c0-.22.05-.42.14-.6.09-.17.22-.31.38-.43.17-.11.37-.2.6-.26.24-.06.5-.1.79-.1h.84Zm3.58-1.67v.56H63.8v-.56h2.28Zm-1.5-1.02h.72v4.2c0 .15.02.25.06.33.05.07.1.12.17.14a.7.7 0 0 0 .23.04c.06 0 .12 0 .19-.02l.15-.03v.59a1.74 1.74 0 0 1-.56.08c-.17 0-.33-.04-.48-.1a.78.78 0 0 1-.36-.36 1.47 1.47 0 0 1-.13-.67v-4.2Zm4.19 5.33c-.3 0-.56-.05-.8-.15a1.81 1.81 0 0 1-1-1.07c-.1-.25-.14-.53-.14-.82v-.17c0-.34.05-.65.15-.92.1-.27.24-.5.41-.68a1.78 1.78 0 0 1 2.07-.42c.22.1.4.25.54.44.14.18.24.4.31.66.07.25.1.52.1.82v.32h-3.15v-.59h2.43v-.05a1.8 1.8 0 0 0-.12-.55.99.99 0 0 0-.31-.44.92.92 0 0 0-.59-.17.99.99 0 0 0-.8.41c-.1.13-.18.3-.24.5-.05.2-.08.42-.08.67v.17c0 .2.03.38.08.56.06.18.14.33.25.46a1.17 1.17 0 0 0 .93.43c.25 0 .47-.05.65-.16.17-.1.33-.24.46-.42l.44.35c-.1.14-.21.27-.35.4-.14.12-.31.22-.52.3-.2.08-.44.12-.72.12Zm5.03-1.2c0-.1-.03-.2-.07-.29a.6.6 0 0 0-.28-.25 2.27 2.27 0 0 0-.62-.2c-.24-.04-.45-.1-.64-.17a1.95 1.95 0 0 1-.48-.24.95.95 0 0 1-.4-.8c0-.17.03-.32.1-.47.08-.15.18-.28.32-.4.14-.11.3-.2.5-.27a2 2 0 0 1 .64-.1c.34 0 .63.07.87.19.24.11.42.27.55.48.12.2.19.41.19.66h-.72a.62.62 0 0 0-.11-.34.78.78 0 0 0-.3-.28.97.97 0 0 0-.48-.11c-.2 0-.36.03-.49.1a.63.63 0 0 0-.27.22.58.58 0 0 0-.04.51c.03.06.08.12.15.17.07.05.17.1.3.14.12.04.28.09.48.13.35.08.63.18.86.28.22.11.39.25.5.4a1 1 0 0 1 .16.59 1.1 1.1 0 0 1-.45.9c-.14.11-.31.2-.51.26s-.42.09-.67.09c-.37 0-.69-.07-.95-.2-.25-.13-.45-.3-.58-.52-.14-.2-.2-.43-.2-.66h.72c.01.2.07.35.18.47.1.11.23.2.38.24a1.5 1.5 0 0 0 .94 0 .7.7 0 0 0 .31-.22c.07-.09.1-.2.1-.31Z" fill="#727272"/><path d="M116.16 160.31v.45c0 .55-.07 1.03-.2 1.46-.14.43-.33.79-.59 1.09-.25.3-.55.53-.9.69-.36.15-.76.23-1.2.23a2.64 2.64 0 0 1-2.09-.92 3.2 3.2 0 0 1-.6-1.1 4.63 4.63 0 0 1-.2-1.45v-.45c0-.54.07-1.02.2-1.45.15-.42.34-.79.6-1.09.26-.3.56-.53.91-.69.36-.16.75-.24 1.18-.24.43 0 .83.08 1.18.24.36.16.66.39.91.7.26.3.46.66.6 1.08.13.43.2.91.2 1.45Zm-.94.45v-.46c0-.43-.05-.8-.14-1.14-.08-.32-.2-.6-.38-.82-.17-.23-.37-.4-.62-.51a1.87 1.87 0 0 0-.81-.18 1.71 1.71 0 0 0-1.42.68c-.17.23-.3.5-.4.83-.08.33-.13.71-.13 1.14v.46c0 .44.05.82.14 1.15.09.33.22.6.4.84.17.22.37.39.61.5.24.12.5.18.8.18.31 0 .59-.06.83-.18.24-.11.44-.28.6-.5.18-.23.3-.51.39-.84.08-.33.13-.71.13-1.15Zm3.23-.83v4.2h-.91v-5.34h.86l.05 1.14Zm-.21 1.33-.38-.02c0-.36.05-.7.16-1 .1-.32.25-.6.44-.82a1.98 1.98 0 0 1 1.57-.73c.26 0 .5.04.71.11.21.07.39.18.54.34.15.15.27.35.34.6.08.24.12.54.12.9v3.5h-.92v-3.52c0-.28-.04-.5-.12-.67a.76.76 0 0 0-.36-.37 1.3 1.3 0 0 0-.58-.12 1.35 1.35 0 0 0-1.1.54 1.98 1.98 0 0 0-.42 1.26Zm9.82-2.47v.7h-2.89v-.7h2.89Zm-1.91-1.3h.91v5.32c0 .18.03.32.09.41.05.1.12.15.21.18.1.03.19.05.29.05l.24-.02.19-.04v.74a2.18 2.18 0 0 1-.7.1c-.23 0-.43-.04-.62-.13a1 1 0 0 1-.45-.45c-.1-.2-.16-.49-.16-.84v-5.32Zm3.99-.94v7.58h-.92v-7.58h.92Zm-.22 4.7h-.38c0-.37.06-.7.16-1.02.1-.31.26-.58.45-.81a1.99 1.99 0 0 1 1.56-.73c.26 0 .5.04.71.11.21.07.4.18.54.34.15.15.27.35.35.6.07.24.12.54.12.9v3.5h-.92v-3.52c0-.28-.04-.5-.13-.67a.76.76 0 0 0-.36-.37 1.3 1.3 0 0 0-.58-.12 1.35 1.35 0 0 0-1.1.54 2 2 0 0 0-.42 1.26Zm7.18 2.98c-.37 0-.7-.06-1.01-.19a2.28 2.28 0 0 1-1.27-1.35 3 3 0 0 1-.17-1.04v-.2c0-.44.06-.83.19-1.17.13-.34.3-.63.52-.87a2.25 2.25 0 0 1 2.61-.52c.28.13.51.32.69.55.18.24.3.51.4.83.08.32.12.66.12 1.04v.4h-3.99v-.74h3.08v-.07a2.27 2.27 0 0 0-.15-.69c-.08-.22-.22-.4-.4-.55a1.15 1.15 0 0 0-.74-.22 1.25 1.25 0 0 0-1.02.52c-.12.17-.22.38-.29.63-.07.24-.1.53-.1.85v.2c0 .26.03.5.1.73.07.22.18.41.31.58a1.48 1.48 0 0 0 1.17.54c.32 0 .6-.07.82-.2.22-.13.42-.3.59-.53l.55.44a2.6 2.6 0 0 1-.44.5c-.18.16-.4.29-.66.38-.25.1-.56.15-.9.15Zm8.95-1.51a.77.77 0 0 0-.09-.37.76.76 0 0 0-.35-.31c-.17-.1-.44-.18-.79-.25-.3-.06-.56-.13-.8-.22a2.42 2.42 0 0 1-.61-.31 1.2 1.2 0 0 1-.51-1c0-.22.04-.42.13-.6.1-.2.23-.36.4-.5.18-.15.39-.26.63-.34.24-.09.51-.13.81-.13.43 0 .8.08 1.1.23.3.15.54.35.7.6.16.26.24.53.24.84H146c0-.15-.05-.3-.14-.43a.99.99 0 0 0-.38-.35c-.16-.1-.36-.14-.6-.14-.26 0-.46.04-.62.12a.79.79 0 0 0-.34.3.73.73 0 0 0-.06.63c.04.08.1.15.19.22.09.06.21.12.38.17.16.06.36.12.61.17a5 5 0 0 1 1.09.36c.28.14.49.3.63.5s.2.45.2.74a1.4 1.4 0 0 1-.56 1.14c-.19.14-.4.25-.66.33a2.9 2.9 0 0 1-.84.11c-.47 0-.87-.08-1.2-.25a1.85 1.85 0 0 1-.74-.65 1.56 1.56 0 0 1-.25-.85h.92c.01.25.09.45.22.6.13.15.3.25.48.31a1.91 1.91 0 0 0 1.2 0c.17-.07.3-.16.39-.28a.63.63 0 0 0 .13-.4Zm5.36.5v-2.75c0-.21-.05-.4-.13-.55a.85.85 0 0 0-.38-.36 1.37 1.37 0 0 0-.62-.13c-.23 0-.43.04-.6.12-.18.07-.31.18-.41.3a.68.68 0 0 0-.15.42h-.9c0-.19.04-.38.14-.57.1-.18.24-.35.42-.5.2-.16.42-.28.68-.37.26-.1.55-.14.88-.14.38 0 .73.07 1.02.2.3.13.53.33.7.6.17.26.26.59.26.99v2.49c0 .18.02.37.04.57.04.2.08.37.15.51v.08h-.96a3.3 3.3 0 0 1-.15-.91Zm.15-2.33.01.65h-.92c-.26 0-.5.02-.7.06-.2.04-.37.1-.5.18a.82.82 0 0 0-.43.74c0 .17.03.32.11.46s.19.25.34.33c.16.08.34.12.57.12a1.54 1.54 0 0 0 1.25-.61c.13-.17.2-.34.2-.5l.4.44c-.03.14-.09.3-.2.46a2.2 2.2 0 0 1-1 .86c-.23.1-.5.15-.78.15-.37 0-.69-.07-.96-.21a1.5 1.5 0 0 1-.85-1.37 1.47 1.47 0 0 1 .65-1.3c.21-.16.46-.27.76-.34.3-.08.63-.12 1-.12h1.05Zm3.2-1.04v4.28h-.92v-5.34h.87l.05 1.06Zm-.2 1.4h-.41c0-.37.05-.7.14-1.02.09-.31.23-.58.4-.81.19-.23.41-.41.68-.54.27-.13.59-.19.94-.19.25 0 .48.04.7.11.2.07.39.18.54.33.16.15.28.35.36.58.09.24.13.53.13.86v3.56h-.91v-3.51c0-.28-.05-.5-.15-.67a.82.82 0 0 0-.4-.37 1.42 1.42 0 0 0-.6-.12c-.26 0-.49.05-.67.14-.18.1-.33.23-.43.4-.11.17-.2.36-.24.58-.05.21-.07.44-.07.68Zm3.47-.5-.61.2c0-.3.05-.58.14-.85.1-.27.23-.51.41-.72a2.08 2.08 0 0 1 1.57-.69c.29 0 .54.04.76.12.23.07.41.19.57.34.15.16.27.36.35.6.08.25.12.54.12.87v3.51h-.92v-3.52c0-.3-.05-.53-.15-.7a.74.74 0 0 0-.4-.34 1.58 1.58 0 0 0-1.13 0c-.15.06-.28.16-.39.28-.1.12-.18.26-.24.41-.05.16-.08.32-.08.5Zm7 3.48c-.38 0-.71-.06-1.02-.19a2.28 2.28 0 0 1-1.26-1.35 3 3 0 0 1-.18-1.04v-.2c0-.44.07-.83.2-1.17.12-.34.3-.63.52-.87a2.25 2.25 0 0 1 2.6-.52c.29.13.52.32.7.55.17.24.3.51.39.83.08.32.13.66.13 1.04v.4h-4v-.74h3.08v-.07a2.27 2.27 0 0 0-.15-.69c-.08-.22-.21-.4-.4-.55a1.15 1.15 0 0 0-.73-.22 1.25 1.25 0 0 0-1.02.52c-.13.17-.23.38-.3.63-.06.24-.1.53-.1.85v.2c0 .26.03.5.1.73.08.22.18.41.32.58a1.48 1.48 0 0 0 1.17.54c.32 0 .6-.07.82-.2.22-.13.42-.3.58-.53l.56.44a2.6 2.6 0 0 1-.44.5c-.18.16-.4.29-.66.38-.26.1-.56.15-.91.15Zm9.2-1.13v-6.55h.92v7.58h-.84l-.08-1.03Zm-3.6-1.58v-.1c0-.41.06-.78.16-1.11.1-.34.24-.63.43-.87a1.93 1.93 0 0 1 1.53-.75c.34 0 .63.06.88.18.25.11.47.28.64.5.18.23.32.5.42.8.1.32.17.67.21 1.07v.45c-.03.4-.1.75-.2 1.06-.11.31-.25.58-.43.8-.17.22-.39.4-.64.5a2.14 2.14 0 0 1-1.75-.02 2.04 2.04 0 0 1-.66-.57 2.77 2.77 0 0 1-.44-.86c-.1-.33-.14-.7-.14-1.08Zm.93-.1v.1c0 .27.02.52.07.75.06.23.15.44.26.62.12.18.26.32.44.42.18.1.4.15.64.15.3 0 .55-.07.74-.2.2-.12.36-.3.48-.5.12-.22.2-.44.27-.7v-1.18c-.03-.18-.1-.36-.17-.53a1.62 1.62 0 0 0-.28-.45 1.23 1.23 0 0 0-.44-.32 1.39 1.39 0 0 0-.6-.12c-.24 0-.46.05-.64.16-.18.1-.32.24-.44.42-.11.18-.2.39-.25.63-.06.23-.08.48-.08.75Zm8.25 1.8v-2.75c0-.21-.04-.4-.12-.55a.85.85 0 0 0-.38-.36 1.37 1.37 0 0 0-.62-.13c-.23 0-.43.04-.6.12-.18.07-.31.18-.41.3a.68.68 0 0 0-.15.42h-.91c0-.19.05-.38.15-.57.1-.18.24-.35.42-.5.2-.16.41-.28.68-.37.26-.1.55-.14.87-.14.4 0 .73.07 1.03.2.3.13.53.33.7.6.17.26.26.59.26.99v2.49c0 .18.01.37.04.57.04.2.08.37.15.51v.08h-.96a3.3 3.3 0 0 1-.15-.91Zm.16-2.33.01.65h-.92c-.26 0-.5.02-.7.06-.2.04-.37.1-.51.18a.82.82 0 0 0-.42.74c0 .17.03.32.1.46.08.14.2.25.35.33.15.08.34.12.57.12a1.54 1.54 0 0 0 1.25-.61c.13-.17.2-.34.2-.5l.4.44c-.03.14-.1.3-.2.46a2.2 2.2 0 0 1-1 .86c-.24.1-.5.15-.79.15-.36 0-.68-.07-.95-.21a1.5 1.5 0 0 1-.85-1.37 1.47 1.47 0 0 1 .65-1.3c.2-.16.46-.27.76-.34.3-.08.63-.12 1-.12h1.05Zm3.71 2.69 1.49-4.79h.97l-2.14 6.17a3.4 3.4 0 0 1-.5.86c-.13.14-.28.25-.46.34-.17.09-.38.13-.62.13-.08 0-.17 0-.28-.03-.11-.02-.2-.03-.24-.05v-.74a2.24 2.24 0 0 0 .77-.06.8.8 0 0 0 .37-.27c.1-.13.19-.3.26-.52l.38-1.04Zm-1.1-4.79 1.4 4.15.23.96-.65.34-1.97-5.45h1Zm10.23 4.43v-2.75c0-.21-.04-.4-.13-.55a.85.85 0 0 0-.37-.36 1.36 1.36 0 0 0-.63-.13c-.22 0-.43.04-.6.12-.17.07-.3.18-.4.3a.68.68 0 0 0-.15.42h-.91c0-.19.04-.38.14-.57.1-.18.24-.35.43-.5.19-.16.41-.28.67-.37.26-.1.56-.14.88-.14.39 0 .73.07 1.03.2.3.13.53.33.7.6.17.26.25.59.25.99v2.49c0 .18.02.37.05.57.03.2.08.37.14.51v.08h-.95a3.3 3.3 0 0 1-.15-.91Zm.16-2.33v.65h-.91c-.27 0-.5.02-.7.06-.2.04-.38.1-.51.18a.82.82 0 0 0-.43.74c0 .17.04.32.12.46.07.14.18.25.34.33.15.08.34.12.56.12a1.54 1.54 0 0 0 1.25-.61c.13-.17.2-.34.21-.5l.39.44c-.02.14-.08.3-.19.46a2.23 2.23 0 0 1-1.01.86c-.23.1-.49.15-.78.15-.36 0-.68-.07-.95-.21a1.5 1.5 0 0 1-.85-1.37 1.47 1.47 0 0 1 .65-1.3c.2-.16.46-.27.75-.34.3-.08.63-.12 1-.12h1.06Zm4.52-2.1v.7h-2.89v-.7h2.89Zm-1.91-1.3h.91v5.32c0 .18.03.32.09.41.05.1.13.15.21.18a.9.9 0 0 0 .3.05l.23-.02.19-.04v.74a2.16 2.16 0 0 1-.7.1c-.22 0-.43-.04-.62-.13a1 1 0 0 1-.45-.45c-.1-.2-.16-.49-.16-.84v-5.32Zm6.48 5.88h.1c.52 0 .95-.08 1.28-.22.33-.15.58-.35.76-.6.18-.25.3-.53.37-.85.06-.31.1-.64.1-.97v-1.1c0-.33-.04-.62-.12-.87a1.9 1.9 0 0 0-.3-.64c-.13-.17-.28-.3-.44-.39a1.08 1.08 0 0 0-.53-.13c-.2 0-.4.04-.56.13-.17.08-.3.2-.42.35-.12.15-.2.33-.26.53a2.4 2.4 0 0 0 .23 1.83c.11.17.24.3.4.39.17.1.36.14.58.14.2 0 .4-.04.58-.12a1.61 1.61 0 0 0 .81-.81c.09-.18.14-.36.15-.56h.43c0 .28-.05.55-.16.81a2.46 2.46 0 0 1-1.12 1.25c-.25.12-.53.19-.83.19-.36 0-.67-.07-.93-.2a1.87 1.87 0 0 1-.64-.56 2.53 2.53 0 0 1-.37-.77 3.25 3.25 0 0 1 .03-1.83c.09-.3.23-.57.42-.8.19-.22.42-.4.7-.53.28-.13.6-.2.96-.2.41 0 .77.09 1.06.25.28.17.52.39.7.66.19.28.32.6.4.94.1.34.13.7.13 1.06v.33c0 .38-.02.75-.07 1.14-.04.38-.14.75-.27 1.1a2.64 2.64 0 0 1-1.57 1.59c-.4.15-.9.23-1.5.23h-.1v-.77Zm4.94.28c0-.16.04-.28.14-.4.1-.1.24-.15.42-.15.19 0 .33.05.42.16.1.1.15.24.15.39 0 .15-.05.28-.15.38-.1.11-.23.16-.42.16-.18 0-.32-.05-.42-.16a.56.56 0 0 1-.14-.38Zm0-4.36c0-.16.05-.29.14-.4.1-.1.24-.15.43-.15.18 0 .32.05.42.16.1.1.15.23.15.39 0 .15-.05.28-.15.38-.1.1-.24.16-.42.16-.19 0-.33-.05-.43-.16a.55.55 0 0 1-.14-.38Zm6.99.68v1.1c0 .58-.05 1.08-.16 1.48-.1.4-.26.73-.45.98-.2.25-.44.43-.72.54-.28.1-.59.16-.94.16-.27 0-.53-.03-.76-.1a1.8 1.8 0 0 1-.63-.33 2 2 0 0 1-.48-.6 3.22 3.22 0 0 1-.3-.9c-.07-.36-.1-.77-.1-1.24v-1.1c0-.58.05-1.08.16-1.48.1-.4.26-.71.45-.95.2-.25.44-.42.72-.53a2.71 2.71 0 0 1 1.7-.05 1.74 1.74 0 0 1 1.1.9c.14.24.24.54.3.89.08.34.11.75.11 1.22Zm-.92 1.24v-1.4a5.3 5.3 0 0 0-.22-1.48 1.26 1.26 0 0 0-.28-.42.97.97 0 0 0-.38-.24c-.14-.05-.3-.08-.48-.08-.21 0-.4.04-.57.12-.17.08-.31.2-.43.38-.11.18-.2.4-.26.69-.05.28-.08.63-.08 1.03v1.4c0 .32.01.6.05.85s.1.47.17.65c.08.17.17.32.28.44.1.11.23.2.38.25.14.06.3.08.47.08.23 0 .42-.04.6-.13.16-.08.3-.22.41-.4.12-.18.2-.42.26-.7.05-.3.08-.64.08-1.04Zm6.7-1.25v1.1c0 .6-.05 1.09-.16 1.5-.1.4-.25.72-.45.97s-.44.43-.72.54c-.27.1-.59.16-.94.16-.27 0-.53-.03-.76-.1a1.8 1.8 0 0 1-1.1-.94 3.26 3.26 0 0 1-.3-.9c-.08-.35-.11-.76-.11-1.23v-1.1c0-.58.05-1.08.16-1.48.1-.4.26-.71.46-.95.2-.25.43-.42.7-.53.29-.1.6-.16.94-.16.28 0 .54.04.77.1a1.75 1.75 0 0 1 1.1.91c.14.24.24.54.3.89.08.34.11.75.11 1.22Zm-.92 1.25v-1.4c0-.32-.02-.6-.06-.85a2.62 2.62 0 0 0-.16-.63 1.26 1.26 0 0 0-.28-.42.97.97 0 0 0-.38-.24c-.14-.05-.3-.08-.48-.08-.21 0-.4.04-.57.12-.17.08-.31.2-.43.38-.11.18-.2.4-.25.69-.06.28-.1.63-.1 1.03v1.4c0 .32.02.6.06.85.04.25.1.47.17.65.08.17.17.32.28.44.1.11.23.2.38.25.14.06.3.08.47.08.23 0 .42-.04.6-.13.16-.08.3-.22.41-.4.12-.18.2-.42.26-.7.05-.3.08-.64.08-1.04Zm5.44 2.01v-2.75c0-.21-.05-.4-.13-.55a.85.85 0 0 0-.38-.36 1.36 1.36 0 0 0-.62-.13c-.23 0-.43.04-.6.12-.18.07-.31.18-.41.3a.68.68 0 0 0-.14.42h-.92c0-.19.05-.38.15-.57.1-.18.24-.35.42-.5.2-.16.42-.28.68-.37.26-.1.55-.14.88-.14.38 0 .73.07 1.02.2.3.13.54.33.7.6.18.26.26.59.26.99v2.49c0 .18.02.37.05.57.03.2.08.37.14.51v.08h-.95a3.3 3.3 0 0 1-.15-.91Zm.16-2.33v.65h-.92c-.26 0-.5.02-.7.06-.2.04-.37.1-.5.18a.82.82 0 0 0-.43.74c0 .17.04.32.11.46.08.14.19.25.34.33.16.08.34.12.57.12a1.54 1.54 0 0 0 1.25-.61c.13-.17.2-.34.2-.5l.4.44c-.03.14-.09.3-.2.46a2.2 2.2 0 0 1-1 .86c-.23.1-.5.15-.78.15-.37 0-.68-.07-.96-.21a1.5 1.5 0 0 1-.85-1.37c0-.29.05-.54.17-.76.1-.22.27-.4.48-.55.21-.15.47-.26.76-.33.3-.08.63-.12 1-.12h1.06Zm3.19-1.04v4.28h-.92v-5.34h.87l.05 1.06Zm-.19 1.4h-.42c0-.37.05-.7.14-1.02.1-.31.23-.58.4-.81.19-.23.42-.41.69-.54.27-.13.58-.19.93-.19.25 0 .48.04.7.11.2.07.39.18.54.33.16.15.28.35.36.58.09.24.13.53.13.86v3.56h-.91v-3.51c0-.28-.05-.5-.14-.67a.82.82 0 0 0-.4-.37 1.42 1.42 0 0 0-.6-.12c-.27 0-.5.05-.68.14-.18.1-.32.23-.43.4-.11.17-.2.36-.24.58-.05.21-.07.44-.07.68Zm3.46-.5-.61.2c0-.3.05-.58.14-.85.1-.27.24-.51.41-.72a2.08 2.08 0 0 1 1.57-.69c.29 0 .54.04.76.12.23.07.41.19.57.34.15.16.27.36.35.6.08.25.12.54.12.87v3.51h-.92v-3.52c0-.3-.05-.53-.15-.7a.75.75 0 0 0-.4-.34 1.58 1.58 0 0 0-1.13 0c-.15.06-.28.16-.39.28-.1.12-.18.26-.24.41-.05.16-.08.32-.08.5ZM51.24 156.74h2.12a3 3 0 0 1 1.21.22c.34.14.6.36.76.64.18.29.27.64.27 1.06a1.7 1.7 0 0 1-.69 1.42c-.22.16-.49.29-.8.37l-.23.1h-2v-.7h1.5c.3 0 .56-.05.76-.16.2-.1.36-.25.46-.43a1.37 1.37 0 0 0 0-1.25.97.97 0 0 0-.45-.43c-.2-.1-.47-.15-.8-.15H52.1v5.7h-.85v-6.4Zm3.74 6.4-1.56-2.9.89-.01 1.57 2.85v.05h-.9Zm3.75.08c-.33 0-.64-.05-.9-.17a2.04 2.04 0 0 1-1.13-1.2c-.1-.29-.16-.6-.16-.93v-.18c0-.39.06-.73.17-1.03.12-.3.27-.57.47-.78a2 2 0 0 1 2.32-.46c.25.11.45.28.61.49.16.2.28.45.35.74.08.28.12.59.12.92v.36h-3.55v-.66h2.73v-.06a2.02 2.02 0 0 0-.13-.62 1.1 1.1 0 0 0-.35-.49c-.16-.13-.38-.2-.66-.2a1.1 1.1 0 0 0-.9.47c-.12.15-.2.34-.27.56-.06.22-.09.47-.09.76v.18c0 .23.03.44.1.64.06.2.15.37.27.52.12.15.27.26.44.35.18.08.38.13.6.13.29 0 .53-.06.73-.18.2-.12.37-.27.52-.47l.5.4c-.1.15-.24.3-.4.44-.15.14-.35.25-.58.34-.23.09-.5.13-.81.13Zm3.7-3.9v3.81h-.82v-4.75h.77l.05.94Zm-.17 1.26-.38-.02c0-.32.05-.62.13-.9s.2-.52.36-.72c.16-.2.36-.37.6-.48.25-.11.52-.17.84-.17.22 0 .43.03.62.1a1.24 1.24 0 0 1 .8.81c.08.21.12.47.12.77v3.16h-.81V160c0-.25-.05-.44-.13-.6a.72.72 0 0 0-.35-.32c-.16-.07-.34-.1-.54-.1-.24 0-.44.04-.6.12-.16.09-.3.2-.39.36-.1.14-.17.32-.21.5-.04.2-.06.4-.06.62Zm3.08-.45-.55.16c0-.26.05-.5.13-.75.09-.24.2-.45.37-.64a1.84 1.84 0 0 1 1.4-.61c.25 0 .47.03.67.1.2.07.37.17.5.31.14.14.24.32.31.54.07.21.1.47.1.77v3.12h-.8V160c0-.27-.05-.47-.14-.62a.67.67 0 0 0-.35-.31 1.42 1.42 0 0 0-1 0 1 1 0 0 0-.36.25c-.09.1-.16.23-.21.37-.05.14-.07.28-.07.44Zm5.14-1.75v4.75h-.81v-4.75h.81Zm-.87-1.26a.5.5 0 0 1 .11-.34c.09-.09.2-.13.36-.13.16 0 .28.04.36.13.09.1.13.2.13.34 0 .12-.04.23-.13.32-.08.09-.2.13-.36.13-.15 0-.27-.04-.36-.13a.48.48 0 0 1-.11-.32Zm3.08 2.27v3.74h-.8v-4.75h.76l.04 1.01Zm-.19 1.19-.34-.02c0-.32.05-.62.15-.9.1-.28.22-.52.4-.72a1.75 1.75 0 0 1 1.39-.65c.23 0 .44.03.63.1.19.06.35.16.48.3.13.13.24.31.3.53.08.22.11.48.11.8v3.11h-.82v-3.12c0-.25-.03-.45-.1-.6a.67.67 0 0 0-.33-.33c-.14-.07-.31-.1-.52-.1a1.2 1.2 0 0 0-.98.48 1.77 1.77 0 0 0-.37 1.12Zm7.44 1.63v-5.83h.82v6.75h-.75l-.07-.92Zm-3.2-1.4v-.1c0-.36.05-.69.14-.98.09-.3.22-.56.38-.77a1.69 1.69 0 0 1 1.37-.67c.3 0 .56.05.78.16.22.1.41.25.57.45.16.2.28.44.37.71.1.28.16.6.2.95v.4c-.04.35-.1.66-.2.94-.09.28-.21.52-.37.72-.16.2-.35.34-.57.45a1.89 1.89 0 0 1-1.56-.03 1.81 1.81 0 0 1-.6-.5c-.15-.22-.28-.48-.37-.77-.1-.3-.13-.62-.13-.96Zm.82-.1v.1c0 .24.03.46.07.67.05.2.13.39.23.55.1.15.23.28.4.37.15.09.34.13.56.13.27 0 .49-.06.66-.17.18-.11.32-.27.42-.45.11-.19.2-.4.25-.61v-1.06a2.37 2.37 0 0 0-.15-.47 1.44 1.44 0 0 0-.26-.4 1.1 1.1 0 0 0-.38-.29c-.15-.07-.33-.1-.53-.1-.22 0-.42.04-.58.14-.16.09-.29.21-.39.38-.1.15-.18.34-.23.55-.04.2-.07.43-.07.67Zm6.53 2.51c-.33 0-.63-.05-.9-.17a2.04 2.04 0 0 1-1.13-1.2c-.1-.29-.15-.6-.15-.93v-.18c0-.39.06-.73.17-1.03.11-.3.27-.57.47-.78a2 2 0 0 1 2.32-.46c.24.11.45.28.6.49.16.2.28.45.36.74.07.28.11.59.11.92v.36H82.4v-.66h2.74v-.06a2.02 2.02 0 0 0-.13-.62 1.1 1.1 0 0 0-.35-.49c-.17-.13-.39-.2-.66-.2a1.1 1.1 0 0 0-.91.47c-.11.15-.2.34-.26.56-.06.22-.1.47-.1.76v.18c0 .23.04.44.1.64.06.2.15.37.27.52a1.36 1.36 0 0 0 1.04.48c.3 0 .54-.06.74-.18.2-.12.37-.27.52-.47l.49.4c-.1.15-.23.3-.4.44-.15.14-.34.25-.58.34-.22.09-.5.13-.8.13Zm3.7-4.1v4.01H87v-4.75h.78l.03.75Zm1.5-.77-.01.76a2 2 0 0 0-.4-.03c-.19 0-.35.02-.5.08-.14.06-.26.14-.36.25-.1.1-.18.23-.24.38-.05.14-.09.3-.1.47l-.24.13c0-.29.03-.56.09-.8.06-.26.15-.48.27-.68.12-.2.27-.34.45-.45a1.28 1.28 0 0 1 1.03-.1Z" fill="#181818"/><g clip-path="url(#b)" fill="#636363"><path fill-rule="evenodd" clip-rule="evenodd" d="M38.62 154.82a3.16 3.16 0 0 0-3.16 3.16c0 1.58-.34 2.58-.66 3.17a2.9 2.9 0 0 1-.56.73l-.03.02a.35.35 0 0 0 .2.64h8.42a.35.35 0 0 0 .2-.64l-.03-.02a2.9 2.9 0 0 1-.56-.73 6.56 6.56 0 0 1-.66-3.17 3.16 3.16 0 0 0-3.16-3.16Zm3.2 6.66.22.36H35.2l.22-.36c.38-.7.74-1.81.74-3.5a2.46 2.46 0 1 1 4.92 0c0 1.69.36 2.8.74 3.5Z"/><path d="M38.11 163.66a.35.35 0 1 0-.6.35 1.28 1.28 0 0 0 1.75.48c.2-.12.36-.28.47-.47a.35.35 0 0 0-.6-.36.58.58 0 0 1-1.02 0Z"/></g><path d="M56.2 217H55l.01-.61h1.18c.4 0 .74-.09 1.01-.26.28-.17.48-.4.61-.72.14-.3.21-.67.21-1.08v-.35c0-.32-.04-.61-.12-.87-.07-.25-.19-.47-.34-.64a1.46 1.46 0 0 0-.55-.4 1.9 1.9 0 0 0-.75-.14h-1.28v-.62h1.28c.37 0 .71.06 1.02.19.3.12.57.3.8.53.22.24.39.52.5.85.13.33.19.7.19 1.1v.35c0 .41-.06.78-.18 1.11a2.32 2.32 0 0 1-1.33 1.38c-.32.12-.67.18-1.07.18Zm-.79-5.69V217h-.75v-5.69h.75Zm6.23 5.77a1.83 1.83 0 0 1-1.8-1.22c-.1-.26-.15-.53-.15-.83v-.16c0-.34.06-.65.16-.92s.24-.5.41-.68a1.76 1.76 0 0 1 1.28-.58c.3 0 .56.06.78.16.23.1.4.25.55.44.14.18.24.4.3.66.08.25.11.52.11.82v.32h-3.16v-.59h2.44v-.06a1.81 1.81 0 0 0-.12-.54.98.98 0 0 0-.31-.44.91.91 0 0 0-.59-.17.98.98 0 0 0-.8.4c-.1.15-.18.31-.24.5-.05.2-.08.43-.08.68v.16c0 .2.03.4.08.57.06.18.14.33.25.46a1.2 1.2 0 0 0 .93.43c.25 0 .47-.05.64-.16.18-.1.34-.24.47-.42l.44.35c-.1.14-.21.27-.35.4-.14.12-.32.22-.52.3-.2.08-.45.12-.72.12Zm5.03-1.2a.6.6 0 0 0-.07-.29.6.6 0 0 0-.28-.25 2.27 2.27 0 0 0-.63-.2 5 5 0 0 1-.63-.17 1.95 1.95 0 0 1-.48-.24c-.13-.1-.23-.21-.3-.34a1.06 1.06 0 0 1 0-.93c.08-.15.18-.28.32-.4.13-.11.3-.2.5-.27a2 2 0 0 1 .64-.1c.34 0 .62.06.86.19.24.12.43.28.56.47.12.2.19.42.19.67h-.73a.62.62 0 0 0-.1-.34.78.78 0 0 0-.3-.28.98.98 0 0 0-.48-.11c-.2 0-.37.03-.5.1a.63.63 0 0 0-.26.22.58.58 0 0 0-.04.51c.02.06.07.12.14.17.08.05.17.1.3.14.13.04.3.09.49.13.35.08.63.17.86.28.22.11.39.25.5.4a1 1 0 0 1 .16.58 1.1 1.1 0 0 1-.45.91c-.14.11-.31.2-.52.26-.2.06-.42.09-.66.09-.38 0-.7-.07-.95-.2-.26-.13-.45-.3-.58-.52-.14-.2-.2-.43-.2-.67h.72c.01.2.07.36.17.48.1.11.24.2.39.24a1.5 1.5 0 0 0 .94 0 .68.68 0 0 0 .31-.22c.07-.09.1-.2.1-.31Zm3.44.6c.17 0 .33-.03.48-.1a.98.98 0 0 0 .36-.29.8.8 0 0 0 .16-.43h.69c-.02.25-.1.49-.26.7a1.73 1.73 0 0 1-1.43.72c-.32 0-.6-.06-.83-.17a1.64 1.64 0 0 1-.59-.46c-.15-.2-.27-.42-.34-.67a2.83 2.83 0 0 1-.12-.81v-.16c0-.29.04-.56.12-.81.07-.25.19-.48.34-.68.16-.2.36-.34.59-.46.24-.1.51-.17.83-.17.33 0 .62.07.87.2a1.58 1.58 0 0 1 .82 1.33h-.7a1.04 1.04 0 0 0-.14-.47.96.96 0 0 0-.85-.47c-.22 0-.4.05-.56.14a.98.98 0 0 0-.35.35c-.09.15-.15.31-.19.5-.04.17-.05.35-.05.53v.17c0 .18.01.37.05.55.04.17.1.34.18.48.1.15.21.27.36.35.15.1.34.13.56.13Zm3.3-3.04V217h-.72v-4.23h.7l.02.67Zm1.32-.69v.67a1.92 1.92 0 0 0-.35-.03c-.17 0-.32.03-.44.08a.91.91 0 0 0-.33.22c-.09.1-.16.2-.21.33-.05.13-.08.27-.1.42l-.2.12c0-.25.02-.5.07-.72.06-.22.13-.42.24-.59.1-.17.24-.31.4-.4a1.14 1.14 0 0 1 .92-.1Zm1.54.02V217h-.73v-4.23h.73Zm-.78-1.12c0-.12.03-.21.1-.3.07-.07.18-.12.32-.12s.24.05.32.13c.07.08.11.17.11.3a.4.4 0 0 1-.11.28c-.08.08-.18.12-.32.12s-.25-.04-.32-.12a.42.42 0 0 1-.1-.29Zm2.74 1.94v5.03h-.73v-5.85h.67l.06.82Zm2.85 1.26v.08c0 .31-.04.6-.11.86s-.18.49-.32.68c-.14.2-.31.34-.51.45a1.78 1.78 0 0 1-1.41.03 1.4 1.4 0 0 1-.53-.4 1.99 1.99 0 0 1-.34-.6c-.08-.24-.14-.5-.17-.8v-.44c.03-.31.09-.6.17-.84.09-.25.2-.46.34-.63.15-.18.32-.31.52-.4.2-.1.44-.15.7-.15.27 0 .5.06.71.16.2.1.38.25.52.44a2 2 0 0 1 .32.68c.07.27.1.56.1.88Zm-.73.08v-.08c0-.2-.02-.4-.06-.6a1.5 1.5 0 0 0-.21-.48.97.97 0 0 0-.86-.47 1.05 1.05 0 0 0-.82.35c-.1.1-.17.23-.23.36-.06.14-.1.27-.13.42v1c.05.19.12.36.22.52.1.16.22.3.37.39.16.1.36.14.6.14a1 1 0 0 0 .5-.12c.14-.08.26-.2.35-.34.1-.14.16-.3.2-.49.05-.19.07-.38.07-.6Zm3.5-2.16v.56h-2.28v-.56h2.28Zm-1.51-1.02h.72v4.2c0 .15.02.25.07.33.04.07.1.12.17.14.07.03.15.04.23.04.06 0 .12 0 .18-.02l.16-.03v.59a1.79 1.79 0 0 1-.56.08c-.17 0-.34-.04-.49-.1a.79.79 0 0 1-.35-.36c-.09-.17-.13-.39-.13-.67v-4.2Zm3.23 1.02V217h-.73v-4.23h.73Zm-.79-1.12c0-.12.04-.21.11-.3.07-.07.18-.12.32-.12s.24.05.32.13c.07.08.11.17.11.3a.4.4 0 0 1-.11.28c-.08.08-.18.12-.32.12s-.25-.04-.32-.12a.42.42 0 0 1-.1-.29Zm1.84 3.28v-.09c0-.3.04-.58.13-.84.09-.27.21-.5.38-.69.17-.2.37-.34.6-.45.24-.11.5-.17.8-.17.3 0 .57.06.8.17.24.1.45.26.61.45.17.2.3.42.4.69.08.26.12.54.12.84v.1c0 .3-.04.58-.13.84s-.22.49-.39.69a1.76 1.76 0 0 1-1.4.6c-.3 0-.56-.04-.8-.15a1.8 1.8 0 0 1-1-1.14 2.62 2.62 0 0 1-.12-.85Zm.72-.09v.1c0 .2.02.4.07.6.05.18.13.34.23.48.1.15.22.26.37.34.16.08.33.12.53.12s.37-.04.52-.12c.15-.08.28-.2.38-.34.1-.14.17-.3.22-.49.05-.19.08-.38.08-.6v-.09c0-.2-.03-.4-.08-.59a1.51 1.51 0 0 0-.23-.5c-.1-.14-.22-.25-.37-.34a1.06 1.06 0 0 0-.53-.12c-.2 0-.37.04-.52.12-.15.09-.27.2-.37.35-.1.14-.18.3-.23.5-.05.18-.07.38-.07.58Zm4.83-1.16V217h-.72v-4.23h.68l.04.9Zm-.17 1.05-.3-.01c0-.3.05-.56.13-.8a2 2 0 0 1 .35-.65 1.56 1.56 0 0 1 1.24-.58c.2 0 .4.03.56.1.17.05.31.13.43.26.12.12.2.28.27.47.06.2.1.43.1.71V217h-.73v-2.78c0-.22-.03-.4-.1-.53a.6.6 0 0 0-.28-.3c-.13-.05-.28-.08-.47-.08a1.06 1.06 0 0 0-.87.42 1.58 1.58 0 0 0-.33 1Zm3.97 1.89c0-.13.03-.23.1-.31.09-.09.2-.13.35-.13.14 0 .25.04.33.13.08.08.11.19.11.3 0 .13-.03.23-.11.31-.08.09-.19.13-.33.13-.15 0-.26-.05-.34-.13a.44.44 0 0 1-.11-.3Zm2.19 0c0-.13.03-.23.11-.31.08-.09.19-.13.34-.13.14 0 .25.04.33.13.08.08.12.19.12.3 0 .13-.04.23-.12.31-.08.09-.19.13-.33.13-.15 0-.26-.05-.34-.13a.44.44 0 0 1-.11-.3Zm2.19 0c0-.13.04-.23.11-.31.08-.09.2-.13.34-.13s.25.04.33.13c.08.08.12.19.12.3 0 .13-.04.23-.12.31-.08.09-.19.13-.33.13-.15 0-.26-.05-.34-.13a.43.43 0 0 1-.11-.3Z" fill="#727272"/><path d="M46.75 211.97v.63h-7.5v-.63h7.5Zm-7.5 4.38H43v-.63h-3.75v.63Zm0-1.88h7.5v-.62h-7.5v.62Z" fill="#A7A7A7"/><path d="M58.1 189.51v.62h-2.83v-.62h2.84Zm-2.69-5.07v5.69h-.75v-5.69h.75Zm4.32 1.46v4.23H59v-4.23h.73Zm-.78-1.12c0-.12.03-.22.1-.3.08-.08.18-.12.32-.12s.25.04.32.12c.08.08.11.18.11.3a.4.4 0 0 1-.1.29c-.08.08-.19.12-.33.12s-.24-.04-.32-.12a.42.42 0 0 1-.1-.29Zm4.48 4.23a.6.6 0 0 0-.07-.3.6.6 0 0 0-.28-.24 2.26 2.26 0 0 0-.62-.2 5 5 0 0 1-.64-.17 1.92 1.92 0 0 1-.48-.25.95.95 0 0 1-.4-.8c0-.16.03-.32.1-.46.08-.15.19-.28.32-.4.14-.11.3-.2.5-.27a2 2 0 0 1 .64-.1c.34 0 .63.06.87.18s.42.28.55.48c.13.2.2.42.2.66h-.73a.62.62 0 0 0-.1-.34.78.78 0 0 0-.3-.27.97.97 0 0 0-.49-.11c-.2 0-.36.03-.49.1a.63.63 0 0 0-.27.22.58.58 0 0 0-.04.5c.03.07.08.13.15.18.07.05.17.1.3.14.12.04.29.09.49.13.34.08.63.17.85.28.22.11.4.25.5.4a1 1 0 0 1 .16.58 1.1 1.1 0 0 1-.44.9c-.15.12-.32.2-.52.27-.2.06-.42.09-.67.09-.37 0-.69-.07-.94-.2-.26-.14-.46-.3-.59-.52-.13-.21-.2-.43-.2-.67h.73c0 .2.07.36.17.48.1.11.23.2.38.24a1.5 1.5 0 0 0 .95 0 .7.7 0 0 0 .3-.22c.08-.1.11-.2.11-.31Zm3.53-3.1v.55h-2.29v-.56h2.29Zm-1.52-1.04h.73v4.21c0 .14.02.25.06.32.05.08.1.13.17.15.07.02.15.03.23.03l.19-.01.15-.03v.59a1.79 1.79 0 0 1-.55.08c-.18 0-.34-.04-.5-.1a.79.79 0 0 1-.35-.36c-.08-.17-.13-.4-.13-.67v-4.2Z" fill="#727272"/><path fill-rule="evenodd" clip-rule="evenodd" d="M40.88 185.16v6.25h1.87v-6.25h-1.88Zm-.63 6.25c0 .35.28.63.63.63h1.87c.35 0 .63-.28.63-.63v-6.25a.63.63 0 0 0-.63-.62h-1.88a.63.63 0 0 0-.62.62v6.25ZM45.25 185.16v3.75h1.88v-3.75h-1.88Zm-.63 3.75c0 .35.28.63.63.63h1.88c.34 0 .62-.28.62-.63v-3.75a.63.63 0 0 0-.63-.62h-1.87a.63.63 0 0 0-.63.62v3.75Z" fill="#A1A1A1"/><rect x="279" y="140.65" width="23.26" height="3.88" rx="1.94" fill="#E4E4E4"/><rect x="279" y="158.03" width="30.24" height="3.88" rx="1.94" fill="#E4E4E4"/><rect x="279" y="175.42" width="34.9" height="3.88" rx="1.94" fill="#E4E4E4"/><rect x="272.25" y="264.39" width="34.9" height="3.88" rx="1.94" fill="#E4E4E4"/><rect x="272.25" y="200.81" width="23.26" height="3.88" rx="1.94" fill="#E4E4E4"/><rect x="272.25" y="283.78" width="23.26" height="3.88" rx="1.94" fill="#E4E4E4"/><g filter="url(#c)"><circle cx="287" cy="90" r="38" fill="#fff"/></g><g filter="url(#d)"><rect x="139" y="190" width="191" height="167" rx="4.72" fill="#fff"/><path d="M167.45 212.28v.53c0 .64-.08 1.22-.24 1.73-.16.5-.39.94-.69 1.29a3 3 0 0 1-1.08.81 3.4 3.4 0 0 1-1.4.29c-.51 0-.97-.1-1.4-.29a3.11 3.11 0 0 1-1.08-.81c-.3-.36-.55-.79-.71-1.3a5.47 5.47 0 0 1-.25-1.72v-.53c0-.65.08-1.22.24-1.72.17-.5.4-.94.71-1.3.3-.35.67-.63 1.08-.81.43-.2.89-.29 1.4-.29.51 0 .98.1 1.4.28.42.2.78.47 1.08.82.3.36.54.8.7 1.3.16.5.24 1.07.24 1.72Zm-1.11.53v-.55c0-.5-.06-.95-.16-1.34-.1-.4-.25-.72-.45-.99-.2-.26-.45-.46-.74-.6-.28-.14-.6-.2-.97-.2-.35 0-.67.06-.95.2-.28.14-.53.34-.73.6-.2.27-.35.6-.46.99-.11.39-.17.84-.17 1.34v.55c0 .51.06.97.17 1.36.1.4.26.72.47 1a2.06 2.06 0 0 0 1.68.8c.37 0 .7-.07.98-.2.29-.14.53-.34.72-.6.2-.28.35-.6.45-1 .1-.4.16-.84.16-1.36Zm3.81-.99v4.99h-1.08v-6.34h1.03l.05 1.35Zm-.25 1.58-.45-.02c0-.43.06-.83.19-1.2a3 3 0 0 1 .53-.97 2.34 2.34 0 0 1 1.85-.86c.31 0 .6.05.85.13.25.09.46.22.63.4.18.19.32.42.41.72.1.28.15.64.15 1.06v4.15h-1.1v-4.17c0-.33-.04-.6-.14-.8a.9.9 0 0 0-.43-.43c-.19-.1-.42-.14-.69-.14-.27 0-.51.05-.74.17-.22.11-.4.27-.57.47a2.37 2.37 0 0 0-.5 1.49Zm11.6-2.93v.83h-3.42v-.83h3.43Zm-2.26-1.54h1.08v6.3c0 .22.04.39.1.5.07.1.16.18.26.21.1.04.22.05.34.05a1.84 1.84 0 0 0 .51-.07v.89c-.08.03-.2.05-.33.07-.14.03-.3.05-.5.05-.27 0-.51-.06-.73-.16-.23-.1-.4-.28-.54-.53-.13-.25-.19-.59-.19-1v-6.3Zm4.7-1.12v9h-1.07v-9h1.08Zm-.25 5.59-.45-.02c0-.43.07-.83.2-1.2a3 3 0 0 1 .52-.97 2.35 2.35 0 0 1 1.86-.86c.31 0 .6.05.84.13.25.09.46.22.64.4.18.19.32.42.4.72.1.28.15.64.15 1.06v4.15h-1.09v-4.17c0-.33-.05-.6-.15-.8a.9.9 0 0 0-.42-.43c-.2-.1-.42-.14-.7-.14a1.6 1.6 0 0 0-1.3.64 2.33 2.33 0 0 0-.5 1.49Zm8.5 3.53c-.44 0-.84-.08-1.2-.23a2.72 2.72 0 0 1-1.5-1.6c-.14-.38-.21-.8-.21-1.24v-.24c0-.52.08-.98.23-1.38.15-.4.36-.75.62-1.03a2.66 2.66 0 0 1 3.1-.62c.32.16.6.37.8.65.22.28.37.61.47.99.1.37.16.78.16 1.23v.48h-4.74v-.88h3.65v-.08a2.7 2.7 0 0 0-.17-.82c-.1-.27-.26-.49-.47-.66-.22-.17-.5-.26-.88-.26a1.48 1.48 0 0 0-1.21.62c-.15.2-.27.45-.35.74-.08.3-.12.63-.12 1.02v.24c0 .3.04.59.12.85.09.26.21.5.37.7a1.76 1.76 0 0 0 1.39.63c.38 0 .7-.08.97-.23.27-.16.5-.37.7-.63l.65.52a2.5 2.5 0 0 1-1.3 1.05c-.3.12-.66.18-1.08.18Zm10.57-1.8a.9.9 0 0 0-.1-.44.89.89 0 0 0-.42-.37 3.4 3.4 0 0 0-.94-.29 7.49 7.49 0 0 1-.95-.26c-.28-.1-.52-.23-.72-.37a1.43 1.43 0 0 1-.6-1.2c0-.24.05-.48.16-.7.1-.23.27-.42.47-.6.2-.17.46-.3.74-.4a3 3 0 0 1 .97-.15c.5 0 .94.1 1.3.27.36.18.63.42.83.72.19.3.28.63.28 1h-1.08a.93.93 0 0 0-.16-.52c-.1-.16-.25-.3-.45-.41-.2-.11-.44-.17-.72-.17-.3 0-.55.05-.73.14a.94.94 0 0 0-.4.35.87.87 0 0 0-.07.76.7.7 0 0 0 .22.25c.1.08.26.15.45.21.19.07.43.14.73.2.52.12.95.26 1.28.42.34.17.59.37.75.6.16.25.25.54.25.88a1.65 1.65 0 0 1-.68 1.35c-.21.17-.47.3-.77.4-.3.08-.63.13-1 .13-.56 0-1.03-.1-1.42-.3a2.2 2.2 0 0 1-.88-.78c-.2-.31-.3-.65-.3-1h1.1c.01.3.1.53.25.71.16.17.35.3.58.37a2.27 2.27 0 0 0 1.41-.01c.2-.08.36-.19.47-.32.1-.14.15-.3.15-.47Zm6.34.6v-3.27c0-.25-.06-.46-.16-.65a1 1 0 0 0-.44-.43c-.2-.1-.45-.15-.74-.15-.27 0-.51.04-.72.14-.2.1-.36.21-.48.37a.8.8 0 0 0-.17.49h-1.08c0-.23.06-.45.17-.67.12-.23.29-.43.5-.6.23-.2.5-.34.8-.44.31-.11.66-.17 1.04-.17.47 0 .87.08 1.22.24.36.16.64.4.84.7.2.32.3.71.3 1.18v2.96c0 .2.02.43.05.67.04.24.1.44.17.61v.1h-1.13a4.04 4.04 0 0 1-.17-1.08Zm.18-2.76.01.76h-1.09c-.3 0-.58.02-.83.07a1.9 1.9 0 0 0-.6.22.98.98 0 0 0-.5.88c0 .2.04.38.13.54.09.17.22.3.4.4.18.09.4.14.67.14a1.8 1.8 0 0 0 1.49-.73c.15-.2.23-.4.24-.6l.46.53c-.02.16-.1.35-.22.54a2.62 2.62 0 0 1-1.2 1.03c-.27.12-.58.18-.93.18-.42 0-.8-.09-1.13-.26-.31-.16-.56-.39-.75-.67-.17-.28-.26-.6-.26-.96 0-.33.07-.63.2-.9.13-.25.32-.47.57-.64.25-.18.56-.3.9-.4.36-.09.75-.13 1.18-.13h1.26Zm3.77-1.24v5.08h-1.09v-6.34h1.03l.06 1.26Zm-.22 1.67-.5-.02c0-.43.05-.83.16-1.2s.27-.7.49-.97c.21-.27.48-.48.8-.63.32-.15.7-.23 1.12-.23.3 0 .56.05.81.13a1.67 1.67 0 0 1 1.08 1.09 3 3 0 0 1 .15 1.02v4.22h-1.08v-4.17c0-.33-.06-.6-.17-.8a.97.97 0 0 0-.47-.43 1.7 1.7 0 0 0-.71-.14c-.32 0-.59.05-.8.17-.22.11-.4.27-.52.47-.13.2-.22.42-.28.68-.06.25-.08.53-.08.81Zm4.1-.6-.72.22c0-.34.06-.68.17-1 .11-.32.27-.6.48-.85a2.46 2.46 0 0 1 1.86-.81c.34 0 .65.04.9.13.27.09.5.23.67.41.19.19.33.42.42.71.1.3.14.64.14 1.03v4.17h-1.09v-4.18c0-.35-.05-.63-.17-.82a.88.88 0 0 0-.47-.42 1.87 1.87 0 0 0-1.34 0c-.19.08-.34.2-.47.34-.12.14-.22.3-.28.49-.07.18-.1.38-.1.58Zm8.28 4.13c-.44 0-.84-.08-1.2-.23a2.73 2.73 0 0 1-1.5-1.6c-.14-.38-.21-.8-.21-1.24v-.24c0-.52.07-.98.23-1.38.15-.4.36-.75.62-1.03a2.65 2.65 0 0 1 1.92-.86c.45 0 .84.08 1.17.24.33.16.6.37.81.65.21.28.37.61.47.99.1.37.16.78.16 1.23v.48h-4.74v-.88h3.65v-.08a2.7 2.7 0 0 0-.17-.82c-.1-.27-.26-.49-.47-.66-.22-.17-.51-.26-.88-.26a1.48 1.48 0 0 0-1.21.62c-.15.2-.27.45-.35.74-.08.3-.12.63-.12 1.02v.24c0 .3.04.59.12.85.09.26.21.5.37.7a1.81 1.81 0 0 0 1.39.64c.38 0 .7-.09.97-.24.26-.16.5-.37.7-.63l.65.52a2.5 2.5 0 0 1-1.3 1.05c-.3.12-.66.18-1.08.18Zm10.88-1.35v-7.77h1.09v9h-1l-.1-1.23Zm-4.27-1.87v-.12c0-.49.06-.93.18-1.32.12-.4.29-.74.5-1.03a2.25 2.25 0 0 1 1.82-.89c.4 0 .75.07 1.05.22a2 2 0 0 1 .76.6c.21.26.38.58.5.95s.2.79.25 1.26v.53c-.04.47-.12.89-.25 1.26-.12.37-.29.69-.5.95-.2.26-.46.46-.76.6a2.52 2.52 0 0 1-2.07-.03 2.4 2.4 0 0 1-.8-.68 3.3 3.3 0 0 1-.5-1.02 4.5 4.5 0 0 1-.18-1.28Zm1.1-.12v.12c0 .32.02.61.09.89.06.28.16.52.3.73.14.21.31.38.52.5.21.12.46.18.76.18a1.57 1.57 0 0 0 1.44-.84c.14-.25.25-.52.33-.81v-1.41a3.12 3.12 0 0 0-.2-.62 1.9 1.9 0 0 0-.34-.54c-.14-.16-.3-.29-.51-.38-.2-.1-.44-.14-.71-.14-.3 0-.55.06-.77.19-.2.12-.38.28-.52.5-.14.21-.24.46-.3.74-.07.27-.1.57-.1.89Zm9.77 2.13v-3.26c0-.25-.05-.46-.15-.65a1 1 0 0 0-.45-.43c-.2-.1-.44-.15-.74-.15-.27 0-.51.04-.72.14-.2.1-.36.21-.48.37a.81.81 0 0 0-.17.49h-1.08c0-.23.06-.45.17-.67.12-.23.29-.43.5-.6.23-.2.5-.34.8-.44.32-.11.66-.17 1.05-.17.46 0 .86.08 1.22.24.35.16.63.4.83.7.2.32.3.71.3 1.18v2.96c0 .2.02.43.05.67.04.24.1.44.17.61v.1h-1.13a4.05 4.05 0 0 1-.18-1.08Zm.19-2.75v.76h-1.09c-.3 0-.58.02-.82.07a1.9 1.9 0 0 0-.61.22.98.98 0 0 0-.5.88 1 1 0 0 0 .54.94c.18.09.4.14.67.14a1.79 1.79 0 0 0 1.48-.73c.15-.2.23-.4.24-.6l.47.53c-.03.16-.1.35-.23.54a2.65 2.65 0 0 1-1.2 1.03c-.27.12-.58.18-.92.18-.43 0-.8-.09-1.13-.26a1.78 1.78 0 0 1-1.01-1.63c0-.33.06-.63.2-.9.13-.25.32-.47.57-.64.25-.18.55-.3.9-.4.35-.09.74-.13 1.18-.13h1.25Zm4.37 3.18 1.76-5.68h1.16l-2.54 7.32a4.22 4.22 0 0 1-.6 1.02 1.73 1.73 0 0 1-1.28.56 3.32 3.32 0 0 1-.6-.1l-.01-.88a2.42 2.42 0 0 0 .92-.07.95.95 0 0 0 .43-.32c.12-.15.22-.36.31-.62l.45-1.23Zm-1.3-5.68 1.65 4.92.28 1.14-.78.4-2.33-6.46h1.19Zm12.1 5.25v-3.26c0-.25-.06-.46-.16-.65a1 1 0 0 0-.45-.43c-.2-.1-.44-.15-.73-.15-.28 0-.52.04-.72.14-.2.1-.37.21-.49.37a.81.81 0 0 0-.16.49h-1.09c0-.23.06-.45.18-.67.11-.23.28-.43.5-.6.22-.2.49-.34.8-.44.31-.11.66-.17 1.04-.17.46 0 .87.08 1.22.24.35.16.63.4.83.7.2.32.3.71.3 1.18v2.96c0 .2.02.43.06.67.04.24.1.44.17.61v.1h-1.13a4.05 4.05 0 0 1-.18-1.08Zm.18-2.75.01.76h-1.1c-.3 0-.58.02-.82.07a1.9 1.9 0 0 0-.61.22c-.16.1-.29.22-.38.37a1.11 1.11 0 0 0 0 1.05 1 1 0 0 0 .41.4c.19.09.41.14.68.14a1.79 1.79 0 0 0 1.48-.73c.15-.2.24-.4.25-.6l.46.53c-.03.16-.1.35-.22.54a2.65 2.65 0 0 1-1.2 1.03c-.28.12-.59.18-.93.18-.43 0-.8-.09-1.13-.26a1.78 1.78 0 0 1-1.01-1.63c0-.33.06-.63.2-.9.13-.25.32-.47.57-.64.25-.18.55-.3.9-.4.35-.09.75-.13 1.18-.13h1.26Zm5.34-2.5v.83h-3.43v-.83h3.43Zm-2.27-1.54h1.09v6.3c0 .22.03.39.1.5.06.1.15.18.25.21.11.04.22.05.34.05a1.87 1.87 0 0 0 .51-.07l.01.89c-.09.03-.2.05-.34.07-.14.03-.3.05-.5.05-.26 0-.5-.06-.73-.16-.22-.1-.4-.28-.53-.53s-.2-.59-.2-1v-6.3Zm7.65 6.97h.12c.62 0 1.13-.09 1.52-.26.39-.18.69-.41.9-.71.21-.3.36-.63.43-1 .08-.38.12-.76.12-1.16v-1.3c0-.39-.04-.73-.13-1.03-.09-.3-.21-.56-.37-.76a1.6 1.6 0 0 0-.52-.46c-.2-.1-.4-.16-.62-.16a1.42 1.42 0 0 0-1.17.57c-.13.18-.23.39-.3.63a2.84 2.84 0 0 0 .27 2.17c.13.2.29.35.48.46a1.64 1.64 0 0 0 1.36.02 1.9 1.9 0 0 0 .97-.96c.1-.2.16-.43.18-.66h.51c0 .33-.06.65-.19.96a2.96 2.96 0 0 1-1.32 1.48c-.3.15-.64.23-1 .23a2.22 2.22 0 0 1-1.86-.9c-.2-.28-.34-.58-.44-.92a3.84 3.84 0 0 1 .03-2.17c.12-.36.28-.67.5-.94.23-.27.5-.49.83-.64.33-.15.72-.23 1.15-.23a2.41 2.41 0 0 1 2.08 1.08c.23.33.39.7.49 1.1.1.42.15.84.15 1.27v.4c0 .44-.03.89-.09 1.34a5.4 5.4 0 0 1-.32 1.3 3.17 3.17 0 0 1-1.86 1.89c-.48.19-1.08.28-1.78.28h-.12v-.92Zm5.83.33c0-.18.06-.33.17-.46.12-.13.29-.2.5-.2.23 0 .4.07.5.2.12.13.18.28.18.46s-.06.34-.18.46c-.1.13-.27.19-.5.19-.21 0-.38-.06-.5-.19a.66.66 0 0 1-.17-.46Zm0-5.17c0-.18.07-.34.18-.46.12-.13.28-.2.5-.2.22 0 .39.07.5.2.12.13.18.28.18.46s-.06.34-.18.46c-.11.13-.28.19-.5.19-.22 0-.38-.06-.5-.19a.65.65 0 0 1-.17-.46Zm8.28.8v1.3c0 .7-.06 1.3-.19 1.77-.12.48-.3.87-.54 1.16-.23.3-.51.5-.85.64a3.19 3.19 0 0 1-2.02.07 2.16 2.16 0 0 1-.75-.39 2.4 2.4 0 0 1-.56-.72c-.15-.29-.27-.64-.36-1.06-.08-.42-.12-.9-.12-1.47v-1.3c0-.7.06-1.28.19-1.75s.3-.85.54-1.14c.24-.29.52-.5.85-.62a3.21 3.21 0 0 1 2.03-.06 2.08 2.08 0 0 1 1.3 1.07c.16.28.27.63.36 1.05.08.41.12.9.12 1.46Zm-1.09 1.48v-1.66c0-.38-.02-.72-.07-1-.04-.3-.1-.55-.2-.75-.08-.21-.19-.38-.32-.5a1.14 1.14 0 0 0-.45-.29 1.6 1.6 0 0 0-.57-.1c-.26 0-.49.06-.69.16-.2.09-.36.24-.5.45-.13.2-.23.47-.3.81-.07.33-.11.74-.11 1.22v1.66c0 .38.02.72.06 1.01.05.3.12.55.21.77.09.2.2.38.33.52.13.13.27.24.44.3.18.06.36.1.57.1.27 0 .5-.06.7-.16.2-.1.36-.26.5-.47.13-.22.23-.5.3-.84.07-.34.1-.75.1-1.23Zm7.92-1.47v1.3c0 .7-.06 1.28-.18 1.76-.13.48-.3.87-.54 1.16-.24.3-.52.5-.85.64a3.19 3.19 0 0 1-2.02.07 2.17 2.17 0 0 1-.75-.39 2.4 2.4 0 0 1-.56-.72c-.16-.29-.28-.64-.36-1.06-.08-.42-.12-.9-.12-1.47v-1.3a7 7 0 0 1 .18-1.75c.13-.47.31-.85.55-1.14.23-.29.51-.5.84-.62.33-.12.7-.19 1.12-.19.33 0 .63.05.9.13a2.07 2.07 0 0 1 1.31 1.07c.16.28.28.63.36 1.05.08.41.13.9.13 1.46Zm-1.08 1.47v-1.66c0-.38-.03-.72-.07-1-.05-.3-.11-.55-.2-.75-.08-.21-.2-.38-.33-.5a1.15 1.15 0 0 0-.45-.29 1.6 1.6 0 0 0-.56-.1c-.26 0-.5.06-.69.16-.2.09-.37.24-.5.45-.14.2-.24.47-.3.81-.08.33-.11.74-.11 1.22v1.66c0 .38.02.72.06 1.01.05.3.12.55.2.77.1.2.2.38.33.52.13.13.28.24.45.3.17.06.36.1.57.1.26 0 .5-.06.7-.16.2-.1.36-.26.5-.47.13-.22.23-.5.3-.84.06-.34.1-.75.1-1.23Zm6.42 2.38v-3.26c0-.25-.05-.46-.15-.65a1 1 0 0 0-.45-.43c-.2-.1-.44-.15-.73-.15-.28 0-.52.04-.72.14-.2.1-.37.21-.49.37a.81.81 0 0 0-.17.49h-1.08c0-.23.06-.45.18-.67.12-.23.28-.43.5-.6.22-.2.49-.34.8-.44.31-.11.66-.17 1.04-.17.46 0 .87.08 1.22.24.35.16.63.4.83.7.2.32.3.71.3 1.18v2.96c0 .2.02.43.06.67.04.24.1.44.17.61v.1h-1.13a4.05 4.05 0 0 1-.18-1.08Zm.19-2.75.01.76h-1.1c-.3 0-.58.02-.82.07a1.9 1.9 0 0 0-.61.22c-.16.1-.29.22-.38.37a.99.99 0 0 0-.12.5 1 1 0 0 0 .54.94 1.78 1.78 0 0 0 2.16-.59c.14-.2.22-.39.24-.58l.46.52c-.03.16-.1.35-.22.54a2.62 2.62 0 0 1-1.2 1.03c-.28.12-.59.18-.93.18-.43 0-.8-.09-1.13-.26a1.78 1.78 0 0 1-1.01-1.63c0-.33.06-.63.2-.9.13-.25.32-.47.57-.64.25-.18.55-.3.9-.4.35-.09.75-.13 1.18-.13h1.26Zm3.76-1.24v5.08h-1.08v-6.34h1.03l.06 1.26Zm-.22 1.67-.5-.02c0-.43.06-.83.17-1.2.1-.37.27-.7.49-.97.21-.27.48-.48.8-.63.32-.15.69-.23 1.11-.23.3 0 .57.05.82.13a1.65 1.65 0 0 1 1.08 1.09c.1.28.15.62.15 1.02v4.22H302v-4.17c0-.33-.06-.6-.17-.8a.98.98 0 0 0-.47-.43 1.7 1.7 0 0 0-.72-.14c-.32 0-.58.05-.8.17-.21.11-.38.27-.51.47-.13.2-.23.42-.28.68-.06.25-.09.53-.09.81Zm4.1-.6-.72.22c0-.34.06-.68.17-1 .12-.32.28-.6.49-.85.21-.25.48-.45.79-.6.31-.14.67-.22 1.07-.22.34 0 .64.05.9.14.27.09.49.23.67.41.18.19.32.42.42.71.09.3.14.64.14 1.03v4.17h-1.1v-4.18c0-.35-.05-.63-.16-.82a.88.88 0 0 0-.47-.42 1.88 1.88 0 0 0-1.35 0c-.18.08-.34.2-.46.34-.13.14-.22.3-.29.49-.06.18-.1.38-.1.58ZM164.04 238.47V247h-1.11v-8.53h1.1Zm2.74 0v.93h-6.59v-.93h6.59Zm2.27-.47v9h-1.08v-9h1.08Zm-.25 5.6-.46-.03c0-.43.07-.83.2-1.2.12-.37.3-.69.53-.96a2.34 2.34 0 0 1 1.85-.86c.31 0 .6.04.84.12.25.09.47.22.64.4.18.19.32.42.41.72.1.29.14.64.14 1.06V247h-1.09v-4.16c0-.34-.04-.6-.14-.8a.9.9 0 0 0-.43-.44c-.19-.1-.42-.14-.7-.14a1.6 1.6 0 0 0-1.3.64 2.36 2.36 0 0 0-.5 1.5Zm8.5 3.52c-.45 0-.85-.08-1.2-.23a2.73 2.73 0 0 1-1.51-1.6c-.14-.38-.2-.8-.2-1.24v-.24c0-.52.07-.98.22-1.38.15-.4.36-.75.62-1.03a2.66 2.66 0 0 1 3.1-.62c.33.16.6.38.8.66.22.27.38.6.48.98.1.37.15.78.15 1.23v.49h-4.73v-.89h3.65v-.08a2.73 2.73 0 0 0-.18-.82c-.1-.27-.25-.48-.47-.66-.21-.17-.5-.25-.88-.25a1.46 1.46 0 0 0-1.2.61c-.16.2-.27.45-.35.74-.09.3-.13.64-.13 1.02v.24c0 .3.04.59.13.85.08.26.2.5.37.7a1.76 1.76 0 0 0 1.38.63c.39 0 .71-.08.97-.23.27-.16.5-.37.7-.63l.66.52c-.14.21-.31.4-.52.6-.21.18-.47.33-.78.45-.3.12-.67.18-1.09.18Zm10.87-1.35V238h1.1v9h-1l-.1-1.23Zm-4.26-1.87v-.12c0-.49.06-.93.17-1.32.13-.4.3-.74.51-1.02a2.25 2.25 0 0 1 1.82-.89c.4 0 .75.07 1.05.2.3.14.55.34.76.61.21.26.38.58.5.95s.2.79.25 1.26v.54c-.04.46-.13.88-.25 1.25s-.29.69-.5.95c-.2.26-.46.46-.76.6a2.54 2.54 0 0 1-2.08-.03c-.3-.16-.56-.39-.79-.68a3.28 3.28 0 0 1-.5-1.02 4.5 4.5 0 0 1-.18-1.28Zm1.09-.12v.12c0 .32.03.61.1.9.06.27.16.51.3.72.13.21.3.38.52.5.2.12.46.18.75.18.36 0 .66-.08.89-.23.23-.15.42-.35.56-.6.14-.25.25-.53.33-.82v-1.41a3.12 3.12 0 0 0-.2-.62c-.1-.2-.2-.38-.35-.54-.13-.16-.3-.29-.5-.38-.2-.1-.44-.14-.72-.14-.3 0-.55.06-.76.19a1.5 1.5 0 0 0-.52.5c-.14.21-.24.46-.3.74-.07.28-.1.57-.1.89Zm9.77 2.14v-3.27c0-.25-.05-.46-.15-.65a1 1 0 0 0-.44-.43c-.2-.1-.45-.15-.74-.15-.28 0-.51.05-.72.14-.2.1-.37.22-.48.37a.8.8 0 0 0-.17.49h-1.09c0-.23.06-.45.18-.67.12-.23.28-.43.5-.6.23-.2.5-.34.8-.44.31-.11.66-.16 1.04-.16.46 0 .87.07 1.22.23.36.16.63.4.83.7.2.32.3.71.3 1.19v2.95c0 .2.02.43.06.67.04.24.1.44.17.62v.09h-1.13a4.05 4.05 0 0 1-.18-1.08Zm.2-2.76v.76h-1.1c-.3 0-.58.02-.82.08-.24.04-.44.11-.6.21a.97.97 0 0 0-.5.88.98.98 0 0 0 .54.94c.17.1.4.14.66.14a1.78 1.78 0 0 0 1.48-.73c.16-.2.24-.4.25-.59l.46.52c-.03.16-.1.35-.22.55a2.62 2.62 0 0 1-1.2 1.02c-.27.12-.58.18-.93.18-.43 0-.8-.09-1.13-.25a1.78 1.78 0 0 1-1.01-1.63c0-.34.07-.64.2-.9s.32-.48.57-.65c.25-.18.55-.3.9-.4.36-.09.75-.13 1.18-.13h1.26Zm4.37 3.18 1.76-5.68h1.16l-2.54 7.32a3.86 3.86 0 0 1-.6 1.02c-.15.17-.33.3-.54.4a1.63 1.63 0 0 1-1.07.12 3.3 3.3 0 0 1-.28-.06v-.87a2.69 2.69 0 0 0 .91-.08.95.95 0 0 0 .44-.32c.12-.15.22-.35.3-.62l.46-1.23Zm-1.3-5.68 1.65 4.92.28 1.14-.78.4-2.33-6.46h1.18Zm8.34-2.66h1.1v7.77l-.1 1.23h-1v-9Zm5.38 5.78v.12c0 .46-.06.89-.17 1.28-.1.4-.27.73-.48 1.02-.21.3-.47.52-.77.68-.3.16-.66.24-1.05.24-.4 0-.76-.07-1.06-.2-.3-.15-.56-.35-.76-.61-.2-.26-.38-.58-.5-.95a6 6 0 0 1-.25-1.25v-.54a6 6 0 0 1 .25-1.26c.13-.37.3-.69.5-.95a2 2 0 0 1 .76-.6c.3-.14.65-.21 1.05-.21s.75.07 1.06.23c.3.15.56.37.77.66.21.28.37.62.48 1.02.11.4.16.83.16 1.32Zm-1.1.12v-.12c0-.32-.02-.62-.08-.9a2.3 2.3 0 0 0-.28-.73 1.4 1.4 0 0 0-1.3-.7c-.27 0-.5.06-.7.15-.2.1-.38.22-.52.38s-.25.34-.34.54c-.09.2-.15.4-.2.62v1.41a3 3 0 0 0 .3.8c.15.24.34.45.58.6.25.17.54.25.9.25.3 0 .54-.06.75-.18.21-.12.38-.29.5-.5.14-.2.24-.45.3-.73.06-.28.1-.57.1-.89Zm5.18 3.22c-.44 0-.84-.08-1.2-.23a2.72 2.72 0 0 1-1.5-1.6c-.14-.38-.2-.8-.2-1.24v-.24c0-.52.07-.98.22-1.38.15-.4.36-.75.62-1.03a2.65 2.65 0 0 1 3.1-.62c.33.16.6.38.8.66.22.27.38.6.48.98.1.37.15.78.15 1.23v.49h-4.73v-.89h3.65v-.08a2.73 2.73 0 0 0-.18-.82c-.1-.27-.25-.48-.47-.66-.21-.17-.5-.25-.88-.25a1.47 1.47 0 0 0-1.21.61c-.15.2-.26.45-.34.74-.09.3-.13.64-.13 1.02v.24c0 .3.04.59.13.85.08.26.2.5.36.7a1.8 1.8 0 0 0 1.39.64c.38 0 .7-.09.97-.24.27-.16.5-.37.7-.63l.66.52c-.14.21-.31.4-.52.6-.22.18-.47.33-.78.45-.3.12-.67.18-1.09.18Zm5.44-.12h-1.08v-7c0-.46.08-.85.24-1.16.17-.31.41-.55.72-.71.31-.17.69-.25 1.12-.25a3.15 3.15 0 0 1 .75.1l-.06.88a1.2 1.2 0 0 0-1.18.09.88.88 0 0 0-.38.4c-.09.17-.13.39-.13.65v7Zm1.35-6.34v.83h-3.44v-.83h3.44Zm1 3.24v-.13c0-.46.07-.88.2-1.27a3 3 0 0 1 .58-1.03c.25-.3.55-.52.9-.68.36-.16.76-.24 1.2-.24.45 0 .84.08 1.2.24.36.16.66.39.91.68.26.29.45.63.58 1.03.14.39.2.81.2 1.27v.13c0 .46-.06.88-.2 1.27-.13.4-.32.73-.58 1.03a2.65 2.65 0 0 1-2.1.92 2.71 2.71 0 0 1-2.69-1.94c-.13-.4-.2-.82-.2-1.28Zm1.09-.13v.13c0 .32.03.62.1.9.08.27.2.52.34.73.16.22.34.39.57.51.23.13.5.19.8.19.29 0 .55-.06.77-.19.23-.12.41-.29.56-.5.15-.22.26-.47.34-.74.08-.28.11-.58.11-.9v-.13c0-.32-.03-.61-.11-.89a2.27 2.27 0 0 0-.34-.74 1.58 1.58 0 0 0-1.35-.7c-.3 0-.56.06-.78.18-.23.13-.41.3-.57.52-.15.21-.26.46-.33.74-.08.28-.11.57-.11.89Zm7.21-2.11V247h-1.08v-6.34h1.06l.02 1Zm1.98-1.03v1a2.67 2.67 0 0 0-.53-.05c-.25 0-.47.05-.66.13-.2.07-.35.18-.49.32-.13.14-.23.31-.31.5-.08.2-.13.4-.15.64l-.3.18a5 5 0 0 1 .1-1.08c.09-.34.2-.64.36-.9.16-.25.37-.46.61-.6a1.72 1.72 0 0 1 1.37-.14Zm3.6 6.49c-.44 0-.83-.08-1.2-.23a2.73 2.73 0 0 1-1.5-1.6c-.14-.38-.2-.8-.2-1.24v-.24c0-.52.07-.98.22-1.38.16-.4.36-.75.63-1.03a2.66 2.66 0 0 1 3.09-.62c.33.16.6.38.81.66.21.27.37.6.47.98.1.37.15.78.15 1.23v.49h-4.73v-.89h3.65v-.08a2.7 2.7 0 0 0-.18-.82c-.1-.27-.25-.48-.47-.66-.21-.17-.5-.25-.87-.25a1.47 1.47 0 0 0-1.22.61c-.15.2-.26.45-.34.74-.08.3-.13.64-.13 1.02v.24c0 .3.05.59.13.85s.2.5.37.7a1.76 1.76 0 0 0 1.38.63c.39 0 .71-.08.98-.23.26-.16.5-.37.7-.63l.65.52c-.14.21-.31.4-.52.6-.21.18-.47.33-.78.45-.3.12-.67.18-1.08.18Zm10.63-1.2v-3.27c0-.25-.05-.46-.16-.65a1 1 0 0 0-.44-.43c-.2-.1-.45-.15-.74-.15-.27 0-.51.05-.72.14-.2.1-.36.22-.48.37a.8.8 0 0 0-.17.49h-1.08c0-.23.06-.45.17-.67.12-.23.29-.43.5-.6.23-.2.5-.34.8-.44.31-.11.66-.16 1.05-.16.46 0 .86.07 1.21.23.36.16.64.4.83.7.2.32.31.71.31 1.19v2.95c0 .2.02.43.05.67.04.24.1.44.17.62v.09h-1.13a4.04 4.04 0 0 1-.18-1.08Zm.18-2.76.02.76h-1.1c-.3 0-.58.02-.83.08-.24.04-.44.11-.6.21a.97.97 0 0 0-.5.88c0 .2.04.38.13.54.09.17.22.3.4.4.18.1.4.14.67.14a1.78 1.78 0 0 0 1.49-.73c.15-.2.23-.4.24-.59l.47.52c-.03.16-.1.35-.23.55a2.62 2.62 0 0 1-1.2 1.02c-.27.12-.58.18-.92.18-.43 0-.81-.09-1.13-.25a1.78 1.78 0 0 1-1.01-1.63c0-.34.06-.64.2-.9.12-.26.32-.48.57-.65.25-.18.55-.3.9-.4.35-.09.74-.13 1.18-.13h1.25Zm5.35-2.5v.83h-3.43v-.83h3.43Zm-2.27-1.54h1.08v6.31c0 .22.04.38.1.49.07.1.16.18.26.21.1.04.22.06.34.06a1.73 1.73 0 0 0 .51-.07v.88a2.7 2.7 0 0 1-.83.12c-.27 0-.51-.06-.73-.16-.23-.1-.4-.28-.54-.53a2.2 2.2 0 0 1-.19-1v-6.3Zm7.65 6.97h.11c.63 0 1.13-.09 1.52-.26.4-.18.7-.41.9-.71.22-.3.36-.63.44-1 .08-.38.12-.76.12-1.16v-1.3c0-.39-.05-.73-.14-1.03-.08-.3-.2-.56-.36-.76-.15-.2-.33-.36-.52-.46-.2-.1-.4-.16-.62-.16a1.43 1.43 0 0 0-1.17.57 2 2 0 0 0-.3.63 2.83 2.83 0 0 0 .27 2.18c.13.19.28.34.48.45a1.65 1.65 0 0 0 1.37.02 1.92 1.92 0 0 0 .96-.96c.1-.2.16-.43.17-.66h.52a2.94 2.94 0 0 1-1.52 2.44c-.3.15-.64.23-1 .23a2.21 2.21 0 0 1-1.86-.9 3 3 0 0 1-.43-.92 3.85 3.85 0 0 1 .03-2.17c.11-.36.28-.67.5-.94.23-.27.5-.48.83-.64.33-.15.71-.23 1.15-.23a2.4 2.4 0 0 1 2.08 1.08c.22.33.38.7.48 1.11.1.41.15.83.15 1.27v.39c0 .44-.02.89-.08 1.34-.06.46-.17.89-.33 1.3a3.16 3.16 0 0 1-1.86 1.89c-.48.19-1.07.28-1.78.28h-.11v-.92Zm5.83.34c0-.19.06-.34.17-.47.12-.13.28-.19.5-.19.22 0 .39.06.5.2.12.12.18.27.18.46 0 .17-.06.33-.18.45-.11.13-.28.19-.5.19-.22 0-.38-.06-.5-.19a.66.66 0 0 1-.17-.45Zm0-5.18c0-.18.06-.33.17-.46.12-.13.29-.2.5-.2.23 0 .4.07.5.2.12.13.18.28.18.46s-.06.34-.17.46c-.12.13-.28.19-.5.19-.22 0-.39-.06-.5-.19a.66.66 0 0 1-.18-.46Zm8.27.8v1.3c0 .7-.06 1.3-.18 1.78-.13.48-.3.86-.54 1.16-.24.29-.52.5-.85.63a3.19 3.19 0 0 1-2.02.07 2.16 2.16 0 0 1-.75-.39c-.22-.18-.4-.42-.56-.71-.16-.3-.28-.65-.36-1.07-.08-.42-.12-.9-.12-1.46v-1.3c0-.7.06-1.29.18-1.76.13-.47.31-.85.55-1.14.23-.29.51-.5.84-.62.33-.12.7-.19 1.12-.19.33 0 .63.05.9.13a2.05 2.05 0 0 1 1.31 1.07c.16.28.28.63.36 1.05.08.41.13.9.13 1.46Zm-1.08 1.48v-1.66c0-.38-.03-.71-.07-1-.05-.3-.11-.55-.2-.75-.08-.2-.2-.38-.33-.5a1.16 1.16 0 0 0-.45-.29c-.16-.06-.35-.1-.56-.1-.26 0-.5.06-.69.16-.2.09-.37.24-.5.45-.14.2-.24.47-.3.81-.08.34-.11.75-.11 1.22v1.66c0 .38.02.72.06 1.02.05.29.12.54.2.76.1.2.2.38.33.52.13.13.28.24.45.3.17.06.36.1.57.1.26 0 .5-.05.7-.16.2-.1.36-.25.5-.47.13-.22.23-.5.3-.84.06-.34.1-.75.1-1.23Zm7.92-1.47v1.3c0 .7-.06 1.28-.19 1.76-.12.49-.3.87-.54 1.16-.23.3-.51.51-.84.64a3.2 3.2 0 0 1-2.02.07 2.14 2.14 0 0 1-1.32-1.1 3.8 3.8 0 0 1-.35-1.07c-.09-.42-.13-.9-.13-1.46v-1.3c0-.7.06-1.29.19-1.76s.31-.85.54-1.14c.24-.29.52-.5.85-.62.33-.12.7-.19 1.11-.19.33 0 .64.05.91.13a2.06 2.06 0 0 1 1.31 1.07c.16.28.28.63.36 1.05.08.41.12.9.12 1.46Zm-1.09 1.47v-1.66c0-.38-.02-.71-.07-1-.04-.3-.1-.55-.2-.75a1.5 1.5 0 0 0-.32-.5 1.17 1.17 0 0 0-.45-.29c-.17-.06-.36-.1-.57-.1-.26 0-.49.06-.69.16-.2.09-.36.24-.5.45-.13.2-.23.47-.3.81-.07.34-.1.75-.1 1.22v1.66c0 .38.01.72.06 1.02.04.29.11.54.2.76.1.2.2.38.33.52.13.13.28.24.44.3.18.06.37.1.57.1.27 0 .5-.05.7-.16.2-.1.36-.25.5-.47.13-.22.24-.5.3-.84.07-.34.1-.75.1-1.23Zm9.5 2.39v-3.27c0-.25-.06-.46-.16-.65a1 1 0 0 0-.45-.43c-.2-.1-.44-.15-.74-.15-.27 0-.5.05-.72.14-.2.1-.36.22-.47.37a.8.8 0 0 0-.18.49h-1.08c0-.23.06-.45.18-.67.11-.23.28-.43.5-.6.22-.2.49-.34.8-.44.31-.11.66-.16 1.04-.16.46 0 .87.07 1.22.23s.63.4.83.7c.2.32.3.71.3 1.19v2.95c0 .2.02.43.06.67.04.24.1.44.17.62v.09h-1.13a4.04 4.04 0 0 1-.17-1.08Zm.18-2.76.01.76h-1.1c-.3 0-.58.02-.82.08-.24.04-.45.11-.61.21-.16.1-.29.22-.38.37a1.11 1.11 0 0 0 0 1.05c.1.17.24.3.42.4.18.1.4.14.67.14a1.78 1.78 0 0 0 1.48-.73c.15-.2.23-.4.25-.59l.46.52c-.03.16-.1.35-.22.55a2.62 2.62 0 0 1-1.2 1.02c-.28.12-.59.18-.93.18-.43 0-.8-.09-1.13-.25a1.79 1.79 0 0 1-1.01-1.63c0-.34.06-.64.2-.9.13-.26.32-.48.57-.65.25-.18.55-.3.9-.4.35-.09.75-.13 1.18-.13h1.26Zm3.77-1.24V247h-1.1v-6.34h1.04l.06 1.26Zm-.23 1.67-.5-.02c0-.43.06-.83.17-1.2.1-.37.27-.69.48-.96.22-.28.49-.49.8-.64.33-.15.7-.22 1.12-.22.3 0 .57.04.82.12a1.66 1.66 0 0 1 1.08 1.09 3 3 0 0 1 .15 1.02V247h-1.08v-4.17c0-.33-.06-.6-.17-.8a.97.97 0 0 0-.47-.43c-.2-.1-.44-.14-.72-.14-.32 0-.59.06-.8.17-.21.11-.39.27-.51.47-.13.2-.23.43-.29.68-.05.26-.08.53-.08.81Zm4.1-.6-.72.23c0-.35.06-.69.17-1 .12-.33.28-.61.49-.86.21-.25.48-.45.79-.6.31-.14.67-.21 1.07-.21.34 0 .64.04.9.13a1.73 1.73 0 0 1 1.08 1.13c.1.28.15.63.15 1.03V247h-1.1v-4.18c0-.35-.05-.63-.16-.82a.89.89 0 0 0-.47-.42 1.87 1.87 0 0 0-1.35 0c-.18.08-.34.2-.46.34-.13.14-.22.3-.29.49-.06.18-.1.38-.1.58ZM164.04 268.47V277h-1.11v-8.53h1.1Zm2.74 0v.93h-6.59v-.93h6.59Zm2.46 7.4 1.62-5.2h.72l-.14 1.03-1.66 5.3h-.7l.16-1.12Zm-1.1-5.2 1.39 5.26.1 1.07h-.73l-1.84-6.34h1.08Zm5 5.22 1.32-5.23h1.08L173.7 277h-.73l.16-1.1Zm-1.4-5.23 1.59 5.13.18 1.21h-.7l-1.7-5.31-.14-1.03h.77Zm4.71 3.24v-.13c0-.46.07-.88.2-1.27.13-.4.32-.74.57-1.03.25-.3.56-.52.91-.68.36-.16.76-.24 1.2-.24.44 0 .84.08 1.2.24.36.16.66.39.91.68.25.29.45.63.58 1.03.13.39.2.81.2 1.27v.13c0 .46-.07.88-.2 1.27-.13.4-.33.73-.58 1.03a2.66 2.66 0 0 1-2.1.92 2.72 2.72 0 0 1-2.69-1.94c-.13-.4-.2-.82-.2-1.28Zm1.09-.13v.13c0 .32.03.62.1.9.08.27.2.52.34.74.15.21.34.38.57.5.22.13.49.19.79.19.3 0 .56-.06.78-.19.22-.12.41-.29.56-.5.15-.22.26-.47.33-.74.08-.28.12-.58.12-.9v-.13c0-.31-.04-.61-.12-.89a2.28 2.28 0 0 0-.34-.74 1.57 1.57 0 0 0-1.35-.7 1.6 1.6 0 0 0-1.34.7c-.15.21-.26.46-.33.74-.08.28-.12.57-.12.89Zm13.19 2V268h1.09v9h-1l-.1-1.23Zm-4.27-1.87v-.12c0-.48.06-.92.18-1.32s.29-.74.5-1.02a2.25 2.25 0 0 1 1.82-.89c.4 0 .75.07 1.05.2.3.14.56.35.76.61.21.26.38.58.5.95s.2.79.25 1.26v.54c-.04.46-.13.88-.25 1.25s-.29.69-.5.95c-.2.26-.46.46-.76.6a2.52 2.52 0 0 1-2.07-.03c-.3-.16-.57-.39-.8-.68a3.3 3.3 0 0 1-.5-1.02c-.12-.39-.18-.82-.18-1.28Zm1.1-.12v.12a4 4 0 0 0 .09.9c.06.27.16.51.3.72.14.22.31.38.52.5.21.12.46.18.76.18.36 0 .65-.08.88-.23.23-.15.42-.35.56-.6.14-.25.25-.52.33-.82v-1.41a3.13 3.13 0 0 0-.2-.62 1.9 1.9 0 0 0-.34-.54c-.14-.16-.31-.29-.51-.38-.2-.1-.44-.14-.71-.14-.3 0-.56.06-.77.19-.21.12-.38.29-.52.5-.14.21-.24.46-.3.74a4 4 0 0 0-.1.89Zm9.77 2.14v-3.27c0-.25-.05-.46-.16-.65a1 1 0 0 0-.44-.43c-.2-.1-.45-.15-.74-.15-.27 0-.51.04-.72.14-.2.1-.36.22-.48.37a.8.8 0 0 0-.17.49h-1.08c0-.23.06-.45.17-.67.12-.23.29-.43.5-.6.23-.19.5-.33.8-.44.32-.1.66-.16 1.05-.16.46 0 .86.07 1.21.23.36.16.64.4.84.7.2.32.3.71.3 1.19v2.95c0 .2.02.43.05.67.04.24.1.44.17.62v.09h-1.13a3.91 3.91 0 0 1-.18-1.08Zm.18-2.76.02.76h-1.1c-.3 0-.58.02-.83.08-.24.04-.44.12-.6.21a.98.98 0 0 0-.5.88c0 .2.04.38.13.55.09.16.22.29.4.39.19.1.4.14.68.14a1.79 1.79 0 0 0 1.48-.73c.15-.2.23-.4.24-.59l.47.52c-.03.17-.1.35-.23.55a2.6 2.6 0 0 1-1.2 1.02c-.27.12-.58.18-.92.18-.43 0-.81-.09-1.13-.25a1.79 1.79 0 0 1-1.01-1.63c0-.34.06-.64.2-.9.13-.26.32-.48.57-.65.25-.18.55-.3.9-.4.35-.09.74-.13 1.17-.13h1.26Zm4.38 3.18 1.76-5.68h1.16l-2.54 7.32-.23.5c-.1.19-.22.36-.37.52a1.72 1.72 0 0 1-1.28.56 3.23 3.23 0 0 1-.6-.1l-.01-.87a2.42 2.42 0 0 0 .91-.08.95.95 0 0 0 .44-.32c.12-.15.22-.35.3-.62l.46-1.23Zm-1.3-5.68 1.65 4.92.28 1.15-.78.4-2.33-6.47h1.19Zm8.98 4.66c0-.16-.04-.3-.1-.43a.9.9 0 0 0-.42-.37c-.2-.12-.52-.21-.94-.3a7.3 7.3 0 0 1-.95-.26c-.28-.1-.53-.22-.72-.37-.2-.14-.35-.31-.45-.5-.11-.2-.16-.43-.16-.7 0-.24.05-.48.16-.7.11-.23.27-.42.47-.6.21-.16.46-.3.75-.4.29-.1.61-.14.97-.14.5 0 .94.09 1.3.26.36.19.63.43.82.73.2.3.29.62.29.99h-1.09a.93.93 0 0 0-.15-.51c-.1-.17-.25-.31-.45-.42-.2-.1-.44-.16-.72-.16-.3 0-.55.04-.74.14a.95.95 0 0 0-.4.34.87.87 0 0 0-.06.76c.04.1.11.18.22.26.1.07.25.14.44.2.2.07.44.14.73.2.52.12.95.26 1.29.43.33.16.58.36.75.6.16.24.24.53.24.87a1.66 1.66 0 0 1-.67 1.36c-.22.16-.47.29-.77.38-.3.1-.64.14-1 .14-.56 0-1.04-.1-1.42-.3-.39-.2-.68-.46-.88-.77-.2-.32-.3-.66-.3-1h1.09c.02.3.1.53.26.7.15.17.34.3.57.37a2.27 2.27 0 0 0 1.42-.01c.2-.08.36-.19.46-.32.1-.14.16-.3.16-.47Zm5.65-7.32h1.1v7.77l-.1 1.23h-1v-9Zm5.37 5.78v.12c0 .46-.05.89-.16 1.28-.11.4-.27.74-.48 1.02-.21.3-.47.52-.77.68-.3.16-.66.24-1.05.24-.4 0-.76-.07-1.06-.2-.3-.15-.56-.35-.76-.61-.21-.26-.38-.58-.5-.95a6 6 0 0 1-.25-1.25v-.54c.04-.47.13-.89.25-1.26s.29-.69.5-.95c.2-.26.46-.47.76-.6.3-.14.65-.21 1.05-.21s.75.07 1.06.23c.3.15.56.37.77.66.21.28.37.62.48 1.02.1.4.16.84.16 1.32Zm-1.09.12v-.12c0-.32-.03-.61-.08-.9a2.31 2.31 0 0 0-.28-.73 1.4 1.4 0 0 0-1.3-.69 1.56 1.56 0 0 0-1.22.52c-.14.16-.25.34-.34.54-.09.2-.15.4-.2.62v1.41c.07.27.17.54.3.8.15.24.34.45.58.6.24.17.54.25.9.25.3 0 .54-.06.75-.18.2-.12.38-.28.5-.5.14-.2.24-.45.3-.73a4 4 0 0 0 .1-.89Zm5.18 3.22c-.44 0-.84-.08-1.2-.23a2.73 2.73 0 0 1-1.5-1.6c-.14-.38-.2-.8-.2-1.24v-.24c0-.52.07-.98.22-1.38.15-.4.36-.75.62-1.03a2.66 2.66 0 0 1 3.1-.62c.32.16.6.38.8.66.22.27.37.6.47.98.1.38.16.78.16 1.23v.49h-4.74v-.89h3.65v-.08a2.7 2.7 0 0 0-.17-.82c-.1-.27-.25-.48-.47-.66-.21-.17-.5-.25-.88-.25a1.48 1.48 0 0 0-1.21.61c-.15.2-.26.45-.35.75-.08.29-.12.63-.12 1v.25c0 .3.04.59.12.85.09.27.21.5.37.7a1.76 1.76 0 0 0 1.4.63c.37 0 .7-.08.96-.23.27-.16.5-.37.7-.63l.66.52c-.14.21-.31.4-.53.6-.2.18-.47.33-.78.45a3 3 0 0 1-1.08.18Zm5.44-.12h-1.09v-7c0-.46.09-.85.25-1.16.17-.31.4-.55.72-.71.31-.17.68-.25 1.11-.25a2.95 2.95 0 0 1 .75.1l-.06.88a1.2 1.2 0 0 0-1.18.09.89.89 0 0 0-.37.4c-.09.17-.13.39-.13.64V277Zm1.34-6.34v.83h-3.43v-.83h3.44Zm1.01 3.24v-.13c0-.46.07-.88.2-1.27.14-.4.33-.74.58-1.03.25-.3.55-.52.9-.68.36-.16.76-.24 1.2-.24.44 0 .84.08 1.2.24.36.16.66.39.91.68.26.29.45.63.58 1.03.14.39.2.81.2 1.27v.13c0 .46-.06.88-.2 1.27-.13.4-.32.73-.58 1.03a2.66 2.66 0 0 1-2.1.92 2.72 2.72 0 0 1-2.69-1.94c-.13-.4-.2-.82-.2-1.28Zm1.09-.13v.13c0 .32.03.62.1.9.08.27.2.52.34.74.15.21.34.38.57.5.23.13.49.19.79.19.3 0 .56-.06.78-.19.23-.12.41-.29.56-.5.15-.22.26-.47.34-.74.07-.28.11-.58.11-.9v-.13c0-.31-.04-.61-.12-.89a2.28 2.28 0 0 0-.33-.74 1.57 1.57 0 0 0-1.35-.7 1.6 1.6 0 0 0-1.35.7c-.15.21-.26.46-.33.74-.08.28-.11.57-.11.89Zm7.21-2.11V277h-1.08v-6.34h1.05l.03 1Zm1.98-1.03v1a2.68 2.68 0 0 0-.53-.05c-.25 0-.47.05-.66.13-.2.07-.36.18-.49.32s-.24.31-.31.5c-.08.2-.13.4-.15.64l-.3.18c0-.39.03-.75.1-1.08.08-.34.2-.63.36-.9a1.7 1.7 0 0 1 1.98-.75Zm3.6 6.49c-.44 0-.84-.08-1.2-.23a2.72 2.72 0 0 1-1.5-1.6c-.14-.38-.2-.8-.2-1.24v-.24c0-.52.07-.98.22-1.38.16-.4.36-.75.62-1.03a2.65 2.65 0 0 1 1.93-.85c.45 0 .84.07 1.17.23.33.16.6.38.81.66.21.27.37.6.47.98.1.38.15.78.15 1.23v.49h-4.73v-.89h3.65v-.08a2.7 2.7 0 0 0-.18-.82c-.1-.27-.25-.48-.47-.66-.21-.17-.5-.25-.88-.25a1.48 1.48 0 0 0-1.2.61c-.16.2-.27.45-.35.75-.09.29-.13.63-.13 1v.25c0 .3.04.59.13.85.08.27.2.5.37.7a1.76 1.76 0 0 0 1.38.63c.39 0 .71-.08.98-.23.26-.16.5-.37.7-.63l.65.52a2.5 2.5 0 0 1-1.3 1.05 3 3 0 0 1-1.09.18Zm10.63-1.2v-3.27c0-.25-.06-.46-.16-.65a1 1 0 0 0-.44-.43 1.6 1.6 0 0 0-.74-.15c-.27 0-.51.04-.72.14-.2.1-.36.22-.48.37a.8.8 0 0 0-.17.49h-1.08c0-.23.05-.45.17-.67.12-.23.29-.43.5-.6.23-.19.5-.33.8-.44.31-.1.66-.16 1.04-.16.47 0 .87.07 1.22.23.36.16.63.4.83.7.2.32.3.71.3 1.19v2.95c0 .2.03.43.06.67.04.24.1.44.17.62v.09h-1.13a4.05 4.05 0 0 1-.18-1.08Zm.18-2.76.01.76h-1.1c-.3 0-.57.02-.82.08-.24.04-.44.12-.6.21a.98.98 0 0 0-.5.88c-.01.2.03.38.13.55.09.16.22.29.4.39.18.1.4.14.67.14a1.79 1.79 0 0 0 1.48-.73c.16-.2.24-.4.25-.59l.46.52c-.02.17-.1.35-.22.55a2.6 2.6 0 0 1-1.2 1.02c-.27.12-.58.18-.93.18-.43 0-.8-.09-1.13-.25a1.78 1.78 0 0 1-1.01-1.63c0-.34.07-.64.2-.9s.32-.48.57-.65c.25-.18.56-.3.9-.4.36-.09.75-.13 1.18-.13h1.26Zm5.34-2.5v.83h-3.42v-.83h3.43Zm-2.26-1.54h1.08v6.31c0 .21.04.38.1.49.07.1.15.18.26.21.1.04.22.06.34.06a1.87 1.87 0 0 0 .5-.07l.01.88c-.08.03-.2.05-.34.08-.13.02-.3.04-.5.04-.26 0-.5-.06-.73-.16-.22-.1-.4-.28-.53-.53s-.2-.58-.2-1v-6.3Zm7.65 6.97h.11c.63 0 1.13-.09 1.52-.26.4-.18.7-.41.9-.71.21-.3.36-.63.44-1 .08-.38.12-.76.12-1.16v-1.3c0-.39-.05-.73-.14-1.03a2.2 2.2 0 0 0-.36-.76 1.6 1.6 0 0 0-.52-.46 1.45 1.45 0 0 0-1.8.41c-.13.18-.23.39-.3.63a2.84 2.84 0 0 0 .27 2.18 1.38 1.38 0 0 0 1.17.62c.24 0 .47-.05.68-.14a1.92 1.92 0 0 0 .97-.97c.1-.2.16-.43.17-.66h.52a2.96 2.96 0 0 1-.72 1.82c-.23.26-.5.46-.8.62-.3.15-.64.23-1 .23a2.22 2.22 0 0 1-1.86-.9c-.19-.28-.33-.58-.43-.92a3.84 3.84 0 0 1 .03-2.17c.11-.36.28-.67.5-.94.22-.27.5-.48.83-.64.33-.15.71-.22 1.14-.22.5 0 .9.1 1.25.29.35.2.63.46.84.78.22.33.38.7.48 1.11.1.41.15.83.15 1.26v.4c0 .44-.03.89-.09 1.35a5.4 5.4 0 0 1-.32 1.3 3.17 3.17 0 0 1-1.86 1.89c-.48.18-1.07.27-1.78.27h-.11v-.92Zm5.83.34c0-.19.05-.34.17-.47.11-.13.28-.19.5-.19.22 0 .38.06.5.2.12.12.17.27.17.46 0 .18-.06.33-.17.45-.12.13-.28.19-.5.19-.22 0-.39-.06-.5-.19a.66.66 0 0 1-.17-.45Zm0-5.18c0-.18.06-.33.17-.46.12-.13.29-.2.5-.2.23 0 .4.07.5.2.12.13.18.28.18.46s-.06.34-.18.46c-.1.13-.27.19-.5.19-.21 0-.38-.06-.5-.19a.65.65 0 0 1-.17-.45Zm8.27.8v1.3c0 .7-.06 1.3-.18 1.78-.13.48-.3.86-.54 1.16-.24.29-.52.5-.85.63a3.2 3.2 0 0 1-2.02.07 2.16 2.16 0 0 1-.75-.39c-.22-.18-.4-.42-.56-.71a3.8 3.8 0 0 1-.36-1.07c-.08-.42-.13-.9-.13-1.46v-1.3c0-.7.07-1.29.2-1.76.12-.47.3-.85.54-1.14.23-.29.51-.5.84-.62.33-.12.7-.18 1.11-.18.33 0 .64.04.92.12a2.08 2.08 0 0 1 1.3 1.07c.16.28.28.63.36 1.05.08.41.12.9.12 1.46Zm-1.09 1.48v-1.65c0-.39-.02-.72-.07-1.01-.04-.3-.1-.55-.19-.75-.08-.2-.2-.38-.33-.5a1.15 1.15 0 0 0-.45-.29c-.17-.06-.36-.09-.57-.09-.25 0-.48.05-.68.15-.2.09-.37.24-.5.45-.14.2-.24.48-.31.81-.07.34-.1.75-.1 1.23v1.65c0 .39.02.72.06 1.02.05.29.11.54.2.76.1.2.2.38.33.52.13.13.28.24.45.3.17.07.36.1.56.1.27 0 .5-.05.7-.16.2-.1.37-.25.5-.47.14-.22.24-.5.3-.84.07-.34.1-.75.1-1.23Zm7.93-1.47v1.3c0 .7-.06 1.29-.19 1.77-.12.48-.3.86-.54 1.16-.23.29-.52.5-.85.63a3.19 3.19 0 0 1-2.02.07 2.17 2.17 0 0 1-.75-.39 2.4 2.4 0 0 1-.56-.71c-.16-.3-.27-.65-.36-1.07-.08-.42-.12-.9-.12-1.46v-1.3c0-.7.06-1.29.19-1.76s.3-.85.54-1.14c.24-.29.52-.5.85-.62.33-.12.7-.18 1.1-.18.34 0 .64.04.92.12a2.07 2.07 0 0 1 1.3 1.07c.17.28.28.63.37 1.05.08.41.12.9.12 1.46Zm-1.09 1.47v-1.65c0-.39-.02-.72-.07-1.01-.04-.3-.1-.55-.2-.75-.08-.2-.19-.38-.32-.5a1.15 1.15 0 0 0-.45-.29 1.6 1.6 0 0 0-.57-.09c-.26 0-.49.05-.69.15-.2.09-.36.24-.5.45-.13.2-.23.48-.3.81-.07.34-.11.75-.11 1.23v1.65c0 .39.02.72.07 1.02.04.29.11.54.2.76.09.2.2.38.33.52.13.13.27.24.44.3.17.07.36.1.57.1.27 0 .5-.05.7-.16.2-.1.36-.25.5-.47.13-.22.23-.5.3-.84.07-.34.1-.75.1-1.23Zm9.49 2.39v-3.27c0-.25-.05-.46-.15-.65a1 1 0 0 0-.45-.43 1.6 1.6 0 0 0-.74-.15c-.27 0-.51.04-.72.14-.2.1-.36.22-.48.37a.8.8 0 0 0-.17.49h-1.08c0-.23.06-.45.18-.67.11-.23.28-.43.5-.6.22-.19.49-.33.8-.44.3-.1.66-.16 1.04-.16.46 0 .87.07 1.22.23s.63.4.83.7c.2.32.3.71.3 1.19v2.95c0 .2.02.43.06.67.03.24.1.44.17.62v.09h-1.14a4.05 4.05 0 0 1-.18-1.08Zm.19-2.76v.76h-1.09c-.3 0-.58.02-.82.08-.25.04-.45.12-.61.21-.17.1-.3.22-.38.37a1.12 1.12 0 0 0 0 1.05c.1.17.23.3.41.4.19.1.41.14.68.14a1.78 1.78 0 0 0 1.48-.73c.15-.2.23-.4.25-.59l.46.52c-.03.17-.1.35-.23.55a2.6 2.6 0 0 1-1.2 1.02c-.27.12-.58.18-.92.18-.43 0-.8-.09-1.13-.25a1.78 1.78 0 0 1-1.01-1.63c0-.34.06-.64.2-.9.13-.26.32-.48.57-.65.25-.18.55-.3.9-.4.35-.09.74-.13 1.18-.13h1.26Zm3.76-1.24V277h-1.09v-6.34h1.04l.05 1.26Zm-.22 1.67-.5-.02c0-.43.06-.83.17-1.2.1-.37.27-.69.48-.96.22-.28.49-.49.8-.64.33-.15.7-.22 1.12-.22.3 0 .57.04.82.13a1.65 1.65 0 0 1 1.08 1.08c.1.28.15.62.15 1.02V277H304v-4.17c0-.33-.06-.6-.18-.8a.97.97 0 0 0-.46-.43c-.2-.1-.44-.14-.72-.14-.32 0-.59.06-.8.17-.21.11-.39.27-.52.47-.13.2-.22.43-.28.68a3.8 3.8 0 0 0-.08.81Zm4.1-.6-.72.23c0-.35.06-.69.17-1 .11-.33.28-.61.49-.86.21-.25.47-.45.79-.6.3-.14.67-.21 1.07-.21.34 0 .64.04.9.13.27.1.49.23.67.42.18.18.32.42.41.7.1.3.14.64.14 1.04V277h-1.09v-4.18c0-.35-.05-.63-.16-.82a.88.88 0 0 0-.47-.42 1.88 1.88 0 0 0-1.35 0c-.18.09-.34.2-.46.34-.13.14-.22.3-.29.49-.06.18-.1.38-.1.58ZM164.17 298.43V307h-1.09v-7.22l-2.18.8v-.98l3.1-1.17h.17Zm8.06 7.45 1.63-5.22h.71l-.14 1.04-1.66 5.3h-.7l.16-1.12Zm-1.1-5.22 1.4 5.27.1 1.07h-.74l-1.84-6.34h1.08Zm5 5.23 1.32-5.23h1.08l-1.84 6.34h-.72l.16-1.1Zm-1.4-5.23 1.6 5.13.17 1.21h-.69l-1.7-5.31-.14-1.03h.76Zm7.63 6.46c-.44 0-.84-.08-1.2-.23a2.72 2.72 0 0 1-1.5-1.6c-.14-.38-.2-.79-.2-1.24v-.24c0-.52.07-.98.22-1.38.15-.4.36-.75.62-1.03a2.65 2.65 0 0 1 3.1-.62c.32.16.6.38.8.66.22.27.37.6.48.98.1.38.15.78.15 1.23v.49h-4.74v-.89h3.65v-.08a2.73 2.73 0 0 0-.17-.82c-.1-.27-.26-.48-.47-.66-.22-.17-.5-.25-.88-.25a1.47 1.47 0 0 0-1.21.61c-.15.2-.26.45-.35.75-.08.29-.12.63-.12 1v.25c0 .3.04.59.12.85.09.27.21.5.37.7a1.8 1.8 0 0 0 1.39.64c.38 0 .7-.09.97-.24.27-.16.5-.37.7-.63l.66.52c-.14.21-.31.4-.53.6-.2.18-.47.33-.78.45-.3.12-.66.18-1.08.18Zm6.45 0c-.44 0-.84-.08-1.2-.23a2.73 2.73 0 0 1-1.5-1.6c-.14-.38-.21-.79-.21-1.24v-.24c0-.52.08-.98.23-1.38.15-.4.36-.75.62-1.03a2.65 2.65 0 0 1 3.1-.62c.32.16.6.38.8.66.22.27.37.6.47.98.1.38.16.78.16 1.23v.49h-4.74v-.89h3.65v-.08a2.73 2.73 0 0 0-.17-.82c-.1-.27-.26-.48-.47-.66-.22-.17-.5-.25-.88-.25a1.46 1.46 0 0 0-1.21.61c-.15.2-.27.45-.35.75-.08.29-.12.63-.12 1v.25c0 .3.04.59.12.85.09.27.21.5.37.7a1.8 1.8 0 0 0 1.39.64c.38 0 .7-.09.97-.24.27-.16.5-.37.7-.63l.65.52c-.13.21-.3.4-.52.6-.2.18-.47.33-.78.45-.3.12-.66.18-1.08.18Zm4.9-9.12v9h-1.08v-9h1.09Zm3.88 2.66-2.76 2.96-1.55 1.6-.09-1.15 1.1-1.32 1.98-2.09h1.32Zm-.99 6.34-2.26-3.02.56-.97 2.98 3.99h-1.28Zm5.26-9h1.08v7.77l-.09 1.23h-1v-9Zm5.37 5.78v.12c0 .46-.06.9-.17 1.29-.1.38-.27.73-.48 1.01-.2.3-.47.52-.77.68-.3.16-.66.24-1.05.24-.4 0-.75-.07-1.06-.2-.3-.15-.55-.35-.76-.61a3.1 3.1 0 0 1-.5-.95 6 6 0 0 1-.25-1.25v-.54a6 6 0 0 1 .25-1.26c.13-.37.3-.69.5-.95a2 2 0 0 1 .76-.6c.3-.14.65-.21 1.05-.21s.75.07 1.06.23c.3.15.56.37.77.66.21.28.37.62.48 1.02.11.4.17.84.17 1.32Zm-1.1.12v-.12c0-.32-.02-.61-.08-.9a2.3 2.3 0 0 0-.28-.73 1.4 1.4 0 0 0-1.29-.69 1.53 1.53 0 0 0-1.22.52c-.14.16-.26.34-.35.54-.09.2-.15.4-.2.62v1.41a3 3 0 0 0 .31.8 1.59 1.59 0 0 0 1.47.85c.3 0 .54-.06.75-.18.21-.12.38-.28.51-.5.13-.2.23-.45.3-.73.06-.28.09-.57.09-.89Zm5.19 3.22c-.45 0-.85-.08-1.2-.23a2.72 2.72 0 0 1-1.51-1.6c-.14-.38-.2-.79-.2-1.24v-.24c0-.52.07-.98.22-1.38.16-.4.36-.75.62-1.03a2.65 2.65 0 0 1 3.1-.62c.33.16.6.38.81.66.21.27.37.6.47.98.1.38.15.78.15 1.23v.49h-4.73v-.89h3.65v-.08a2.7 2.7 0 0 0-.18-.82c-.1-.27-.25-.48-.47-.66-.21-.17-.5-.25-.88-.25a1.47 1.47 0 0 0-1.2.61c-.16.2-.27.45-.35.75-.09.29-.13.63-.13 1v.25c0 .3.04.59.13.85.08.27.2.5.37.7.16.2.36.35.59.46.23.12.5.17.8.17.38 0 .7-.08.97-.23.26-.16.5-.37.7-.63l.65.52c-.14.21-.31.4-.52.6-.21.18-.47.33-.78.45-.3.12-.67.18-1.09.18Zm5.43-.12h-1.08v-7c0-.46.08-.85.24-1.16.17-.31.41-.55.72-.71.32-.17.69-.25 1.12-.25a3.15 3.15 0 0 1 .75.1l-.06.88a1.2 1.2 0 0 0-1.18.09.88.88 0 0 0-.38.4c-.09.17-.13.39-.13.65v7Zm1.35-6.34v.83h-3.43v-.83h3.43Zm1 3.24v-.13c0-.46.07-.88.2-1.27a3 3 0 0 1 .58-1.03c.25-.3.55-.52.9-.68.36-.16.76-.24 1.2-.24.45 0 .85.08 1.2.24.36.16.67.39.92.68.25.3.44.63.58 1.03.13.39.2.81.2 1.27v.13c0 .46-.07.88-.2 1.27-.14.4-.33.73-.58 1.03a2.64 2.64 0 0 1-2.1.92 2.7 2.7 0 0 1-2.69-1.94c-.14-.4-.2-.82-.2-1.28Zm1.09-.13v.13c0 .32.04.62.11.9s.19.52.33.74c.16.21.35.38.57.5.23.13.5.19.8.19.29 0 .55-.06.77-.18.23-.13.42-.3.56-.51.15-.22.26-.46.34-.74.08-.28.12-.58.12-.9v-.13c0-.31-.04-.6-.12-.89a2.28 2.28 0 0 0-.34-.74 1.58 1.58 0 0 0-1.35-.7c-.3 0-.56.06-.78.18-.22.13-.41.3-.56.52-.15.21-.26.46-.34.74-.07.28-.11.57-.11.89Zm7.22-2.11V307h-1.09v-6.34h1.06l.03 1Zm1.98-1.03-.01 1a2.67 2.67 0 0 0-.53-.05c-.25 0-.47.05-.66.13-.19.07-.35.18-.48.32-.14.15-.24.31-.32.5-.08.2-.12.41-.15.64l-.3.18a5 5 0 0 1 .1-1.08c.09-.34.2-.63.37-.9.16-.25.36-.46.6-.6a1.72 1.72 0 0 1 1.38-.14Zm3.6 6.49c-.44 0-.84-.08-1.2-.23a2.73 2.73 0 0 1-1.5-1.6c-.14-.38-.21-.79-.21-1.24v-.24c0-.52.07-.98.23-1.38.15-.4.35-.75.62-1.03a2.66 2.66 0 0 1 3.09-.62c.33.16.6.38.81.66.21.27.37.6.47.98.1.38.15.78.15 1.23v.49h-4.73v-.89h3.65v-.08a2.73 2.73 0 0 0-.18-.82c-.1-.27-.25-.48-.46-.66-.22-.17-.51-.25-.88-.25a1.46 1.46 0 0 0-1.21.61c-.15.2-.27.45-.35.75-.08.29-.12.63-.12 1v.25c0 .3.04.59.12.85.09.27.2.5.37.7a1.76 1.76 0 0 0 1.39.63c.38 0 .7-.08.97-.23.26-.16.5-.37.7-.63l.65.52c-.13.21-.3.4-.52.6-.21.18-.47.33-.78.45-.3.12-.66.18-1.08.18Zm10.62-1.2v-3.27c0-.25-.05-.46-.15-.64a1 1 0 0 0-.45-.44c-.2-.1-.44-.15-.74-.15-.27 0-.51.05-.72.14-.2.1-.36.22-.48.37a.8.8 0 0 0-.17.5h-1.08c0-.24.06-.46.18-.68.11-.23.28-.43.5-.6.22-.19.49-.33.8-.44.3-.1.66-.16 1.04-.16.46 0 .86.07 1.22.23.35.16.63.4.83.7.2.32.3.71.3 1.19v2.95c0 .2.02.43.06.67.03.24.09.44.16.62v.09h-1.13a4.05 4.05 0 0 1-.18-1.08Zm.19-2.76v.76h-1.09c-.3 0-.58.02-.82.08-.25.04-.45.12-.61.21a.97.97 0 0 0-.5.88c0 .2.04.38.13.55.09.16.22.3.4.39.19.1.41.14.68.14a1.78 1.78 0 0 0 1.48-.73c.15-.2.23-.4.24-.59l.47.52c-.03.17-.1.35-.23.55a2.62 2.62 0 0 1-1.2 1.02c-.27.12-.58.18-.92.18-.43 0-.8-.09-1.13-.25a1.78 1.78 0 0 1-1.01-1.63c0-.34.06-.64.2-.9.13-.26.32-.48.57-.65.25-.17.55-.3.9-.4.35-.09.74-.13 1.18-.13h1.26Zm5.34-2.5v.83h-3.43v-.83h3.43Zm-2.27-1.54h1.09v6.31c0 .22.03.38.1.49.06.1.15.18.25.21.1.04.22.06.34.06a1.73 1.73 0 0 0 .51-.07v.88c-.08.03-.2.05-.33.08-.14.02-.3.04-.5.04-.27 0-.51-.06-.73-.16-.22-.1-.4-.28-.53-.53a2.2 2.2 0 0 1-.2-1v-6.3Zm7.65 6.97h.11c.63 0 1.14-.08 1.53-.26.39-.18.69-.41.9-.7.2-.3.35-.64.43-1.01.08-.38.12-.76.12-1.16v-1.3c0-.39-.05-.73-.14-1.03-.08-.3-.2-.55-.36-.76-.15-.2-.32-.35-.52-.46-.2-.1-.4-.16-.62-.16a1.43 1.43 0 0 0-1.17.57 2 2 0 0 0-.3.63 2.83 2.83 0 0 0 .27 2.18c.13.19.29.34.48.45.2.11.42.17.68.17.25 0 .47-.05.68-.14a1.92 1.92 0 0 0 .97-.97c.1-.2.16-.43.18-.66h.51a2.96 2.96 0 0 1-1.52 2.44c-.3.15-.63.23-1 .23a2.2 2.2 0 0 1-1.86-.9 3 3 0 0 1-.43-.92 3.85 3.85 0 0 1 .03-2.17c.11-.36.28-.67.5-.94.23-.27.5-.48.83-.64.33-.15.72-.22 1.15-.22.49 0 .9.1 1.25.29.34.2.62.46.83.78.22.33.38.7.48 1.11.1.41.16.83.16 1.27v.39c0 .44-.03.89-.1 1.35-.05.45-.15.88-.31 1.3a3.16 3.16 0 0 1-1.86 1.89c-.49.18-1.08.27-1.79.27h-.1v-.92Zm5.83.34c0-.19.06-.34.17-.47.12-.13.29-.19.5-.19.22 0 .39.06.5.2.12.12.18.27.18.46 0 .18-.06.33-.18.45-.11.13-.28.2-.5.2-.21 0-.38-.07-.5-.2a.66.66 0 0 1-.17-.45Zm0-5.18c0-.18.06-.33.18-.46.11-.13.28-.2.5-.2.22 0 .38.07.5.2s.17.28.17.46c0 .19-.06.34-.17.46-.12.13-.28.19-.5.19-.22 0-.39-.06-.5-.19a.66.66 0 0 1-.17-.45Zm8.28.8v1.3c0 .7-.07 1.3-.2 1.78-.12.48-.3.86-.53 1.16-.23.29-.52.5-.85.63a3.19 3.19 0 0 1-2.02.07 2.16 2.16 0 0 1-.75-.39c-.22-.18-.4-.42-.56-.71-.16-.3-.28-.65-.36-1.07-.08-.42-.12-.9-.12-1.46v-1.3c0-.7.06-1.29.19-1.76s.3-.85.54-1.14c.23-.29.52-.5.84-.62.34-.12.7-.18 1.12-.18.33 0 .63.04.91.12a2.06 2.06 0 0 1 1.3 1.07c.16.29.28.63.36 1.05.09.41.13.9.13 1.46Zm-1.1 1.48v-1.65c0-.39-.02-.72-.06-1.01-.05-.3-.11-.54-.2-.75-.08-.2-.2-.38-.32-.5a1.16 1.16 0 0 0-.45-.29c-.17-.06-.36-.09-.57-.09-.26 0-.49.05-.69.15-.2.1-.37.24-.5.45-.13.2-.24.48-.3.81-.08.34-.11.75-.11 1.23v1.65c0 .39.02.72.06 1.02.05.29.12.54.2.76.1.2.2.38.34.52.12.14.27.24.44.3.17.07.36.1.57.1.26 0 .5-.05.7-.16.2-.1.36-.25.5-.47.13-.22.23-.5.3-.84.06-.34.1-.75.1-1.23Zm7.93-1.47v1.3c0 .7-.06 1.29-.19 1.77-.12.48-.3.86-.53 1.16-.24.29-.52.5-.85.63a3.2 3.2 0 0 1-2.02.07 2.14 2.14 0 0 1-1.32-1.1c-.15-.3-.27-.65-.35-1.07-.08-.42-.13-.9-.13-1.46v-1.3c0-.7.07-1.29.2-1.76.12-.47.3-.85.54-1.14.23-.29.51-.5.84-.62.33-.12.7-.18 1.11-.18.33 0 .64.04.92.12a2.06 2.06 0 0 1 1.3 1.07c.16.29.28.63.36 1.05.08.41.12.9.12 1.46Zm-1.09 1.47v-1.65c0-.39-.02-.72-.07-1.01-.04-.3-.1-.54-.2-.75-.08-.2-.19-.38-.32-.5a1.15 1.15 0 0 0-.45-.29c-.17-.06-.36-.09-.57-.09-.25 0-.48.05-.68.15-.2.1-.37.24-.5.45-.14.2-.24.48-.31.81-.07.34-.1.75-.1 1.23v1.65c0 .39.01.72.06 1.02.04.29.11.54.2.76.1.2.2.38.33.52s.28.24.45.3c.17.07.36.1.56.1.27 0 .5-.05.7-.16.2-.1.37-.25.5-.47.14-.22.24-.5.3-.84.07-.34.1-.75.1-1.23Zm9.5 2.39v-3.27c0-.25-.06-.46-.16-.64a1 1 0 0 0-.44-.44c-.2-.1-.45-.15-.74-.15-.28 0-.52.05-.72.14-.2.1-.37.22-.48.37a.8.8 0 0 0-.17.5h-1.09c0-.24.06-.46.18-.68.12-.23.28-.43.5-.6.23-.19.5-.33.8-.44.31-.1.66-.16 1.04-.16.46 0 .87.07 1.22.23.36.16.63.4.83.7.2.32.3.71.3 1.19v2.95c0 .2.02.43.06.67.04.24.1.44.17.62v.09h-1.13c-.06-.12-.1-.29-.13-.5-.03-.2-.05-.4-.05-.58Zm.18-2.76.01.76h-1.1c-.3 0-.58.02-.82.08-.24.04-.44.12-.6.21a.97.97 0 0 0-.5.88.97.97 0 0 0 .54.94c.17.1.4.14.66.14a1.78 1.78 0 0 0 1.48-.73c.15-.2.24-.4.25-.59l.46.52c-.03.17-.1.35-.22.55a2.62 2.62 0 0 1-1.2 1.02c-.28.12-.58.18-.93.18-.43 0-.8-.09-1.13-.25a1.78 1.78 0 0 1-1.01-1.63c0-.34.06-.64.2-.9.13-.26.32-.48.57-.65.25-.17.55-.3.9-.4.35-.09.75-.13 1.18-.13h1.26Zm3.77-1.24V307h-1.1v-6.34h1.04l.06 1.26Zm-.23 1.67-.5-.02c0-.43.06-.83.17-1.2.11-.37.27-.69.49-.96.21-.28.48-.49.8-.64.32-.15.69-.22 1.11-.22.3 0 .57.04.82.13a1.66 1.66 0 0 1 1.08 1.08 3 3 0 0 1 .15 1.02V307h-1.08v-4.17c0-.33-.06-.6-.17-.8a.96.96 0 0 0-.47-.43c-.2-.1-.44-.14-.72-.14-.31 0-.58.06-.8.17-.21.11-.38.27-.51.47-.13.2-.22.43-.28.68a3.8 3.8 0 0 0-.09.81Zm4.11-.6-.73.23c0-.35.06-.68.17-1 .12-.33.28-.61.49-.86.21-.25.48-.45.79-.6.31-.14.67-.21 1.07-.21.34 0 .64.04.9.13.27.1.5.23.67.42.19.18.32.42.42.7.1.3.14.64.14 1.04V307h-1.1v-4.18c0-.35-.05-.63-.16-.82a.89.89 0 0 0-.47-.42 1.87 1.87 0 0 0-1.35 0c-.18.09-.34.2-.46.34-.13.14-.22.3-.29.49-.06.18-.09.38-.09.58ZM166.3 336.08v.92h-4.51v-.92h4.52Zm-4.28-7.6V337h-1.13v-8.53h1.13Zm3.69 3.66v.92h-3.92v-.92h3.92Zm.54-3.67v.93h-4.46v-.93h4.46Zm5.26 7.3v-7.76h1.09V337h-1l-.1-1.23Zm-4.27-1.87v-.12c0-.48.06-.92.18-1.32s.29-.74.5-1.02a2.25 2.25 0 0 1 1.82-.9c.4 0 .76.08 1.05.22.3.13.56.34.76.6.21.26.38.58.5.95s.2.79.25 1.26v.54c-.04.46-.12.88-.25 1.25-.12.37-.29.69-.5.95-.2.26-.46.46-.76.6a2.54 2.54 0 0 1-2.07-.03 2.4 2.4 0 0 1-.8-.68 3.28 3.28 0 0 1-.5-1.01 4.5 4.5 0 0 1-.18-1.29Zm1.1-.12v.12c0 .32.02.62.09.9.06.27.16.51.3.72.14.22.31.38.52.5.21.12.47.18.76.18.36 0 .65-.08.88-.23.24-.15.42-.35.56-.6.15-.25.25-.52.33-.82v-1.4a3.05 3.05 0 0 0-.2-.63c-.09-.2-.2-.38-.34-.54-.14-.16-.3-.29-.51-.38-.2-.1-.44-.14-.71-.14-.3 0-.55.06-.77.19a1.5 1.5 0 0 0-.52.5c-.14.21-.24.46-.3.74a4 4 0 0 0-.1.89Zm7.2-3.12V337h-1.08v-6.34h1.09Zm-1.16-1.68c0-.17.05-.32.16-.44.1-.12.27-.18.48-.18.2 0 .36.06.47.18.11.12.17.27.17.44 0 .17-.06.31-.17.44-.1.11-.27.17-.47.17-.22 0-.38-.06-.48-.17a.64.64 0 0 1-.16-.44Zm5.65 1.68v.83h-3.43v-.83h3.43Zm-2.27-1.54h1.09v6.31c0 .22.03.38.1.49.06.1.15.18.26.21.1.04.21.06.33.06a1.73 1.73 0 0 0 .51-.07l.01.88-.34.08c-.14.02-.3.04-.5.04-.26 0-.5-.06-.73-.16-.22-.1-.4-.28-.53-.53a2.2 2.2 0 0 1-.2-1v-6.3Z" fill="#181818"/><g filter="url(#e)"><mask id="f" maskUnits="userSpaceOnUse" x="232" y="179" width="24" height="28" fill="#000"><path fill="#fff" d="M232 179h24v28h-24z"/><path fill-rule="evenodd" clip-rule="evenodd" d="m239.54 195.45-1.28-1.96a3.28 3.28 0 0 0-4.16-1.1l.33-.16a.83.83 0 0 0-.38 1.01l1.77 4.59c.28.72 1 1.75 1.6 2.27 0 0 3.56 2.95 3.56 4.06v1.4h5.78l1.44-2.89 1.44 2.9h1.45v-1.41c0-1.1 2.17-4.6 2.17-4.6.4-.67.74-1.87.74-2.66v-5.83a2.43 2.43 0 0 0-2.47-2.33 1.2 1.2 0 0 0-1.23 1.16v.47a2.4 2.4 0 0 0-2.45-2.34 1.2 1.2 0 0 0-1.22 1.17v.47a2.4 2.4 0 0 0-2.45-2.34 1.2 1.2 0 0 0-1.23 1.17v.47c0-.2-.02-.37-.06-.5l-.38-6.02a1.55 1.55 0 0 0-1.53-1.45c-.8 0-1.44.65-1.44 1.44V195.45Zm10.13-1.45h1.44v5.78h-1.44V194Zm-2.89 0h1.44v5.78h-1.44V194Zm-2.89 0h1.45v5.78h-1.45V194Z"/></mask><path fill-rule="evenodd" clip-rule="evenodd" d="m239.54 195.45-1.28-1.96a3.28 3.28 0 0 0-4.16-1.1l.33-.16a.83.83 0 0 0-.38 1.01l1.77 4.59c.28.72 1 1.75 1.6 2.27 0 0 3.56 2.95 3.56 4.06v1.4h5.78l1.44-2.89 1.44 2.9h1.45v-1.41c0-1.1 2.17-4.6 2.17-4.6.4-.67.74-1.87.74-2.66v-5.83a2.43 2.43 0 0 0-2.47-2.33 1.2 1.2 0 0 0-1.23 1.16v.47a2.4 2.4 0 0 0-2.45-2.34 1.2 1.2 0 0 0-1.22 1.17v.47a2.4 2.4 0 0 0-2.45-2.34 1.2 1.2 0 0 0-1.23 1.17v.47c0-.2-.02-.37-.06-.5l-.38-6.02a1.55 1.55 0 0 0-1.53-1.45c-.8 0-1.44.65-1.44 1.44V195.45Zm10.13-1.45h1.44v5.78h-1.44V194Zm-2.89 0h1.44v5.78h-1.44V194Zm-2.89 0h1.45v5.78h-1.45V194Z" fill="#fff"/><path d="m239.54 195.45-.98.64 2.15 3.29v-3.93h-1.17Zm-1.28-1.96.98-.64-.98.64Zm-4.2-.25-1.1.42 1.1-.42Zm1.76 4.59 1.1-.42-1.1.42Zm1.6 2.27-.77.88v.01l.02.01.75-.9Zm3.56 5.46h-1.17v1.17h1.17v-1.17Zm5.78 0v1.17h.72l.32-.65-1.04-.52Zm1.44-2.89 1.05-.52-1.05-2.1-1.05 2.1 1.05.52Zm1.44 2.9-1.04.51.32.65h.72v-1.17Zm1.45 0v1.16h1.17v-1.17h-1.17Zm2.17-6 1 .62v-.01l.01-.02-1-.6Zm.74-8.5h1.17v-.02l-1.17.02Zm-11.11-2.6-1.17.07v.15l.06.14 1.1-.36Zm-.38-6.02-1.16.07 1.16-.07Zm-2.97 0h-1.17 1.17ZM251.1 194h1.17v-1.17h-1.17V194Zm0 5.78v1.17h1.17v-1.17h-1.17Zm-1.44 0h-1.17v1.17h1.17v-1.17Zm0-5.78v-1.17h-1.17V194h1.17Zm-1.45 0h1.18v-1.17h-1.18V194Zm0 5.78v1.17h1.18v-1.17h-1.18Zm-1.44 0h-1.17v1.17h1.17v-1.17Zm0-5.78v-1.17h-1.17V194h1.17Zm-1.44 0h1.17v-1.17h-1.17V194Zm0 5.78v1.17h1.17v-1.17h-1.17Zm-1.45 0h-1.17v1.17h1.17v-1.17Zm0-5.78v-1.17h-1.17V194h1.17Zm-3.37.8-1.28-1.95-1.96 1.28 1.28 1.96 1.96-1.28Zm-1.28-1.95a4.45 4.45 0 0 0-5.68-1.5l1.07 2.1c.9-.47 2.1-.15 2.65.68l1.96-1.28Zm-4.6.6.33-.18-1.08-2.08-.33.17 1.07 2.08Zm-.75-2.26a2 2 0 0 0-.93 2.47l2.19-.84c.03.1.02.19 0 .25a.37.37 0 0 1-.19.2l-1.07-2.08Zm-.93 2.47 1.77 4.59 2.19-.84-1.77-4.6-2.2.85Zm1.77 4.59a8 8 0 0 0 1.92 2.73l1.53-1.76a5.74 5.74 0 0 1-1.26-1.81l-2.19.84Zm2.69 1.85-.75.9.03.03.11.1c.1.07.23.19.39.33.32.28.75.67 1.18 1.09.43.42.83.85 1.12 1.22.14.2.24.34.29.44.06.13.02.1.02-.05h2.34c0-.42-.16-.79-.28-1.03a5.42 5.42 0 0 0-.52-.79c-.38-.5-.87-1-1.33-1.46a31.75 31.75 0 0 0-1.81-1.64l-.03-.03h-.01v-.01l-.75.9Zm2.39 4.06v1.4h2.34v-1.4h-2.34Zm1.17 2.57h5.78v-2.34h-5.78v2.34Zm6.82-.65 1.45-2.89-2.1-1.04-1.44 2.89 2.1 1.04Zm-.65-2.89 1.44 2.9 2.1-1.05-1.44-2.9-2.1 1.06Zm2.5 3.54h1.44v-2.34h-1.45v2.34Zm2.6-1.17v-1.4h-2.34v1.4h2.35Zm0-1.4.05-.18.2-.55c.19-.43.44-.94.7-1.43a36.12 36.12 0 0 1 .97-1.67l.07-.1.01-.04-.99-.62-.99-.63v.02l-.03.03-.07.12a33.13 33.13 0 0 0-1.82 3.4 4.6 4.6 0 0 0-.44 1.65h2.35Zm2.02-4c.27-.45.5-1.03.64-1.57.15-.54.26-1.15.26-1.69h-2.34c0 .26-.06.64-.18 1.06-.11.42-.26.79-.4 1.01l2.02 1.2Zm.9-3.26v-5.83h-2.34v5.83h2.34Zm0-5.85a3.6 3.6 0 0 0-3.64-3.49v2.35c.75 0 1.29.57 1.3 1.19l2.34-.05Zm-3.64-3.49c-1.28 0-2.4 1-2.4 2.34h2.34v.02l.06-.01v-2.34Zm-2.4 2.34v.47h2.34v-.47h-2.34Zm2.34.47c0-1.99-1.67-3.5-3.62-3.5v2.34c.76 0 1.28.57 1.28 1.16h2.34Zm-3.62-3.5c-1.27 0-2.4.99-2.4 2.33h2.35v.02s-.01 0 0 0l.05-.01v-2.35Zm-2.4 2.33v.47h2.35v-.47h-2.34Zm2.35.47c0-1.99-1.68-3.5-3.62-3.5v2.34c.76 0 1.28.57 1.28 1.16h2.34Zm-3.62-3.5c-1.27 0-2.4.99-2.4 2.33h2.34v.02l.06-.02v-2.34Zm-2.4 2.33v.47h2.34v-.47h-2.34Zm2.34.47c0-.28-.03-.58-.12-.87l-2.22.73v.14h2.34Zm-.06-.58-.38-6.02-2.34.15.38 6.02 2.34-.15Zm-.38-6.02a2.72 2.72 0 0 0-2.7-2.54v2.34c.18 0 .35.16.37.35l2.33-.15Zm-2.7-2.54a2.61 2.61 0 0 0-2.61 2.61h2.34c0-.15.12-.27.27-.27v-2.34Zm-2.61 2.61v5.78h2.34v-5.78h-2.34Zm0 5.78v7.23h2.34v-7.23h-2.34Zm11.3 6.95h1.44v-2.34h-1.44v2.34Zm.27-1.17v5.78h2.34V194h-2.34Zm1.17 4.61h-1.44v2.34h1.44v-2.34Zm-.27 1.17V194h-2.34v5.78h2.34Zm-4.06-4.6h1.44v-2.35h-1.44v2.34Zm.27-1.18v5.78h2.34V194h-2.34Zm1.17 4.61h-1.44v2.34h1.44v-2.34Zm-.27 1.17V194h-2.34v5.78h2.34Zm-4.06-4.6h1.45v-2.35h-1.45v2.34Zm.28-1.18v5.78h2.34V194h-2.34Zm1.17 4.61h-1.45v2.34h1.45v-2.34Zm-.28 1.17V194h-2.34v5.78h2.34Z" fill="#000" fill-opacity=".8" mask="url(#f)"/></g></g><path fill-rule="evenodd" clip-rule="evenodd" d="M292.65 83.13a8.13 8.13 0 0 0-11.22 2.52c-2.18 3.45-4.29 5.15-5.79 5.99a7.44 7.44 0 0 1-2.31.82h-.02a.9.9 0 0 0-.45 1.67l18.32 11.59a.9.9 0 0 0 1.31-1.12v-.01a7.51 7.51 0 0 1-.24-2.44c.1-1.72.74-4.36 2.92-7.8a8.13 8.13 0 0 0-2.52-11.22Zm-2.2 18.9c-.03.39-.03.75-.02 1.08l-14.88-9.42c.3-.13.62-.28.97-.48 1.8-1 4.12-2.92 6.44-6.6a6.32 6.32 0 1 1 10.69 6.77c-2.33 3.67-3.07 6.6-3.2 8.64Z" fill="#2979FF"/><path d="M279.38 101.66a.9.9 0 1 0-1.8-.07 3.31 3.31 0 0 0 4.84 3.07.9.9 0 0 0-.84-1.6 1.5 1.5 0 0 1-2.2-1.4Z" fill="#2979FF"/><path d="M278.26 81.09c1.41-1.98 5.94-5.52 12.73-3.82M299.26 97.94c1.85-1.57 5-6.38 2.74-13M279.1 74.4c1.6-1.13 3.9-2.15 6.79-2.22M305.84 96.55c1-1.7 1.83-4.06 1.65-6.95" stroke="#2979FF" stroke-width="1.61" stroke-linecap="round"/></g><defs><filter id="c" x="203.07" y="35.48" width="167.86" height="167.86" filterUnits="userSpaceOnUse" color-interpolation-filters="sRGB"><feFlood flood-opacity="0" result="BackgroundImageFix"/><feColorMatrix in="SourceAlpha" values="0 0 0 0 0 0 0 0 0 0 0 0 0 0 0 0 0 0 127 0" result="hardAlpha"/><feOffset dy="29.41"/><feGaussianBlur stdDeviation="22.96"/><feColorMatrix values="0 0 0 0 0 0 0 0 0 0 0 0 0 0 0 0 0 0 0.14 0"/><feBlend in2="BackgroundImageFix" result="effect1_dropShadow_12042_149110"/><feBlend in="SourceGraphic" in2="effect1_dropShadow_12042_149110" result="shape"/></filter><filter id="d" x="88.92" y="161.82" width="291.16" height="277.33" filterUnits="userSpaceOnUse" color-interpolation-filters="sRGB"><feFlood flood-opacity="0" result="BackgroundImageFix"/><feColorMatrix in="SourceAlpha" values="0 0 0 0 0 0 0 0 0 0 0 0 0 0 0 0 0 0 127 0" result="hardAlpha"/><feOffset dy="1.73"/><feGaussianBlur stdDeviation=".69"/><feColorMatrix values="0 0 0 0 0 0 0 0 0 0 0 0 0 0 0 0 0 0 0.0196802 0"/><feBlend in2="BackgroundImageFix" result="effect1_dropShadow_12042_149110"/><feColorMatrix in="SourceAlpha" values="0 0 0 0 0 0 0 0 0 0 0 0 0 0 0 0 0 0 127 0" result="hardAlpha"/><feOffset dy="3.07"/><feGaussianBlur stdDeviation="1.67"/><feColorMatrix values="0 0 0 0 0 0 0 0 0 0 0 0 0 0 0 0 0 0 0.0282725 0"/><feBlend in2="effect1_dropShadow_12042_149110" result="effect2_dropShadow_12042_149110"/><feColorMatrix in="SourceAlpha" values="0 0 0 0 0 0 0 0 0 0 0 0 0 0 0 0 0 0 127 0" result="hardAlpha"/><feOffset dy="-2.16"/><feGaussianBlur stdDeviation="3.14"/><feColorMatrix values="0 0 0 0 0 0 0 0 0 0 0 0 0 0 0 0 0 0 0.035 0"/><feBlend in2="effect2_dropShadow_12042_149110" result="effect3_dropShadow_12042_149110"/><feColorMatrix in="SourceAlpha" values="0 0 0 0 0 0 0 0 0 0 0 0 0 0 0 0 0 0 127 0" result="hardAlpha"/><feOffset dy="24.88"/><feGaussianBlur stdDeviation="5.59"/><feColorMatrix values="0 0 0 0 0 0 0 0 0 0 0 0 0 0 0 0 0 0 0.0417275 0"/><feBlend in2="effect3_dropShadow_12042_149110" result="effect4_dropShadow_12042_149110"/><feColorMatrix in="SourceAlpha" values="0 0 0 0 0 0 0 0 0 0 0 0 0 0 0 0 0 0 127 0" result="hardAlpha"/><feOffset dy="26.15"/><feGaussianBlur stdDeviation="10.46"/><feColorMatrix values="0 0 0 0 0 0 0 0 0 0 0 0 0 0 0 0 0 0 0.0503198 0"/><feBlend in2="effect4_dropShadow_12042_149110" result="effect5_dropShadow_12042_149110"/><feColorMatrix in="SourceAlpha" values="0 0 0 0 0 0 0 0 0 0 0 0 0 0 0 0 0 0 127 0" result="hardAlpha"/><feOffset dy="32.07"/><feGaussianBlur stdDeviation="25.04"/><feColorMatrix values="0 0 0 0 0 0 0 0 0 0 0 0 0 0 0 0 0 0 0.07 0"/><feBlend in2="effect5_dropShadow_12042_149110" result="effect6_dropShadow_12042_149110"/><feBlend in="SourceGraphic" in2="effect6_dropShadow_12042_149110" result="shape"/></filter><filter id="e" x="229.31" y="177.49" width="29.37" height="33.93" filterUnits="userSpaceOnUse" color-interpolation-filters="sRGB"><feFlood flood-opacity="0" result="BackgroundImageFix"/><feColorMatrix in="SourceAlpha" values="0 0 0 0 0 0 0 0 0 0 0 0 0 0 0 0 0 0 127 0" result="hardAlpha"/><feOffset dy="1.17"/><feGaussianBlur stdDeviation="1.76"/><feColorMatrix values="0 0 0 0 0 0 0 0 0 0 0 0 0 0 0 0 0 0 0.2 0"/><feBlend in2="BackgroundImageFix" result="effect1_dropShadow_12042_149110"/><feBlend in="SourceGraphic" in2="effect1_dropShadow_12042_149110" result="shape"/></filter><clipPath id="a"><path fill="#fff" d="M0 0h364v416H0z"/></clipPath><clipPath id="b"><path fill="#fff" d="M33 154.11h11.24v11.24H33z"/></clipPath></defs></svg>