<svg width="364" height="416" fill="none" xmlns="http://www.w3.org/2000/svg"><g clip-path="url(#a)"><circle opacity=".4" cx="301.5" cy="128.5" r="65.03" stroke="#fff" stroke-width=".94"/><circle opacity=".4" cx="301.5" cy="128.5" r="152.03" stroke="#fff" stroke-width=".94"/><circle opacity=".4" cx="301.5" cy="128.5" r="246.03" stroke="#fff" stroke-width=".94"/><g filter="url(#b)"><g clip-path="url(#c)"><rect x="26" y="106" width="311" height="218" rx="5" fill="#fff"/><path d="M37.08 166.67v.88c0 .47-.04.86-.13 1.19-.08.32-.2.58-.36.78-.16.2-.35.34-.57.43-.22.09-.47.13-.75.13-.22 0-.42-.03-.61-.08a1.45 1.45 0 0 1-.5-.27 1.6 1.6 0 0 1-.38-.48c-.1-.2-.19-.44-.24-.72a5.16 5.16 0 0 1-.09-.98v-.88c0-.47.05-.86.13-1.18.09-.32.2-.57.37-.77.15-.19.34-.33.56-.41a2.17 2.17 0 0 1 1.36-.04 1.38 1.38 0 0 1 .89.71c.1.2.18.43.24.71.05.28.08.6.08.98Zm-.73 1v-1.12c0-.26-.02-.48-.05-.68-.03-.2-.07-.36-.13-.5a1 1 0 0 0-.22-.34.77.77 0 0 0-.3-.2 1.1 1.1 0 0 0-.39-.06c-.17 0-.32.04-.46.1a.82.82 0 0 0-.34.3c-.09.15-.15.33-.2.56-.05.22-.07.5-.07.82v1.12c0 .25.01.48.04.68.03.2.08.37.14.51.06.14.13.26.22.35.09.1.19.16.3.2.11.05.24.07.38.07.18 0 .34-.03.47-.1a.85.85 0 0 0 .34-.32c.09-.15.16-.34.2-.57.05-.23.07-.5.07-.82Zm2.83 1.72h.08c.42 0 .76-.06 1.02-.18s.47-.28.6-.48c.15-.2.25-.42.3-.67.05-.25.08-.51.08-.78v-.88c0-.26-.03-.49-.1-.69-.05-.2-.13-.37-.24-.5a1.1 1.1 0 0 0-.35-.32.87.87 0 0 0-.42-.1.95.95 0 0 0-.79.38c-.08.12-.15.26-.2.42a1.9 1.9 0 0 0 .19 1.47 1 1 0 0 0 .32.3c.13.08.28.11.46.11.16 0 .32-.03.46-.1a1.3 1.3 0 0 0 .77-1.08h.34a1.97 1.97 0 0 1-1.02 1.64c-.2.1-.43.15-.67.15a1.48 1.48 0 0 1-1.25-.6 2.02 2.02 0 0 1-.3-.62 2.6 2.6 0 0 1 .03-1.47c.07-.23.19-.44.34-.63.15-.18.33-.32.55-.43.23-.1.48-.15.77-.15.33 0 .61.07.84.2.24.13.42.3.57.53.15.22.25.47.32.74.07.28.1.56.1.85v.27c0 .3-.02.6-.05.9-.04.3-.11.6-.22.88a2.13 2.13 0 0 1-1.25 1.27c-.33.12-.73.19-1.2.19h-.08v-.62Zm4.3.22c0-.12.04-.22.12-.3.07-.1.19-.14.33-.14.15 0 .26.05.34.13.08.09.12.19.12.31 0 .13-.04.23-.12.31-.08.09-.19.13-.34.13-.14 0-.26-.05-.33-.13a.44.44 0 0 1-.12-.3Zm0-3.48c0-.12.04-.22.12-.31.08-.09.2-.13.34-.13.15 0 .26.04.33.13.08.09.12.19.12.31s-.04.22-.12.3c-.07.1-.18.14-.33.14-.15 0-.26-.05-.34-.13a.44.44 0 0 1-.12-.3Zm5.95.54v.88c0 .47-.04.86-.13 1.19-.08.32-.2.58-.36.78-.16.2-.35.34-.57.43-.22.09-.47.13-.75.13-.22 0-.43-.03-.61-.08a1.45 1.45 0 0 1-.5-.27 1.6 1.6 0 0 1-.39-.48c-.1-.2-.18-.44-.24-.72a5.17 5.17 0 0 1-.08-.98v-.88c0-.47.04-.86.13-1.18.08-.32.2-.57.36-.77.16-.19.35-.33.57-.41a2.17 2.17 0 0 1 1.36-.04 1.38 1.38 0 0 1 .89.71c.1.2.18.43.24.71.05.28.08.6.08.98Zm-.73 1v-1.12c0-.26-.02-.48-.05-.68-.03-.2-.07-.36-.13-.5a1 1 0 0 0-.22-.34.77.77 0 0 0-.3-.2 1.1 1.1 0 0 0-.39-.06c-.17 0-.33.04-.46.1a.82.82 0 0 0-.34.3c-.09.15-.16.33-.2.56-.05.22-.08.5-.08.82v1.12c0 .25.02.48.05.68.03.2.08.37.14.51.06.14.13.26.22.35.08.1.18.16.3.2.11.05.24.07.38.07.18 0 .33-.03.47-.1a.85.85 0 0 0 .33-.32c.1-.15.16-.34.2-.57.05-.23.08-.5.08-.82Zm5.7-1v.88c0 .47-.03.86-.12 1.19-.08.32-.2.58-.36.78-.16.2-.35.34-.57.43-.22.09-.47.13-.75.13-.22 0-.43-.03-.61-.08a1.44 1.44 0 0 1-.5-.27 1.61 1.61 0 0 1-.39-.48c-.1-.2-.18-.44-.24-.72a5.17 5.17 0 0 1-.08-.98v-.88c0-.47.04-.86.13-1.18.08-.32.2-.57.36-.77.16-.19.35-.33.57-.41.22-.09.47-.13.75-.13.22 0 .43.03.61.08a1.39 1.39 0 0 1 .88.72c.1.2.19.43.24.71.06.28.09.6.09.98Zm-.73 1v-1.12c0-.26-.01-.48-.04-.68-.03-.2-.08-.36-.13-.5a1 1 0 0 0-.22-.34.77.77 0 0 0-.3-.2 1.1 1.1 0 0 0-.39-.06c-.17 0-.33.04-.46.1a.82.82 0 0 0-.34.3c-.09.15-.16.33-.2.56-.05.22-.08.5-.08.82v1.12c0 .25.02.48.05.68.03.2.07.37.13.51.07.14.14.26.23.35.08.1.18.16.3.2.11.05.24.07.38.07.18 0 .33-.03.47-.1a.85.85 0 0 0 .33-.32c.1-.15.16-.34.2-.57.05-.23.07-.5.07-.82ZM35.87 264.23V270h-.72v-4.86l-1.48.54v-.66l2.09-.8h.11Zm4.98 0V270h-.73v-4.86l-1.47.54v-.66l2.09-.8h.11Zm2.63 5.38c0-.12.04-.22.12-.3.07-.1.19-.14.33-.14.15 0 .26.04.34.13.08.09.12.19.12.31 0 .13-.04.23-.12.31-.08.08-.19.13-.34.13-.14 0-.26-.05-.33-.13a.44.44 0 0 1-.12-.3Zm0-3.48c0-.12.04-.23.12-.31.08-.09.2-.13.34-.13.15 0 .26.04.33.13.08.08.12.19.12.31s-.04.23-.12.3c-.07.1-.18.14-.33.14-.15 0-.26-.05-.34-.13a.44.44 0 0 1-.12-.3Zm5.95.54v.88c0 .47-.04.87-.13 1.19-.08.32-.2.58-.36.78-.16.2-.35.34-.57.43-.22.09-.47.13-.75.13-.22 0-.43-.03-.61-.08a1.45 1.45 0 0 1-.5-.27 1.6 1.6 0 0 1-.39-.48c-.1-.2-.18-.44-.24-.72a5.17 5.17 0 0 1-.08-.98v-.88c0-.47.04-.86.13-1.18.08-.32.2-.57.36-.77.16-.19.35-.33.57-.41a2.17 2.17 0 0 1 1.36-.04 1.38 1.38 0 0 1 .89.71c.1.2.18.43.24.71.05.28.08.6.08.98Zm-.73 1v-1.12c0-.26-.02-.48-.05-.68-.03-.2-.07-.36-.13-.5a1 1 0 0 0-.22-.34.77.77 0 0 0-.3-.2 1.1 1.1 0 0 0-.39-.06c-.17 0-.33.04-.46.1a.82.82 0 0 0-.34.3c-.09.15-.16.33-.2.56-.05.22-.08.5-.08.82v1.12c0 .25.02.48.05.68.03.2.08.37.14.51.06.14.13.26.22.35.08.1.18.16.3.2.11.05.24.07.38.07.18 0 .33-.04.47-.1a.85.85 0 0 0 .33-.32c.1-.15.16-.34.2-.57.05-.23.08-.5.08-.82Zm5.7-1v.88c0 .47-.03.87-.12 1.19-.08.32-.2.58-.36.78-.16.2-.35.34-.57.43-.22.09-.47.13-.75.13-.22 0-.43-.03-.61-.08a1.44 1.44 0 0 1-.5-.27 1.61 1.61 0 0 1-.39-.48c-.1-.2-.18-.44-.24-.72a5.17 5.17 0 0 1-.08-.98v-.88c0-.47.04-.86.13-1.18.08-.32.2-.57.36-.77.16-.19.35-.33.57-.41.22-.09.47-.13.75-.13.22 0 .43.03.61.08a1.39 1.39 0 0 1 .88.72c.1.2.19.43.24.71.06.28.09.6.09.98Zm-.73 1v-1.12c0-.26-.01-.48-.04-.68-.03-.2-.08-.36-.13-.5a1 1 0 0 0-.22-.34.77.77 0 0 0-.3-.2 1.1 1.1 0 0 0-.39-.06c-.17 0-.33.04-.46.1a.82.82 0 0 0-.34.3c-.09.15-.16.33-.2.56-.05.22-.08.5-.08.82v1.12c0 .25.02.48.05.68.03.2.07.37.13.51.07.14.14.26.23.35.08.1.18.16.3.2.11.05.24.07.38.07.18 0 .33-.04.47-.1a.85.85 0 0 0 .33-.32c.1-.15.16-.34.2-.57.05-.23.07-.5.07-.82ZM35.87 216.23V222h-.72v-4.86l-1.48.54v-.66l2.09-.8h.11Zm6.19 2.44v.88c0 .47-.04.86-.13 1.19-.08.32-.2.58-.36.78-.16.2-.35.34-.57.43-.22.09-.47.13-.75.13-.22 0-.43-.03-.61-.08a1.45 1.45 0 0 1-.5-.27 1.61 1.61 0 0 1-.38-.48c-.11-.2-.19-.44-.25-.72a5.17 5.17 0 0 1-.08-.98v-.88c0-.47.04-.86.13-1.18.08-.32.2-.57.36-.77.16-.19.35-.33.57-.41a2.17 2.17 0 0 1 1.36-.04 1.39 1.39 0 0 1 .89.71c.1.2.18.43.24.71.05.28.08.6.08.98Zm-.73 1v-1.12c0-.26-.02-.48-.05-.68-.03-.2-.07-.36-.13-.5a1 1 0 0 0-.22-.34.77.77 0 0 0-.3-.2 1.1 1.1 0 0 0-.39-.06c-.17 0-.33.04-.46.1a.82.82 0 0 0-.34.3c-.09.15-.16.33-.2.56-.05.22-.07.5-.07.82v1.12c0 .25.01.48.04.68.03.2.08.37.14.51.06.14.13.26.22.35.08.1.18.16.3.2.11.05.24.07.38.07.18 0 .33-.03.47-.1a.85.85 0 0 0 .33-.32c.1-.15.16-.34.2-.57.05-.23.08-.5.08-.82Zm2.15 1.94c0-.12.04-.22.12-.3.07-.1.19-.14.33-.14.15 0 .26.05.34.13.08.09.12.19.12.31 0 .13-.04.23-.12.31-.08.09-.19.13-.34.13-.14 0-.26-.05-.33-.13a.44.44 0 0 1-.12-.3Zm0-3.48c0-.12.04-.22.12-.31.08-.09.2-.13.34-.13.15 0 .26.04.33.13.08.09.12.19.12.31s-.04.22-.12.3c-.07.1-.18.14-.33.14-.15 0-.26-.05-.34-.13a.44.44 0 0 1-.12-.3Zm5.95.54v.88c0 .47-.04.86-.13 1.19-.08.32-.2.58-.36.78-.16.2-.35.34-.57.43-.22.09-.47.13-.75.13-.22 0-.43-.03-.61-.08a1.45 1.45 0 0 1-.5-.27 1.6 1.6 0 0 1-.39-.48c-.1-.2-.18-.44-.24-.72a5.17 5.17 0 0 1-.08-.98v-.88c0-.47.04-.86.13-1.18.08-.32.2-.57.36-.77.16-.19.35-.33.57-.41a2.17 2.17 0 0 1 1.36-.04 1.38 1.38 0 0 1 .89.71c.1.2.18.43.24.71.05.28.08.6.08.98Zm-.73 1v-1.12c0-.26-.02-.48-.05-.68-.03-.2-.07-.36-.13-.5a1 1 0 0 0-.22-.34.77.77 0 0 0-.3-.2 1.1 1.1 0 0 0-.39-.06c-.17 0-.33.04-.46.1a.82.82 0 0 0-.34.3c-.09.15-.16.33-.2.56-.05.22-.08.5-.08.82v1.12c0 .25.02.48.05.68.03.2.08.37.14.51.06.14.13.26.22.35.08.1.18.16.3.2.11.05.24.07.38.07.18 0 .33-.03.47-.1a.85.85 0 0 0 .33-.32c.1-.15.16-.34.2-.57.05-.23.08-.5.08-.82Zm5.7-1v.88c0 .47-.03.86-.12 1.19-.08.32-.2.58-.36.78-.16.2-.35.34-.57.43-.22.09-.47.13-.75.13-.22 0-.43-.03-.61-.08a1.44 1.44 0 0 1-.5-.27 1.61 1.61 0 0 1-.39-.48c-.1-.2-.18-.44-.24-.72a5.17 5.17 0 0 1-.08-.98v-.88c0-.47.04-.86.13-1.18.08-.32.2-.57.36-.77.16-.19.35-.33.57-.41.22-.09.47-.13.75-.13.22 0 .43.03.61.08a1.39 1.39 0 0 1 .88.72c.1.2.19.43.24.71.06.28.09.6.09.98Zm-.73 1v-1.12c0-.26-.01-.48-.04-.68-.03-.2-.08-.36-.13-.5a1 1 0 0 0-.22-.34.77.77 0 0 0-.3-.2 1.1 1.1 0 0 0-.39-.06c-.17 0-.33.04-.46.1a.82.82 0 0 0-.34.3c-.09.15-.16.33-.2.56-.05.22-.08.5-.08.82v1.12c0 .25.02.48.05.68.03.2.07.37.13.51.07.14.14.26.23.35.08.1.18.16.3.2.11.05.24.07.38.07.18 0 .33-.03.47-.1a.85.85 0 0 0 .33-.32c.1-.15.16-.34.2-.57.05-.23.07-.5.07-.82Z" fill="#8A8C8E"/><path d="M68.02 151.86h.67l1.71 4.25 1.71-4.25h.67l-2.12 5.22h-.52l-2.12-5.22Zm-.21 0h.59l.1 3.18v2.04h-.7v-5.22Zm4.6 0H73v5.22h-.69v-2.04l.1-3.18Zm1.96 3.32v-.08c0-.28.04-.54.13-.78.08-.24.2-.45.35-.63.15-.17.34-.31.55-.41.22-.1.46-.15.73-.15.28 0 .52.05.74.15.22.1.4.24.56.41.15.18.27.4.35.63.08.24.12.5.12.78v.08c0 .28-.04.54-.12.78-.08.24-.2.45-.35.63a1.63 1.63 0 0 1-1.29.56 1.67 1.67 0 0 1-1.65-1.19 2.4 2.4 0 0 1-.12-.78Zm.67-.08v.08c0 .2.02.38.07.55.04.17.1.32.2.45s.2.24.35.31c.14.08.3.12.48.12s.34-.04.48-.12c.14-.07.25-.18.34-.3.1-.14.16-.29.2-.46.05-.17.08-.35.08-.55v-.08c0-.2-.03-.37-.07-.54a1.39 1.39 0 0 0-.21-.46.97.97 0 0 0-.82-.43.98.98 0 0 0-.49.12c-.13.08-.25.18-.34.31-.1.14-.16.29-.2.46-.05.17-.07.35-.07.54Zm4.8-1.07v3.05h-.67v-3.88h.63l.04.83Zm-.16.96h-.28c0-.27.04-.52.12-.74.08-.23.18-.43.32-.6a1.44 1.44 0 0 1 1.14-.52c.19 0 .36.03.52.08.15.05.28.13.39.24.1.11.19.26.25.44.05.18.08.4.08.65v2.54h-.66v-2.55c0-.2-.03-.37-.1-.49a.55.55 0 0 0-.26-.27.94.94 0 0 0-.42-.08.99.99 0 0 0-.8.39 1.44 1.44 0 0 0-.3.91Zm9.54-3.13v.37l-2.16 4.85h-.7l2.16-4.68H85.7v-.54h3.52ZM162.57 151.78V157h-.68v-5.22h.68Zm1.68 0v.57h-4.03v-.57h4.03Zm3.14 4.32v-2.98h.67V157h-.64l-.03-.9Zm.13-.81.27-.01c0 .26-.03.5-.08.72-.05.21-.14.4-.26.56-.12.16-.28.29-.47.38-.2.09-.43.13-.7.13-.2 0-.37-.03-.53-.08a1.04 1.04 0 0 1-.66-.7c-.06-.19-.09-.4-.09-.67v-2.5h.66v2.51c0 .18.03.32.06.43.04.12.1.2.16.27.07.07.15.11.23.14.09.03.18.04.27.04.28 0 .5-.05.67-.16a.92.92 0 0 0 .35-.44c.08-.19.11-.4.11-.62Zm3.6 1.78a1.9 1.9 0 0 1-.74-.13 1.66 1.66 0 0 1-.92-.99 2.2 2.2 0 0 1-.13-.75v-.15c0-.32.05-.6.14-.85.1-.24.22-.45.38-.63a1.63 1.63 0 0 1 1.9-.38c.2.1.36.23.5.4.12.17.22.38.28.6.06.24.1.49.1.76v.3h-2.9v-.54h2.23v-.05c-.01-.18-.05-.34-.1-.5a.9.9 0 0 0-.3-.4.84.84 0 0 0-.53-.16.9.9 0 0 0-.75.37c-.09.13-.16.28-.2.46-.06.18-.08.38-.08.62v.15c0 .18.02.35.07.52.06.16.13.3.23.42a1.07 1.07 0 0 0 .85.39c.23 0 .43-.05.6-.14.16-.1.3-.23.42-.39l.4.32a1.55 1.55 0 0 1-.8.64c-.18.08-.4.11-.66.11Zm8.19-1.48c0 .32-.08.59-.22.8-.15.23-.35.4-.6.51a2 2 0 0 1-.84.17c-.31 0-.6-.06-.85-.17a1.4 1.4 0 0 1-.6-.5c-.14-.22-.21-.5-.21-.81a1.35 1.35 0 0 1 .46-1.03c.15-.13.32-.23.52-.3a2 2 0 0 1 .67-.1c.32 0 .6.06.86.18.25.13.44.3.59.5.15.22.22.47.22.75Zm-.67-.02c0-.19-.04-.36-.13-.5a.88.88 0 0 0-.35-.36 1.06 1.06 0 0 0-.52-.13c-.2 0-.38.05-.53.13a.88.88 0 0 0-.34.35c-.08.15-.12.32-.12.51 0 .2.04.38.12.52.08.14.2.25.34.33.15.07.33.1.54.1.2 0 .38-.03.53-.1a.8.8 0 0 0 .34-.33c.08-.14.12-.32.12-.52Zm.55-2.43c0 .25-.07.48-.2.68-.14.2-.32.37-.55.48-.23.12-.5.18-.8.18-.3 0-.56-.06-.8-.18a1.36 1.36 0 0 1-.54-.48 1.44 1.44 0 0 1 0-1.46c.14-.2.32-.37.55-.48.23-.12.5-.17.8-.17.3 0 .56.05.79.17.23.11.41.27.55.49.13.2.2.47.2.77Zm-.67.01a.94.94 0 0 0-.1-.46.81.81 0 0 0-.32-.32.87.87 0 0 0-.46-.12.92.92 0 0 0-.45.12.78.78 0 0 0-.3.3 1 1 0 0 0-.12.48c0 .18.04.34.11.47.08.13.18.24.3.31.14.08.3.11.47.11a.9.9 0 0 0 .45-.1.78.78 0 0 0 .31-.32c.08-.13.11-.3.11-.47Z" fill="#70757A"/><path fill="#F0F0F0" d="M155 163v174h-.6V163zM246 163v175h-.6V163zM337 162.29v164h-.6v-164z"/><path fill="#F0F0F0" d="M63 162.29h275v.6H63zM63 214h275v.6H63zM63 266h275v.6H63z"/><path fill="#F0F0F0" d="m63.41 162.53.01 173.9h-.6v-173.9zM26 142.71h602.54v.51H26z"/><path d="M45.6 126.13h1.47c-.05.56-.2 1.06-.47 1.5-.27.43-.64.77-1.12 1.02-.48.25-1.07.38-1.75.38a3.12 3.12 0 0 1-2.5-1.09c-.31-.35-.54-.78-.7-1.27a5.53 5.53 0 0 1-.24-1.67v-.7c0-.62.08-1.17.24-1.67.17-.5.4-.92.7-1.27.31-.36.68-.63 1.1-.82.43-.19.91-.28 1.45-.28.68 0 1.25.13 1.72.38s.83.6 1.1 1.03c.25.44.41.95.47 1.52h-1.46a2.7 2.7 0 0 0-.26-.94 1.33 1.33 0 0 0-.57-.6 2.06 2.06 0 0 0-1-.21c-.34 0-.63.06-.88.19-.25.12-.46.3-.63.55-.16.24-.3.54-.38.9-.08.35-.12.75-.12 1.2v.72c0 .43.04.82.11 1.17.08.35.2.65.35.9.16.25.37.44.61.58.25.14.54.2.89.2.41 0 .75-.06 1.01-.2.26-.13.46-.32.6-.57.13-.26.22-.58.26-.95Zm6.24 1.5v-3.02c0-.22-.05-.42-.13-.58a.86.86 0 0 0-.37-.38 1.3 1.3 0 0 0-.62-.14c-.23 0-.43.04-.6.12a.96.96 0 0 0-.4.32.76.76 0 0 0-.13.45h-1.41c0-.25.06-.5.18-.73.12-.23.3-.44.53-.63.23-.18.5-.32.82-.43.33-.1.68-.16 1.08-.16.48 0 .9.08 1.27.24.37.16.66.4.87.73.22.32.32.72.32 1.2v2.82c0 .3.02.55.06.78.05.23.1.43.18.6v.09h-1.44a2.5 2.5 0 0 1-.16-.58 4.73 4.73 0 0 1-.05-.7Zm.2-2.57.01.87h-1.01c-.26 0-.5.02-.7.07-.2.05-.36.12-.49.22a.92.92 0 0 0-.4.79c0 .16.04.32.12.46.08.14.19.24.34.32a1.55 1.55 0 0 0 1.82-.5c.13-.17.2-.34.2-.5l.46.63a2.51 2.51 0 0 1-.69 1.04 2.2 2.2 0 0 1-1.52.57c-.41 0-.78-.09-1.1-.25-.33-.17-.58-.4-.77-.67a2.02 2.02 0 0 1-.09-1.86c.14-.26.32-.48.57-.66.25-.17.55-.3.91-.4.36-.09.77-.13 1.23-.13h1.11Zm4.2-5.15v9h-1.42v-9h1.42Zm4.34 9.12c-.46 0-.89-.08-1.27-.23a2.8 2.8 0 0 1-1.56-1.63 3.43 3.43 0 0 1-.21-1.21v-.24c0-.5.07-.94.21-1.34.15-.4.35-.75.6-1.04.27-.28.57-.5.92-.66.35-.15.73-.23 1.14-.23.46 0 .85.08 1.2.23.33.15.61.37.84.65.22.27.4.6.5.98.11.37.17.8.17 1.25v.6h-4.9v-1.01h3.5v-.11c0-.26-.05-.5-.15-.72-.09-.22-.22-.4-.41-.54-.19-.13-.44-.2-.75-.2-.24 0-.45.05-.63.15-.18.1-.33.24-.45.43s-.21.41-.28.68c-.06.26-.1.55-.1.88v.24c0 .27.04.53.12.77.07.23.19.44.34.62.14.17.32.31.54.41a1.95 1.95 0 0 0 2.32-.64l.74.72a2.66 2.66 0 0 1-1.34 1.01c-.3.12-.67.18-1.09.18Zm5.04-5.1v4.98h-1.4v-6.34h1.32l.08 1.35Zm-.25 1.58-.46-.01c0-.45.07-.86.2-1.24.12-.37.29-.7.5-.96a2.34 2.34 0 0 1 1.83-.84c.31 0 .59.04.83.12.25.08.46.22.64.4.18.2.32.44.41.74.1.3.14.66.14 1.1v4.09h-1.42v-4.1c0-.3-.04-.55-.13-.72a.75.75 0 0 0-.38-.38 1.43 1.43 0 0 0-.62-.12 1.37 1.37 0 0 0-1.13.57c-.13.17-.23.38-.3.6-.07.24-.1.48-.1.75Zm9.4 2.09v-7.69h1.42v9H74.9l-.13-1.31Zm-4.13-1.79v-.12c0-.48.06-.92.17-1.31.12-.4.28-.74.5-1.03.21-.29.47-.51.78-.66.31-.16.66-.24 1.04-.24a2.1 2.1 0 0 1 1.75.86c.2.28.37.6.49.99.12.38.2.8.25 1.26v.4c-.05.45-.13.86-.25 1.24-.12.37-.29.7-.49.97a2.11 2.11 0 0 1-1.76.86 2.22 2.22 0 0 1-1.81-.92 3.17 3.17 0 0 1-.5-1.02c-.1-.4-.17-.82-.17-1.28Zm1.42-.12v.12c0 .29.02.56.07.8.06.26.14.48.25.67.12.19.26.34.44.45.19.1.4.16.66.16.32 0 .58-.08.8-.22.2-.14.36-.33.48-.56.12-.25.2-.52.24-.81v-1.06a2.59 2.59 0 0 0-.14-.65c-.07-.2-.17-.37-.29-.52a1.21 1.21 0 0 0-.45-.35 1.41 1.41 0 0 0-.63-.13c-.26 0-.47.05-.65.16-.18.11-.33.26-.45.45-.11.2-.2.42-.25.67-.06.26-.08.53-.08.82Zm9.18 1.95v-3.03c0-.22-.04-.42-.12-.58a.86.86 0 0 0-.38-.38 1.3 1.3 0 0 0-.62-.14c-.23 0-.43.04-.6.12a.96.96 0 0 0-.4.32.76.76 0 0 0-.13.45h-1.4c0-.25.05-.5.17-.73.12-.23.3-.44.53-.63.23-.18.5-.32.83-.43.32-.1.68-.16 1.08-.16.47 0 .9.08 1.26.24.37.16.66.4.87.73.22.32.33.72.33 1.2v2.82c0 .3.02.55.05.78.05.23.1.43.19.6v.09h-1.45a2.5 2.5 0 0 1-.16-.58 4.74 4.74 0 0 1-.05-.7Zm.2-2.58.02.87h-1.02c-.26 0-.5.02-.69.07-.2.05-.37.12-.5.22a.92.92 0 0 0-.4.79c0 .16.04.32.12.46.08.14.2.24.34.32a1.55 1.55 0 0 0 1.82-.5c.13-.17.2-.34.2-.5l.46.63a2.51 2.51 0 0 1-.69 1.04 2.2 2.2 0 0 1-1.51.57c-.42 0-.79-.09-1.11-.25-.33-.17-.58-.4-.76-.67a2.02 2.02 0 0 1-.09-1.86c.13-.26.32-.48.56-.66.25-.17.56-.3.92-.4.35-.09.77-.13 1.23-.13h1.1Zm4.11-1.28v5.13h-1.41v-6.34h1.35l.06 1.2Zm1.94-1.25-.01 1.31a2.46 2.46 0 0 0-.58-.05c-.24 0-.45.04-.63.11a1.21 1.21 0 0 0-.75.75c-.06.18-.1.38-.12.6l-.32.03c0-.4.04-.77.12-1.11.08-.34.2-.64.35-.9.16-.25.36-.46.6-.6a1.6 1.6 0 0 1 1.11-.2l.23.06Z" fill="#181818"/><rect x="68" y="168" width="82" height="40" rx="2.34" fill="#BDE0F4"/><path d="M75.63 175.22h.93l1.74 4.66 1.75-4.66h.93l-2.31 6.04h-.74l-2.3-6.04Zm-.43 0h.89l.15 4.03v2.01H75.2v-6.04Zm5.32 0h.88v6.04h-1.04v-2l.16-4.04Zm1.83 3.84v-.1c0-.31.05-.62.14-.9.1-.27.23-.51.4-.72.19-.2.4-.37.66-.48.26-.12.56-.17.88-.17.33 0 .63.06.88.17.26.11.48.27.66.48.18.2.32.45.42.73.09.28.14.58.14.9v.1c0 .32-.05.62-.14.9-.1.27-.24.51-.42.72a1.91 1.91 0 0 1-1.53.65 1.9 1.9 0 0 1-1.95-1.38c-.1-.27-.14-.57-.14-.9Zm1-.1v.1c0 .2.02.4.06.58.05.18.11.34.2.47.09.14.2.24.34.32.14.08.3.12.5.12a.95.95 0 0 0 .81-.44c.1-.14.16-.3.2-.47.04-.18.07-.37.07-.57v-.1c0-.2-.03-.39-.07-.56-.04-.19-.1-.34-.2-.48a.95.95 0 0 0-.83-.45.96.96 0 0 0-.49.12.96.96 0 0 0-.33.33c-.09.14-.15.3-.2.47-.04.18-.06.37-.06.57Zm4.02-4.08h1v5.42l-.1.96h-.9v-6.38Zm3.93 4.1v.08c0 .33-.04.64-.11.92-.07.27-.19.52-.33.72a1.53 1.53 0 0 1-1.3.64 1.46 1.46 0 0 1-1.25-.6c-.15-.2-.26-.43-.34-.7a4.57 4.57 0 0 1-.19-.88v-.28c.04-.33.1-.63.19-.89.08-.27.2-.5.33-.7.14-.19.32-.34.52-.45.2-.1.45-.15.73-.15.29 0 .54.05.76.16.22.11.4.27.55.48.15.2.26.44.33.72.07.28.1.59.1.92Zm-1 .08v-.09c0-.2-.02-.39-.05-.56a1.49 1.49 0 0 0-.17-.48.83.83 0 0 0-.3-.32.88.88 0 0 0-.48-.12c-.18 0-.33.03-.46.1a.92.92 0 0 0-.32.24c-.08.1-.15.23-.2.37-.05.14-.08.29-.1.45v.75c.03.2.08.4.16.57.08.17.2.3.35.41a1 1 0 0 0 .58.16c.18 0 .34-.04.47-.11a.82.82 0 0 0 .3-.31c.08-.14.13-.3.17-.48.03-.18.05-.37.05-.58Zm2.92-2.29v4.49h-1v-4.49h1Zm-1.07-1.18c0-.15.05-.28.15-.38.1-.1.24-.15.42-.15s.32.05.42.15c.1.1.15.23.15.38a.5.5 0 0 1-.15.37c-.1.1-.24.15-.42.15a.58.58 0 0 1-.42-.15.5.5 0 0 1-.15-.37Zm3.23-.7v6.37h-1v-6.38h1Zm3.08 6.45a2.4 2.4 0 0 1-.9-.16 1.98 1.98 0 0 1-1.11-1.15c-.1-.27-.15-.55-.15-.86V179c0-.35.05-.67.15-.95.1-.29.25-.53.43-.73.18-.2.4-.36.65-.47.25-.11.52-.16.8-.16.33 0 .61.05.85.16.24.1.44.26.6.46.16.19.28.42.36.69.08.27.12.56.12.89v.42h-3.47v-.71h2.48v-.08c0-.18-.04-.35-.11-.51a.86.86 0 0 0-.3-.38.88.88 0 0 0-.53-.15.88.88 0 0 0-.76.41c-.09.14-.15.3-.2.49-.04.18-.07.39-.07.62v.17c0 .2.03.38.08.55.06.16.14.3.24.43.11.13.24.22.39.3a1.38 1.38 0 0 0 1.64-.45l.53.5a1.9 1.9 0 0 1-.95.72c-.22.08-.48.12-.77.12Zm5.76-4.57v4.49h-1v-4.49h1Zm-1.07-1.18c0-.15.05-.28.15-.38.1-.1.25-.15.43-.15.17 0 .31.05.41.15.1.1.16.23.16.38a.5.5 0 0 1-.16.37c-.1.1-.24.15-.41.15a.58.58 0 0 1-.43-.15.5.5 0 0 1-.15-.37Zm4.23 1.18v.73h-2.53v-.73h2.53Zm-1.8-1.1h1v4.35c0 .14.02.24.06.32.04.07.1.12.17.14.07.03.15.04.25.04a1.6 1.6 0 0 0 .35-.04v.77a2.48 2.48 0 0 1-.66.1c-.23 0-.43-.05-.6-.13a.9.9 0 0 1-.42-.4c-.1-.19-.15-.43-.15-.74v-4.41Zm4.55 5.67a2.4 2.4 0 0 1-.9-.16 1.98 1.98 0 0 1-1.1-1.15c-.1-.27-.16-.55-.16-.86V179c0-.35.05-.67.16-.95.1-.29.24-.53.42-.73.19-.2.4-.36.65-.47.25-.11.52-.16.8-.16.33 0 .61.05.85.16.24.1.44.26.6.46.16.19.28.42.36.69.08.27.12.56.12.89v.42h-3.47v-.71h2.48v-.08c0-.18-.04-.35-.1-.51a.86.86 0 0 0-.3-.38.88.88 0 0 0-.54-.15.88.88 0 0 0-.76.41c-.08.14-.15.3-.2.49-.04.18-.06.39-.06.62v.17c0 .2.02.38.08.55a1.15 1.15 0 0 0 .62.73 1.38 1.38 0 0 0 1.64-.45l.53.5a1.89 1.89 0 0 1-.95.72c-.22.08-.48.12-.77.12Zm3.58-3.72v3.64h-1v-4.49h.96l.04.85Zm1.38-.88-.01.93a2.12 2.12 0 0 0-.41-.03c-.17 0-.32.02-.45.07a.85.85 0 0 0-.53.53c-.05.13-.07.27-.08.43l-.23.02c0-.28.03-.55.08-.79.06-.24.14-.45.25-.63.12-.19.26-.33.43-.43a1.14 1.14 0 0 1 .78-.14.9.9 0 0 1 .16.04Zm3 3.62v-2.14c0-.16-.03-.3-.08-.42a.61.61 0 0 0-.27-.27.91.91 0 0 0-.44-.1c-.16 0-.3.03-.42.1a.69.69 0 0 0-.28.22c-.07.09-.1.2-.1.31h-1c0-.17.05-.34.13-.51.09-.17.21-.31.38-.44.16-.13.35-.24.58-.31.23-.08.48-.11.77-.11.33 0 .63.05.9.17.25.11.46.28.61.51.15.23.23.51.23.86v2c0 .2.01.38.04.55.03.16.07.3.13.41v.07h-1.03a3.33 3.33 0 0 1-.15-.9Zm.15-1.83v.62h-.71c-.19 0-.35.02-.49.05-.14.04-.26.09-.35.15a.65.65 0 0 0-.28.56.59.59 0 0 0 .32.56 1.1 1.1 0 0 0 1.3-.35.69.69 0 0 0 .13-.36l.32.45a1.76 1.76 0 0 1-.48.74 1.57 1.57 0 0 1-1.08.4c-.29 0-.55-.06-.78-.18a1.4 1.4 0 0 1-.54-.48c-.13-.2-.2-.43-.2-.68 0-.24.05-.45.14-.63.09-.19.22-.34.4-.47.17-.12.39-.22.64-.28.26-.07.55-.1.88-.1h.78Zm3.96-1.76v.73h-2.53v-.73h2.53Zm-1.8-1.1h1v4.35c0 .14.02.24.06.32.04.07.1.12.17.14.07.03.16.04.25.04a1.6 1.6 0 0 0 .36-.04v.77a2.44 2.44 0 0 1-.66.1c-.23 0-.44-.05-.61-.13a.9.9 0 0 1-.42-.4c-.1-.19-.15-.43-.15-.74v-4.41Zm4.55 5.67a2.4 2.4 0 0 1-.9-.16 1.99 1.99 0 0 1-1.1-1.15c-.1-.27-.15-.55-.15-.86V179c0-.35.05-.67.15-.95.1-.29.24-.53.43-.73.18-.2.4-.36.65-.47.24-.11.51-.16.8-.16.33 0 .6.05.85.16.24.1.44.26.6.46.16.19.27.42.35.69.08.27.12.56.12.89v.42h-3.47v-.71h2.48v-.08c0-.18-.04-.35-.1-.51a.86.86 0 0 0-.3-.38.88.88 0 0 0-.53-.15.87.87 0 0 0-.76.41c-.09.14-.16.3-.2.49-.05.18-.07.39-.07.62v.17c0 .2.03.38.08.55.06.16.14.3.24.43.1.13.23.22.38.3.15.07.32.1.51.1a1.38 1.38 0 0 0 1.14-.56l.52.51a1.89 1.89 0 0 1-.95.72c-.22.08-.47.12-.77.12Z" fill="#2C446E"/><path d="M78.92 191.8v.84c0 .46-.04.84-.12 1.15a2 2 0 0 1-.35.75c-.15.19-.33.33-.55.41a2.07 2.07 0 0 1-1.3.05 1.38 1.38 0 0 1-.85-.72c-.1-.19-.18-.42-.23-.69a4.96 4.96 0 0 1-.08-.95v-.84c0-.45.04-.83.12-1.14.08-.3.2-.55.35-.73.15-.19.33-.32.55-.4.21-.08.45-.12.72-.12.21 0 .4.02.59.08a1.34 1.34 0 0 1 .84.69c.1.18.18.41.23.68.06.27.08.58.08.94Zm-.7.96v-1.08c0-.24-.02-.46-.05-.65a2.05 2.05 0 0 0-.12-.48.97.97 0 0 0-.22-.33.74.74 0 0 0-.29-.18c-.1-.04-.23-.06-.36-.06a.98.98 0 0 0-.45.1.8.8 0 0 0-.32.28c-.09.14-.16.31-.2.53-.05.22-.07.48-.07.8v1.07c0 .24.01.46.04.65.03.2.08.36.13.5.06.13.13.24.22.33.08.1.18.16.29.2.1.04.23.06.36.06.17 0 .32-.03.45-.1a.8.8 0 0 0 .33-.3c.08-.15.15-.33.2-.55.04-.22.06-.49.06-.8Zm2.3 1.65h.07c.4 0 .74-.05.99-.17.25-.11.45-.26.58-.46.14-.19.23-.4.28-.64.05-.25.08-.5.08-.75v-.85c0-.25-.03-.47-.09-.66-.05-.2-.13-.36-.23-.5-.1-.12-.21-.22-.34-.3a.84.84 0 0 0-.4-.1.94.94 0 0 0-.76.37c-.09.12-.15.26-.2.41a1.83 1.83 0 0 0 .18 1.4c.08.13.19.23.31.3.13.08.28.11.44.11.16 0 .3-.03.44-.09a1.24 1.24 0 0 0 .63-.62c.07-.14.1-.28.11-.43h.34a1.91 1.91 0 0 1-.98 1.58c-.2.1-.42.14-.65.14a1.43 1.43 0 0 1-1.2-.58 1.95 1.95 0 0 1-.28-.59 2.5 2.5 0 0 1 .01-1.4c.08-.24.19-.44.33-.61.14-.18.32-.32.53-.42.22-.1.47-.14.75-.14.31 0 .58.06.8.19.23.12.4.3.55.5.14.22.24.46.3.72.07.27.1.54.1.82v.25c0 .29-.01.58-.05.87-.04.3-.1.58-.21.84a2.04 2.04 0 0 1-1.2 1.22c-.32.13-.7.19-1.16.19h-.07v-.6Zm3.72.22c0-.12.03-.22.1-.3.08-.08.19-.13.33-.13s.25.05.32.13c.08.08.12.18.12.3s-.04.21-.12.3c-.07.07-.18.11-.32.11s-.25-.03-.33-.12a.42.42 0 0 1-.1-.3Zm0-3.35c0-.12.04-.22.1-.3.08-.08.2-.12.33-.12.15 0 .25.04.33.12.07.08.11.18.11.3s-.04.22-.11.3c-.08.08-.18.12-.33.12-.14 0-.25-.04-.32-.12a.42.42 0 0 1-.11-.3Zm5.3.52v.84c0 .46-.05.84-.13 1.15a2 2 0 0 1-.35.75c-.15.19-.33.33-.55.41a2.07 2.07 0 0 1-1.3.05 1.38 1.38 0 0 1-.85-.72c-.1-.19-.18-.42-.23-.69a4.97 4.97 0 0 1-.08-.95v-.84c0-.45.04-.83.12-1.14.08-.3.2-.55.35-.73.15-.19.33-.32.55-.4.21-.08.45-.12.72-.12.21 0 .4.02.59.08a1.34 1.34 0 0 1 .84.69c.1.18.18.41.23.68.06.27.08.58.08.94Zm-.71.96v-1.08c0-.24-.02-.46-.05-.65a2.05 2.05 0 0 0-.12-.48.96.96 0 0 0-.21-.33.74.74 0 0 0-.3-.18c-.1-.04-.23-.06-.36-.06a.98.98 0 0 0-.45.1.8.8 0 0 0-.32.28c-.09.14-.16.31-.2.53-.05.22-.07.48-.07.8v1.07c0 .24.02.46.04.65.03.2.08.36.14.5.05.13.12.24.2.33.1.1.19.16.3.2.1.04.23.06.36.06.18 0 .33-.03.45-.1a.8.8 0 0 0 .33-.3c.08-.15.15-.33.2-.55.04-.22.06-.49.06-.8Zm5.07-.96v.84c0 .46-.04.84-.12 1.15a2 2 0 0 1-.35.75c-.15.19-.34.33-.55.41a2.06 2.06 0 0 1-1.3.05 1.38 1.38 0 0 1-.86-.72c-.1-.19-.18-.42-.23-.69a4.96 4.96 0 0 1-.08-.95v-.84c0-.45.04-.83.12-1.14.09-.3.2-.55.36-.73.15-.19.33-.32.54-.4.22-.08.46-.12.72-.12.22 0 .41.02.6.08a1.34 1.34 0 0 1 .84.69c.1.18.18.41.23.68.05.27.08.58.08.94Zm-.7.96v-1.08c0-.24-.02-.46-.05-.65a2.06 2.06 0 0 0-.13-.48.97.97 0 0 0-.2-.33.74.74 0 0 0-.3-.18c-.11-.04-.23-.06-.37-.06a.98.98 0 0 0-.44.1.8.8 0 0 0-.33.28c-.08.14-.15.31-.2.53-.04.22-.06.48-.06.8v1.07c0 .24.01.46.04.65.03.2.07.36.13.5.06.13.13.24.21.33.09.1.18.16.3.2.1.04.23.06.36.06.17 0 .32-.03.45-.1a.8.8 0 0 0 .32-.3c.09-.15.16-.33.2-.55.04-.22.06-.49.06-.8Zm5.06-.4v.58h-1.85v-.57h1.85Zm4.84-2.9V195h-.7v-4.67l-1.42.51v-.63l2-.76h.12Zm5.52 2.34v.84c0 .46-.04.84-.12 1.15a2 2 0 0 1-.34.75c-.16.19-.34.33-.55.41a2.06 2.06 0 0 1-1.3.05 1.38 1.38 0 0 1-.86-.72c-.1-.19-.18-.42-.23-.69a4.97 4.97 0 0 1-.08-.95v-.84c0-.45.04-.83.12-1.14.08-.3.2-.55.35-.73.15-.19.33-.32.55-.4.21-.08.45-.12.72-.12.21 0 .4.02.59.08a1.34 1.34 0 0 1 .84.69c.1.18.18.41.23.68.06.27.08.58.08.94Zm-.7.96v-1.08c0-.24-.02-.46-.05-.65a2.05 2.05 0 0 0-.12-.48.97.97 0 0 0-.21-.33.75.75 0 0 0-.3-.18c-.1-.04-.23-.06-.36-.06a.98.98 0 0 0-.45.1.8.8 0 0 0-.32.28c-.09.14-.15.31-.2.53-.04.22-.07.48-.07.8v1.07c0 .24.02.46.05.65.03.2.07.36.13.5.06.13.13.24.2.33a.8.8 0 0 0 .3.2c.1.04.23.06.37.06.17 0 .32-.03.45-.1a.8.8 0 0 0 .32-.3c.09-.15.15-.33.2-.55.04-.22.06-.49.06-.8Zm1.65 1.87c0-.12.04-.22.11-.3.08-.08.19-.13.33-.13s.25.05.32.13c.08.08.11.18.11.3s-.03.21-.11.3c-.07.07-.18.11-.32.11s-.25-.03-.33-.12a.42.42 0 0 1-.1-.3Zm0-3.35c0-.12.04-.22.12-.3.07-.08.18-.12.32-.12s.25.04.32.12c.08.08.12.18.12.3s-.04.22-.12.3c-.07.08-.18.12-.32.12s-.25-.04-.33-.12a.42.42 0 0 1-.1-.3Zm5.3.52v.84c0 .46-.04.84-.12 1.15a2 2 0 0 1-.35.75c-.15.19-.34.33-.55.41a2.06 2.06 0 0 1-1.3.05 1.38 1.38 0 0 1-.86-.72c-.1-.19-.17-.42-.23-.69a4.97 4.97 0 0 1-.08-.95v-.84c0-.45.04-.83.12-1.14.09-.3.2-.55.36-.73.15-.19.33-.32.54-.4.22-.08.46-.12.72-.12.22 0 .41.02.6.08a1.34 1.34 0 0 1 .84.69c.1.18.18.41.23.68.05.27.08.58.08.94Zm-.7.96v-1.08a4.04 4.04 0 0 0-.18-1.13.95.95 0 0 0-.2-.33.74.74 0 0 0-.3-.18c-.1-.04-.23-.06-.37-.06a.99.99 0 0 0-.44.1.8.8 0 0 0-.33.28c-.08.14-.15.31-.2.53-.04.22-.06.48-.06.8v1.07c0 .24.01.46.04.65.03.2.07.36.13.5.06.13.13.24.21.33.09.1.18.16.3.2.1.04.23.06.36.06.17 0 .32-.03.45-.1a.8.8 0 0 0 .32-.3c.1-.15.16-.33.2-.55.04-.22.07-.49.07-.8Zm5.06-.96v.84c0 .46-.04.84-.12 1.15a2 2 0 0 1-.34.75c-.16.19-.34.33-.55.41a2.07 2.07 0 0 1-1.3.05 1.38 1.38 0 0 1-.5-.26 1.56 1.56 0 0 1-.36-.46c-.1-.19-.18-.42-.23-.69a4.97 4.97 0 0 1-.08-.95v-.84c0-.45.04-.83.12-1.14.08-.3.2-.55.35-.73.15-.19.34-.32.55-.4.21-.08.45-.12.72-.12.21 0 .41.02.59.08a1.33 1.33 0 0 1 .84.69c.1.18.18.41.23.68.06.27.08.58.08.94Zm-.7.96v-1.08c0-.24-.02-.46-.05-.65a2.1 2.1 0 0 0-.12-.48.97.97 0 0 0-.21-.33.74.74 0 0 0-.3-.18c-.1-.04-.22-.06-.36-.06a.98.98 0 0 0-.44.1.8.8 0 0 0-.33.28c-.09.14-.15.31-.2.53a3.9 3.9 0 0 0-.07.8v1.07c0 .24.02.46.05.65.03.2.07.36.13.5.06.13.13.24.21.33.08.1.18.16.29.2.1.04.23.06.37.06.17 0 .32-.03.45-.1a.81.81 0 0 0 .32-.3c.09-.15.15-.33.2-.55.04-.22.06-.49.06-.8Z" fill="#344C76"/><path fill-rule="evenodd" clip-rule="evenodd" d="M143.4 173h-7.5c-.7 0-1.26.56-1.26 1.25v7.5c0 .69.56 1.25 1.25 1.25h7.5c.7 0 1.25-.56 1.25-1.25v-7.5c0-.69-.56-1.25-1.25-1.25Zm-.66 1.3h-1.85a.6.6 0 0 0-.6.6v3.17c0 .34.27.6.6.6h1.85a.6.6 0 0 0 .6-.6v-3.17a.6.6 0 0 0-.6-.6Zm-6.2 0h1.85c.33 0 .6.27.6.6v5.67a.6.6 0 0 1-.6.6h-1.85a.6.6 0 0 1-.6-.6v-5.67c0-.33.27-.6.6-.6Z" fill="#4097DD"/><rect x="159" y="220" width="82" height="40" rx="2.34" fill="#BDE0F4"/><path d="M166.63 226.69h.93l1.74 4.66 1.75-4.66h.93l-2.31 6.04h-.74l-2.3-6.04Zm-.43 0h.89l.15 4.03v2h-1.04v-6.03Zm5.32 0h.88v6.04h-1.04v-2.01l.16-4.03Zm4.55 5.14v-2.15c0-.16-.03-.3-.08-.41a.62.62 0 0 0-.27-.27.92.92 0 0 0-.44-.1 1 1 0 0 0-.42.09.68.68 0 0 0-.28.22c-.07.1-.1.2-.1.32h-1c0-.18.05-.35.13-.51.09-.17.21-.32.38-.45.16-.13.35-.23.58-.3.23-.08.48-.12.77-.12.33 0 .63.06.9.17.25.12.46.29.61.52.15.23.23.51.23.85v2c0 .2.01.39.04.55.03.16.07.3.13.42v.07h-1.03a1.8 1.8 0 0 1-.1-.41 3.34 3.34 0 0 1-.05-.5Zm.15-1.83v.62h-.71c-.19 0-.35.01-.49.05a1 1 0 0 0-.35.15.66.66 0 0 0-.21.24.7.7 0 0 0-.08.32c0 .12.03.23.09.33.05.1.13.17.24.22.1.06.24.09.39.09a1.1 1.1 0 0 0 .9-.44.67.67 0 0 0 .14-.35l.32.44a1.8 1.8 0 0 1-.49.74 1.56 1.56 0 0 1-1.07.4c-.29 0-.55-.06-.78-.17a1.4 1.4 0 0 1-.54-.48c-.13-.2-.2-.43-.2-.69 0-.23.05-.44.14-.63.09-.18.22-.34.4-.46.17-.13.39-.22.64-.28.26-.07.55-.1.88-.1h.78Zm2.97-1.76v4.49h-1v-4.5h1Zm-1.07-1.18c0-.15.05-.28.15-.38.1-.1.25-.15.43-.15.17 0 .31.05.42.15.1.1.15.23.15.38a.5.5 0 0 1-.15.37c-.1.1-.25.15-.42.15a.59.59 0 0 1-.43-.15.51.51 0 0 1-.15-.37Zm3.24-.7v6.37h-1v-6.38h1Zm5.95 5.44v-5.45h1v6.38h-.9l-.1-.93Zm-2.92-1.27v-.09c0-.34.04-.65.12-.93.08-.28.2-.52.35-.72a1.53 1.53 0 0 1 1.3-.64 1.47 1.47 0 0 1 1.24.61c.14.2.25.43.34.7.08.27.14.57.18.9v.28c-.04.32-.1.61-.18.88-.09.26-.2.5-.35.69a1.5 1.5 0 0 1-1.24.6 1.57 1.57 0 0 1-1.29-.65c-.15-.2-.27-.44-.35-.72a3.3 3.3 0 0 1-.12-.9Zm1-.09v.1c0 .2.02.39.06.56.03.18.1.34.17.47.08.14.19.24.31.32.13.07.29.11.47.11.23 0 .41-.05.56-.15.15-.1.26-.23.34-.4.09-.17.15-.36.18-.57v-.75a1.83 1.83 0 0 0-.1-.46 1.22 1.22 0 0 0-.2-.37.85.85 0 0 0-.33-.25 1 1 0 0 0-.44-.1.89.89 0 0 0-.47.13.95.95 0 0 0-.31.31c-.08.14-.14.3-.18.48-.04.18-.06.37-.06.57Zm5.95 2.37a2.4 2.4 0 0 1-.9-.16 2 2 0 0 1-1.1-1.16c-.1-.26-.16-.55-.16-.85v-.17c0-.35.06-.67.16-.96.1-.28.24-.52.43-.72.18-.21.4-.37.64-.47.25-.11.52-.17.81-.17.32 0 .6.06.84.17.25.1.44.26.6.45.16.2.28.43.36.7.08.26.12.56.12.88v.43h-3.47v-.72h2.48v-.08c0-.18-.04-.34-.1-.5a.85.85 0 0 0-.3-.38.88.88 0 0 0-.53-.15.88.88 0 0 0-.76.41c-.1.13-.16.3-.2.48-.05.19-.07.4-.07.63v.17c0 .2.03.38.08.54.05.17.13.31.24.44.1.12.23.22.38.3a1.4 1.4 0 0 0 1.64-.45l.53.5a1.9 1.9 0 0 1-.95.72c-.22.08-.47.12-.77.12Zm5.1-1.3a.5.5 0 0 0-.07-.27.64.64 0 0 0-.3-.22 2.73 2.73 0 0 0-.6-.19 5.34 5.34 0 0 1-.66-.18c-.2-.08-.37-.17-.5-.27a1.04 1.04 0 0 1-.44-.87c-.01-.19.03-.36.1-.52.09-.17.2-.3.35-.43.15-.13.33-.23.55-.3.21-.07.45-.1.72-.1.38 0 .7.06.97.19.27.12.47.29.62.5.14.22.21.46.21.73h-1a.64.64 0 0 0-.09-.34.64.64 0 0 0-.26-.25.91.91 0 0 0-.45-.1.97.97 0 0 0-.43.09.59.59 0 0 0-.25.2.54.54 0 0 0-.03.49c.03.06.08.11.14.16.07.05.17.1.29.13l.45.12c.35.08.64.17.89.28.25.11.44.26.57.43.13.18.2.4.2.67a1.18 1.18 0 0 1-.5.97c-.16.12-.35.22-.57.28-.22.07-.47.1-.75.1-.4 0-.75-.07-1.03-.22-.28-.14-.5-.33-.64-.56a1.32 1.32 0 0 1-.22-.7h.97c0 .18.06.32.15.43.1.11.21.2.35.24a1.37 1.37 0 0 0 .89 0 .65.65 0 0 0 .27-.2c.07-.08.1-.18.1-.29Zm2.93-3.27v4.49h-1v-4.5h1Zm-1.08-1.18c0-.15.06-.28.15-.38.1-.1.25-.15.43-.15.17 0 .31.05.42.15.1.1.15.23.15.38a.5.5 0 0 1-.15.37c-.1.1-.25.15-.42.15a.59.59 0 0 1-.43-.15.51.51 0 0 1-.15-.37Zm5.05 1.18h.9v4.36c0 .4-.08.75-.25 1.03-.17.28-.41.5-.72.65a2.41 2.41 0 0 1-1.64.15c-.2-.06-.4-.14-.6-.25a1.5 1.5 0 0 1-.49-.42l.47-.6c.16.2.34.34.53.43a1.46 1.46 0 0 0 1.2 0c.16-.08.28-.2.37-.37.1-.16.14-.36.14-.6v-3.37l.09-1.01Zm-3.05 2.3v-.1c0-.34.04-.65.12-.93.09-.28.2-.52.36-.72.15-.2.34-.36.56-.47.22-.11.47-.17.75-.17.3 0 .54.06.75.16.2.1.38.26.52.45.13.2.24.43.32.7.08.27.14.57.18.9v.28c-.04.32-.1.61-.18.88-.09.26-.2.5-.34.69a1.45 1.45 0 0 1-1.25.6 1.6 1.6 0 0 1-1.31-.65c-.16-.2-.28-.44-.36-.72a3.19 3.19 0 0 1-.12-.9Zm1-.1v.1c0 .2.02.39.06.56.04.18.1.34.18.47.09.14.2.24.33.32.13.07.28.11.46.11.24 0 .43-.05.58-.15.15-.1.27-.23.35-.4.08-.17.14-.36.18-.57v-.75a1.83 1.83 0 0 0-.1-.46 1.24 1.24 0 0 0-.21-.37.85.85 0 0 0-.33-.25c-.13-.06-.28-.1-.46-.1a.92.92 0 0 0-.47.13.96.96 0 0 0-.32.31c-.09.14-.15.3-.19.48-.04.18-.06.37-.06.57Zm4.99-1.24v3.53h-1v-4.5h.94l.06.97Zm-.18 1.12h-.33c0-.33.05-.62.14-.88.09-.27.2-.5.36-.69a1.62 1.62 0 0 1 1.3-.6c.21 0 .4.03.58.1.18.05.33.15.45.28.13.13.23.3.3.52.06.21.1.47.1.78v2.9h-1.01v-2.9c0-.22-.03-.4-.1-.52a.53.53 0 0 0-.26-.27 1.02 1.02 0 0 0-.44-.08.96.96 0 0 0-.8.4c-.1.13-.17.27-.22.43-.05.17-.07.34-.07.53Z" fill="#2C446E"/><path d="M168.76 239.45V245h-.7v-4.67l-1.41.51v-.63l2-.76h.11Zm5.53 2.35v.84c0 .46-.04.84-.12 1.15a2 2 0 0 1-.35.75c-.15.19-.34.33-.55.41a2.06 2.06 0 0 1-1.3.05 1.38 1.38 0 0 1-.86-.72c-.1-.19-.18-.42-.23-.69a4.97 4.97 0 0 1-.08-.95v-.84c0-.45.04-.83.12-1.14.09-.3.2-.55.36-.73.15-.19.33-.32.54-.4.22-.08.46-.12.72-.12.22 0 .41.02.6.08a1.34 1.34 0 0 1 .84.69c.1.18.18.41.23.68.05.27.08.58.08.94Zm-.7.96v-1.08a4.04 4.04 0 0 0-.18-1.13.95.95 0 0 0-.21-.33.74.74 0 0 0-.3-.18c-.1-.04-.22-.06-.36-.06a.99.99 0 0 0-.44.1.8.8 0 0 0-.33.28 1.6 1.6 0 0 0-.2.53c-.04.22-.06.48-.06.8v1.07c0 .24.01.46.04.65.03.2.07.36.13.5.06.13.13.24.21.33.09.1.18.16.3.2.1.04.22.06.36.06.17 0 .32-.03.45-.1a.8.8 0 0 0 .32-.3c.09-.15.16-.33.2-.55.04-.22.06-.49.06-.8Zm1.65 1.87c0-.12.03-.22.1-.3.08-.08.19-.13.33-.13s.25.05.32.13c.08.08.12.18.12.3s-.04.21-.12.3c-.07.07-.18.11-.32.11s-.25-.03-.32-.12a.42.42 0 0 1-.11-.3Zm0-3.35c0-.12.03-.22.1-.3.09-.08.2-.12.34-.12s.24.04.32.12c.07.08.11.18.11.3s-.04.22-.11.3c-.08.08-.18.12-.32.12-.15 0-.25-.04-.33-.12a.42.42 0 0 1-.11-.3Zm5.3.52v.84c0 .46-.05.84-.13 1.15a2 2 0 0 1-.35.75c-.15.19-.33.33-.55.41a2.06 2.06 0 0 1-1.3.05 1.38 1.38 0 0 1-.85-.72c-.1-.19-.18-.42-.23-.69a4.97 4.97 0 0 1-.08-.95v-.84c0-.45.04-.83.12-1.14.08-.3.2-.55.35-.73.15-.19.33-.32.55-.4.21-.08.45-.12.72-.12.21 0 .4.02.59.08a1.33 1.33 0 0 1 .84.69c.1.18.18.41.23.68.06.27.08.58.08.94Zm-.71.96v-1.08a4.04 4.04 0 0 0-.17-1.13.95.95 0 0 0-.22-.33.73.73 0 0 0-.29-.18c-.1-.04-.23-.06-.36-.06a.99.99 0 0 0-.45.1.8.8 0 0 0-.32.28c-.09.14-.16.31-.2.53-.05.22-.07.48-.07.8v1.07c0 .24.01.46.04.65.03.2.08.36.14.5.05.13.12.24.2.33.1.1.19.16.3.2.1.04.23.06.36.06.18 0 .33-.03.45-.1a.8.8 0 0 0 .33-.3c.09-.15.15-.33.2-.55.04-.22.06-.49.06-.8Zm5.07-.96v.84c0 .46-.04.84-.12 1.15a2 2 0 0 1-.35.75c-.15.19-.34.33-.55.41a2.06 2.06 0 0 1-1.3.05 1.38 1.38 0 0 1-.86-.72c-.1-.19-.18-.42-.23-.69a4.97 4.97 0 0 1-.08-.95v-.84c0-.45.04-.83.12-1.14.09-.3.2-.55.36-.73.15-.19.33-.32.54-.4.22-.08.46-.12.72-.12.22 0 .41.02.6.08a1.35 1.35 0 0 1 .84.69c.1.18.18.41.23.68.05.27.08.58.08.94Zm-.7.96v-1.08c0-.24-.02-.46-.05-.65a2.05 2.05 0 0 0-.13-.48.97.97 0 0 0-.2-.33.75.75 0 0 0-.3-.18c-.11-.04-.23-.06-.37-.06a.98.98 0 0 0-.44.1.8.8 0 0 0-.33.28c-.08.14-.15.31-.2.53-.04.22-.06.48-.06.8v1.07c0 .24.01.46.04.65.03.2.07.36.13.5.06.13.13.24.21.33a.8.8 0 0 0 .3.2c.1.04.22.06.36.06.17 0 .32-.03.45-.1a.8.8 0 0 0 .32-.3c.09-.15.16-.33.2-.55.04-.22.06-.49.06-.8Zm5.06-.4v.58h-1.85v-.57h1.85Zm4.84-2.9V245h-.7v-4.67l-1.41.51v-.63l2-.76h.1Zm4.37 0V245h-.7v-4.67l-1.42.51v-.63l2-.76h.12Zm2.1 5.17c0-.12.04-.22.11-.3.08-.08.19-.13.33-.13s.25.05.32.13.11.18.11.3-.03.21-.11.3c-.07.07-.18.11-.32.11s-.25-.03-.33-.12a.42.42 0 0 1-.1-.3Zm0-3.35c0-.12.04-.22.12-.3.07-.08.18-.12.32-.12s.25.04.32.12c.08.08.12.18.12.3s-.04.22-.12.3c-.07.08-.18.12-.32.12s-.25-.04-.32-.12a.42.42 0 0 1-.11-.3Zm5.3.52v.84c0 .46-.04.84-.12 1.15a2 2 0 0 1-.35.75c-.15.19-.34.33-.55.41a2.06 2.06 0 0 1-1.3.05 1.38 1.38 0 0 1-.86-.72c-.1-.19-.17-.42-.23-.69a4.97 4.97 0 0 1-.08-.95v-.84c0-.45.04-.83.12-1.14.09-.3.2-.55.36-.73.15-.19.33-.32.54-.4.22-.08.46-.12.72-.12.22 0 .41.02.6.08a1.34 1.34 0 0 1 .84.69c.1.18.18.41.23.68.05.27.08.58.08.94Zm-.7.96v-1.08a4.04 4.04 0 0 0-.18-1.13.95.95 0 0 0-.2-.33.74.74 0 0 0-.3-.18c-.1-.04-.23-.06-.37-.06a.99.99 0 0 0-.44.1.8.8 0 0 0-.33.28c-.08.14-.15.31-.2.53-.04.22-.06.48-.06.8v1.07c0 .24.01.46.04.65.03.2.07.36.13.5.06.13.13.24.22.33.08.1.17.16.28.2.11.04.24.06.37.06.17 0 .32-.03.45-.1a.8.8 0 0 0 .32-.3c.1-.15.16-.33.2-.55.04-.22.06-.49.06-.8Zm5.07-.96v.84c0 .46-.05.84-.13 1.15a2 2 0 0 1-.35.75c-.15.19-.33.33-.54.41a2.07 2.07 0 0 1-1.3.05 1.38 1.38 0 0 1-.5-.26 1.56 1.56 0 0 1-.36-.46c-.1-.19-.18-.42-.23-.69a4.97 4.97 0 0 1-.08-.95v-.84c0-.45.04-.83.12-1.14.08-.3.2-.55.35-.73.15-.19.34-.32.55-.4.21-.08.45-.12.72-.12.21 0 .41.02.59.08a1.33 1.33 0 0 1 .84.69c.1.18.18.41.24.68.05.27.08.58.08.94Zm-.71.96v-1.08c0-.24-.02-.46-.04-.65a2.1 2.1 0 0 0-.13-.48.97.97 0 0 0-.21-.33.74.74 0 0 0-.3-.18c-.1-.04-.22-.06-.36-.06a.98.98 0 0 0-.45.1.8.8 0 0 0-.32.28c-.09.14-.15.31-.2.53a3.9 3.9 0 0 0-.07.8v1.07c0 .24.02.46.05.65.03.2.07.36.13.5.06.13.13.24.21.33.08.1.18.16.29.2.1.04.23.06.37.06.17 0 .32-.03.45-.1a.81.81 0 0 0 .32-.3c.09-.15.15-.33.2-.55.04-.22.06-.49.06-.8Z" fill="#344C76"/><path fill-rule="evenodd" clip-rule="evenodd" d="M234.4 225h-7.5c-.7 0-1.26.56-1.26 1.25v7.5c0 .69.56 1.25 1.25 1.25h7.5c.7 0 1.25-.56 1.25-1.25v-7.5c0-.69-.56-1.25-1.25-1.25Zm-.66 1.3h-1.85a.6.6 0 0 0-.6.6v3.17c0 .34.27.6.6.6h1.85a.6.6 0 0 0 .6-.6v-3.17a.6.6 0 0 0-.6-.6Zm-6.2 0h1.85c.33 0 .6.27.6.6v5.67a.6.6 0 0 1-.6.6h-1.85a.6.6 0 0 1-.6-.6v-5.67c0-.33.27-.6.6-.6Z" fill="#4097DD"/><rect x="250" y="168" width="82" height="40" rx="2.34" fill="#BDE0F4"/><path d="M260.77 179.3h1.04c-.03.39-.14.74-.33 1.05-.19.3-.45.55-.8.73-.33.17-.75.26-1.24.26a2.2 2.2 0 0 1-1.78-.77 2.6 2.6 0 0 1-.48-.9 3.94 3.94 0 0 1-.17-1.18v-.5c0-.44.06-.83.17-1.18.12-.35.29-.65.5-.9.22-.25.48-.44.78-.58.3-.13.64-.2 1.02-.2.48 0 .9.1 1.22.27.34.18.6.42.78.73.18.32.3.68.33 1.08h-1.03a1.93 1.93 0 0 0-.18-.67.94.94 0 0 0-.41-.42c-.18-.1-.42-.15-.7-.15-.25 0-.45.04-.63.13s-.32.22-.44.4c-.12.16-.21.38-.27.63-.06.25-.1.53-.1.85v.51c0 .3.03.58.09.83.05.25.14.46.25.64.11.17.25.31.43.4.17.1.38.15.63.15.3 0 .53-.04.71-.14.19-.1.33-.23.42-.4.1-.2.16-.41.2-.68Zm1.7-.24v-.1c0-.31.04-.62.14-.9.1-.27.23-.51.4-.72.18-.2.4-.37.66-.48.26-.12.55-.17.88-.17.33 0 .62.06.88.17.26.11.48.27.66.48.18.2.32.45.41.73.1.28.14.58.14.9v.1c0 .32-.04.62-.14.9-.1.27-.23.51-.41.72a1.9 1.9 0 0 1-1.53.65 1.9 1.9 0 0 1-1.54-.65c-.18-.2-.32-.45-.41-.72-.1-.28-.14-.58-.14-.9Zm1-.1v.1c0 .2.02.4.06.58.04.18.1.34.2.47.08.14.2.24.33.32.14.08.3.12.5.12a.95.95 0 0 0 .82-.44c.09-.14.15-.3.2-.47.04-.18.06-.37.06-.57v-.1c0-.2-.02-.39-.06-.56-.05-.19-.11-.34-.2-.48a.95.95 0 0 0-.83-.45.96.96 0 0 0-.83.45c-.08.14-.15.3-.2.47a2.5 2.5 0 0 0-.05.57Zm5-1.23v3.53h-1v-4.49h.94l.06.96Zm-.18 1.12h-.32c0-.32.05-.61.13-.88.1-.27.21-.5.37-.69a1.62 1.62 0 0 1 1.3-.6c.2 0 .4.04.58.1.17.06.33.15.45.28.13.14.22.31.3.52.06.21.1.47.1.78v2.9h-1.01v-2.9c0-.22-.04-.4-.1-.52a.53.53 0 0 0-.27-.27 1 1 0 0 0-.44-.08.96.96 0 0 0-.8.4 1.77 1.77 0 0 0-.29.95Zm5.98-2.08v.73h-2.53v-.73h2.53Zm-1.8-1.1h1v4.35c0 .14.02.24.06.32.04.07.1.12.17.14.07.03.15.04.25.04a1.59 1.59 0 0 0 .35-.04v.77a2.46 2.46 0 0 1-.66.1c-.23 0-.43-.05-.6-.13a.9.9 0 0 1-.42-.4c-.1-.19-.15-.43-.15-.74v-4.41Zm5.1 4.69v-2.14c0-.16-.02-.3-.08-.42a.61.61 0 0 0-.27-.27.91.91 0 0 0-.44-.1c-.16 0-.3.03-.42.1a.68.68 0 0 0-.28.22c-.07.09-.1.2-.1.31h-1c0-.17.05-.34.13-.51.09-.17.21-.31.38-.44.16-.13.36-.24.58-.31.23-.08.48-.11.76-.11.34 0 .64.05.9.17.26.11.47.28.62.51.15.23.23.51.23.86v2c0 .2.01.38.04.55.03.16.07.3.13.41v.07h-1.03a3.33 3.33 0 0 1-.15-.9Zm.15-1.83v.62h-.71c-.19 0-.35.02-.49.05-.14.04-.26.09-.35.15a.65.65 0 0 0-.29.56c0 .12.03.23.09.33.05.1.13.17.24.23a1.1 1.1 0 0 0 1.3-.35.69.69 0 0 0 .13-.36l.32.45a1.76 1.76 0 0 1-.49.74 1.59 1.59 0 0 1-1.07.4c-.29 0-.55-.06-.78-.18a1.4 1.4 0 0 1-.54-.48c-.13-.2-.2-.43-.2-.68 0-.24.05-.45.14-.63.09-.19.22-.34.4-.47.17-.12.39-.22.64-.28.26-.07.55-.1.88-.1h.78Zm3.74 2.02c.16 0 .3-.04.44-.1a.84.84 0 0 0 .32-.27.74.74 0 0 0 .13-.4h.95c0 .28-.1.55-.26.79-.17.24-.39.43-.66.57a2 2 0 0 1-.9.2c-.35 0-.65-.06-.9-.17a1.77 1.77 0 0 1-.64-.5c-.17-.2-.3-.44-.38-.7a2.96 2.96 0 0 1-.13-.88v-.15c0-.3.05-.6.13-.87s.21-.51.38-.72c.17-.2.38-.37.63-.48.26-.12.56-.18.9-.18a2 2 0 0 1 .94.21 1.69 1.69 0 0 1 .88 1.47h-.94a1 1 0 0 0-.12-.44.82.82 0 0 0-.3-.33.88.88 0 0 0-.48-.12c-.2 0-.37.05-.5.13a.84.84 0 0 0-.3.33c-.08.14-.14.3-.17.47a3.1 3.1 0 0 0-.05.53v.15c0 .19.02.37.05.54.03.17.08.33.16.47.07.13.18.24.31.33.13.08.3.12.5.12Zm4.66-3.78v.73h-2.53v-.73h2.53Zm-1.8-1.1h1v4.35c0 .14.02.24.06.32.04.07.1.12.17.14.07.03.16.04.25.04a1.6 1.6 0 0 0 .36-.04v.77a2.44 2.44 0 0 1-.66.1c-.23 0-.44-.05-.61-.13a.9.9 0 0 1-.42-.4c-.1-.19-.15-.43-.15-.74v-4.41Zm5.7 1.96V183h-1v-6.22h.92l.08.86Zm2.92 1.34v.1c0 .32-.04.62-.11.9-.08.28-.19.52-.34.73a1.54 1.54 0 0 1-1.29.64c-.28 0-.52-.05-.74-.15a1.5 1.5 0 0 1-.52-.44c-.15-.2-.26-.42-.35-.68a4.3 4.3 0 0 1-.18-.85v-.34c.03-.33.1-.63.18-.9.09-.26.2-.5.35-.69.14-.2.32-.34.52-.45.21-.1.46-.15.73-.15a1.51 1.51 0 0 1 1.3.63c.15.2.27.44.34.72.08.28.11.59.11.93Zm-1 .1v-.1c0-.2-.02-.4-.06-.57-.03-.18-.1-.34-.18-.48a.87.87 0 0 0-.78-.43c-.18 0-.33.03-.46.1a.88.88 0 0 0-.31.24c-.09.1-.16.23-.2.37-.05.14-.08.29-.1.45v.8c.03.2.09.39.17.55.08.17.2.3.34.4.15.1.34.15.57.15.18 0 .33-.04.46-.12a.9.9 0 0 0 .31-.32c.09-.14.15-.3.19-.48.03-.18.05-.37.05-.57Zm4.39 1.29v-2.14c0-.16-.03-.3-.1-.42a.62.62 0 0 0-.26-.27.92.92 0 0 0-.44-.1c-.16 0-.3.03-.42.1a.68.68 0 0 0-.28.22c-.06.09-.1.2-.1.31h-1c0-.17.05-.34.13-.51.09-.17.21-.31.38-.44.16-.13.36-.24.58-.31.23-.08.49-.11.77-.11.33 0 .63.05.9.17.26.11.46.28.61.51.15.23.23.51.23.86v2c0 .2.01.38.04.55.03.16.07.3.13.41v.07h-1.02a1.8 1.8 0 0 1-.12-.41 3.33 3.33 0 0 1-.03-.49Zm.14-1.83v.62h-.7a2 2 0 0 0-.5.05 1 1 0 0 0-.35.15.65.65 0 0 0-.28.56.6.6 0 0 0 .32.56 1.1 1.1 0 0 0 1.3-.35.67.67 0 0 0 .13-.36l.33.45-.17.36a1.58 1.58 0 0 1-1.4.77c-.29 0-.55-.05-.78-.17a1.4 1.4 0 0 1-.54-.48c-.13-.2-.2-.43-.2-.68 0-.24.05-.45.14-.63.09-.19.22-.34.4-.47.18-.12.39-.22.64-.28.26-.07.55-.1.88-.1h.78Zm4.78-1.76h.91v4.37c0 .4-.09.74-.26 1.03-.17.28-.4.5-.71.64a2.4 2.4 0 0 1-1.64.15c-.21-.05-.41-.13-.61-.24a1.5 1.5 0 0 1-.49-.43l.47-.59a1.44 1.44 0 0 0 1.73.42c.16-.08.29-.2.38-.37.09-.16.13-.36.13-.6v-3.36l.1-1.02Zm-3.05 2.3v-.1c0-.33.04-.64.13-.92.08-.28.2-.53.35-.73a1.65 1.65 0 0 1 1.32-.63c.29 0 .54.05.74.15.2.1.38.26.52.46.14.19.25.42.32.7.08.26.14.56.18.89v.28c-.03.32-.1.61-.18.88-.09.26-.2.5-.34.69a1.46 1.46 0 0 1-1.25.6 1.6 1.6 0 0 1-1.3-.64c-.16-.2-.28-.45-.36-.73a3.19 3.19 0 0 1-.13-.9Zm1-.1v.1c0 .2.02.39.06.57.04.18.1.33.19.47.08.13.19.23.32.31.13.08.29.11.47.11.24 0 .43-.05.58-.15.15-.1.26-.23.35-.4.08-.17.14-.36.17-.57v-.75a1.85 1.85 0 0 0-.1-.46 1.22 1.22 0 0 0-.2-.37.84.84 0 0 0-.33-.25c-.13-.06-.28-.09-.46-.09a.9.9 0 0 0-.8.44c-.08.13-.14.3-.19.47-.04.18-.06.37-.06.58Zm5.98 2.37c-.33 0-.63-.05-.9-.16a1.98 1.98 0 0 1-1.11-1.15c-.1-.27-.15-.55-.15-.86V179c0-.35.05-.67.15-.95.1-.29.25-.53.43-.73.18-.2.4-.36.65-.47.25-.11.52-.16.8-.16.33 0 .61.05.85.16.24.1.44.26.6.46.16.19.28.42.36.69.07.27.12.56.12.89v.42h-3.47v-.71h2.48v-.08c0-.18-.04-.35-.11-.51a.86.86 0 0 0-.3-.38.88.88 0 0 0-.53-.15.88.88 0 0 0-.76.41c-.09.14-.15.3-.2.49-.04.18-.06.39-.06.62v.17c0 .2.02.38.07.55.06.16.14.3.24.43.1.13.24.22.39.3.14.07.32.1.5.1a1.38 1.38 0 0 0 1.14-.56l.53.51a1.88 1.88 0 0 1-.95.72c-.22.08-.48.12-.77.12Z" fill="#2C446E"/><path d="M260.92 191.8v.84c0 .46-.04.84-.12 1.15a2 2 0 0 1-.35.75c-.15.19-.33.33-.55.41a2.07 2.07 0 0 1-1.3.05 1.38 1.38 0 0 1-.49-.26 1.54 1.54 0 0 1-.36-.46c-.1-.19-.18-.42-.24-.69a4.97 4.97 0 0 1-.07-.95v-.84c0-.45.04-.83.12-1.14.08-.3.2-.55.35-.73.15-.19.33-.32.54-.4.22-.08.46-.12.73-.12.21 0 .4.02.59.08a1.33 1.33 0 0 1 .84.69c.1.18.18.41.23.68.06.27.08.58.08.94Zm-.7.96v-1.08c0-.24-.02-.46-.05-.65a2.1 2.1 0 0 0-.12-.48.98.98 0 0 0-.22-.33.75.75 0 0 0-.29-.18c-.1-.04-.23-.06-.37-.06a.98.98 0 0 0-.44.1.8.8 0 0 0-.32.28c-.09.14-.16.31-.2.53a3.9 3.9 0 0 0-.07.8v1.07c0 .24.01.46.04.65.03.2.08.36.13.5.06.13.13.24.22.33a.8.8 0 0 0 .29.2c.1.04.23.06.36.06.18 0 .32-.03.45-.1a.8.8 0 0 0 .33-.3c.08-.15.15-.33.2-.55.04-.22.06-.49.06-.8Zm2.3 1.65h.07c.4 0 .74-.05.99-.17.25-.11.45-.26.58-.46.14-.19.23-.4.28-.64.05-.25.08-.5.08-.75v-.85c0-.25-.03-.47-.09-.66-.05-.2-.13-.36-.23-.5-.1-.12-.21-.22-.34-.3a.94.94 0 0 0-1.16.27c-.09.12-.15.26-.2.41a1.85 1.85 0 0 0 .18 1.4c.08.13.19.23.31.3.13.08.27.11.44.11.16 0 .3-.03.44-.09a1.24 1.24 0 0 0 .63-.62c.06-.14.1-.28.11-.43h.34a1.92 1.92 0 0 1-.47 1.17c-.15.17-.32.3-.52.4a1.5 1.5 0 0 1-1.35-.01c-.2-.1-.36-.24-.49-.42a1.95 1.95 0 0 1-.29-.59 2.52 2.52 0 0 1 .02-1.4c.08-.24.19-.44.33-.61.14-.18.32-.32.53-.42.22-.1.47-.14.75-.14.31 0 .58.06.8.19.23.12.4.3.55.5.14.22.24.46.3.72.07.27.1.54.1.82v.25c0 .29-.01.58-.05.87-.04.3-.1.58-.21.84a2.03 2.03 0 0 1-1.2 1.22c-.31.13-.7.19-1.16.19h-.07v-.6Zm3.72.22c0-.12.03-.22.1-.3.08-.08.19-.13.33-.13s.25.05.32.13c.08.08.12.18.12.3s-.04.21-.12.3c-.07.07-.18.11-.32.11s-.25-.03-.32-.12a.42.42 0 0 1-.12-.3Zm0-3.35c0-.12.03-.22.1-.3.09-.08.2-.12.34-.12s.24.04.32.12c.07.08.11.18.11.3s-.04.22-.11.3c-.08.08-.18.12-.32.12-.15 0-.25-.04-.33-.12a.42.42 0 0 1-.11-.3Zm5.3.52v.84c0 .46-.05.84-.13 1.15a2 2 0 0 1-.35.75c-.15.19-.33.33-.55.41a2.06 2.06 0 0 1-1.3.05 1.38 1.38 0 0 1-.85-.72c-.1-.19-.18-.42-.23-.69a4.97 4.97 0 0 1-.08-.95v-.84c0-.45.04-.83.12-1.14.08-.3.2-.55.35-.73.15-.19.33-.32.55-.4.21-.08.45-.12.72-.12.21 0 .4.02.59.08a1.33 1.33 0 0 1 .84.69c.1.18.18.41.23.68.06.27.08.58.08.94Zm-.71.96v-1.08a4.04 4.04 0 0 0-.17-1.13.95.95 0 0 0-.22-.33.73.73 0 0 0-.29-.18c-.1-.04-.23-.06-.36-.06a.99.99 0 0 0-.45.1.8.8 0 0 0-.32.28c-.09.14-.15.31-.2.53-.05.22-.07.48-.07.8v1.07c0 .24.01.46.04.65.03.2.08.36.14.5.05.13.12.24.2.33.1.1.19.16.3.2.1.04.23.06.36.06.17 0 .33-.03.45-.1a.8.8 0 0 0 .33-.3c.08-.15.15-.33.2-.55.04-.22.06-.49.06-.8Zm5.07-.96v.84c0 .46-.04.84-.12 1.15a2 2 0 0 1-.35.75c-.15.19-.34.33-.55.41a2.06 2.06 0 0 1-1.3.05 1.38 1.38 0 0 1-.86-.72c-.1-.19-.18-.42-.23-.69a4.97 4.97 0 0 1-.08-.95v-.84c0-.45.04-.83.12-1.14.09-.3.2-.55.36-.73.15-.19.33-.32.54-.4.22-.08.46-.12.72-.12.22 0 .41.02.6.08a1.35 1.35 0 0 1 .84.69c.1.18.18.41.23.68.05.27.08.58.08.94Zm-.7.96v-1.08c0-.24-.02-.46-.05-.65a2.05 2.05 0 0 0-.13-.48.97.97 0 0 0-.2-.33.75.75 0 0 0-.3-.18c-.11-.04-.23-.06-.37-.06a.98.98 0 0 0-.44.1.8.8 0 0 0-.33.28c-.08.14-.15.31-.2.53-.04.22-.06.48-.06.8v1.07c0 .24.01.46.04.65.03.2.07.36.13.5.06.13.13.24.21.33a.8.8 0 0 0 .3.2c.1.04.22.06.36.06.17 0 .32-.03.45-.1a.8.8 0 0 0 .32-.3c.09-.15.16-.33.2-.55.04-.22.06-.49.06-.8Zm5.06-.4v.58h-1.85v-.57h1.85Zm4.84-2.9V195h-.7v-4.67l-1.41.51v-.63l2-.76h.1Zm5.52 2.34v.84c0 .46-.04.84-.12 1.15a2 2 0 0 1-.35.75c-.15.19-.33.33-.54.41a2.06 2.06 0 0 1-1.3.05 1.38 1.38 0 0 1-.86-.72c-.1-.19-.18-.42-.23-.69a4.97 4.97 0 0 1-.08-.95v-.84c0-.45.04-.83.12-1.14.08-.3.2-.55.35-.73.15-.19.33-.32.55-.4.21-.08.45-.12.72-.12.21 0 .4.02.59.08a1.34 1.34 0 0 1 .84.69c.1.18.18.41.24.68.05.27.07.58.07.94Zm-.7.96v-1.08c0-.24-.02-.46-.05-.65a2.05 2.05 0 0 0-.12-.48.97.97 0 0 0-.21-.33.75.75 0 0 0-.3-.18c-.1-.04-.23-.06-.36-.06a.98.98 0 0 0-.45.1.8.8 0 0 0-.32.28c-.09.14-.15.31-.2.53-.04.22-.07.48-.07.8v1.07c0 .24.02.46.05.65.03.2.07.36.13.5.06.13.13.24.2.33a.8.8 0 0 0 .3.2c.1.04.23.06.37.06.17 0 .32-.03.45-.1a.8.8 0 0 0 .32-.3c.09-.15.15-.33.2-.55.04-.22.06-.49.06-.8Zm1.65 1.87c0-.12.04-.22.11-.3.08-.08.19-.13.33-.13s.25.05.32.13.11.18.11.3-.04.21-.11.3c-.07.07-.18.11-.32.11s-.25-.03-.33-.12a.42.42 0 0 1-.1-.3Zm0-3.35c0-.12.04-.22.12-.3.07-.08.18-.12.32-.12s.25.04.32.12c.08.08.12.18.12.3s-.04.22-.12.3c-.07.08-.18.12-.32.12s-.25-.04-.32-.12a.42.42 0 0 1-.11-.3Zm5.3.52v.84c0 .46-.04.84-.12 1.15a2 2 0 0 1-.35.75c-.15.19-.33.33-.55.41a2.06 2.06 0 0 1-1.3.05 1.38 1.38 0 0 1-.86-.72c-.1-.19-.17-.42-.23-.69a4.97 4.97 0 0 1-.08-.95v-.84c0-.45.04-.83.12-1.14.09-.3.2-.55.36-.73.15-.19.33-.32.54-.4.22-.08.46-.12.72-.12.22 0 .41.02.6.08a1.34 1.34 0 0 1 .84.69c.1.18.18.41.23.68.05.27.08.58.08.94Zm-.7.96v-1.08a4.04 4.04 0 0 0-.18-1.13.95.95 0 0 0-.2-.33.74.74 0 0 0-.3-.18c-.1-.04-.23-.06-.37-.06a.99.99 0 0 0-.44.1.8.8 0 0 0-.33.28c-.08.14-.15.31-.2.53-.04.22-.06.48-.06.8v1.07c0 .24.01.46.04.65.03.2.07.36.13.5.06.13.13.24.22.33.08.1.17.16.28.2.11.04.24.06.37.06.17 0 .32-.03.45-.1a.8.8 0 0 0 .32-.3c.1-.15.16-.33.2-.55.04-.22.06-.49.06-.8Zm5.06-.96v.84c0 .46-.04.84-.12 1.15a2 2 0 0 1-.35.75c-.15.19-.33.33-.54.41a2.07 2.07 0 0 1-1.3.05 1.38 1.38 0 0 1-.5-.26 1.56 1.56 0 0 1-.36-.46c-.1-.19-.18-.42-.23-.69a4.97 4.97 0 0 1-.08-.95v-.84c0-.45.04-.83.12-1.14.08-.3.2-.55.35-.73.15-.19.34-.32.55-.4.21-.08.45-.12.72-.12.21 0 .41.02.59.08a1.33 1.33 0 0 1 .84.69c.1.18.18.41.23.68.06.27.09.58.09.94Zm-.7.96v-1.08c0-.24-.01-.46-.04-.65a2.1 2.1 0 0 0-.13-.48.97.97 0 0 0-.21-.33.74.74 0 0 0-.3-.18c-.1-.04-.23-.06-.36-.06a.98.98 0 0 0-.44.1.8.8 0 0 0-.33.28c-.09.14-.15.31-.2.53a3.9 3.9 0 0 0-.07.8v1.07c0 .24.02.46.05.65.03.2.07.36.13.5.06.13.13.24.21.33.08.1.18.16.29.2.1.04.23.06.37.06.17 0 .32-.03.45-.1a.81.81 0 0 0 .32-.3c.09-.15.15-.33.2-.55.04-.22.06-.49.06-.8Z" fill="#344C76"/><path fill-rule="evenodd" clip-rule="evenodd" d="M325.4 173h-7.5c-.7 0-1.26.56-1.26 1.25v7.5c0 .69.56 1.25 1.25 1.25h7.5c.7 0 1.25-.56 1.25-1.25v-7.5c0-.69-.56-1.25-1.25-1.25Zm-.66 1.3h-1.85a.6.6 0 0 0-.6.6v3.17c0 .34.27.6.6.6h1.85a.6.6 0 0 0 .6-.6v-3.17a.6.6 0 0 0-.6-.6Zm-6.2 0h1.85c.33 0 .6.27.6.6v5.67a.6.6 0 0 1-.6.6h-1.85a.6.6 0 0 1-.6-.6v-5.67c0-.33.27-.6.6-.6Z" fill="#4097DD"/><rect x="160" y="168" width="82" height="40" rx="2.34" fill="#CAECC1"/><path d="M167.37 175.07h.93l1.75 4.66 1.74-4.66h.93l-2.3 6.05h-.74l-2.3-6.05Zm-.42 0h.88l.16 4.04v2h-1.04v-6.04Zm5.31 0h.9v6.05h-1.05v-2.01l.15-4.04Zm4.56 5.15v-2.15c0-.16-.03-.3-.09-.41a.61.61 0 0 0-.26-.27.92.92 0 0 0-.44-.1c-.17 0-.3.03-.43.09a.68.68 0 0 0-.27.22c-.07.1-.1.2-.1.32h-1c0-.18.04-.35.13-.51.08-.17.2-.32.37-.45.17-.13.36-.23.59-.3.22-.08.48-.12.76-.12.34 0 .64.06.9.17.26.12.47.29.62.52.15.22.22.5.22.85v2c0 .2.02.39.05.55.03.16.07.3.12.42v.07h-1.02a1.8 1.8 0 0 1-.11-.41 3.33 3.33 0 0 1-.04-.5Zm.15-1.84v.62h-.72c-.18 0-.34.02-.48.06-.15.03-.26.08-.36.15a.65.65 0 0 0-.28.56c0 .12.03.23.08.32.06.1.14.18.24.23a1.1 1.1 0 0 0 1.3-.35.67.67 0 0 0 .14-.35l.32.44a1.77 1.77 0 0 1-.49.74 1.57 1.57 0 0 1-1.07.4c-.3 0-.56-.06-.78-.17a1.4 1.4 0 0 1-.55-.48c-.13-.2-.19-.43-.19-.69a1.24 1.24 0 0 1 .53-1.1c.18-.12.4-.21.65-.27.25-.07.54-.1.87-.1h.78Zm2.97-1.75v4.49h-1v-4.5h1Zm-1.07-1.18c0-.16.05-.28.15-.38.1-.1.24-.15.42-.15s.32.05.42.15c.1.1.16.22.16.38a.5.5 0 0 1-.16.37c-.1.1-.24.15-.42.15a.58.58 0 0 1-.42-.15.5.5 0 0 1-.15-.37Zm3.16 2.13v3.54h-1v-4.5h.94l.06.96Zm-.18 1.13h-.32c0-.33.04-.62.13-.89.09-.26.2-.49.36-.68a1.62 1.62 0 0 1 1.3-.6c.22 0 .41.03.59.1.17.05.32.15.45.28.12.13.22.3.29.52.06.2.1.47.1.78v2.9h-1v-2.9c0-.22-.04-.4-.1-.52a.53.53 0 0 0-.27-.27 1 1 0 0 0-.44-.08.97.97 0 0 0-.8.4c-.1.13-.16.27-.21.43-.06.16-.08.34-.08.53Zm7.04-1.22v5.35h-1v-6.22h.92l.08.87Zm2.93 1.34v.09c0 .32-.04.63-.12.9-.08.28-.19.52-.34.73a1.54 1.54 0 0 1-1.29.65c-.28 0-.52-.05-.73-.15-.21-.1-.39-.26-.53-.45s-.26-.41-.35-.67a4.3 4.3 0 0 1-.18-.86v-.33c.03-.33.1-.63.18-.9.09-.27.2-.5.35-.7a1.5 1.5 0 0 1 1.25-.6c.29 0 .54.06.75.17.22.1.4.26.56.46.15.2.26.44.33.73.08.28.12.59.12.93Zm-1 .09v-.1c0-.2-.02-.39-.06-.57-.04-.18-.1-.34-.19-.47a.87.87 0 0 0-.78-.43c-.17 0-.32.03-.45.09a.88.88 0 0 0-.32.24c-.09.1-.15.23-.2.37a2.2 2.2 0 0 0-.1.46v.8c.03.2.09.38.17.55.08.16.2.3.34.4.15.1.34.14.57.14.18 0 .34-.04.46-.11a.9.9 0 0 0 .31-.32c.09-.14.15-.3.19-.48.04-.18.06-.37.06-.57Zm4.38 1.3v-2.15c0-.16-.03-.3-.09-.41a.62.62 0 0 0-.27-.27.92.92 0 0 0-.44-.1c-.16 0-.3.03-.42.09a.68.68 0 0 0-.28.22c-.06.1-.1.2-.1.32h-1c0-.18.05-.35.14-.51.08-.17.2-.32.37-.45.16-.13.36-.23.58-.3.23-.08.49-.12.77-.12.34 0 .63.06.9.17.26.12.46.29.61.52.16.22.23.5.23.85v2c0 .2.02.39.04.55.03.16.08.3.13.42v.07h-1.02a1.8 1.8 0 0 1-.11-.41 3.33 3.33 0 0 1-.04-.5Zm.14-1.84.01.62h-.72c-.18 0-.34.02-.49.06a1 1 0 0 0-.35.15.65.65 0 0 0-.28.56c0 .12.03.23.08.32.06.1.14.18.24.23a1.1 1.1 0 0 0 1.3-.35.67.67 0 0 0 .13-.35l.33.44c-.03.12-.1.24-.17.37a1.58 1.58 0 0 1-1.4.77c-.29 0-.55-.06-.78-.18a1.4 1.4 0 0 1-.54-.47c-.13-.2-.2-.43-.2-.69 0-.24.05-.45.14-.63.1-.18.23-.34.4-.46.18-.13.4-.22.65-.28.25-.07.54-.1.87-.1h.78Zm4.78-1.75h.91v4.36c0 .4-.08.75-.25 1.03-.18.28-.41.5-.72.64a2.4 2.4 0 0 1-1.64.15c-.2-.05-.41-.13-.6-.24a1.5 1.5 0 0 1-.5-.42l.48-.6a1.44 1.44 0 0 0 1.73.42c.16-.07.28-.2.37-.36.09-.16.13-.36.13-.6v-3.37l.1-1.01Zm-3.05 2.3v-.1c0-.34.05-.65.13-.93s.2-.52.36-.72c.15-.2.34-.36.56-.47.22-.11.47-.17.75-.17.3 0 .54.06.74.16.21.1.38.26.52.45.14.2.25.43.33.7.08.27.14.57.17.9v.27c-.03.32-.1.62-.18.88-.08.27-.2.5-.34.7a1.46 1.46 0 0 1-1.25.6 1.6 1.6 0 0 1-1.3-.65c-.16-.2-.28-.44-.36-.72a3.19 3.19 0 0 1-.13-.9Zm1-.1v.1c0 .2.02.39.06.56.04.18.1.34.19.47.09.13.2.24.32.32.14.07.3.11.47.11.24 0 .43-.05.58-.15.15-.1.27-.23.35-.4.08-.17.14-.37.17-.58v-.75a1.84 1.84 0 0 0-.1-.45 1.22 1.22 0 0 0-.2-.37.84.84 0 0 0-.33-.25c-.13-.06-.28-.1-.46-.1a.9.9 0 0 0-.8.44c-.08.14-.14.3-.18.48-.04.18-.07.37-.07.57Zm5.98 2.37a2.4 2.4 0 0 1-.9-.16 1.98 1.98 0 0 1-1.1-1.16c-.1-.26-.16-.55-.16-.86v-.16c0-.35.05-.67.16-.96.1-.28.24-.53.42-.73.19-.2.4-.36.65-.47.25-.1.52-.16.81-.16.32 0 .6.06.84.16.24.11.44.26.6.46.16.2.28.43.36.7.08.26.12.56.12.88v.43h-3.47v-.72h2.48v-.08c0-.18-.04-.35-.1-.5a.86.86 0 0 0-.3-.38.88.88 0 0 0-.53-.15.88.88 0 0 0-.76.41c-.1.13-.16.3-.2.48-.05.19-.07.4-.07.63v.16c0 .2.02.38.08.55.05.17.13.31.24.44.1.12.23.22.38.3a1.38 1.38 0 0 0 1.64-.45l.53.5a1.89 1.89 0 0 1-.95.72c-.22.08-.48.12-.77.12Zm7.4-1.14v-3.44h1v4.5h-.94l-.06-1.06Zm.14-.94h.33c0 .3-.03.57-.1.83-.06.25-.16.47-.3.66-.14.18-.32.33-.53.44-.22.1-.48.15-.78.15-.22 0-.42-.03-.6-.1a1.23 1.23 0 0 1-.48-.3c-.13-.12-.23-.3-.3-.51a2.4 2.4 0 0 1-.1-.76v-2.9h1v2.9c0 .17.01.3.05.42.04.1.1.2.16.26.07.06.14.11.23.14.1.03.19.04.29.04.28 0 .5-.05.67-.17a.92.92 0 0 0 .35-.45c.07-.2.1-.4.1-.65Zm2.89-1.63v5.35h-1v-6.22h.92l.08.87Zm2.93 1.34v.09c0 .32-.04.63-.12.9a2.2 2.2 0 0 1-.34.73 1.54 1.54 0 0 1-1.29.65c-.28 0-.52-.05-.73-.15a1.5 1.5 0 0 1-.53-.45c-.14-.19-.26-.41-.35-.67a4.3 4.3 0 0 1-.18-.86v-.33c.04-.33.1-.63.18-.9.1-.27.2-.5.35-.7a1.48 1.48 0 0 1 1.25-.6c.29 0 .54.06.76.17.22.1.4.26.55.46.15.2.26.44.33.73.08.28.12.59.12.93Zm-1 .09v-.1c0-.2-.02-.39-.06-.57-.04-.18-.1-.34-.18-.47a.86.86 0 0 0-.78-.43c-.18 0-.33.03-.46.09a.87.87 0 0 0-.32.24c-.09.1-.15.23-.2.37-.05.14-.08.3-.1.46v.8c.03.2.09.38.17.55.08.16.2.3.34.4.15.1.34.14.57.14.18 0 .34-.04.46-.11a.9.9 0 0 0 .32-.32c.08-.14.14-.3.18-.48.04-.18.06-.37.06-.57Zm4.59 1.27v-5.45h1v6.38h-.9l-.1-.93Zm-2.93-1.27v-.09c0-.34.05-.65.13-.93s.2-.52.34-.72a1.53 1.53 0 0 1 1.3-.64 1.47 1.47 0 0 1 1.24.61c.14.2.25.43.34.7.09.27.15.57.18.9v.27c-.03.32-.1.62-.18.88-.09.27-.2.5-.34.7a1.48 1.48 0 0 1-1.25.6 1.57 1.57 0 0 1-1.29-.65c-.15-.2-.26-.44-.34-.72a3.3 3.3 0 0 1-.13-.9Zm1-.09v.1c0 .2.02.39.06.56.04.18.1.34.18.47.08.13.18.24.3.32.14.07.3.11.47.11.23 0 .42-.05.56-.15.15-.1.27-.23.35-.4.08-.17.14-.37.17-.58v-.75a1.88 1.88 0 0 0-.1-.45 1.22 1.22 0 0 0-.2-.37.85.85 0 0 0-.32-.25 1 1 0 0 0-.45-.1.87.87 0 0 0-.46.12.94.94 0 0 0-.32.32c-.08.14-.14.3-.18.48-.04.18-.06.37-.06.57Zm6.5 1.39v-2.15a.9.9 0 0 0-.08-.41.61.61 0 0 0-.26-.27.92.92 0 0 0-.44-.1c-.17 0-.3.03-.43.09a.69.69 0 0 0-.28.22c-.06.1-.1.2-.1.32h-1c0-.18.05-.35.14-.51.08-.17.2-.32.37-.45.16-.13.36-.23.59-.3.22-.08.48-.12.76-.12.34 0 .64.06.9.17.26.12.47.29.61.52.16.22.23.5.23.85v2c0 .2.02.39.04.55.03.16.08.3.13.42v.07h-1.02a1.8 1.8 0 0 1-.11-.41 3.33 3.33 0 0 1-.04-.5Zm.15-1.84.01.62h-.72a2 2 0 0 0-.49.06 1 1 0 0 0-.35.15.65.65 0 0 0-.28.56.58.58 0 0 0 .32.56c.11.05.24.08.4.08a1.1 1.1 0 0 0 .9-.44.69.69 0 0 0 .14-.35l.32.44c-.03.12-.1.24-.17.37a1.57 1.57 0 0 1-1.4.77c-.28 0-.55-.06-.78-.18a1.4 1.4 0 0 1-.54-.47 1.42 1.42 0 0 1-.06-1.32c.1-.18.23-.34.4-.46.18-.13.4-.22.65-.28.25-.07.54-.1.87-.1h.78Zm3.97-1.75v.73h-2.53v-.74h2.53Zm-1.8-1.1h1v4.34c0 .14.02.25.06.32.04.08.1.13.17.15.07.03.15.04.25.04a1.6 1.6 0 0 0 .35-.04v.76a2.46 2.46 0 0 1-.66.1c-.23 0-.43-.04-.6-.12a.9.9 0 0 1-.42-.4c-.1-.19-.15-.44-.15-.74v-4.41Zm4.55 5.67c-.33 0-.63-.05-.9-.16a1.98 1.98 0 0 1-1.11-1.16c-.1-.26-.15-.55-.15-.86v-.16c0-.35.05-.67.16-.96.1-.28.24-.53.42-.73.18-.2.4-.36.65-.47a2 2 0 0 1 .8-.16c.33 0 .61.06.85.16.24.11.44.26.6.46.16.2.28.43.36.7.08.26.12.56.12.88v.43h-3.47v-.72h2.48v-.08c0-.18-.04-.35-.1-.5a.86.86 0 0 0-.3-.38.88.88 0 0 0-.53-.15.87.87 0 0 0-.76.41c-.1.13-.16.3-.2.48-.05.19-.08.4-.08.63v.16c0 .2.03.38.08.55.06.17.14.31.24.44.11.12.24.22.39.3a1.39 1.39 0 0 0 1.64-.45l.53.5a1.9 1.9 0 0 1-.95.72c-.22.08-.48.12-.77.12Z" fill="#28522F"/><rect x="250" y="273" width="82" height="40" rx="2.34" fill="#FFEEAB"/><path d="M260.8 283.44a.88.88 0 0 0-.06-.33.65.65 0 0 0-.2-.26 1.6 1.6 0 0 0-.4-.24 5.18 5.18 0 0 0-.65-.23 7.26 7.26 0 0 1-.8-.3 3 3 0 0 1-.62-.38 1.41 1.41 0 0 1-.57-1.16 1.46 1.46 0 0 1 .6-1.2c.19-.15.42-.26.68-.34.26-.08.55-.13.87-.13.45 0 .84.09 1.16.25.33.17.58.4.75.67.18.28.27.59.27.93h-1.04c0-.2-.04-.38-.13-.53a.87.87 0 0 0-.38-.37 1.39 1.39 0 0 0-.64-.13c-.25 0-.45.04-.62.11a.8.8 0 0 0-.36.3.8.8 0 0 0-.12.44c0 .11.03.22.08.31.05.1.13.18.24.26.1.07.24.15.4.22.17.07.36.13.58.2.34.1.63.2.88.33.25.12.45.25.62.4a1.5 1.5 0 0 1 .5 1.18c0 .25-.05.48-.15.68-.1.2-.25.38-.44.52-.2.14-.42.25-.69.33a3.2 3.2 0 0 1-2.5-.36 1.68 1.68 0 0 1-.75-1.44h1.04c0 .2.04.37.1.5.07.14.17.26.29.35.12.08.26.15.42.19a2.1 2.1 0 0 0 1.13-.04.8.8 0 0 0 .38-.3.76.76 0 0 0 .12-.43Zm5.92.73v.83h-3.21v-.83h3.2Zm-2.92-5.21V285h-1.04v-6.04h1.04Zm2.5 2.52v.81h-2.8v-.81h2.8Zm.4-2.52v.83h-3.2v-.83h3.2Zm5.69 2.85v.33c0 .46-.06.87-.18 1.23-.12.37-.3.67-.51.93-.22.25-.49.45-.8.58-.3.14-.64.2-1.01.2s-.71-.06-1.02-.2a2.3 2.3 0 0 1-.8-.58c-.22-.26-.4-.56-.52-.93a3.87 3.87 0 0 1-.18-1.23v-.33c0-.45.06-.86.18-1.22.13-.36.3-.67.52-.93.22-.26.49-.45.8-.58.3-.14.64-.2 1-.2.38 0 .72.06 1.03.2.3.13.57.32.8.58.21.26.38.57.5.93.13.36.19.77.19 1.22Zm-1.05.33v-.34c0-.33-.03-.63-.1-.89a1.83 1.83 0 0 0-.28-.65 1.2 1.2 0 0 0-.46-.4c-.19-.09-.4-.13-.62-.13a1.24 1.24 0 0 0-1.08.53c-.12.18-.22.4-.28.65-.07.26-.1.56-.1.9v.33c0 .34.03.64.1.9a2 2 0 0 0 .29.66c.13.18.28.31.46.4.18.1.39.14.62.14a1.25 1.25 0 0 0 1.07-.53c.13-.19.22-.4.28-.67.07-.26.1-.56.1-.9Zm3.91.66v-.1c0-.31.05-.62.14-.9.1-.27.23-.51.41-.72.18-.2.4-.37.66-.48.26-.12.55-.17.88-.17.33 0 .62.05.88.17.26.11.48.27.66.48.18.2.31.45.4.73.1.27.15.57.15.9v.1c0 .32-.05.62-.14.9-.1.27-.23.51-.41.72a1.9 1.9 0 0 1-1.53.65 1.9 1.9 0 0 1-1.54-.65c-.18-.2-.32-.45-.42-.73-.09-.27-.14-.57-.14-.9Zm1-.1v.1c0 .2.02.4.07.58.04.18.1.33.2.47.08.14.2.24.33.32a1 1 0 0 0 .5.12c.18 0 .34-.04.48-.12a.97.97 0 0 0 .34-.32c.09-.14.15-.3.2-.47.04-.18.06-.37.06-.58v-.1c0-.19-.02-.38-.07-.56-.04-.18-.1-.33-.2-.47a.95.95 0 0 0-.82-.45.95.95 0 0 0-.83.45c-.09.14-.15.3-.2.47-.04.18-.06.37-.06.57Zm5.02-1.33v5.36h-1v-6.22h.92l.08.86Zm2.93 1.34v.09c0 .33-.04.63-.12.9a2.2 2.2 0 0 1-.33.74 1.58 1.58 0 0 1-1.3.65 1.5 1.5 0 0 1-1.26-.6c-.14-.2-.26-.42-.35-.68a4.3 4.3 0 0 1-.18-.85v-.34c.04-.33.1-.63.18-.9.1-.26.2-.5.35-.69a1.49 1.49 0 0 1 1.26-.6 1.5 1.5 0 0 1 1.3.63c.15.2.26.44.33.72.08.28.12.59.12.93Zm-1 .09v-.09c0-.2-.02-.4-.06-.57-.04-.18-.1-.34-.18-.48a.9.9 0 0 0-.78-.43c-.18 0-.33.03-.46.1a.86.86 0 0 0-.32.24c-.09.1-.15.23-.2.37-.05.13-.08.29-.1.45v.8c.03.2.1.39.17.55.08.17.2.3.34.4.15.1.34.15.57.15.18 0 .34-.04.46-.12a.91.91 0 0 0 .32-.32c.08-.14.14-.3.18-.48.04-.18.06-.37.06-.57Zm3.9-2.3v.74h-2.53v-.73h2.54Zm-1.8-1.1h1v4.36c0 .14.02.24.06.32.05.07.1.12.17.14.08.03.16.04.26.04a1.6 1.6 0 0 0 .35-.04v.77a2.7 2.7 0 0 1-.66.1c-.23 0-.43-.05-.61-.13a.9.9 0 0 1-.42-.4c-.1-.19-.14-.43-.14-.74v-4.41Zm3.65 1.1v4.5h-1v-4.5h1Zm-1.07-1.17c0-.15.05-.28.15-.38.1-.1.24-.15.42-.15s.32.05.42.15c.1.1.15.23.15.38a.5.5 0 0 1-.15.37c-.1.1-.24.15-.42.15a.58.58 0 0 1-.42-.15.5.5 0 0 1-.15-.37Zm3.17 2.1V285h-1v-4.5h.94l.06.92Zm-.17 1.16h-.34c0-.31.04-.6.12-.86.08-.27.2-.5.34-.69.15-.2.33-.35.56-.45.22-.11.48-.16.77-.16.2 0 .4.03.56.09.17.06.32.15.45.28.12.12.22.29.29.49.07.2.1.44.1.72V285h-1v-2.9c0-.22-.03-.4-.1-.52a.56.56 0 0 0-.28-.27 1.01 1.01 0 0 0-.42-.08 1 1 0 0 0-.49.1.91.91 0 0 0-.31.3c-.09.13-.15.27-.19.44-.04.16-.06.33-.06.52Zm2.79-.27-.47.1c0-.26.04-.52.11-.76.08-.25.2-.46.34-.64.15-.19.33-.33.55-.44.22-.1.47-.15.75-.15.23 0 .44.03.62.1.18.05.33.15.46.28.13.13.22.3.3.52.06.21.09.47.09.77v2.9h-1v-2.9c0-.24-.04-.41-.1-.54a.52.52 0 0 0-.28-.25 1.1 1.1 0 0 0-.43-.08c-.15 0-.29.03-.4.09a.82.82 0 0 0-.3.24c-.08.1-.14.21-.18.34-.04.13-.06.27-.06.42Zm4.85-1.81V285h-1v-4.5h1Zm-1.07-1.18c0-.15.05-.28.15-.38.1-.1.24-.15.42-.15s.32.05.42.15c.1.1.16.23.16.38a.5.5 0 0 1-.16.37c-.1.1-.24.15-.42.15a.58.58 0 0 1-.42-.15.5.5 0 0 1-.15-.37Zm5.64 4.87v.8h-3.34v-.8h3.34Zm-.1-3.07-2.9 3.87h-.65v-.64l2.9-3.85h.66v.62Zm-.38-.62v.8h-3.12v-.8h3.12Zm3.81 3.59v-2.14c0-.16-.03-.3-.08-.42a.61.61 0 0 0-.27-.27.9.9 0 0 0-.44-.1 1 1 0 0 0-.42.09.69.69 0 0 0-.28.23c-.07.09-.1.2-.1.31h-1c0-.17.05-.34.13-.51.09-.17.21-.31.38-.44.16-.14.35-.24.58-.31.23-.08.48-.11.76-.11.34 0 .64.05.9.17.26.11.47.28.62.51.15.23.23.51.23.86v2c0 .2.01.38.04.54.03.17.07.3.13.42v.07h-1.03a1.8 1.8 0 0 1-.11-.41 3.34 3.34 0 0 1-.04-.5Zm.15-1.83v.62h-.71c-.19 0-.35.01-.5.05-.13.04-.25.08-.34.15a.64.64 0 0 0-.29.56c0 .12.03.23.09.33.05.1.13.17.24.23a1.1 1.1 0 0 0 1.3-.35.67.67 0 0 0 .13-.36l.32.45a1.77 1.77 0 0 1-.49.74 1.57 1.57 0 0 1-1.07.4c-.3 0-.55-.06-.78-.18a1.4 1.4 0 0 1-.54-.48c-.13-.2-.2-.43-.2-.68 0-.24.05-.45.14-.63.09-.19.22-.35.4-.47.17-.12.39-.22.64-.28.26-.07.55-.1.87-.1h.79Zm3.96-1.76v.73H308v-.73h2.53Zm-1.8-1.1h1v4.35c0 .14.02.24.06.32.04.07.1.12.17.14.07.03.16.04.25.04a1.59 1.59 0 0 0 .36-.04v.77a2.7 2.7 0 0 1-.67.1c-.22 0-.43-.05-.6-.13a.9.9 0 0 1-.42-.4c-.1-.19-.15-.43-.15-.74v-4.41Zm3.64 1.1V285h-1v-4.5h1Zm-1.07-1.18c0-.15.05-.28.15-.38.1-.1.25-.15.43-.15.17 0 .31.05.42.15.1.1.15.23.15.38a.5.5 0 0 1-.15.37c-.1.1-.25.15-.42.15a.58.58 0 0 1-.43-.15.5.5 0 0 1-.15-.37Zm1.98 3.47v-.1c0-.31.05-.62.14-.9.1-.27.23-.51.4-.72.19-.2.4-.37.66-.48.26-.12.56-.17.88-.17.33 0 .63.05.88.17.26.11.48.27.66.48.18.2.32.45.41.73.1.27.14.57.14.9v.1c0 .32-.04.62-.14.9-.1.27-.23.51-.4.72a1.9 1.9 0 0 1-1.54.65 1.9 1.9 0 0 1-1.54-.65c-.18-.2-.32-.45-.41-.73-.1-.27-.14-.57-.14-.9Zm1-.1v.1c0 .2.02.4.06.58.04.18.1.33.2.47.08.14.2.24.34.32a1 1 0 0 0 .5.12c.18 0 .34-.04.47-.12a.97.97 0 0 0 .34-.32c.1-.14.16-.3.2-.47.04-.18.06-.37.06-.58v-.1c0-.19-.02-.38-.06-.56-.04-.18-.11-.33-.2-.47a.95.95 0 0 0-.83-.45.95.95 0 0 0-.82.45c-.1.14-.16.3-.2.47-.04.18-.06.37-.06.57Zm5-1.23V285h-1v-4.5h.95l.06.97Zm-.17 1.12h-.33c0-.32.05-.62.14-.88.08-.27.2-.5.36-.69a1.6 1.6 0 0 1 1.3-.6c.21 0 .4.04.58.1.18.06.33.15.45.28.13.14.23.31.3.52.06.21.1.47.1.78v2.9H321v-2.9c0-.22-.03-.4-.1-.52a.54.54 0 0 0-.27-.27 1.02 1.02 0 0 0-.43-.08.97.97 0 0 0-.8.4c-.1.13-.17.27-.22.44-.05.16-.07.33-.07.52Z" fill="#5F4D1A"/><rect x="68" y="222" width="82" height="91" rx="2.34" fill="#CAECC1"/><path d="M78.38 232.44a.88.88 0 0 0-.05-.33.65.65 0 0 0-.2-.26 1.6 1.6 0 0 0-.4-.24 5.16 5.16 0 0 0-.65-.23 7.25 7.25 0 0 1-.8-.3 3 3 0 0 1-.62-.38 1.4 1.4 0 0 1-.57-1.16 1.46 1.46 0 0 1 .6-1.2c.19-.15.42-.26.68-.34.26-.08.55-.13.87-.13.45 0 .84.09 1.16.25.33.17.58.4.75.67.18.28.27.59.27.93h-1.04c0-.2-.04-.38-.13-.53a.88.88 0 0 0-.38-.37 1.39 1.39 0 0 0-.64-.13c-.25 0-.45.04-.61.11a.81.81 0 0 0-.37.3.8.8 0 0 0-.12.44c0 .11.03.22.08.31.05.1.13.18.24.26.1.07.24.15.4.22.17.07.36.13.58.2.34.1.63.2.88.33.25.12.46.25.62.4a1.5 1.5 0 0 1 .5 1.18c0 .25-.05.48-.15.68-.1.2-.25.38-.44.52-.2.14-.42.25-.69.33a3.2 3.2 0 0 1-2.5-.36 1.68 1.68 0 0 1-.75-1.44h1.04c0 .2.04.37.1.5.07.14.17.26.29.35.12.08.26.15.42.19a2.1 2.1 0 0 0 1.14-.04.8.8 0 0 0 .37-.3.76.76 0 0 0 .12-.43Zm2.94-2.93V234h-1v-4.5h1Zm-1.07-1.18c0-.15.05-.28.15-.38.1-.1.24-.15.42-.15s.32.05.42.15c.1.1.16.23.16.38a.5.5 0 0 1-.16.37c-.1.1-.24.15-.42.15a.58.58 0 0 1-.42-.15.5.5 0 0 1-.15-.37Zm4.23 1.18v.73h-2.54v-.73h2.54Zm-1.8-1.1h1v4.35c0 .14.01.24.05.32.04.07.1.12.17.14.08.03.16.04.26.04a1.6 1.6 0 0 0 .35-.04v.77a2.68 2.68 0 0 1-.66.1c-.23 0-.43-.05-.61-.13a.9.9 0 0 1-.42-.4c-.1-.19-.15-.43-.15-.74v-4.41Zm4.55 5.67a2.4 2.4 0 0 1-.9-.16 1.99 1.99 0 0 1-1.11-1.15c-.1-.27-.15-.56-.15-.86v-.17c0-.35.05-.67.15-.95.1-.29.25-.53.43-.73.18-.2.4-.36.65-.47.25-.11.52-.16.8-.16.33 0 .6.05.85.16.24.1.44.26.6.45.16.2.28.43.35.7.08.27.12.56.12.89v.42h-3.46v-.72h2.48v-.07c0-.18-.04-.35-.11-.51a.87.87 0 0 0-.3-.38.89.89 0 0 0-.53-.15.88.88 0 0 0-.76.41c-.09.14-.15.3-.2.48-.04.2-.07.4-.07.63v.17c0 .2.03.38.08.55.06.16.14.3.24.43.1.13.24.23.39.3.14.07.31.1.5.1a1.38 1.38 0 0 0 1.14-.56l.53.52a1.9 1.9 0 0 1-.95.72c-.22.07-.48.11-.77.11Zm7.4-1.14v-3.43h1V234h-.95l-.06-1.06Zm.13-.93.34-.01c0 .3-.03.58-.1.83-.06.26-.17.48-.3.66-.14.19-.32.33-.54.44-.21.1-.47.15-.77.15-.22 0-.42-.03-.6-.1a1.24 1.24 0 0 1-.48-.29c-.13-.13-.23-.3-.3-.52a2.4 2.4 0 0 1-.1-.76v-2.9h1v2.9c0 .17.01.3.05.42.04.1.1.2.16.26.06.07.14.12.23.14.09.03.18.04.28.04.29 0 .51-.05.67-.16a.92.92 0 0 0 .36-.46c.07-.19.1-.4.1-.64Zm2.9-1.64v5.36h-1v-6.22h.92l.08.86Zm2.92 1.34v.09c0 .33-.03.63-.11.9-.08.29-.19.53-.34.74-.15.2-.33.36-.54.47-.22.12-.47.17-.75.17s-.52-.05-.73-.15a1.5 1.5 0 0 1-.53-.44c-.14-.2-.26-.42-.35-.68a4.31 4.31 0 0 1-.18-.85v-.34c.03-.33.1-.63.18-.9.09-.26.2-.5.35-.69a1.5 1.5 0 0 1 1.25-.6 1.5 1.5 0 0 1 1.3.63c.16.2.27.44.34.72.08.28.11.59.11.93Zm-1 .09v-.09c0-.2-.02-.4-.05-.57a1.5 1.5 0 0 0-.19-.48.9.9 0 0 0-.78-.43c-.17 0-.33.03-.45.1a.87.87 0 0 0-.32.24c-.09.1-.16.23-.2.37a2.2 2.2 0 0 0-.1.45v.8c.03.2.09.39.17.55.08.17.2.3.34.4.15.1.34.15.57.15.18 0 .33-.04.46-.12a.91.91 0 0 0 .31-.32c.09-.14.15-.3.19-.48.03-.18.05-.37.05-.57Zm4.6 1.27v-5.44h1V234h-.91l-.1-.93Zm-2.93-1.27v-.08c0-.34.04-.65.12-.93.08-.28.2-.53.35-.73a1.54 1.54 0 0 1 1.3-.63c.27 0 .5.05.71.15.2.1.38.26.52.46.15.19.26.42.35.7.08.26.14.56.18.89v.28c-.04.32-.1.61-.18.88-.09.26-.2.5-.35.69a1.49 1.49 0 0 1-1.24.6 1.58 1.58 0 0 1-1.29-.64c-.15-.2-.27-.45-.35-.73a3.29 3.29 0 0 1-.12-.9Zm1-.08v.08c0 .2.02.4.06.58.03.17.1.33.17.47.08.13.19.23.32.31.13.08.28.11.46.11.23 0 .41-.05.56-.15.15-.1.26-.23.35-.4.08-.17.14-.36.17-.57v-.75a1.83 1.83 0 0 0-.1-.46 1.24 1.24 0 0 0-.2-.37.86.86 0 0 0-.33-.25 1 1 0 0 0-.44-.09.87.87 0 0 0-.47.12.94.94 0 0 0-.31.32c-.08.13-.14.3-.18.47a2.8 2.8 0 0 0-.06.58Zm6.5 1.38v-2.14c0-.16-.02-.3-.08-.42a.61.61 0 0 0-.27-.27.9.9 0 0 0-.44-.1 1 1 0 0 0-.42.09.69.69 0 0 0-.28.23c-.07.09-.1.2-.1.31h-1c0-.17.05-.34.14-.51.08-.17.2-.31.37-.44.16-.13.36-.24.58-.31.23-.08.48-.11.77-.11.34 0 .63.05.9.17.26.11.46.28.61.51.15.23.23.51.23.86v2c0 .2.01.38.04.54.03.17.08.3.13.42v.07h-1.03a1.8 1.8 0 0 1-.1-.41 3.34 3.34 0 0 1-.04-.5Zm.15-1.83v.62h-.7c-.2 0-.36.02-.5.05-.14.03-.26.08-.35.15a.64.64 0 0 0-.28.56c0 .12.02.23.08.33.05.1.13.17.24.23.1.05.24.08.4.08a1.1 1.1 0 0 0 .9-.44.67.67 0 0 0 .13-.35l.33.45-.17.36c-.08.13-.19.26-.32.38a1.57 1.57 0 0 1-1.08.4c-.29 0-.55-.06-.78-.18a1.4 1.4 0 0 1-.54-.48c-.13-.2-.2-.43-.2-.68 0-.24.05-.45.14-.63.1-.19.22-.34.4-.47.18-.12.4-.22.65-.28.25-.07.54-.1.87-.1h.78Zm3.96-1.76v.73h-2.53v-.73h2.53Zm-1.8-1.1h1v4.35c0 .14.02.24.06.32.04.07.1.12.17.14.07.03.16.04.25.04a1.59 1.59 0 0 0 .36-.04v.77a2.7 2.7 0 0 1-.66.1c-.23 0-.43-.05-.61-.13a.9.9 0 0 1-.42-.4c-.1-.19-.15-.43-.15-.74v-4.41Zm4.56 5.67c-.34 0-.64-.05-.9-.16a1.98 1.98 0 0 1-1.11-1.15c-.1-.27-.15-.56-.15-.86v-.17c0-.35.05-.67.15-.95.1-.29.25-.53.43-.73.18-.2.4-.36.65-.47.25-.11.52-.16.8-.16.33 0 .6.05.85.16.24.1.44.26.6.45.16.2.28.43.35.7.08.27.12.56.12.89v.42h-3.47v-.72h2.49v-.07c-.01-.18-.05-.35-.11-.51a.87.87 0 0 0-.3-.38.89.89 0 0 0-.53-.15.88.88 0 0 0-.76.41c-.09.14-.15.3-.2.48-.05.2-.07.4-.07.63v.17c0 .2.03.38.08.55.06.16.14.3.24.43.1.13.23.23.38.3.15.07.32.1.52.1a1.38 1.38 0 0 0 1.13-.56l.52.52a1.89 1.89 0 0 1-.95.72c-.21.07-.47.11-.76.11Z" fill="#28522F"/></g></g><g filter="url(#d)"><circle cx="301.89" cy="127.89" r="43.89" fill="#fff"/></g><path d="M315.35 110.66h-25.69a4 4 0 0 0-4 4v25.66a4.01 4.01 0 0 0 4 4.02h25.69a4 4 0 0 0 4-4.02v-25.66a4 4 0 0 0-4-4Zm-15.9 24.7a1.32 1.32 0 0 1-.4.94 1.33 1.33 0 0 1-.95.39h-4.88a1.34 1.34 0 0 1-1.32-1.34v-17.23a1.34 1.34 0 0 1 1.32-1.34h4.88a1.34 1.34 0 0 1 1.34 1.34l.01 17.23Zm13.77-7.66a1.34 1.34 0 0 1-1.35 1.33h-4.97a1.33 1.33 0 0 1-1.34-1.33v-9.58a1.34 1.34 0 0 1 1.34-1.34h4.98a1.33 1.33 0 0 1 1.33 1.34v9.58Z" fill="url(#e)"/><g filter="url(#f)"><mask id="g" maskUnits="userSpaceOnUse" x="295" y="140" width="20" height="24" fill="#000"><path fill="#fff" d="M295 140h20v24h-20z"/><path fill-rule="evenodd" clip-rule="evenodd" d="m301.49 153.71-1.04-1.58a2.66 2.66 0 0 0-3.37-.89l.27-.14a.67.67 0 0 0-.3.82l1.43 3.72c.23.6.8 1.43 1.29 1.85 0 0 2.89 2.39 2.89 3.29v1.13h4.68l1.17-2.34 1.17 2.34h1.17v-1.13c0-.9 1.77-3.73 1.77-3.73.32-.55.6-1.52.6-2.16v-4.72a1.97 1.97 0 0 0-2.01-1.9c-.55 0-1 .43-1 .95v.38c0-1.05-.88-1.9-1.98-1.9-.55 0-1 .43-1 .95v.38c0-1.05-.88-1.9-1.98-1.9-.55 0-1 .43-1 .95v.38c0-.17 0-.3-.04-.4l-.3-4.89a1.26 1.26 0 0 0-1.25-1.17c-.65 0-1.17.52-1.17 1.17v10.54Zm8.21-1.17h1.17v4.69h-1.17v-4.69Zm-2.34 0h1.17v4.69h-1.17v-4.69Zm-2.34 0h1.17v4.69h-1.17v-4.69Z"/></mask><path fill-rule="evenodd" clip-rule="evenodd" d="m301.49 153.71-1.04-1.58a2.66 2.66 0 0 0-3.37-.89l.27-.14a.67.67 0 0 0-.3.82l1.43 3.72c.23.6.8 1.43 1.29 1.85 0 0 2.89 2.39 2.89 3.29v1.13h4.68l1.17-2.34 1.17 2.34h1.17v-1.13c0-.9 1.77-3.73 1.77-3.73.32-.55.6-1.52.6-2.16v-4.72a1.97 1.97 0 0 0-2.01-1.9c-.55 0-1 .43-1 .95v.38c0-1.05-.88-1.9-1.98-1.9-.55 0-1 .43-1 .95v.38c0-1.05-.88-1.9-1.98-1.9-.55 0-1 .43-1 .95v.38c0-.17 0-.3-.04-.4l-.3-4.89a1.26 1.26 0 0 0-1.25-1.17c-.65 0-1.17.52-1.17 1.17v10.54Zm8.21-1.17h1.17v4.69h-1.17v-4.69Zm-2.34 0h1.17v4.69h-1.17v-4.69Zm-2.34 0h1.17v4.69h-1.17v-4.69Z" fill="#fff"/><path d="m301.49 153.71-.98.64 2.15 3.3v-3.94h-1.17Zm-1.04-1.58.98-.64-.98.64Zm-3.4-.2-1.1.42 1.1-.43Zm1.43 3.71 1.1-.42-1.1.42Zm1.29 1.85-.77.88h.01l.01.02.75-.9Zm2.89 4.42h-1.17v1.17h1.17v-1.17Zm4.68 0v1.17h.73l.32-.64-1.05-.53Zm1.17-2.34 1.05-.52-1.05-2.1-1.05 2.1 1.05.52Zm1.17 2.34-1.05.53.33.64h.72v-1.17Zm1.17 0v1.17h1.17v-1.17h-1.17Zm1.77-4.86 1 .62v-.02l-1-.6Zm.6-6.88h1.17v-.03l-1.18.03Zm-9.01-2.12-1.17.08v.15l.05.14 1.12-.37Zm-.3-4.88-1.18.08 1.17-.08Zm-2.42 0h-1.17 1.17Zm9.38 9.37h1.17v-1.17h-1.17v1.17Zm0 4.69v1.17h1.17v-1.17h-1.17Zm-1.17 0h-1.17v1.17h1.17v-1.17Zm0-4.69v-1.17h-1.17v1.17h1.17Zm-1.17 0h1.18v-1.17h-1.18v1.17Zm0 4.69v1.17h1.18v-1.17h-1.18Zm-1.17 0h-1.17v1.17h1.17v-1.17Zm0-4.69v-1.17h-1.17v1.17h1.17Zm-1.17 0h1.17v-1.17h-1.17v1.17Zm0 4.69v1.17h1.17v-1.17h-1.17Zm-1.17 0h-1.17v1.17h1.17v-1.17Zm0-4.69v-1.17h-1.17v1.17h1.17Zm-2.55.53-1.04-1.58-1.96 1.28 1.04 1.58 1.96-1.28Zm-1.04-1.58a3.83 3.83 0 0 0-4.89-1.29l1.07 2.08c.63-.32 1.48-.1 1.86.49l1.96-1.28Zm-3.81.8.26-.14-1.07-2.09-.27.14 1.07 2.08Zm-.8-2.23a1.84 1.84 0 0 0-.87 2.29l2.19-.85a.5.5 0 0 1 0 .36c-.03.1-.11.21-.26.28l-1.07-2.08Zm-.87 2.29 1.44 3.72 2.18-.85-1.44-3.72-2.18.85Zm1.44 3.72c.3.76.98 1.75 1.61 2.3l1.54-1.77c-.34-.3-.8-.97-.97-1.38l-2.18.84Zm2.38 1.42-.75.9.03.02a9.93 9.93 0 0 1 .4.34c.26.23.6.54.94.88a10.18 10.18 0 0 1 1.1 1.29c.06.1 0 .03 0-.14h2.34c0-.4-.14-.73-.26-.94a4.53 4.53 0 0 0-.44-.67c-.31-.41-.72-.84-1.1-1.21a25.87 25.87 0 0 0-1.38-1.26l-.1-.08-.02-.03h-.01l-.75.9Zm1.72 3.29v1.13h2.34v-1.13h-2.34Zm1.17 2.3h4.68v-2.34h-4.68v2.34Zm5.73-.64 1.17-2.35-2.1-1.04-1.17 2.34 2.1 1.05Zm-.93-2.35 1.18 2.35 2.1-1.05-1.18-2.34-2.1 1.04Zm2.22 3h1.17v-2.35h-1.17v2.34Zm2.34-1.18v-1.13h-2.34v1.13h2.34Zm0-1.13c0 .04.02-.1.19-.5.14-.35.34-.75.56-1.15a28.4 28.4 0 0 1 .83-1.43v-.02h.01l-1-.63-.98-.62-.01.01-.02.03-.06.1a27.42 27.42 0 0 0-1.49 2.79c-.16.38-.37.93-.37 1.42h2.34Zm1.6-3.13c.24-.4.42-.88.55-1.33.12-.45.22-.97.22-1.43h-2.35c0 .18-.04.48-.13.8-.1.33-.2.6-.3.77l2.02 1.19Zm.77-2.76v-4.72h-2.35v4.72h2.35Zm0-4.75a3.14 3.14 0 0 0-3.18-3.04v2.34c.5 0 .83.38.83.75l2.35-.05Zm-3.18-3.04c-1.14 0-2.17.9-2.17 2.12h2.35c0 .08-.04.14-.07.18a.15.15 0 0 1-.11.04v-2.34Zm-2.17 2.12v.38h2.35v-.38h-2.35Zm2.35.38a3.11 3.11 0 0 0-3.16-3.07v2.34c.5 0 .81.38.81.73h2.35Zm-3.16-3.07c-1.14 0-2.16.9-2.16 2.12h2.34c0 .08-.04.14-.07.18a.16.16 0 0 1-.11.04v-2.34Zm-2.16 2.12v.38h2.34v-.38h-2.34Zm2.34.38a3.11 3.11 0 0 0-3.16-3.07v2.35c.5 0 .82.37.82.72h2.34Zm-3.16-3.07c-1.14 0-2.16.9-2.16 2.12h2.34c0 .08-.04.15-.07.18a.16.16 0 0 1-.1.05v-2.35Zm-2.16 2.12v.38h2.34v-.38h-2.34Zm2.34.38c0-.24-.03-.5-.11-.77l-2.23.73v-.03.07h2.34Zm-.06-.48-.3-4.88-2.34.15.3 4.88 2.35-.15Zm-.3-4.88a2.43 2.43 0 0 0-2.41-2.27v2.34c.01 0 .03 0 .05.02.02.02.02.04.02.06l2.34-.15Zm-2.41-2.27a2.34 2.34 0 0 0-2.34 2.34h2.34v-2.34Zm-2.34 2.34v4.69h2.34v-4.69h-2.34Zm0 4.69v5.85h2.34v-5.85h-2.34Zm9.38 5.85h1.17v-2.34h-1.17v2.34Zm0-1.17v4.69h2.34v-4.69h-2.34Zm1.17 3.52h-1.17v2.34h1.17v-2.34Zm0 1.17v-4.69h-2.34v4.69h2.34Zm-3.5-3.52h1.16v-2.34h-1.17v2.34Zm0-1.17v4.69h2.34v-4.69h-2.35Zm1.16 3.52h-1.17v2.34h1.17v-2.34Zm0 1.17v-4.69h-2.34v4.69h2.35Zm-3.5-3.52h1.16v-2.34h-1.17v2.34Zm-.01-1.17v4.69h2.34v-4.69h-2.34Zm1.17 3.52h-1.17v2.34h1.17v-2.34Zm0 1.17v-4.69h-2.34v4.69h2.34Z" fill="#000" fill-opacity=".8" mask="url(#g)"/></g></g><defs><filter id="b" x="5.77" y="95.89" width="351.45" height="258.45" filterUnits="userSpaceOnUse" color-interpolation-filters="sRGB"><feFlood flood-opacity="0" result="BackgroundImageFix"/><feColorMatrix in="SourceAlpha" values="0 0 0 0 0 0 0 0 0 0 0 0 0 0 0 0 0 0 127 0" result="hardAlpha"/><feOffset dy="10.11"/><feGaussianBlur stdDeviation="10.11"/><feComposite in2="hardAlpha" operator="out"/><feColorMatrix values="0 0 0 0 0.110417 0 0 0 0 0.117708 0 0 0 0 0.125 0 0 0 0.05 0"/><feBlend in2="BackgroundImageFix" result="effect1_dropShadow_12576_149236"/><feBlend in="SourceGraphic" in2="effect1_dropShadow_12576_149236" result="shape"/></filter><filter id="d" x="212.07" y="67.48" width="179.64" height="179.64" filterUnits="userSpaceOnUse" color-interpolation-filters="sRGB"><feFlood flood-opacity="0" result="BackgroundImageFix"/><feColorMatrix in="SourceAlpha" values="0 0 0 0 0 0 0 0 0 0 0 0 0 0 0 0 0 0 127 0" result="hardAlpha"/><feOffset dy="29.41"/><feGaussianBlur stdDeviation="22.96"/><feColorMatrix values="0 0 0 0 0 0 0 0 0 0 0 0 0 0 0 0 0 0 0.07 0"/><feBlend in2="BackgroundImageFix" result="effect1_dropShadow_12576_149236"/><feBlend in="SourceGraphic" in2="effect1_dropShadow_12576_149236" result="shape"/></filter><filter id="f" x="292.31" y="138.49" width="25.59" height="29.28" filterUnits="userSpaceOnUse" color-interpolation-filters="sRGB"><feFlood flood-opacity="0" result="BackgroundImageFix"/><feColorMatrix in="SourceAlpha" values="0 0 0 0 0 0 0 0 0 0 0 0 0 0 0 0 0 0 127 0" result="hardAlpha"/><feOffset dy="1.17"/><feGaussianBlur stdDeviation="1.76"/><feColorMatrix values="0 0 0 0 0 0 0 0 0 0 0 0 0 0 0 0 0 0 0.2 0"/><feBlend in2="BackgroundImageFix" result="effect1_dropShadow_12576_149236"/><feBlend in="SourceGraphic" in2="effect1_dropShadow_12576_149236" result="shape"/></filter><clipPath id="a"><path fill="#fff" d="M0 0h364v416H0z"/></clipPath><clipPath id="c"><rect x="26" y="106" width="311" height="218" rx="5" fill="#fff"/></clipPath><linearGradient id="e" x1="303.38" y1="145.27" x2="303.38" y2="111.42" gradientUnits="userSpaceOnUse"><stop stop-color="#0052CC"/><stop offset="1" stop-color="#2684FF"/></linearGradient></defs></svg>