<svg width="364" height="416" fill="none" xmlns="http://www.w3.org/2000/svg"><g clip-path="url(#a)"><g filter="url(#b)"><g clip-path="url(#c)"><rect x="30" y="86" width="305" height="224" rx="5" fill="#fff"/><path d="M39.2 127.8h.8l2 5.1 2.1-5.1h.9l-2.6 6.3h-.6l-2.6-6.3Zm-.3 0h.7l.2 3.8v2.5h-.9v-6.3Zm5.6 0h.7v6.3h-.8v-2.5l.1-3.8Zm2.3 4v-.1l.1-1 .5-.7.6-.5 1-.2c.3 0 .6 0 .8.2l.7.5.4.7.2 1c0 .4 0 .7-.2 1 0 .3-.2.6-.4.8a2 2 0 0 1-1.6.7c-.3 0-.6 0-.9-.2a2 2 0 0 1-1-1.3 3 3 0 0 1-.2-1Zm.8-.1v.7l.3.6.5.4.5.1.6-.1.4-.4.3-.6V131c0-.2-.2-.4-.3-.5 0-.2-.2-.3-.4-.4l-.6-.1h-.6l-.4.5-.2.5-.1.7Zm5.7-1.3v3.7h-.8v-4.7h.8v1Zm-.2 1.2h-.3l.1-1 .4-.7a1.7 1.7 0 0 1 1.4-.6h.6l.5.4.3.5.1.8v3h-.8v-3l-.1-.6-.3-.3-.5-.1a1.2 1.2 0 0 0-1 .4 1.7 1.7 0 0 0-.4 1.2ZM135 127.7v6.3h-.8v-6.3h.9Zm2.1 0v.7h-4.9v-.7h4.9Zm3.7 5.2v-3.6h.8v4.7h-.8v-1Zm.2-1h.3l-.1.9-.3.7-.6.4a2 2 0 0 1-.8.2l-.7-.1a1.3 1.3 0 0 1-.8-.9v-3.8h.7v3.6l.3.3.3.2h.3c.3 0 .6 0 .8-.2l.4-.5.2-.8Zm4.2 2.2c-.3 0-.6 0-.9-.2a2 2 0 0 1-1-1.2c-.2-.3-.2-.6-.2-.9v-.2l.1-1 .5-.8a2 2 0 0 1 1.4-.6c.4 0 .7 0 .9.2l.6.5c.2.2.3.4.3.7l.2 1v.3h-3.5v-.7h2.7l-.2-.6c0-.2-.2-.4-.3-.5a1 1 0 0 0-.7-.2 1 1 0 0 0-.9.4l-.2.6-.1.7v.8l.3.6a1.3 1.3 0 0 0 1 .4l.8-.1.5-.5.5.4-.4.4c-.1.2-.3.3-.6.4h-.8ZM249.4 132l1.3-4.3h.6l-.4 1.7-1.3 4.6h-.6l.4-2Zm-1.3-4.3 1 4.3.3 2h-.6l-1.5-6.3h.8Zm4.8 4.3 1-4.3h.8l-1.5 6.3h-.6l.3-2Zm-1.6-4.3 1.3 4.4.4 1.9h-.6l-1.3-4.6-.3-1.7h.5Zm6.5 6.4c-.4 0-.7 0-1-.2a2 2 0 0 1-1-1.2c-.2-.3-.2-.6-.2-.9v-.2c0-.3 0-.7.2-1 0-.3.2-.5.4-.8a2 2 0 0 1 2.3-.4c.3.1.5.3.6.5l.4.7v1.3h-3.4v-.7h2.7c0-.2 0-.4-.2-.6 0-.2-.1-.4-.3-.5a1 1 0 0 0-.7-.2 1 1 0 0 0-.9.4l-.2.6-.1.7v.8l.4.6a1.3 1.3 0 0 0 1 .4l.7-.1.5-.5.5.4-.4.4-.5.4h-.8Zm6.1-1v-5.8h.8v6.7h-.7v-1Zm-3.1-1.4v-1l.5-.8.5-.5.8-.2c.3 0 .6 0 .8.2.2 0 .4.2.6.4l.3.7.2 1v.4c0 .3 0 .6-.2.9 0 .3-.2.5-.4.7l-.5.4a1.9 1.9 0 0 1-1.6 0l-.5-.5-.4-.7-.1-1Zm.8 0v.7c0 .2.2.3.3.5 0 .2.2.3.3.4l.6.1c.3 0 .5 0 .7-.2l.4-.4.2-.6v-1l-.1-.5-.3-.4a1 1 0 0 0-.4-.3l-.5-.1-.6.1-.3.4-.3.6v.6ZM41.5 154.4v1l-.1 1.3-.4.9-.7.4-.8.2-.7-.1c-.2 0-.4-.2-.5-.3l-.4-.5-.3-.8-.1-1.1v-1l.1-1.3.4-.8.7-.5.8-.1h.7a1.5 1.5 0 0 1 1 .9l.2.7v1.1Zm-.8 1.1v-2l-.2-.5c0-.2-.2-.3-.3-.4a.9.9 0 0 0-.3-.2H39a1 1 0 0 0-.4.4l-.2.6V156.3l.1.5.2.4.4.2.4.1.5-.1c.2 0 .3-.2.4-.4l.2-.6v-.9Zm3 2h.1c.5 0 .9-.2 1.2-.3.3-.1.5-.3.6-.5l.4-.8v-2.5l-.3-.6c-.1-.2-.3-.3-.4-.3a1 1 0 0 0-.5-.2 1 1 0 0 0-.9.4l-.2.5a2 2 0 0 0 .2 1.6l.4.4.5.1.5-.1a1.4 1.4 0 0 0 .7-.7l.2-.5h.3l-.1.7a2.2 2.2 0 0 1-1 1.1l-.7.2-.8-.2c-.3-.1-.5-.3-.6-.5-.1-.2-.3-.4-.3-.7a2.9 2.9 0 0 1 0-1.6c0-.3.2-.5.4-.7l.6-.5.8-.1c.4 0 .7 0 1 .2l.6.6c.1.2.3.5.3.8l.1 1v1.2c0 .4-.1.7-.3 1 0 .3-.2.6-.5.8l-.8.6-1.4.2v-.7ZM40.2 233.7v6.4h-.8v-5.4l-1.7.6v-.7l2.3-.9h.2Zm6.9 5.7v.7H43v-.6l2-2.3.6-.7.3-.6.1-.4-.1-.6a1 1 0 0 0-.4-.4l-.6-.2c-.3 0-.5 0-.7.2a1 1 0 0 0-.4.4l-.2.7h-.8c0-.3.1-.7.3-1 .1-.3.4-.5.7-.7l1.1-.2c.4 0 .7 0 1 .2.3.1.5.3.7.6l.2.9v.5l-.3.6-.4.5-.5.6-1.7 1.8h3.2ZM141.2 151.6v6.4h-.8v-5.4l-1.7.6v-.7l2.3-.9h.2Zm6.7 2.7v1l-.1 1.3c-.1.4-.2.7-.4.9l-.6.4-.9.2-.6-.1-.6-.3-.4-.5-.3-.8V153l.5-.8.6-.5.8-.1h.7a1.5 1.5 0 0 1 1 .9l.2.8.1 1Zm-.8 1.1v-1.9l-.2-.6a1 1 0 0 0-.2-.4l-.3-.2h-1a1 1 0 0 0-.4.4l-.2.6V156.2l.1.5.3.4.3.3h1l.3-.4.3-.7v-.9ZM141.2 233.6v6.4h-.8v-5.4l-1.7.6v-.7l2.3-.9h.2Zm4 2.8h1.2l.4-.5.2-.5c0-.3 0-.5-.2-.6 0-.2-.2-.3-.3-.4l-.6-.1h-.6a1 1 0 0 0-.6 1h-.8c0-.3 0-.6.2-.8l.7-.7 1-.2c.4 0 .8 0 1 .2.3.1.6.3.7.6.2.3.3.6.3 1 0 .1 0 .3-.2.5 0 .2-.1.3-.3.5-.1.2-.3.3-.6.4l-.9.1h-.7v-.5Zm0 .7v-.5h.6c.4 0 .8 0 1 .2.3 0 .5.2.6.3l.4.6v1.3l-.5.6-.6.4H145a2 2 0 0 1-.7-.4 1.6 1.6 0 0 1-.5-1.3h.8l.1.6c0 .2.2.3.4.4l.7.1.6-.1c.2 0 .3-.2.4-.4l.2-.6-.2-.7a1 1 0 0 0-.5-.4H145.1ZM250.2 151.6v6.4h-.8v-5.4l-1.7.6v-.7l2.3-.9h.2Zm5.4 0v6.4h-.8v-5.4l-1.6.6v-.7l2.3-.9h.1ZM242.2 233.6v6.4h-.8v-5.4l-1.7.6v-.7l2.3-.9h.2Zm7 4.3v.6h-4.5v-.4l2.8-4.4h.7l-.7 1.2-2 3h3.7Zm-.8-4.2v6.3h-.8v-6.3h.8Z" fill="#5A646D" fill-opacity=".8"/><path fill="#F0F0F0" d="M132 143v166h-.6V143zM233 143v167h-.6V143z"/><path fill="#F0F0F0" d="M30 226h312v.6H30zM30 143h312v.6H30zM30 118.7h312v.5H30z"/><rect x="137.8" y="166.6" width="88" height="19.6" rx="2.3" fill="#BDE1F5"/><path fill="#0364B8" fill-opacity=".5" d="M214.9 172.2h4v4h-4zM214.9 177h4v4h-4zM219.7 172.2h4v4h-4zM219.7 177h4v4h-4z"/><rect x="145" y="174" width="26" height="5" rx="2.5" fill="#9DC9E1"/><rect x="37" y="166.6" width="88" height="19.6" rx="2.3" fill="#BDE1F5"/><rect x="44" y="174" width="45" height="5" rx="2.5" fill="#9DC9E1"/><rect x="37" y="272" width="88" height="19.6" rx="2.3" fill="#CAECC1"/><rect x="37" y="248" width="88" height="19.6" rx="2.3" fill="#FFEEAB"/><rect x="240" y="190" width="88" height="19.6" rx="2.3" fill="#F9C8C1"/><rect x="247" y="197" width="34" height="5" rx="2.5" fill="#DEA198"/><rect x="137.8" y="190.3" width="88" height="19.6" rx="2.3" fill="#FFEEAB"/><rect x="145" y="198" width="42" height="5" rx="2.5" fill="#EFD87E"/><rect x="239.7" y="248" width="88" height="19.6" rx="2.3" fill="#CAECC1"/><rect x="247" y="256" width="49" height="5" rx="2.5" fill="#ACD9A1"/><rect x="239.7" y="272" width="88" height="19.6" rx="2.3" fill="#FFEEAB"/><rect x="247" y="280" width="36" height="5" rx="2.5" fill="#EFD87E"/><rect x="137.8" y="248" width="88" height="19.6" rx="2.3" fill="#BDE1F5"/><path d="M49.6 105.1h1.5c0 .6-.2 1-.5 1.5s-.6.8-1.1 1c-.5.3-1 .4-1.8.4-.5 0-1 0-1.4-.3-.4-.1-.8-.4-1-.8-.4-.3-.6-.7-.8-1.2l-.2-1.7v-.7c0-.6 0-1.2.2-1.7s.4-.9.7-1.2a3 3 0 0 1 1.1-.9l1.5-.2c.7 0 1.2 0 1.7.3s.8.6 1 1c.4.5.5 1 .6 1.6h-1.5c0-.4-.1-.7-.3-1 0-.2-.3-.4-.5-.5a2 2 0 0 0-1-.3 2 2 0 0 0-.9.2c-.2.2-.5.3-.6.6-.2.2-.3.5-.4.9l-.1 1.2v1.9l.4.9.6.6 1 .2 1-.2.5-.6c.2-.3.3-.6.3-1Zm6.2 1.5V103l-.5-.4h-1.2a1 1 0 0 0-.4.3l-.1.5h-1.4c0-.3 0-.5.2-.7 0-.3.3-.5.5-.7l.8-.4 1-.1c.6 0 1 0 1.4.2l.8.7c.2.3.4.7.4 1.2V107.2l.2.6v.1H56l-.1-.6v-.7Zm.2-2.5v.8h-1l-.7.1-.5.2a1 1 0 0 0-.3.8v.5l.4.3.6.1a1.5 1.5 0 0 0 1.2-.6c.2-.2.2-.3.2-.5l.5.6c0 .2-.1.4-.3.5 0 .2-.2.4-.4.6a2.2 2.2 0 0 1-1.5.5c-.4 0-.8 0-1.1-.2a2 2 0 0 1-.8-.7c-.2-.3-.3-.6-.3-1l.2-.8.6-.7c.2-.2.5-.3.9-.4a5 5 0 0 1 1.2-.1H56Zm4.2-5.2v9h-1.4v-9h1.4Zm4.4 9.1c-.5 0-1 0-1.3-.2a2.8 2.8 0 0 1-1.6-1.6l-.2-1.2v-.3c0-.5.1-1 .3-1.3.1-.4.3-.8.6-1 .2-.3.5-.6.9-.7.3-.2.7-.2 1.1-.2.5 0 .9 0 1.2.2.3.1.6.3.8.6.3.3.4.6.6 1l.1 1.3v.6h-4.9v-1h3.5v-.2l-.1-.7-.4-.5c-.2-.2-.5-.2-.8-.2l-.6.1-.5.5-.3.6v1.9l.4.6.5.5.8.1a2 2 0 0 0 1.6-.8l.7.7a2.7 2.7 0 0 1-1.3 1c-.3.2-.7.2-1.1.2Zm5-5v5h-1.4v-6.4h1.3l.1 1.3Zm-.2 1.5h-.5c0-.4 0-.9.2-1.2l.5-1c.2-.3.5-.5.8-.6.3-.2.7-.2 1-.2h.9l.6.5.4.7.2 1.1v4.1H72v-4.8l-.5-.4-.6-.1a1.4 1.4 0 0 0-1.1.6 2 2 0 0 0-.3.6l-.1.7Zm9.4 2.1v-7.7h1.4v9h-1.3l-.1-1.3Zm-4.2-1.8v-.1l.2-1.3.5-1c.2-.3.5-.6.8-.7.3-.2.6-.2 1-.2s.8 0 1 .2c.3.1.6.3.8.6l.5 1 .2 1.3v.4l-.2 1.2-.5 1a2.1 2.1 0 0 1-1.8.8 2.2 2.2 0 0 1-1.8-.9l-.5-1-.2-1.3Zm1.5-.1v.9c0 .3.2.5.3.7l.4.4.7.2c.3 0 .6 0 .8-.2l.5-.6.2-.8v-1l-.1-.7-.3-.5-.5-.4-.6-.1c-.3 0-.5 0-.7.2l-.4.4-.3.7v.8Zm9.1 2V103l-.5-.4h-1.2a1 1 0 0 0-.4.3l-.1.5h-1.4c0-.3 0-.5.2-.7 0-.3.3-.5.5-.7l.8-.4 1.1-.1c.5 0 .9 0 1.3.2l.8.7c.2.3.4.7.4 1.2V107.2l.2.6v.1h-1.5l-.1-.6v-.7Zm.2-2.6v.8h-1l-.7.1-.4.2a1 1 0 0 0-.4.8v.5l.4.3.6.1a1.5 1.5 0 0 0 1.2-.6c.2-.2.2-.3.2-.5l.5.6c0 .2-.1.4-.3.5 0 .2-.2.4-.4.6a2.2 2.2 0 0 1-1.5.5c-.4 0-.8 0-1.1-.2a2 2 0 0 1-.8-.7c-.2-.3-.3-.6-.3-1l.2-.8.6-.7c.2-.2.5-.3 1-.4a5 5 0 0 1 1.1-.1h1.1Zm4.2-1.3v5.1H88v-6.3h1.4v1.2Zm1.9-1.3v1.3a2.5 2.5 0 0 0-.6 0l-.6.1a1.2 1.2 0 0 0-.8.8l-.1.6h-.3l.1-1.1c0-.4.2-.7.4-1l.5-.5a1.6 1.6 0 0 1 1.2-.2h.2Z" fill="#181818"/></g></g><rect x="246" y="92" width="71" height="27" rx="2" fill="#EEE"/><path d="M191 86h139a5 5 0 0 1 5 5v28H191V86Z" fill="url(#d)"/><path fill="url(#e)" d="M191 86h55v33h-55z"/><g filter="url(#f)"><rect x="213" y="115" width="136" height="91" rx="4.3" fill="#fff"/><rect x="219" y="148" width="124" height="25.2" rx="2.4" fill="#fff"/><g clip-path="url(#g)" fill="#757575"><path d="m233.6 160.6 1.8-3.4h-1.8v-3h3.6v3l-1.8 3.4h-1.8Z"/><path d="M227.1 155.9a1.7 1.7 0 0 1 1.7-1.7h1.4c.8 0 .8.9 0 .9h-1.4a.8.8 0 0 0-.7.8v9.4a.8.8 0 0 0 .7.8h7.7a.8.8 0 0 0 .7-.8V163a.5.5 0 0 1 1 0v2.4a1.7 1.7 0 0 1-1.7 1.7h-7.7a1.7 1.7 0 0 1-1.7-1.7V156Z"/></g><path d="M253.5 163.3v.8h-3.9v-.8h3.9Zm-3.7-6.5v7.3h-1v-7.3h1Zm3.2 3.2v.7h-3.4v-.7h3.4Zm.4-3.2v.8h-3.8v-.8h3.8Zm1.7 1.9 1.2 2 1.2-2h1.1l-1.8 2.7 1.9 2.7h-1.1l-1.2-2-1.3 2h-1l1.7-2.7-1.7-2.7h1Zm5.4 1v6.5h-.9v-7.5h.8l.1 1Zm3.7 1.7c0 .4 0 .8-.2 1.2 0 .3-.2.6-.4.8a1.9 1.9 0 0 1-1.5.8c-.4 0-.7 0-1-.2-.2 0-.4-.2-.6-.5l-.4-.7c-.2-.3-.2-.7-.3-1v-.6c0-.4.1-.8.3-1.1 0-.3.2-.6.4-.8l.7-.5.9-.2c.3 0 .6 0 .9.2l.6.6.4.8.2 1.2Zm-1 0v-.8a2 2 0 0 0-.3-.6 1.3 1.3 0 0 0-1.1-.6h-.6l-.5.4-.3.5-.1.5v1.3c0 .2.1.5.3.7 0 .2.2.3.4.5l.8.1.6-.1.5-.5.3-.6v-.7Zm2 0v-1.1l.6-1 .7-.5 1-.2c.4 0 .8 0 1 .2.4.1.7.3.9.6l.5.9.1 1v.2l-.1 1-.5 1a2.3 2.3 0 0 1-1.8.7c-.4 0-.8 0-1-.2a2.3 2.3 0 0 1-1.3-1.5l-.2-1Zm.8 0 .1.8c0 .3.2.5.3.7l.5.4.7.1.6-.1.5-.5.3-.6.1-.7v-.2l-.1-.7a2 2 0 0 0-.3-.6l-.5-.5-.6-.1-.7.1-.5.5a2 2 0 0 0-.3.6v.7Zm6.1-1.9v4.6h-1v-5.4h1v.8Zm1.7-.8v.8h-1l-.4.4-.3.4-.1.5-.3.2.1-1 .3-.7.5-.5a1.5 1.5 0 0 1 1.2-.1Zm3.4 0v.7h-3v-.7h3Zm-2-1.3h1V163.2l.3.2h.3a1.4 1.4 0 0 0 .4 0v.7h-.3l-.4.1-.6-.1a1 1 0 0 1-.5-.5l-.2-.8v-5.4Zm7.9 1.3v.7h-3v-.7h3Zm-2-1.3h1V163.2l.3.2h.2a1.4 1.4 0 0 0 .5 0v.7h-.3l-.4.1-.7-.1a1 1 0 0 1-.4-.5l-.2-.8v-5.4Zm2.7 4c0-.4 0-.8.2-1.1 0-.4.2-.7.5-1l.7-.5 1-.2c.4 0 .8 0 1 .2.4.1.6.3.9.6l.5.9.1 1v.2l-.1 1-.5 1a2.3 2.3 0 0 1-1.8.7c-.4 0-.8 0-1-.2a2.3 2.3 0 0 1-1.3-1.5l-.2-1Zm1 0v.8c0 .3.2.5.3.7l.5.4.7.1.6-.1.5-.5.3-.6.1-.7v-.2l-.1-.7a2 2 0 0 0-.3-.6l-.5-.5-.6-.1-.7.1-.5.5a2 2 0 0 0-.3.6v.7Zm12.2.4h1l-.5 1.2c-.2.4-.5.7-.9.9a3 3 0 0 1-1.4.3c-.5 0-.9 0-1.2-.2-.4-.2-.7-.4-.9-.7-.3-.3-.4-.7-.6-1l-.2-1.5v-.7c0-.5 0-1 .2-1.4l.6-1c.3-.3.6-.6 1-.7a3 3 0 0 1 1.1-.3c.6 0 1 .1 1.4.3.4.2.7.5 1 .9.1.4.3.8.3 1.3h-1c0-.4 0-.7-.2-1l-.5-.5-1-.2c-.3 0-.6 0-.8.2-.3.1-.5.3-.6.5l-.4.8-.1 1v1.8l.4.9.6.5.9.2c.4 0 .7 0 1-.2l.5-.5.3-1Zm6.1.5v-.5l-.3-.3-.6-.4-.8-.2-1-.4-.7-.5-.5-.5-.2-.8a1.8 1.8 0 0 1 .7-1.4l.8-.4 1-.2c.5 0 1 .1 1.4.3.4.2.7.5.9.9.2.3.3.6.3 1h-1c0-.3 0-.5-.2-.7 0-.2-.3-.4-.5-.5a2 2 0 0 0-.9-.2 2 2 0 0 0-.9.2c-.2 0-.3.2-.5.4l-.1.6v.4l.4.4.5.3.8.2 1 .4c.4.1.6.3.8.5l.4.6.2.8c0 .2 0 .5-.2.8l-.5.6-.8.4a3.7 3.7 0 0 1-2 0 3 3 0 0 1-1-.5l-.6-.7a2 2 0 0 1-.2-1h1l.1.7c0 .2.2.4.4.5l.6.2a2.8 2.8 0 0 0 1.5 0l.5-.4c.2-.2.2-.4.2-.6Zm4.6.7 2.1-6.2h1l-2.6 7.3h-.8l.3-1.1Zm-2-6.2 2 6.2.3 1.1h-.7l-2.7-7.3h1Z" fill="#000" fill-opacity=".9"/><rect x="219" y="121" width="124" height="25.2" rx="2.4" fill="#fff"/><g clip-path="url(#h)" fill="#757575"><path d="M227 129.1a1.6 1.6 0 0 1 1.6-1.6h1.4c.7 0 .7.9 0 .9h-1.4a.7.7 0 0 0-.7.7v9a.7.7 0 0 0 .7.7h7.3a.7.7 0 0 0 .7-.7v-2.3a.4.4 0 0 1 .9 0v2.3a1.6 1.6 0 0 1-1.6 1.6h-7.3a1.6 1.6 0 0 1-1.6-1.6v-9Z"/><path d="M229.6 129.8h2l.4.3c.2 0 .3.2.3.3l.2.6-.1.6-.3.3-.5.2h-1.1v1.6h-.9v-3.9Zm.9 1.6H231.4l.1-.2.1-.2v-.2l-.2-.2h-.9v.8ZM232.8 129.8h1.1l.9.1c.3 0 .5.2.7.4.2.1.4.3.5.6l.2.9-.2.8-.5.6a2 2 0 0 1-.7.3l-.8.2h-1.2v-3.9Zm.9 3h.8c.1 0 .3 0 .4-.2l.3-.3v-.6a1 1 0 0 0-.3-.8l-.4-.2-.5-.1h-.3v2.3ZM236.6 129.8h2.5v.8h-1.7v.8h1.6v.8h-1.6v1.5h-.8v-3.9Z"/></g><path d="M252.7 136.3v.8h-3.9v-.8h3.9Zm-3.7-6.5v7.3h-1v-7.3h1Zm3.2 3.2v.7h-3.4v-.7h3.4Zm.4-3.2v.8h-3.8v-.8h3.8Zm1.7 1.9 1.2 2 1.2-2h1.1l-1.8 2.7 1.9 2.7h-1.1l-1.2-2-1.3 2h-1l1.7-2.7-1.7-2.7h1Zm5.4 1v6.5h-.9v-7.5h.8l.1 1Zm3.7 1.7c0 .4 0 .8-.2 1.2 0 .3-.2.6-.4.8l-.6.6-1 .2c-.3 0-.6 0-.8-.2-.3 0-.5-.2-.7-.5l-.4-.7c-.2-.3-.2-.7-.3-1v-.6c0-.4.1-.8.3-1.1 0-.3.2-.6.4-.8l.7-.5.9-.2c.3 0 .6 0 .9.2l.6.6.4.8.2 1.2Zm-1 0v-.8a2 2 0 0 0-.3-.6l-.5-.5-.6-.1h-.6l-.5.4-.3.5-.1.5v1.3c0 .2.1.5.3.7 0 .2.2.3.4.5l.8.1.6-.1.5-.5.3-.6v-.7Zm2 0v-1.1l.6-1 .7-.5 1-.2c.4 0 .8 0 1 .2.4.1.7.3.9.6l.5.9.1 1v.2l-.1 1-.5 1a2.3 2.3 0 0 1-1.8.7c-.4 0-.8 0-1-.2a2.3 2.3 0 0 1-1.3-1.5l-.2-1Zm.8 0 .1.8c0 .3.2.5.3.7l.5.4.7.1.6-.1.5-.5.3-.6.1-.7v-.2l-.1-.7a2 2 0 0 0-.3-.6l-.5-.5-.6-.1-.7.1-.5.5a2 2 0 0 0-.3.6v.7Zm6.1-1.9v4.6h-1v-5.4h1v.8Zm1.7-.8v.8h-1l-.4.4-.3.4-.1.5-.3.2.1-1 .3-.7.5-.5a1.5 1.5 0 0 1 1.2-.1Zm3.4 0v.7h-3v-.7h3Zm-2-1.3h1V136.2l.3.2h.3a1.4 1.4 0 0 0 .4 0v.7h-.3l-.4.1-.6-.1a1 1 0 0 1-.5-.5l-.2-.8v-5.4Zm7.9 1.3v.7h-3v-.7h3Zm-2-1.3h1V136.2l.3.2h.2a1.5 1.5 0 0 0 .5 0v.7a2.2 2.2 0 0 1-.7.1l-.7-.1a1 1 0 0 1-.4-.5l-.2-.8v-5.4Zm2.7 4c0-.4 0-.8.2-1.1 0-.4.2-.7.5-1l.7-.5 1-.2c.4 0 .8 0 1 .2.4.1.6.3.9.6l.5.9.1 1v.2l-.1 1-.5 1a2.3 2.3 0 0 1-1.8.7c-.4 0-.8 0-1-.2a2.3 2.3 0 0 1-1.3-1.5l-.2-1Zm1 0v.8c0 .3.2.5.3.7l.5.4.7.1.6-.1.5-.5.3-.6V133.6a2 2 0 0 0-.3-.6l-.5-.5-.6-.1-.7.1-.5.5a2 2 0 0 0-.3.6v.7Zm10.4-.2h-1.9v-.7h2l.9-.2.5-.5.1-.7-.1-.8-.5-.5-1-.2h-1.7v6.5h-1v-7.3h2.7c.6 0 1 .1 1.4.3l1 .8.2 1.1c0 .5-.1 1-.3 1.2-.2.4-.5.6-.9.8-.3.2-.8.2-1.4.2Zm5.8 2.9h-1.5v-.8h1.5c.5 0 1 0 1.3-.3.3-.2.6-.5.8-1l.2-1.3v-.5l-.1-1c-.1-.4-.3-.7-.5-.9-.1-.2-.4-.4-.7-.5l-1-.2h-1.6v-.8h1.7c.5 0 .9.1 1.3.3.4.1.7.3 1 .6l.7 1.1.2 1.4v.5c0 .5 0 1-.2 1.4a3 3 0 0 1-1.7 1.8l-1.4.2Zm-1-7.3v7.3h-1v-7.3h1Zm6.7 0v7.3h-1v-7.3h1Zm3 3.3v.8h-3.2v-.8h3.3Zm.5-3.3v.8h-3.7v-.8h3.7Z" fill="#000" fill-opacity=".9"/><rect x="219" y="146.2" width="124" height="25.2" rx="2.4" fill="#fff"/><path d="m238.2 158.8-2.1-3.2 2-3.2h-1.3l-1.4 2.4-1.4-2.4h-1.4l2.1 3.2-2 3.2h1.3l1.4-2.4 1.4 2.4h1.4Z" fill="#757575"/><path d="M227.1 154a1.7 1.7 0 0 1 1.7-1.6h1.4c.8 0 .8.9 0 .9h-1.4a.8.8 0 0 0-.7.8v9.4a.8.8 0 0 0 .7.8h7.7a.8.8 0 0 0 .7-.8v-2.4a.5.5 0 0 1 1 0v2.4a1.7 1.7 0 0 1-1.7 1.7h-7.7a1.7 1.7 0 0 1-1.7-1.7v-9.4Z" fill="#757575"/><path d="M253.5 161.5v.8h-3.9v-.8h3.9Zm-3.7-6.5v7.3h-1V155h1Zm3.2 3.2v.7h-3.4v-.7h3.4Zm.4-3.2v.8h-3.8v-.8h3.8Zm1.7 1.9 1.2 2 1.2-2h1.1l-1.8 2.7 1.9 2.7h-1.1l-1.2-2-1.3 2h-1l1.7-2.7-1.7-2.7h1Zm5.4 1v6.5h-.9v-7.5h.8l.1 1Zm3.7 1.7c0 .4 0 .8-.2 1.2 0 .3-.2.6-.4.8a1.9 1.9 0 0 1-1.5.8c-.4 0-.7 0-1-.2-.2 0-.4-.2-.6-.5l-.4-.7c-.2-.3-.2-.7-.3-1v-.6c0-.4.1-.8.3-1.1 0-.3.2-.6.4-.8l.7-.5.9-.2c.3 0 .6 0 .9.2l.6.6.4.8.2 1.2Zm-1 0v-.8a2 2 0 0 0-.3-.6 1.3 1.3 0 0 0-1.1-.6h-.6l-.5.4-.3.5-.1.5v1.3c0 .2.1.5.3.7 0 .2.2.3.4.5l.8.1.6-.1.5-.4.3-.7v-.7Zm2 0v-1.1l.6-1 .7-.5 1-.2c.4 0 .8 0 1 .2.4.1.7.3.9.6l.5.9.1 1v.2l-.1 1-.5 1a2.3 2.3 0 0 1-1.8.7c-.4 0-.8 0-1-.2a2.3 2.3 0 0 1-1.3-1.5l-.2-1Zm.8 0 .1.8c0 .3.2.5.3.7l.5.4.7.1.6-.1.5-.4.3-.7.1-.7v-.2l-.1-.7a2 2 0 0 0-.3-.6l-.5-.5-.6-.1-.7.1-.5.5a2 2 0 0 0-.3.6v.7Zm6.1-1.9v4.6h-1v-5.4h1v.8Zm1.7-.8v.8h-1l-.4.4-.3.4-.1.5-.3.2.1-1 .3-.7.5-.5a1.5 1.5 0 0 1 1.2-.1Zm3.4 0v.7h-3v-.7h3Zm-2-1.3h1V161.4l.3.2h.3a1.4 1.4 0 0 0 .4 0v.7h-.3l-.4.1-.6-.1a1 1 0 0 1-.5-.5l-.2-.8v-5.4Zm7.9 1.3v.7h-3v-.7h3Zm-2-1.3h1V161.4l.3.2h.2a1.4 1.4 0 0 0 .5 0v.7h-.3l-.4.1-.7-.1a1 1 0 0 1-.4-.5l-.2-.8v-5.4Zm2.7 4c0-.4 0-.8.2-1.1 0-.4.2-.7.5-1l.7-.5 1-.2c.4 0 .8 0 1 .2.4.1.6.3.9.6l.5.9.1 1v.2l-.1 1-.5 1a2.3 2.3 0 0 1-1.8.7c-.4 0-.8 0-1-.2a2.3 2.3 0 0 1-1.3-1.5l-.2-1Zm1 0v.8c0 .3.2.5.3.7l.5.4.7.1.6-.1.5-.4.3-.7.1-.7v-.2l-.1-.7a2 2 0 0 0-.3-.6l-.5-.5-.6-.1-.7.1-.5.5a2 2 0 0 0-.3.6v.7Zm12.4 2v.7h-3.9v-.8h3.9Zm-3.7-6.6v7.3h-1V155h1Zm3.2 3.2v.7h-3.4v-.7h3.4Zm.4-3.2v.8h-3.8v-.8h3.8Zm1.8 1.9 1.2 2 1.2-2h1l-1.7 2.7 1.8 2.7h-1l-1.3-2-1.3 2h-1l1.8-2.7-1.8-2.7h1Zm6.5 4.7h.6l.5-.5.2-.5h.8c0 .3 0 .6-.3.9a2.2 2.2 0 0 1-1.8.9c-.4 0-.8 0-1-.2l-.8-.6c-.2-.3-.4-.5-.5-.9l-.1-1v-.2l.1-1c.1-.4.3-.7.5-.9l.7-.6 1-.2c.5 0 .9 0 1.2.3.3.1.6.4.7.7.2.2.3.6.3 1h-.8l-.2-.7-.5-.4-.6-.1-.7.1-.5.5-.2.6V160.4l.2.6.5.5.7.1Zm5.4.8c-.4 0-.7 0-1-.2a2.3 2.3 0 0 1-1.3-1.4 3 3 0 0 1-.2-1v-.2l.2-1.2.6-.9a2.3 2.3 0 0 1 2.6-.5c.3.1.5.3.7.6l.4.8.1 1v.5h-4v-.8h3.1l-.1-.8-.4-.5c-.2-.2-.5-.2-.8-.2a1.3 1.3 0 0 0-1 .5 2 2 0 0 0-.3.6l-.1.9V160.5l.4.6a1.5 1.5 0 0 0 1.2.5c.3 0 .6 0 .8-.2.2 0 .4-.3.6-.5l.6.5-.5.5c-.2.1-.4.3-.7.3-.2.2-.5.2-.9.2Zm4.2-7.8v7.7h-1v-7.7h1Z" fill="#000" fill-opacity=".9"/><rect x="219" y="173.2" width="124" height="25.2" rx="2.4" fill="#fff"/><path d="m233.6 185.8 1.8-3.4h-1.8v-3h3.6v3l-1.8 3.4h-1.8Z" fill="#757575"/><path d="M227.1 181a1.7 1.7 0 0 1 1.7-1.6h1.4c.8 0 .8.9 0 .9h-1.4a.8.8 0 0 0-.7.8v9.4a.8.8 0 0 0 .7.8h7.7a.8.8 0 0 0 .7-.8v-2.4a.5.5 0 0 1 1 0v2.4a1.7 1.7 0 0 1-1.7 1.7h-7.7a1.7 1.7 0 0 1-1.7-1.7v-9.4Z" fill="#757575"/><path d="M253.5 188.5v.8h-3.9v-.8h3.9Zm-3.7-6.5v7.3h-1V182h1Zm3.2 3.2v.7h-3.4v-.7h3.4Zm.4-3.2v.8h-3.8v-.8h3.8Zm1.7 1.9 1.2 2 1.2-2h1.1l-1.8 2.7 1.9 2.7h-1.1l-1.2-2-1.3 2h-1l1.7-2.7-1.7-2.7h1Zm5.4 1v6.5h-.9v-7.5h.8l.1 1Zm3.7 1.7c0 .4 0 .8-.2 1.2 0 .3-.2.6-.4.8a1.9 1.9 0 0 1-1.5.8c-.4 0-.7 0-1-.2-.2 0-.4-.2-.6-.5l-.4-.7c-.2-.3-.2-.7-.3-1v-.6c0-.4.1-.8.3-1.1 0-.3.2-.6.4-.8l.7-.5.9-.2c.3 0 .6 0 .9.2l.6.6.4.8.2 1.2Zm-1 0v-.8a2 2 0 0 0-.3-.6 1.3 1.3 0 0 0-1.1-.6h-.6l-.5.4-.3.5-.1.5v1.3c0 .2.1.5.3.7 0 .2.2.3.4.5l.8.1.6-.1.5-.4.3-.7v-.7Zm2 0v-1.1l.6-1 .7-.5 1-.2c.4 0 .8 0 1 .2.4.1.7.3.9.6l.5.9.1 1v.2l-.1 1-.5 1a2.3 2.3 0 0 1-1.8.7c-.4 0-.8 0-1-.2a2.3 2.3 0 0 1-1.3-1.5l-.2-1Zm.8 0 .1.8c0 .3.2.5.3.7l.5.4.7.1.6-.1.5-.4.3-.7.1-.7v-.2l-.1-.7a2 2 0 0 0-.3-.6l-.5-.5-.6-.1-.7.1-.5.5a2 2 0 0 0-.3.6v.7Zm6.1-1.9v4.6h-1v-5.4h1v.8Zm1.7-.8v.8h-1l-.4.4-.3.4-.1.5-.3.2.1-1 .3-.7.5-.5a1.5 1.5 0 0 1 1.2-.1Zm3.4 0v.7h-3v-.7h3Zm-2-1.3h1V188.4l.3.2h.3a1.4 1.4 0 0 0 .4 0v.7h-.3l-.4.1-.6-.1a1 1 0 0 1-.5-.5l-.2-.8v-5.4Zm7.9 1.3v.7h-3v-.7h3Zm-2-1.3h1V188.4l.3.2h.2a1.4 1.4 0 0 0 .5 0v.7h-.3l-.4.1-.7-.1a1 1 0 0 1-.4-.5l-.2-.8v-5.4Zm2.7 4c0-.4 0-.8.2-1.1 0-.4.2-.7.5-1l.7-.5 1-.2c.4 0 .8 0 1 .2.4.1.6.3.9.6l.5.9.1 1v.2l-.1 1-.5 1a2.3 2.3 0 0 1-1.8.7c-.4 0-.8 0-1-.2a2.3 2.3 0 0 1-1.3-1.5l-.2-1Zm1 0v.8c0 .3.2.5.3.7l.5.4.7.1.6-.1.5-.4.3-.7.1-.7v-.2l-.1-.7a2 2 0 0 0-.3-.6l-.5-.5-.6-.1-.7.1-.5.5a2 2 0 0 0-.3.6v.7Zm12.2.4h1l-.5 1.2c-.2.4-.5.7-.9.9a3 3 0 0 1-1.4.3c-.5 0-.9 0-1.2-.2-.4-.2-.7-.4-.9-.7-.3-.3-.4-.7-.6-1l-.2-1.5v-.7c0-.5 0-1 .2-1.4l.6-1c.3-.3.6-.6 1-.7a3 3 0 0 1 1.1-.3c.6 0 1 .1 1.4.3.4.2.7.5 1 .9.1.4.3.8.3 1.3h-1c0-.4 0-.7-.2-1l-.5-.5-1-.2c-.3 0-.6 0-.8.2-.3.1-.5.3-.6.5l-.4.8-.1 1v1.8l.4.9.6.5.9.2c.4 0 .7 0 1-.2l.5-.5.3-1Zm6.1.5v-.5l-.3-.3-.6-.4-.8-.2-1-.4-.7-.5-.5-.5-.2-.8a1.8 1.8 0 0 1 .7-1.4l.8-.4 1-.2c.5 0 1 .1 1.4.3.4.2.7.5.9.9.2.3.3.6.3 1h-1c0-.3 0-.5-.2-.7 0-.2-.3-.4-.5-.5a2 2 0 0 0-.9-.2 2 2 0 0 0-.9.2c-.2 0-.3.2-.5.4l-.1.6v.4l.4.4.5.3.8.2 1 .4c.4.1.6.3.8.5l.4.6.2.8c0 .2 0 .5-.2.8l-.5.6-.8.4a3.7 3.7 0 0 1-2 0 3 3 0 0 1-1-.5l-.6-.7a2 2 0 0 1-.2-1h1l.1.7c0 .2.2.4.4.5l.6.2a2.8 2.8 0 0 0 1.5 0l.5-.4c.2-.2.2-.4.2-.6Zm4.6.7 2.1-6.2h1l-2.6 7.3h-.8l.3-1.1Zm-2-6.2 2 6.2.3 1.1h-.7l-2.7-7.3h1Z" fill="#000" fill-opacity=".9"/></g><g clip-path="url(#i)" fill="#757575"><path d="M260.7 98.5c.2 0 .4.1.4.3v4.9l1.7-1.8a.4.4 0 0 1 .5.5l-2.3 2.4h-.5l-2.4-2.4a.4.4 0 1 1 .5-.5l1.7 1.8v-4.9c0-.2.2-.3.4-.3Z"/><path d="M257.1 104.9a.4.4 0 0 0-.7 0v1.9a1.3 1.3 0 0 0 1.3 1.3h6a1.3 1.3 0 0 0 1.3-1.3v-2a.4.4 0 1 0-.7 0v2a.6.6 0 0 1-.6.6h-6a.6.6 0 0 1-.6-.6v-2Z"/></g><g filter="url(#j)"><mask id="k" maskUnits="userSpaceOnUse" x="300" y="99" width="23" height="27" fill="#000"><path fill="#fff" d="M300 99h23v27h-23z"/><path fill-rule="evenodd" clip-rule="evenodd" d="M307.3 114.7 306 113a3.1 3.1 0 0 0-4-1l.4-.2c-.3.1-.5.6-.3 1l1.6 4.3c.3.7 1 1.7 1.5 2.1 0 0 3.4 2.9 3.4 3.9v1.3h5.5l1.4-2.7 1.4 2.7h1.3V123c0-1 2.1-4.4 2.1-4.4.4-.6.7-1.7.7-2.5v-5.5c0-1.3-1-2.3-2.4-2.3-.6 0-1.1.5-1.1 1.2v.4c0-1.2-1-2.2-2.3-2.2-.7 0-1.2.5-1.2 1v.5c0-1.2-1-2.2-2.3-2.2-.7 0-1.2.5-1.2 1.1v.5-.5l-.4-5.7c0-.8-.7-1.4-1.5-1.4-.7 0-1.3.6-1.3 1.4v12.3Zm9.6-1.3h1.4v5.4h-1.4v-5.4Zm-2.8 0h1.4v5.4h-1.4v-5.4Zm-2.7 0h1.4v5.4h-1.4v-5.4Z"/></mask><path fill-rule="evenodd" clip-rule="evenodd" d="M307.3 114.7 306 113a3.1 3.1 0 0 0-4-1l.4-.2c-.3.1-.5.6-.3 1l1.6 4.3c.3.7 1 1.7 1.5 2.1 0 0 3.4 2.9 3.4 3.9v1.3h5.5l1.4-2.7 1.4 2.7h1.3V123c0-1 2.1-4.4 2.1-4.4.4-.6.7-1.7.7-2.5v-5.5c0-1.3-1-2.3-2.4-2.3-.6 0-1.1.5-1.1 1.2v.4c0-1.2-1-2.2-2.3-2.2-.7 0-1.2.5-1.2 1v.5c0-1.2-1-2.2-2.3-2.2-.7 0-1.2.5-1.2 1.1v.5-.5l-.4-5.7c0-.8-.7-1.4-1.5-1.4-.7 0-1.3.6-1.3 1.4v12.3Zm9.6-1.3h1.4v5.4h-1.4v-5.4Zm-2.8 0h1.4v5.4h-1.4v-5.4Zm-2.7 0h1.4v5.4h-1.4v-5.4Z" fill="#fff"/><path d="m307.3 114.7-1 .6 2 3.2v-3.8h-1ZM306 113l1-.6-1 .6Zm-4-.3-1 .4 1-.4Zm1.7 4.4 1-.4-1 .4Zm1.5 2.1-.7.9.7-.9Zm3.4 5.2h-1v1.1h1v-1Zm5.5 0v1.1h.7l.3-.6-1-.5Zm1.4-2.7 1-.5-1-2-1 2 1 .5Zm1.4 2.7-1 .5.3.6h.7v-1Zm1.3 0v1.1h1.1v-1h-1Zm2.1-5.7 1 .6-1-.6Zm.7-8h1.1-1.1Zm-10.6-2.5h-1V108.5l1-.3Zm-.3-5.7H309h1Zm-2.8 0H306h1.2Zm11 11h1v-1.2h-1v1.2Zm0 5.4v1.2h1v-1.2h-1Zm-1.4 0h-1.1v1.2h1v-1.2Zm0-5.4v-1.2h-1.1v1.2h1Zm-1.4 0h1.1v-1.2h-1v1.2Zm0 5.4v1.2h1.1v-1.2h-1Zm-1.4 0h-1v1.2h1v-1.2Zm0-5.4v-1.2h-1v1.2h1Zm-1.3 0h1v-1.2h-1v1.2Zm0 5.4v1.2h1v-1.2h-1Zm-1.4 0h-1.1v1.2h1.1v-1.2Zm0-5.4v-1.2h-1.1v1.2h1.1Zm-3.2.7-1.2-1.8-1.9 1.2 1.2 1.8 1.9-1.2Zm-1.2-1.8a4.2 4.2 0 0 0-5.4-1.5l1 2a2 2 0 0 1 2.5.7l1.9-1.2Zm-4.4.5.3-.1-1-2-.3.1 1 2Zm-.7-2.1c-.9.4-1.2 1.5-.9 2.3l2-.8v.5l-1.1-2Zm-.9 2.3 1.7 4.4 2-.8-1.6-4.4-2 .8Zm1.7 4.4c.3.8 1.1 2 1.8 2.6l1.5-1.7c-.4-.4-1-1.2-1.2-1.7l-2.1.8Zm2.5 1.7-.7.9a8.5 8.5 0 0 0 .5.4 27.7 27.7 0 0 1 2.5 2.6c0 .2 0 .1 0 0h2.2l-.2-1-.5-.7a14.3 14.3 0 0 0-2.5-2.5l-.4-.4h-.1v-.1l-.8.8Zm2.3 3.9v1.3h2.2V123h-2.2Zm1.1 2.4h5.5v-2.2h-5.5v2.2Zm6.5-.6 1.4-2.7-2-1-1.4 2.7 2 1Zm-.6-2.7 1.4 2.7 2-1-1.4-2.7-2 1Zm2.4 3.3h1.3v-2.2H317v2.2Zm2.4-1V123h-2.2v1.3h2.2Zm0-1.4v-.2l.3-.5a17 17 0 0 1 1.3-2.6l.3-.3v-.1l-.9-.7-1-.6v.2a36 36 0 0 0-1.8 3.2c-.2.5-.4 1-.4 1.6h2.2Zm2-3.8.6-1.5.2-1.6H320c0 .3 0 .6-.2 1 0 .4-.2.8-.4 1l2 1.1Zm.8-3v-5.6H320v5.5h2.2Zm0-5.7c0-1.8-1.6-3.3-3.5-3.3v2.3c.8 0 1.3.5 1.3 1h2.2Zm-3.5-3.3c-1.2 0-2.2 1-2.2 2.3h2.2v-2.3Zm-2.2 2.3v.4h2.2v-.4h-2.2Zm2.2.4c0-1.9-1.6-3.3-3.4-3.3v2.2c.7 0 1.2.5 1.2 1.1h2.2Zm-3.4-3.3c-1.2 0-2.3 1-2.3 2.2h2.2v-2.2Zm-2.3 2.2v.4h2.2v-.4H313Zm2.2.4c0-1.9-1.6-3.3-3.4-3.3v2.2c.7 0 1.2.6 1.2 1.1h2.2Zm-3.4-3.3c-1.2 0-2.3 1-2.3 2.2h2.2V106Zm-2.3 2.2v.5h2.2v-.5h-2.2Zm2.2.5-.1-.9-2.1.7v.2h2.2Zm0-.6-.4-5.7-2.2.1.3 5.8 2.3-.2Zm-.4-5.7c0-1.4-1.2-2.4-2.6-2.4v2.2c.2 0 .4.2.4.3h2.2Zm-2.6-2.4a2.5 2.5 0 0 0-2.5 2.5h2.3c0-.2 0-.3.2-.3V100Zm-2.5 2.5v5.5h2.3v-5.5H306Zm0 5.5v6.8h2.3V108H306Zm10.8 6.6h1.4v-2.3h-1.4v2.3Zm.2-1.1v5.4h2.3v-5.4H317Zm1.2 4.3h-1.4v2.3h1.4v-2.3Zm-.3 1.1v-5.4h-2.2v5.4h2.2Zm-3.9-4.3h1.4v-2.3h-1.4v2.3Zm.3-1.1v5.4h2.2v-5.4h-2.2Zm1.1 4.3h-1.4v2.3h1.4v-2.3Zm-.2 1.1v-5.4H313v5.4h2.3Zm-3.9-4.3h1.4v-2.3h-1.4v2.3Zm.3-1.1v5.4h2.2v-5.4h-2.2Zm1 4.3h-1.3v2.3h1.4v-2.3Zm-.2 1.1v-5.4h-2.2v5.4h2.2Z" fill="#000" fill-opacity=".8" mask="url(#k)"/></g><path d="M277.3 106.2v.8h-3.7v-.8h3.7Zm-3.5-6.3v7.1h-1v-7.1h1Zm3 3v.8h-3.2v-.8h3.2Zm.5-3v.8h-3.7v-.8h3.7Zm1.7 1.8 1.1 2 1.2-2h1l-1.7 2.6 1.8 2.7h-1l-1.2-2-1.3 2h-1l1.8-2.7-1.8-2.6h1Zm5.2 1v6.3h-.9v-7.3h.9v1Zm3.6 1.6v.1l-.1 1-.4 1a1.8 1.8 0 0 1-1.6.7c-.3 0-.6 0-.8-.2-.3 0-.5-.2-.7-.5l-.4-.7-.2-1v-.6c0-.4 0-.7.2-1 0-.3.2-.6.4-.8l.7-.5.8-.2c.4 0 .7 0 1 .2l.6.6.4.8.1 1.1Zm-1 .1v-.8c0-.3-.1-.5-.3-.6a1.2 1.2 0 0 0-1-.6l-.6.1c-.2 0-.3.2-.5.3l-.2.5-.2.5v1.2c0 .3.2.5.3.7 0 .2.2.4.4.5l.8.2c.2 0 .4 0 .6-.2l.4-.4.3-.6v-.8Zm2 0v-1.2c.2-.3.3-.6.6-.8l.7-.6 1-.2c.4 0 .7 0 1 .2.3.2.6.3.8.6l.5.8.1 1.1v.1l-.1 1-.5 1a2.2 2.2 0 0 1-1.8.7c-.4 0-.7 0-1-.2-.3-.1-.5-.3-.7-.6-.3-.2-.4-.5-.5-.8l-.2-1Zm.8 0 .1.8.3.6.5.4.6.2c.3 0 .5 0 .7-.2l.4-.4.3-.6.1-.8v-.8l-.4-.7-.4-.4-.7-.1a1.3 1.3 0 0 0-1.1.5 2 2 0 0 0-.3.7v.7Zm6-1.9v4.5h-1v-5.3h1v.8Zm1.6-.8v.8h-1l-.4.4-.3.4v.5l-.3.2v-1l.4-.7c0-.2.3-.4.5-.5a1.4 1.4 0 0 1 1.1-.1Zm3.3 0v.7h-2.9v-.7h2.9Zm-1.9-1.3h1v5.7l.2.2h.3a1.5 1.5 0 0 0 .4 0v.7h-.3l-.4.1-.6-.1a1 1 0 0 1-.4-.5l-.2-.8v-5.3Z" fill="#757575"/></g><defs><clipPath id="a"><path fill="#fff" d="M0 0h364v416H0z"/></clipPath><clipPath id="c"><rect x="30" y="86" width="305" height="224" rx="5" fill="#fff"/></clipPath><clipPath id="g"><path fill="#fff" transform="translate(225.3 153.3)" d="M0 0h14.7v14.7H0z"/></clipPath><clipPath id="h"><path fill="#fff" transform="translate(225.3 126.7)" d="M0 0h13.9v13.9H0z"/></clipPath><clipPath id="i"><path fill="#fff" transform="translate(255 97.4)" d="M0 0h11.4v11.4H0z"/></clipPath><filter id="b" x="9.8" y="75.9" width="345.5" height="264.5" filterUnits="userSpaceOnUse" color-interpolation-filters="sRGB"><feFlood flood-opacity="0" result="BackgroundImageFix"/><feColorMatrix in="SourceAlpha" values="0 0 0 0 0 0 0 0 0 0 0 0 0 0 0 0 0 0 127 0" result="hardAlpha"/><feOffset dy="10.1"/><feGaussianBlur stdDeviation="10.1"/><feComposite in2="hardAlpha" operator="out"/><feColorMatrix values="0 0 0 0 0.110417 0 0 0 0 0.117708 0 0 0 0 0.125 0 0 0 0.05 0"/><feBlend in2="BackgroundImageFix" result="effect1_dropShadow_12050_149329"/><feBlend in="SourceGraphic" in2="effect1_dropShadow_12050_149329" result="shape"/></filter><filter id="f" x="167.1" y="98.5" width="227.9" height="182.9" filterUnits="userSpaceOnUse" color-interpolation-filters="sRGB"><feFlood flood-opacity="0" result="BackgroundImageFix"/><feColorMatrix in="SourceAlpha" values="0 0 0 0 0 0 0 0 0 0 0 0 0 0 0 0 0 0 127 0" result="hardAlpha"/><feOffset dy="1.6"/><feGaussianBlur stdDeviation=".6"/><feColorMatrix values="0 0 0 0 0 0 0 0 0 0 0 0 0 0 0 0 0 0 0.0196802 0"/><feBlend in2="BackgroundImageFix" result="effect1_dropShadow_12050_149329"/><feColorMatrix in="SourceAlpha" values="0 0 0 0 0 0 0 0 0 0 0 0 0 0 0 0 0 0 127 0" result="hardAlpha"/><feOffset dy="2.8"/><feGaussianBlur stdDeviation="1.5"/><feColorMatrix values="0 0 0 0 0 0 0 0 0 0 0 0 0 0 0 0 0 0 0.0282725 0"/><feBlend in2="effect1_dropShadow_12050_149329" result="effect2_dropShadow_12050_149329"/><feColorMatrix in="SourceAlpha" values="0 0 0 0 0 0 0 0 0 0 0 0 0 0 0 0 0 0 127 0" result="hardAlpha"/><feOffset dy="-2.8"/><feGaussianBlur stdDeviation="2.9"/><feColorMatrix values="0 0 0 0 0 0 0 0 0 0 0 0 0 0 0 0 0 0 0.035 0"/><feBlend in2="effect2_dropShadow_12050_149329" result="effect3_dropShadow_12050_149329"/><feColorMatrix in="SourceAlpha" values="0 0 0 0 0 0 0 0 0 0 0 0 0 0 0 0 0 0 127 0" result="hardAlpha"/><feOffset dy="22.8"/><feGaussianBlur stdDeviation="5.1"/><feColorMatrix values="0 0 0 0 0 0 0 0 0 0 0 0 0 0 0 0 0 0 0.0417275 0"/><feBlend in2="effect3_dropShadow_12050_149329" result="effect4_dropShadow_12050_149329"/><feColorMatrix in="SourceAlpha" values="0 0 0 0 0 0 0 0 0 0 0 0 0 0 0 0 0 0 127 0" result="hardAlpha"/><feOffset dy="24"/><feGaussianBlur stdDeviation="9.6"/><feColorMatrix values="0 0 0 0 0 0 0 0 0 0 0 0 0 0 0 0 0 0 0.0503198 0"/><feBlend in2="effect4_dropShadow_12050_149329" result="effect5_dropShadow_12050_149329"/><feColorMatrix in="SourceAlpha" values="0 0 0 0 0 0 0 0 0 0 0 0 0 0 0 0 0 0 127 0" result="hardAlpha"/><feOffset dy="29.4"/><feGaussianBlur stdDeviation="23"/><feColorMatrix values="0 0 0 0 0 0 0 0 0 0 0 0 0 0 0 0 0 0 0.07 0"/><feBlend in2="effect5_dropShadow_12050_149329" result="effect6_dropShadow_12050_149329"/><feBlend in="SourceGraphic" in2="effect6_dropShadow_12050_149329" result="shape"/></filter><filter id="j" x="297.5" y="97.7" width="27.9" height="32.2" filterUnits="userSpaceOnUse" color-interpolation-filters="sRGB"><feFlood flood-opacity="0" result="BackgroundImageFix"/><feColorMatrix in="SourceAlpha" values="0 0 0 0 0 0 0 0 0 0 0 0 0 0 0 0 0 0 127 0" result="hardAlpha"/><feOffset dy="1.1"/><feGaussianBlur stdDeviation="1.7"/><feColorMatrix values="0 0 0 0 0 0 0 0 0 0 0 0 0 0 0 0 0 0 0.2 0"/><feBlend in2="BackgroundImageFix" result="effect1_dropShadow_12050_149329"/><feBlend in="SourceGraphic" in2="effect1_dropShadow_12050_149329" result="shape"/></filter><linearGradient id="d" x1="273" y1="119" x2="273.5" y2="86" gradientUnits="userSpaceOnUse"><stop stop-color="#EEE" stop-opacity=".3"/><stop offset="1" stop-color="#EEE" stop-opacity="0"/></linearGradient><linearGradient id="e" x1="191" y1="103" x2="246" y2="103" gradientUnits="userSpaceOnUse"><stop stop-color="#fff"/><stop offset="1" stop-color="#fff" stop-opacity="0"/></linearGradient></defs></svg>