<svg width="364" height="416" fill="none" xmlns="http://www.w3.org/2000/svg"><g clip-path="url(#a)"><circle opacity=".3" cx="182" cy="208" r="216.5" stroke="#fff"/><circle opacity=".3" cx="182" cy="208" r="144.5" stroke="#fff"/><circle opacity=".3" cx="182" cy="208" r="77.5" stroke="#fff"/><g filter="url(#b)"><circle cx="276.65" cy="208.35" r="52.57" transform="rotate(45 276.65 208.35)" fill="#fff"/></g><path d="M305.08 201.74c-2-3.55-5.03-8.06-9.19-12.2a56.45 56.45 0 0 0-12.24-9.17 13.36 13.36 0 0 0-13.09 0c-3.56 2-8.08 5.02-12.24 9.17a56.27 56.27 0 0 0-9.19 12.2c-2.28 4.06-2.28 9 0 13.05a57 57 0 0 0 9.2 12.2 50.52 50.52 0 0 0 3.7 3.36v-22.07a15.06 15.06 0 0 1 30.13 0 15.06 15.06 0 0 1-24.31 11.84v14.4c.93.6 1.84 1.13 2.69 1.61a13.36 13.36 0 0 0 13.08 0c3.57-2 8.09-5.01 12.25-9.16a56.35 56.35 0 0 0 9.18-12.2c2.32-4 2.32-8.97.03-13.03Z" fill="#26D37C"/><path d="M286.36 208.28a9.25 9.25 0 0 0-18.49 0 9.25 9.25 0 0 0 18.49 0Z" fill="#26D37C"/><g filter="url(#c)"><circle cx="87.35" cy="208.35" r="52.57" transform="rotate(45 87.35 208.35)" fill="#fff"/></g><path d="M101.5 193.86H72.4v29.1h29.1v-29.1Z" fill="#fff"/><path d="m101.5 236.34 13.38-13.38H101.5v13.38Z" fill="#F72A25"/><path d="M114.88 193.86H101.5v29.1h13.38v-29.1Z" fill="#FBBC04"/><path d="M101.5 222.96H72.4v13.38h29.1v-13.38Z" fill="#34A853"/><path d="M59.02 222.96v8.92c0 2.46 2 4.46 4.46 4.46h8.93v-13.38H59.02Z" fill="#188038"/><path d="M114.88 193.86v-8.92c0-2.46-2-4.46-4.46-4.46h-8.92v13.38h13.38Z" fill="#1967D2"/><path d="M101.5 180.48H63.42a4.4 4.4 0 0 0-4.4 4.4v38.08H72.2v-29.3h29.3v-13.18Z" fill="#4285F4"/><path d="M78.2 216.6a5.72 5.72 0 0 1-2.3-3.29l2.58-1.06a3.9 3.9 0 0 0 1.23 2.07c.58.49 1.29.73 2.11.73.85 0 1.57-.26 2.18-.77.6-.51.91-1.16.91-1.95 0-.8-.32-1.47-.96-1.98a3.72 3.72 0 0 0-2.4-.76h-1.5v-2.55h1.34c.83 0 1.53-.22 2.1-.67a2.2 2.2 0 0 0 .84-1.83c0-.68-.25-1.23-.76-1.64a2.94 2.94 0 0 0-1.92-.62c-.76 0-1.37.2-1.81.6-.45.4-.78.92-.98 1.49l-2.55-1.06c.34-.96.96-1.8 1.87-2.53a5.42 5.42 0 0 1 3.49-1.1c1.04 0 1.99.2 2.82.6.83.41 1.49.97 1.96 1.68.48.72.71 1.52.71 2.4 0 .91-.22 1.68-.66 2.31a4.53 4.53 0 0 1-1.62 1.45v.15c.83.34 1.55.9 2.08 1.61.54.73.8 1.59.8 2.6 0 1-.25 1.9-.76 2.7a5.36 5.36 0 0 1-2.13 1.86 6.7 6.7 0 0 1-6.67-.44Zm15.86-12.76-2.83 2.04-1.42-2.14 5.08-3.65h1.95v17.23h-2.78v-13.48Z" fill="#1A73E8"/><path d="M163.07 186.84a28.1 28.1 0 0 1 36.37-.95l-8.32.31a1.92 1.92 0 0 0 .07 3.85h.07l12.78-.47a1.93 1.93 0 0 0 1.87-1.93V187.44l-.48-12.58a1.93 1.93 0 0 0-2-1.85c-1.08.04-1.9.93-1.87 2l.3 7.88a31.58 31.58 0 0 0-18.46-7.03 31.66 31.66 0 0 0-22.93 8.14 31.55 31.55 0 0 0-9.57 30.95 1.93 1.93 0 0 0 2.34 1.41 1.93 1.93 0 0 0 1.41-2.32c-2.4-9.93.8-20.34 8.42-27.19ZM213.27 200.87a1.93 1.93 0 0 0-3.75.91 27.69 27.69 0 0 1-8.42 27.19 27.94 27.94 0 0 1-18.73 7.17 28 28 0 0 1-17.87-6.4l8.42-.76a1.93 1.93 0 1 0-.35-3.83l-12.75 1.14a1.92 1.92 0 0 0-1.75 2.1l1.15 12.66c.09 1 .93 1.76 1.92 1.76.06 0 .12 0 .17-.02a1.92 1.92 0 0 0 1.75-2.1l-.69-7.7a31.7 31.7 0 0 0 20.01 7 31.73 31.73 0 0 0 30.89-39.12Z" fill="#fff"/></g><defs><filter id="b" x="178.15" y="139.26" width="197" height="197" filterUnits="userSpaceOnUse" color-interpolation-filters="sRGB"><feFlood flood-opacity="0" result="BackgroundImageFix"/><feColorMatrix in="SourceAlpha" values="0 0 0 0 0 0 0 0 0 0 0 0 0 0 0 0 0 0 127 0" result="hardAlpha"/><feOffset dy="29.41"/><feGaussianBlur stdDeviation="22.96"/><feColorMatrix values="0 0 0 0 0 0 0 0 0 0 0 0 0 0 0 0 0 0 0.07 0"/><feBlend in2="BackgroundImageFix" result="effect1_dropShadow_12291_149674"/><feBlend in="SourceGraphic" in2="effect1_dropShadow_12291_149674" result="shape"/></filter><filter id="c" x="-11.15" y="139.26" width="197" height="197" filterUnits="userSpaceOnUse" color-interpolation-filters="sRGB"><feFlood flood-opacity="0" result="BackgroundImageFix"/><feColorMatrix in="SourceAlpha" values="0 0 0 0 0 0 0 0 0 0 0 0 0 0 0 0 0 0 127 0" result="hardAlpha"/><feOffset dy="29.41"/><feGaussianBlur stdDeviation="22.96"/><feColorMatrix values="0 0 0 0 0 0 0 0 0 0 0 0 0 0 0 0 0 0 0.07 0"/><feBlend in2="BackgroundImageFix" result="effect1_dropShadow_12291_149674"/><feBlend in="SourceGraphic" in2="effect1_dropShadow_12291_149674" result="shape"/></filter><clipPath id="a"><path fill="#fff" d="M0 0h364v416H0z"/></clipPath></defs></svg>