<svg width="364" height="416" fill="none" xmlns="http://www.w3.org/2000/svg"><g clip-path="url(#a)"><circle opacity=".4" cx="301.5" cy="128.5" r="65.03" stroke="#fff" stroke-width=".94"/><circle opacity=".4" cx="301.5" cy="128.5" r="152.03" stroke="#fff" stroke-width=".94"/><circle opacity=".4" cx="301.5" cy="128.5" r="246.03" stroke="#fff" stroke-width=".94"/><g filter="url(#b)"><g clip-path="url(#c)"><rect x="26" y="106" width="311" height="218" rx="5" fill="#fff"/><path d="M37.08 166.67v.88c0 .47-.04.86-.13 1.19-.08.32-.2.58-.36.78-.16.2-.35.34-.57.43-.22.09-.47.13-.75.13-.22 0-.42-.03-.61-.08a1.45 1.45 0 0 1-.5-.27 1.6 1.6 0 0 1-.38-.48c-.1-.2-.19-.44-.24-.72a5.16 5.16 0 0 1-.09-.98v-.88c0-.47.05-.86.13-1.18.09-.32.2-.57.37-.77.15-.19.34-.33.56-.41a2.17 2.17 0 0 1 1.36-.04 1.38 1.38 0 0 1 .89.71c.1.2.18.43.24.71.05.28.08.6.08.98Zm-.73 1v-1.12c0-.26-.02-.48-.05-.68-.03-.2-.07-.36-.13-.5a1 1 0 0 0-.22-.34.77.77 0 0 0-.3-.2 1.1 1.1 0 0 0-.39-.06c-.17 0-.32.04-.46.1a.82.82 0 0 0-.34.3c-.09.15-.15.33-.2.56-.05.22-.07.5-.07.82v1.12c0 .25.01.48.04.68.03.2.08.37.14.51.06.14.13.26.22.35.09.1.19.16.3.2.11.05.24.07.38.07.18 0 .34-.03.47-.1a.85.85 0 0 0 .34-.32c.09-.15.16-.34.2-.57.05-.23.07-.5.07-.82Zm2.83 1.72h.08c.42 0 .76-.06 1.02-.18s.47-.28.6-.48c.15-.2.25-.42.3-.67.05-.25.08-.51.08-.78v-.88c0-.26-.03-.49-.1-.69-.05-.2-.13-.37-.24-.5a1.1 1.1 0 0 0-.35-.32.87.87 0 0 0-.42-.1.95.95 0 0 0-.79.38c-.08.12-.15.26-.2.42a1.9 1.9 0 0 0 .19 1.47 1 1 0 0 0 .32.3c.13.08.28.11.46.11.16 0 .32-.03.46-.1a1.3 1.3 0 0 0 .77-1.08h.34a1.97 1.97 0 0 1-1.02 1.64c-.2.1-.43.15-.67.15a1.48 1.48 0 0 1-1.25-.6 2.02 2.02 0 0 1-.3-.62 2.6 2.6 0 0 1 .03-1.47c.07-.23.19-.44.34-.63.15-.18.33-.32.55-.43.23-.1.48-.15.77-.15.33 0 .61.07.84.2.24.13.42.3.57.53.15.22.25.47.32.74.07.28.1.56.1.85v.27c0 .3-.02.6-.05.9-.04.3-.11.6-.22.88a2.13 2.13 0 0 1-1.25 1.27c-.33.12-.73.19-1.2.19h-.08v-.62Zm4.3.22c0-.12.04-.22.12-.3.07-.1.19-.14.33-.14.15 0 .26.05.34.13.08.09.12.19.12.31 0 .13-.04.23-.12.31-.08.09-.19.13-.34.13-.14 0-.26-.05-.33-.13a.44.44 0 0 1-.12-.3Zm0-3.48c0-.12.04-.22.12-.31.08-.09.2-.13.34-.13.15 0 .26.04.33.13.08.09.12.19.12.31s-.04.22-.12.3c-.07.1-.18.14-.33.14-.15 0-.26-.05-.34-.13a.44.44 0 0 1-.12-.3Zm5.95.54v.88c0 .47-.04.86-.13 1.19-.08.32-.2.58-.36.78-.16.2-.35.34-.57.43-.22.09-.47.13-.75.13-.22 0-.43-.03-.61-.08a1.45 1.45 0 0 1-.5-.27 1.6 1.6 0 0 1-.39-.48c-.1-.2-.18-.44-.24-.72a5.17 5.17 0 0 1-.08-.98v-.88c0-.47.04-.86.13-1.18.08-.32.2-.57.36-.77.16-.19.35-.33.57-.41a2.17 2.17 0 0 1 1.36-.04 1.38 1.38 0 0 1 .89.71c.1.2.18.43.24.71.05.28.08.6.08.98Zm-.73 1v-1.12c0-.26-.02-.48-.05-.68-.03-.2-.07-.36-.13-.5a1 1 0 0 0-.22-.34.77.77 0 0 0-.3-.2 1.1 1.1 0 0 0-.39-.06c-.17 0-.33.04-.46.1a.82.82 0 0 0-.34.3c-.09.15-.16.33-.2.56-.05.22-.08.5-.08.82v1.12c0 .25.02.48.05.68.03.2.08.37.14.51.06.14.13.26.22.35.08.1.18.16.3.2.11.05.24.07.38.07.18 0 .33-.03.47-.1a.85.85 0 0 0 .33-.32c.1-.15.16-.34.2-.57.05-.23.08-.5.08-.82Zm5.7-1v.88c0 .47-.03.86-.12 1.19-.08.32-.2.58-.36.78-.16.2-.35.34-.57.43-.22.09-.47.13-.75.13-.22 0-.43-.03-.61-.08a1.44 1.44 0 0 1-.5-.27 1.61 1.61 0 0 1-.39-.48c-.1-.2-.18-.44-.24-.72a5.17 5.17 0 0 1-.08-.98v-.88c0-.47.04-.86.13-1.18.08-.32.2-.57.36-.77.16-.19.35-.33.57-.41.22-.09.47-.13.75-.13.22 0 .43.03.61.08a1.39 1.39 0 0 1 .88.72c.1.2.19.43.24.71.06.28.09.6.09.98Zm-.73 1v-1.12c0-.26-.01-.48-.04-.68-.03-.2-.08-.36-.13-.5a1 1 0 0 0-.22-.34.77.77 0 0 0-.3-.2 1.1 1.1 0 0 0-.39-.06c-.17 0-.33.04-.46.1a.82.82 0 0 0-.34.3c-.09.15-.16.33-.2.56-.05.22-.08.5-.08.82v1.12c0 .25.02.48.05.68.03.2.07.37.13.51.07.14.14.26.23.35.08.1.18.16.3.2.11.05.24.07.38.07.18 0 .33-.03.47-.1a.85.85 0 0 0 .33-.32c.1-.15.16-.34.2-.57.05-.23.07-.5.07-.82ZM35.87 264.23V270h-.72v-4.86l-1.48.54v-.66l2.09-.8h.11Zm4.98 0V270h-.73v-4.86l-1.47.54v-.66l2.09-.8h.11Zm2.63 5.38c0-.12.04-.22.12-.3.07-.1.19-.14.33-.14.15 0 .26.04.34.13.08.09.12.19.12.31 0 .13-.04.23-.12.31-.08.08-.19.13-.34.13-.14 0-.26-.05-.33-.13a.44.44 0 0 1-.12-.3Zm0-3.48c0-.12.04-.23.12-.31.08-.09.2-.13.34-.13.15 0 .26.04.33.13.08.08.12.19.12.31s-.04.23-.12.3c-.07.1-.18.14-.33.14-.15 0-.26-.05-.34-.13a.44.44 0 0 1-.12-.3Zm5.95.54v.88c0 .47-.04.87-.13 1.19-.08.32-.2.58-.36.78-.16.2-.35.34-.57.43-.22.09-.47.13-.75.13-.22 0-.43-.03-.61-.08a1.45 1.45 0 0 1-.5-.27 1.6 1.6 0 0 1-.39-.48c-.1-.2-.18-.44-.24-.72a5.17 5.17 0 0 1-.08-.98v-.88c0-.47.04-.86.13-1.18.08-.32.2-.57.36-.77.16-.19.35-.33.57-.41a2.17 2.17 0 0 1 1.36-.04 1.38 1.38 0 0 1 .89.71c.1.2.18.43.24.71.05.28.08.6.08.98Zm-.73 1v-1.12c0-.26-.02-.48-.05-.68-.03-.2-.07-.36-.13-.5a1 1 0 0 0-.22-.34.77.77 0 0 0-.3-.2 1.1 1.1 0 0 0-.39-.06c-.17 0-.33.04-.46.1a.82.82 0 0 0-.34.3c-.09.15-.16.33-.2.56-.05.22-.08.5-.08.82v1.12c0 .25.02.48.05.68.03.2.08.37.14.51.06.14.13.26.22.35.08.1.18.16.3.2.11.05.24.07.38.07.18 0 .33-.04.47-.1a.85.85 0 0 0 .33-.32c.1-.15.16-.34.2-.57.05-.23.08-.5.08-.82Zm5.7-1v.88c0 .47-.03.87-.12 1.19-.08.32-.2.58-.36.78-.16.2-.35.34-.57.43-.22.09-.47.13-.75.13-.22 0-.43-.03-.61-.08a1.44 1.44 0 0 1-.5-.27 1.61 1.61 0 0 1-.39-.48c-.1-.2-.18-.44-.24-.72a5.17 5.17 0 0 1-.08-.98v-.88c0-.47.04-.86.13-1.18.08-.32.2-.57.36-.77.16-.19.35-.33.57-.41.22-.09.47-.13.75-.13.22 0 .43.03.61.08a1.39 1.39 0 0 1 .88.72c.1.2.19.43.24.71.06.28.09.6.09.98Zm-.73 1v-1.12c0-.26-.01-.48-.04-.68-.03-.2-.08-.36-.13-.5a1 1 0 0 0-.22-.34.77.77 0 0 0-.3-.2 1.1 1.1 0 0 0-.39-.06c-.17 0-.33.04-.46.1a.82.82 0 0 0-.34.3c-.09.15-.16.33-.2.56-.05.22-.08.5-.08.82v1.12c0 .25.02.48.05.68.03.2.07.37.13.51.07.14.14.26.23.35.08.1.18.16.3.2.11.05.24.07.38.07.18 0 .33-.04.47-.1a.85.85 0 0 0 .33-.32c.1-.15.16-.34.2-.57.05-.23.07-.5.07-.82ZM35.87 216.23V222h-.72v-4.86l-1.48.54v-.66l2.09-.8h.11Zm6.19 2.44v.88c0 .47-.04.86-.13 1.19-.08.32-.2.58-.36.78-.16.2-.35.34-.57.43-.22.09-.47.13-.75.13-.22 0-.43-.03-.61-.08a1.45 1.45 0 0 1-.5-.27 1.61 1.61 0 0 1-.38-.48c-.11-.2-.19-.44-.25-.72a5.17 5.17 0 0 1-.08-.98v-.88c0-.47.04-.86.13-1.18.08-.32.2-.57.36-.77.16-.19.35-.33.57-.41a2.17 2.17 0 0 1 1.36-.04 1.39 1.39 0 0 1 .89.71c.1.2.18.43.24.71.05.28.08.6.08.98Zm-.73 1v-1.12c0-.26-.02-.48-.05-.68-.03-.2-.07-.36-.13-.5a1 1 0 0 0-.22-.34.77.77 0 0 0-.3-.2 1.1 1.1 0 0 0-.39-.06c-.17 0-.33.04-.46.1a.82.82 0 0 0-.34.3c-.09.15-.16.33-.2.56-.05.22-.07.5-.07.82v1.12c0 .25.01.48.04.68.03.2.08.37.14.51.06.14.13.26.22.35.08.1.18.16.3.2.11.05.24.07.38.07.18 0 .33-.03.47-.1a.85.85 0 0 0 .33-.32c.1-.15.16-.34.2-.57.05-.23.08-.5.08-.82Zm2.15 1.94c0-.12.04-.22.12-.3.07-.1.19-.14.33-.14.15 0 .26.05.34.13.08.09.12.19.12.31 0 .13-.04.23-.12.31-.08.09-.19.13-.34.13-.14 0-.26-.05-.33-.13a.44.44 0 0 1-.12-.3Zm0-3.48c0-.12.04-.22.12-.31.08-.09.2-.13.34-.13.15 0 .26.04.33.13.08.09.12.19.12.31s-.04.22-.12.3c-.07.1-.18.14-.33.14-.15 0-.26-.05-.34-.13a.44.44 0 0 1-.12-.3Zm5.95.54v.88c0 .47-.04.86-.13 1.19-.08.32-.2.58-.36.78-.16.2-.35.34-.57.43-.22.09-.47.13-.75.13-.22 0-.43-.03-.61-.08a1.45 1.45 0 0 1-.5-.27 1.6 1.6 0 0 1-.39-.48c-.1-.2-.18-.44-.24-.72a5.17 5.17 0 0 1-.08-.98v-.88c0-.47.04-.86.13-1.18.08-.32.2-.57.36-.77.16-.19.35-.33.57-.41a2.17 2.17 0 0 1 1.36-.04 1.38 1.38 0 0 1 .89.71c.1.2.18.43.24.71.05.28.08.6.08.98Zm-.73 1v-1.12c0-.26-.02-.48-.05-.68-.03-.2-.07-.36-.13-.5a1 1 0 0 0-.22-.34.77.77 0 0 0-.3-.2 1.1 1.1 0 0 0-.39-.06c-.17 0-.33.04-.46.1a.82.82 0 0 0-.34.3c-.09.15-.16.33-.2.56-.05.22-.08.5-.08.82v1.12c0 .25.02.48.05.68.03.2.08.37.14.51.06.14.13.26.22.35.08.1.18.16.3.2.11.05.24.07.38.07.18 0 .33-.03.47-.1a.85.85 0 0 0 .33-.32c.1-.15.16-.34.2-.57.05-.23.08-.5.08-.82Zm5.7-1v.88c0 .47-.03.86-.12 1.19-.08.32-.2.58-.36.78-.16.2-.35.34-.57.43-.22.09-.47.13-.75.13-.22 0-.43-.03-.61-.08a1.44 1.44 0 0 1-.5-.27 1.61 1.61 0 0 1-.39-.48c-.1-.2-.18-.44-.24-.72a5.17 5.17 0 0 1-.08-.98v-.88c0-.47.04-.86.13-1.18.08-.32.2-.57.36-.77.16-.19.35-.33.57-.41.22-.09.47-.13.75-.13.22 0 .43.03.61.08a1.39 1.39 0 0 1 .88.72c.1.2.19.43.24.71.06.28.09.6.09.98Zm-.73 1v-1.12c0-.26-.01-.48-.04-.68-.03-.2-.08-.36-.13-.5a1 1 0 0 0-.22-.34.77.77 0 0 0-.3-.2 1.1 1.1 0 0 0-.39-.06c-.17 0-.33.04-.46.1a.82.82 0 0 0-.34.3c-.09.15-.16.33-.2.56-.05.22-.08.5-.08.82v1.12c0 .25.02.48.05.68.03.2.07.37.13.51.07.14.14.26.23.35.08.1.18.16.3.2.11.05.24.07.38.07.18 0 .33-.03.47-.1a.85.85 0 0 0 .33-.32c.1-.15.16-.34.2-.57.05-.23.07-.5.07-.82Z" fill="#8A8C8E"/><path d="M68.02 151.86h.67l1.71 4.25 1.71-4.25h.67l-2.12 5.22h-.52l-2.12-5.22Zm-.21 0h.59l.1 3.18v2.04h-.7v-5.22Zm4.6 0H73v5.22h-.69v-2.04l.1-3.18Zm1.96 3.32v-.08c0-.28.04-.54.13-.78.08-.24.2-.45.35-.63.15-.17.34-.31.55-.41.22-.1.46-.15.73-.15.28 0 .52.05.74.15.22.1.4.24.56.41.15.18.27.4.35.63.08.24.12.5.12.78v.08c0 .28-.04.54-.12.78-.08.24-.2.45-.35.63a1.63 1.63 0 0 1-1.29.56 1.67 1.67 0 0 1-1.65-1.19 2.4 2.4 0 0 1-.12-.78Zm.67-.08v.08c0 .2.02.38.07.55.04.17.1.32.2.45s.2.24.35.31c.14.08.3.12.48.12s.34-.04.48-.12c.14-.07.25-.18.34-.3.1-.14.16-.29.2-.46.05-.17.08-.35.08-.55v-.08c0-.2-.03-.37-.07-.54a1.39 1.39 0 0 0-.21-.46.97.97 0 0 0-.82-.43.98.98 0 0 0-.49.12c-.13.08-.25.18-.34.31-.1.14-.16.29-.2.46-.05.17-.07.35-.07.54Zm4.8-1.07v3.05h-.67v-3.88h.63l.04.83Zm-.16.96h-.28c0-.27.04-.52.12-.74.08-.23.18-.43.32-.6a1.44 1.44 0 0 1 1.14-.52c.19 0 .36.03.52.08.15.05.28.13.39.24.1.11.19.26.25.44.05.18.08.4.08.65v2.54h-.66v-2.55c0-.2-.03-.37-.1-.49a.55.55 0 0 0-.26-.27.94.94 0 0 0-.42-.08.99.99 0 0 0-.8.39 1.44 1.44 0 0 0-.3.91Zm9.54-3.13v.37l-2.16 4.85h-.7l2.16-4.68H85.7v-.54h3.52ZM162.57 151.78V157h-.68v-5.22h.68Zm1.68 0v.57h-4.03v-.57h4.03Zm3.14 4.32v-2.98h.67V157h-.64l-.03-.9Zm.13-.81.27-.01c0 .26-.03.5-.08.72-.05.21-.14.4-.26.56-.12.16-.28.29-.47.38-.2.09-.43.13-.7.13-.2 0-.37-.03-.53-.08a1.04 1.04 0 0 1-.66-.7c-.06-.19-.09-.4-.09-.67v-2.5h.66v2.51c0 .18.03.32.06.43.04.12.1.2.16.27.07.07.15.11.23.14.09.03.18.04.27.04.28 0 .5-.05.67-.16a.92.92 0 0 0 .35-.44c.08-.19.11-.4.11-.62Zm3.6 1.78a1.9 1.9 0 0 1-.74-.13 1.66 1.66 0 0 1-.92-.99 2.2 2.2 0 0 1-.13-.75v-.15c0-.32.05-.6.14-.85.1-.24.22-.45.38-.63a1.63 1.63 0 0 1 1.9-.38c.2.1.36.23.5.4.12.17.22.38.28.6.06.24.1.49.1.76v.3h-2.9v-.54h2.23v-.05c-.01-.18-.05-.34-.1-.5a.9.9 0 0 0-.3-.4.84.84 0 0 0-.53-.16.9.9 0 0 0-.75.37c-.09.13-.16.28-.2.46-.06.18-.08.38-.08.62v.15c0 .18.02.35.07.52.06.16.13.3.23.42a1.07 1.07 0 0 0 .85.39c.23 0 .43-.05.6-.14.16-.1.3-.23.42-.39l.4.32a1.55 1.55 0 0 1-.8.64c-.18.08-.4.11-.66.11Zm8.19-1.48c0 .32-.08.59-.22.8-.15.23-.35.4-.6.51a2 2 0 0 1-.84.17c-.31 0-.6-.06-.85-.17a1.4 1.4 0 0 1-.6-.5c-.14-.22-.21-.5-.21-.81a1.35 1.35 0 0 1 .46-1.03c.15-.13.32-.23.52-.3a2 2 0 0 1 .67-.1c.32 0 .6.06.86.18.25.13.44.3.59.5.15.22.22.47.22.75Zm-.67-.02c0-.19-.04-.36-.13-.5a.88.88 0 0 0-.35-.36 1.06 1.06 0 0 0-.52-.13c-.2 0-.38.05-.53.13a.88.88 0 0 0-.34.35c-.08.15-.12.32-.12.51 0 .2.04.38.12.52.08.14.2.25.34.33.15.07.33.1.54.1.2 0 .38-.03.53-.1a.8.8 0 0 0 .34-.33c.08-.14.12-.32.12-.52Zm.55-2.43c0 .25-.07.48-.2.68-.14.2-.32.37-.55.48-.23.12-.5.18-.8.18-.3 0-.56-.06-.8-.18a1.36 1.36 0 0 1-.54-.48 1.44 1.44 0 0 1 0-1.46c.14-.2.32-.37.55-.48.23-.12.5-.17.8-.17.3 0 .56.05.79.17.23.11.41.27.55.49.13.2.2.47.2.77Zm-.67.01a.94.94 0 0 0-.1-.46.81.81 0 0 0-.32-.32.87.87 0 0 0-.46-.12.92.92 0 0 0-.45.12.78.78 0 0 0-.3.3 1 1 0 0 0-.12.48c0 .18.04.34.11.47.08.13.18.24.3.31.14.08.3.11.47.11a.9.9 0 0 0 .45-.1.78.78 0 0 0 .31-.32c.08-.13.11-.3.11-.47Z" fill="#70757A"/><path fill="#F0F0F0" d="M155 163v174h-.6V163zM246 163v175h-.6V163zM337 162.29v164h-.6v-164z"/><path fill="#F0F0F0" d="M63 162.29h275v.6H63zM63 214h275v.6H63zM63 266h275v.6H63z"/><path fill="#F0F0F0" d="m63.41 162.53.01 173.9h-.6v-173.9zM26 142.71h602.54v.51H26z"/><path d="M45.6 126.13h1.47c-.05.56-.2 1.06-.47 1.5-.27.43-.64.77-1.12 1.02-.48.25-1.07.38-1.75.38a3.12 3.12 0 0 1-2.5-1.09c-.31-.35-.54-.78-.7-1.27a5.53 5.53 0 0 1-.24-1.67v-.7c0-.62.08-1.17.24-1.67.17-.5.4-.92.7-1.27.31-.36.68-.63 1.1-.82.43-.19.91-.28 1.45-.28.68 0 1.25.13 1.72.38s.83.6 1.1 1.03c.25.44.41.95.47 1.52h-1.46a2.7 2.7 0 0 0-.26-.94 1.33 1.33 0 0 0-.57-.6 2.06 2.06 0 0 0-1-.21c-.34 0-.63.06-.88.19-.25.12-.46.3-.63.55-.16.24-.3.54-.38.9-.08.35-.12.75-.12 1.2v.72c0 .43.04.82.11 1.17.08.35.2.65.35.9.16.25.37.44.61.58.25.14.54.2.89.2.41 0 .75-.06 1.01-.2.26-.13.46-.32.6-.57.13-.26.22-.58.26-.95Zm6.24 1.5v-3.02c0-.22-.05-.42-.13-.58a.86.86 0 0 0-.37-.38 1.3 1.3 0 0 0-.62-.14c-.23 0-.43.04-.6.12a.96.96 0 0 0-.4.32.76.76 0 0 0-.13.45h-1.41c0-.25.06-.5.18-.73.12-.23.3-.44.53-.63.23-.18.5-.32.82-.43.33-.1.68-.16 1.08-.16.48 0 .9.08 1.27.24.37.16.66.4.87.73.22.32.32.72.32 1.2v2.82c0 .3.02.55.06.78.05.23.1.43.18.6v.09h-1.44a2.5 2.5 0 0 1-.16-.58 4.73 4.73 0 0 1-.05-.7Zm.2-2.57.01.87h-1.01c-.26 0-.5.02-.7.07-.2.05-.36.12-.49.22a.92.92 0 0 0-.4.79c0 .16.04.32.12.46.08.14.19.24.34.32a1.55 1.55 0 0 0 1.82-.5c.13-.17.2-.34.2-.5l.46.63a2.51 2.51 0 0 1-.69 1.04 2.2 2.2 0 0 1-1.52.57c-.41 0-.78-.09-1.1-.25-.33-.17-.58-.4-.77-.67a2.02 2.02 0 0 1-.09-1.86c.14-.26.32-.48.57-.66.25-.17.55-.3.91-.4.36-.09.77-.13 1.23-.13h1.11Zm4.2-5.15v9h-1.42v-9h1.42Zm4.34 9.12c-.46 0-.89-.08-1.27-.23a2.8 2.8 0 0 1-1.56-1.63 3.43 3.43 0 0 1-.21-1.21v-.24c0-.5.07-.94.21-1.34.15-.4.35-.75.6-1.04.27-.28.57-.5.92-.66.35-.15.73-.23 1.14-.23.46 0 .85.08 1.2.23.33.15.61.37.84.65.22.27.4.6.5.98.11.37.17.8.17 1.25v.6h-4.9v-1.01h3.5v-.11c0-.26-.05-.5-.15-.72-.09-.22-.22-.4-.41-.54-.19-.13-.44-.2-.75-.2-.24 0-.45.05-.63.15-.18.1-.33.24-.45.43s-.21.41-.28.68c-.06.26-.1.55-.1.88v.24c0 .27.04.53.12.77.07.23.19.44.34.62.14.17.32.31.54.41a1.95 1.95 0 0 0 2.32-.64l.74.72a2.66 2.66 0 0 1-1.34 1.01c-.3.12-.67.18-1.09.18Zm5.04-5.1v4.98h-1.4v-6.34h1.32l.08 1.35Zm-.25 1.58-.46-.01c0-.45.07-.86.2-1.24.12-.37.29-.7.5-.96a2.34 2.34 0 0 1 1.83-.84c.31 0 .59.04.83.12.25.08.46.22.64.4.18.2.32.44.41.74.1.3.14.66.14 1.1v4.09h-1.42v-4.1c0-.3-.04-.55-.13-.72a.75.75 0 0 0-.38-.38 1.43 1.43 0 0 0-.62-.12 1.37 1.37 0 0 0-1.13.57c-.13.17-.23.38-.3.6-.07.24-.1.48-.1.75Zm9.4 2.09v-7.69h1.42v9H74.9l-.13-1.31Zm-4.13-1.79v-.12c0-.48.06-.92.17-1.31.12-.4.28-.74.5-1.03.21-.29.47-.51.78-.66.31-.16.66-.24 1.04-.24a2.1 2.1 0 0 1 1.75.86c.2.28.37.6.49.99.12.38.2.8.25 1.26v.4c-.05.45-.13.86-.25 1.24-.12.37-.29.7-.49.97a2.11 2.11 0 0 1-1.76.86 2.22 2.22 0 0 1-1.81-.92 3.17 3.17 0 0 1-.5-1.02c-.1-.4-.17-.82-.17-1.28Zm1.42-.12v.12c0 .29.02.56.07.8.06.26.14.48.25.67.12.19.26.34.44.45.19.1.4.16.66.16.32 0 .58-.08.8-.22.2-.14.36-.33.48-.56.12-.25.2-.52.24-.81v-1.06a2.59 2.59 0 0 0-.14-.65c-.07-.2-.17-.37-.29-.52a1.21 1.21 0 0 0-.45-.35 1.41 1.41 0 0 0-.63-.13c-.26 0-.47.05-.65.16-.18.11-.33.26-.45.45-.11.2-.2.42-.25.67-.06.26-.08.53-.08.82Zm9.18 1.95v-3.03c0-.22-.04-.42-.12-.58a.86.86 0 0 0-.38-.38 1.3 1.3 0 0 0-.62-.14c-.23 0-.43.04-.6.12a.96.96 0 0 0-.4.32.76.76 0 0 0-.13.45h-1.4c0-.25.05-.5.17-.73.12-.23.3-.44.53-.63.23-.18.5-.32.83-.43.32-.1.68-.16 1.08-.16.47 0 .9.08 1.26.24.37.16.66.4.87.73.22.32.33.72.33 1.2v2.82c0 .3.02.55.05.78.05.23.1.43.19.6v.09h-1.45a2.5 2.5 0 0 1-.16-.58 4.74 4.74 0 0 1-.05-.7Zm.2-2.58.02.87h-1.02c-.26 0-.5.02-.69.07-.2.05-.37.12-.5.22a.92.92 0 0 0-.4.79c0 .16.04.32.12.46.08.14.2.24.34.32a1.55 1.55 0 0 0 1.82-.5c.13-.17.2-.34.2-.5l.46.63a2.51 2.51 0 0 1-.69 1.04 2.2 2.2 0 0 1-1.51.57c-.42 0-.79-.09-1.11-.25-.33-.17-.58-.4-.76-.67a2.02 2.02 0 0 1-.09-1.86c.13-.26.32-.48.56-.66.25-.17.56-.3.92-.4.35-.09.77-.13 1.23-.13h1.1Zm4.11-1.28v5.13h-1.41v-6.34h1.35l.06 1.2Zm1.94-1.25-.01 1.31a2.46 2.46 0 0 0-.58-.05c-.24 0-.45.04-.63.11a1.21 1.21 0 0 0-.75.75c-.06.18-.1.38-.12.6l-.32.03c0-.4.04-.77.12-1.11.08-.34.2-.64.35-.9.16-.25.36-.46.6-.6a1.6 1.6 0 0 1 1.11-.2l.23.06Z" fill="#181818"/><rect x="68" y="168" width="82" height="40" rx="2.34" fill="#B5E4FE"/><path d="M76.96 181.26h-1.3l.02-.83h1.28c.37 0 .69-.08.94-.24.25-.16.44-.4.57-.7.13-.3.2-.67.2-1.09v-.33c0-.32-.04-.61-.12-.86a1.7 1.7 0 0 0-.32-.64c-.14-.17-.32-.3-.52-.39-.2-.09-.44-.13-.71-.13h-1.36v-.83H77c.4 0 .76.06 1.1.2a2.57 2.57 0 0 1 1.42 1.48c.13.35.2.75.2 1.18v.32c0 .44-.07.83-.2 1.18s-.32.65-.56.9c-.25.25-.54.45-.88.58-.33.13-.7.2-1.12.2Zm-.71-6.04v6.04H75.2v-6.04h1.05Zm6.39 6.12a2.4 2.4 0 0 1-.9-.16 1.98 1.98 0 0 1-1.11-1.15c-.1-.27-.15-.56-.15-.86V179c0-.35.05-.67.15-.95.1-.29.25-.53.43-.73.18-.2.4-.36.65-.47.25-.11.52-.16.8-.16.33 0 .6.05.85.16.24.1.44.26.6.46.16.19.28.42.35.69.08.27.12.56.12.89v.42h-3.47v-.71h2.49v-.08c0-.18-.04-.35-.11-.51a.86.86 0 0 0-.3-.38.88.88 0 0 0-.53-.15.88.88 0 0 0-.76.41c-.09.14-.15.3-.2.49-.04.18-.07.39-.07.62v.17c0 .2.03.38.08.55.06.16.14.3.24.43.1.13.24.22.39.3.14.07.31.1.5.1a1.38 1.38 0 0 0 1.14-.56l.53.51a1.87 1.87 0 0 1-.95.72c-.22.08-.48.12-.77.12Zm3.98-.87 1.1-3.7h1.04l-1.57 4.49h-.64l.07-.8Zm-.84-3.7 1.12 3.71.05.78h-.65l-1.57-4.5h1.05Zm6.71.91v3.58h-1v-4.5h.94l.06.92Zm-.16 1.17h-.34c0-.31.04-.6.11-.86.08-.27.2-.5.34-.69.15-.2.34-.35.56-.45.23-.11.48-.16.78-.16.2 0 .39.03.56.09.17.06.32.15.44.28.13.12.23.29.3.49.06.2.1.44.1.72v2.99h-1v-2.9c0-.22-.04-.4-.1-.52a.55.55 0 0 0-.28-.27 1 1 0 0 0-.43-.08 1 1 0 0 0-.48.1.91.91 0 0 0-.32.3c-.08.13-.14.27-.18.44-.04.16-.06.33-.06.52Zm2.78-.27-.47.1c0-.26.04-.52.12-.76.07-.24.19-.46.33-.64a1.58 1.58 0 0 1 1.3-.6c.24 0 .44.04.62.1a1.13 1.13 0 0 1 .76.81c.06.21.1.47.1.76v2.91h-1v-2.9c0-.24-.04-.41-.1-.54a.52.52 0 0 0-.28-.25 1.1 1.1 0 0 0-.43-.08c-.16 0-.3.03-.41.09a.81.81 0 0 0-.3.23c-.08.1-.14.22-.18.35-.04.13-.06.27-.06.42Zm5.76 2.76a2.4 2.4 0 0 1-.9-.16 1.98 1.98 0 0 1-1.1-1.15c-.1-.27-.15-.56-.15-.86V179c0-.35.05-.67.15-.95.1-.29.24-.53.43-.73.18-.2.4-.36.64-.47.25-.11.52-.16.81-.16.33 0 .6.05.85.16.24.1.44.26.6.46.16.19.27.42.35.69.08.27.12.56.12.89v.42H99.2v-.71h2.48v-.08c0-.18-.04-.35-.1-.51a.86.86 0 0 0-.3-.38.88.88 0 0 0-.53-.15.87.87 0 0 0-.76.41c-.09.14-.16.3-.2.49-.05.18-.07.39-.07.62v.17c0 .2.03.38.08.55.05.16.13.3.24.43.1.13.23.22.38.3.15.07.32.1.51.1a1.39 1.39 0 0 0 1.13-.56l.53.51a1.88 1.88 0 0 1-.95.72c-.22.08-.47.12-.77.12Zm4.56 0c-.33 0-.63-.05-.9-.16a1.98 1.98 0 0 1-1.1-1.15c-.1-.27-.16-.56-.16-.86V179c0-.35.05-.67.16-.95.1-.29.24-.53.42-.73.19-.2.4-.36.65-.47.25-.11.52-.16.81-.16.32 0 .6.05.84.16.24.1.44.26.6.46.16.19.28.42.36.69.08.27.12.56.12.89v.42h-3.47v-.71h2.48v-.08c0-.18-.04-.35-.1-.51a.86.86 0 0 0-.3-.38.88.88 0 0 0-.53-.15.88.88 0 0 0-.76.41c-.1.14-.16.3-.2.49-.05.18-.07.39-.07.62v.17c0 .2.02.38.08.55.05.16.13.3.24.43.1.13.23.22.38.3.15.07.32.1.51.1a1.38 1.38 0 0 0 1.13-.56l.53.51a1.88 1.88 0 0 1-.95.72c-.22.08-.48.12-.77.12Zm4.64-4.57v.73h-2.53v-.73h2.53Zm-1.8-1.1h1v4.35c0 .14.02.24.05.32.05.07.1.12.18.14.07.03.15.04.25.04a1.6 1.6 0 0 0 .35-.04v.77a2.46 2.46 0 0 1-.66.1c-.23 0-.43-.05-.6-.13a.89.89 0 0 1-.42-.4c-.1-.19-.15-.43-.15-.74v-4.41Zm3.64 1.1v4.49h-1v-4.5h1Zm-1.07-1.18c0-.15.05-.28.15-.38.1-.1.24-.15.42-.15s.32.05.42.15c.1.1.16.23.16.38a.5.5 0 0 1-.16.37c-.1.1-.24.15-.42.15a.58.58 0 0 1-.42-.15.5.5 0 0 1-.15-.37Zm3.16 2.14v3.53h-1v-4.5h.94l.06.97Zm-.18 1.12h-.32c0-.32.04-.62.13-.88.09-.27.2-.5.36-.69a1.6 1.6 0 0 1 1.3-.6c.21 0 .4.04.58.1.18.06.33.15.46.28.12.14.22.31.29.52.06.21.1.47.1.78v2.9h-1v-2.9c0-.22-.04-.4-.1-.52a.53.53 0 0 0-.27-.27 1 1 0 0 0-.44-.08.98.98 0 0 0-.8.4c-.1.13-.17.27-.22.44-.05.16-.07.33-.07.52Zm6.8-2.08h.9v4.37c0 .4-.08.74-.25 1.03-.18.28-.42.5-.72.64a2.4 2.4 0 0 1-1.64.15c-.21-.05-.41-.13-.6-.24a1.5 1.5 0 0 1-.5-.43l.47-.59a1.45 1.45 0 0 0 1.73.42c.17-.08.3-.2.38-.37.09-.16.13-.36.13-.6v-3.36l.1-1.02Zm-3.06 2.3v-.1c0-.33.04-.64.13-.92.08-.28.2-.53.35-.73a1.57 1.57 0 0 1 1.32-.63 1.4 1.4 0 0 1 1.26.61c.14.19.25.42.33.7.08.26.13.56.17.89v.28c-.03.32-.1.61-.18.88-.08.26-.2.5-.34.69a1.44 1.44 0 0 1-1.25.6 1.6 1.6 0 0 1-1.3-.64c-.16-.2-.28-.45-.36-.73a3.15 3.15 0 0 1-.13-.9Zm1-.1v.1c0 .2.02.39.06.57.04.17.1.33.19.47.08.13.2.23.32.31.14.08.3.11.47.11.24 0 .43-.05.58-.15.15-.1.27-.23.35-.4.08-.17.14-.36.17-.57v-.75a1.88 1.88 0 0 0-.1-.46 1.24 1.24 0 0 0-.2-.37.85.85 0 0 0-.33-.25c-.13-.06-.28-.09-.46-.09a.9.9 0 0 0-.8.44c-.08.13-.14.3-.19.47-.04.18-.06.37-.06.58Z" fill="#2C446E"/><path fill="#4097DD" d="M135 174.3h4.01v4.01H135zM135 179.11h4.01v4.01H135zM139.81 174.3h4.01v4.01h-4.01zM139.81 179.11h4.01v4.01h-4.01z"/><path d="M78.92 191.8v.84c0 .46-.04.84-.12 1.15a2 2 0 0 1-.35.75c-.15.19-.33.33-.55.41a2.07 2.07 0 0 1-1.3.05 1.38 1.38 0 0 1-.85-.72c-.1-.19-.18-.42-.23-.69a4.96 4.96 0 0 1-.08-.95v-.84c0-.45.04-.83.12-1.14.08-.3.2-.55.35-.73.15-.19.33-.32.55-.4.21-.08.45-.12.72-.12.21 0 .4.02.59.08a1.34 1.34 0 0 1 .84.69c.1.18.18.41.23.68.06.27.08.58.08.94Zm-.7.96v-1.08c0-.24-.02-.46-.05-.65a2.05 2.05 0 0 0-.12-.48.97.97 0 0 0-.22-.33.74.74 0 0 0-.29-.18c-.1-.04-.23-.06-.36-.06a.98.98 0 0 0-.45.1.8.8 0 0 0-.32.28c-.09.14-.16.31-.2.53-.05.22-.07.48-.07.8v1.07c0 .24.01.46.04.65.03.2.08.36.13.5.06.13.13.24.22.33.08.1.18.16.29.2.1.04.23.06.36.06.17 0 .32-.03.45-.1a.8.8 0 0 0 .33-.3c.08-.15.15-.33.2-.55.04-.22.06-.49.06-.8Zm2.3 1.65h.07c.4 0 .74-.05.99-.17.25-.11.45-.26.58-.46.14-.19.23-.4.28-.64.05-.25.08-.5.08-.75v-.85c0-.25-.03-.47-.09-.66-.05-.2-.13-.36-.23-.5-.1-.12-.21-.22-.34-.3a.84.84 0 0 0-.4-.1.94.94 0 0 0-.76.37c-.09.12-.15.26-.2.41a1.83 1.83 0 0 0 .18 1.4c.08.13.19.23.31.3.13.08.28.11.44.11.16 0 .3-.03.44-.09a1.24 1.24 0 0 0 .63-.62c.07-.14.1-.28.11-.43h.34a1.91 1.91 0 0 1-.98 1.58c-.2.1-.42.14-.65.14a1.43 1.43 0 0 1-1.2-.58 1.95 1.95 0 0 1-.28-.59 2.5 2.5 0 0 1 .01-1.4c.08-.24.19-.44.33-.61.14-.18.32-.32.53-.42.22-.1.47-.14.75-.14.31 0 .58.06.8.19.23.12.4.3.55.5.14.22.24.46.3.72.07.27.1.54.1.82v.25c0 .29-.01.58-.05.87-.04.3-.1.58-.21.84a2.04 2.04 0 0 1-1.2 1.22c-.32.13-.7.19-1.16.19h-.07v-.6Zm3.72.22c0-.12.03-.22.1-.3.08-.08.19-.13.33-.13s.25.05.32.13c.08.08.12.18.12.3s-.04.21-.12.3c-.07.07-.18.11-.32.11s-.25-.03-.33-.12a.42.42 0 0 1-.1-.3Zm0-3.35c0-.12.04-.22.1-.3.08-.08.2-.12.33-.12.15 0 .25.04.33.12.07.08.11.18.11.3s-.04.22-.11.3c-.08.08-.18.12-.33.12-.14 0-.25-.04-.32-.12a.42.42 0 0 1-.11-.3Zm5.3.52v.84c0 .46-.05.84-.13 1.15a2 2 0 0 1-.35.75c-.15.19-.33.33-.55.41a2.07 2.07 0 0 1-1.3.05 1.38 1.38 0 0 1-.85-.72c-.1-.19-.18-.42-.23-.69a4.97 4.97 0 0 1-.08-.95v-.84c0-.45.04-.83.12-1.14.08-.3.2-.55.35-.73.15-.19.33-.32.55-.4.21-.08.45-.12.72-.12.21 0 .4.02.59.08a1.34 1.34 0 0 1 .84.69c.1.18.18.41.23.68.06.27.08.58.08.94Zm-.71.96v-1.08c0-.24-.02-.46-.05-.65a2.05 2.05 0 0 0-.12-.48.96.96 0 0 0-.21-.33.74.74 0 0 0-.3-.18c-.1-.04-.23-.06-.36-.06a.98.98 0 0 0-.45.1.8.8 0 0 0-.32.28c-.09.14-.16.31-.2.53-.05.22-.07.48-.07.8v1.07c0 .24.02.46.04.65.03.2.08.36.14.5.05.13.12.24.2.33.1.1.19.16.3.2.1.04.23.06.36.06.18 0 .33-.03.45-.1a.8.8 0 0 0 .33-.3c.08-.15.15-.33.2-.55.04-.22.06-.49.06-.8Zm5.07-.96v.84c0 .46-.04.84-.12 1.15a2 2 0 0 1-.35.75c-.15.19-.34.33-.55.41a2.06 2.06 0 0 1-1.3.05 1.38 1.38 0 0 1-.86-.72c-.1-.19-.18-.42-.23-.69a4.96 4.96 0 0 1-.08-.95v-.84c0-.45.04-.83.12-1.14.09-.3.2-.55.36-.73.15-.19.33-.32.54-.4.22-.08.46-.12.72-.12.22 0 .41.02.6.08a1.34 1.34 0 0 1 .84.69c.1.18.18.41.23.68.05.27.08.58.08.94Zm-.7.96v-1.08c0-.24-.02-.46-.05-.65a2.06 2.06 0 0 0-.13-.48.97.97 0 0 0-.2-.33.74.74 0 0 0-.3-.18c-.11-.04-.23-.06-.37-.06a.98.98 0 0 0-.44.1.8.8 0 0 0-.33.28c-.08.14-.15.31-.2.53-.04.22-.06.48-.06.8v1.07c0 .24.01.46.04.65.03.2.07.36.13.5.06.13.13.24.21.33.09.1.18.16.3.2.1.04.23.06.36.06.17 0 .32-.03.45-.1a.8.8 0 0 0 .32-.3c.09-.15.16-.33.2-.55.04-.22.06-.49.06-.8Zm5.06-.4v.58h-1.85v-.57h1.85Zm4.84-2.9V195h-.7v-4.67l-1.42.51v-.63l2-.76h.12Zm5.52 2.34v.84c0 .46-.04.84-.12 1.15a2 2 0 0 1-.34.75c-.16.19-.34.33-.55.41a2.06 2.06 0 0 1-1.3.05 1.38 1.38 0 0 1-.86-.72c-.1-.19-.18-.42-.23-.69a4.97 4.97 0 0 1-.08-.95v-.84c0-.45.04-.83.12-1.14.08-.3.2-.55.35-.73.15-.19.33-.32.55-.4.21-.08.45-.12.72-.12.21 0 .4.02.59.08a1.34 1.34 0 0 1 .84.69c.1.18.18.41.23.68.06.27.08.58.08.94Zm-.7.96v-1.08c0-.24-.02-.46-.05-.65a2.05 2.05 0 0 0-.12-.48.97.97 0 0 0-.21-.33.75.75 0 0 0-.3-.18c-.1-.04-.23-.06-.36-.06a.98.98 0 0 0-.45.1.8.8 0 0 0-.32.28c-.09.14-.15.31-.2.53-.04.22-.07.48-.07.8v1.07c0 .24.02.46.05.65.03.2.07.36.13.5.06.13.13.24.2.33a.8.8 0 0 0 .3.2c.1.04.23.06.37.06.17 0 .32-.03.45-.1a.8.8 0 0 0 .32-.3c.09-.15.15-.33.2-.55.04-.22.06-.49.06-.8Zm1.65 1.87c0-.12.04-.22.11-.3.08-.08.19-.13.33-.13s.25.05.32.13c.08.08.11.18.11.3s-.03.21-.11.3c-.07.07-.18.11-.32.11s-.25-.03-.33-.12a.42.42 0 0 1-.1-.3Zm0-3.35c0-.12.04-.22.12-.3.07-.08.18-.12.32-.12s.25.04.32.12c.08.08.12.18.12.3s-.04.22-.12.3c-.07.08-.18.12-.32.12s-.25-.04-.33-.12a.42.42 0 0 1-.1-.3Zm5.3.52v.84c0 .46-.04.84-.12 1.15a2 2 0 0 1-.35.75c-.15.19-.34.33-.55.41a2.06 2.06 0 0 1-1.3.05 1.38 1.38 0 0 1-.86-.72c-.1-.19-.17-.42-.23-.69a4.97 4.97 0 0 1-.08-.95v-.84c0-.45.04-.83.12-1.14.09-.3.2-.55.36-.73.15-.19.33-.32.54-.4.22-.08.46-.12.72-.12.22 0 .41.02.6.08a1.34 1.34 0 0 1 .84.69c.1.18.18.41.23.68.05.27.08.58.08.94Zm-.7.96v-1.08a4.04 4.04 0 0 0-.18-1.13.95.95 0 0 0-.2-.33.74.74 0 0 0-.3-.18c-.1-.04-.23-.06-.37-.06a.99.99 0 0 0-.44.1.8.8 0 0 0-.33.28c-.08.14-.15.31-.2.53-.04.22-.06.48-.06.8v1.07c0 .24.01.46.04.65.03.2.07.36.13.5.06.13.13.24.21.33.09.1.18.16.3.2.1.04.23.06.36.06.17 0 .32-.03.45-.1a.8.8 0 0 0 .32-.3c.1-.15.16-.33.2-.55.04-.22.07-.49.07-.8Zm5.06-.96v.84c0 .46-.04.84-.12 1.15a2 2 0 0 1-.34.75c-.16.19-.34.33-.55.41a2.07 2.07 0 0 1-1.3.05 1.38 1.38 0 0 1-.5-.26 1.56 1.56 0 0 1-.36-.46c-.1-.19-.18-.42-.23-.69a4.97 4.97 0 0 1-.08-.95v-.84c0-.45.04-.83.12-1.14.08-.3.2-.55.35-.73.15-.19.34-.32.55-.4.21-.08.45-.12.72-.12.21 0 .41.02.59.08a1.33 1.33 0 0 1 .84.69c.1.18.18.41.23.68.06.27.08.58.08.94Zm-.7.96v-1.08c0-.24-.02-.46-.05-.65a2.1 2.1 0 0 0-.12-.48.97.97 0 0 0-.21-.33.74.74 0 0 0-.3-.18c-.1-.04-.22-.06-.36-.06a.98.98 0 0 0-.44.1.8.8 0 0 0-.33.28c-.09.14-.15.31-.2.53a3.9 3.9 0 0 0-.07.8v1.07c0 .24.02.46.05.65.03.2.07.36.13.5.06.13.13.24.21.33.08.1.18.16.29.2.1.04.23.06.37.06.17 0 .32-.03.45-.1a.81.81 0 0 0 .32-.3c.09-.15.15-.33.2-.55.04-.22.06-.49.06-.8Z" fill="#344C76"/><rect x="159" y="220" width="82" height="40" rx="2.34" fill="#B5E4FE"/><path d="M170.2 229.2v.83h-3.21v-.82h3.2Zm-2.95-2.51v6.04h-1.05v-6.04h1.05Zm3.75 0v6.04h-1.04v-6.04H171Zm1.24 0h2.14a3 3 0 0 1 1.17.2c.32.14.57.35.74.62.18.27.27.6.27 1 0 .3-.06.56-.17.79-.11.23-.27.42-.47.58-.2.16-.44.28-.72.36l-.32.16h-1.92v-.83h1.43c.25 0 .46-.04.63-.13.16-.1.29-.21.37-.37.09-.15.13-.32.13-.52s-.04-.4-.13-.55a.8.8 0 0 0-.37-.36 1.43 1.43 0 0 0-.64-.13h-1.1v5.22h-1.04v-6.04Zm3.45 6.04-1.42-2.72h1.09l1.44 2.66v.06h-1.11Zm4.92-3.58v3.58h-1v-4.5h.94l.06.92Zm-.16 1.17h-.34c0-.32.04-.6.11-.87.08-.26.2-.49.34-.68.15-.2.34-.35.56-.45.22-.11.48-.17.78-.17.2 0 .39.03.56.1.17.05.32.15.44.27.13.13.22.3.3.5.06.2.1.43.1.72v2.99h-1v-2.9c0-.23-.04-.4-.1-.52a.55.55 0 0 0-.28-.27 1 1 0 0 0-.43-.08.9.9 0 0 0-.8.4c-.08.13-.15.27-.18.43a2.3 2.3 0 0 0-.06.53Zm2.78-.27-.47.1c0-.27.04-.52.12-.76.07-.25.19-.46.33-.64a1.59 1.59 0 0 1 1.3-.6c.24 0 .44.04.62.1a1.14 1.14 0 0 1 .75.8c.07.22.1.47.1.77v2.9h-1v-2.9c0-.23-.03-.4-.1-.53a.52.52 0 0 0-.27-.26 1.1 1.1 0 0 0-.43-.07c-.16 0-.3.03-.41.09a.8.8 0 0 0-.3.23c-.08.1-.14.22-.18.35a1.5 1.5 0 0 0-.06.42Zm5.76 2.76a2.4 2.4 0 0 1-.9-.16 1.99 1.99 0 0 1-1.1-1.16c-.1-.26-.15-.55-.15-.85v-.17c0-.35.05-.67.15-.96.1-.28.24-.52.43-.72.18-.21.4-.37.64-.47.25-.11.52-.17.81-.17.32 0 .6.06.85.17.24.1.44.26.6.45.15.2.27.43.35.7.08.26.12.56.12.88v.43h-3.47v-.72h2.48v-.08c0-.18-.04-.34-.1-.5a.86.86 0 0 0-.3-.38.88.88 0 0 0-.53-.15.87.87 0 0 0-.76.41c-.09.13-.16.3-.2.48-.05.19-.07.4-.07.63v.17c0 .2.03.38.08.54.05.17.14.31.24.44.1.12.23.22.38.3.15.06.32.1.51.1a1.38 1.38 0 0 0 1.13-.56l.53.51a1.88 1.88 0 0 1-.95.72c-.22.08-.47.12-.77.12Zm4.56 0a2.4 2.4 0 0 1-.9-.16 1.99 1.99 0 0 1-1.1-1.16c-.1-.26-.16-.55-.16-.85v-.17c0-.35.05-.67.16-.96.1-.28.24-.52.42-.72.19-.21.4-.37.65-.47.25-.11.52-.17.81-.17.32 0 .6.06.84.17.24.1.44.26.6.45.16.2.28.43.36.7.08.26.12.56.12.88v.43h-3.47v-.72h2.48v-.08c0-.18-.04-.34-.1-.5a.85.85 0 0 0-.3-.38.88.88 0 0 0-.53-.15.88.88 0 0 0-.76.41c-.1.13-.16.3-.2.48-.05.19-.07.4-.07.63v.17c0 .2.02.38.08.54.05.17.13.31.24.44.1.12.23.22.38.3a1.38 1.38 0 0 0 1.64-.45l.53.5a1.9 1.9 0 0 1-.95.72c-.22.08-.48.12-.77.12Zm4.64-4.57v.73h-2.53v-.73h2.53Zm-1.8-1.1h1v4.35c0 .13.02.24.05.32.05.07.1.12.17.14a.8.8 0 0 0 .26.04 1.43 1.43 0 0 0 .35-.04v.77a2.63 2.63 0 0 1-.66.1c-.23 0-.43-.05-.61-.13a.9.9 0 0 1-.41-.4c-.1-.19-.15-.43-.15-.74v-4.41Zm5.27 4.53v-3.43h1v4.49h-.94l-.06-1.06Zm.14-.93.34-.01c0 .3-.03.58-.1.83s-.17.47-.3.66c-.15.19-.32.33-.54.44-.22.1-.47.15-.78.15-.21 0-.41-.03-.6-.1a1.24 1.24 0 0 1-.47-.29c-.13-.13-.23-.3-.3-.52a2.4 2.4 0 0 1-.11-.76v-2.9h1v2.9c0 .17.02.3.06.42a.57.57 0 0 0 .39.4c.08.03.18.04.28.04.28 0 .5-.05.67-.16a.91.91 0 0 0 .35-.46c.08-.2.11-.4.11-.64Zm2.9-1.64v5.35h-1v-6.21h.92l.07.86Zm2.92 1.34v.09c0 .32-.04.63-.12.9a2.2 2.2 0 0 1-.33.73c-.15.2-.33.37-.54.48-.22.11-.47.17-.75.17s-.53-.05-.74-.15a1.5 1.5 0 0 1-.52-.45c-.15-.19-.26-.41-.35-.67a4.37 4.37 0 0 1-.19-.85v-.34c.04-.33.1-.63.19-.9.09-.26.2-.5.35-.69a1.49 1.49 0 0 1 1.25-.6 1.52 1.52 0 0 1 1.3.63c.15.2.26.44.34.72.07.28.11.59.11.93Zm-1 .09v-.09c0-.2-.02-.4-.06-.58-.04-.18-.1-.33-.18-.47a.87.87 0 0 0-.78-.43c-.18 0-.33.03-.46.09a.9.9 0 0 0-.32.24c-.08.11-.15.23-.2.38-.04.13-.08.28-.1.45v.8c.04.2.1.38.17.55.09.17.2.3.34.4.16.1.34.14.58.14.18 0 .33-.03.46-.11a.9.9 0 0 0 .31-.32c.08-.14.14-.3.18-.48.04-.18.06-.37.06-.57Z" fill="#2C446E"/><path fill="#4097DD" d="M226 226.3h4.01v4.01H226zM226 231.11h4.01v4.01H226zM230.81 226.3h4.01v4.01h-4.01zM230.81 231.11h4.01v4.01h-4.01z"/><path d="M168.76 239.45V245h-.7v-4.67l-1.41.51v-.63l2-.76h.11Zm5.53 2.35v.84c0 .46-.04.84-.12 1.15a2 2 0 0 1-.35.75c-.15.19-.34.33-.55.41a2.06 2.06 0 0 1-1.3.05 1.38 1.38 0 0 1-.86-.72c-.1-.19-.18-.42-.23-.69a4.97 4.97 0 0 1-.08-.95v-.84c0-.45.04-.83.12-1.14.09-.3.2-.55.36-.73.15-.19.33-.32.54-.4.22-.08.46-.12.72-.12.22 0 .41.02.6.08a1.34 1.34 0 0 1 .84.69c.1.18.18.41.23.68.05.27.08.58.08.94Zm-.7.96v-1.08a4.04 4.04 0 0 0-.18-1.13.95.95 0 0 0-.21-.33.74.74 0 0 0-.3-.18c-.1-.04-.22-.06-.36-.06a.99.99 0 0 0-.44.1.8.8 0 0 0-.33.28 1.6 1.6 0 0 0-.2.53c-.04.22-.06.48-.06.8v1.07c0 .24.01.46.04.65.03.2.07.36.13.5.06.13.13.24.21.33.09.1.18.16.3.2.1.04.22.06.36.06.17 0 .32-.03.45-.1a.8.8 0 0 0 .32-.3c.09-.15.16-.33.2-.55.04-.22.06-.49.06-.8Zm1.65 1.87c0-.12.03-.22.1-.3.08-.08.19-.13.33-.13s.25.05.32.13c.08.08.12.18.12.3s-.04.21-.12.3c-.07.07-.18.11-.32.11s-.25-.03-.32-.12a.42.42 0 0 1-.11-.3Zm0-3.35c0-.12.03-.22.1-.3.09-.08.2-.12.34-.12s.24.04.32.12c.07.08.11.18.11.3s-.04.22-.11.3c-.08.08-.18.12-.32.12-.15 0-.25-.04-.33-.12a.42.42 0 0 1-.11-.3Zm5.3.52v.84c0 .46-.05.84-.13 1.15a2 2 0 0 1-.35.75c-.15.19-.33.33-.55.41a2.06 2.06 0 0 1-1.3.05 1.38 1.38 0 0 1-.85-.72c-.1-.19-.18-.42-.23-.69a4.97 4.97 0 0 1-.08-.95v-.84c0-.45.04-.83.12-1.14.08-.3.2-.55.35-.73.15-.19.33-.32.55-.4.21-.08.45-.12.72-.12.21 0 .4.02.59.08a1.33 1.33 0 0 1 .84.69c.1.18.18.41.23.68.06.27.08.58.08.94Zm-.71.96v-1.08a4.04 4.04 0 0 0-.17-1.13.95.95 0 0 0-.22-.33.73.73 0 0 0-.29-.18c-.1-.04-.23-.06-.36-.06a.99.99 0 0 0-.45.1.8.8 0 0 0-.32.28c-.09.14-.16.31-.2.53-.05.22-.07.48-.07.8v1.07c0 .24.01.46.04.65.03.2.08.36.14.5.05.13.12.24.2.33.1.1.19.16.3.2.1.04.23.06.36.06.18 0 .33-.03.45-.1a.8.8 0 0 0 .33-.3c.09-.15.15-.33.2-.55.04-.22.06-.49.06-.8Zm5.07-.96v.84c0 .46-.04.84-.12 1.15a2 2 0 0 1-.35.75c-.15.19-.34.33-.55.41a2.06 2.06 0 0 1-1.3.05 1.38 1.38 0 0 1-.86-.72c-.1-.19-.18-.42-.23-.69a4.97 4.97 0 0 1-.08-.95v-.84c0-.45.04-.83.12-1.14.09-.3.2-.55.36-.73.15-.19.33-.32.54-.4.22-.08.46-.12.72-.12.22 0 .41.02.6.08a1.35 1.35 0 0 1 .84.69c.1.18.18.41.23.68.05.27.08.58.08.94Zm-.7.96v-1.08c0-.24-.02-.46-.05-.65a2.05 2.05 0 0 0-.13-.48.97.97 0 0 0-.2-.33.75.75 0 0 0-.3-.18c-.11-.04-.23-.06-.37-.06a.98.98 0 0 0-.44.1.8.8 0 0 0-.33.28c-.08.14-.15.31-.2.53-.04.22-.06.48-.06.8v1.07c0 .24.01.46.04.65.03.2.07.36.13.5.06.13.13.24.21.33a.8.8 0 0 0 .3.2c.1.04.22.06.36.06.17 0 .32-.03.45-.1a.8.8 0 0 0 .32-.3c.09-.15.16-.33.2-.55.04-.22.06-.49.06-.8Zm5.06-.4v.58h-1.85v-.57h1.85Zm4.84-2.9V245h-.7v-4.67l-1.41.51v-.63l2-.76h.1Zm4.37 0V245h-.7v-4.67l-1.42.51v-.63l2-.76h.12Zm2.1 5.17c0-.12.04-.22.11-.3.08-.08.19-.13.33-.13s.25.05.32.13.11.18.11.3-.03.21-.11.3c-.07.07-.18.11-.32.11s-.25-.03-.33-.12a.42.42 0 0 1-.1-.3Zm0-3.35c0-.12.04-.22.12-.3.07-.08.18-.12.32-.12s.25.04.32.12c.08.08.12.18.12.3s-.04.22-.12.3c-.07.08-.18.12-.32.12s-.25-.04-.32-.12a.42.42 0 0 1-.11-.3Zm5.3.52v.84c0 .46-.04.84-.12 1.15a2 2 0 0 1-.35.75c-.15.19-.34.33-.55.41a2.06 2.06 0 0 1-1.3.05 1.38 1.38 0 0 1-.86-.72c-.1-.19-.17-.42-.23-.69a4.97 4.97 0 0 1-.08-.95v-.84c0-.45.04-.83.12-1.14.09-.3.2-.55.36-.73.15-.19.33-.32.54-.4.22-.08.46-.12.72-.12.22 0 .41.02.6.08a1.34 1.34 0 0 1 .84.69c.1.18.18.41.23.68.05.27.08.58.08.94Zm-.7.96v-1.08a4.04 4.04 0 0 0-.18-1.13.95.95 0 0 0-.2-.33.74.74 0 0 0-.3-.18c-.1-.04-.23-.06-.37-.06a.99.99 0 0 0-.44.1.8.8 0 0 0-.33.28c-.08.14-.15.31-.2.53-.04.22-.06.48-.06.8v1.07c0 .24.01.46.04.65.03.2.07.36.13.5.06.13.13.24.22.33.08.1.17.16.28.2.11.04.24.06.37.06.17 0 .32-.03.45-.1a.8.8 0 0 0 .32-.3c.1-.15.16-.33.2-.55.04-.22.06-.49.06-.8Zm5.07-.96v.84c0 .46-.05.84-.13 1.15a2 2 0 0 1-.35.75c-.15.19-.33.33-.54.41a2.07 2.07 0 0 1-1.3.05 1.38 1.38 0 0 1-.5-.26 1.56 1.56 0 0 1-.36-.46c-.1-.19-.18-.42-.23-.69a4.97 4.97 0 0 1-.08-.95v-.84c0-.45.04-.83.12-1.14.08-.3.2-.55.35-.73.15-.19.34-.32.55-.4.21-.08.45-.12.72-.12.21 0 .41.02.59.08a1.33 1.33 0 0 1 .84.69c.1.18.18.41.24.68.05.27.08.58.08.94Zm-.71.96v-1.08c0-.24-.02-.46-.04-.65a2.1 2.1 0 0 0-.13-.48.97.97 0 0 0-.21-.33.74.74 0 0 0-.3-.18c-.1-.04-.22-.06-.36-.06a.98.98 0 0 0-.45.1.8.8 0 0 0-.32.28c-.09.14-.15.31-.2.53a3.9 3.9 0 0 0-.07.8v1.07c0 .24.02.46.05.65.03.2.07.36.13.5.06.13.13.24.21.33.08.1.18.16.29.2.1.04.23.06.37.06.17 0 .32-.03.45-.1a.81.81 0 0 0 .32-.3c.09-.15.15-.33.2-.55.04-.22.06-.49.06-.8Z" fill="#344C76"/><rect x="250" y="168" width="82" height="40" rx="2.34" fill="#B5E4FE"/><path d="M258.96 181.26h-1.3l.02-.83h1.28c.37 0 .69-.08.94-.24.25-.16.44-.4.57-.7.13-.3.2-.67.2-1.09v-.33c0-.32-.04-.61-.12-.86a1.69 1.69 0 0 0-.32-.64c-.14-.17-.32-.3-.52-.39-.2-.09-.44-.13-.71-.13h-1.36v-.83H259c.4 0 .76.06 1.1.2a2.56 2.56 0 0 1 1.42 1.48c.13.35.2.75.2 1.18v.32c0 .44-.07.83-.2 1.18s-.32.65-.56.9c-.25.25-.54.45-.88.58-.33.13-.7.2-1.12.2Zm-.71-6.04v6.04h-1.05v-6.04h1.05Zm6.39 6.12c-.33 0-.63-.05-.9-.16a1.98 1.98 0 0 1-1.11-1.15c-.1-.27-.15-.56-.15-.86V179c0-.35.05-.67.15-.95.1-.29.25-.53.43-.73.18-.2.4-.36.65-.47.25-.11.52-.16.8-.16.33 0 .6.05.85.16.24.1.44.26.6.46.16.19.28.42.35.69.08.27.13.56.13.89v.42h-3.48v-.71h2.49v-.08c0-.18-.05-.35-.11-.51a.86.86 0 0 0-.3-.38.88.88 0 0 0-.53-.15.88.88 0 0 0-.76.41c-.09.14-.15.3-.2.49-.04.18-.07.39-.07.62v.17c0 .2.03.38.08.55.06.16.14.3.24.43.1.13.24.22.38.3.15.07.32.1.52.1a1.38 1.38 0 0 0 1.13-.56l.53.51a1.86 1.86 0 0 1-.95.72c-.22.08-.48.12-.77.12Zm3.57-3.66v3.58h-1v-4.5h.95l.05.92Zm-.16 1.17h-.34c0-.31.04-.6.12-.86.08-.27.19-.5.34-.69.15-.2.33-.35.56-.45.22-.11.48-.16.77-.16.2 0 .4.03.56.09.17.06.32.15.45.28.12.12.22.29.29.49.07.2.1.44.1.72v2.99h-1v-2.9c0-.22-.03-.4-.1-.52a.55.55 0 0 0-.28-.27 1 1 0 0 0-.42-.08 1 1 0 0 0-.49.1.9.9 0 0 0-.32.3c-.08.13-.14.27-.18.44a2.3 2.3 0 0 0-.06.52Zm2.79-.27-.47.1c0-.26.04-.52.11-.76.08-.24.2-.46.34-.64a1.6 1.6 0 0 1 1.3-.6c.23 0 .44.04.62.1a1.14 1.14 0 0 1 .75.81c.07.21.1.47.1.76v2.91h-1v-2.9c0-.24-.04-.41-.1-.54a.52.52 0 0 0-.28-.25 1.1 1.1 0 0 0-.43-.08c-.15 0-.29.03-.4.09a.8.8 0 0 0-.3.23c-.08.1-.14.22-.18.35a1.5 1.5 0 0 0-.06.42Zm3.59.48v-.1c0-.31.05-.62.14-.9.1-.27.23-.51.4-.72.19-.2.4-.37.66-.48.26-.12.56-.17.88-.17.33 0 .62.06.88.17.26.11.48.27.66.48.18.2.32.45.41.73.1.28.14.58.14.9v.1c0 .32-.04.62-.14.9-.1.27-.23.51-.4.72a1.91 1.91 0 0 1-1.54.65 1.91 1.91 0 0 1-1.95-1.38c-.1-.27-.14-.57-.14-.9Zm1-.1v.1c0 .2.02.4.06.58.04.18.1.34.2.47.08.14.2.24.34.32.13.08.3.12.49.12a.95.95 0 0 0 .82-.44c.09-.14.16-.3.2-.47.04-.18.06-.37.06-.57v-.1c0-.2-.02-.39-.06-.56-.05-.19-.11-.34-.2-.48a.95.95 0 0 0-.83-.45.95.95 0 0 0-.82.45c-.1.14-.16.3-.2.47-.04.18-.06.37-.06.57Z" fill="#2C446E"/><path fill="#4097DD" d="M317 174.3h4.01v4.01H317zM317 179.11h4.01v4.01H317zM321.81 174.3h4.01v4.01h-4.01zM321.81 179.11h4.01v4.01h-4.01z"/><path d="M260.92 191.8v.84c0 .46-.04.84-.12 1.15a2 2 0 0 1-.35.75c-.15.19-.33.33-.55.41a2.07 2.07 0 0 1-1.3.05 1.38 1.38 0 0 1-.49-.26 1.54 1.54 0 0 1-.36-.46c-.1-.19-.18-.42-.24-.69a4.97 4.97 0 0 1-.07-.95v-.84c0-.45.04-.83.12-1.14.08-.3.2-.55.35-.73.15-.19.33-.32.54-.4.22-.08.46-.12.73-.12.21 0 .4.02.59.08a1.33 1.33 0 0 1 .84.69c.1.18.18.41.23.68.06.27.08.58.08.94Zm-.7.96v-1.08c0-.24-.02-.46-.05-.65a2.1 2.1 0 0 0-.12-.48.98.98 0 0 0-.22-.33.75.75 0 0 0-.29-.18c-.1-.04-.23-.06-.37-.06a.98.98 0 0 0-.44.1.8.8 0 0 0-.32.28c-.09.14-.16.31-.2.53a3.9 3.9 0 0 0-.07.8v1.07c0 .24.01.46.04.65.03.2.08.36.13.5.06.13.13.24.22.33a.8.8 0 0 0 .29.2c.1.04.23.06.36.06.18 0 .32-.03.45-.1a.8.8 0 0 0 .33-.3c.08-.15.15-.33.2-.55.04-.22.06-.49.06-.8Zm2.3 1.65h.07c.4 0 .74-.05.99-.17.25-.11.45-.26.58-.46.14-.19.23-.4.28-.64.05-.25.08-.5.08-.75v-.85c0-.25-.03-.47-.09-.66-.05-.2-.13-.36-.23-.5-.1-.12-.21-.22-.34-.3a.94.94 0 0 0-1.16.27c-.09.12-.15.26-.2.41a1.85 1.85 0 0 0 .18 1.4c.08.13.19.23.31.3.13.08.27.11.44.11.16 0 .3-.03.44-.09a1.24 1.24 0 0 0 .63-.62c.06-.14.1-.28.11-.43h.34a1.92 1.92 0 0 1-.47 1.17c-.15.17-.32.3-.52.4a1.5 1.5 0 0 1-1.35-.01c-.2-.1-.36-.24-.49-.42a1.95 1.95 0 0 1-.29-.59 2.52 2.52 0 0 1 .02-1.4c.08-.24.19-.44.33-.61.14-.18.32-.32.53-.42.22-.1.47-.14.75-.14.31 0 .58.06.8.19.23.12.4.3.55.5.14.22.24.46.3.72.07.27.1.54.1.82v.25c0 .29-.01.58-.05.87-.04.3-.1.58-.21.84a2.03 2.03 0 0 1-1.2 1.22c-.31.13-.7.19-1.16.19h-.07v-.6Zm3.72.22c0-.12.03-.22.1-.3.08-.08.19-.13.33-.13s.25.05.32.13c.08.08.12.18.12.3s-.04.21-.12.3c-.07.07-.18.11-.32.11s-.25-.03-.32-.12a.42.42 0 0 1-.12-.3Zm0-3.35c0-.12.03-.22.1-.3.09-.08.2-.12.34-.12s.24.04.32.12c.07.08.11.18.11.3s-.04.22-.11.3c-.08.08-.18.12-.32.12-.15 0-.25-.04-.33-.12a.42.42 0 0 1-.11-.3Zm5.3.52v.84c0 .46-.05.84-.13 1.15a2 2 0 0 1-.35.75c-.15.19-.33.33-.55.41a2.06 2.06 0 0 1-1.3.05 1.38 1.38 0 0 1-.85-.72c-.1-.19-.18-.42-.23-.69a4.97 4.97 0 0 1-.08-.95v-.84c0-.45.04-.83.12-1.14.08-.3.2-.55.35-.73.15-.19.33-.32.55-.4.21-.08.45-.12.72-.12.21 0 .4.02.59.08a1.33 1.33 0 0 1 .84.69c.1.18.18.41.23.68.06.27.08.58.08.94Zm-.71.96v-1.08a4.04 4.04 0 0 0-.17-1.13.95.95 0 0 0-.22-.33.73.73 0 0 0-.29-.18c-.1-.04-.23-.06-.36-.06a.99.99 0 0 0-.45.1.8.8 0 0 0-.32.28c-.09.14-.15.31-.2.53-.05.22-.07.48-.07.8v1.07c0 .24.01.46.04.65.03.2.08.36.14.5.05.13.12.24.2.33.1.1.19.16.3.2.1.04.23.06.36.06.17 0 .33-.03.45-.1a.8.8 0 0 0 .33-.3c.08-.15.15-.33.2-.55.04-.22.06-.49.06-.8Zm5.07-.96v.84c0 .46-.04.84-.12 1.15a2 2 0 0 1-.35.75c-.15.19-.34.33-.55.41a2.06 2.06 0 0 1-1.3.05 1.38 1.38 0 0 1-.86-.72c-.1-.19-.18-.42-.23-.69a4.97 4.97 0 0 1-.08-.95v-.84c0-.45.04-.83.12-1.14.09-.3.2-.55.36-.73.15-.19.33-.32.54-.4.22-.08.46-.12.72-.12.22 0 .41.02.6.08a1.35 1.35 0 0 1 .84.69c.1.18.18.41.23.68.05.27.08.58.08.94Zm-.7.96v-1.08c0-.24-.02-.46-.05-.65a2.05 2.05 0 0 0-.13-.48.97.97 0 0 0-.2-.33.75.75 0 0 0-.3-.18c-.11-.04-.23-.06-.37-.06a.98.98 0 0 0-.44.1.8.8 0 0 0-.33.28c-.08.14-.15.31-.2.53-.04.22-.06.48-.06.8v1.07c0 .24.01.46.04.65.03.2.07.36.13.5.06.13.13.24.21.33a.8.8 0 0 0 .3.2c.1.04.22.06.36.06.17 0 .32-.03.45-.1a.8.8 0 0 0 .32-.3c.09-.15.16-.33.2-.55.04-.22.06-.49.06-.8Zm5.06-.4v.58h-1.85v-.57h1.85Zm4.84-2.9V195h-.7v-4.67l-1.41.51v-.63l2-.76h.1Zm5.52 2.34v.84c0 .46-.04.84-.12 1.15a2 2 0 0 1-.35.75c-.15.19-.33.33-.54.41a2.06 2.06 0 0 1-1.3.05 1.38 1.38 0 0 1-.86-.72c-.1-.19-.18-.42-.23-.69a4.97 4.97 0 0 1-.08-.95v-.84c0-.45.04-.83.12-1.14.08-.3.2-.55.35-.73.15-.19.33-.32.55-.4.21-.08.45-.12.72-.12.21 0 .4.02.59.08a1.34 1.34 0 0 1 .84.69c.1.18.18.41.24.68.05.27.07.58.07.94Zm-.7.96v-1.08c0-.24-.02-.46-.05-.65a2.05 2.05 0 0 0-.12-.48.97.97 0 0 0-.21-.33.75.75 0 0 0-.3-.18c-.1-.04-.23-.06-.36-.06a.98.98 0 0 0-.45.1.8.8 0 0 0-.32.28c-.09.14-.15.31-.2.53-.04.22-.07.48-.07.8v1.07c0 .24.02.46.05.65.03.2.07.36.13.5.06.13.13.24.2.33a.8.8 0 0 0 .3.2c.1.04.23.06.37.06.17 0 .32-.03.45-.1a.8.8 0 0 0 .32-.3c.09-.15.15-.33.2-.55.04-.22.06-.49.06-.8Zm1.65 1.87c0-.12.04-.22.11-.3.08-.08.19-.13.33-.13s.25.05.32.13.11.18.11.3-.04.21-.11.3c-.07.07-.18.11-.32.11s-.25-.03-.33-.12a.42.42 0 0 1-.1-.3Zm0-3.35c0-.12.04-.22.12-.3.07-.08.18-.12.32-.12s.25.04.32.12c.08.08.12.18.12.3s-.04.22-.12.3c-.07.08-.18.12-.32.12s-.25-.04-.32-.12a.42.42 0 0 1-.11-.3Zm5.3.52v.84c0 .46-.04.84-.12 1.15a2 2 0 0 1-.35.75c-.15.19-.33.33-.55.41a2.06 2.06 0 0 1-1.3.05 1.38 1.38 0 0 1-.86-.72c-.1-.19-.17-.42-.23-.69a4.97 4.97 0 0 1-.08-.95v-.84c0-.45.04-.83.12-1.14.09-.3.2-.55.36-.73.15-.19.33-.32.54-.4.22-.08.46-.12.72-.12.22 0 .41.02.6.08a1.34 1.34 0 0 1 .84.69c.1.18.18.41.23.68.05.27.08.58.08.94Zm-.7.96v-1.08a4.04 4.04 0 0 0-.18-1.13.95.95 0 0 0-.2-.33.74.74 0 0 0-.3-.18c-.1-.04-.23-.06-.37-.06a.99.99 0 0 0-.44.1.8.8 0 0 0-.33.28c-.08.14-.15.31-.2.53-.04.22-.06.48-.06.8v1.07c0 .24.01.46.04.65.03.2.07.36.13.5.06.13.13.24.22.33.08.1.17.16.28.2.11.04.24.06.37.06.17 0 .32-.03.45-.1a.8.8 0 0 0 .32-.3c.1-.15.16-.33.2-.55.04-.22.06-.49.06-.8Zm5.06-.96v.84c0 .46-.04.84-.12 1.15a2 2 0 0 1-.35.75c-.15.19-.33.33-.54.41a2.07 2.07 0 0 1-1.3.05 1.38 1.38 0 0 1-.5-.26 1.56 1.56 0 0 1-.36-.46c-.1-.19-.18-.42-.23-.69a4.97 4.97 0 0 1-.08-.95v-.84c0-.45.04-.83.12-1.14.08-.3.2-.55.35-.73.15-.19.34-.32.55-.4.21-.08.45-.12.72-.12.21 0 .41.02.59.08a1.33 1.33 0 0 1 .84.69c.1.18.18.41.23.68.06.27.09.58.09.94Zm-.7.96v-1.08c0-.24-.01-.46-.04-.65a2.1 2.1 0 0 0-.13-.48.97.97 0 0 0-.21-.33.74.74 0 0 0-.3-.18c-.1-.04-.23-.06-.36-.06a.98.98 0 0 0-.44.1.8.8 0 0 0-.33.28c-.09.14-.15.31-.2.53a3.9 3.9 0 0 0-.07.8v1.07c0 .24.02.46.05.65.03.2.07.36.13.5.06.13.13.24.21.33.08.1.18.16.29.2.1.04.23.06.37.06.17 0 .32-.03.45-.1a.81.81 0 0 0 .32-.3c.09-.15.15-.33.2-.55.04-.22.06-.49.06-.8Z" fill="#344C76"/><rect x="160" y="168" width="82" height="40" rx="2.34" fill="#CAECC1"/><path d="M167.37 175.07h.93l1.75 4.66 1.74-4.66h.93l-2.3 6.05h-.74l-2.3-6.05Zm-.42 0h.88l.16 4.04v2h-1.04v-6.04Zm5.31 0h.9v6.05h-1.05v-2.01l.15-4.04Zm4.56 5.15v-2.15c0-.16-.03-.3-.09-.41a.61.61 0 0 0-.26-.27.92.92 0 0 0-.44-.1c-.17 0-.3.03-.43.09a.68.68 0 0 0-.27.22c-.07.1-.1.2-.1.32h-1c0-.18.04-.35.13-.51.08-.17.2-.32.37-.45.17-.13.36-.23.59-.3.22-.08.48-.12.76-.12.34 0 .64.06.9.17.26.12.47.29.62.52.15.22.22.5.22.85v2c0 .2.02.39.05.55.03.16.07.3.12.42v.07h-1.02a1.8 1.8 0 0 1-.11-.41 3.33 3.33 0 0 1-.04-.5Zm.15-1.84v.62h-.72c-.18 0-.34.02-.48.06-.15.03-.26.08-.36.15a.66.66 0 0 0-.28.56c0 .12.03.23.08.32.06.1.14.18.24.23a1.1 1.1 0 0 0 1.3-.35.67.67 0 0 0 .14-.35l.32.44a1.77 1.77 0 0 1-.49.74 1.55 1.55 0 0 1-1.07.4c-.3 0-.56-.06-.78-.17a1.4 1.4 0 0 1-.55-.48c-.13-.2-.19-.43-.19-.69a1.24 1.24 0 0 1 .53-1.1c.18-.12.4-.21.65-.27.25-.07.54-.1.87-.1h.78Zm2.97-1.75v4.49h-1v-4.5h1Zm-1.07-1.18c0-.16.05-.28.15-.38.1-.1.24-.15.42-.15s.32.05.42.15c.1.1.16.22.16.38a.5.5 0 0 1-.16.37c-.1.1-.24.15-.42.15a.58.58 0 0 1-.42-.15.5.5 0 0 1-.15-.37Zm3.16 2.13v3.54h-1v-4.5h.94l.06.96Zm-.18 1.13h-.32c0-.33.04-.62.13-.89.09-.26.2-.49.36-.68a1.62 1.62 0 0 1 1.3-.6c.22 0 .41.03.59.1.17.05.32.15.45.28.12.13.22.3.29.52.06.2.1.47.1.78v2.9h-1v-2.9c0-.22-.04-.4-.1-.52a.53.53 0 0 0-.27-.27 1 1 0 0 0-.44-.08.97.97 0 0 0-.8.4c-.1.13-.16.27-.21.43-.06.16-.08.34-.08.53Zm7.04-1.22v5.35h-1v-6.21h.92l.08.86Zm2.93 1.34v.09c0 .32-.04.63-.12.9-.08.28-.19.52-.34.73a1.54 1.54 0 0 1-1.29.65c-.28 0-.52-.05-.73-.15a1.5 1.5 0 0 1-.53-.45c-.14-.19-.26-.41-.35-.67a4.3 4.3 0 0 1-.18-.86v-.33c.03-.33.1-.63.18-.9.09-.27.2-.5.35-.7.14-.18.32-.33.53-.44.2-.1.45-.16.72-.16.29 0 .54.06.75.17.22.1.4.26.56.46.15.2.26.44.33.73.08.28.12.59.12.93Zm-1 .09v-.1c0-.2-.02-.39-.06-.57-.04-.18-.1-.34-.19-.47a.88.88 0 0 0-.78-.43c-.17 0-.32.03-.45.09a.88.88 0 0 0-.32.24c-.09.1-.15.23-.2.37a2.2 2.2 0 0 0-.1.46v.8c.03.2.09.38.17.55.08.16.2.3.34.4.15.1.34.14.57.14.18 0 .34-.04.46-.11a.9.9 0 0 0 .31-.32c.09-.14.15-.3.19-.48.04-.18.06-.37.06-.57Zm4.38 1.3v-2.15c0-.16-.03-.3-.09-.41a.62.62 0 0 0-.27-.27.92.92 0 0 0-.44-.1c-.16 0-.3.03-.42.09a.68.68 0 0 0-.28.22c-.06.1-.1.2-.1.32h-1c0-.18.05-.35.14-.51.08-.17.2-.32.37-.45.16-.13.36-.23.58-.3.23-.08.49-.12.77-.12.34 0 .63.06.9.17.26.12.46.29.61.52.16.22.23.5.23.85v2c0 .2.02.39.04.55.03.16.08.3.13.42v.07h-1.02a1.8 1.8 0 0 1-.11-.41 3.33 3.33 0 0 1-.04-.5Zm.14-1.84.01.62h-.72c-.18 0-.34.02-.49.06a1 1 0 0 0-.35.15.66.66 0 0 0-.28.56c0 .12.03.23.08.32.06.1.14.18.24.23a1.1 1.1 0 0 0 1.3-.35.67.67 0 0 0 .13-.35l.33.44a1.8 1.8 0 0 1-.49.74 1.56 1.56 0 0 1-1.07.4c-.3 0-.56-.06-.79-.17a1.4 1.4 0 0 1-.54-.48c-.13-.2-.2-.43-.2-.69 0-.24.05-.45.14-.63.1-.18.23-.34.4-.46.18-.13.4-.22.65-.28.25-.07.54-.1.87-.1h.78Zm4.78-1.75h.91v4.36c0 .4-.08.75-.25 1.03-.18.28-.41.5-.72.64a2.4 2.4 0 0 1-1.64.15c-.2-.05-.41-.13-.6-.24a1.5 1.5 0 0 1-.5-.42l.48-.6a1.44 1.44 0 0 0 1.73.42c.16-.07.28-.2.37-.36.09-.16.13-.36.13-.6v-3.37l.1-1.01Zm-3.05 2.3v-.1c0-.34.05-.65.13-.93s.2-.52.36-.72c.15-.2.34-.36.56-.47.22-.11.47-.17.75-.17.3 0 .54.06.74.16.21.1.38.26.52.45.14.2.25.43.33.7.08.27.14.57.17.9v.28c-.03.31-.1.6-.18.87-.08.27-.2.5-.34.7a1.46 1.46 0 0 1-1.25.6 1.6 1.6 0 0 1-1.3-.65c-.16-.2-.28-.44-.36-.72a3.19 3.19 0 0 1-.13-.9Zm1-.1v.1c0 .2.02.39.06.56.04.18.1.34.19.47a1 1 0 0 0 .32.32c.14.07.3.11.47.11.24 0 .43-.05.58-.15.15-.1.27-.23.35-.4.08-.17.14-.36.17-.58v-.75a1.85 1.85 0 0 0-.1-.45 1.22 1.22 0 0 0-.2-.37.84.84 0 0 0-.33-.25c-.13-.06-.28-.1-.46-.1a.92.92 0 0 0-.47.12.95.95 0 0 0-.33.32c-.08.14-.14.3-.18.48a2.6 2.6 0 0 0-.07.57Zm5.98 2.37a2.4 2.4 0 0 1-.9-.16 1.98 1.98 0 0 1-1.1-1.16c-.1-.26-.16-.55-.16-.85v-.17c0-.35.05-.67.16-.96.1-.28.24-.53.42-.73.19-.2.4-.36.65-.47.25-.1.52-.16.81-.16.32 0 .6.06.84.16.24.11.44.27.6.46.16.2.28.43.36.7.08.26.12.56.12.88v.43h-3.47v-.72h2.48v-.08c0-.18-.04-.35-.1-.5a.86.86 0 0 0-.3-.38.88.88 0 0 0-.53-.15.9.9 0 0 0-.45.1.9.9 0 0 0-.32.31c-.08.13-.15.3-.2.48-.04.19-.06.4-.06.63v.16c0 .2.02.38.08.55.05.17.13.31.24.44.1.12.23.22.38.3a1.38 1.38 0 0 0 1.64-.45l.53.5a1.89 1.89 0 0 1-.95.72c-.22.08-.48.12-.77.12Zm7.4-1.14v-3.43h1v4.49h-.94l-.06-1.06Zm.14-.94h.33c0 .3-.03.58-.1.83-.06.25-.16.47-.3.66-.14.18-.32.33-.53.44-.22.1-.48.15-.78.15-.22 0-.42-.03-.6-.1a1.23 1.23 0 0 1-.48-.3c-.13-.12-.23-.3-.3-.51a2.4 2.4 0 0 1-.1-.76v-2.9h1v2.9c0 .17.01.3.05.42.04.1.1.2.16.26.07.06.14.11.23.14.1.03.19.04.29.04.28 0 .5-.05.67-.17a.92.92 0 0 0 .35-.45c.07-.2.1-.4.1-.65Zm2.89-1.63v5.35h-1v-6.21h.92l.08.86Zm2.93 1.34v.09c0 .32-.04.63-.12.9a2.2 2.2 0 0 1-.34.73 1.54 1.54 0 0 1-1.29.65c-.28 0-.52-.05-.73-.15a1.5 1.5 0 0 1-.53-.45c-.14-.19-.26-.41-.35-.67a4.3 4.3 0 0 1-.18-.86v-.33c.04-.33.1-.63.18-.9.1-.27.2-.5.35-.7a1.47 1.47 0 0 1 1.25-.6c.29 0 .54.06.76.17.22.1.4.26.55.46.15.2.26.44.33.73.08.28.12.59.12.93Zm-1 .09v-.1c0-.2-.02-.39-.06-.57-.04-.18-.1-.34-.18-.47a.87.87 0 0 0-.78-.43c-.18 0-.33.03-.46.09a.87.87 0 0 0-.32.24c-.09.1-.15.23-.2.37-.05.14-.08.3-.1.46v.8c.03.2.09.38.17.55.08.16.2.3.34.4.15.1.34.14.57.14.18 0 .34-.04.46-.11a.9.9 0 0 0 .32-.32c.08-.14.14-.3.18-.48.04-.18.06-.37.06-.57Zm4.59 1.27v-5.45h1v6.38h-.9l-.1-.93Zm-2.93-1.27v-.09c0-.34.05-.65.13-.93s.2-.52.34-.72c.16-.2.34-.36.56-.47.22-.11.47-.17.74-.17s.5.06.71.16c.2.1.38.26.52.45.15.2.26.43.35.7.09.27.15.57.18.9v.28c-.03.31-.1.6-.18.87-.09.27-.2.5-.34.7a1.48 1.48 0 0 1-1.25.6 1.56 1.56 0 0 1-1.29-.65c-.15-.2-.26-.44-.34-.72a3.3 3.3 0 0 1-.13-.9Zm1-.09v.1c0 .2.02.39.06.56.04.18.1.34.18.47.08.13.18.24.3.32.14.07.3.11.47.11.23 0 .42-.05.56-.15.15-.1.27-.23.35-.4.08-.17.14-.36.17-.58v-.75a1.9 1.9 0 0 0-.1-.45 1.22 1.22 0 0 0-.2-.37.85.85 0 0 0-.32-.25 1 1 0 0 0-.45-.1.88.88 0 0 0-.46.12.94.94 0 0 0-.32.32c-.08.14-.14.3-.18.48-.04.18-.06.37-.06.57Zm6.5 1.39v-2.15a.9.9 0 0 0-.08-.41.61.61 0 0 0-.26-.27.92.92 0 0 0-.44-.1c-.17 0-.3.03-.43.09a.69.69 0 0 0-.28.22c-.06.1-.1.2-.1.32h-1c0-.18.05-.35.14-.51.08-.17.2-.32.37-.45.16-.13.36-.23.59-.3.22-.08.48-.12.76-.12.34 0 .64.06.9.17.26.12.47.29.61.52.16.22.23.5.23.85v2c0 .2.02.39.04.55.03.16.08.3.13.42v.07h-1.02a1.8 1.8 0 0 1-.11-.41 3.33 3.33 0 0 1-.04-.5Zm.15-1.84.01.62h-.72a2 2 0 0 0-.49.06 1 1 0 0 0-.35.15.66.66 0 0 0-.28.56.6.6 0 0 0 .32.56c.11.05.24.08.4.08a1.1 1.1 0 0 0 .9-.44.69.69 0 0 0 .14-.35l.32.44a1.8 1.8 0 0 1-.49.74 1.55 1.55 0 0 1-1.07.4c-.3 0-.56-.06-.79-.17a1.4 1.4 0 0 1-.54-.48 1.42 1.42 0 0 1-.06-1.32c.1-.18.23-.34.4-.46.18-.13.4-.22.65-.28.25-.07.54-.1.87-.1h.78Zm3.97-1.75v.73h-2.53v-.73h2.53Zm-1.8-1.1h1v4.34c0 .14.02.25.06.32.04.08.1.13.17.15.07.03.15.04.25.04a1.6 1.6 0 0 0 .35-.04v.76a2.46 2.46 0 0 1-.66.1c-.23 0-.43-.04-.6-.12a.9.9 0 0 1-.42-.4c-.1-.19-.15-.44-.15-.74v-4.41Zm4.55 5.67c-.33 0-.63-.05-.9-.16a1.98 1.98 0 0 1-1.11-1.16c-.1-.26-.15-.55-.15-.85v-.17c0-.35.05-.67.16-.96.1-.28.24-.53.42-.73.18-.2.4-.36.65-.47.25-.1.52-.16.8-.16.33 0 .61.06.85.16.24.11.44.27.6.46.16.2.28.43.36.7.08.26.12.56.12.88v.43h-3.47v-.72h2.48v-.08c0-.18-.04-.35-.1-.5a.86.86 0 0 0-.3-.38.88.88 0 0 0-.53-.15.89.89 0 0 0-.76.41c-.1.13-.16.3-.2.48-.05.19-.08.4-.08.63v.16c0 .2.03.38.08.55.06.17.14.31.24.44.11.12.24.22.39.3a1.39 1.39 0 0 0 1.64-.45l.53.5a1.9 1.9 0 0 1-.95.72c-.22.08-.48.12-.77.12Z" fill="#28522F"/><rect x="250" y="273" width="82" height="40" rx="2.34" fill="#FFEEAB"/><path d="M260.8 283.44a.88.88 0 0 0-.06-.33.65.65 0 0 0-.2-.26 1.6 1.6 0 0 0-.4-.24 5.18 5.18 0 0 0-.65-.23 7.26 7.26 0 0 1-.8-.3 3 3 0 0 1-.62-.38 1.41 1.41 0 0 1-.57-1.16 1.46 1.46 0 0 1 .6-1.2c.19-.15.42-.26.68-.34.26-.08.55-.13.87-.13.45 0 .84.09 1.16.25.33.17.58.4.75.67.18.28.27.59.27.93h-1.04c0-.2-.04-.38-.13-.53a.87.87 0 0 0-.38-.37 1.39 1.39 0 0 0-.64-.13c-.25 0-.45.04-.62.11a.8.8 0 0 0-.36.3.8.8 0 0 0-.12.44c0 .11.03.22.08.31.05.1.13.18.24.26.1.07.24.15.4.22.17.07.36.13.58.2.34.1.63.2.88.33.25.12.45.25.62.4a1.5 1.5 0 0 1 .5 1.18c0 .25-.05.48-.15.68-.1.2-.25.38-.44.52-.2.14-.42.25-.69.33a3.2 3.2 0 0 1-2.5-.36 1.68 1.68 0 0 1-.75-1.44h1.04c0 .2.04.37.1.5.07.14.17.26.29.35.12.08.26.15.42.19a2.1 2.1 0 0 0 1.13-.04.8.8 0 0 0 .38-.3.76.76 0 0 0 .12-.43Zm5.92.73v.83h-3.21v-.83h3.2Zm-2.92-5.21V285h-1.04v-6.04h1.04Zm2.5 2.52v.81h-2.8v-.81h2.8Zm.4-2.52v.83h-3.2v-.83h3.2Zm5.69 2.85v.33c0 .46-.06.87-.18 1.23-.12.37-.3.67-.51.93-.22.25-.49.45-.8.58-.3.14-.64.2-1.01.2s-.71-.06-1.02-.2a2.3 2.3 0 0 1-.8-.58c-.22-.26-.4-.56-.52-.93a3.87 3.87 0 0 1-.18-1.23v-.33c0-.45.06-.86.18-1.22.13-.36.3-.67.52-.93.22-.26.49-.45.8-.58.3-.14.64-.2 1-.2.38 0 .72.06 1.03.2.3.13.57.32.8.58.21.26.38.57.5.93.13.36.19.77.19 1.22Zm-1.05.33v-.34c0-.33-.03-.63-.1-.89a1.83 1.83 0 0 0-.28-.65 1.2 1.2 0 0 0-.46-.4c-.19-.09-.4-.13-.62-.13a1.24 1.24 0 0 0-1.08.53c-.12.18-.22.4-.28.65-.07.26-.1.56-.1.9v.33c0 .34.03.64.1.9a2 2 0 0 0 .29.66c.13.18.28.31.46.4.18.1.39.14.62.14a1.25 1.25 0 0 0 1.07-.53c.13-.19.22-.4.28-.67.07-.26.1-.56.1-.9Zm3.91.66v-.1c0-.31.05-.62.14-.9.1-.27.23-.51.41-.72.18-.2.4-.37.66-.48.26-.12.55-.17.88-.17.33 0 .62.05.88.17.26.11.48.27.66.48.18.2.31.45.4.73.1.27.15.57.15.9v.1c0 .32-.05.62-.14.9-.1.27-.23.51-.41.72a1.9 1.9 0 0 1-1.53.65 1.9 1.9 0 0 1-1.54-.65c-.18-.2-.32-.45-.42-.73-.09-.27-.14-.57-.14-.9Zm1-.1v.1c0 .2.02.4.07.58.04.18.1.33.2.47.08.14.2.24.33.32a1 1 0 0 0 .5.12c.18 0 .34-.04.48-.12a.97.97 0 0 0 .34-.32c.09-.14.15-.3.2-.47.04-.18.06-.37.06-.58v-.1c0-.19-.02-.38-.07-.56-.04-.18-.1-.33-.2-.47a.95.95 0 0 0-.82-.45.95.95 0 0 0-.83.45c-.09.14-.15.3-.2.47-.04.18-.06.37-.06.57Zm5.02-1.33v5.36h-1v-6.22h.92l.08.86Zm2.93 1.34v.09c0 .33-.04.63-.12.9a2.2 2.2 0 0 1-.33.74 1.58 1.58 0 0 1-1.3.65 1.5 1.5 0 0 1-1.26-.6c-.14-.2-.26-.42-.35-.68a4.3 4.3 0 0 1-.18-.85v-.34c.04-.33.1-.63.18-.9.1-.26.2-.5.35-.69a1.49 1.49 0 0 1 1.26-.6 1.5 1.5 0 0 1 1.3.63c.15.2.26.44.33.72.08.28.12.59.12.93Zm-1 .09v-.09c0-.2-.02-.4-.06-.57-.04-.18-.1-.34-.18-.48a.9.9 0 0 0-.78-.43c-.18 0-.33.03-.46.1a.86.86 0 0 0-.32.24c-.09.1-.15.23-.2.37-.05.13-.08.29-.1.45v.8c.03.2.1.39.17.55.08.17.2.3.34.4.15.1.34.15.57.15.18 0 .34-.04.46-.12a.91.91 0 0 0 .32-.32c.08-.14.14-.3.18-.48.04-.18.06-.37.06-.57Zm3.9-2.3v.74h-2.53v-.73h2.54Zm-1.8-1.1h1v4.36c0 .14.02.24.06.32.05.07.1.12.17.14.08.03.16.04.26.04a1.6 1.6 0 0 0 .35-.04v.77a2.7 2.7 0 0 1-.66.1c-.23 0-.43-.05-.61-.13a.9.9 0 0 1-.42-.4c-.1-.19-.14-.43-.14-.74v-4.41Zm3.65 1.1v4.5h-1v-4.5h1Zm-1.07-1.17c0-.15.05-.28.15-.38.1-.1.24-.15.42-.15s.32.05.42.15c.1.1.15.23.15.38a.5.5 0 0 1-.15.37c-.1.1-.24.15-.42.15a.58.58 0 0 1-.42-.15.5.5 0 0 1-.15-.37Zm3.17 2.1V285h-1v-4.5h.94l.06.92Zm-.17 1.16h-.34c0-.31.04-.6.12-.86.08-.27.2-.5.34-.69.15-.2.33-.35.56-.45.22-.11.48-.16.77-.16.2 0 .4.03.56.09.17.06.32.15.45.28.12.12.22.29.29.49.07.2.1.44.1.72V285h-1v-2.9c0-.22-.03-.4-.1-.52a.56.56 0 0 0-.28-.27 1.01 1.01 0 0 0-.42-.08 1 1 0 0 0-.49.1.91.91 0 0 0-.31.3c-.09.13-.15.27-.19.44-.04.16-.06.33-.06.52Zm2.79-.27-.47.1c0-.26.04-.52.11-.76.08-.25.2-.46.34-.64.15-.19.33-.33.55-.44.22-.1.47-.15.75-.15.23 0 .44.03.62.1.18.05.33.15.46.28.13.13.22.3.3.52.06.21.09.47.09.77v2.9h-1v-2.9c0-.24-.04-.41-.1-.54a.52.52 0 0 0-.28-.25 1.1 1.1 0 0 0-.43-.08c-.15 0-.29.03-.4.09a.82.82 0 0 0-.3.24c-.08.1-.14.21-.18.34-.04.13-.06.27-.06.42Zm4.85-1.81V285h-1v-4.5h1Zm-1.07-1.18c0-.15.05-.28.15-.38.1-.1.24-.15.42-.15s.32.05.42.15c.1.1.16.23.16.38a.5.5 0 0 1-.16.37c-.1.1-.24.15-.42.15a.58.58 0 0 1-.42-.15.5.5 0 0 1-.15-.37Zm5.64 4.87v.8h-3.34v-.8h3.34Zm-.1-3.07-2.9 3.87h-.65v-.64l2.9-3.85h.66v.62Zm-.38-.62v.8h-3.12v-.8h3.12Zm3.81 3.59v-2.14c0-.16-.03-.3-.08-.42a.61.61 0 0 0-.27-.27.9.9 0 0 0-.44-.1 1 1 0 0 0-.42.09.69.69 0 0 0-.28.23c-.07.09-.1.2-.1.31h-1c0-.17.05-.34.13-.51.09-.17.21-.31.38-.44.16-.14.35-.24.58-.31.23-.08.48-.11.76-.11.34 0 .64.05.9.17.26.11.47.28.62.51.15.23.23.51.23.86v2c0 .2.01.38.04.54.03.17.07.3.13.42v.07h-1.03a1.8 1.8 0 0 1-.11-.41 3.34 3.34 0 0 1-.04-.5Zm.15-1.83v.62h-.71c-.19 0-.35.01-.5.05-.13.04-.25.08-.34.15a.64.64 0 0 0-.29.56c0 .12.03.23.09.33.05.1.13.17.24.23a1.1 1.1 0 0 0 1.3-.35.67.67 0 0 0 .13-.36l.32.45a1.77 1.77 0 0 1-.49.74 1.57 1.57 0 0 1-1.07.4c-.3 0-.55-.06-.78-.18a1.4 1.4 0 0 1-.54-.48c-.13-.2-.2-.43-.2-.68 0-.24.05-.45.14-.63.09-.19.22-.35.4-.47.17-.12.39-.22.64-.28.26-.07.55-.1.87-.1h.79Zm3.96-1.76v.73H308v-.73h2.53Zm-1.8-1.1h1v4.35c0 .14.02.24.06.32.04.07.1.12.17.14.07.03.16.04.25.04a1.59 1.59 0 0 0 .36-.04v.77a2.7 2.7 0 0 1-.67.1c-.22 0-.43-.05-.6-.13a.9.9 0 0 1-.42-.4c-.1-.19-.15-.43-.15-.74v-4.41Zm3.64 1.1V285h-1v-4.5h1Zm-1.07-1.18c0-.15.05-.28.15-.38.1-.1.25-.15.43-.15.17 0 .31.05.42.15.1.1.15.23.15.38a.5.5 0 0 1-.15.37c-.1.1-.25.15-.42.15a.58.58 0 0 1-.43-.15.5.5 0 0 1-.15-.37Zm1.98 3.47v-.1c0-.31.05-.62.14-.9.1-.27.23-.51.4-.72.19-.2.4-.37.66-.48.26-.12.56-.17.88-.17.33 0 .63.05.88.17.26.11.48.27.66.48.18.2.32.45.41.73.1.27.14.57.14.9v.1c0 .32-.04.62-.14.9-.1.27-.23.51-.4.72a1.9 1.9 0 0 1-1.54.65 1.9 1.9 0 0 1-1.54-.65c-.18-.2-.32-.45-.41-.73-.1-.27-.14-.57-.14-.9Zm1-.1v.1c0 .2.02.4.06.58.04.18.1.33.2.47.08.14.2.24.34.32a1 1 0 0 0 .5.12c.18 0 .34-.04.47-.12a.97.97 0 0 0 .34-.32c.1-.14.16-.3.2-.47.04-.18.06-.37.06-.58v-.1c0-.19-.02-.38-.06-.56-.04-.18-.11-.33-.2-.47a.95.95 0 0 0-.83-.45.95.95 0 0 0-.82.45c-.1.14-.16.3-.2.47-.04.18-.06.37-.06.57Zm5-1.23V285h-1v-4.5h.95l.06.97Zm-.17 1.12h-.33c0-.32.05-.62.14-.88.08-.27.2-.5.36-.69a1.6 1.6 0 0 1 1.3-.6c.21 0 .4.04.58.1.18.06.33.15.45.28.13.14.23.31.3.52.06.21.1.47.1.78v2.9H321v-2.9c0-.22-.03-.4-.1-.52a.54.54 0 0 0-.27-.27 1.02 1.02 0 0 0-.43-.08.97.97 0 0 0-.8.4c-.1.13-.17.27-.22.44-.05.16-.07.33-.07.52Z" fill="#5F4D1A"/><rect x="68" y="220" width="82" height="91" rx="2.34" fill="#CAECC1"/><path d="M78.38 230.44a.88.88 0 0 0-.05-.33.65.65 0 0 0-.2-.26 1.6 1.6 0 0 0-.4-.24 5.16 5.16 0 0 0-.65-.23 7.25 7.25 0 0 1-.8-.3 3 3 0 0 1-.62-.38 1.4 1.4 0 0 1-.57-1.16 1.46 1.46 0 0 1 .6-1.2c.19-.15.42-.26.68-.34.26-.08.55-.13.87-.13.45 0 .84.09 1.16.25.33.17.58.4.75.67.18.28.27.59.27.93h-1.04c0-.2-.04-.38-.13-.53a.88.88 0 0 0-.38-.37 1.39 1.39 0 0 0-.64-.13c-.25 0-.45.04-.61.11a.81.81 0 0 0-.37.3.8.8 0 0 0-.12.44c0 .11.03.22.08.31.05.1.13.18.24.26.1.07.24.15.4.22.17.07.36.13.58.2.34.1.63.2.88.33.25.12.46.25.62.4a1.5 1.5 0 0 1 .5 1.18c0 .25-.05.48-.15.68-.1.2-.25.38-.44.52-.2.14-.42.25-.69.33a3.2 3.2 0 0 1-2.5-.36 1.68 1.68 0 0 1-.75-1.44h1.04c0 .2.04.37.1.5.07.14.17.26.29.35.12.08.26.15.42.19a2.1 2.1 0 0 0 1.14-.04.8.8 0 0 0 .37-.3.76.76 0 0 0 .12-.43Zm2.94-2.93V232h-1v-4.5h1Zm-1.07-1.18c0-.15.05-.28.15-.38.1-.1.24-.15.42-.15s.32.05.42.15c.1.1.16.23.16.38a.5.5 0 0 1-.16.37c-.1.1-.24.15-.42.15a.58.58 0 0 1-.42-.15.5.5 0 0 1-.15-.37Zm4.23 1.18v.73h-2.54v-.73h2.54Zm-1.8-1.1h1v4.35c0 .14.01.24.05.32.04.07.1.12.17.14.08.03.16.04.26.04a1.6 1.6 0 0 0 .35-.04v.77a2.68 2.68 0 0 1-.66.1c-.23 0-.43-.05-.61-.13a.9.9 0 0 1-.42-.4c-.1-.19-.15-.43-.15-.74v-4.41Zm4.55 5.67a2.4 2.4 0 0 1-.9-.16 1.99 1.99 0 0 1-1.11-1.15c-.1-.27-.15-.56-.15-.86v-.17c0-.35.05-.67.15-.95.1-.29.25-.53.43-.73.18-.2.4-.36.65-.47.25-.11.52-.16.8-.16.33 0 .6.05.85.16.24.1.44.26.6.45.16.2.28.43.35.7.08.27.12.56.12.89v.42h-3.46v-.72h2.48v-.07c0-.18-.04-.35-.11-.51a.87.87 0 0 0-.3-.38.89.89 0 0 0-.53-.15.88.88 0 0 0-.76.41c-.09.14-.15.3-.2.48-.04.2-.07.4-.07.63v.17c0 .2.03.38.08.55.06.16.14.3.24.43.1.13.24.23.39.3.14.07.31.1.5.1a1.38 1.38 0 0 0 1.14-.56l.53.52a1.9 1.9 0 0 1-.95.72c-.22.07-.48.11-.77.11Zm7.4-1.14v-3.43h1V232h-.95l-.06-1.06Zm.13-.93.34-.01c0 .3-.03.58-.1.83-.06.26-.17.48-.3.66-.14.19-.32.33-.54.44-.21.1-.47.15-.77.15-.22 0-.42-.03-.6-.1a1.24 1.24 0 0 1-.48-.29c-.13-.13-.23-.3-.3-.52a2.4 2.4 0 0 1-.1-.76v-2.9h1v2.9c0 .17.01.3.05.42.04.1.1.2.16.26.06.07.14.12.23.14.09.03.18.04.28.04.29 0 .51-.05.67-.16a.92.92 0 0 0 .36-.46c.07-.19.1-.4.1-.64Zm2.9-1.64v5.36h-1v-6.22h.92l.08.86Zm2.92 1.34v.09c0 .33-.03.63-.11.9-.08.29-.19.53-.34.74-.15.2-.33.36-.54.47-.22.12-.47.17-.75.17s-.52-.05-.73-.15a1.5 1.5 0 0 1-.53-.44c-.14-.2-.26-.42-.35-.68a4.31 4.31 0 0 1-.18-.85v-.34c.03-.33.1-.63.18-.9.09-.26.2-.5.35-.69a1.5 1.5 0 0 1 1.25-.6 1.5 1.5 0 0 1 1.3.63c.16.2.27.44.34.72.08.28.11.59.11.93Zm-1 .09v-.09c0-.2-.02-.4-.05-.57a1.5 1.5 0 0 0-.19-.48.9.9 0 0 0-.78-.43c-.17 0-.33.03-.45.1a.87.87 0 0 0-.32.24c-.09.1-.16.23-.2.37a2.2 2.2 0 0 0-.1.45v.8c.03.2.09.39.17.55.08.17.2.3.34.4.15.1.34.15.57.15.18 0 .33-.04.46-.12a.91.91 0 0 0 .31-.32c.09-.14.15-.3.19-.48.03-.18.05-.37.05-.57Zm4.6 1.27v-5.44h1V232h-.91l-.1-.93Zm-2.93-1.27v-.08c0-.34.04-.65.12-.93.08-.28.2-.53.35-.73a1.54 1.54 0 0 1 1.3-.63c.27 0 .5.05.71.15.2.1.38.26.52.46.15.19.26.42.35.7.08.26.14.56.18.89v.28c-.04.32-.1.61-.18.88-.09.26-.2.5-.35.69a1.49 1.49 0 0 1-1.24.6 1.58 1.58 0 0 1-1.29-.64c-.15-.2-.27-.45-.35-.73a3.29 3.29 0 0 1-.12-.9Zm1-.08v.08c0 .2.02.4.06.58.03.17.1.33.17.47.08.13.19.23.32.31.13.08.28.11.46.11.23 0 .41-.05.56-.15.15-.1.26-.23.35-.4.08-.17.14-.36.17-.57v-.75a1.83 1.83 0 0 0-.1-.46 1.24 1.24 0 0 0-.2-.37.86.86 0 0 0-.33-.25 1 1 0 0 0-.44-.09.87.87 0 0 0-.47.12.94.94 0 0 0-.31.32c-.08.13-.14.3-.18.47a2.8 2.8 0 0 0-.06.58Zm6.5 1.38v-2.14c0-.16-.02-.3-.08-.42a.61.61 0 0 0-.27-.27.9.9 0 0 0-.44-.1 1 1 0 0 0-.42.09.69.69 0 0 0-.28.23c-.07.09-.1.2-.1.31h-1c0-.17.05-.34.14-.51.08-.17.2-.31.37-.44.16-.13.36-.24.58-.31.23-.08.48-.11.77-.11.34 0 .63.05.9.17.26.11.46.28.61.51.15.23.23.51.23.86v2c0 .2.01.38.04.54.03.17.08.3.13.42v.07h-1.03a1.8 1.8 0 0 1-.1-.41 3.34 3.34 0 0 1-.04-.5Zm.15-1.83v.62h-.7c-.2 0-.36.02-.5.05-.14.03-.26.08-.35.15a.64.64 0 0 0-.28.56c0 .12.02.23.08.33.05.1.13.17.24.23.1.05.24.08.4.08a1.1 1.1 0 0 0 .9-.44.67.67 0 0 0 .13-.35l.33.45-.17.36c-.08.13-.19.26-.32.38a1.57 1.57 0 0 1-1.08.4c-.29 0-.55-.06-.78-.18a1.4 1.4 0 0 1-.54-.48c-.13-.2-.2-.43-.2-.68 0-.24.05-.45.14-.63.1-.19.22-.34.4-.47.18-.12.4-.22.65-.28.25-.07.54-.1.87-.1h.78Zm3.96-1.76v.73h-2.53v-.73h2.53Zm-1.8-1.1h1v4.35c0 .14.02.24.06.32.04.07.1.12.17.14.07.03.16.04.25.04a1.59 1.59 0 0 0 .36-.04v.77a2.7 2.7 0 0 1-.66.1c-.23 0-.43-.05-.61-.13a.9.9 0 0 1-.42-.4c-.1-.19-.15-.43-.15-.74v-4.41Zm4.56 5.67c-.34 0-.64-.05-.9-.16a1.98 1.98 0 0 1-1.11-1.15c-.1-.27-.15-.56-.15-.86v-.17c0-.35.05-.67.15-.95.1-.29.25-.53.43-.73.18-.2.4-.36.65-.47.25-.11.52-.16.8-.16.33 0 .6.05.85.16.24.1.44.26.6.45.16.2.28.43.35.7.08.27.12.56.12.89v.42h-3.47v-.72h2.49v-.07c-.01-.18-.05-.35-.11-.51a.87.87 0 0 0-.3-.38.89.89 0 0 0-.53-.15.88.88 0 0 0-.76.41c-.09.14-.15.3-.2.48-.05.2-.07.4-.07.63v.17c0 .2.03.38.08.55.06.16.14.3.24.43.1.13.23.23.38.3.15.07.32.1.52.1a1.38 1.38 0 0 0 1.13-.56l.52.52a1.89 1.89 0 0 1-.95.72c-.21.07-.47.11-.76.11Z" fill="#28522F"/></g></g><g filter="url(#d)"><circle cx="301.89" cy="127.89" r="43.89" fill="#fff"/></g><g clip-path="url(#e)"><path d="M320.08 128.37c0-.3-.16-.6-.42-.75l-.02-.01-13.7-8.1a1.84 1.84 0 0 0-2.05 0l-13.68 8.1h-.02a.9.9 0 0 0 .02 1.53l13.69 8.1.18.12a1.84 1.84 0 0 0 1.87-.11l13.7-8.1a.88.88 0 0 0 .43-.78Z" fill="#0A2767"/><path d="M291.8 122.96h8.99v8.24h-8.99v-8.24Zm26.44-8.37v-3.76a1.7 1.7 0 0 0-1.67-1.75h-23.3a1.7 1.7 0 0 0-1.67 1.75v3.76l13.78 3.68 12.86-3.68Z" fill="#0364B8"/><path d="M291.6 114.6h9.18v8.26h-9.18v-8.27Z" fill="#0078D4"/><path d="M309.97 114.6h-9.19v8.26l9.2 8.27h8.26v-8.27l-8.27-8.27Z" fill="#28A8EA"/><path d="M300.79 122.86h9.18v8.27h-9.19v-8.27Z" fill="#0078D4"/><path d="M300.79 131.13h9.18v8.27h-9.19v-8.27Z" fill="#0364B8"/><path d="M291.8 131.2h8.99v7.48h-8.99v-7.48Z" fill="#14447D"/><path d="M309.97 131.13h8.27v8.27h-8.27v-8.27Z" fill="#0078D4"/><path d="M319.66 129.1h-.02l-13.69 7.7-.18.1c-.23.11-.49.18-.74.19l-.75-.44a1.86 1.86 0 0 1-.19-.1l-13.87-7.92-.46-.26v15.59c0 1.04.86 1.88 1.9 1.87h26.6c.22-.02.43-.07.64-.14a1.72 1.72 0 0 0 .43-.25c.47-.35.75-.9.75-1.48v-15.59c0 .3-.16.58-.42.72Z" fill="url(#f)"/><path opacity=".5" d="M319.34 128.31v.96l-14.3 9.85-14.83-10.49-1.37-.82v-.7h.56l1.19.68h.03l.1.07 13.96 7.97.53.31.15-.05 13.83-7.79.15.01Z" fill="#0A2767"/><path d="M319.66 129.1h-.02l-13.69 7.7-.18.1a1.92 1.92 0 0 1-1.87-.1l-13.69-7.7h-.02a.82.82 0 0 1-.43-.73v15.59c0 1.04.86 1.88 1.9 1.87h26.52c1.04 0 1.9-.83 1.9-1.87v-15.59c0 .3-.16.58-.42.72Z" fill="#1490DF"/><path opacity=".1" d="m306.15 136.69-.2.11a1.85 1.85 0 0 1-.91.3l5.2 6.16 9.1 2.19c.24-.2.44-.44.57-.72l-13.76-8.04Z" fill="#000"/><path opacity=".05" d="m307.08 136.17-1.13.63a1.91 1.91 0 0 1-.9.3l2.43 6.73 11.85 1.61c.47-.35.75-.9.75-1.48v-.2l-13-7.6Z" fill="#000"/><path d="M291.68 145.83h26.5c.4 0 .8-.13 1.14-.37l-15.04-8.8a1.86 1.86 0 0 1-.19-.11l-13.87-7.92-.46-.26v15.53c0 1.07.86 1.93 1.92 1.93Z" fill="#28A8EA"/><path opacity=".1" d="M302.62 118.12v19.6a1.69 1.69 0 0 1-1.68 1.68h-11.18v-22.05h1.84v-.92h9.34c.93 0 1.68.76 1.68 1.69Z" fill="#000"/><path opacity=".2" d="M301.7 119.03v19.6a1.67 1.67 0 0 1-1.68 1.69h-10.26v-22.97h10.26c.27 0 .53.06.77.2.56.28.91.85.91 1.48Z" fill="#000"/><path opacity=".2" d="M301.7 119.03v17.76a1.7 1.7 0 0 1-1.68 1.69h-10.26v-21.13h10.26c.27 0 .53.06.77.2.56.28.91.85.91 1.48Z" fill="#000"/><path opacity=".2" d="M300.79 119.03v17.76c0 .93-.76 1.69-1.69 1.69h-9.34v-21.13h9.35c.92 0 1.68.76 1.68 1.68Z" fill="#000"/><path d="M282.26 117.35h16.84c.93 0 1.69.76 1.69 1.69v16.84c0 .93-.76 1.68-1.69 1.68h-16.84c-.93 0-1.69-.75-1.69-1.68v-16.84c0-.94.76-1.69 1.69-1.69Z" fill="url(#g)"/><path d="M285.84 124.41a4.9 4.9 0 0 1 1.92-2.12 5.8 5.8 0 0 1 3.06-.77c.99-.02 1.97.23 2.83.73.8.48 1.45 1.19 1.87 2.03.45.93.67 1.95.65 2.98a6.91 6.91 0 0 1-.67 3.13c-.43.87-1.1 1.6-1.93 2.1-.9.51-1.9.77-2.94.75a5.53 5.53 0 0 1-2.89-.74 4.93 4.93 0 0 1-1.9-2.03 6.39 6.39 0 0 1-.65-2.95 7.1 7.1 0 0 1 .65-3.1Zm2.05 5c.22.55.6 1.03 1.08 1.39.5.34 1.09.52 1.7.5.63.03 1.27-.15 1.8-.52.47-.35.84-.84 1.05-1.4a5.93 5.93 0 0 0 .02-3.93 3.12 3.12 0 0 0-1.02-1.45 2.8 2.8 0 0 0-1.8-.55 2.92 2.92 0 0 0-2.82 1.92 5.6 5.6 0 0 0-.01 4.03Z" fill="#fff"/><path d="M309.97 114.6h8.27v8.26h-8.27v-8.27Z" fill="#50D9FF"/></g></g><defs><clipPath id="a"><path fill="#fff" d="M0 0h364v416H0z"/></clipPath><clipPath id="c"><rect x="26" y="106" width="311" height="218" rx="5" fill="#fff"/></clipPath><clipPath id="e"><path fill="#fff" d="M280.57 109.08h39.5v36.75h-39.5z"/></clipPath><linearGradient id="f" x1="304.92" y1="128.37" x2="304.92" y2="145.83" gradientUnits="userSpaceOnUse"><stop stop-color="#35B8F1"/><stop offset="1" stop-color="#28A8EA"/></linearGradient><linearGradient id="g" x1="284.08" y1="116.03" x2="297.27" y2="138.88" gradientUnits="userSpaceOnUse"><stop stop-color="#1784D9"/><stop offset=".5" stop-color="#107AD5"/><stop offset="1" stop-color="#0A63C9"/></linearGradient><filter id="b" x="5.77" y="95.89" width="351.45" height="258.45" filterUnits="userSpaceOnUse" color-interpolation-filters="sRGB"><feFlood flood-opacity="0" result="BackgroundImageFix"/><feColorMatrix in="SourceAlpha" values="0 0 0 0 0 0 0 0 0 0 0 0 0 0 0 0 0 0 127 0" result="hardAlpha"/><feOffset dy="10.11"/><feGaussianBlur stdDeviation="10.11"/><feComposite in2="hardAlpha" operator="out"/><feColorMatrix values="0 0 0 0 0.110417 0 0 0 0 0.117708 0 0 0 0 0.125 0 0 0 0.05 0"/><feBlend in2="BackgroundImageFix" result="effect1_dropShadow_11834_143216"/><feBlend in="SourceGraphic" in2="effect1_dropShadow_11834_143216" result="shape"/></filter><filter id="d" x="212.07" y="67.48" width="179.64" height="179.64" filterUnits="userSpaceOnUse" color-interpolation-filters="sRGB"><feFlood flood-opacity="0" result="BackgroundImageFix"/><feColorMatrix in="SourceAlpha" values="0 0 0 0 0 0 0 0 0 0 0 0 0 0 0 0 0 0 127 0" result="hardAlpha"/><feOffset dy="29.41"/><feGaussianBlur stdDeviation="22.96"/><feColorMatrix values="0 0 0 0 0 0 0 0 0 0 0 0 0 0 0 0 0 0 0.07 0"/><feBlend in2="BackgroundImageFix" result="effect1_dropShadow_11834_143216"/><feBlend in="SourceGraphic" in2="effect1_dropShadow_11834_143216" result="shape"/></filter></defs></svg>