<svg width="126" height="126" fill="none" xmlns="http://www.w3.org/2000/svg"><circle opacity=".05" cx="63" cy="63" r="50" fill="#00CB82"/><circle opacity=".1" cx="63" cy="63" r="55.36" stroke="#00CB82" stroke-width="1.28"/><circle opacity=".1" cx="63" cy="63" r="37" fill="#00CB82"/><path fill-rule="evenodd" clip-rule="evenodd" d="M51 51v3h-3v-3.5c0-1.38 1.08-2.5 2.42-2.5h8.25a2.46 2.46 0 0 1 2.41 2.5v26c0 1.38-1.08 2.5-2.41 2.5h-8.25A2.46 2.46 0 0 1 48 76.5V73h3v3h7V51h-7Zm14.92 15.5c0 1.38 1.08 2.5 2.41 2.5h8.25A2.46 2.46 0 0 0 79 66.5v-16c0-1.38-1.08-2.5-2.42-2.5h-8.25a2.46 2.46 0 0 0-2.41 2.5v16ZM69 51v15h7V51h-7Zm-21 7h3v4h4v3h-4v4h-3v-4h-4v-3h4v-4Z" fill="#00CB82"/></svg>