<svg width="364" height="416" fill="none" xmlns="http://www.w3.org/2000/svg"><g clip-path="url(#a)"><g filter="url(#b)"><g clip-path="url(#c)"><rect x="33" y="100" width="299" height="242" rx="5" fill="#fff"/><path fill="#F0F0F0" d="M33 159h312v.6H33z"/><path d="M44.08 183.67v.88c0 .47-.04.86-.13 1.19-.08.32-.2.58-.36.78-.16.2-.35.34-.57.43-.22.09-.47.13-.75.13-.22 0-.42-.03-.61-.08a1.45 1.45 0 0 1-.5-.27 1.6 1.6 0 0 1-.38-.48c-.1-.2-.19-.44-.24-.72a5.16 5.16 0 0 1-.09-.98v-.88c0-.47.05-.86.13-1.18.09-.32.2-.57.37-.77.15-.19.34-.33.56-.41a2.17 2.17 0 0 1 1.36-.04 1.38 1.38 0 0 1 .89.71c.1.2.18.43.24.71.05.28.08.6.08.98Zm-.73 1v-1.12c0-.26-.02-.48-.05-.68-.03-.2-.07-.36-.13-.5a1 1 0 0 0-.22-.34.77.77 0 0 0-.3-.2 1.1 1.1 0 0 0-.39-.06c-.17 0-.32.04-.46.1a.82.82 0 0 0-.34.3c-.09.15-.15.33-.2.56-.05.22-.07.5-.07.82v1.12c0 .25.01.48.04.68.03.2.08.37.14.51.06.14.13.26.22.35.09.1.19.16.3.2.11.05.24.07.38.07.18 0 .34-.03.47-.1a.85.85 0 0 0 .34-.32c.09-.15.16-.34.2-.57.05-.23.07-.5.07-.82Zm2.83 1.72h.08c.42 0 .76-.06 1.02-.18s.47-.28.6-.48c.15-.2.25-.42.3-.67.05-.25.08-.51.08-.78v-.88c0-.26-.03-.49-.1-.69-.05-.2-.13-.37-.24-.5a1.1 1.1 0 0 0-.35-.32.87.87 0 0 0-.42-.1.95.95 0 0 0-.79.38c-.08.12-.15.26-.2.42a1.9 1.9 0 0 0 .19 1.47 1 1 0 0 0 .32.3c.13.08.28.11.46.11.16 0 .32-.03.46-.1a1.3 1.3 0 0 0 .77-1.08h.34a1.97 1.97 0 0 1-1.02 1.64c-.2.1-.43.15-.67.15a1.48 1.48 0 0 1-1.25-.6 2.02 2.02 0 0 1-.3-.62 2.6 2.6 0 0 1 .03-1.47c.07-.23.19-.44.34-.63.15-.18.33-.32.55-.43.23-.1.48-.15.77-.15.33 0 .61.07.84.2.24.13.42.3.57.53.15.22.25.47.32.74.07.28.1.56.1.85v.27c0 .3-.02.6-.05.9-.04.3-.11.6-.22.88a2.13 2.13 0 0 1-1.25 1.27c-.33.12-.73.19-1.2.19h-.08v-.62Zm4.3.22c0-.12.04-.22.12-.3.07-.1.19-.14.33-.14.15 0 .26.05.34.13.08.09.12.19.12.31 0 .13-.04.23-.12.31-.08.09-.19.13-.34.13-.14 0-.26-.05-.33-.13a.44.44 0 0 1-.12-.3Zm0-3.48c0-.12.04-.22.12-.31.08-.09.2-.13.34-.13.15 0 .26.04.33.13.08.09.12.19.12.31s-.04.22-.12.3c-.07.1-.18.14-.33.14-.15 0-.26-.05-.34-.13a.44.44 0 0 1-.12-.3Zm5.95.54v.88c0 .47-.04.86-.13 1.19-.08.32-.2.58-.36.78-.16.2-.35.34-.57.43-.22.09-.47.13-.75.13-.22 0-.43-.03-.61-.08a1.45 1.45 0 0 1-.5-.27 1.6 1.6 0 0 1-.39-.48c-.1-.2-.18-.44-.24-.72a5.17 5.17 0 0 1-.08-.98v-.88c0-.47.04-.86.13-1.18.08-.32.2-.57.36-.77.16-.19.35-.33.57-.41a2.17 2.17 0 0 1 1.36-.04 1.38 1.38 0 0 1 .89.71c.1.2.18.43.24.71.05.28.08.6.08.98Zm-.73 1v-1.12c0-.26-.02-.48-.05-.68-.03-.2-.07-.36-.13-.5a1 1 0 0 0-.22-.34.77.77 0 0 0-.3-.2 1.1 1.1 0 0 0-.39-.06c-.17 0-.33.04-.46.1a.82.82 0 0 0-.34.3c-.09.15-.16.33-.2.56-.05.22-.08.5-.08.82v1.12c0 .25.02.48.05.68.03.2.08.37.14.51.06.14.13.26.22.35.08.1.18.16.3.2.11.05.24.07.38.07.18 0 .33-.03.47-.1a.85.85 0 0 0 .33-.32c.1-.15.16-.34.2-.57.05-.23.08-.5.08-.82Zm5.7-1v.88c0 .47-.03.86-.12 1.19-.08.32-.2.58-.36.78-.16.2-.35.34-.57.43-.22.09-.47.13-.75.13-.22 0-.43-.03-.61-.08a1.44 1.44 0 0 1-.5-.27 1.61 1.61 0 0 1-.39-.48c-.1-.2-.18-.44-.24-.72a5.17 5.17 0 0 1-.08-.98v-.88c0-.47.04-.86.13-1.18.08-.32.2-.57.36-.77.16-.19.35-.33.57-.41.22-.09.47-.13.75-.13.22 0 .43.03.61.08a1.39 1.39 0 0 1 .88.72c.1.2.19.43.24.71.06.28.09.6.09.98Zm-.73 1v-1.12c0-.26-.01-.48-.04-.68-.03-.2-.08-.36-.13-.5a1 1 0 0 0-.22-.34.77.77 0 0 0-.3-.2 1.1 1.1 0 0 0-.39-.06c-.17 0-.33.04-.46.1a.82.82 0 0 0-.34.3c-.09.15-.16.33-.2.56-.05.22-.08.5-.08.82v1.12c0 .25.02.48.05.68.03.2.07.37.13.51.07.14.14.26.23.35.08.1.18.16.3.2.11.05.24.07.38.07.18 0 .33-.03.47-.1a.85.85 0 0 0 .33-.32c.1-.15.16-.34.2-.57.05-.23.07-.5.07-.82ZM42.87 261.23V267h-.72v-4.86l-1.48.54v-.66l2.09-.8h.11Zm4.98 0V267h-.73v-4.86l-1.47.54v-.66l2.09-.8h.11Zm2.63 5.38c0-.12.04-.22.12-.3.07-.1.19-.14.33-.14.15 0 .26.04.34.13.08.09.12.19.12.31 0 .13-.04.23-.12.31-.08.08-.19.13-.34.13-.14 0-.26-.05-.33-.13a.44.44 0 0 1-.12-.3Zm0-3.48c0-.12.04-.23.12-.31.08-.09.2-.13.34-.13.15 0 .26.04.33.13.08.08.12.19.12.31s-.04.23-.12.3c-.07.1-.18.14-.33.14-.15 0-.26-.05-.34-.13a.44.44 0 0 1-.12-.3Zm5.95.54v.88c0 .47-.04.87-.13 1.19-.08.32-.2.58-.36.78-.16.2-.35.34-.57.43-.22.09-.47.13-.75.13-.22 0-.43-.03-.61-.08a1.45 1.45 0 0 1-.5-.27 1.6 1.6 0 0 1-.39-.48c-.1-.2-.18-.44-.24-.72a5.17 5.17 0 0 1-.08-.98v-.88c0-.47.04-.86.13-1.18.08-.32.2-.57.36-.77.16-.19.35-.33.57-.41a2.17 2.17 0 0 1 1.36-.04 1.38 1.38 0 0 1 .89.71c.1.2.18.43.24.71.05.28.08.6.08.98Zm-.73 1v-1.12c0-.26-.02-.48-.05-.68-.03-.2-.07-.36-.13-.5a1 1 0 0 0-.22-.34.77.77 0 0 0-.3-.2 1.1 1.1 0 0 0-.39-.06c-.17 0-.33.04-.46.1a.82.82 0 0 0-.34.3c-.09.15-.16.33-.2.56-.05.22-.08.5-.08.82v1.12c0 .25.02.48.05.68.03.2.08.37.14.51.06.14.13.26.22.35.08.1.18.16.3.2.11.05.24.07.38.07.18 0 .33-.04.47-.1a.85.85 0 0 0 .33-.32c.1-.15.16-.34.2-.57.05-.23.08-.5.08-.82Zm5.7-1v.88c0 .47-.03.87-.12 1.19-.08.32-.2.58-.36.78-.16.2-.35.34-.57.43-.22.09-.47.13-.75.13-.22 0-.43-.03-.61-.08a1.44 1.44 0 0 1-.5-.27 1.61 1.61 0 0 1-.39-.48c-.1-.2-.18-.44-.24-.72a5.17 5.17 0 0 1-.08-.98v-.88c0-.47.04-.86.13-1.18.08-.32.2-.57.36-.77.16-.19.35-.33.57-.41.22-.09.47-.13.75-.13.22 0 .43.03.61.08a1.39 1.39 0 0 1 .88.72c.1.2.19.43.24.71.06.28.09.6.09.98Zm-.73 1v-1.12c0-.26-.01-.48-.04-.68-.03-.2-.08-.36-.13-.5a1 1 0 0 0-.22-.34.77.77 0 0 0-.3-.2 1.1 1.1 0 0 0-.39-.06c-.17 0-.33.04-.46.1a.82.82 0 0 0-.34.3c-.09.15-.16.33-.2.56-.05.22-.08.5-.08.82v1.12c0 .25.02.48.05.68.03.2.07.37.13.51.07.14.14.26.23.35.08.1.18.16.3.2.11.05.24.07.38.07.18 0 .33-.04.47-.1a.85.85 0 0 0 .33-.32c.1-.15.16-.34.2-.57.05-.23.07-.5.07-.82ZM42.87 220.23V226h-.72v-4.86l-1.48.54v-.66l2.09-.8h.11Zm6.19 2.44v.88c0 .47-.04.86-.13 1.19-.08.32-.2.58-.36.78-.16.2-.35.34-.57.43-.22.09-.47.13-.75.13-.22 0-.43-.03-.61-.08a1.45 1.45 0 0 1-.5-.27 1.61 1.61 0 0 1-.38-.48c-.11-.2-.19-.44-.25-.72a5.17 5.17 0 0 1-.08-.98v-.88c0-.47.04-.86.13-1.18.08-.32.2-.57.36-.77.16-.19.35-.33.57-.41a2.17 2.17 0 0 1 1.36-.04 1.39 1.39 0 0 1 .89.71c.1.2.18.43.24.71.05.28.08.6.08.98Zm-.73 1v-1.12c0-.26-.02-.48-.05-.68-.03-.2-.07-.36-.13-.5a1 1 0 0 0-.22-.34.77.77 0 0 0-.3-.2 1.1 1.1 0 0 0-.39-.06c-.17 0-.33.04-.46.1a.82.82 0 0 0-.34.3c-.09.15-.16.33-.2.56-.05.22-.07.5-.07.82v1.12c0 .25.01.48.04.68.03.2.08.37.14.51.06.14.13.26.22.35.08.1.18.16.3.2.11.05.24.07.38.07.18 0 .33-.03.47-.1a.85.85 0 0 0 .33-.32c.1-.15.16-.34.2-.57.05-.23.08-.5.08-.82Zm2.15 1.94c0-.12.04-.22.12-.3.07-.1.19-.14.33-.14.15 0 .26.05.34.13.08.09.12.19.12.31 0 .13-.04.23-.12.31-.08.09-.19.13-.34.13-.14 0-.26-.05-.33-.13a.44.44 0 0 1-.12-.3Zm0-3.48c0-.12.04-.22.12-.31.08-.09.2-.13.34-.13.15 0 .26.04.33.13.08.09.12.19.12.31s-.04.22-.12.3c-.07.1-.18.14-.33.14-.15 0-.26-.05-.34-.13a.44.44 0 0 1-.12-.3Zm5.95.54v.88c0 .47-.04.86-.13 1.19-.08.32-.2.58-.36.78-.16.2-.35.34-.57.43-.22.09-.47.13-.75.13-.22 0-.43-.03-.61-.08a1.45 1.45 0 0 1-.5-.27 1.6 1.6 0 0 1-.39-.48c-.1-.2-.18-.44-.24-.72a5.17 5.17 0 0 1-.08-.98v-.88c0-.47.04-.86.13-1.18.08-.32.2-.57.36-.77.16-.19.35-.33.57-.41a2.17 2.17 0 0 1 1.36-.04 1.38 1.38 0 0 1 .89.71c.1.2.18.43.24.71.05.28.08.6.08.98Zm-.73 1v-1.12c0-.26-.02-.48-.05-.68-.03-.2-.07-.36-.13-.5a1 1 0 0 0-.22-.34.77.77 0 0 0-.3-.2 1.1 1.1 0 0 0-.39-.06c-.17 0-.33.04-.46.1a.82.82 0 0 0-.34.3c-.09.15-.16.33-.2.56-.05.22-.08.5-.08.82v1.12c0 .25.02.48.05.68.03.2.08.37.14.51.06.14.13.26.22.35.08.1.18.16.3.2.11.05.24.07.38.07.18 0 .33-.03.47-.1a.85.85 0 0 0 .33-.32c.1-.15.16-.34.2-.57.05-.23.08-.5.08-.82Zm5.7-1v.88c0 .47-.03.86-.12 1.19-.08.32-.2.58-.36.78-.16.2-.35.34-.57.43-.22.09-.47.13-.75.13-.22 0-.43-.03-.61-.08a1.44 1.44 0 0 1-.5-.27 1.61 1.61 0 0 1-.39-.48c-.1-.2-.18-.44-.24-.72a5.17 5.17 0 0 1-.08-.98v-.88c0-.47.04-.86.13-1.18.08-.32.2-.57.36-.77.16-.19.35-.33.57-.41.22-.09.47-.13.75-.13.22 0 .43.03.61.08a1.39 1.39 0 0 1 .88.72c.1.2.19.43.24.71.06.28.09.6.09.98Zm-.73 1v-1.12c0-.26-.01-.48-.04-.68-.03-.2-.08-.36-.13-.5a1 1 0 0 0-.22-.34.77.77 0 0 0-.3-.2 1.1 1.1 0 0 0-.39-.06c-.17 0-.33.04-.46.1a.82.82 0 0 0-.34.3c-.09.15-.16.33-.2.56-.05.22-.08.5-.08.82v1.12c0 .25.02.48.05.68.03.2.07.37.13.51.07.14.14.26.23.35.08.1.18.16.3.2.11.05.24.07.38.07.18 0 .33-.03.47-.1a.85.85 0 0 0 .33-.32c.1-.15.16-.34.2-.57.05-.23.07-.5.07-.82ZM43 301.23V307h-.73v-4.86l-1.47.54v-.66l2.09-.8H43Zm6.35 5.17v.6h-3.76v-.52l1.88-2.1c.23-.26.4-.47.54-.65.12-.18.21-.35.26-.49.06-.14.08-.29.08-.44 0-.19-.04-.36-.12-.51a.89.89 0 0 0-.34-.37c-.15-.1-.33-.14-.54-.14-.25 0-.47.05-.64.15-.17.1-.3.23-.38.4a1.4 1.4 0 0 0-.12.62h-.73c0-.33.07-.62.21-.9.14-.26.35-.47.63-.63.28-.16.62-.24 1.03-.24.36 0 .67.06.93.2.26.12.46.3.6.53a1.62 1.62 0 0 1 .12 1.32 4 4 0 0 1-.58 1.02l-.41.48-1.54 1.67h2.88Zm1.26.21c0-.12.04-.22.11-.3.08-.1.2-.14.34-.14.15 0 .26.04.34.13.08.09.12.19.12.31 0 .13-.04.23-.12.31-.08.08-.19.13-.34.13-.14 0-.26-.05-.34-.13a.44.44 0 0 1-.11-.3Zm0-3.48c0-.12.04-.23.12-.31.08-.09.19-.13.34-.13.14 0 .26.04.33.13.08.08.12.19.12.31s-.04.23-.12.3c-.07.1-.19.14-.33.14-.15 0-.26-.05-.34-.13a.44.44 0 0 1-.12-.3Zm5.95.54v.88c0 .47-.04.87-.13 1.19-.08.32-.2.58-.36.78-.16.2-.35.34-.57.43-.22.09-.47.13-.75.13-.22 0-.43-.03-.61-.08a1.45 1.45 0 0 1-.5-.27 1.6 1.6 0 0 1-.39-.48c-.1-.2-.18-.44-.24-.72a5.17 5.17 0 0 1-.08-.98v-.88c0-.47.04-.86.13-1.18.08-.32.2-.57.36-.77.16-.19.35-.33.57-.41.22-.09.47-.13.75-.13.22 0 .43.03.62.08a1.38 1.38 0 0 1 .87.72c.11.2.19.43.25.71.05.28.08.6.08.98Zm-.74 1v-1.12c0-.26-.01-.48-.04-.68-.03-.2-.08-.36-.13-.5a1 1 0 0 0-.22-.34.77.77 0 0 0-.3-.2 1.1 1.1 0 0 0-.39-.06c-.17 0-.33.04-.46.1a.82.82 0 0 0-.34.3c-.09.15-.16.33-.2.56-.05.22-.08.5-.08.82v1.12c0 .25.02.48.05.68.03.2.07.37.14.51.06.14.13.26.22.35.08.1.18.16.3.2.11.05.24.07.38.07.18 0 .33-.04.47-.1a.85.85 0 0 0 .33-.32c.1-.15.16-.34.2-.57.05-.23.07-.5.07-.82Zm5.72-1v.88c0 .47-.05.87-.13 1.19-.08.32-.2.58-.36.78-.16.2-.35.34-.57.43-.23.09-.47.13-.75.13-.22 0-.43-.03-.61-.08a1.44 1.44 0 0 1-.5-.27 1.61 1.61 0 0 1-.39-.48c-.1-.2-.18-.44-.24-.72a5.17 5.17 0 0 1-.08-.98v-.88c0-.47.04-.86.12-1.18.1-.32.21-.57.37-.77.16-.19.35-.33.57-.41.22-.09.47-.13.75-.13.22 0 .43.03.61.08a1.39 1.39 0 0 1 .88.72c.1.2.19.43.24.71.06.28.09.6.09.98Zm-.74 1v-1.12c0-.26-.01-.48-.04-.68-.03-.2-.08-.36-.13-.5a1 1 0 0 0-.23-.34.77.77 0 0 0-.3-.2 1.1 1.1 0 0 0-.38-.06c-.17 0-.33.04-.46.1a.82.82 0 0 0-.34.3c-.1.15-.16.33-.2.56-.05.22-.08.5-.08.82v1.12c0 .25.02.48.05.68.03.2.07.37.13.51s.14.26.22.35c.1.1.2.16.3.2.12.05.25.07.39.07.18 0 .33-.04.47-.1a.85.85 0 0 0 .33-.32c.1-.15.16-.34.2-.57.05-.23.07-.5.07-.82Z" fill="#8A8C8E"/><path d="M72.82 168.57h.67l1.71 4.26 1.71-4.26h.67l-2.12 5.22h-.52l-2.12-5.22Zm-.21 0h.59l.1 3.19v2.03h-.7v-5.22Zm4.6 0h.59v5.22h-.69v-2.03l.1-3.19Zm1.96 3.33v-.09c0-.28.05-.53.13-.77.08-.25.2-.45.35-.63.15-.18.34-.32.55-.42.22-.1.46-.15.73-.15.28 0 .52.05.74.15.22.1.4.24.56.42.15.18.27.38.35.63.09.24.13.5.13.77v.09c0 .28-.04.53-.13.77-.08.24-.2.45-.35.63a1.63 1.63 0 0 1-1.29.56c-.27 0-.52-.05-.73-.14a1.67 1.67 0 0 1-.91-1.05 2.4 2.4 0 0 1-.13-.77Zm.67-.09v.09c0 .19.02.37.07.54.04.18.11.32.2.46a1 1 0 0 0 .83.42.97.97 0 0 0 .82-.42c.1-.14.16-.28.2-.46.06-.17.08-.35.08-.54v-.09c0-.19-.03-.37-.07-.54a1.39 1.39 0 0 0-.21-.45.97.97 0 0 0-.82-.43.98.98 0 0 0-.49.11c-.13.08-.25.18-.34.32-.09.13-.16.28-.2.45-.05.17-.07.35-.07.54Zm4.8-1.07v3.05h-.67v-3.88h.63l.04.83Zm-.16.97-.28-.01c0-.27.04-.51.12-.74.08-.23.18-.42.32-.6a1.44 1.44 0 0 1 1.14-.52c.2 0 .36.03.52.08.15.05.28.13.39.25.1.1.19.25.25.43s.08.4.08.65v2.54h-.66v-2.55c0-.2-.03-.36-.1-.48a.55.55 0 0 0-.25-.27.93.93 0 0 0-.43-.09.97.97 0 0 0-.45.1c-.13.07-.25.17-.35.3a1.44 1.44 0 0 0-.3.9Zm9.55-3.14v.38l-2.17 4.84h-.7l2.16-4.67H90.5v-.55h3.53ZM158.53 168.5v5.21h-.68v-5.22h.68Zm1.68 0v.56h-4.03v-.57h4.03Zm3.14 4.32v-2.98h.67v3.87h-.64l-.03-.9Zm.13-.82h.27a3 3 0 0 1-.08.71c-.05.22-.14.4-.26.57-.12.16-.28.28-.47.37-.2.1-.43.13-.7.13-.2 0-.37-.02-.52-.08a1.05 1.05 0 0 1-.67-.7c-.06-.18-.09-.4-.09-.66v-2.5h.67v2.5c0 .18.02.32.05.44.04.11.1.2.16.27a.6.6 0 0 0 .23.13c.09.03.18.04.27.04.28 0 .5-.05.67-.16a.92.92 0 0 0 .36-.44c.07-.19.1-.4.1-.62Zm3.6 1.78a1.9 1.9 0 0 1-.74-.13 1.65 1.65 0 0 1-.92-.99 2.2 2.2 0 0 1-.13-.75v-.15c0-.31.05-.6.14-.84.1-.25.22-.46.38-.63a1.61 1.61 0 0 1 1.18-.53c.27 0 .51.05.71.15.2.1.37.23.5.4s.23.37.29.6c.06.23.1.48.1.75v.3h-2.9v-.54h2.23v-.05c-.01-.17-.05-.34-.1-.5a.9.9 0 0 0-.3-.4.84.84 0 0 0-.53-.16.9.9 0 0 0-.75.38c-.09.12-.16.27-.2.45-.06.18-.08.39-.08.62v.15c0 .19.02.36.07.52.06.16.13.3.23.42a1.07 1.07 0 0 0 .85.4c.23 0 .43-.05.6-.15.16-.1.3-.22.42-.38l.4.32c-.08.12-.19.24-.32.36-.13.11-.28.2-.47.28-.19.07-.41.1-.67.1Zm8.19-1.48c0 .32-.08.59-.22.81-.15.22-.35.39-.6.5-.25.12-.53.17-.84.17a2 2 0 0 1-.85-.17 1.39 1.39 0 0 1-.6-.5c-.14-.22-.21-.5-.21-.8 0-.22.04-.4.12-.58.08-.17.2-.32.34-.45.15-.13.32-.23.52-.3a2 2 0 0 1 .67-.1c.32 0 .6.05.86.18.25.12.45.29.59.5.15.22.22.46.22.74Zm-.67-.01c0-.2-.04-.37-.12-.52a.88.88 0 0 0-.35-.35 1.06 1.06 0 0 0-.53-.12c-.2 0-.38.04-.53.12a.88.88 0 0 0-.34.35c-.08.15-.12.32-.12.52s.04.37.12.51c.08.14.2.25.34.33.16.07.33.11.54.11.2 0 .38-.04.53-.11a.8.8 0 0 0 .34-.33c.08-.14.12-.31.12-.51Zm.55-2.44c0 .26-.07.49-.2.69-.14.2-.32.36-.55.48-.23.11-.5.17-.8.17-.29 0-.56-.06-.8-.17a1.37 1.37 0 0 1-.54-.48c-.13-.2-.2-.43-.2-.69a1.3 1.3 0 0 1 .75-1.26c.23-.11.5-.17.8-.17.3 0 .56.06.8.17.22.11.4.28.54.49.13.21.2.47.2.77Zm-.67.01a.94.94 0 0 0-.1-.46.82.82 0 0 0-.32-.31.87.87 0 0 0-.46-.12.92.92 0 0 0-.45.1.76.76 0 0 0-.3.32 1 1 0 0 0-.12.47c0 .18.04.34.11.47.08.14.18.24.31.31.13.08.28.12.46.12a.9.9 0 0 0 .45-.11.79.79 0 0 0 .31-.32.95.95 0 0 0 .11-.47ZM243.98 172.14l1.03-3.65h.5l-.28 1.42-1.12 3.8h-.5l.37-1.57Zm-1.07-3.65.82 3.57.25 1.65h-.5l-1.26-5.22h.69Zm3.95 3.57.8-3.57h.7l-1.27 5.22h-.5l.27-1.65Zm-1.27-3.57 1 3.65.38 1.57h-.5l-1.08-3.8-.3-1.42h.5Zm5.36 5.3a1.66 1.66 0 0 1-1.66-1.12 2.17 2.17 0 0 1-.12-.76v-.15c0-.31.05-.6.14-.84.1-.25.22-.46.38-.63a1.62 1.62 0 0 1 1.9-.38c.2.1.36.23.5.4.12.17.22.37.28.6.06.23.1.48.1.75v.3h-2.9v-.54h2.23v-.05a1.68 1.68 0 0 0-.1-.5.9.9 0 0 0-.3-.4.84.84 0 0 0-.53-.16.91.91 0 0 0-.75.38c-.09.12-.16.27-.2.45-.06.18-.08.39-.08.62v.15c0 .19.02.36.07.52.06.16.13.3.23.42a1.07 1.07 0 0 0 .85.4c.23 0 .43-.05.6-.15.16-.1.3-.22.42-.38l.4.32c-.08.12-.19.24-.32.36-.13.11-.28.2-.47.28-.19.07-.41.1-.67.1Zm5.17-.83v-4.75h.66v5.5h-.6l-.06-.75Zm-2.61-1.14v-.08c0-.3.03-.56.1-.8.08-.25.18-.46.32-.63a1.38 1.38 0 0 1 1.11-.54c.25 0 .46.04.64.12.18.09.34.2.46.37.13.16.24.36.31.58.07.23.13.49.15.77v.33c-.02.29-.07.54-.15.77-.07.23-.18.42-.3.58-.13.16-.29.28-.47.37a1.56 1.56 0 0 1-1.27-.02c-.19-.1-.35-.24-.48-.41a2 2 0 0 1-.31-.63c-.08-.24-.11-.5-.11-.78Zm.66-.08v.08c0 .2.02.37.06.54.04.17.1.32.19.45.08.13.19.23.32.3.13.08.28.11.46.11.22 0 .4-.04.54-.14.14-.09.26-.21.34-.37.1-.15.16-.31.2-.5v-.86a1.88 1.88 0 0 0-.12-.38 1.17 1.17 0 0 0-.2-.33.9.9 0 0 0-.32-.23 1 1 0 0 0-.43-.09.92.92 0 0 0-.47.12.9.9 0 0 0-.32.3c-.09.13-.15.28-.19.46a2.5 2.5 0 0 0-.06.54Zm6.93 1.42h.06c.39 0 .7-.06.94-.16.23-.11.42-.25.55-.44.13-.18.22-.38.26-.61.05-.23.07-.46.07-.7v-.8c0-.24-.02-.45-.08-.64a1.39 1.39 0 0 0-.22-.46 1 1 0 0 0-.32-.28.9.9 0 0 0-1.1.25c-.08.1-.14.24-.18.39a1.73 1.73 0 0 0 .17 1.33c.08.11.17.2.3.28.11.06.25.1.41.1.15 0 .29-.03.42-.09a1.19 1.19 0 0 0 .7-1h.31a1.8 1.8 0 0 1-.93 1.5c-.18.1-.39.14-.6.14a1.36 1.36 0 0 1-1.14-.55c-.12-.17-.21-.36-.27-.56a2.34 2.34 0 0 1 .02-1.33c.06-.22.17-.41.3-.58.14-.16.3-.3.5-.39.21-.1.45-.14.71-.14.3 0 .56.06.76.18.22.12.39.28.52.48.13.2.23.43.3.68.05.25.08.5.08.77v.24c0 .27-.01.55-.05.83-.03.28-.1.54-.2.8-.1.25-.23.47-.41.68-.19.2-.43.35-.73.47-.29.11-.65.17-1.08.17h-.07v-.56Z" fill="#70757A"/><path fill="#F0F0F0" d="M160 179v163h-.6V179zM244 179v164h-.6V179z"/><path fill="#F0F0F0" d="M70 179h275v.6H70zM70 218h275v.6H70zM70 259h275v.6H70zM70 300h275v.6H70z"/><path fill="#F0F0F0" d="m70.41 179.23.01 163.23h-.6V179.23z"/><path d="m88.65 144.84 2.25 2.26-2.25 2.25.7.7 2.94-2.95-2.95-2.95-.7.7ZM46.3 149.35l-2.24-2.25 2.25-2.26-.7-.7-2.94 2.96 2.94 2.94.7-.69Z" fill="#9F9F9F"/><path d="M59.22 143.17v5.76h-.75v-5.76h.75Zm1.85 0v.63h-4.45v-.63h4.45Zm.16 3.67v-.1c0-.3.04-.59.13-.85.1-.27.22-.5.39-.7a1.9 1.9 0 0 1 1.42-.63c.3.01.57.07.81.18.24.1.45.26.62.46.17.2.3.42.4.69.08.26.13.55.13.86v.09c0 .3-.05.6-.14.86-.09.26-.22.5-.4.69a1.8 1.8 0 0 1-1.41.62 1.84 1.84 0 0 1-1.82-1.31 2.65 2.65 0 0 1-.13-.86Zm.73-.1v.1c0 .21.02.41.07.6.05.2.13.36.23.5.1.15.23.26.38.35.16.08.34.12.54.12s.37-.04.52-.12c.16-.09.28-.2.38-.35.1-.14.18-.3.23-.5.05-.19.08-.39.08-.6v-.1c0-.2-.03-.4-.08-.59a1.54 1.54 0 0 0-.23-.5 1.06 1.06 0 0 0-.91-.47 1.07 1.07 0 0 0-.91.47c-.1.14-.18.31-.23.5a2.3 2.3 0 0 0-.07.6Zm6.78 1.36v-5.25h.74v6.08h-.67l-.07-.83Zm-2.88-1.26v-.09c0-.32.04-.62.12-.88.08-.28.2-.5.34-.7a1.55 1.55 0 0 1 1.24-.6c.27 0 .5.05.7.14.2.1.38.23.52.41.14.18.25.4.33.64.08.25.14.54.17.85v.37c-.03.31-.08.6-.17.84a2 2 0 0 1-.33.65 1.4 1.4 0 0 1-.52.4 1.71 1.71 0 0 1-1.4-.02c-.2-.1-.38-.26-.53-.46-.15-.2-.27-.42-.35-.68a3.03 3.03 0 0 1-.12-.87Zm.74-.09v.09c0 .21.02.41.06.6.05.19.11.35.2.5.1.14.22.25.36.33.14.08.31.12.51.12.24 0 .44-.05.6-.15.16-.1.28-.24.38-.41.1-.17.17-.35.22-.55v-.96a2.13 2.13 0 0 0-.14-.42 1.3 1.3 0 0 0-.23-.36 1 1 0 0 0-.34-.26 1.1 1.1 0 0 0-.48-.1c-.2 0-.38.05-.52.13-.14.09-.26.2-.35.34-.1.15-.16.31-.2.5-.05.2-.07.4-.07.6Zm6.54 1.45V146a.9.9 0 0 0-.1-.44.67.67 0 0 0-.3-.3c-.13-.07-.3-.1-.5-.1-.18 0-.34.03-.48.1a.85.85 0 0 0-.33.24.55.55 0 0 0-.11.34h-.74c0-.16.04-.3.12-.46.08-.15.2-.28.34-.4.15-.13.33-.23.54-.3.21-.07.45-.11.7-.11a2 2 0 0 1 .83.16c.24.1.43.26.56.48.14.2.2.47.2.8V148c0 .14.02.3.04.45.03.16.07.3.12.42v.06h-.77a2.73 2.73 0 0 1-.12-.73Zm.13-1.86v.51h-.73c-.2 0-.4.02-.56.05-.16.03-.3.08-.41.15a.66.66 0 0 0-.34.6c0 .13.03.25.09.36.06.11.15.2.27.27a1 1 0 0 0 .46.09 1.2 1.2 0 0 0 1-.5c.1-.13.16-.26.17-.39l.3.35c-.01.11-.06.23-.14.37a1.77 1.77 0 0 1-.81.7c-.19.07-.4.11-.63.11-.29 0-.54-.05-.76-.17a1.2 1.2 0 0 1-.68-1.1c0-.23.04-.43.13-.6.09-.18.22-.33.39-.44.16-.12.37-.21.6-.27.24-.06.5-.1.8-.1h.85Zm2.9 2.15 1.19-3.84h.78l-1.71 4.94a2.74 2.74 0 0 1-.4.7 1.17 1.17 0 0 1-.87.37c-.06 0-.14 0-.23-.02a2.01 2.01 0 0 1-.19-.04v-.6a3.46 3.46 0 0 0 .2.02c.16 0 .3-.02.42-.07a.64.64 0 0 0 .3-.21c.08-.1.15-.24.2-.42l.3-.83Zm-.88-3.84 1.12 3.32.19.78-.53.26-1.58-4.36h.8ZM115.34 143.83v5.76h-.77v-5.76h.77Zm2.41 2.6v.62h-2.58v-.63h2.58Zm.4-2.6v.63h-2.98v-.63h2.97Zm2.48 5.84a1.84 1.84 0 0 1-1.83-1.24c-.09-.25-.13-.53-.13-.83v-.16c0-.35.05-.66.15-.93.1-.28.24-.5.42-.7a1.8 1.8 0 0 1 2.09-.42c.22.1.4.26.55.45.14.18.25.4.32.66.06.25.1.53.1.83v.33h-3.2v-.6h2.47v-.05a1.8 1.8 0 0 0-.12-.56 1 1 0 0 0-.32-.44.93.93 0 0 0-.6-.17 1 1 0 0 0-.81.41c-.1.14-.18.3-.23.5-.06.2-.09.43-.09.69v.16c0 .2.03.4.08.58.06.17.15.33.25.47.11.13.25.23.4.31.16.08.34.12.54.12.26 0 .48-.06.66-.16.18-.1.34-.25.47-.42l.44.35c-.09.14-.2.27-.35.4a1.7 1.7 0 0 1-.53.3c-.2.08-.44.12-.73.12Zm2.52-6.15h.74v5.24l-.07.84h-.67v-6.08Zm3.63 3.9v.08c0 .31-.04.6-.11.87-.08.26-.18.5-.33.69-.14.2-.31.34-.52.45-.2.11-.44.16-.7.16a1.4 1.4 0 0 1-1.23-.55 2.12 2.12 0 0 1-.34-.63 4.05 4.05 0 0 1-.17-.85v-.36c.03-.32.08-.6.17-.85.08-.26.2-.47.33-.65.14-.18.31-.31.52-.4.2-.1.44-.15.7-.15.28 0 .51.06.72.16.21.1.39.25.53.45.14.19.25.42.32.69.07.26.11.56.11.89Zm-.74.08v-.08c0-.21-.02-.42-.06-.6-.04-.2-.1-.36-.19-.5a.94.94 0 0 0-.87-.47c-.18 0-.34.03-.48.1-.13.06-.25.15-.34.25-.1.1-.18.23-.24.37-.05.13-.1.27-.13.42v.95c.04.19.11.36.2.53.1.17.23.31.4.42.16.1.36.16.6.16.2 0 .37-.04.5-.12.15-.08.26-.19.35-.33.1-.14.16-.31.2-.5.04-.18.06-.38.06-.6Zm7.37 1.5v.6h-3.77v-.53l1.89-2.1c.23-.26.41-.48.54-.66.13-.18.22-.34.27-.49.05-.14.08-.29.08-.44 0-.19-.04-.36-.12-.51a.9.9 0 0 0-.34-.38c-.15-.09-.34-.14-.55-.14-.25 0-.47.06-.64.16-.17.1-.3.23-.38.4-.08.18-.13.39-.13.62h-.73c0-.33.07-.63.21-.9.15-.26.36-.48.64-.63.28-.17.62-.25 1.03-.25.37 0 .68.07.94.2.25.12.45.3.59.54.14.22.2.5.2.8 0 .17-.02.34-.08.52a4.13 4.13 0 0 1-.58 1.02c-.13.17-.26.33-.41.49l-1.55 1.67h2.9Zm4.4-2.75v.88c0 .48-.04.87-.12 1.2-.09.32-.2.58-.37.78-.15.2-.34.34-.57.43-.22.1-.47.13-.75.13-.22 0-.43-.02-.62-.08a1.46 1.46 0 0 1-.5-.26 1.61 1.61 0 0 1-.38-.49 2.6 2.6 0 0 1-.24-.72 5.15 5.15 0 0 1-.09-.99v-.88c0-.47.05-.86.13-1.18.09-.32.21-.58.37-.77.16-.2.35-.34.57-.42.22-.09.47-.13.75-.13.22 0 .43.03.62.09a1.4 1.4 0 0 1 .88.72c.1.2.19.43.24.7.06.29.09.62.09 1Zm-.73 1v-1.12a4.25 4.25 0 0 0-.18-1.19 1 1 0 0 0-.22-.34.79.79 0 0 0-.3-.19 1.1 1.1 0 0 0-.39-.06c-.17 0-.33.03-.46.1a.83.83 0 0 0-.34.3c-.1.14-.16.33-.2.56-.06.22-.08.5-.08.82v1.12c0 .26.01.49.04.69.04.2.08.37.14.51.06.14.14.26.22.35.1.1.2.16.3.2.12.05.25.07.39.07.18 0 .34-.03.47-.1a.85.85 0 0 0 .34-.32c.09-.15.16-.34.2-.57.05-.23.07-.5.07-.83Zm5.45 1.74v.6h-3.77v-.52l1.89-2.1c.23-.26.41-.48.54-.66a2 2 0 0 0 .27-.49c.05-.14.08-.29.08-.44 0-.19-.04-.36-.12-.51a.9.9 0 0 0-.34-.38c-.15-.09-.34-.14-.55-.14-.26 0-.47.06-.64.16-.17.1-.3.23-.38.4a1.4 1.4 0 0 0-.13.62h-.73c0-.33.07-.63.21-.9.15-.26.36-.48.64-.63.28-.17.62-.25 1.03-.25.36 0 .68.07.93.2.26.12.46.3.6.54.14.22.2.5.2.8 0 .17-.02.34-.08.52a4.01 4.01 0 0 1-.58 1.02c-.13.17-.26.33-.41.49l-1.55 1.67h2.9Zm1.85-2.64h.53c.25 0 .47-.04.63-.12.17-.09.3-.2.38-.35.08-.16.12-.32.12-.51 0-.22-.03-.41-.1-.56a.74.74 0 0 0-.34-.34 1.22 1.22 0 0 0-.56-.12c-.2 0-.39.05-.55.13a.91.91 0 0 0-.5.86h-.73c0-.3.08-.56.22-.8.15-.24.36-.43.62-.57.27-.15.59-.22.94-.22s.65.06.91.19c.26.12.47.3.61.55.15.23.22.53.22.9a1.38 1.38 0 0 1-.42.93c-.14.13-.32.25-.54.34-.23.1-.5.14-.8.14h-.64v-.45Zm0 .6v-.43h.63c.37 0 .67.04.91.13.24.08.43.2.57.34.14.15.23.31.29.48a1.76 1.76 0 0 1-.05 1.23c-.1.21-.22.39-.39.53-.16.15-.35.26-.57.33a2.31 2.31 0 0 1-1.43 0 1.86 1.86 0 0 1-.59-.3 1.44 1.44 0 0 1-.54-1.19h.74a.92.92 0 0 0 .51.88c.16.08.36.12.58.12.23 0 .42-.04.58-.11.16-.08.29-.2.38-.36.09-.16.13-.36.13-.6s-.05-.43-.15-.59a.89.89 0 0 0-.43-.34c-.18-.08-.4-.11-.64-.11h-.53Z" fill="#70757A"/><path d="m159 145.42-2.25 2.25-2.26-2.25-.7.7 2.96 2.94 2.94-2.95-.69-.69Z" fill="#9F9F9F"/><path fill="#F0F0F0" d="M33 134.71h312v.51H33z"/><path d="M52.6 120.13h1.47c-.05.56-.2 1.06-.47 1.5-.27.43-.64.77-1.12 1.02-.48.25-1.06.38-1.75.38a3.12 3.12 0 0 1-2.5-1.09c-.31-.35-.54-.78-.7-1.27a5.52 5.52 0 0 1-.24-1.67v-.7c0-.62.09-1.17.25-1.67s.4-.92.7-1.27c.3-.36.67-.63 1.1-.82.42-.19.9-.28 1.44-.28.68 0 1.26.13 1.72.38.47.25.84.6 1.1 1.03.26.44.42.95.47 1.52h-1.46a2.71 2.71 0 0 0-.26-.94 1.33 1.33 0 0 0-.57-.6 2.06 2.06 0 0 0-1-.21c-.33 0-.63.06-.88.19-.25.12-.46.3-.62.55-.17.24-.3.54-.39.9-.08.35-.12.75-.12 1.2v.72c0 .43.04.82.11 1.17.08.35.2.65.35.9.16.25.37.44.61.58.25.14.54.2.89.2.42 0 .75-.06 1.01-.2.26-.13.46-.32.6-.57.13-.26.22-.58.26-.95Zm6.24 1.5v-3.02c0-.22-.04-.42-.13-.58a.86.86 0 0 0-.37-.38 1.3 1.3 0 0 0-.62-.14c-.23 0-.43.04-.6.12a.96.96 0 0 0-.4.32.76.76 0 0 0-.13.45h-1.4c0-.25.05-.5.17-.73.12-.23.3-.44.53-.63.23-.18.5-.32.83-.43.32-.1.68-.16 1.07-.16.48 0 .9.08 1.27.24.37.16.66.4.87.73.22.32.33.72.33 1.2v2.82c0 .3.02.55.05.78.05.23.1.43.19.6v.09h-1.45a2.5 2.5 0 0 1-.16-.58 4.74 4.74 0 0 1-.05-.7Zm.2-2.57.01.87h-1c-.27 0-.5.02-.7.07-.2.05-.37.12-.5.22a.92.92 0 0 0-.4.79c0 .16.04.32.12.46.08.14.2.24.34.32a1.55 1.55 0 0 0 1.82-.5c.13-.17.2-.34.2-.5l.46.63a2.5 2.5 0 0 1-.69 1.04 2.2 2.2 0 0 1-1.51.57c-.42 0-.79-.09-1.11-.25-.33-.17-.58-.4-.76-.67a2.02 2.02 0 0 1-.09-1.86c.13-.26.31-.48.56-.66.25-.17.56-.3.92-.4.35-.09.76-.13 1.23-.13h1.1Zm4.2-5.15v9h-1.41v-9h1.41Zm4.35 9.12c-.47 0-.9-.08-1.28-.23a2.8 2.8 0 0 1-1.56-1.63 3.43 3.43 0 0 1-.21-1.21v-.24c0-.5.07-.94.22-1.34.14-.4.34-.75.6-1.04.26-.28.56-.5.91-.66.36-.15.74-.23 1.15-.23.45 0 .85.08 1.19.23.34.15.62.37.84.65.23.27.4.6.5.98.12.37.17.8.17 1.25v.6h-4.9v-1.01h3.5v-.11c0-.26-.05-.5-.14-.72-.1-.22-.23-.4-.42-.54-.19-.13-.44-.2-.75-.2-.23 0-.44.05-.63.15-.18.1-.33.24-.45.43s-.21.41-.28.68c-.06.26-.1.55-.1.88v.24c0 .27.04.53.12.77.08.23.19.44.34.62.15.17.33.31.54.41a1.95 1.95 0 0 0 2.32-.64l.74.72a2.66 2.66 0 0 1-1.34 1.01c-.3.12-.67.18-1.08.18Zm5.03-5.1v4.98h-1.4v-6.34h1.32l.08 1.35Zm-.25 1.58-.45-.01c0-.45.06-.86.18-1.24.13-.37.3-.7.52-.96a2.34 2.34 0 0 1 1.83-.84c.3 0 .58.04.82.12.25.08.47.22.64.4.18.2.32.44.41.74.1.3.14.66.14 1.1v4.09h-1.42v-4.1c0-.3-.04-.55-.13-.72a.75.75 0 0 0-.38-.38 1.43 1.43 0 0 0-.62-.12 1.37 1.37 0 0 0-1.13.57c-.13.17-.23.38-.3.6-.07.24-.1.48-.1.75Zm9.4 2.09v-7.69h1.42v9H81.9l-.14-1.31Zm-4.12-1.79v-.12c0-.48.05-.92.17-1.31.11-.4.27-.74.49-1.03.21-.29.48-.51.78-.66.31-.16.66-.24 1.05-.24a2.1 2.1 0 0 1 1.75.86c.2.28.36.6.48.99.12.38.2.8.26 1.26v.4c-.05.45-.14.86-.26 1.24-.12.37-.28.7-.49.97a2.11 2.11 0 0 1-1.75.86 2.22 2.22 0 0 1-1.82-.92 3.18 3.18 0 0 1-.5-1.02c-.1-.4-.16-.82-.16-1.28Zm1.4-.12v.12c0 .29.03.56.08.8.06.26.14.48.26.67.11.19.26.34.44.45.18.1.4.16.65.16.32 0 .59-.08.8-.22.2-.14.36-.33.48-.56.12-.25.2-.52.25-.81v-1.06a2.6 2.6 0 0 0-.15-.65c-.07-.2-.17-.37-.29-.52a1.21 1.21 0 0 0-.45-.35 1.41 1.41 0 0 0-.63-.13c-.25 0-.47.05-.65.16-.18.11-.33.26-.45.45-.11.2-.2.42-.25.67-.05.26-.08.53-.08.82Zm9.19 1.95v-3.03c0-.22-.04-.42-.12-.58a.86.86 0 0 0-.38-.38 1.3 1.3 0 0 0-.62-.14c-.23 0-.43.04-.6.12a.96.96 0 0 0-.39.32.76.76 0 0 0-.14.45h-1.4c0-.25.05-.5.18-.73.12-.23.3-.44.52-.63.23-.18.5-.32.83-.43.32-.1.68-.16 1.08-.16.47 0 .9.08 1.26.24.37.16.67.4.88.73.21.32.32.72.32 1.2v2.82c0 .3.02.55.06.78.04.23.1.43.18.6v.09h-1.45a2.5 2.5 0 0 1-.16-.58 4.73 4.73 0 0 1-.05-.7Zm.2-2.58.02.87h-1.02c-.26 0-.49.02-.69.07-.2.05-.36.12-.5.22a.92.92 0 0 0-.4.79c0 .16.04.32.12.46.08.14.2.24.34.32a1.55 1.55 0 0 0 1.82-.5c.13-.17.2-.34.2-.5l.46.63a2.51 2.51 0 0 1-.69 1.04 2.2 2.2 0 0 1-1.51.57c-.42 0-.79-.09-1.1-.25-.33-.17-.59-.4-.77-.67a2.02 2.02 0 0 1-.09-1.86c.13-.26.32-.48.56-.66.25-.17.56-.3.92-.4.36-.09.77-.13 1.23-.13h1.1Zm4.11-1.28v5.13h-1.4v-6.34h1.34l.06 1.2Zm1.94-1.25v1.31a2.47 2.47 0 0 0-.58-.05c-.25 0-.46.04-.64.11a1.21 1.21 0 0 0-.75.75c-.06.18-.1.38-.11.6l-.33.03c0-.4.04-.77.12-1.11.08-.34.2-.64.35-.9.16-.25.36-.46.6-.6a1.6 1.6 0 0 1 1.11-.2l.23.06Z" fill="#181818"/><g filter="url(#d)"><rect x="75.5" y="223" width="79" height="72" rx="3.31" fill="#FFDBEF"/><path d="M85.88 231.47V240h-1.46v-8.53h1.46Zm2.67 0v1.17h-6.79v-1.17h6.8Zm3.22 8.65c-.47 0-.9-.08-1.27-.23a2.81 2.81 0 0 1-1.56-1.63 3.43 3.43 0 0 1-.22-1.21v-.24c0-.5.08-.94.22-1.34.15-.4.35-.75.6-1.04.26-.28.57-.5.92-.66.35-.15.73-.23 1.14-.23.45 0 .85.08 1.2.23.33.15.61.37.83.65.23.27.4.6.5.98.12.37.18.8.18 1.25v.6h-4.9v-1.01h3.5v-.11c0-.26-.05-.5-.15-.72-.09-.22-.23-.4-.41-.54-.2-.13-.44-.2-.75-.2-.24 0-.45.05-.63.15-.18.1-.33.24-.45.43s-.22.41-.28.68c-.07.26-.1.55-.1.88v.24c0 .27.04.53.11.77.08.24.2.44.34.62.15.17.33.31.54.41a1.95 1.95 0 0 0 2.32-.64l.75.72a2.66 2.66 0 0 1-1.34 1.01c-.31.12-.67.18-1.09.18Zm7.21-1.4v-3.01c0-.23-.04-.43-.12-.6a.86.86 0 0 0-.37-.37 1.28 1.28 0 0 0-.62-.14c-.24 0-.43.04-.6.12a.96.96 0 0 0-.4.32.76.76 0 0 0-.14.45h-1.4c0-.25.06-.5.18-.73.12-.23.3-.44.53-.63.23-.18.5-.32.82-.43.32-.1.68-.16 1.08-.16.48 0 .9.08 1.27.24.37.16.66.4.87.73.22.32.32.72.32 1.2v2.82c0 .3.02.55.06.78.04.23.1.43.18.6v.09H99.2a2.5 2.5 0 0 1-.16-.58 4.74 4.74 0 0 1-.06-.7Zm.2-2.57.02.87H98.2c-.26 0-.5.02-.7.07-.2.05-.36.12-.5.22a.9.9 0 0 0-.39.79c0 .16.04.32.12.46.07.13.19.24.34.32a1.56 1.56 0 0 0 1.82-.5c.12-.17.19-.34.2-.5l.46.63a2.5 2.5 0 0 1-.69 1.04 2.2 2.2 0 0 1-1.52.57c-.41 0-.78-.09-1.1-.25-.33-.17-.58-.4-.77-.67a2.02 2.02 0 0 1-.09-1.86c.13-.26.32-.48.57-.66.25-.17.55-.3.91-.4.36-.09.77-.13 1.23-.13h1.1Zm4.11-1.2V240h-1.41v-6.34h1.33l.08 1.29Zm-.23 1.65-.48-.01c0-.44.06-.84.17-1.21.1-.37.27-.7.48-.97.2-.28.47-.49.78-.64a2.5 2.5 0 0 1 1.1-.23c.29 0 .55.05.79.13s.45.22.63.4c.17.17.31.4.4.69.1.28.15.62.15 1.02V240h-1.41v-4.1c0-.31-.05-.55-.14-.73a.78.78 0 0 0-.4-.37 1.42 1.42 0 0 0-.6-.12c-.26 0-.49.05-.68.15-.18.1-.33.24-.45.42-.12.17-.2.38-.26.6-.05.24-.08.48-.08.75Zm3.93-.38-.66.15c0-.39.06-.75.16-1.09.11-.34.27-.64.48-.9a2.22 2.22 0 0 1 1.84-.84c.32 0 .6.05.86.14.26.08.48.22.66.4.18.2.31.44.4.74.1.3.15.66.15 1.08v4.1h-1.42v-4.1c0-.33-.05-.58-.14-.75a.73.73 0 0 0-.39-.37 1.57 1.57 0 0 0-1.18.02c-.16.08-.3.2-.42.34-.1.14-.2.3-.25.48-.06.19-.09.39-.09.6Zm-23.35 13.73V255h-1.41v-6.34h1.33l.08 1.29Zm-.23 1.65-.48-.01c0-.44.05-.84.16-1.21s.27-.7.48-.97c.22-.28.48-.49.79-.64a2.5 2.5 0 0 1 1.1-.23c.28 0 .55.05.79.13s.45.22.62.4c.18.17.32.4.41.69.1.28.15.62.15 1.02V255h-1.41v-4.1c0-.31-.05-.55-.14-.73a.78.78 0 0 0-.4-.37 1.42 1.42 0 0 0-.6-.12c-.26 0-.5.05-.68.15-.18.1-.33.24-.45.42-.12.17-.2.38-.26.6a3.2 3.2 0 0 0-.08.75Zm3.93-.38-.66.15c0-.39.05-.75.16-1.09.1-.34.27-.64.47-.9.21-.26.47-.47.78-.61.31-.15.66-.23 1.06-.23.33 0 .62.05.87.14.26.08.48.22.66.4.18.2.31.44.4.74.1.3.15.66.15 1.08v4.1H89.8v-4.1c0-.33-.05-.58-.14-.75a.73.73 0 0 0-.39-.37c-.17-.06-.37-.1-.6-.1-.22 0-.41.04-.58.12-.17.08-.3.2-.42.34-.11.14-.2.3-.26.48-.05.19-.08.39-.08.6Zm8.13 3.9c-.46 0-.89-.08-1.27-.23a2.81 2.81 0 0 1-1.56-1.63 3.43 3.43 0 0 1-.21-1.21v-.24c0-.5.07-.94.21-1.34.15-.4.35-.75.6-1.04.27-.28.57-.5.92-.66.35-.15.73-.23 1.14-.23.46 0 .85.08 1.2.23.33.15.62.37.84.65.22.27.4.6.5.98.12.37.17.8.17 1.25v.6h-4.9v-1.01h3.5v-.11c0-.26-.05-.5-.15-.72-.08-.22-.22-.4-.41-.54-.19-.13-.44-.2-.75-.2-.24 0-.44.05-.63.15-.18.1-.33.24-.45.43s-.21.41-.28.68c-.06.26-.1.55-.1.88v.24c0 .27.04.53.12.77.08.24.19.44.34.62.15.17.33.31.54.41a1.95 1.95 0 0 0 2.32-.64l.74.72a2.66 2.66 0 0 1-1.34 1.01c-.3.12-.67.18-1.09.18Zm6.44 0c-.47 0-.9-.08-1.27-.23a2.81 2.81 0 0 1-1.57-1.63 3.43 3.43 0 0 1-.2-1.21v-.24c0-.5.06-.94.2-1.34.15-.4.35-.75.61-1.04.26-.28.56-.5.92-.66.35-.15.73-.23 1.14-.23.45 0 .85.08 1.19.23.34.15.62.37.84.65.23.27.4.6.5.98.12.37.17.8.17 1.25v.6h-4.9v-1.01h3.51v-.11c0-.26-.06-.5-.15-.72a1.2 1.2 0 0 0-.42-.54c-.19-.13-.44-.2-.75-.2-.23 0-.44.05-.63.15-.17.1-.32.24-.45.43-.12.19-.21.41-.28.68-.06.26-.1.55-.1.88v.24c0 .27.05.53.12.77.08.24.2.44.34.62.15.17.33.31.54.41a1.95 1.95 0 0 0 2.32-.64l.74.72a2.67 2.67 0 0 1-1.34 1.01c-.3.12-.67.18-1.08.18Zm6.54-6.46v1.03h-3.57v-1.03h3.57Zm-2.54-1.55h1.41v6.14c0 .2.03.34.08.45.06.1.14.17.24.2.1.04.22.06.36.06a2.12 2.12 0 0 0 .5-.06v1.08a3.36 3.36 0 0 1-.93.14c-.33 0-.61-.06-.86-.17-.25-.12-.45-.3-.59-.57a2.2 2.2 0 0 1-.21-1.04v-6.23Zm5.15 1.55V255h-1.42v-6.34h1.42Zm-1.52-1.66c0-.22.07-.4.21-.54a.8.8 0 0 1 .6-.21.8.8 0 0 1 .6.21c.14.14.21.32.21.54a.7.7 0 0 1-.22.52.8.8 0 0 1-.59.21.82.82 0 0 1-.6-.2.71.71 0 0 1-.2-.53ZM114 250V255h-1.41v-6.34h1.33l.08 1.35Zm-.25 1.59-.46-.01c0-.45.07-.86.19-1.24.13-.37.3-.7.52-.96a2.34 2.34 0 0 1 1.83-.84c.3 0 .57.04.82.12.25.08.46.22.64.4.18.2.31.44.4.74.1.3.15.66.15 1.1V255h-1.42v-4.1c0-.3-.04-.55-.13-.72a.75.75 0 0 0-.38-.38 1.43 1.43 0 0 0-.62-.12 1.36 1.36 0 0 0-1.14.57c-.13.17-.22.38-.3.6-.06.24-.1.48-.1.75Zm9.6-2.94h1.28v6.16c0 .58-.13 1.06-.37 1.46-.24.4-.58.7-1.01.9a3.42 3.42 0 0 1-2.32.22 3.3 3.3 0 0 1-.85-.34c-.27-.16-.5-.36-.69-.6l.67-.84a2.04 2.04 0 0 0 2.44.6c.22-.12.4-.3.53-.52.12-.23.18-.51.18-.85v-4.75l.13-1.44Zm-4.31 3.24v-.12c0-.48.05-.92.17-1.31.12-.4.29-.75.5-1.03a2.2 2.2 0 0 1 1.86-.9c.41 0 .76.08 1.05.23.3.14.54.36.73.63.2.28.35.6.46.99.11.38.2.8.25 1.26v.4a6.3 6.3 0 0 1-.25 1.24c-.13.37-.29.7-.49.97a2.06 2.06 0 0 1-1.76.86 2.27 2.27 0 0 1-1.84-.92 3.19 3.19 0 0 1-.5-1.02 4.5 4.5 0 0 1-.19-1.28Zm1.4-.12v.12c0 .29.03.56.09.8.06.26.15.48.26.67.12.19.28.34.46.45.19.1.4.16.66.16.33 0 .6-.08.82-.22.21-.14.38-.33.49-.56.12-.25.2-.52.25-.81v-1.06a2.58 2.58 0 0 0-.15-.65c-.07-.2-.17-.37-.29-.52a1.2 1.2 0 0 0-.46-.35c-.18-.09-.4-.13-.65-.13a1.28 1.28 0 0 0-1.12.61c-.12.2-.2.42-.27.67-.05.26-.08.53-.08.82ZM84.35 281.28V287h-.72v-4.82l-1.46.53v-.65l2.06-.78h.12Zm5.7 2.42v.87c0 .47-.05.86-.13 1.18-.09.32-.2.58-.36.77-.16.2-.35.34-.57.43-.22.09-.46.13-.74.13-.22 0-.42-.03-.6-.08a1.44 1.44 0 0 1-.5-.27 1.58 1.58 0 0 1-.38-.47c-.1-.2-.18-.43-.24-.71-.05-.28-.08-.6-.08-.98v-.87c0-.46.04-.85.12-1.17.09-.31.21-.57.37-.76.15-.19.34-.33.56-.41a2.17 2.17 0 0 1 1.35-.04 1.38 1.38 0 0 1 .87.71c.1.2.19.42.24.7.06.28.08.6.08.97Zm-.73.99v-1.1c0-.26-.02-.49-.05-.68-.03-.2-.07-.36-.13-.5a1 1 0 0 0-.22-.34.77.77 0 0 0-.3-.18 1.07 1.07 0 0 0-.38-.07c-.17 0-.32.04-.45.1a.82.82 0 0 0-.34.3c-.09.14-.16.32-.2.55-.05.22-.07.5-.07.81v1.1c0 .26.01.49.04.68.03.2.08.37.14.51.06.14.13.26.21.35.09.09.19.16.3.2.12.04.24.06.38.06a1 1 0 0 0 .46-.1.84.84 0 0 0 .34-.31c.09-.15.16-.34.2-.56.04-.23.07-.5.07-.82Zm1.7 1.93c0-.13.04-.23.11-.31.08-.09.2-.13.34-.13s.26.04.33.13c.08.08.12.19.12.3 0 .13-.04.23-.12.31-.07.08-.19.13-.33.13-.15 0-.26-.05-.34-.13a.44.44 0 0 1-.11-.3Zm0-3.45c0-.12.04-.23.12-.31.07-.09.19-.13.33-.13.15 0 .26.04.33.13.08.08.12.19.12.3 0 .13-.04.23-.12.31-.07.09-.18.13-.33.13-.14 0-.26-.04-.33-.13a.44.44 0 0 1-.12-.3Zm5.46.53v.87c0 .47-.04.86-.12 1.18-.09.32-.2.58-.36.77-.16.2-.35.34-.57.43-.22.09-.47.13-.74.13-.22 0-.42-.03-.6-.08a1.44 1.44 0 0 1-.5-.27 1.58 1.58 0 0 1-.38-.47c-.1-.2-.19-.43-.24-.71-.06-.28-.08-.6-.08-.98v-.87c0-.46.04-.85.12-1.17.09-.31.2-.57.36-.76.16-.19.35-.33.57-.41a2.17 2.17 0 0 1 1.35-.04 1.38 1.38 0 0 1 .87.71c.1.2.18.42.24.7.05.28.08.6.08.97Zm-.73.99v-1.1c0-.26-.01-.49-.04-.68-.03-.2-.07-.36-.13-.5a1 1 0 0 0-.22-.34.77.77 0 0 0-.3-.18 1.07 1.07 0 0 0-.38-.07c-.17 0-.32.04-.46.1a.82.82 0 0 0-.33.3c-.1.14-.16.32-.2.55-.05.22-.08.5-.08.81v1.1c0 .26.02.49.05.68.03.2.07.37.13.51s.14.26.22.35c.09.09.19.16.3.2.11.04.24.06.38.06a1 1 0 0 0 .46-.1.84.84 0 0 0 .33-.31c.1-.15.16-.34.2-.56.05-.23.07-.5.07-.82Zm5.23-.99v.87c0 .47-.04.86-.13 1.18-.08.32-.2.58-.35.77-.16.2-.35.34-.57.43-.22.09-.47.13-.74.13-.22 0-.42-.03-.6-.08a1.44 1.44 0 0 1-.5-.27 1.58 1.58 0 0 1-.38-.47c-.1-.2-.19-.43-.24-.71-.06-.28-.08-.6-.08-.98v-.87c0-.46.04-.85.12-1.17.09-.31.2-.57.36-.76.16-.19.35-.33.57-.41a2.17 2.17 0 0 1 1.35-.04 1.38 1.38 0 0 1 .87.71c.1.2.18.42.24.7.05.28.08.6.08.97Zm-.73.99v-1.1c0-.26-.01-.49-.04-.68-.03-.2-.07-.36-.13-.5a.99.99 0 0 0-.22-.34.77.77 0 0 0-.3-.18 1.07 1.07 0 0 0-.38-.07c-.17 0-.32.04-.46.1a.82.82 0 0 0-.33.3c-.1.14-.16.32-.2.55-.05.22-.08.5-.08.81v1.1c0 .26.02.49.05.68.03.2.07.37.13.51s.14.26.22.35c.09.09.19.16.3.2.11.04.24.06.38.06a1 1 0 0 0 .46-.1.84.84 0 0 0 .33-.31c.1-.15.16-.34.2-.56.05-.23.07-.5.07-.82Zm7.72-.83v.6h-3.91v-.6h3.9Zm5.53-2.58V287h-.72v-4.82l-1.46.53v-.65l2.07-.78h.11Zm5.86 5.13v.59h-3.73v-.52l1.87-2.07.53-.65c.13-.18.21-.34.26-.48.05-.15.08-.3.08-.44 0-.19-.04-.36-.12-.5a.88.88 0 0 0-.33-.38c-.15-.09-.33-.13-.54-.13-.25 0-.46.05-.63.15a.9.9 0 0 0-.38.4c-.08.18-.12.38-.12.6h-.73c0-.32.07-.6.21-.88.14-.26.35-.47.63-.63.28-.16.61-.24 1.02-.24.36 0 .67.07.92.2.26.12.45.3.59.53.14.22.2.49.2.8 0 .16-.03.33-.08.5a4 4 0 0 1-.57 1l-.41.5-1.53 1.65h2.86Zm.82.2c0-.12.03-.22.1-.3.09-.09.2-.13.34-.13.15 0 .26.04.34.13.08.08.11.19.11.3 0 .13-.03.23-.11.31-.08.08-.19.13-.33.13-.15 0-.26-.05-.34-.13a.44.44 0 0 1-.11-.3Zm0-3.44c0-.12.04-.23.11-.31.08-.09.2-.13.34-.13.15 0 .26.04.33.13.08.08.12.19.12.3 0 .13-.04.23-.12.31-.07.09-.18.13-.33.13-.15 0-.26-.04-.34-.13a.44.44 0 0 1-.11-.3Zm5.46.53v.87c0 .47-.05.86-.13 1.18-.08.32-.2.58-.36.77-.15.2-.34.34-.56.43-.22.09-.47.13-.75.13-.22 0-.42-.03-.6-.08a1.44 1.44 0 0 1-.5-.27 1.58 1.58 0 0 1-.38-.47c-.1-.2-.18-.43-.23-.71a5.1 5.1 0 0 1-.09-.98v-.87c0-.46.04-.85.13-1.17.08-.31.2-.57.36-.76.16-.19.34-.33.56-.41a2.17 2.17 0 0 1 1.35-.04 1.38 1.38 0 0 1 .88.71c.1.2.18.42.24.7.05.28.08.6.08.97Zm-.73.99v-1.1a4.16 4.16 0 0 0-.18-1.18 1 1 0 0 0-.21-.34.78.78 0 0 0-.3-.18 1.07 1.07 0 0 0-.38-.07c-.18 0-.33.04-.46.1a.82.82 0 0 0-.34.3c-.09.14-.15.32-.2.55-.05.22-.07.5-.07.81v1.1c0 .26.01.49.04.68.03.2.08.37.14.51.06.14.13.26.22.35.08.09.18.16.3.2.1.04.24.06.37.06a1 1 0 0 0 .47-.1.84.84 0 0 0 .33-.31c.1-.15.16-.34.2-.56.05-.23.07-.5.07-.82Zm5.23-.99v.87c0 .47-.04.86-.13 1.18-.08.32-.2.58-.36.77-.15.2-.34.34-.56.43-.22.09-.47.13-.75.13-.22 0-.42-.03-.6-.08a1.44 1.44 0 0 1-.5-.27 1.58 1.58 0 0 1-.38-.47c-.1-.2-.18-.43-.23-.71a5.1 5.1 0 0 1-.09-.98v-.87c0-.46.04-.85.13-1.17.08-.31.2-.57.36-.76.16-.19.34-.33.56-.41a2.17 2.17 0 0 1 1.35-.04 1.38 1.38 0 0 1 .88.71c.1.2.18.42.24.7.05.28.08.6.08.97Zm-.73.99v-1.1a4.16 4.16 0 0 0-.18-1.18 1 1 0 0 0-.21-.34.78.78 0 0 0-.3-.18 1.07 1.07 0 0 0-.38-.07c-.18 0-.33.04-.46.1a.82.82 0 0 0-.34.3c-.09.14-.15.32-.2.55-.05.22-.07.5-.07.81v1.1c0 .26.01.49.04.68.03.2.08.37.14.51.06.14.13.26.22.35.08.09.18.16.3.2.1.04.24.06.37.06a1 1 0 0 0 .47-.1.84.84 0 0 0 .33-.31c.1-.15.16-.34.2-.56.05-.23.07-.5.07-.82Zm3.7.04v-.04a5.73 5.73 0 0 1 .67-2.75c.2-.35.4-.63.63-.86.22-.23.42-.4.6-.5l.15.48a2.6 2.6 0 0 0-.47.48c-.15.2-.3.46-.43.76s-.23.65-.31 1.04c-.08.4-.13.85-.13 1.34v.05c0 .5.05.95.13 1.34.08.4.18.75.31 1.05.14.3.28.56.44.77.15.21.31.38.46.5l-.15.45c-.18-.1-.38-.27-.6-.5a5.19 5.19 0 0 1-1.3-3.61Zm6.41 1.68v.59h-3.72v-.52l1.86-2.07c.23-.26.4-.48.53-.65a2 2 0 0 0 .27-.48c.05-.15.07-.3.07-.44 0-.19-.03-.36-.11-.5a.88.88 0 0 0-.34-.38c-.15-.09-.33-.13-.54-.13-.25 0-.46.05-.63.15a.9.9 0 0 0-.38.4c-.08.18-.12.38-.12.6h-.72c0-.32.07-.6.2-.88.15-.26.36-.47.63-.63.28-.16.62-.24 1.02-.24.36 0 .67.07.93.2.25.12.44.3.58.53.14.22.2.49.2.8 0 .16-.02.33-.08.5a4 4 0 0 1-.57 1l-.4.5-1.53 1.65h2.85Zm1.57-5.41v6h-.72v-6h.72Zm-.17 3.73-.3-.02c0-.28.05-.55.13-.8a2 2 0 0 1 .35-.64 1.55 1.55 0 0 1 1.24-.57c.2 0 .4.02.56.08.17.06.31.14.43.27.12.12.2.28.27.47.06.2.1.43.1.71V287h-.73v-2.78c0-.22-.03-.4-.1-.53a.6.6 0 0 0-.28-.3c-.13-.05-.28-.08-.47-.08a1.06 1.06 0 0 0-.87.42 1.58 1.58 0 0 0-.33 1Zm5.52-.04v.04a5.78 5.78 0 0 1-.68 2.75c-.2.35-.4.63-.62.86-.22.23-.42.4-.6.5l-.16-.44a3.77 3.77 0 0 0 .9-1.27c.13-.3.24-.65.32-1.05.08-.4.12-.85.12-1.35v-.05a6.37 6.37 0 0 0-.47-2.4 3.97 3.97 0 0 0-.87-1.26l.15-.44c.19.1.39.27.6.5.22.23.43.51.63.86a5.28 5.28 0 0 1 .68 2.75Z" fill="#6A234C"/><g clip-path="url(#e)" fill="#6A234C"><path d="M144.78 229.22a.35.35 0 1 0-.5.5l1.28 1.29h-5.75a2.25 2.25 0 0 0-2.25 2.24v.94a.36.36 0 0 0 .71 0v-.94a1.53 1.53 0 0 1 1.53-1.53h5.76l-1.28 1.28a.35.35 0 0 0 .5.5l1.88-1.88a.36.36 0 0 0 0-.51l-1.88-1.89ZM140.06 235.83c.13.14.13.36 0 .5l-1.29 1.29h5.76a1.53 1.53 0 0 0 1.53-1.54v-.94a.35.35 0 0 1 .7 0v.94a2.24 2.24 0 0 1-2.23 2.24h-5.76l1.29 1.29a.35.35 0 0 1-.5.5l-1.9-1.89a.35.35 0 0 1-.07-.38.36.36 0 0 1 .08-.12l1.89-1.89a.35.35 0 0 1 .5 0Z"/></g></g><g filter="url(#f)"><rect x="248.5" y="223" width="79" height="72" rx="3.31" fill="#FFDBEF"/><path d="M258.88 231.47V240h-1.46v-8.53h1.46Zm2.68 0v1.17h-6.8v-1.17h6.8Zm3.21 8.65c-.47 0-.9-.08-1.27-.23a2.81 2.81 0 0 1-1.56-1.63 3.42 3.42 0 0 1-.21-1.21v-.24c0-.5.07-.94.21-1.34.15-.4.35-.75.6-1.04.26-.28.57-.5.92-.66.35-.15.73-.23 1.14-.23.45 0 .85.08 1.2.23.33.15.61.37.83.65.23.27.4.6.5.98.12.37.18.8.18 1.25v.6h-4.9v-1.01h3.5v-.11a2 2 0 0 0-.15-.72c-.09-.22-.23-.4-.41-.54-.2-.13-.44-.2-.75-.2-.24 0-.45.05-.63.15-.18.1-.33.24-.45.43s-.22.41-.28.68c-.07.26-.1.55-.1.88v.24c0 .27.04.53.11.77.08.24.2.44.34.62.15.17.33.31.54.41a1.96 1.96 0 0 0 2.32-.64l.75.72a2.65 2.65 0 0 1-1.34 1.01c-.31.12-.67.18-1.09.18Zm7.21-1.4v-3.01c0-.23-.04-.43-.12-.6a.86.86 0 0 0-.37-.37 1.28 1.28 0 0 0-.63-.14c-.23 0-.42.04-.6.12a.97.97 0 0 0-.38.32.76.76 0 0 0-.15.45h-1.4c0-.25.06-.5.18-.73.12-.23.3-.44.53-.63.23-.18.5-.32.82-.43.32-.1.68-.16 1.08-.16.48 0 .9.08 1.27.24.37.16.66.4.87.73.22.32.32.72.32 1.2v2.82c0 .3.02.55.06.78.04.23.1.43.18.6v.09h-1.44a2.52 2.52 0 0 1-.16-.58 4.76 4.76 0 0 1-.06-.7Zm.2-2.57.02.87h-1.01c-.26 0-.5.02-.7.07-.2.05-.36.12-.5.22a.91.91 0 0 0-.39.79c0 .16.04.32.12.46.07.13.19.24.34.32a1.56 1.56 0 0 0 1.82-.5c.12-.17.19-.34.2-.5l.46.63a2.5 2.5 0 0 1-.69 1.04 2.2 2.2 0 0 1-1.52.57c-.41 0-.78-.09-1.1-.25-.33-.17-.58-.4-.77-.67a2.02 2.02 0 0 1-.09-1.86c.13-.26.32-.48.57-.66.25-.17.55-.3.91-.4.36-.09.77-.13 1.23-.13h1.1Zm4.11-1.2V240h-1.41v-6.34h1.33l.08 1.29Zm-.23 1.65-.48-.01c0-.44.06-.84.17-1.21.1-.37.27-.7.48-.97.2-.28.47-.49.78-.64a2.5 2.5 0 0 1 1.1-.23c.29 0 .55.05.79.13s.45.22.63.4c.18.17.31.4.4.69.1.28.15.62.15 1.02V240h-1.41v-4.1c0-.31-.05-.55-.14-.73a.78.78 0 0 0-.4-.37 1.42 1.42 0 0 0-.6-.12c-.26 0-.49.05-.68.15-.18.1-.33.24-.45.42-.11.17-.2.38-.25.6-.06.24-.09.48-.09.75Zm3.93-.38-.66.15c0-.39.06-.75.16-1.09.11-.34.27-.64.47-.9a2.22 2.22 0 0 1 1.85-.84c.32 0 .6.05.86.14.26.08.48.22.66.4.18.2.31.44.4.74.1.3.15.66.15 1.08v4.1h-1.42v-4.1c0-.33-.05-.58-.14-.75a.73.73 0 0 0-.39-.37 1.57 1.57 0 0 0-1.18.02c-.16.08-.3.2-.42.34-.1.14-.2.3-.25.48-.06.19-.09.39-.09.6Zm-23.35 13.73V255h-1.41v-6.34h1.33l.08 1.29Zm-.23 1.65-.48-.01c0-.44.05-.84.16-1.21s.27-.7.48-.97c.22-.28.48-.49.79-.64a2.5 2.5 0 0 1 1.1-.23c.28 0 .55.05.79.13s.45.22.62.4c.18.17.32.4.41.69.1.28.15.62.15 1.02V255h-1.41v-4.1c0-.31-.05-.55-.14-.73a.78.78 0 0 0-.4-.37 1.42 1.42 0 0 0-.6-.12c-.26 0-.5.05-.68.15-.18.1-.33.24-.45.42-.12.17-.2.38-.26.6-.05.24-.08.48-.08.75Zm3.93-.38-.66.15c0-.39.05-.75.16-1.09.1-.34.27-.64.47-.9.21-.26.47-.47.78-.61.31-.15.66-.23 1.06-.23.33 0 .62.05.87.14.26.08.48.22.66.4.18.2.31.44.4.74.1.3.15.66.15 1.08v4.1h-1.42v-4.1c0-.33-.05-.58-.14-.75a.73.73 0 0 0-.39-.37c-.17-.06-.37-.1-.6-.1-.22 0-.41.04-.58.12-.17.08-.3.2-.42.34-.11.14-.2.3-.26.48-.05.19-.08.39-.08.6Zm8.14 3.9c-.47 0-.9-.08-1.28-.23a2.81 2.81 0 0 1-1.56-1.63 3.42 3.42 0 0 1-.21-1.21v-.24c0-.5.07-.94.21-1.34.15-.4.35-.75.6-1.04.27-.28.57-.5.92-.66.35-.15.73-.23 1.14-.23.46 0 .85.08 1.2.23.33.15.62.37.84.65.22.27.4.6.5.98.12.37.17.8.17 1.25v.6h-4.9v-1.01h3.5v-.11c0-.26-.05-.5-.15-.72-.08-.22-.22-.4-.41-.54-.19-.13-.44-.2-.75-.2-.24 0-.44.05-.63.15-.18.1-.33.24-.45.43s-.21.41-.28.68c-.06.26-.1.55-.1.88v.24c0 .27.04.53.12.77.08.24.19.44.34.62.14.17.32.31.54.41a1.96 1.96 0 0 0 2.32-.64l.74.72a2.65 2.65 0 0 1-1.34 1.01c-.3.12-.67.18-1.08.18Zm6.43 0c-.47 0-.9-.08-1.27-.23a2.8 2.8 0 0 1-1.57-1.63 3.44 3.44 0 0 1-.2-1.21v-.24c0-.5.06-.94.2-1.34.15-.4.35-.75.61-1.04.26-.28.56-.5.92-.66.35-.15.73-.23 1.14-.23.45 0 .85.08 1.19.23.34.15.62.37.84.65.23.27.4.6.5.98.12.37.18.8.18 1.25v.6h-4.9v-1.01h3.5v-.11c0-.26-.06-.5-.15-.72a1.2 1.2 0 0 0-.42-.54c-.19-.13-.44-.2-.75-.2-.23 0-.44.05-.63.15-.17.1-.33.24-.45.43s-.21.41-.28.68c-.06.26-.1.55-.1.88v.24c0 .27.05.53.12.77.08.24.2.44.34.62.15.17.33.31.54.41a1.95 1.95 0 0 0 2.32-.64l.74.72a2.67 2.67 0 0 1-1.34 1.01c-.3.12-.67.18-1.08.18Zm6.54-6.46v1.03h-3.57v-1.03h3.57Zm-2.54-1.55h1.41v6.14c0 .2.03.34.08.45.06.1.14.17.25.2.1.04.22.06.35.06a2.12 2.12 0 0 0 .5-.06v1.08a3.36 3.36 0 0 1-.93.14c-.33 0-.61-.06-.86-.17-.25-.12-.45-.3-.59-.57a2.2 2.2 0 0 1-.21-1.04v-6.23Zm5.14 1.55V255h-1.41v-6.34h1.42Zm-1.5-1.66c0-.22.06-.4.2-.54a.8.8 0 0 1 .6-.21.8.8 0 0 1 .6.21c.14.14.21.32.21.54a.7.7 0 0 1-.22.52.8.8 0 0 1-.59.21.82.82 0 0 1-.6-.2.71.71 0 0 1-.2-.53ZM287 250V255h-1.41v-6.34h1.33l.08 1.35Zm-.25 1.59-.46-.01c0-.45.07-.86.19-1.24.13-.37.3-.7.52-.96a2.34 2.34 0 0 1 1.83-.84c.3 0 .57.04.82.12.25.08.46.22.64.4.18.2.31.44.4.74.1.3.15.66.15 1.1V255h-1.42v-4.1c0-.3-.04-.55-.13-.72a.75.75 0 0 0-.38-.38 1.43 1.43 0 0 0-.62-.12 1.36 1.36 0 0 0-1.14.57c-.13.17-.22.38-.3.6-.06.24-.1.48-.1.75Zm9.6-2.94h1.27v6.16c0 .58-.12 1.06-.36 1.46-.24.4-.58.7-1.01.9a3.42 3.42 0 0 1-2.32.22 3.3 3.3 0 0 1-.85-.34c-.27-.16-.5-.36-.69-.6l.67-.84a2.04 2.04 0 0 0 2.44.6c.22-.12.4-.3.52-.52.13-.23.2-.51.2-.85v-4.75l.12-1.44Zm-4.31 3.24v-.12c0-.48.05-.92.17-1.31.12-.4.29-.75.5-1.03a2.2 2.2 0 0 1 1.86-.9c.41 0 .76.08 1.05.23.3.14.54.36.73.63.2.28.35.6.46.99.11.38.2.8.25 1.26v.4a6.3 6.3 0 0 1-.25 1.24c-.13.37-.29.7-.49.97a2.06 2.06 0 0 1-1.76.86 2.27 2.27 0 0 1-1.85-.92 3.19 3.19 0 0 1-.5-1.02 4.5 4.5 0 0 1-.17-1.28Zm1.4-.12v.12c0 .29.04.56.09.8.06.26.15.48.26.67.12.19.28.34.46.45.19.1.4.16.66.16.33 0 .6-.08.82-.22.21-.14.38-.33.49-.56.12-.25.2-.52.24-.81v-1.06a2.58 2.58 0 0 0-.14-.65c-.07-.2-.17-.37-.29-.52a1.2 1.2 0 0 0-.46-.35c-.18-.09-.4-.13-.65-.13a1.28 1.28 0 0 0-1.12.61c-.12.2-.2.42-.26.67-.06.26-.1.53-.1.82ZM257.35 281.28V287h-.73v-4.82l-1.45.53v-.65l2.06-.78h.12Zm5.7 2.42v.87c0 .47-.05.86-.13 1.18-.09.32-.2.58-.36.77-.16.2-.35.34-.57.43-.22.09-.46.13-.74.13a2.1 2.1 0 0 1-.6-.08 1.43 1.43 0 0 1-.5-.27 1.58 1.58 0 0 1-.38-.47c-.1-.2-.18-.43-.24-.71-.05-.28-.08-.6-.08-.98v-.87c0-.46.04-.85.12-1.17.09-.31.21-.57.37-.76.15-.19.34-.33.56-.41a2.17 2.17 0 0 1 1.35-.04 1.38 1.38 0 0 1 .87.71c.1.2.19.42.24.7.06.28.08.6.08.97Zm-.73.99v-1.1c0-.26-.02-.49-.05-.68-.03-.2-.07-.36-.13-.5a1 1 0 0 0-.22-.34.77.77 0 0 0-.3-.18 1.07 1.07 0 0 0-.38-.07c-.17 0-.32.04-.45.1a.82.82 0 0 0-.34.3c-.09.14-.16.32-.2.55-.05.22-.07.5-.07.81v1.1c0 .26.01.49.04.68.03.2.08.37.13.51.06.14.14.26.22.35.09.09.19.16.3.2.12.04.24.06.38.06a1 1 0 0 0 .46-.1.84.84 0 0 0 .34-.31c.09-.15.16-.34.2-.56.04-.23.07-.5.07-.82Zm1.7 1.93c0-.13.04-.23.11-.31.08-.09.2-.13.34-.13s.25.04.33.13c.08.08.12.19.12.3 0 .13-.04.23-.12.31-.07.08-.19.13-.33.13-.15 0-.26-.05-.34-.13a.43.43 0 0 1-.11-.3Zm0-3.45c0-.12.04-.23.12-.31.07-.09.19-.13.33-.13.15 0 .26.04.33.13.08.08.12.19.12.3 0 .13-.04.23-.12.31-.07.09-.18.13-.33.13-.14 0-.26-.04-.33-.13a.44.44 0 0 1-.12-.3Zm5.46.53v.87c0 .47-.04.86-.13 1.18-.08.32-.2.58-.35.77-.16.2-.35.34-.57.43-.22.09-.47.13-.74.13-.22 0-.42-.03-.6-.08a1.43 1.43 0 0 1-.5-.27 1.58 1.58 0 0 1-.38-.47c-.1-.2-.19-.43-.24-.71a5.1 5.1 0 0 1-.08-.98v-.87c0-.46.04-.85.12-1.17.09-.31.2-.57.37-.76.15-.19.34-.33.56-.41a2.17 2.17 0 0 1 1.35-.04 1.38 1.38 0 0 1 .87.71c.1.2.18.42.24.7.05.28.08.6.08.97Zm-.73.99v-1.1c0-.26-.01-.49-.04-.68-.03-.2-.07-.36-.13-.5a.98.98 0 0 0-.22-.34.77.77 0 0 0-.3-.18 1.08 1.08 0 0 0-.38-.07c-.17 0-.32.04-.46.1a.82.82 0 0 0-.33.3 1.6 1.6 0 0 0-.2.55c-.05.22-.08.5-.08.81v1.1c0 .26.02.49.05.68.03.2.07.37.13.51s.14.26.22.35c.09.09.19.16.3.2.11.04.24.06.38.06a1 1 0 0 0 .46-.1.83.83 0 0 0 .33-.31c.1-.15.16-.34.2-.56.05-.23.07-.5.07-.82Zm5.23-.99v.87c0 .47-.04.86-.13 1.18-.08.32-.2.58-.35.77-.16.2-.35.34-.57.43-.22.09-.47.13-.74.13-.22 0-.42-.03-.6-.08a1.43 1.43 0 0 1-.5-.27 1.58 1.58 0 0 1-.38-.47c-.1-.2-.19-.43-.24-.71a5.1 5.1 0 0 1-.08-.98v-.87c0-.46.04-.85.12-1.17.09-.31.2-.57.37-.76.15-.19.34-.33.56-.41a2.17 2.17 0 0 1 1.35-.04 1.38 1.38 0 0 1 .87.71c.1.2.18.42.24.7.05.28.08.6.08.97Zm-.73.99v-1.1c0-.26-.01-.49-.04-.68-.03-.2-.07-.36-.13-.5a.98.98 0 0 0-.22-.34.77.77 0 0 0-.3-.18 1.08 1.08 0 0 0-.38-.07c-.17 0-.32.04-.46.1a.82.82 0 0 0-.33.3 1.6 1.6 0 0 0-.2.55c-.05.22-.08.5-.08.81v1.1c0 .26.02.49.05.68.03.2.07.37.13.51s.14.26.22.35c.09.09.19.16.3.2.11.04.24.06.38.06a1 1 0 0 0 .46-.1.83.83 0 0 0 .33-.31c.1-.15.16-.34.2-.56.05-.23.07-.5.07-.82Zm7.72-.83v.6h-3.92v-.6h3.92Zm5.53-2.58V287h-.72v-4.82l-1.46.53v-.65l2.07-.78h.11Zm5.86 5.13v.59h-3.73v-.52l1.87-2.07c.23-.26.4-.48.53-.65.13-.18.21-.34.26-.48.06-.15.08-.3.08-.44 0-.19-.04-.36-.12-.5a.88.88 0 0 0-.33-.38c-.15-.09-.33-.13-.54-.13-.25 0-.46.05-.63.15a.9.9 0 0 0-.38.4c-.08.18-.12.38-.12.6h-.73c0-.32.07-.6.21-.88.14-.26.35-.47.63-.63.27-.16.62-.24 1.02-.24.36 0 .67.07.92.2.26.12.45.3.59.53a1.6 1.6 0 0 1 .12 1.3 4 4 0 0 1-.57 1l-.41.5-1.53 1.65h2.86Zm.82.2c0-.12.03-.22.1-.3.09-.09.2-.13.35-.13.14 0 .25.04.33.13.08.08.11.19.11.3 0 .13-.03.23-.11.31-.08.08-.19.13-.33.13-.15 0-.26-.05-.34-.13a.44.44 0 0 1-.11-.3Zm0-3.44c0-.12.04-.23.11-.31.08-.09.2-.13.34-.13s.25.04.33.13c.08.08.12.19.12.3 0 .13-.04.23-.12.31-.07.09-.19.13-.33.13-.15 0-.26-.04-.34-.13a.44.44 0 0 1-.11-.3Zm5.46.53v.87c0 .47-.04.86-.13 1.18-.08.32-.2.58-.36.77-.15.2-.34.34-.56.43-.22.09-.47.13-.75.13-.21 0-.42-.03-.6-.08a1.44 1.44 0 0 1-.5-.27 1.58 1.58 0 0 1-.38-.47c-.1-.2-.18-.43-.24-.71a5.1 5.1 0 0 1-.08-.98v-.87c0-.46.04-.85.13-1.17.08-.31.2-.57.36-.76.16-.19.35-.33.56-.41a2.17 2.17 0 0 1 1.35-.04 1.38 1.38 0 0 1 .88.71c.1.2.18.42.24.7.05.28.08.6.08.97Zm-.73.99v-1.1a4.16 4.16 0 0 0-.18-1.18 1 1 0 0 0-.21-.34.78.78 0 0 0-.3-.18 1.07 1.07 0 0 0-.38-.07c-.18 0-.33.04-.46.1a.82.82 0 0 0-.34.3c-.09.14-.15.32-.2.55-.05.22-.07.5-.07.81v1.1c0 .26.01.49.04.68.03.2.08.37.14.51.06.14.13.26.22.35.08.09.18.16.3.2.1.04.24.06.37.06a1 1 0 0 0 .47-.1.84.84 0 0 0 .33-.31c.1-.15.16-.34.2-.56.05-.23.07-.5.07-.82Zm5.23-.99v.87c0 .47-.04.86-.13 1.18-.08.32-.2.58-.36.77-.15.2-.34.34-.56.43-.22.09-.47.13-.75.13-.21 0-.42-.03-.6-.08a1.44 1.44 0 0 1-.5-.27 1.58 1.58 0 0 1-.38-.47c-.1-.2-.18-.43-.24-.71a5.1 5.1 0 0 1-.08-.98v-.87c0-.46.04-.85.13-1.17.08-.31.2-.57.36-.76.16-.19.35-.33.56-.41a2.17 2.17 0 0 1 1.35-.04 1.38 1.38 0 0 1 .88.71c.1.2.18.42.24.7.05.28.08.6.08.97Zm-.73.99v-1.1a4.16 4.16 0 0 0-.18-1.18 1 1 0 0 0-.21-.34.78.78 0 0 0-.3-.18 1.07 1.07 0 0 0-.38-.07c-.18 0-.33.04-.46.1a.82.82 0 0 0-.34.3c-.09.14-.15.32-.2.55-.05.22-.07.5-.07.81v1.1c0 .26.01.49.04.68.03.2.08.37.14.51.06.14.13.26.22.35.08.09.18.16.3.2.1.04.24.06.37.06a1 1 0 0 0 .47-.1.84.84 0 0 0 .33-.31c.1-.15.16-.34.2-.56.05-.23.07-.5.07-.82Zm3.7.04v-.04a5.73 5.73 0 0 1 .67-2.75c.2-.35.4-.63.63-.86.21-.23.42-.4.6-.5l.15.48a2.6 2.6 0 0 0-.47.48c-.15.2-.3.46-.43.76s-.23.65-.31 1.04c-.08.4-.13.85-.13 1.34v.05c0 .5.05.95.13 1.34.08.4.18.75.31 1.05.13.3.28.56.44.77.15.21.31.38.46.5l-.15.45c-.18-.1-.38-.27-.6-.5a5.19 5.19 0 0 1-1.3-3.61Zm6.41 1.68v.59h-3.72v-.52l1.86-2.07c.23-.26.4-.48.53-.65a2 2 0 0 0 .27-.48c.05-.15.08-.3.08-.44 0-.19-.04-.36-.12-.5a.88.88 0 0 0-.34-.38c-.15-.09-.33-.13-.54-.13-.25 0-.46.05-.63.15a.9.9 0 0 0-.38.4c-.08.18-.12.38-.12.6h-.72c0-.32.07-.6.2-.88.15-.26.36-.47.63-.63.28-.16.62-.24 1.02-.24.36 0 .67.07.92.2.26.12.46.3.6.53a1.6 1.6 0 0 1 .12 1.3 4 4 0 0 1-.57 1c-.14.17-.27.34-.42.5l-1.52 1.65h2.85Zm1.57-5.41v6h-.72v-6h.72Zm-.17 3.73-.3-.02c0-.28.05-.55.13-.8a2 2 0 0 1 .35-.64 1.55 1.55 0 0 1 1.24-.57c.2 0 .4.02.56.08.17.06.31.14.43.27.12.12.2.28.27.47.06.2.1.43.1.71V287h-.73v-2.78c0-.22-.03-.4-.1-.53a.6.6 0 0 0-.28-.3c-.13-.05-.28-.08-.46-.08a1.06 1.06 0 0 0-.88.42 1.58 1.58 0 0 0-.33 1Zm5.52-.04v.04a5.78 5.78 0 0 1-.68 2.75c-.2.35-.4.63-.62.86-.22.23-.42.4-.6.5l-.16-.44a3.77 3.77 0 0 0 .9-1.27c.13-.3.24-.65.32-1.05.08-.4.12-.85.12-1.35v-.05a6.37 6.37 0 0 0-.47-2.4 3.97 3.97 0 0 0-.87-1.26l.15-.44c.19.1.39.27.6.5.23.23.43.51.63.86a5.28 5.28 0 0 1 .68 2.75Z" fill="#6A234C"/><g clip-path="url(#g)" fill="#6A234C"><path d="M317.78 229.22a.35.35 0 1 0-.5.5l1.28 1.29h-5.75a2.25 2.25 0 0 0-2.25 2.24v.94a.36.36 0 0 0 .71 0v-.94a1.53 1.53 0 0 1 1.54-1.53h5.75l-1.28 1.28a.35.35 0 0 0 .5.5l1.88-1.88a.36.36 0 0 0 0-.51l-1.88-1.89ZM313.06 235.83c.13.14.13.36 0 .5l-1.29 1.29h5.76a1.53 1.53 0 0 0 1.53-1.54v-.94a.35.35 0 0 1 .7 0v.94a2.24 2.24 0 0 1-2.23 2.24h-5.76l1.29 1.29a.35.35 0 0 1-.5.5l-1.9-1.89a.35.35 0 0 1-.07-.38.36.36 0 0 1 .08-.12l1.88-1.89a.35.35 0 0 1 .5 0Z"/></g></g></g></g><g filter="url(#h)"><rect x="119" y="63" width="224" height="75.76" rx="3.29" fill="#fff"/></g><path d="M139.4 83.13h3.34c.72 0 1.34.1 1.85.32.5.22.9.54 1.16.97.28.42.41.94.41 1.56a2.55 2.55 0 0 1-1 2.16c-.31.24-.69.43-1.13.56l-.5.24h-3l-.02-1.3h2.26c.4 0 .72-.06.98-.2s.45-.33.58-.57c.14-.24.2-.51.2-.81 0-.33-.06-.62-.2-.86a1.26 1.26 0 0 0-.58-.57c-.26-.13-.6-.2-1-.2h-1.72v8.17h-1.63v-9.47Zm5.4 9.47-2.22-4.25 1.7-.01 2.26 4.18v.08h-1.74Zm5.94.13c-.53 0-1-.08-1.42-.25a3.12 3.12 0 0 1-1.73-1.81 3.8 3.8 0 0 1-.24-1.35v-.26c0-.55.08-1.05.24-1.5.16-.44.39-.82.67-1.14.29-.32.63-.57 1.02-.74.39-.17.81-.25 1.27-.25.5 0 .94.08 1.32.25.38.17.69.41.93.72.26.3.44.67.56 1.09.13.42.2.88.2 1.39v.67h-5.45v-1.13h3.9v-.12c-.01-.28-.07-.55-.17-.8-.1-.24-.26-.44-.47-.6-.2-.14-.48-.22-.83-.22a1.37 1.37 0 0 0-1.2.64c-.13.21-.24.46-.31.76-.07.29-.1.62-.1.98v.26c0 .3.04.6.12.86.09.26.21.49.38.68.16.2.36.35.6.47a2.17 2.17 0 0 0 2.58-.7l.82.79a2.96 2.96 0 0 1-1.48 1.13c-.35.12-.76.18-1.22.18Zm6.91-1.25c.26 0 .49-.05.7-.15.2-.1.37-.25.5-.43.12-.18.2-.39.2-.63h1.48c0 .46-.14.87-.4 1.24-.26.38-.6.67-1.03.9-.43.21-.9.32-1.43.32-.54 0-1-.1-1.4-.27-.4-.19-.74-.45-1-.77-.27-.33-.46-.7-.6-1.13-.13-.42-.2-.88-.2-1.36v-.23c0-.49.07-.94.2-1.37.14-.43.34-.8.6-1.13.26-.32.6-.58 1-.76.4-.19.86-.28 1.4-.28.56 0 1.05.11 1.48.34.42.22.76.53 1 .93.25.4.38.85.38 1.38h-1.47c-.02-.26-.08-.5-.2-.7a1.28 1.28 0 0 0-.48-.51c-.2-.13-.45-.19-.73-.19-.32 0-.58.06-.8.2-.2.12-.36.3-.48.52-.12.21-.2.46-.25.73-.05.27-.08.55-.08.84v.23c0 .29.03.57.08.84.04.28.13.52.24.74.13.21.29.38.5.51.2.13.47.2.8.2Zm8.32-.54v-5.38h1.58v7.04h-1.49l-.09-1.66Zm.22-1.46.53-.02c0 .48-.05.91-.16 1.31-.1.4-.26.74-.48 1.04-.21.29-.5.51-.83.68-.34.16-.74.24-1.22.24-.34 0-.65-.05-.94-.15-.29-.1-.53-.25-.74-.46a2.1 2.1 0 0 1-.48-.81 3.75 3.75 0 0 1-.16-1.2v-4.55h1.56v4.56c0 .26.03.47.1.65.06.16.14.3.24.4.1.11.23.18.36.23.14.04.3.06.45.06.45 0 .8-.08 1.05-.26.26-.18.45-.41.56-.71.1-.3.16-.64.16-1.01Zm4.54-2.58v5.7h-1.57v-7.04h1.5l.07 1.34Zm2.15-1.39-.01 1.46a3.09 3.09 0 0 0-1.35.07 1.34 1.34 0 0 0-.82.83c-.08.2-.12.42-.13.67l-.36.03c0-.45.04-.86.13-1.23.09-.38.22-.71.39-1a1.78 1.78 0 0 1 1.9-.88c.11.01.2.03.25.05Zm2.56 1.4v5.69h-1.57v-7.04h1.5l.07 1.34Zm2.15-1.4-.01 1.46a3.03 3.03 0 0 0-1.35.07 1.35 1.35 0 0 0-.82.83c-.08.2-.12.42-.13.67l-.36.03c0-.45.04-.86.13-1.23.09-.38.22-.71.39-1a1.78 1.78 0 0 1 1.9-.88c.11.01.2.03.25.05Zm3.96 7.22c-.52 0-1-.08-1.41-.25a3.12 3.12 0 0 1-1.74-1.81 3.8 3.8 0 0 1-.23-1.35v-.26c0-.55.08-1.05.24-1.5.16-.44.38-.82.67-1.14.28-.32.62-.57 1.01-.74.4-.17.81-.25 1.27-.25.5 0 .94.08 1.32.25.38.17.7.41.94.72.25.3.44.67.56 1.09.12.42.19.88.19 1.39v.67h-5.44v-1.13h3.89v-.12c-.01-.28-.07-.55-.17-.8-.1-.24-.25-.44-.46-.6-.21-.14-.49-.22-.84-.22a1.37 1.37 0 0 0-1.2.64c-.13.21-.23.46-.3.76-.07.29-.11.62-.11.98v.26c0 .3.04.6.12.86.1.26.22.49.38.68.17.2.37.35.6.47a2.17 2.17 0 0 0 2.58-.7l.82.79a2.96 2.96 0 0 1-1.48 1.13c-.35.12-.75.18-1.21.18Zm5.6-5.67v5.54h-1.57v-7.04h1.47l.1 1.5Zm-.28 1.76h-.51c0-.5.07-.96.2-1.38.14-.42.34-.77.58-1.07a2.52 2.52 0 0 1 2.03-.94c.34 0 .64.05.92.14.27.1.5.24.7.45.2.21.36.48.46.82.1.33.16.73.16 1.21v4.55h-1.58v-4.55c0-.34-.05-.6-.15-.8a.83.83 0 0 0-.42-.43 1.59 1.59 0 0 0-.68-.13 1.51 1.51 0 0 0-1.27.63c-.14.2-.25.42-.33.68a2.8 2.8 0 0 0-.11.82Zm9.01 2.66c.26 0 .49-.05.7-.15.2-.1.37-.25.5-.43.12-.18.2-.39.2-.63h1.48c0 .46-.14.87-.4 1.24-.26.38-.6.67-1.03.9-.43.21-.9.32-1.43.32-.54 0-1-.1-1.4-.27-.4-.19-.73-.45-1-.77-.26-.33-.46-.7-.6-1.13-.13-.42-.2-.88-.2-1.36v-.23c0-.49.07-.94.2-1.37.14-.43.34-.8.6-1.13.27-.32.6-.58 1-.76.4-.19.86-.28 1.4-.28.56 0 1.05.11 1.48.34.42.22.76.53 1 .93.25.4.38.85.38 1.38h-1.47c-.01-.26-.08-.5-.2-.7a1.3 1.3 0 0 0-.48-.51c-.2-.13-.45-.19-.73-.19-.32 0-.58.06-.8.2-.2.12-.36.3-.48.52-.12.21-.2.46-.25.73-.05.27-.07.55-.07.84v.23c0 .29.02.57.07.84.05.28.13.52.24.74.13.21.29.38.5.51.2.13.47.2.8.2Zm7.2 1.25c-.53 0-1-.08-1.42-.25a3.12 3.12 0 0 1-1.74-1.81 3.8 3.8 0 0 1-.23-1.35v-.26c0-.55.08-1.05.24-1.5.16-.44.38-.82.67-1.14.29-.32.62-.57 1.02-.74.38-.17.8-.25 1.26-.25.5 0 .95.08 1.32.25.38.17.7.41.94.72.25.3.44.67.56 1.09.13.42.19.88.19 1.39v.67h-5.44v-1.13h3.9v-.12c-.02-.28-.07-.55-.18-.8-.1-.24-.25-.44-.46-.6-.2-.14-.49-.22-.83-.22a1.37 1.37 0 0 0-1.2.64c-.14.21-.24.46-.31.76-.07.29-.1.62-.1.98v.26c0 .3.03.6.12.86.08.26.2.49.37.68.17.2.37.35.6.47a2.17 2.17 0 0 0 2.58-.7l.83.79a2.96 2.96 0 0 1-1.48 1.13c-.35.12-.76.18-1.22.18ZM212 86.9v5.7h-1.56v-7.04h1.5l.06 1.34Zm2.16-1.39-.01 1.46a3.09 3.09 0 0 0-1.35.07 1.34 1.34 0 0 0-.83.83c-.07.2-.12.42-.13.67l-.35.03c0-.45.04-.86.13-1.23.08-.38.21-.71.38-1a1.78 1.78 0 0 1 1.9-.88c.12.01.2.03.26.05Zm5.22 5.43v-5.38h1.57v7.04h-1.48l-.1-1.66Zm.22-1.46.53-.02c0 .48-.06.91-.16 1.31s-.27.74-.48 1.04c-.22.29-.5.51-.84.68-.33.16-.74.24-1.21.24-.34 0-.66-.05-.95-.15-.28-.1-.53-.25-.74-.46a2.1 2.1 0 0 1-.47-.81 3.75 3.75 0 0 1-.17-1.2v-4.55h1.57v4.56c0 .26.03.47.09.65.06.16.14.3.24.4.1.11.23.18.37.23.14.04.29.06.44.06.45 0 .8-.08 1.06-.26s.44-.41.55-.71c.11-.3.17-.64.17-1.01Zm4.64-6.87v9.99h-1.58v-10h1.58Zm4.82 10.12c-.52 0-1-.08-1.41-.25a3.12 3.12 0 0 1-1.74-1.81 3.8 3.8 0 0 1-.23-1.35v-.26c0-.55.07-1.05.24-1.5.16-.44.38-.82.67-1.14.28-.32.62-.57 1.01-.74.4-.17.81-.25 1.27-.25.5 0 .94.08 1.32.25.38.17.69.41.94.72.25.3.44.67.56 1.09.12.42.19.88.19 1.39v.67h-5.44v-1.13h3.89v-.12c-.01-.28-.07-.55-.17-.8-.1-.24-.26-.44-.46-.6-.21-.14-.49-.22-.84-.22a1.37 1.37 0 0 0-1.2.64c-.13.21-.23.46-.3.76-.08.29-.11.62-.11.98v.26c0 .3.04.6.12.86.09.26.22.49.38.68.16.2.37.35.6.47a2.17 2.17 0 0 0 2.58-.7l.82.79a2.96 2.96 0 0 1-1.48 1.13c-.35.12-.75.18-1.21.18Z" fill="#000"/><path d="M165.42 112.87v.77h-3.76v-.77h3.76Zm-3.57-6.34v7.11h-.94v-7.1h.94Zm3.08 3.06v.77h-3.27v-.77h3.27Zm.44-3.06v.78h-3.71v-.78h3.71Zm2.56 6.3 1.44-4.47h.93l-1.9 5.28h-.6l.13-.81Zm-1.2-4.47 1.48 4.49.1.79h-.6l-1.91-5.28h.92Zm6.56 5.38c-.37 0-.7-.06-1-.19a2.27 2.27 0 0 1-1.26-1.34 2.97 2.97 0 0 1-.17-1.02v-.21c0-.43.07-.81.2-1.15.12-.33.3-.62.51-.86a2.2 2.2 0 0 1 1.6-.7c.38 0 .7.06.98.19.27.13.5.31.68.54.17.23.3.5.39.82.08.32.12.66.12 1.03v.4h-3.94v-.73h3.04v-.07a2.27 2.27 0 0 0-.15-.69c-.08-.22-.2-.4-.39-.54a1.13 1.13 0 0 0-.73-.22 1.23 1.23 0 0 0-1 .52c-.13.17-.23.37-.3.62-.06.24-.1.52-.1.84v.2c0 .26.03.5.1.71.07.22.18.41.31.58.14.16.3.3.5.39.19.1.41.14.66.14.32 0 .59-.06.8-.2a2 2 0 0 0 .59-.52l.55.44a2.5 2.5 0 0 1-.44.49c-.18.16-.4.28-.65.38-.25.1-.55.15-.9.15Zm4.01-4.55v4.45h-.9v-5.28h.88l.02.83Zm1.65-.86v.84a2.12 2.12 0 0 0-.44-.04c-.21 0-.4.03-.56.1-.16.06-.3.16-.4.27-.11.12-.2.26-.27.42-.06.16-.1.34-.12.53l-.25.14c0-.31.03-.61.1-.9.06-.27.16-.52.29-.73.13-.22.3-.4.5-.51a1.42 1.42 0 0 1 1.15-.12Zm2.4 4.76 1.47-4.73h.97l-2.12 6.1a3.39 3.39 0 0 1-.5.85 1.43 1.43 0 0 1-1.34.43 2.92 2.92 0 0 1-.23-.05v-.73a2.04 2.04 0 0 0 .76-.06.79.79 0 0 0 .36-.27c.1-.12.19-.3.26-.51l.38-1.03Zm-1.07-4.73 1.37 4.1.23.95-.65.33-1.94-5.38h.99Zm8.14 4.34 1.36-4.34h.6l-.13.86-1.38 4.42h-.58l.13-.94Zm-.91-4.34 1.16 4.4.08.88h-.61l-1.53-5.28h.9Zm4.16 4.36 1.1-4.36h.9l-1.53 5.28h-.6l.13-.92Zm-1.17-4.36 1.33 4.27.15 1.01h-.57l-1.42-4.43-.12-.85h.63Zm6.29 5.38c-.37 0-.7-.06-1-.19a2.27 2.27 0 0 1-1.25-1.34 2.97 2.97 0 0 1-.18-1.02v-.21c0-.43.07-.81.2-1.15.12-.33.3-.62.51-.86a2.2 2.2 0 0 1 1.6-.7c.38 0 .7.06.98.19s.5.31.68.54c.17.23.3.5.39.82.08.32.12.66.12 1.03v.4h-3.94v-.73h3.04v-.07a2.27 2.27 0 0 0-.15-.69c-.08-.22-.2-.4-.39-.54a1.14 1.14 0 0 0-.73-.22 1.23 1.23 0 0 0-1 .52c-.13.17-.23.37-.3.62-.06.24-.1.52-.1.84v.2c0 .26.04.5.1.71.08.22.18.41.31.58.14.16.3.3.5.39.19.1.41.14.66.14.32 0 .59-.06.8-.2a2 2 0 0 0 .59-.52l.55.44c-.12.17-.26.33-.44.49-.18.16-.4.28-.65.38-.25.1-.55.15-.9.15Zm5.3 0c-.37 0-.7-.06-1-.19a2.27 2.27 0 0 1-1.26-1.34 2.97 2.97 0 0 1-.17-1.02v-.21c0-.43.07-.81.2-1.15.12-.33.3-.62.51-.86a2.2 2.2 0 0 1 1.6-.7c.38 0 .7.06.98.19.27.13.5.31.68.54.17.23.3.5.39.82.08.32.12.66.12 1.03v.4h-3.94v-.73h3.04v-.07a2.24 2.24 0 0 0-.15-.69c-.08-.22-.2-.4-.39-.54a1.14 1.14 0 0 0-.73-.22 1.23 1.23 0 0 0-1 .52 1.9 1.9 0 0 0-.3.62c-.06.24-.1.52-.1.84v.2c0 .26.03.5.1.71.08.22.18.41.31.58.14.16.3.3.5.39.19.1.41.14.66.14.32 0 .59-.06.8-.2a2 2 0 0 0 .59-.52l.54.44c-.1.17-.25.33-.43.49-.17.16-.4.28-.65.38-.25.1-.55.15-.9.15Zm4.01-7.6v7.5h-.9v-7.5h.9Zm3.23 2.22-2.3 2.46-1.3 1.34-.06-.96.92-1.1 1.64-1.74h1.1Zm-.82 5.28-1.89-2.52.47-.8 2.48 3.32h-1.06Zm4-2.58v-.11c0-.39.05-.74.16-1.06.1-.33.27-.62.48-.86.2-.24.46-.43.75-.56.3-.14.63-.2 1-.2s.7.06 1 .2c.3.13.55.32.76.56.21.24.37.53.48.86.11.32.17.67.17 1.06v.1c0 .39-.06.74-.17 1.07-.1.32-.27.6-.48.85a2.2 2.2 0 0 1-1.75.77 2.25 2.25 0 0 1-2.24-1.62 3.26 3.26 0 0 1-.17-1.06Zm.9-.11v.1c0 .27.03.52.09.76.06.23.15.43.28.61.12.18.28.32.47.42.19.1.4.16.66.16a1.35 1.35 0 0 0 1.12-.58c.12-.18.21-.38.27-.61.07-.24.1-.49.1-.75v-.11c0-.26-.03-.51-.1-.74a1.88 1.88 0 0 0-.28-.62 1.31 1.31 0 0 0-1.12-.58c-.25 0-.47.05-.66.15-.18.1-.34.25-.46.43-.13.18-.22.38-.28.62-.06.23-.1.48-.1.74Zm5.93-1.46v4.15h-.9v-5.28h.85l.05 1.13Zm-.21 1.31-.38-.02c0-.36.06-.69.16-1 .1-.3.25-.57.44-.8a1.97 1.97 0 0 1 1.55-.72c.26 0 .5.04.7.11.21.07.39.18.53.33.15.15.27.35.35.6.07.24.11.53.11.88v3.46h-.9v-3.47c0-.28-.04-.5-.13-.66a.74.74 0 0 0-.35-.37 1.27 1.27 0 0 0-.58-.12 1.34 1.34 0 0 0-1.09.54 1.98 1.98 0 0 0-.41 1.24Zm7.75-4.27h.91l2.33 5.8 2.32-5.8h.92l-2.9 7.11h-.7l-2.88-7.1Zm-.3 0h.8l.14 4.34v2.77h-.94v-7.1Zm6.27 0h.8v7.11h-.94v-2.77l.14-4.34Zm2.08 4.53v-.11c0-.39.06-.74.16-1.06.12-.33.28-.62.48-.86a2.34 2.34 0 0 1 1.75-.77c.38 0 .71.07 1 .2.3.14.56.33.77.57.2.24.37.53.48.86.11.32.17.67.17 1.06v.1c0 .39-.06.74-.17 1.07-.11.32-.27.6-.48.85a2.2 2.2 0 0 1-1.75.77 2.25 2.25 0 0 1-1.76-.77c-.22-.24-.37-.53-.49-.85a3.28 3.28 0 0 1-.16-1.06Zm.9-.11v.1c0 .27.03.52.1.76.06.23.15.43.27.61a1.38 1.38 0 0 0 1.13.58c.25 0 .47-.06.65-.16.2-.1.35-.24.47-.42.13-.18.22-.38.28-.61.07-.24.1-.49.1-.75v-.11c0-.26-.03-.51-.1-.74a1.9 1.9 0 0 0-.28-.62 1.31 1.31 0 0 0-1.12-.58 1.33 1.33 0 0 0-1.13.58c-.12.18-.21.38-.27.62-.07.23-.1.48-.1.74Zm5.94-1.46v4.15h-.9v-5.28h.85l.05 1.13Zm-.21 1.31-.38-.02c0-.36.06-.69.16-1 .1-.3.25-.57.44-.8a1.96 1.96 0 0 1 1.55-.72c.26 0 .5.04.7.11.2.07.39.18.53.33.15.15.27.35.34.6.08.24.12.53.12.88v3.46h-.9v-3.47c0-.28-.05-.5-.13-.66a.74.74 0 0 0-.36-.37 1.27 1.27 0 0 0-.57-.12 1.34 1.34 0 0 0-1.09.54 1.96 1.96 0 0 0-.41 1.24Zm8.16 1.81v-6.47h.9v7.5h-.82l-.08-1.03Zm-3.55-1.55v-.1c0-.4.05-.77.14-1.1.1-.33.25-.62.43-.86a1.87 1.87 0 0 1 1.52-.74c.33 0 .62.06.86.18.25.11.47.28.64.5.18.22.31.48.41.8.1.3.18.65.21 1.04v.45c-.03.39-.1.73-.2 1.04-.1.31-.25.58-.42.8-.17.21-.38.38-.63.5a2.1 2.1 0 0 1-1.73-.03 2 2 0 0 1-.66-.56 2.75 2.75 0 0 1-.43-.85c-.1-.33-.14-.69-.14-1.07Zm.9-.1v.1c0 .26.03.5.08.74.06.23.14.43.26.61.11.18.26.31.43.42.18.1.39.14.63.14.3 0 .55-.06.74-.19.2-.13.35-.3.47-.5.11-.21.2-.44.27-.68v-1.18c-.04-.17-.1-.35-.17-.51a1.57 1.57 0 0 0-.28-.45 1.2 1.2 0 0 0-.43-.32 1.36 1.36 0 0 0-.59-.12 1.24 1.24 0 0 0-1.07.58c-.12.17-.2.38-.26.61-.05.23-.08.48-.08.75Zm8.08 1.78v-2.72c0-.2-.05-.39-.13-.54a.83.83 0 0 0-.37-.36 1.35 1.35 0 0 0-.62-.13c-.22 0-.42.04-.6.12-.17.07-.3.18-.4.3a.67.67 0 0 0-.14.41h-.9c0-.18.05-.37.14-.56.1-.18.24-.35.43-.5.18-.15.4-.27.66-.36.26-.1.55-.14.87-.14.38 0 .72.07 1.01.2.3.13.53.32.7.59.16.26.25.59.25.98v2.46c0 .17.01.36.04.56.04.2.08.37.14.51v.08h-.94a3.35 3.35 0 0 1-.15-.9Zm.15-2.3.01.63h-.91c-.26 0-.49.02-.69.07-.2.03-.37.1-.5.18a.81.81 0 0 0-.42.73c0 .16.03.32.1.45.08.14.2.25.34.33a1.49 1.49 0 0 0 1.8-.49c.13-.17.2-.33.2-.5l.39.44c-.02.14-.09.3-.19.46a2.18 2.18 0 0 1-1 .85c-.22.1-.48.15-.77.15-.35 0-.67-.07-.94-.21a1.49 1.49 0 0 1-.84-1.36c0-.28.05-.53.16-.75.11-.21.27-.4.48-.54.2-.14.46-.25.75-.33.3-.07.62-.11.98-.11h1.05Zm3.57 2.65 1.47-4.73h.97l-2.12 6.1a3.26 3.26 0 0 1-.5.85 1.44 1.44 0 0 1-1.06.46c-.08 0-.17 0-.28-.03a2.73 2.73 0 0 1-.23-.05v-.73a1.97 1.97 0 0 0 .24.02c.2 0 .38-.03.52-.08a.8.8 0 0 0 .36-.27c.1-.12.19-.3.26-.51l.37-1.03Zm-1.07-4.73 1.37 4.1.23.95-.65.33-1.94-5.38h.99Zm4.62 4.2v.73c0 .3-.08.61-.23.94-.15.33-.36.6-.63.83l-.5-.36a2.74 2.74 0 0 0 .42-.9c.03-.15.05-.32.05-.5v-.73h.89Zm5.63-1.07 1.41-4.95h.69l-.4 1.92-1.52 5.18h-.68l.5-2.15Zm-1.46-4.95 1.13 4.85.33 2.25h-.67l-1.72-7.1h.93Zm5.38 4.85 1.1-4.86h.94l-1.72 7.11h-.67l.35-2.25Zm-1.72-4.86 1.37 4.96.5 2.15h-.68l-1.46-5.18-.4-1.92h.67Zm6.7 7.2a2.27 2.27 0 0 1-2.25-1.53 2.97 2.97 0 0 1-.17-1.02v-.2c0-.43.06-.81.19-1.15.13-.33.3-.62.52-.86a2.2 2.2 0 0 1 1.6-.7c.37 0 .7.06.97.19.28.13.5.31.68.54.18.23.3.5.4.82.08.32.12.66.12 1.03v.4h-3.94v-.73h3.04v-.07a2.24 2.24 0 0 0-.15-.69 1.14 1.14 0 0 0-1.12-.76 1.23 1.23 0 0 0-1.01.52 1.9 1.9 0 0 0-.3.62c-.06.24-.1.52-.1.84v.2c0 .26.04.5.1.71.08.22.18.41.32.58.13.16.3.3.49.39.2.1.42.14.66.14.32 0 .6-.06.81-.2a2 2 0 0 0 .58-.52l.55.44c-.11.17-.26.33-.43.49-.18.16-.4.28-.65.38-.26.1-.56.15-.9.15Zm6.44-1.12v-6.47h.9v7.5h-.82l-.08-1.03Zm-3.55-1.55v-.1c0-.4.05-.77.14-1.1.1-.33.25-.62.43-.86a1.88 1.88 0 0 1 1.52-.74c.33 0 .62.06.87.18.25.11.46.28.63.5.18.22.31.48.41.8.1.3.18.65.21 1.04v.45c-.03.39-.1.73-.2 1.04-.1.31-.25.58-.42.8-.17.21-.38.38-.63.5a2.1 2.1 0 0 1-1.73-.03 2 2 0 0 1-.66-.56 2.73 2.73 0 0 1-.43-.85c-.1-.33-.14-.69-.14-1.07Zm.9-.1v.1c0 .26.03.5.08.74.06.23.14.43.26.61.11.18.26.31.43.42.18.1.39.14.63.14.3 0 .55-.06.74-.19.2-.13.35-.3.47-.5.11-.21.2-.44.27-.68v-1.18c-.04-.17-.1-.35-.17-.51a1.6 1.6 0 0 0-.28-.45 1.22 1.22 0 0 0-.43-.32 1.36 1.36 0 0 0-.59-.12 1.24 1.24 0 0 0-1.07.58c-.12.17-.2.38-.26.61-.05.23-.07.48-.07.75Zm5.87-1.47v4.15h-.9v-5.28h.85l.05 1.13Zm-.22 1.31-.38-.02c0-.36.06-.69.17-1 .1-.3.25-.57.44-.8a1.96 1.96 0 0 1 1.54-.72c.26 0 .5.04.7.11.21.07.4.18.54.33.15.15.26.35.34.6.08.24.12.53.12.88v3.46h-.91v-3.47c0-.28-.04-.5-.12-.66a.74.74 0 0 0-.36-.37 1.27 1.27 0 0 0-.58-.12 1.34 1.34 0 0 0-1.08.54 1.96 1.96 0 0 0-.42 1.24Zm7.03 2.94c-.37 0-.7-.06-1-.19a2.26 2.26 0 0 1-1.26-1.34 2.97 2.97 0 0 1-.17-1.02v-.21c0-.43.07-.81.2-1.15.12-.33.3-.62.51-.86a2.2 2.2 0 0 1 1.6-.7c.38 0 .7.06.98.19.27.13.5.31.68.54.17.23.3.5.39.82.08.32.12.66.12 1.03v.4h-3.94v-.73h3.04v-.07a2.24 2.24 0 0 0-.15-.69c-.08-.22-.2-.4-.39-.54a1.14 1.14 0 0 0-.73-.22 1.23 1.23 0 0 0-1 .52 1.9 1.9 0 0 0-.3.62c-.06.24-.1.52-.1.84v.2c0 .26.04.5.1.71.07.22.18.41.31.58.14.16.3.3.5.39.19.1.41.14.66.14.32 0 .59-.06.8-.2a2 2 0 0 0 .59-.52l.54.44c-.11.17-.25.33-.43.49-.18.16-.4.28-.65.38-.25.1-.55.15-.9.15Zm6.18-1.5a.77.77 0 0 0-.09-.36.74.74 0 0 0-.34-.3 2.8 2.8 0 0 0-.78-.25c-.3-.06-.56-.14-.8-.22a2.44 2.44 0 0 1-.6-.31 1.18 1.18 0 0 1-.5-1c0-.2.04-.4.13-.59.1-.18.23-.35.4-.49s.37-.25.61-.34c.25-.08.51-.12.8-.12.43 0 .8.08 1.1.23.3.15.52.35.68.6.16.24.24.52.24.82h-.9a.77.77 0 0 0-.13-.42.97.97 0 0 0-.38-.35 1.2 1.2 0 0 0-.6-.14c-.25 0-.45.04-.61.12a.78.78 0 0 0-.34.29.72.72 0 0 0-.05.63c.04.08.1.15.18.21.1.06.22.12.38.18l.6.16c.44.1.8.22 1.07.36.28.13.5.3.63.5s.2.44.2.72a1.37 1.37 0 0 1-.56 1.13c-.18.14-.4.25-.64.33-.25.07-.53.1-.84.1-.46 0-.85-.08-1.18-.24a1.82 1.82 0 0 1-.73-.65 1.54 1.54 0 0 1-.25-.83h.91c.01.25.08.44.21.59.13.14.3.25.48.3a1.9 1.9 0 0 0 1.18 0c.17-.07.3-.16.39-.27a.62.62 0 0 0 .13-.4Zm5.42.38v-6.48h.9v7.5h-.82l-.08-1.03Zm-3.56-1.56v-.1c0-.4.05-.77.15-1.1.1-.33.24-.62.43-.86a1.88 1.88 0 0 1 1.52-.74c.32 0 .62.06.86.18.25.11.46.28.64.5.17.22.31.48.41.8.1.3.17.65.21 1.04v.45c-.04.39-.1.73-.2 1.04-.11.31-.25.58-.42.8-.18.21-.39.38-.64.5a2.1 2.1 0 0 1-1.73-.03 2 2 0 0 1-.65-.56 2.73 2.73 0 0 1-.43-.85c-.1-.33-.15-.69-.15-1.07Zm.91-.1v.1c0 .26.03.5.08.74.06.23.14.43.25.61.12.18.26.31.44.42.17.1.38.14.63.14.3 0 .54-.06.74-.19.19-.13.35-.3.46-.5.12-.21.21-.44.28-.68v-1.18c-.04-.17-.1-.35-.17-.51a1.6 1.6 0 0 0-.29-.45 1.22 1.22 0 0 0-.42-.32 1.36 1.36 0 0 0-.6-.12 1.24 1.24 0 0 0-1.07.58c-.11.17-.2.38-.25.61-.05.23-.08.48-.08.75Zm8.07 1.78v-2.72c0-.2-.04-.39-.12-.54a.84.84 0 0 0-.37-.36 1.35 1.35 0 0 0-.62-.13c-.23 0-.43.04-.6.12-.17.07-.3.18-.4.3a.67.67 0 0 0-.14.41h-.9c0-.18.04-.37.14-.56.1-.18.24-.35.42-.5.19-.15.4-.27.67-.36.26-.1.55-.14.87-.14.38 0 .72.07 1.01.2.3.13.53.32.7.59.16.26.25.59.25.98v2.46c0 .17.01.36.04.56.03.2.08.37.14.51v.08h-.94a3.35 3.35 0 0 1-.15-.9Zm.16-2.3v.63h-.9c-.26 0-.49.02-.7.07-.2.03-.36.1-.5.18a.81.81 0 0 0-.42.73c0 .16.04.32.11.45.08.14.2.25.34.33.15.08.34.12.56.12a1.49 1.49 0 0 0 1.24-.6c.12-.18.2-.34.2-.5l.39.43c-.03.14-.09.3-.19.46a2.12 2.12 0 0 1-2.71.79 1.48 1.48 0 0 1-.84-1.36 1.44 1.44 0 0 1 .64-1.29c.2-.14.46-.25.75-.33.3-.07.62-.11.98-.11h1.05Zm3.57 2.65 1.47-4.73h.97l-2.12 6.1a3.39 3.39 0 0 1-.5.85 1.44 1.44 0 0 1-1.07.46 2.73 2.73 0 0 1-.5-.08l-.01-.73a2.04 2.04 0 0 0 .77-.06.79.79 0 0 0 .36-.27c.1-.12.18-.3.26-.51l.37-1.03Zm-1.08-4.73 1.37 4.1.24.95-.65.33-1.94-5.38h.98Z" fill="#70757A"/><g clip-path="url(#i)" fill="#70757A"><path d="M146.97 104.88a.39.39 0 1 0-.56.55l1.41 1.41h-6.31a2.46 2.46 0 0 0-2.47 2.47v1.03a.39.39 0 1 0 .78 0v-1.03a1.68 1.68 0 0 1 1.69-1.69h6.31l-1.4 1.41a.39.39 0 1 0 .55.55l2.06-2.07a.39.39 0 0 0 0-.56l-2.06-2.07ZM141.78 112.14c.15.15.15.4 0 .55l-1.41 1.41h6.32a1.68 1.68 0 0 0 1.69-1.68v-1.04a.39.39 0 1 1 .77 0v1.04a2.46 2.46 0 0 1-2.46 2.46h-6.32l1.41 1.4a.39.39 0 0 1-.55.56l-2.07-2.08a.38.38 0 0 1 0-.55l2.07-2.07c.15-.15.4-.15.55 0Z"/></g><g filter="url(#j)"><mask id="k" maskUnits="userSpaceOnUse" x="278" y="125" width="20" height="24" fill="#000"><path fill="#fff" d="M278 125h20v24h-20z"/><path fill-rule="evenodd" clip-rule="evenodd" d="m284.49 138.71-1.04-1.58a2.66 2.66 0 0 0-3.37-.89l.27-.14a.67.67 0 0 0-.3.82l1.43 3.72c.23.6.8 1.43 1.29 1.85 0 0 2.89 2.39 2.89 3.29v1.13h4.68l1.17-2.34 1.17 2.34h1.17v-1.13c0-.9 1.77-3.73 1.77-3.73.32-.55.6-1.52.6-2.16v-4.72a1.97 1.97 0 0 0-2.01-1.9c-.55 0-1 .43-1 .95v.38c0-1.05-.88-1.9-1.98-1.9-.55 0-1 .43-1 .95v.38c0-1.05-.88-1.9-1.98-1.9-.55 0-1 .43-1 .95v.38c0-.17 0-.3-.04-.4l-.3-4.89a1.26 1.26 0 0 0-1.25-1.17c-.65 0-1.17.52-1.17 1.17v10.54Zm8.21-1.17h1.18v4.69h-1.18v-4.69Zm-2.34 0h1.17v4.69h-1.17v-4.69Zm-2.34 0h1.17v4.69h-1.17v-4.69Z"/></mask><path fill-rule="evenodd" clip-rule="evenodd" d="m284.49 138.71-1.04-1.58a2.66 2.66 0 0 0-3.37-.89l.27-.14a.67.67 0 0 0-.3.82l1.43 3.72c.23.6.8 1.43 1.29 1.85 0 0 2.89 2.39 2.89 3.29v1.13h4.68l1.17-2.34 1.17 2.34h1.17v-1.13c0-.9 1.77-3.73 1.77-3.73.32-.55.6-1.52.6-2.16v-4.72a1.97 1.97 0 0 0-2.01-1.9c-.55 0-1 .43-1 .95v.38c0-1.05-.88-1.9-1.98-1.9-.55 0-1 .43-1 .95v.38c0-1.05-.88-1.9-1.98-1.9-.55 0-1 .43-1 .95v.38c0-.17 0-.3-.04-.4l-.3-4.89a1.26 1.26 0 0 0-1.25-1.17c-.65 0-1.17.52-1.17 1.17v10.54Zm8.21-1.17h1.18v4.69h-1.18v-4.69Zm-2.34 0h1.17v4.69h-1.17v-4.69Zm-2.34 0h1.17v4.69h-1.17v-4.69Z" fill="#fff"/><path d="m284.49 138.71-.98.64 2.15 3.3v-3.94h-1.17Zm-1.04-1.58.98-.64-.98.64Zm-3.4-.2-1.1.42 1.1-.43Zm1.43 3.71 1.1-.42-1.1.42Zm1.29 1.85-.77.88h.01l.01.02.75-.9Zm2.89 4.42h-1.17v1.17h1.17v-1.17Zm4.68 0v1.17h.73l.32-.64-1.05-.53Zm1.17-2.34 1.05-.52-1.05-2.1-1.05 2.1 1.05.52Zm1.17 2.34-1.05.53.33.64h.72v-1.17Zm1.17 0v1.17h1.17v-1.17h-1.17Zm1.77-4.86 1 .62v-.02l-1-.6Zm.6-6.88h1.17v-.03l-1.18.03Zm-9.01-2.12-1.17.08v.15l.05.14 1.12-.37Zm-.3-4.88-1.18.08 1.17-.08Zm-2.42 0h-1.17 1.17Zm9.38 9.37h1.18v-1.17h-1.18v1.17Zm0 4.69v1.17h1.18v-1.17h-1.18Zm-1.17 0h-1.17v1.17h1.17v-1.17Zm0-4.69v-1.17h-1.17v1.17h1.17Zm-1.17 0h1.18v-1.17h-1.18v1.17Zm0 4.69v1.17h1.18v-1.17h-1.18Zm-1.17 0h-1.17v1.17h1.17v-1.17Zm0-4.69v-1.17h-1.17v1.17h1.17Zm-1.17 0h1.17v-1.17h-1.17v1.17Zm0 4.69v1.17h1.17v-1.17h-1.17Zm-1.17 0h-1.17v1.17h1.17v-1.17Zm0-4.69v-1.17h-1.17v1.17h1.17Zm-2.55.53-1.04-1.58-1.96 1.28 1.04 1.58 1.96-1.28Zm-1.04-1.58a3.83 3.83 0 0 0-4.89-1.29l1.07 2.08c.63-.32 1.48-.1 1.86.49l1.96-1.28Zm-3.81.8.26-.14-1.07-2.09-.27.14 1.07 2.08Zm-.8-2.23a1.84 1.84 0 0 0-.87 2.29l2.19-.85a.5.5 0 0 1 0 .36c-.03.1-.11.21-.26.28l-1.07-2.08Zm-.87 2.29 1.44 3.72 2.18-.85-1.44-3.72-2.18.85Zm1.44 3.72c.3.76.98 1.75 1.61 2.3l1.54-1.77c-.34-.3-.8-.97-.97-1.38l-2.18.84Zm2.38 1.42-.75.9.03.02a9.93 9.93 0 0 1 .4.34c.26.23.6.54.94.88a10.18 10.18 0 0 1 1.1 1.29c.06.1 0 .03 0-.14h2.34c0-.4-.14-.73-.26-.94a4.53 4.53 0 0 0-.44-.67c-.31-.41-.72-.84-1.1-1.21a25.87 25.87 0 0 0-1.38-1.26l-.1-.08-.02-.03h-.01l-.75.9Zm1.72 3.29v1.13h2.34v-1.13h-2.34Zm1.17 2.3h4.68v-2.34h-4.68v2.34Zm5.73-.64 1.17-2.35-2.1-1.04-1.17 2.34 2.1 1.05Zm-.93-2.35 1.18 2.35 2.1-1.05-1.18-2.34-2.1 1.04Zm2.22 3h1.17v-2.35h-1.17v2.34Zm2.34-1.18v-1.13h-2.34v1.13h2.34Zm0-1.13c0 .04.02-.1.19-.5.14-.35.34-.75.56-1.15a28.4 28.4 0 0 1 .83-1.43v-.02h.01l-1-.63-.98-.62-.01.01-.02.03-.06.1a27.42 27.42 0 0 0-1.49 2.79c-.16.38-.37.93-.37 1.42h2.34Zm1.6-3.13c.24-.4.42-.88.55-1.33.12-.45.22-.97.22-1.43h-2.35c0 .18-.04.48-.13.8-.1.33-.2.6-.3.77l2.02 1.19Zm.77-2.76v-4.72h-2.35v4.72h2.35Zm0-4.75a3.14 3.14 0 0 0-3.18-3.04v2.34c.5 0 .83.38.83.75l2.35-.05Zm-3.18-3.04c-1.14 0-2.17.9-2.17 2.12h2.35c0 .08-.04.14-.07.18a.15.15 0 0 1-.11.04v-2.34Zm-2.17 2.12v.38h2.35v-.38h-2.35Zm2.35.38a3.11 3.11 0 0 0-3.16-3.07v2.34c.5 0 .81.38.81.73h2.35Zm-3.16-3.07c-1.14 0-2.16.9-2.16 2.12h2.34c0 .08-.04.14-.07.18a.16.16 0 0 1-.11.04v-2.34Zm-2.16 2.12v.38h2.34v-.38h-2.34Zm2.34.38a3.11 3.11 0 0 0-3.16-3.07v2.35c.5 0 .82.37.82.72h2.34Zm-3.16-3.07c-1.14 0-2.16.9-2.16 2.12h2.34c0 .08-.04.15-.07.18a.16.16 0 0 1-.1.05v-2.35Zm-2.16 2.12v.38h2.34v-.38h-2.34Zm2.34.38c0-.24-.03-.5-.11-.77l-2.23.73v-.03.07h2.34Zm-.06-.48-.3-4.88-2.34.15.3 4.88 2.35-.15Zm-.3-4.88a2.43 2.43 0 0 0-2.41-2.27v2.34c.01 0 .03 0 .05.02.02.02.02.04.02.06l2.34-.15Zm-2.41-2.27a2.34 2.34 0 0 0-2.34 2.34h2.34v-2.34Zm-2.34 2.34v4.69h2.34v-4.69h-2.34Zm0 4.69v5.85h2.34v-5.85h-2.34Zm9.38 5.85h1.18v-2.34h-1.18v2.34Zm0-1.17v4.69h2.35v-4.69h-2.35Zm1.18 3.52h-1.18v2.34h1.18v-2.34Zm0 1.17v-4.69h-2.35v4.69h2.35Zm-3.52-3.52h1.17v-2.34h-1.17v2.34Zm0-1.17v4.69h2.35v-4.69h-2.35Zm1.17 3.52h-1.17v2.34h1.17v-2.34Zm0 1.17v-4.69h-2.34v4.69h2.35Zm-3.5-3.52h1.16v-2.34h-1.17v2.34Zm-.01-1.17v4.69h2.34v-4.69h-2.34Zm1.17 3.52h-1.17v2.34h1.17v-2.34Zm0 1.17v-4.69h-2.34v4.69h2.34Z" fill="#000" fill-opacity=".8" mask="url(#k)"/></g></g><defs><clipPath id="a"><path fill="#fff" d="M0 0h364v416H0z"/></clipPath><clipPath id="c"><rect x="33" y="100" width="299" height="242" rx="5" fill="#fff"/></clipPath><clipPath id="e"><path fill="#fff" d="M136.5 229h11.33v11.33H136.5z"/></clipPath><clipPath id="g"><path fill="#fff" d="M309.5 229h11.33v11.33H309.5z"/></clipPath><clipPath id="i"><path fill="#fff" d="M137.88 104.64h12.44v12.44h-12.44z"/></clipPath><filter id="b" x="12.77" y="89.89" width="339.45" height="282.45" filterUnits="userSpaceOnUse" color-interpolation-filters="sRGB"><feFlood flood-opacity="0" result="BackgroundImageFix"/><feColorMatrix in="SourceAlpha" values="0 0 0 0 0 0 0 0 0 0 0 0 0 0 0 0 0 0 127 0" result="hardAlpha"/><feOffset dy="10.11"/><feGaussianBlur stdDeviation="10.11"/><feComposite in2="hardAlpha" operator="out"/><feColorMatrix values="0 0 0 0 0.110417 0 0 0 0 0.117708 0 0 0 0 0.125 0 0 0 0.05 0"/><feBlend in2="BackgroundImageFix" result="effect1_dropShadow_12054_149939"/><feBlend in="SourceGraphic" in2="effect1_dropShadow_12054_149939" result="shape"/></filter><filter id="d" x="-.56" y="223" width="231.11" height="243.13" filterUnits="userSpaceOnUse" color-interpolation-filters="sRGB"><feFlood flood-opacity="0" result="BackgroundImageFix"/><feColorMatrix in="SourceAlpha" values="0 0 0 0 0 0 0 0 0 0 0 0 0 0 0 0 0 0 127 0" result="hardAlpha"/><feOffset dy="2.63"/><feGaussianBlur stdDeviation="1.05"/><feColorMatrix values="0 0 0 0 0 0 0 0 0 0 0 0 0 0 0 0 0 0 0.0337375 0"/><feBlend in2="BackgroundImageFix" result="effect1_dropShadow_12054_149939"/><feColorMatrix in="SourceAlpha" values="0 0 0 0 0 0 0 0 0 0 0 0 0 0 0 0 0 0 127 0" result="hardAlpha"/><feOffset dy="6.32"/><feGaussianBlur stdDeviation="2.53"/><feColorMatrix values="0 0 0 0 0 0 0 0 0 0 0 0 0 0 0 0 0 0 0.0484671 0"/><feBlend in2="effect1_dropShadow_12054_149939" result="effect2_dropShadow_12054_149939"/><feColorMatrix in="SourceAlpha" values="0 0 0 0 0 0 0 0 0 0 0 0 0 0 0 0 0 0 127 0" result="hardAlpha"/><feOffset dy="11.9"/><feGaussianBlur stdDeviation="4.76"/><feColorMatrix values="0 0 0 0 0 0 0 0 0 0 0 0 0 0 0 0 0 0 0.06 0"/><feBlend in2="effect2_dropShadow_12054_149939" result="effect3_dropShadow_12054_149939"/><feColorMatrix in="SourceAlpha" values="0 0 0 0 0 0 0 0 0 0 0 0 0 0 0 0 0 0 127 0" result="hardAlpha"/><feOffset dy="21.24"/><feGaussianBlur stdDeviation="8.49"/><feColorMatrix values="0 0 0 0 0 0 0 0 0 0 0 0 0 0 0 0 0 0 0.0715329 0"/><feBlend in2="effect3_dropShadow_12054_149939" result="effect4_dropShadow_12054_149939"/><feColorMatrix in="SourceAlpha" values="0 0 0 0 0 0 0 0 0 0 0 0 0 0 0 0 0 0 127 0" result="hardAlpha"/><feOffset dy="39.72"/><feGaussianBlur stdDeviation="15.89"/><feColorMatrix values="0 0 0 0 0 0 0 0 0 0 0 0 0 0 0 0 0 0 0.0862625 0"/><feBlend in2="effect4_dropShadow_12054_149939" result="effect5_dropShadow_12054_149939"/><feColorMatrix in="SourceAlpha" values="0 0 0 0 0 0 0 0 0 0 0 0 0 0 0 0 0 0 127 0" result="hardAlpha"/><feOffset dy="95.07"/><feGaussianBlur stdDeviation="38.03"/><feColorMatrix values="0 0 0 0 0 0 0 0 0 0 0 0 0 0 0 0 0 0 0.12 0"/><feBlend in2="effect5_dropShadow_12054_149939" result="effect6_dropShadow_12054_149939"/><feBlend in="SourceGraphic" in2="effect6_dropShadow_12054_149939" result="shape"/></filter><filter id="f" x="172.44" y="223" width="231.11" height="243.13" filterUnits="userSpaceOnUse" color-interpolation-filters="sRGB"><feFlood flood-opacity="0" result="BackgroundImageFix"/><feColorMatrix in="SourceAlpha" values="0 0 0 0 0 0 0 0 0 0 0 0 0 0 0 0 0 0 127 0" result="hardAlpha"/><feOffset dy="2.63"/><feGaussianBlur stdDeviation="1.05"/><feColorMatrix values="0 0 0 0 0 0 0 0 0 0 0 0 0 0 0 0 0 0 0.0337375 0"/><feBlend in2="BackgroundImageFix" result="effect1_dropShadow_12054_149939"/><feColorMatrix in="SourceAlpha" values="0 0 0 0 0 0 0 0 0 0 0 0 0 0 0 0 0 0 127 0" result="hardAlpha"/><feOffset dy="6.32"/><feGaussianBlur stdDeviation="2.53"/><feColorMatrix values="0 0 0 0 0 0 0 0 0 0 0 0 0 0 0 0 0 0 0.0484671 0"/><feBlend in2="effect1_dropShadow_12054_149939" result="effect2_dropShadow_12054_149939"/><feColorMatrix in="SourceAlpha" values="0 0 0 0 0 0 0 0 0 0 0 0 0 0 0 0 0 0 127 0" result="hardAlpha"/><feOffset dy="11.9"/><feGaussianBlur stdDeviation="4.76"/><feColorMatrix values="0 0 0 0 0 0 0 0 0 0 0 0 0 0 0 0 0 0 0.06 0"/><feBlend in2="effect2_dropShadow_12054_149939" result="effect3_dropShadow_12054_149939"/><feColorMatrix in="SourceAlpha" values="0 0 0 0 0 0 0 0 0 0 0 0 0 0 0 0 0 0 127 0" result="hardAlpha"/><feOffset dy="21.24"/><feGaussianBlur stdDeviation="8.49"/><feColorMatrix values="0 0 0 0 0 0 0 0 0 0 0 0 0 0 0 0 0 0 0.0715329 0"/><feBlend in2="effect3_dropShadow_12054_149939" result="effect4_dropShadow_12054_149939"/><feColorMatrix in="SourceAlpha" values="0 0 0 0 0 0 0 0 0 0 0 0 0 0 0 0 0 0 127 0" result="hardAlpha"/><feOffset dy="39.72"/><feGaussianBlur stdDeviation="15.89"/><feColorMatrix values="0 0 0 0 0 0 0 0 0 0 0 0 0 0 0 0 0 0 0.0862625 0"/><feBlend in2="effect4_dropShadow_12054_149939" result="effect5_dropShadow_12054_149939"/><feColorMatrix in="SourceAlpha" values="0 0 0 0 0 0 0 0 0 0 0 0 0 0 0 0 0 0 127 0" result="hardAlpha"/><feOffset dy="95.07"/><feGaussianBlur stdDeviation="38.03"/><feColorMatrix values="0 0 0 0 0 0 0 0 0 0 0 0 0 0 0 0 0 0 0.12 0"/><feBlend in2="effect5_dropShadow_12054_149939" result="effect6_dropShadow_12054_149939"/><feBlend in="SourceGraphic" in2="effect6_dropShadow_12054_149939" result="shape"/></filter><filter id="h" x="72.41" y="63" width="317.19" height="180.6" filterUnits="userSpaceOnUse" color-interpolation-filters="sRGB"><feFlood flood-opacity="0" result="BackgroundImageFix"/><feColorMatrix in="SourceAlpha" values="0 0 0 0 0 0 0 0 0 0 0 0 0 0 0 0 0 0 127 0" result="hardAlpha"/><feOffset dy="1.61"/><feGaussianBlur stdDeviation=".64"/><feColorMatrix values="0 0 0 0 0 0 0 0 0 0 0 0 0 0 0 0 0 0 0.0196802 0"/><feBlend in2="BackgroundImageFix" result="effect1_dropShadow_12054_149939"/><feColorMatrix in="SourceAlpha" values="0 0 0 0 0 0 0 0 0 0 0 0 0 0 0 0 0 0 127 0" result="hardAlpha"/><feOffset dy="3.87"/><feGaussianBlur stdDeviation="1.55"/><feColorMatrix values="0 0 0 0 0 0 0 0 0 0 0 0 0 0 0 0 0 0 0.0282725 0"/><feBlend in2="effect1_dropShadow_12054_149939" result="effect2_dropShadow_12054_149939"/><feColorMatrix in="SourceAlpha" values="0 0 0 0 0 0 0 0 0 0 0 0 0 0 0 0 0 0 127 0" result="hardAlpha"/><feOffset dy="7.29"/><feGaussianBlur stdDeviation="2.92"/><feColorMatrix values="0 0 0 0 0 0 0 0 0 0 0 0 0 0 0 0 0 0 0.035 0"/><feBlend in2="effect2_dropShadow_12054_149939" result="effect3_dropShadow_12054_149939"/><feColorMatrix in="SourceAlpha" values="0 0 0 0 0 0 0 0 0 0 0 0 0 0 0 0 0 0 127 0" result="hardAlpha"/><feOffset dy="13.01"/><feGaussianBlur stdDeviation="5.2"/><feColorMatrix values="0 0 0 0 0 0 0 0 0 0 0 0 0 0 0 0 0 0 0.0417275 0"/><feBlend in2="effect3_dropShadow_12054_149939" result="effect4_dropShadow_12054_149939"/><feColorMatrix in="SourceAlpha" values="0 0 0 0 0 0 0 0 0 0 0 0 0 0 0 0 0 0 127 0" result="hardAlpha"/><feOffset dy="24.33"/><feGaussianBlur stdDeviation="9.73"/><feColorMatrix values="0 0 0 0 0 0 0 0 0 0 0 0 0 0 0 0 0 0 0.0503198 0"/><feBlend in2="effect4_dropShadow_12054_149939" result="effect5_dropShadow_12054_149939"/><feColorMatrix in="SourceAlpha" values="0 0 0 0 0 0 0 0 0 0 0 0 0 0 0 0 0 0 127 0" result="hardAlpha"/><feOffset dy="58.24"/><feGaussianBlur stdDeviation="23.3"/><feColorMatrix values="0 0 0 0 0 0 0 0 0 0 0 0 0 0 0 0 0 0 0.07 0"/><feBlend in2="effect5_dropShadow_12054_149939" result="effect6_dropShadow_12054_149939"/><feBlend in="SourceGraphic" in2="effect6_dropShadow_12054_149939" result="shape"/></filter><filter id="j" x="275.31" y="123.49" width="25.59" height="29.28" filterUnits="userSpaceOnUse" color-interpolation-filters="sRGB"><feFlood flood-opacity="0" result="BackgroundImageFix"/><feColorMatrix in="SourceAlpha" values="0 0 0 0 0 0 0 0 0 0 0 0 0 0 0 0 0 0 127 0" result="hardAlpha"/><feOffset dy="1.17"/><feGaussianBlur stdDeviation="1.76"/><feColorMatrix values="0 0 0 0 0 0 0 0 0 0 0 0 0 0 0 0 0 0 0.2 0"/><feBlend in2="BackgroundImageFix" result="effect1_dropShadow_12054_149939"/><feBlend in="SourceGraphic" in2="effect1_dropShadow_12054_149939" result="shape"/></filter></defs></svg>