<svg width="126" height="126" fill="none" xmlns="http://www.w3.org/2000/svg"><circle opacity=".05" cx="63" cy="63" r="50" fill="#00CB82"/><circle opacity=".1" cx="63" cy="63" r="55.36" stroke="#00CB82" stroke-width="1.281"/><circle opacity=".1" cx="63" cy="63" r="37" fill="#00CB82"/><path fill-rule="evenodd" clip-rule="evenodd" d="M59.786 47.5c-6.8 0-12.286 5.692-12.286 12.679 0 6.986 5.485 12.678 12.286 12.678 2.827 0 5.43-.986 7.504-2.64l8.522 8.806a1.547 1.547 0 0 0 2.234 0 1.633 1.633 0 0 0 0-2.26l-8.542-8.827a12.887 12.887 0 0 0 2.567-7.757c0-6.987-5.485-12.679-12.285-12.679Zm-9.143 12.679c0-5.243 4.109-9.465 9.143-9.465 5.034 0 9.143 4.222 9.143 9.465 0 5.242-4.11 9.464-9.143 9.464-5.034 0-9.143-4.222-9.143-9.464Z" fill="#26D395"/><circle cx="57" cy="58" r="2" fill="#26D395"/><circle cx="63" cy="58" r="2" fill="#26D395"/><rect x="55" y="62" width="10" height="3" rx="1.5" fill="#26D395"/></svg>