<svg width="112" height="112" fill="none" xmlns="http://www.w3.org/2000/svg"><circle opacity=".15" cx="56" cy="56" r="37" fill="#E37A74"/><circle opacity=".1" cx="56" cy="56" r="55.36" stroke="#E37A74" stroke-width="1.281"/><circle opacity=".15" cx="56" cy="56" r="50" fill="#F88A83"/><path fill-rule="evenodd" clip-rule="evenodd" d="M56 73.778c9.818 0 17.778-7.96 17.778-17.778 0-9.818-7.96-17.778-17.778-17.778-9.818 0-17.778 7.96-17.778 17.778 0 9.818 7.96 17.778 17.778 17.778zm9.966-23.143l-1.572-1.57-10.998 10.997-4.714-4.713-1.57 1.571 6.283 6.286 12.57-12.57z" fill="#26D395"/><circle cx="56.001" cy="56" r="17.962" fill="#EF7564"/><path d="M56 46.49v13.736M56 63.396v3.17" stroke="#fff" stroke-width="3"/></svg>