<svg width="65" height="64" fill="none" xmlns="http://www.w3.org/2000/svg"><path d="M30.638 40.166l2.615-3.415-5.745-5.133 1.351-3.943-2.758-4.141.669-3.273-2.619-3.628-.805-2.86L1.968 19.73a1.7 1.7 0 00-1.183 2.104l7.587 26.848a1.716 1.716 0 002.115 1.181l21.225-5.913-1.074-3.785z" fill="#FFC267"/><path d="M26.096 23.543l.68-3.285-1.248-1.739-23.81 6.642 2.241 7.916 24.023-6.716-1.886-2.818z" fill="#DA9A3C"/><path d="M33.728 45.658l22.5 5.051c.917.201 1.834-.38 2.03-1.308l5.944-27.594c.195-.927-.383-1.858-1.3-2.059l-22.351-5.014-.633 2.946.59 4.48-2.127 2.611.48 5.003-3.049 2.875 2.646 7.312-3.903 1.81-.827 3.887z" fill="#FFC267"/><path d="M40.506 22.155l-2.129 2.613.336 3.488 23 5.11 1.7-7.914-23.168-5.293.261 1.996z" fill="#DA9A3C"/><path d="M10.607 43.01l9.253-2.644.43 1.504-9.253 2.644-.43-1.503zM9.895 40.468l14.61-4.176.43 1.503-14.61 4.176-.43-1.503z" fill="#fff" fill-opacity=".5"/></svg>
