<svg width="364" height="416" fill="none" xmlns="http://www.w3.org/2000/svg"><g clip-path="url(#a)"><path d="M29 134.96c0-3.22 2.6-5.83 5.82-5.83h295.13c3.22 0 5.82 2.61 5.82 5.83v192.22c0 3.21-2.6 5.82-5.82 5.82H34.82a5.82 5.82 0 0 1-5.82-5.82V134.96Z" fill="#fff"/><path fill="#EBEBEB" d="M29 225.24h296.1v.97H29z"/><path d="M45.87 150.13v.64h-4.49v-.46l2.79-4.3h.64l-.7 1.24-1.83 2.88h3.6Zm-.86-4.13v6.22h-.8V146h.8Zm2.45-.34v6.56h-.79v-6.56h.8Zm-.18 4.07-.33-.01c0-.32.05-.6.14-.87.09-.28.22-.5.38-.7a1.7 1.7 0 0 1 1.35-.64c.23 0 .44.04.62.1.18.06.34.15.46.29.13.13.23.3.3.52.07.2.1.47.1.77v3.03h-.79v-3.04c0-.24-.03-.43-.1-.58a.66.66 0 0 0-.32-.32c-.13-.07-.3-.1-.5-.1a1.16 1.16 0 0 0-.95.47 1.71 1.71 0 0 0-.36 1.08ZM45.74 184.86v.65h-4.06v-.57l2.03-2.26c.25-.28.45-.52.58-.7.14-.2.24-.38.3-.53.05-.16.08-.32.08-.48 0-.2-.04-.4-.13-.56a.95.95 0 0 0-.37-.4 1.1 1.1 0 0 0-.58-.15c-.28 0-.51.06-.7.16a1 1 0 0 0-.4.45c-.1.19-.14.4-.14.66h-.8c0-.35.09-.67.24-.96.15-.3.38-.52.68-.7.3-.17.67-.25 1.12-.25.39 0 .72.06 1 .2s.5.33.64.58a1.75 1.75 0 0 1 .13 1.43 4.44 4.44 0 0 1-.62 1.1 8.7 8.7 0 0 1-.45.53l-1.66 1.8h3.11Zm1.72-5.9v6.55h-.79v-6.55h.8Zm-.18 4.07-.33-.01c0-.32.05-.61.14-.88.09-.27.22-.5.38-.7a1.7 1.7 0 0 1 1.35-.63c.23 0 .44.03.62.1.18.05.34.15.46.28.13.14.23.31.3.53.07.2.1.46.1.77v3.02h-.79v-3.03c0-.24-.03-.44-.1-.58a.66.66 0 0 0-.32-.32c-.13-.07-.3-.1-.5-.1a1.16 1.16 0 0 0-.95.46 1.71 1.71 0 0 0-.36 1.09ZM45.57 215.2v.96c0 .5-.04.93-.13 1.28-.1.35-.22.63-.4.85a1.5 1.5 0 0 1-.61.46c-.24.1-.51.14-.81.14-.24 0-.46-.03-.67-.09a1.55 1.55 0 0 1-.95-.8 2.8 2.8 0 0 1-.26-.78 5.6 5.6 0 0 1-.1-1.06v-.95c0-.51.05-.94.15-1.28.09-.35.22-.62.4-.83.16-.21.37-.36.6-.45.25-.1.52-.14.82-.14.24 0 .46.03.66.1a1.5 1.5 0 0 1 .95.77c.12.21.2.46.26.77.06.3.1.65.1 1.06Zm-.79 1.08v-1.2c0-.28-.02-.53-.05-.74-.03-.21-.08-.4-.14-.54a1.08 1.08 0 0 0-.24-.37.85.85 0 0 0-.33-.2 1.2 1.2 0 0 0-.41-.07c-.2 0-.36.03-.5.1a.9.9 0 0 0-.37.33c-.1.15-.17.35-.22.6-.05.24-.08.54-.08.89v1.2c0 .28.02.53.05.74.03.21.08.4.15.56.06.15.14.28.24.38.1.1.2.17.32.22.13.04.26.06.42.06.19 0 .36-.03.5-.1a.92.92 0 0 0 .37-.35c.1-.16.17-.36.22-.61.05-.25.07-.55.07-.9Zm2.68-4.02v6.55h-.79v-6.55h.8Zm-.18 4.07-.33-.02c0-.31.05-.6.14-.87.09-.27.22-.5.38-.7a1.7 1.7 0 0 1 1.35-.63c.23 0 .44.03.62.1.18.05.34.15.46.28.13.13.23.3.3.52.07.21.1.47.1.77v3.03h-.79v-3.03c0-.25-.03-.44-.1-.59a.66.66 0 0 0-.32-.31c-.13-.07-.3-.1-.5-.1a1.17 1.17 0 0 0-.95.46 1.71 1.71 0 0 0-.36 1.09Z" fill="#8B8E93"/><path fill="#EBEBEB" d="M29 158.26h306.77v.58H29zM29 191.26h306.77v.58H29z"/><path fill="#2895F8" d="M62.98 101.95h53.39v124.26H62.98z"/><path d="M147.19 175.4v.66h-4.07v-.57l2.04-2.27c.25-.28.44-.51.58-.7.14-.2.23-.38.29-.53.06-.16.08-.32.08-.48 0-.2-.04-.39-.13-.55a.95.95 0 0 0-.36-.4 1.1 1.1 0 0 0-.59-.15c-.28 0-.5.05-.7.16a1 1 0 0 0-.4.44c-.1.2-.14.41-.14.66H143c0-.35.08-.67.23-.96.16-.3.39-.52.69-.7.3-.17.67-.25 1.11-.25.4 0 .73.07 1 .2.28.14.5.34.65.59.15.24.22.53.22.87 0 .18-.03.36-.1.55-.05.19-.14.37-.24.56a9.04 9.04 0 0 1-.82 1.08l-1.67 1.8h3.12Zm1.72-5.9v6.56h-.8v-6.56h.8Zm-.19 4.07-.33-.01c0-.32.05-.6.14-.88.1-.27.22-.5.39-.7a1.7 1.7 0 0 1 1.35-.63c.23 0 .43.03.61.1.19.06.34.15.47.29.13.13.23.3.3.52.06.2.1.47.1.77v3.03h-.8v-3.04c0-.24-.03-.43-.1-.58a.66.66 0 0 0-.31-.32c-.14-.07-.3-.1-.5-.1a1.16 1.16 0 0 0-.96.46 1.72 1.72 0 0 0-.36 1.1Zm10.36 1.84v.65h-4.06v-.57l2.03-2.27c.25-.28.44-.51.58-.7.14-.2.24-.38.3-.53.05-.16.08-.32.08-.48 0-.2-.04-.39-.13-.55a.95.95 0 0 0-.37-.4 1.1 1.1 0 0 0-.59-.15c-.27 0-.5.05-.69.16a1 1 0 0 0-.4.44c-.1.2-.14.41-.14.66h-.8c0-.35.08-.67.24-.96.15-.3.38-.52.68-.7.3-.17.67-.25 1.11-.25.4 0 .73.07 1.01.2.28.14.5.34.64.59a1.77 1.77 0 0 1 .13 1.43 4.43 4.43 0 0 1-.62 1.1l-.45.52-1.66 1.8h3.11Zm4.75-2.96v.95c0 .51-.05.94-.14 1.29-.1.35-.22.63-.4.84-.16.22-.37.37-.61.47-.24.1-.51.14-.81.14-.24 0-.46-.03-.66-.09s-.39-.16-.55-.29c-.16-.13-.3-.3-.4-.52-.12-.2-.2-.47-.27-.77-.06-.3-.09-.66-.09-1.07v-.95c0-.5.05-.93.14-1.28.1-.34.22-.62.4-.82.17-.21.37-.36.6-.46.25-.09.52-.13.82-.13.24 0 .46.03.66.09a1.5 1.5 0 0 1 .96.78c.11.2.2.46.26.76s.09.66.09 1.06Zm-.8 1.08v-1.2c0-.29-.01-.53-.05-.74-.03-.22-.08-.4-.14-.55a1.08 1.08 0 0 0-.24-.36.85.85 0 0 0-.33-.21 1.2 1.2 0 0 0-.41-.07c-.19 0-.35.04-.5.1a.89.89 0 0 0-.37.34c-.1.15-.17.35-.22.59-.05.25-.08.54-.08.9v1.2c0 .28.02.52.05.74.04.21.09.4.15.55.07.16.15.28.24.38.1.1.2.18.32.22.13.05.27.07.42.07.2 0 .36-.03.5-.1a.92.92 0 0 0 .37-.35c.1-.16.17-.37.22-.61.05-.25.07-.55.07-.9Zm2.68-1.17v3.7h-.8v-4.62h.76l.04.92Zm-.16 1.21-.37-.01c0-.32.05-.6.13-.88.08-.27.2-.5.35-.7.16-.2.35-.35.59-.46.23-.11.5-.17.8-.17.22 0 .42.03.6.1a1.21 1.21 0 0 1 .79.79c.07.2.1.45.1.74v3.08h-.78v-3.04c0-.25-.04-.44-.12-.58a.7.7 0 0 0-.34-.32c-.15-.07-.33-.1-.53-.1-.23 0-.42.04-.58.12a.98.98 0 0 0-.38.34c-.09.15-.16.31-.2.5-.04.19-.06.38-.06.6Zm3-.43-.54.16c0-.25.05-.5.13-.73a2 2 0 0 1 .35-.62c.16-.19.35-.33.57-.44.23-.1.5-.16.79-.16.24 0 .46.04.65.1.2.07.36.17.49.3.13.14.23.31.3.52.07.21.1.46.1.75v3.03h-.79v-3.04c0-.26-.04-.46-.12-.6a.65.65 0 0 0-.34-.3 1.38 1.38 0 0 0-.98 0 1.07 1.07 0 0 0-.55.6 1.3 1.3 0 0 0-.07.43ZM282.96 186.09v.64h-4.07v-.56l2.04-2.27c.25-.28.44-.51.58-.7.14-.2.23-.38.29-.53.05-.16.08-.32.08-.48 0-.2-.04-.39-.13-.56a.96.96 0 0 0-.36-.4c-.16-.1-.36-.14-.6-.14-.27 0-.5.05-.68.16a1 1 0 0 0-.41.44c-.1.2-.14.41-.14.66h-.79c0-.35.08-.67.23-.96.16-.3.38-.52.69-.7.3-.17.67-.25 1.1-.25.4 0 .74.07 1.02.2.27.14.49.34.64.59.15.24.22.53.22.87 0 .18-.03.36-.1.55-.05.19-.14.37-.24.56a8.05 8.05 0 0 1-.82 1.07l-1.67 1.8h3.12Zm1.72-5.91v6.55h-.8v-6.55h.8Zm-.2 4.07-.32-.01c0-.32.05-.61.14-.88.1-.27.22-.5.39-.7a1.71 1.71 0 0 1 1.35-.63c.23 0 .43.03.61.1.18.06.34.15.47.29.13.13.23.3.3.52.06.2.1.46.1.77v3.02h-.8v-3.03c0-.24-.03-.44-.1-.58a.65.65 0 0 0-.31-.32c-.14-.07-.3-.1-.5-.1a1.17 1.17 0 0 0-.96.46 1.72 1.72 0 0 0-.36 1.09Zm10.2-1.12v.95c0 .5-.04.94-.13 1.29-.1.35-.23.63-.4.84a1.5 1.5 0 0 1-.62.47c-.23.1-.5.14-.8.14-.25 0-.47-.03-.67-.1-.2-.05-.38-.15-.54-.28-.16-.13-.3-.3-.41-.52-.12-.21-.2-.47-.26-.77-.06-.3-.1-.66-.1-1.07v-.95c0-.5.05-.93.14-1.28.1-.34.23-.62.4-.82.17-.22.38-.37.61-.46.25-.09.52-.13.81-.13.25 0 .47.03.67.09a1.5 1.5 0 0 1 .95.78c.12.2.2.46.26.76s.1.66.1 1.06Zm-.8 1.08V183c0-.28 0-.52-.04-.73-.03-.22-.08-.4-.14-.55a1.08 1.08 0 0 0-.24-.37.84.84 0 0 0-.33-.2 1.17 1.17 0 0 0-.42-.07c-.18 0-.35.04-.5.1a.9.9 0 0 0-.36.34c-.1.15-.17.34-.22.59-.05.24-.08.54-.08.89v1.2c0 .29.02.53.05.75.03.2.08.4.15.55.06.15.14.28.24.38.09.1.2.17.32.22.12.05.26.07.41.07.2 0 .37-.04.51-.11a.91.91 0 0 0 .36-.35c.1-.16.18-.36.23-.6.04-.26.07-.56.07-.9Zm5.72-1.08v.95c0 .5-.05.94-.14 1.29-.1.35-.22.63-.4.84a1.5 1.5 0 0 1-.61.47c-.24.1-.51.14-.81.14-.24 0-.46-.03-.66-.1-.2-.05-.39-.15-.55-.28-.16-.13-.3-.3-.4-.52-.12-.21-.21-.47-.27-.77-.06-.3-.09-.66-.09-1.07v-.95c0-.5.05-.93.14-1.28.1-.34.22-.62.4-.82.17-.22.37-.37.6-.46.25-.09.52-.13.82-.13.24 0 .46.03.67.09a1.5 1.5 0 0 1 .95.78c.11.2.2.46.26.76s.09.66.09 1.06Zm-.8 1.08V183a4.63 4.63 0 0 0-.19-1.28 1.1 1.1 0 0 0-.24-.37.85.85 0 0 0-.33-.2 1.17 1.17 0 0 0-.41-.07c-.19 0-.36.04-.5.1a.9.9 0 0 0-.37.34c-.1.15-.17.34-.22.59-.05.24-.08.54-.08.89v1.2c0 .29.02.53.05.75.04.2.09.4.15.55.07.15.15.28.24.38.1.1.2.17.32.22.13.05.27.07.42.07.2 0 .36-.04.5-.11a.92.92 0 0 0 .37-.35c.1-.16.17-.36.22-.6.05-.26.07-.56.07-.9Zm2.68-1.18v3.7h-.8v-4.61h.76l.04.91Zm-.16 1.22-.37-.01c0-.32.05-.61.13-.88s.2-.5.35-.7c.16-.2.35-.35.58-.46.24-.11.5-.17.82-.17.21 0 .41.03.6.1a1.2 1.2 0 0 1 .78.78c.07.21.1.46.1.75v3.07h-.78v-3.03c0-.25-.04-.44-.12-.58a.7.7 0 0 0-.35-.32c-.14-.07-.32-.1-.52-.1-.23 0-.42.04-.58.12a1 1 0 0 0-.38.34c-.09.15-.16.31-.2.5-.04.19-.06.38-.06.59Zm2.99-.44-.53.17c0-.26.05-.5.13-.73.08-.24.2-.44.35-.63.16-.18.35-.32.57-.43.23-.1.5-.16.79-.16.24 0 .46.03.65.1a1.2 1.2 0 0 1 .8.82c.06.21.1.46.1.75v3.03h-.8v-3.04c0-.26-.04-.46-.12-.6a.65.65 0 0 0-.34-.3 1.36 1.36 0 0 0-.53-.1c-.17 0-.32.04-.45.1a.94.94 0 0 0-.34.25c-.1.1-.16.22-.21.35-.05.13-.07.28-.07.43Z" fill="#8B8E93"/><path fill="#2895F8" d="M130.93 180.59h53.39v45.63h-53.39zM266.85 191.27h53.39v34.95h-53.39z"/><path fill="#0060B8" d="M198.9 226.07h53.7V92.35h-53.7z"/><path d="m213.22 240.1 1.23-4.82h.65l-.07 1.24-1.32 4.97h-.68l.19-1.4Zm-.93-4.82 1 4.78.1 1.43h-.72l-1.44-6.21h1.06Zm4.22 4.76.99-4.76h1.06l-1.44 6.2h-.71l.1-1.44Zm-1.16-4.76 1.23 4.83.18 1.38h-.68l-1.3-4.97-.07-1.24h.64Zm5.95 6.3c-.34 0-.65-.06-.92-.17a2.03 2.03 0 0 1-1.14-1.19 2.5 2.5 0 0 1-.16-.88v-.17c0-.36.05-.69.16-.98.1-.3.25-.55.44-.75.19-.21.41-.38.67-.49.25-.1.53-.16.83-.16.33 0 .62.05.86.16.25.12.46.27.62.47.16.2.28.44.37.72.08.27.12.58.12.9v.45h-3.57v-.74h2.55v-.08c0-.19-.04-.36-.1-.52a.88.88 0 0 0-.31-.4.9.9 0 0 0-.55-.14.9.9 0 0 0-.78.42c-.09.14-.16.3-.2.5-.05.19-.07.4-.07.64v.17c0 .2.02.39.08.56a1.18 1.18 0 0 0 .64.75 1.42 1.42 0 0 0 1.69-.47l.54.53a1.95 1.95 0 0 1-.97.74c-.23.08-.5.13-.8.13Zm5.62-1.05v-5.6h1.03v6.56H227l-.1-.96Zm-3-1.3v-.09c0-.35.03-.67.12-.95.08-.3.2-.54.35-.75a1.66 1.66 0 0 1 1.33-.65c.28 0 .53.05.74.16.21.1.39.26.54.47.15.2.26.43.35.71.09.28.15.59.19.92v.29c-.04.33-.1.63-.19.9-.09.28-.2.51-.35.71a1.53 1.53 0 0 1-1.28.63 1.62 1.62 0 0 1-1.33-.67 2.33 2.33 0 0 1-.35-.74 3.4 3.4 0 0 1-.13-.94Zm1.02-.09v.1c0 .2.02.4.06.58.04.18.1.34.18.48.08.14.19.25.32.33.13.07.3.11.48.11a1 1 0 0 0 .57-.15c.15-.1.27-.24.36-.41.09-.18.15-.38.18-.6v-.77a1.89 1.89 0 0 0-.11-.47 1.26 1.26 0 0 0-.2-.38.88.88 0 0 0-.34-.25c-.13-.06-.28-.1-.45-.1a.9.9 0 0 0-.48.13.97.97 0 0 0-.33.32c-.08.14-.14.3-.18.49a2.8 2.8 0 0 0-.06.6Zm9.3-3.88v6.23h-1.02v-5.01l-1.53.51v-.85l2.43-.88h.13Zm5.12 0v6.23h-1.03v-5.01l-1.52.51v-.85l2.43-.88h.12Z" fill="#181818"/><rect x="279.47" y="235.63" width="28.46" height="6.8" rx="3.4" fill="#E7E7E7"/><rect x="143.56" y="235.63" width="28.46" height="6.8" rx="3.4" fill="#E7E7E7"/><rect x="75.6" y="235.63" width="28.46" height="6.8" rx="3.4" fill="#E7E7E7"/><path d="M46 283.9v4.62h-.8v-4.61h.8Zm-.86-1.22c0-.13.04-.23.11-.32.08-.09.2-.13.35-.13.15 0 .27.04.35.13.08.09.12.2.12.32 0 .13-.04.23-.12.32-.08.08-.2.13-.35.13-.15 0-.27-.05-.35-.13a.47.47 0 0 1-.11-.32Zm7.02 2.54v.4c0 .46-.06.88-.17 1.25a2.7 2.7 0 0 1-.5.94c-.23.26-.49.46-.8.6-.3.13-.64.2-1.02.2a2.28 2.28 0 0 1-1.8-.8c-.23-.26-.4-.57-.52-.94a3.99 3.99 0 0 1-.18-1.26v-.39c0-.47.06-.88.17-1.25.13-.37.3-.68.52-.94.22-.26.49-.46.79-.6.3-.13.64-.2 1.01-.2.38 0 .72.06 1.03.2.3.14.57.34.78.6.23.26.4.57.51.94.12.37.18.78.18 1.25Zm-.81.4v-.4c0-.38-.04-.7-.12-.99a2.03 2.03 0 0 0-.33-.72c-.14-.19-.32-.33-.53-.44-.2-.1-.44-.14-.7-.14-.26 0-.5.05-.7.14-.2.1-.39.25-.53.44-.15.2-.26.44-.34.72-.08.29-.12.61-.12.98v.4c0 .38.04.7.12 1 .08.28.2.52.34.71a1.5 1.5 0 0 0 1.23.6c.27 0 .5-.06.71-.16.21-.1.38-.24.53-.44.14-.2.25-.43.33-.72a4 4 0 0 0 .1-.99Zm5.35 1.33a1 1 0 0 0-.06-.38.73.73 0 0 0-.23-.3c-.11-.1-.26-.19-.46-.27-.19-.08-.43-.16-.72-.25-.3-.1-.59-.2-.83-.3a2.88 2.88 0 0 1-.64-.4 1.42 1.42 0 0 1-.55-1.14 1.51 1.51 0 0 1 .58-1.2c.19-.15.41-.27.67-.36.26-.08.55-.12.87-.12.46 0 .86.09 1.18.26.33.18.58.41.75.7.17.29.26.59.26.91h-.82c0-.23-.05-.44-.15-.62-.1-.18-.25-.32-.46-.42-.2-.1-.45-.16-.76-.16-.3 0-.54.05-.73.13-.19.1-.33.21-.43.36a.98.98 0 0 0-.13.52c0 .13.03.25.08.36.06.1.14.2.26.29.12.1.27.18.45.25.19.08.4.15.66.22.36.1.66.21.92.34.25.12.46.26.63.41.17.15.29.32.37.52.08.19.12.4.12.64 0 .26-.05.49-.15.7-.1.2-.25.37-.44.52-.2.14-.42.25-.69.33a3.2 3.2 0 0 1-1.73 0c-.28-.08-.53-.2-.76-.36a1.63 1.63 0 0 1-.74-1.4h.82c0 .2.04.39.12.54.08.15.2.28.34.38.14.1.3.17.49.22a2.43 2.43 0 0 0 1.3-.05c.2-.08.35-.2.46-.34.1-.15.15-.33.15-.53Zm4.05-4.64h2.06c.46 0 .86.07 1.18.21.32.15.57.36.74.64.17.27.25.61.25 1.02a1.66 1.66 0 0 1-.67 1.38 2.2 2.2 0 0 1-.77.36l-.23.09h-1.93v-.67h1.45c.3 0 .54-.05.74-.16.2-.1.34-.24.44-.42a1.33 1.33 0 0 0 0-1.21.94.94 0 0 0-.43-.42c-.2-.1-.46-.14-.77-.14h-1.24v5.53h-.82v-6.2Zm3.63 6.21-1.51-2.81h.86l1.53 2.76v.05h-.88Zm3.55.09a1.99 1.99 0 0 1-1.97-1.34 2.6 2.6 0 0 1-.15-.9v-.17c0-.38.05-.71.17-1 .1-.3.26-.55.45-.75a1.93 1.93 0 0 1 2.25-.46c.24.12.44.28.6.48.15.2.26.44.33.72.08.27.12.57.12.9v.35h-3.45v-.65h2.66v-.06c-.02-.2-.06-.4-.13-.6-.07-.19-.19-.35-.34-.47a1 1 0 0 0-.64-.19 1.07 1.07 0 0 0-.89.45c-.1.15-.19.33-.25.54-.06.21-.09.46-.09.74v.18c0 .22.03.42.1.62a1.3 1.3 0 0 0 .7.85c.16.07.36.11.57.11.28 0 .52-.05.71-.17.2-.11.36-.26.5-.45l.49.38c-.1.15-.23.3-.38.43-.16.14-.35.25-.57.33a2.2 2.2 0 0 1-.8.13Zm3.5-3.79v3.7h-.8v-4.61h.76l.04.91Zm-.16 1.22-.37-.01c0-.32.05-.61.13-.88s.2-.5.35-.7c.16-.2.35-.35.59-.46.23-.11.5-.17.8-.17.22 0 .42.03.6.1a1.2 1.2 0 0 1 .79.78c.07.21.1.46.1.75v3.07h-.78v-3.03c0-.25-.04-.44-.12-.58a.7.7 0 0 0-.35-.32c-.14-.07-.32-.1-.52-.1-.23 0-.42.04-.58.12a1 1 0 0 0-.38.34c-.09.15-.16.31-.2.5a2.8 2.8 0 0 0-.06.59Zm2.99-.44-.53.17c0-.26.05-.5.12-.73.09-.24.2-.44.36-.63a1.8 1.8 0 0 1 1.36-.6c.24.01.46.05.65.11.2.07.36.17.49.3.13.14.23.3.3.52.07.21.1.46.1.75v3.03h-.79v-3.04c0-.26-.04-.46-.12-.6a.65.65 0 0 0-.34-.3 1.36 1.36 0 0 0-.52-.1c-.18 0-.33.04-.47.1a.95.95 0 0 0-.33.25c-.1.1-.16.22-.21.35-.05.13-.07.27-.07.43Zm4.9-1.7v4.62h-.79v-4.61h.8Zm-.85-1.22c0-.13.04-.23.12-.32.08-.09.2-.13.35-.13.15 0 .26.04.34.13.09.09.13.2.13.32 0 .13-.04.23-.13.32-.08.08-.2.13-.34.13-.16 0-.27-.05-.35-.13a.47.47 0 0 1-.12-.32Zm2.91 2.21v3.63h-.79v-4.61h.75l.04.98Zm-.19 1.15-.32-.01c0-.32.05-.61.14-.88.09-.27.22-.5.38-.7a1.72 1.72 0 0 1 1.35-.63c.23 0 .44.03.62.1.18.06.33.15.46.29.13.13.23.3.3.52.07.2.1.46.1.77v3.02h-.79v-3.03c0-.24-.04-.44-.1-.58a.65.65 0 0 0-.32-.32c-.13-.07-.3-.1-.5-.1a1.17 1.17 0 0 0-.95.46 1.71 1.71 0 0 0-.37 1.09Zm7.14 1.59v-5.66h.8v6.55h-.73l-.07-.9Zm-3.1-1.36v-.1c0-.35.04-.67.12-.95.1-.3.22-.54.38-.75a1.64 1.64 0 0 1 1.33-.65c.28 0 .54.05.75.16.22.1.4.24.56.44.15.19.27.42.36.69.09.27.15.57.18.91v.4c-.03.33-.09.64-.18.9-.09.28-.21.5-.36.7-.15.2-.34.34-.56.44a1.83 1.83 0 0 1-1.5-.03 1.75 1.75 0 0 1-.58-.49 2.39 2.39 0 0 1-.38-.74c-.08-.29-.12-.6-.12-.93Zm.79-.1v.1c0 .23.02.44.07.65.05.2.12.38.22.53.1.15.23.27.38.36.15.09.34.13.55.13.26 0 .48-.06.64-.17.18-.1.31-.25.41-.44.1-.18.19-.38.24-.59v-1.03c-.03-.15-.08-.3-.15-.45a1.4 1.4 0 0 0-.24-.4 1.2 1.2 0 0 0-.89-.38c-.22 0-.4.05-.56.14a1.1 1.1 0 0 0-.38.37c-.1.15-.17.33-.22.54-.05.2-.07.42-.07.65Zm6.25 2.44a1.99 1.99 0 0 1-1.97-1.34 2.6 2.6 0 0 1-.15-.9v-.17c0-.38.06-.71.17-1 .1-.3.26-.55.45-.75a1.93 1.93 0 0 1 2.25-.46c.24.12.44.28.6.48.15.2.26.44.34.72.07.27.1.57.1.9v.35h-3.44v-.65h2.66v-.06c-.01-.2-.06-.4-.13-.6-.07-.19-.19-.35-.34-.47a1 1 0 0 0-.64-.19 1.07 1.07 0 0 0-.89.45c-.1.15-.19.33-.25.54-.06.21-.09.46-.09.74v.18c0 .22.03.42.1.62a1.3 1.3 0 0 0 .7.85c.16.07.36.11.57.11.28 0 .52-.05.71-.17.2-.11.36-.26.5-.45l.49.38c-.1.15-.23.3-.38.43-.16.14-.35.25-.57.33a2.2 2.2 0 0 1-.79.13Zm3.5-3.98v3.9h-.78v-4.62h.77l.02.72Zm1.45-.75v.74a1.9 1.9 0 0 0-.38-.03c-.2 0-.35.02-.5.08a1 1 0 0 0-.35.24c-.1.1-.17.22-.23.36-.05.14-.09.3-.1.46l-.22.13c0-.28.02-.54.08-.78.05-.25.14-.46.26-.65.11-.2.26-.34.44-.45a1.25 1.25 0 0 1 1-.1Zm3.42 3.42a.66.66 0 0 0-.08-.32.65.65 0 0 0-.3-.27 2.46 2.46 0 0 0-.69-.2 5.39 5.39 0 0 1-.7-.2c-.2-.07-.37-.16-.52-.27a1.03 1.03 0 0 1-.44-.87c0-.18.04-.35.12-.52.08-.16.2-.3.34-.43.16-.12.34-.22.55-.3.2-.06.44-.1.7-.1.37 0 .69.07.95.2s.46.3.6.52c.14.22.2.46.2.72h-.78a.67.67 0 0 0-.12-.37.85.85 0 0 0-.32-.3 1.06 1.06 0 0 0-.53-.12c-.22 0-.4.03-.53.1a.68.68 0 0 0-.3.25.63.63 0 0 0-.04.56.5.5 0 0 0 .16.18c.08.06.18.1.32.16.14.04.32.1.54.14.37.09.69.19.93.3.24.13.43.27.55.45.12.17.17.38.17.63a1.2 1.2 0 0 1-.48.99c-.16.12-.35.21-.57.28-.21.07-.46.1-.73.1-.4 0-.75-.07-1.03-.22a1.6 1.6 0 0 1-.64-.56 1.35 1.35 0 0 1-.22-.73h.8c0 .21.07.39.18.51.12.13.26.22.42.27a1.65 1.65 0 0 0 1.03 0 .75.75 0 0 0 .34-.24c.08-.1.12-.21.12-.34ZM197.99 287.88v.64h-4.06v-.56l2.03-2.27c.25-.28.44-.51.58-.7.14-.2.24-.38.29-.53.06-.16.08-.32.08-.48 0-.2-.04-.39-.12-.56a.96.96 0 0 0-.37-.4c-.16-.1-.36-.14-.59-.14-.27 0-.5.05-.69.16a1 1 0 0 0-.4.44c-.1.2-.15.41-.15.66h-.78c0-.35.07-.67.23-.96.15-.3.38-.52.68-.7.3-.17.67-.25 1.11-.25.4 0 .73.07 1 .2.29.14.5.33.65.59a1.77 1.77 0 0 1 .13 1.42 4.28 4.28 0 0 1-.62 1.1 8.1 8.1 0 0 1-.45.53l-1.66 1.8h3.11Zm4.75-2.96v.95c0 .5-.05.94-.14 1.29-.1.35-.22.63-.4.84a1.5 1.5 0 0 1-.61.47c-.24.1-.51.14-.81.14-.24 0-.46-.03-.66-.1-.2-.05-.39-.15-.55-.28-.16-.13-.3-.3-.41-.52-.11-.21-.2-.47-.26-.77-.06-.3-.09-.66-.09-1.07v-.95c0-.5.04-.93.14-1.28.09-.34.22-.62.4-.82.16-.21.37-.37.6-.46.25-.09.52-.13.82-.13.24 0 .46.03.66.09a1.5 1.5 0 0 1 .95.78c.12.2.2.46.27.76.06.3.09.66.09 1.06Zm-.8 1.08v-1.21c0-.28-.02-.52-.05-.73-.03-.22-.08-.4-.14-.55a1.08 1.08 0 0 0-.24-.37.85.85 0 0 0-.33-.2 1.18 1.18 0 0 0-.41-.07c-.19 0-.36.04-.5.1a.9.9 0 0 0-.37.34c-.1.15-.17.34-.22.59-.05.24-.08.54-.08.89v1.2c0 .29.02.53.05.75.03.2.08.4.15.55.06.15.14.28.24.38.1.1.2.17.32.22.13.05.27.07.42.07.19 0 .36-.04.5-.11a.92.92 0 0 0 .37-.35c.1-.15.17-.36.22-.6.05-.26.07-.55.07-.9Zm2.68-4.03v6.55h-.78v-6.55h.78Zm-.18 4.07-.33-.01c0-.32.05-.61.14-.88.09-.27.22-.5.38-.7a1.72 1.72 0 0 1 1.36-.63c.22 0 .43.03.61.1.18.06.34.15.47.29.13.13.22.3.3.52.06.2.1.46.1.77v3.02h-.8v-3.03c0-.24-.03-.44-.1-.58a.66.66 0 0 0-.32-.32c-.13-.07-.3-.1-.5-.1a1.17 1.17 0 0 0-.95.46 1.72 1.72 0 0 0-.36 1.09Zm10.19-1.12v.95c0 .5-.05.94-.14 1.29-.09.35-.22.63-.39.84a1.5 1.5 0 0 1-.62.47c-.24.1-.5.14-.8.14-.25 0-.47-.03-.67-.1-.2-.05-.38-.15-.55-.28-.16-.13-.3-.3-.4-.52-.12-.21-.2-.47-.27-.77-.06-.3-.09-.66-.09-1.07v-.95c0-.5.05-.93.14-1.28.1-.34.23-.62.4-.82.17-.21.37-.37.61-.46.24-.09.51-.13.81-.13.24 0 .47.03.67.09a1.52 1.52 0 0 1 .95.78c.11.2.2.46.26.76s.09.66.09 1.06Zm-.8 1.08v-1.21c0-.28-.01-.52-.05-.73-.03-.22-.07-.4-.14-.55a1.07 1.07 0 0 0-.24-.37.85.85 0 0 0-.32-.2 1.17 1.17 0 0 0-.42-.07c-.19 0-.35.04-.5.1a.9.9 0 0 0-.36.34c-.1.15-.18.34-.23.59-.05.24-.07.54-.07.89v1.2c0 .29.01.53.04.75.04.2.09.4.15.55.07.15.15.28.24.38.1.1.2.17.33.22.12.05.26.07.41.07.2 0 .36-.04.5-.11a.92.92 0 0 0 .37-.35c.1-.15.17-.36.22-.6.05-.26.08-.55.08-.9Zm5.71-1.08v.95c0 .5-.04.94-.13 1.29-.1.35-.22.63-.4.84a1.5 1.5 0 0 1-.61.47c-.24.1-.51.14-.81.14-.24 0-.46-.03-.67-.1-.2-.05-.38-.15-.54-.28-.16-.13-.3-.3-.41-.52-.12-.21-.2-.47-.26-.77-.06-.3-.1-.66-.1-1.07v-.95c0-.5.05-.93.14-1.28.1-.34.23-.62.4-.82.17-.21.38-.37.62-.46.24-.09.5-.13.8-.13.25 0 .47.03.67.09a1.5 1.5 0 0 1 .95.78c.12.2.2.46.26.76s.1.66.1 1.06Zm-.79 1.08v-1.21c0-.28-.02-.52-.05-.73-.03-.22-.08-.4-.14-.55a1.08 1.08 0 0 0-.24-.37.85.85 0 0 0-.33-.2 1.18 1.18 0 0 0-.41-.07c-.2 0-.36.04-.5.1a.9.9 0 0 0-.37.34c-.1.15-.17.34-.22.59-.05.24-.08.54-.08.89v1.2c0 .29.02.53.05.75.03.2.08.4.15.55.06.15.14.28.24.38.1.1.2.17.32.22.13.05.26.07.42.07.19 0 .36-.04.5-.11a.92.92 0 0 0 .37-.35c.1-.15.17-.36.22-.6.05-.26.07-.55.07-.9Zm2.68-1.18v3.7h-.8v-4.61h.76l.04.91Zm-.16 1.22-.37-.01c0-.32.04-.61.12-.88.08-.27.2-.5.36-.7.15-.2.35-.35.58-.46.24-.11.5-.17.81-.17.22 0 .42.03.6.1a1.21 1.21 0 0 1 .78.78c.08.21.12.46.12.75v3.07h-.8v-3.03c0-.25-.03-.44-.12-.58a.7.7 0 0 0-.34-.32c-.15-.07-.32-.1-.52-.1-.23 0-.43.04-.58.12a1 1 0 0 0-.38.34c-.1.15-.16.31-.2.5-.04.19-.06.38-.06.59Zm2.99-.44-.53.17a2 2 0 0 1 .48-1.35c.15-.19.34-.33.57-.44a2.03 2.03 0 0 1 1.44-.06c.2.07.36.17.49.3.13.14.23.3.3.52.07.21.1.46.1.75v3.03h-.8v-3.04c0-.26-.03-.46-.12-.6a.64.64 0 0 0-.34-.3 1.36 1.36 0 0 0-.52-.1c-.17 0-.32.04-.46.1a1.07 1.07 0 0 0-.55.6 1.3 1.3 0 0 0-.06.43ZM305.81 286.97h.08c.46 0 .83-.06 1.11-.19.29-.13.5-.3.66-.51.15-.22.26-.46.31-.73.06-.28.09-.56.09-.85v-.95c0-.28-.03-.53-.1-.75-.06-.22-.15-.4-.26-.55a1.17 1.17 0 0 0-.38-.33.93.93 0 0 0-.45-.12c-.19 0-.35.04-.5.11-.14.07-.26.17-.36.3-.1.14-.17.29-.22.47a2.06 2.06 0 0 0 .2 1.58c.1.14.21.25.35.33a1 1 0 0 0 .5.12c.18 0 .34-.03.5-.1a1.42 1.42 0 0 0 .83-1.18h.37c0 .23-.05.46-.14.7a2.15 2.15 0 0 1-.96 1.07 1.6 1.6 0 0 1-.73.17 1.61 1.61 0 0 1-1.35-.66c-.14-.2-.25-.42-.32-.66a2.79 2.79 0 0 1 .02-1.59c.08-.26.2-.48.37-.68.16-.2.36-.36.6-.47.24-.1.52-.16.84-.16.35 0 .65.07.9.21.25.14.46.33.61.57.16.24.28.51.35.8.08.3.11.62.11.93v.29c0 .32-.02.65-.06.98-.04.33-.12.64-.23.94a2.31 2.31 0 0 1-1.36 1.37c-.35.14-.78.21-1.3.21h-.08v-.67Zm5.13-2.3-.63-.15.3-3.1h3.2v.73h-2.52l-.19 1.7c.11-.07.26-.13.43-.2.18-.05.38-.08.6-.08.3 0 .55.05.78.15.23.1.42.24.58.42.16.18.29.4.37.66.09.25.13.54.13.85 0 .3-.04.58-.13.83a1.65 1.65 0 0 1-.98 1.09c-.24.1-.52.15-.86.15-.25 0-.48-.03-.71-.1a1.72 1.72 0 0 1-1.02-.86c-.11-.22-.18-.47-.2-.76h.74c.04.23.1.43.2.59a1 1 0 0 0 .4.36c.18.08.37.12.6.12.18 0 .35-.03.5-.1a1 1 0 0 0 .36-.28c.1-.12.17-.27.23-.44a1.96 1.96 0 0 0 0-1.13 1.25 1.25 0 0 0-.25-.44c-.1-.13-.23-.22-.39-.3-.15-.06-.33-.1-.53-.1-.26 0-.46.04-.6.1a2.3 2.3 0 0 0-.41.3Zm3.85-1.72v-.33c0-.24.05-.45.15-.65a1.2 1.2 0 0 1 1.12-.64c.27 0 .5.06.68.18.2.12.34.27.44.46.1.2.15.41.15.65v.33c0 .23-.05.44-.15.63-.1.2-.24.35-.44.47-.18.11-.4.17-.67.17s-.5-.06-.69-.17a1.2 1.2 0 0 1-.44-.47c-.1-.2-.15-.4-.15-.63Zm.59-.33v.33c0 .13.02.25.07.37.05.11.13.2.23.28.1.07.23.11.39.11.15 0 .28-.04.38-.1.1-.08.17-.18.22-.3a.94.94 0 0 0 .07-.36v-.33a.93.93 0 0 0-.08-.38.62.62 0 0 0-.6-.4.63.63 0 0 0-.6.4.98.98 0 0 0-.08.38Zm2.43 3.82v-.33c0-.23.05-.44.15-.64.1-.2.25-.35.44-.46.2-.12.42-.18.68-.18.27 0 .5.06.69.18.19.11.33.27.44.46.1.2.15.4.15.64v.33c0 .24-.05.45-.16.64-.1.2-.24.35-.43.47s-.41.17-.68.17a1.2 1.2 0 0 1-1.13-.64c-.1-.19-.15-.4-.15-.64Zm.6-.33v.33a1 1 0 0 0 .07.38c.05.12.13.21.23.29.1.07.23.1.38.1.16 0 .28-.03.38-.1.1-.08.18-.17.23-.29a.96.96 0 0 0 .07-.38v-.33a.93.93 0 0 0-.08-.37.63.63 0 0 0-.6-.4.63.63 0 0 0-.61.4.98.98 0 0 0-.08.37Zm.87-3.8-3.03 4.85-.45-.28 3.04-4.86.44.29Z" fill="#181818"/><rect x="131" y="281.88" width="26.31" height="6.8" rx="3.4" fill="#E7E7E7"/><rect x="249.37" y="282.52" width="50.48" height="6.8" rx="3.4" fill="#FF9100"/><rect x="249.37" y="282.52" width="39.8" height="6.8" rx="3.4" fill="#2979FF"/><path d="M50.04 310.46v.4c0 .46-.06.88-.18 1.25a2.7 2.7 0 0 1-.5.94c-.22.26-.48.46-.8.6-.3.13-.64.2-1.01.2s-.7-.07-1.02-.2c-.3-.14-.56-.34-.79-.6-.22-.26-.4-.57-.52-.94a3.98 3.98 0 0 1-.18-1.26v-.39c0-.46.06-.88.18-1.25s.3-.68.52-.94c.22-.26.48-.46.79-.6.3-.13.64-.2 1-.2.38 0 .73.06 1.03.2.3.14.57.34.79.6.22.26.4.57.5.94.13.37.19.79.19 1.25Zm-.82.4v-.4c0-.38-.04-.7-.11-.99a2.04 2.04 0 0 0-.33-.72c-.15-.19-.32-.33-.54-.43-.2-.1-.44-.15-.7-.15a1.47 1.47 0 0 0-1.22.59c-.15.19-.27.43-.34.71-.08.29-.12.61-.12.98v.4c0 .38.04.7.12 1 .07.28.19.52.34.71a1.5 1.5 0 0 0 1.23.6c.26 0 .5-.06.7-.16.22-.1.39-.24.53-.44.15-.2.26-.43.33-.72.07-.28.11-.61.11-.99Zm2.72-.73v3.63h-.79v-4.61h.75l.04.98Zm-.19 1.15-.33-.01c0-.32.05-.6.14-.88.1-.27.22-.5.39-.7a1.7 1.7 0 0 1 1.35-.63c.23 0 .43.03.61.1.19.06.34.15.47.29.13.13.23.3.3.52.07.2.1.46.1.77v3.02h-.8v-3.03c0-.24-.03-.44-.1-.58a.66.66 0 0 0-.31-.32c-.14-.07-.3-.1-.5-.1a1.16 1.16 0 0 0-.96.46 1.71 1.71 0 0 0-.36 1.1Zm4.23-4.07h.79v5.66l-.07.9h-.72v-6.56Zm3.9 4.2v.1c0 .33-.03.64-.11.93-.08.29-.2.53-.35.74-.16.21-.34.38-.57.5-.22.11-.47.17-.76.17-.3 0-.55-.05-.77-.15-.22-.1-.4-.25-.56-.44a2.27 2.27 0 0 1-.36-.7 4.35 4.35 0 0 1-.18-.9v-.4c.03-.34.1-.64.18-.91.1-.27.21-.5.36-.7.16-.19.34-.33.56-.43.22-.1.47-.16.76-.16.3 0 .55.06.77.17.23.11.42.27.57.48.15.2.27.46.35.75.08.29.12.6.12.96Zm-.79.1v-.1c0-.22-.02-.44-.06-.64-.04-.2-.11-.38-.2-.54a1.03 1.03 0 0 0-.94-.5 1.12 1.12 0 0 0-.9.38c-.1.11-.18.24-.25.39-.06.14-.1.3-.14.45v1.03c.05.2.12.4.22.58.1.18.25.33.42.44.18.12.4.18.66.18.2 0 .39-.04.54-.13.15-.09.28-.2.37-.36.1-.15.17-.33.22-.54.04-.2.06-.41.06-.64Zm1.59 0v-.1c0-.33.04-.64.14-.93.1-.28.24-.53.42-.74.18-.22.4-.38.66-.5s.55-.18.87-.18c.33 0 .62.06.88.18s.48.28.66.5c.19.2.33.46.42.74.1.29.15.6.15.93v.1c0 .33-.05.64-.15.92-.1.29-.23.54-.42.75a1.92 1.92 0 0 1-1.53.67 1.97 1.97 0 0 1-1.96-1.42c-.1-.28-.14-.59-.14-.92Zm.79-.1v.1c0 .23.02.44.08.65.05.2.13.38.24.54.11.15.25.28.41.37.17.09.36.13.58.13.22 0 .4-.04.57-.13.16-.1.3-.22.4-.37.11-.16.2-.34.25-.54.06-.2.09-.42.09-.65v-.1c0-.23-.03-.44-.09-.65-.05-.2-.14-.38-.25-.54-.1-.16-.24-.28-.4-.37-.17-.1-.36-.14-.58-.14-.21 0-.4.05-.57.14-.16.09-.3.21-.41.37-.1.16-.19.34-.24.54-.06.2-.08.42-.08.65Zm7.12 1.56v-2.37a.96.96 0 0 0-.11-.48.72.72 0 0 0-.32-.31 1.17 1.17 0 0 0-.54-.11c-.2 0-.38.03-.53.1a.92.92 0 0 0-.35.27.6.6 0 0 0-.12.36h-.79c0-.17.04-.33.13-.5.08-.16.2-.3.37-.43.16-.14.35-.24.58-.32.22-.08.48-.12.75-.12.34 0 .64.06.9.17.25.12.45.29.6.52.15.23.22.51.22.86v2.15c0 .15.01.31.04.49.03.17.07.32.12.44v.07h-.82c-.04-.09-.07-.2-.1-.36l-.03-.43Zm.14-2v.55h-.8c-.22 0-.42.02-.6.06-.17.03-.32.08-.44.15a.71.71 0 0 0-.37.64c0 .15.04.28.1.4.07.12.17.21.3.29.13.06.3.1.49.1a1.33 1.33 0 0 0 1.08-.53c.1-.15.17-.3.18-.43l.33.38c-.02.12-.07.25-.16.4a1.9 1.9 0 0 1-.87.74c-.2.09-.43.13-.68.13-.3 0-.58-.06-.82-.18a1.3 1.3 0 0 1-.74-1.19c0-.25.05-.47.15-.65.1-.2.23-.35.42-.48a2 2 0 0 1 .65-.29c.26-.06.54-.1.86-.1h.92Zm2.68-1.1v3.9h-.79v-4.62h.77l.02.72Zm1.44-.75v.74a2.25 2.25 0 0 0-.38-.03c-.19 0-.35.02-.49.08a1 1 0 0 0-.35.24c-.1.1-.18.22-.23.36-.06.14-.1.3-.1.46l-.23.13c0-.28.03-.54.08-.78.06-.25.14-.46.26-.65.12-.2.26-.34.44-.45a1.25 1.25 0 0 1 1-.1Zm3.56 3.75v-5.66h.79v6.55h-.73l-.06-.9Zm-3.11-1.36v-.1c0-.35.04-.67.13-.95.09-.3.21-.54.37-.75a1.64 1.64 0 0 1 1.33-.65c.29 0 .54.05.76.16.21.1.4.24.55.43.15.2.27.43.36.7.1.27.15.57.19.91v.4a4 4 0 0 1-.19.9c-.09.28-.2.51-.36.7-.15.2-.34.34-.55.44a1.85 1.85 0 0 1-1.51-.03 1.75 1.75 0 0 1-.58-.49 2.38 2.38 0 0 1-.37-.74c-.09-.29-.13-.6-.13-.93Zm.8-.1v.1c0 .23.02.44.06.64.05.2.12.39.22.54.1.15.23.27.38.36.16.09.34.13.55.13.27 0 .48-.06.65-.17.17-.1.3-.25.4-.44.11-.18.19-.38.25-.59v-1.03l-.15-.45a1.38 1.38 0 0 0-.25-.4c-.1-.1-.22-.2-.37-.27a1.2 1.2 0 0 0-.52-.1c-.21 0-.4.04-.56.13a1.1 1.1 0 0 0-.38.37c-.1.15-.17.33-.22.54-.04.2-.07.42-.07.65Zm5.19-2.26v4.61h-.8v-4.61h.8Zm-.86-1.23c0-.13.04-.23.12-.32.08-.09.2-.13.35-.13.15 0 .26.04.34.13.09.09.13.2.13.32 0 .13-.04.23-.13.32-.08.08-.2.13-.34.13-.16 0-.27-.05-.35-.13a.46.46 0 0 1-.12-.32Zm2.91 2.21v3.63h-.79v-4.61h.75l.04.98Zm-.19 1.15-.32-.01c0-.32.05-.6.14-.88.09-.27.22-.5.38-.7a1.7 1.7 0 0 1 1.35-.63c.23 0 .44.03.62.1.18.06.33.15.46.29.13.13.23.3.3.52.07.2.1.46.1.77v3.02h-.79v-3.03c0-.24-.04-.44-.1-.58a.66.66 0 0 0-.32-.32c-.13-.07-.3-.1-.5-.1a1.16 1.16 0 0 0-.95.46 1.71 1.71 0 0 0-.37 1.1Zm7.22-2.13h.72v4.52c0 .4-.08.75-.25 1.04-.16.28-.4.5-.69.65a2.19 2.19 0 0 1-1.58.15 2.3 2.3 0 0 1-.63-.25c-.2-.12-.38-.28-.52-.48l.42-.47c.2.24.4.4.6.49.22.1.43.14.64.14.25 0 .46-.05.64-.14.19-.1.33-.24.43-.42.1-.18.15-.4.15-.68v-3.54l.07-1.01Zm-3.18 2.36v-.1c0-.35.05-.67.13-.95.08-.3.2-.54.36-.75a1.63 1.63 0 0 1 1.34-.65c.29 0 .54.05.76.16.21.1.4.24.55.43.15.2.27.43.36.7.1.27.15.57.19.91v.4a4 4 0 0 1-.19.9c-.09.28-.2.51-.36.7-.15.2-.34.34-.55.44a1.85 1.85 0 0 1-1.52-.03 1.7 1.7 0 0 1-.57-.49 2.31 2.31 0 0 1-.37-.74c-.08-.29-.13-.6-.13-.93Zm.8-.1v.1c0 .23.02.44.06.64.05.2.12.39.22.54.1.15.23.27.38.36.15.09.34.13.55.13.26 0 .48-.06.65-.17.17-.1.3-.25.4-.44.1-.18.19-.38.24-.59v-1.03a2.1 2.1 0 0 0-.14-.45 1.38 1.38 0 0 0-.25-.4c-.1-.1-.22-.2-.37-.27s-.32-.1-.52-.1c-.22 0-.4.04-.56.13a1.1 1.1 0 0 0-.38.37c-.1.15-.17.33-.22.54-.04.2-.07.42-.07.65Zm7.87 1.64 1.26-3.9h.8l-1.65 4.61h-.53l.12-.7Zm-1.05-3.9 1.3 3.92.09.7h-.53l-1.68-4.62h.82Zm4.74 0v4.61h-.8v-4.61h.8Zm-.86-1.23c0-.13.04-.23.12-.32.08-.09.2-.13.35-.13.15 0 .26.04.34.13.09.09.13.2.13.32 0 .13-.04.23-.13.32-.08.08-.2.13-.34.13-.16 0-.27-.05-.35-.13a.46.46 0 0 1-.12-.32Zm5.03 4.95v-5.66h.8v6.55h-.73l-.07-.9Zm-3.1-1.36v-.1c0-.35.04-.67.12-.95.1-.3.22-.54.38-.75a1.63 1.63 0 0 1 1.33-.65c.28 0 .53.05.75.16.22.1.4.24.56.43.15.2.27.43.36.7.09.27.15.57.18.91v.4a4 4 0 0 1-.18.9c-.09.28-.21.51-.36.7-.16.2-.34.34-.56.44a1.85 1.85 0 0 1-1.5-.03 1.75 1.75 0 0 1-.58-.49 2.38 2.38 0 0 1-.38-.74c-.08-.29-.12-.6-.12-.93Zm.79-.1v.1c0 .23.02.44.07.64s.12.39.22.54c.1.15.23.27.38.36.15.09.34.13.55.13.26 0 .48-.06.64-.17.17-.1.31-.25.41-.44.1-.18.19-.38.24-.59v-1.03a2.3 2.3 0 0 0-.15-.45 1.4 1.4 0 0 0-.24-.4 1.2 1.2 0 0 0-.89-.38c-.22 0-.4.05-.56.14a1.1 1.1 0 0 0-.38.37c-.1.15-.17.33-.22.54-.05.2-.07.42-.07.65Zm6.25 2.44a1.99 1.99 0 0 1-1.97-1.33c-.1-.28-.15-.58-.15-.9v-.18c0-.38.05-.71.17-1 .1-.3.26-.55.45-.75a1.93 1.93 0 0 1 2.25-.46c.24.12.44.28.6.48.15.2.26.44.33.72.08.27.12.57.12.9v.35H104v-.65h2.66v-.06c-.02-.2-.06-.4-.13-.6-.07-.19-.19-.35-.34-.47a1 1 0 0 0-.64-.19 1.07 1.07 0 0 0-.89.45c-.1.15-.19.33-.25.54-.06.21-.09.46-.09.74v.18c0 .22.03.42.1.62.05.19.14.36.26.5a1.29 1.29 0 0 0 1.01.46c.28 0 .52-.05.71-.17.2-.11.36-.26.5-.45l.49.38c-.1.15-.23.3-.38.43-.16.13-.35.25-.57.33a2.2 2.2 0 0 1-.79.13Zm2.5-2.34v-.1c0-.33.06-.64.15-.93.1-.28.24-.53.42-.74.18-.22.4-.38.66-.5s.55-.18.87-.18c.33 0 .62.06.88.18s.48.28.66.5c.19.2.33.46.42.74.1.29.15.6.15.93v.1c0 .33-.05.64-.15.92-.1.29-.23.54-.42.75a1.92 1.92 0 0 1-1.53.67 1.97 1.97 0 0 1-1.96-1.42c-.1-.28-.14-.59-.14-.92Zm.8-.1v.1c0 .23.02.44.08.65.05.2.13.38.24.54.11.15.25.28.41.37.17.09.36.13.58.13.22 0 .4-.04.57-.13.16-.1.3-.22.4-.37.12-.16.2-.34.25-.54.06-.2.09-.42.09-.65v-.1c0-.23-.03-.44-.09-.65-.05-.2-.13-.38-.25-.54-.1-.16-.24-.28-.4-.37-.17-.1-.36-.14-.58-.14-.21 0-.4.05-.57.14-.16.09-.3.21-.4.37-.12.16-.2.34-.25.54-.06.2-.08.42-.08.65ZM197.84 312.08a1.64 1.64 0 0 1-.97 1.56c-.3.14-.64.2-1 .2-.38 0-.72-.06-1.02-.2-.3-.13-.53-.33-.7-.6a1.72 1.72 0 0 1-.26-.96 1.6 1.6 0 0 1 1.17-1.57c.24-.09.5-.13.8-.13.37 0 .71.07 1.01.22.3.15.54.35.7.6.18.26.27.55.27.88Zm-.8-.01c0-.24-.05-.44-.15-.61-.1-.18-.23-.32-.41-.42-.18-.1-.4-.15-.63-.15-.24 0-.45.05-.62.15-.18.1-.31.24-.4.42-.1.17-.15.38-.15.6 0 .25.04.45.14.62.1.17.23.3.4.39.19.09.4.13.64.13.25 0 .46-.04.63-.13.18-.1.31-.22.4-.39.1-.17.15-.38.15-.61Zm.65-2.9c0 .3-.08.57-.24.81-.16.25-.37.44-.65.57-.28.14-.59.21-.94.21a2.1 2.1 0 0 1-.95-.2c-.28-.14-.5-.33-.65-.58a1.47 1.47 0 0 1-.23-.81c0-.36.07-.67.23-.92.16-.26.38-.45.66-.58.27-.14.59-.2.94-.2s.67.06.94.2c.28.13.5.32.65.58.16.25.24.56.24.92Zm-.79.01c0-.2-.04-.39-.13-.55a.97.97 0 0 0-.37-.37c-.15-.1-.34-.14-.54-.14-.21 0-.4.04-.55.13a.93.93 0 0 0-.36.36c-.09.16-.13.35-.13.57 0 .21.04.4.13.56.09.16.2.28.37.37.15.09.33.13.54.13.2 0 .39-.04.54-.13a.94.94 0 0 0 .37-.37c.09-.16.13-.35.13-.56Zm2.81-1.97v6.55h-.79v-6.55h.79Zm-.19 4.07-.33-.01c0-.32.05-.6.14-.88.1-.27.22-.5.39-.7a1.71 1.71 0 0 1 1.35-.63c.23 0 .43.03.62.1.18.06.33.15.46.29.13.13.23.3.3.52.07.2.1.46.1.77v3.02h-.8v-3.03c0-.24-.03-.44-.1-.58a.66.66 0 0 0-.31-.32c-.14-.07-.3-.1-.5-.1a1.16 1.16 0 0 0-.96.46 1.7 1.7 0 0 0-.36 1.1Zm10.2-1.12v.95c0 .5-.05.94-.14 1.29-.1.35-.22.63-.4.84-.17.22-.37.37-.61.47-.24.1-.51.14-.81.14-.24 0-.46-.03-.66-.1-.2-.05-.39-.15-.55-.28-.16-.13-.3-.3-.41-.52-.11-.21-.2-.47-.26-.77-.06-.3-.1-.66-.1-1.07v-.95c0-.5.06-.93.15-1.28.09-.34.22-.62.4-.82.16-.21.37-.37.6-.46.25-.09.52-.13.82-.13.24 0 .46.03.66.09a1.5 1.5 0 0 1 .95.78c.12.2.2.46.26.76s.1.66.1 1.06Zm-.8 1.08v-1.2a4.64 4.64 0 0 0-.2-1.29 1.1 1.1 0 0 0-.23-.37.85.85 0 0 0-.33-.2 1.19 1.19 0 0 0-.41-.07c-.19 0-.36.04-.5.1a.9.9 0 0 0-.37.34c-.1.15-.17.34-.22.59-.05.24-.08.54-.08.9v1.2c0 .28.02.52.05.74.03.2.08.4.15.55.06.15.14.28.24.38.1.1.2.17.32.22.13.05.26.07.42.07.19 0 .36-.04.5-.11a.92.92 0 0 0 .37-.35c.1-.16.17-.36.22-.6.05-.26.07-.56.07-.9Zm5.7-1.08v.95c0 .5-.04.94-.13 1.29-.09.35-.22.63-.39.84-.17.22-.38.37-.62.47-.24.1-.5.14-.8.14-.25 0-.47-.03-.67-.1-.2-.05-.38-.15-.55-.28-.16-.13-.3-.3-.4-.52-.12-.21-.2-.47-.27-.77-.06-.3-.09-.66-.09-1.07v-.95c0-.5.05-.93.14-1.28.1-.34.23-.62.4-.82.17-.21.37-.37.61-.46.24-.09.51-.13.81-.13.24 0 .47.03.67.09a1.52 1.52 0 0 1 .95.78c.11.2.2.46.26.76s.09.66.09 1.06Zm-.78 1.08v-1.2c0-.29-.02-.53-.06-.74-.03-.22-.07-.4-.14-.55a1.07 1.07 0 0 0-.24-.37.85.85 0 0 0-.32-.2 1.19 1.19 0 0 0-.42-.07c-.19 0-.35.04-.5.1a.9.9 0 0 0-.36.34c-.1.15-.18.34-.23.59-.05.24-.07.54-.07.9v1.2c0 .28.01.52.04.74.04.2.09.4.15.55.07.15.15.28.24.38.1.1.2.17.33.22.12.05.26.07.41.07.2 0 .36-.04.5-.11a.92.92 0 0 0 .37-.35c.1-.16.17-.36.22-.6.05-.26.08-.56.08-.9Zm2.67-1.18v3.7h-.79v-4.61h.75l.04.92Zm-.16 1.22-.36-.01c0-.32.04-.6.12-.88.08-.27.2-.5.35-.7.16-.2.35-.35.59-.46.23-.11.5-.17.8-.17.22 0 .42.03.6.1a1.2 1.2 0 0 1 .8.78c.06.21.1.46.1.75v3.07h-.79v-3.03c0-.25-.04-.44-.12-.58a.7.7 0 0 0-.34-.32c-.15-.07-.32-.1-.52-.1-.24 0-.43.04-.59.12a.99.99 0 0 0-.37.34c-.1.15-.16.31-.2.5-.05.19-.07.38-.07.6Zm3-.43-.54.16c0-.25.05-.5.13-.73a1.68 1.68 0 0 1 .93-1.05 2.03 2.03 0 0 1 1.44-.06 1.2 1.2 0 0 1 .78.81c.07.21.1.46.1.75v3.03h-.79v-3.04c0-.26-.04-.46-.12-.6a.65.65 0 0 0-.34-.3 1.38 1.38 0 0 0-.98 0 .97.97 0 0 0-.34.25c-.1.1-.16.22-.2.35-.05.13-.08.27-.08.43ZM309.1 312.23v.64h-4.07v-.56l2.04-2.27c.25-.28.44-.51.57-.7.15-.2.24-.38.3-.53.05-.16.08-.32.08-.48 0-.2-.04-.39-.13-.55a.96.96 0 0 0-.36-.4 1.1 1.1 0 0 0-.6-.15c-.27 0-.5.05-.68.16a1 1 0 0 0-.41.44c-.1.2-.14.41-.14.66h-.79c0-.35.08-.67.23-.96.16-.3.38-.52.68-.7.3-.16.68-.25 1.12-.25.39 0 .73.07 1 .2.28.14.5.34.64.59a1.73 1.73 0 0 1 .13 1.42 4.28 4.28 0 0 1-.62 1.1c-.14.18-.28.36-.44.53l-1.67 1.8h3.12Zm4.74-2.96v.95c0 .51-.05.94-.14 1.29-.09.35-.22.63-.39.85a1.5 1.5 0 0 1-.62.46 2.36 2.36 0 0 1-1.47.05c-.2-.06-.38-.15-.55-.29-.16-.13-.3-.3-.4-.52-.12-.2-.2-.47-.27-.77-.06-.3-.08-.66-.08-1.07v-.95c0-.5.04-.93.13-1.28.1-.34.23-.62.4-.82.17-.21.37-.36.61-.46.24-.09.51-.13.81-.13.25 0 .47.03.67.09a1.52 1.52 0 0 1 .95.78c.11.2.2.46.26.76s.09.66.09 1.06Zm-.8 1.08v-1.2c0-.29-.01-.53-.05-.74-.03-.22-.07-.4-.14-.55a1.07 1.07 0 0 0-.24-.37.83.83 0 0 0-.32-.2 1.17 1.17 0 0 0-.42-.07c-.19 0-.35.04-.5.1a.9.9 0 0 0-.36.34c-.1.15-.17.35-.22.59-.06.25-.08.54-.08.9v1.2c0 .28.01.52.05.74.03.21.08.4.14.55.07.16.15.28.24.38.1.1.2.18.33.22.12.05.26.07.41.07.2 0 .36-.04.5-.1a.92.92 0 0 0 .37-.35c.1-.16.18-.37.22-.62.05-.25.08-.54.08-.9Zm1.75-2.16v-.33c0-.24.05-.45.15-.65.1-.19.25-.34.44-.46s.42-.18.68-.18c.27 0 .5.06.68.18.2.12.34.27.44.46.1.2.15.41.15.65v.33c0 .23-.05.44-.15.63-.1.2-.24.35-.44.47-.18.11-.4.17-.67.17s-.5-.06-.69-.17a1.2 1.2 0 0 1-.44-.47c-.1-.2-.15-.4-.15-.63Zm.59-.33v.33c0 .13.02.25.07.37a.7.7 0 0 0 .23.28c.1.08.23.11.39.11.15 0 .28-.03.38-.1.1-.08.17-.18.22-.3a.95.95 0 0 0 .07-.36v-.33a.93.93 0 0 0-.08-.38.62.62 0 0 0-.6-.4.63.63 0 0 0-.6.4.98.98 0 0 0-.08.38Zm2.43 3.82v-.33c0-.23.05-.45.15-.64a1.2 1.2 0 0 1 1.12-.64c.27 0 .5.06.69.18.19.11.33.27.44.46.1.2.15.4.15.64v.33c0 .24-.05.45-.16.64-.1.2-.24.35-.43.47s-.41.17-.68.17c-.26 0-.5-.05-.68-.17-.2-.12-.34-.27-.45-.47-.1-.19-.15-.4-.15-.63Zm.6-.33v.33a1 1 0 0 0 .07.38c.05.12.13.21.23.29.1.07.23.1.38.1.16 0 .28-.03.38-.1.1-.08.18-.17.23-.29a.96.96 0 0 0 .07-.38v-.33a.92.92 0 0 0-.08-.37.63.63 0 0 0-.6-.4.63.63 0 0 0-.61.4.97.97 0 0 0-.08.37Zm.87-3.8-3.03 4.85-.45-.28 3.04-4.86.44.29Z" fill="#181818"/><rect x="131" y="308.09" width="26.31" height="6.8" rx="3.4" fill="#E7E7E7"/><rect x="249.37" y="307.76" width="50.48" height="6.8" rx="3.4" fill="#FF9100"/><rect x="249.37" y="307.76" width="16.5" height="6.8" rx="3.4" fill="#2979FF"/><path d="M47.55 261.34v6.21h-.81v-6.21h.8Zm2 0v.67h-4.8v-.67h4.8Zm1.8 1.6v4.61h-.79v-4.62h.8Zm-.85-1.23c0-.13.04-.24.12-.32.08-.1.2-.14.35-.14.15 0 .26.05.34.13.08.1.13.2.13.33 0 .12-.05.23-.13.31-.08.09-.2.13-.34.13-.16 0-.27-.04-.35-.13a.46.46 0 0 1-.12-.31Zm4.2 1.22v.61h-2.5v-.6h2.5Zm-1.65-1.12h.8v4.6c0 .15.02.27.06.35.05.08.12.13.2.16.07.02.15.04.24.04.07 0 .13 0 .2-.02l.17-.03v.64l-.24.06-.36.02c-.2 0-.38-.03-.54-.11a.86.86 0 0 1-.39-.38c-.09-.19-.14-.43-.14-.74v-4.59Zm3.59-.81v6.55h-.8V261h.8Zm3.33 6.63A1.98 1.98 0 0 1 58 266.3a2.6 2.6 0 0 1-.15-.9v-.17c0-.38.05-.72.16-1 .12-.3.27-.55.46-.76a1.96 1.96 0 0 1 1.4-.62c.33 0 .61.05.85.17.24.11.44.27.6.48.15.2.26.44.33.71.08.28.11.58.11.9v.35h-3.44v-.64h2.66v-.06c-.02-.2-.06-.4-.13-.6-.07-.2-.19-.35-.34-.48a1 1 0 0 0-.64-.18 1.07 1.07 0 0 0-.89.44c-.1.15-.19.33-.25.55-.06.21-.09.46-.09.74v.17c0 .22.03.43.1.62.05.2.14.36.26.5a1.28 1.28 0 0 0 1.01.47c.28 0 .52-.06.71-.17.2-.11.36-.27.5-.46l.49.38c-.1.15-.23.3-.38.43a1.8 1.8 0 0 1-.57.34 2.2 2.2 0 0 1-.8.13ZM134.92 266.88v.67h-3.29v-.67h3.29Zm-3.12-5.54v6.21h-.83v-6.21h.83Zm2.68 2.67v.67h-2.85V264h2.85Zm.4-2.67v.67h-3.25v-.67h3.25Zm3.78 4.99a.66.66 0 0 0-.08-.32.65.65 0 0 0-.3-.27 2.44 2.44 0 0 0-.69-.21 5.4 5.4 0 0 1-.7-.2c-.2-.07-.37-.16-.52-.26a1.04 1.04 0 0 1-.44-.87c0-.19.04-.36.12-.52.08-.16.2-.3.35-.43.15-.13.33-.22.54-.3.2-.07.44-.1.7-.1.37 0 .69.06.95.2.26.13.46.3.6.52.14.22.2.46.2.72h-.78a.68.68 0 0 0-.12-.37.86.86 0 0 0-.32-.3 1.07 1.07 0 0 0-.53-.12c-.22 0-.4.03-.53.1a.69.69 0 0 0-.3.25.63.63 0 0 0-.04.56.5.5 0 0 0 .16.18c.08.05.18.1.32.15.14.05.32.1.54.15.38.08.69.19.93.3.25.12.43.27.55.44.12.18.18.39.18.64a1.2 1.2 0 0 1-.5.99c-.15.12-.34.2-.56.28-.21.06-.46.1-.73.1-.4 0-.75-.08-1.03-.22a1.6 1.6 0 0 1-.64-.57 1.34 1.34 0 0 1-.22-.73h.8c0 .22.07.4.18.52.12.13.26.22.42.27a1.66 1.66 0 0 0 1.03 0 .76.76 0 0 0 .34-.24c.08-.1.12-.22.12-.35Zm3.9-3.4v.61h-2.5v-.6h2.5Zm-1.65-1.12h.8v4.6c0 .15.02.27.06.35.05.08.12.13.2.16.07.02.15.04.24.04a1.34 1.34 0 0 0 .37-.05v.64l-.24.06-.36.02c-.2 0-.38-.03-.54-.11a.86.86 0 0 1-.39-.38c-.09-.19-.14-.43-.14-.74v-4.59Zm3.59 1.12v4.62h-.8v-4.62h.8Zm-.86-1.22c0-.13.04-.24.12-.32.08-.1.2-.14.35-.14.15 0 .26.05.34.13.09.1.13.2.13.33 0 .12-.04.23-.13.31-.07.09-.19.13-.34.13-.15 0-.27-.04-.35-.13a.46.46 0 0 1-.12-.31Zm3.06 2.14v3.7h-.8v-4.62h.76l.04.92Zm-.16 1.22-.37-.02c0-.31.04-.6.12-.87.08-.27.2-.5.36-.7.15-.2.35-.36.58-.47.24-.1.5-.16.81-.16.22 0 .42.03.6.1a1.2 1.2 0 0 1 .79.78c.07.2.1.45.1.74v3.08h-.78v-3.04c0-.24-.04-.43-.13-.58a.72.72 0 0 0-.34-.31c-.15-.07-.32-.1-.52-.1-.23 0-.43.04-.58.12a.98.98 0 0 0-.38.34c-.1.14-.16.31-.2.5-.04.18-.06.38-.06.59Zm2.99-.44-.53.16c0-.25.04-.5.12-.73.08-.23.2-.44.36-.62.15-.18.34-.32.57-.43.23-.1.49-.16.78-.16a2 2 0 0 1 .66.1c.2.06.35.16.49.3.13.13.23.3.3.52.07.2.1.46.1.75v3.03h-.8v-3.04c0-.26-.03-.46-.12-.6a.64.64 0 0 0-.34-.3 1.36 1.36 0 0 0-.98 0 .94.94 0 0 0-.33.24c-.1.1-.17.22-.21.35a1.3 1.3 0 0 0-.07.43Zm6.92 2.13v-2.38a.96.96 0 0 0-.11-.47.72.72 0 0 0-.33-.31 1.17 1.17 0 0 0-.53-.12c-.2 0-.38.04-.53.1a.92.92 0 0 0-.35.28.59.59 0 0 0-.12.35h-.8c0-.16.05-.32.13-.49.09-.16.21-.3.37-.44.16-.13.36-.23.58-.31.23-.08.48-.12.76-.12.34 0 .63.05.89.17.26.11.46.29.6.52.15.22.23.5.23.85v2.15c0 .16 0 .32.03.5.03.17.07.32.13.44v.07h-.83c-.03-.1-.07-.21-.09-.36l-.03-.43Zm.13-2 .01.55h-.8c-.22 0-.42.01-.6.05-.17.03-.32.09-.44.16a.72.72 0 0 0-.37.64c0 .14.03.28.1.4s.16.21.3.28c.13.07.3.1.48.1a1.33 1.33 0 0 0 1.08-.53c.12-.14.17-.29.18-.43l.34.38c-.02.12-.07.26-.16.4a1.9 1.9 0 0 1-.88.75c-.2.08-.42.13-.67.13-.31 0-.59-.07-.82-.19a1.3 1.3 0 0 1-.74-1.19 1.27 1.27 0 0 1 .56-1.13 2 2 0 0 1 .66-.28c.25-.07.54-.1.86-.1h.91Zm3.98-1.83v.61h-2.5v-.6h2.5Zm-1.65-1.12h.79v4.6c0 .15.02.27.07.35.05.08.11.13.19.16.07.02.16.04.25.04.06 0 .13 0 .2-.02l.17-.03v.64l-.25.06-.36.02c-.2 0-.37-.03-.53-.11a.86.86 0 0 1-.39-.38c-.1-.19-.14-.43-.14-.74v-4.59Zm4.64 5.82a1.99 1.99 0 0 1-1.97-1.33c-.1-.27-.15-.57-.15-.9v-.17c0-.38.06-.72.17-1 .1-.3.26-.55.45-.76a1.96 1.96 0 0 1 1.4-.62c.33 0 .61.05.85.17.24.11.44.27.6.48.15.2.26.44.34.71.07.28.1.58.1.9v.35h-3.44v-.64h2.66v-.06c-.01-.2-.06-.4-.13-.6-.07-.2-.19-.35-.34-.48a1 1 0 0 0-.64-.18 1.07 1.07 0 0 0-.88.44c-.11.15-.2.33-.26.55-.06.21-.09.46-.09.74v.17c0 .22.03.43.1.62.06.2.15.36.26.5a1.29 1.29 0 0 0 1.01.47c.28 0 .52-.06.71-.17.2-.11.36-.27.5-.46l.49.38c-.1.15-.23.3-.38.43-.16.14-.34.25-.57.34a2.2 2.2 0 0 1-.79.13Zm5.78-.98V261h.8v6.55h-.73l-.07-.9Zm-3.1-1.36v-.09c0-.35.03-.67.12-.96.09-.29.21-.54.37-.74a1.64 1.64 0 0 1 1.33-.65c.29 0 .54.05.76.15.22.1.4.25.55.44.15.2.28.42.36.7.1.26.15.57.19.91v.4a4 4 0 0 1-.19.9c-.08.27-.2.5-.36.7-.15.19-.33.33-.55.44a1.85 1.85 0 0 1-1.51-.03 1.75 1.75 0 0 1-.58-.49 2.4 2.4 0 0 1-.37-.74c-.09-.29-.13-.6-.13-.94Zm.78-.09v.1c0 .22.03.44.07.64.05.2.13.38.22.54.1.15.23.27.38.36.16.08.34.13.56.13.26 0 .47-.06.64-.17.17-.11.3-.26.4-.44.11-.18.2-.38.25-.6v-1.02c-.04-.16-.09-.3-.15-.45a1.37 1.37 0 0 0-.25-.4c-.1-.11-.22-.2-.37-.27a1.2 1.2 0 0 0-.52-.1c-.21 0-.4.04-.56.13a1.1 1.1 0 0 0-.38.37c-.1.15-.17.33-.22.54-.04.2-.07.41-.07.64ZM194.45 261.34v6.21h-.81v-6.21h.81Zm2 0v.67h-4.8v-.67h4.8Zm1.41 2.32v3.89h-.79v-4.62h.77l.02.73Zm1.44-.75v.73a2.25 2.25 0 0 0-.38-.03c-.19 0-.35.03-.49.08a1 1 0 0 0-.35.24c-.1.1-.17.23-.23.37-.05.14-.09.3-.1.46l-.23.13c0-.28.03-.54.08-.79.06-.24.15-.46.26-.65a1.24 1.24 0 0 1 1.44-.55Zm3.44 3.85v-2.38a.96.96 0 0 0-.12-.47.72.72 0 0 0-.32-.31 1.17 1.17 0 0 0-.54-.12c-.2 0-.37.04-.52.1a.92.92 0 0 0-.35.28.59.59 0 0 0-.13.35h-.78c0-.16.04-.32.12-.49.09-.16.21-.3.37-.44.16-.13.35-.23.58-.31.23-.08.48-.12.76-.12.34 0 .63.05.89.17.26.11.46.29.6.52.15.22.22.5.22.85v2.15c0 .16.02.32.04.5.03.17.07.32.13.44v.07h-.83c-.04-.1-.07-.21-.1-.36l-.02-.43Zm.13-2 .01.55h-.8c-.22 0-.42.01-.6.05-.18.03-.32.09-.44.16a.7.7 0 0 0-.37.64c0 .14.03.28.1.4.06.12.16.21.3.28.13.07.29.1.48.1a1.33 1.33 0 0 0 1.08-.53c.11-.14.17-.29.18-.43l.34.38c-.02.12-.08.26-.16.4a1.93 1.93 0 0 1-.88.75c-.2.08-.42.13-.67.13-.31 0-.59-.07-.82-.19a1.3 1.3 0 0 1-.74-1.19c0-.24.05-.46.14-.65.1-.19.24-.35.42-.47a2 2 0 0 1 .66-.3c.25-.06.54-.09.85-.09h.92Zm3.9 2.23c.18 0 .35-.04.51-.12.16-.07.3-.18.4-.31.1-.14.16-.3.17-.47h.75c-.01.27-.1.53-.28.76a1.89 1.89 0 0 1-1.56.78 2.1 2.1 0 0 1-.9-.18 1.8 1.8 0 0 1-.65-.5c-.16-.21-.3-.46-.38-.74a3.1 3.1 0 0 1-.12-.88v-.18c0-.3.04-.6.12-.88.09-.27.22-.52.38-.73.17-.22.39-.39.64-.5.26-.13.56-.2.91-.2.36 0 .68.08.95.23a1.71 1.71 0 0 1 .9 1.45h-.76c-.01-.19-.07-.36-.16-.51a1.05 1.05 0 0 0-.93-.5c-.24-.01-.44.04-.6.13-.17.1-.3.22-.4.39-.09.16-.16.33-.2.53-.04.2-.06.39-.06.6v.17c0 .2.02.4.06.6.04.2.1.37.2.53.1.16.23.29.39.39.16.09.37.14.61.14Zm3.66-6v6.56h-.8V261h.8Zm2.82 1.94-2.01 2.16-1.13 1.17-.06-.84.8-.97 1.44-1.52h.96Zm-.72 4.62-1.65-2.2.41-.7 2.17 2.9h-.93Zm3.52.08a1.99 1.99 0 0 1-1.97-1.33c-.1-.27-.15-.57-.15-.9v-.17c0-.38.05-.72.16-1 .11-.3.26-.55.45-.76a1.96 1.96 0 0 1 1.4-.62c.33 0 .62.05.86.17.24.11.44.27.59.48.15.2.27.44.34.71.08.28.11.58.11.9v.35h-3.44v-.64h2.65v-.06a2 2 0 0 0-.13-.6c-.07-.2-.18-.35-.34-.48a.99.99 0 0 0-.64-.18 1.07 1.07 0 0 0-.88.44c-.1.15-.2.33-.25.55-.06.21-.1.46-.1.74v.17c0 .22.04.43.1.62.06.2.15.36.27.5.12.15.26.27.43.35.17.08.36.12.58.12.28 0 .51-.06.7-.17.2-.11.37-.27.51-.46l.48.38c-.1.15-.22.3-.38.43a1.8 1.8 0 0 1-.56.34 2.2 2.2 0 0 1-.8.13Zm5.77-.98V261h.8v6.55h-.73l-.07-.9Zm-3.1-1.36v-.09c0-.35.04-.67.13-.96.08-.29.2-.54.37-.74a1.63 1.63 0 0 1 1.33-.65c.28 0 .54.05.75.15.22.1.4.25.56.44.15.2.27.42.36.7.09.26.15.57.18.91v.4c-.03.33-.09.63-.18.9s-.21.5-.36.7c-.15.19-.34.33-.56.44a1.85 1.85 0 0 1-1.5-.03 1.75 1.75 0 0 1-.58-.49 2.37 2.37 0 0 1-.38-.74c-.08-.29-.12-.6-.12-.94Zm.79-.09v.1c0 .22.02.44.07.64s.12.38.22.54c.1.15.23.27.38.36.15.08.34.13.55.13a1.14 1.14 0 0 0 1.05-.61c.1-.18.19-.38.24-.6v-1.02a2.3 2.3 0 0 0-.15-.45 1.38 1.38 0 0 0-.24-.4 1.2 1.2 0 0 0-.89-.38c-.22 0-.4.05-.56.14a1.1 1.1 0 0 0-.38.37c-.1.15-.17.33-.22.54-.05.2-.07.41-.07.64ZM251.08 266.6l1.83-5.26h.89l-2.3 6.21h-.64l.22-.94Zm-1.71-5.26 1.81 5.27.23.94h-.64l-2.3-6.21h.9Zm7.82 5.42v-2.38a.96.96 0 0 0-.11-.47.72.72 0 0 0-.32-.31 1.17 1.17 0 0 0-.54-.12c-.2 0-.38.04-.53.1a.92.92 0 0 0-.35.28.6.6 0 0 0-.12.35h-.79c0-.16.04-.32.13-.49.08-.16.2-.3.37-.44.16-.13.35-.23.58-.31.22-.08.48-.12.75-.12.34 0 .64.05.9.17.25.11.45.29.6.52.15.22.22.5.22.85v2.15c0 .16.01.32.04.5.03.17.07.32.12.44v.07h-.82c-.04-.1-.07-.21-.1-.36l-.03-.43Zm.14-2v.55h-.8c-.22 0-.42.01-.6.05-.17.03-.32.09-.44.16a.72.72 0 0 0-.37.64c0 .14.04.28.1.4.07.12.17.21.3.28.13.07.3.1.49.1a1.33 1.33 0 0 0 1.08-.53.8.8 0 0 0 .18-.43l.34.38c-.03.12-.08.26-.17.4a1.9 1.9 0 0 1-.87.75c-.2.08-.43.13-.68.13-.3 0-.58-.07-.82-.19a1.3 1.3 0 0 1-.74-1.19c0-.24.05-.46.15-.65.1-.19.23-.35.42-.47a2 2 0 0 1 .65-.3c.26-.06.55-.09.86-.09h.92Zm2.83-1.1v3.89h-.79v-4.62h.77l.02.73Zm1.44-.75v.73a2.27 2.27 0 0 0-.38-.03c-.19 0-.35.03-.49.08a1.01 1.01 0 0 0-.58.6c-.06.15-.1.3-.1.47l-.23.13c0-.28.03-.54.08-.79.06-.24.14-.46.26-.65s.26-.33.44-.44a1.24 1.24 0 0 1 1-.1Zm1.74.02v4.62h-.8v-4.62h.8Zm-.85-1.22c0-.13.03-.24.11-.32.08-.1.2-.14.35-.14.15 0 .27.05.35.13.08.1.12.2.12.33 0 .12-.04.23-.12.31-.08.09-.2.13-.35.13-.15 0-.27-.04-.35-.13a.46.46 0 0 1-.11-.31Zm4.99 5.05v-2.38a.96.96 0 0 0-.11-.47.72.72 0 0 0-.33-.31 1.17 1.17 0 0 0-.54-.12c-.2 0-.37.04-.52.1a.92.92 0 0 0-.35.28.6.6 0 0 0-.12.35h-.8c0-.16.05-.32.14-.49.08-.16.2-.3.36-.44.16-.13.36-.23.58-.31.23-.08.48-.12.76-.12.34 0 .63.05.89.17.26.11.46.29.6.52.15.22.23.5.23.85v2.15c0 .16 0 .32.04.5.02.17.06.32.12.44v.07h-.82c-.04-.1-.08-.21-.1-.36a2.9 2.9 0 0 1-.03-.43Zm.13-2 .01.55h-.8c-.22 0-.42.01-.6.05-.17.03-.32.09-.44.16a.72.72 0 0 0-.37.64c0 .14.04.28.1.4.07.12.16.21.3.28.13.07.3.1.49.1a1.3 1.3 0 0 0 1.07-.52.8.8 0 0 0 .18-.44l.34.38c-.02.12-.07.26-.16.4a1.9 1.9 0 0 1-.88.75c-.2.08-.42.13-.67.13-.31 0-.59-.07-.82-.19a1.3 1.3 0 0 1-.74-1.19 1.27 1.27 0 0 1 .56-1.13 2 2 0 0 1 .66-.28c.26-.07.54-.1.86-.1h.91Zm2.84-.84v3.63h-.8v-4.62h.75l.05.99Zm-.2 1.15-.32-.02c0-.31.05-.6.14-.87.1-.27.22-.5.38-.7a1.7 1.7 0 0 1 1.36-.63c.23 0 .43.03.61.1.18.05.34.15.47.28.13.14.23.31.3.52.06.21.1.47.1.77v3.03h-.8v-3.03c0-.25-.03-.44-.1-.58a.66.66 0 0 0-.31-.32c-.14-.07-.3-.1-.5-.1a1.17 1.17 0 0 0-.96.46 1.7 1.7 0 0 0-.36 1.09Zm6.23 1.92c.2 0 .37-.04.52-.12.16-.07.3-.18.4-.31.1-.14.16-.3.17-.47h.75c-.01.27-.1.53-.27.76a1.89 1.89 0 0 1-1.57.78c-.34 0-.65-.06-.9-.18a1.8 1.8 0 0 1-.64-.5c-.17-.21-.3-.46-.38-.74a3.1 3.1 0 0 1-.13-.88v-.18c0-.3.04-.6.13-.88.08-.27.2-.52.38-.73.17-.22.38-.39.63-.5.26-.13.57-.2.91-.2.37 0 .68.08.95.23a1.71 1.71 0 0 1 .9 1.45h-.76c-.01-.19-.07-.36-.16-.51a1.05 1.05 0 0 0-.93-.5c-.24-.01-.44.04-.6.13-.17.1-.3.22-.4.39-.09.16-.16.33-.2.53a3 3 0 0 0-.06.6v.17c0 .2.02.4.06.6.04.2.1.37.2.53.1.16.23.29.39.39.16.09.37.14.61.14Zm4.8.64a1.99 1.99 0 0 1-1.97-1.33c-.1-.27-.16-.57-.16-.9v-.17c0-.38.06-.72.17-1 .11-.3.26-.55.45-.76a1.96 1.96 0 0 1 1.4-.62c.33 0 .62.05.85.17.25.11.44.27.6.48.15.2.27.44.34.71.07.28.11.58.11.9v.35h-3.45v-.64h2.66v-.06c-.01-.2-.05-.4-.13-.6-.07-.2-.18-.35-.34-.48a1 1 0 0 0-.64-.18 1.07 1.07 0 0 0-.88.44c-.1.15-.2.33-.25.55-.06.21-.1.46-.1.74v.17c0 .22.04.43.1.62.06.2.15.36.27.5a1.29 1.29 0 0 0 1 .47c.29 0 .52-.06.71-.17.2-.11.37-.27.51-.46l.48.38c-.1.15-.22.3-.38.43-.15.14-.34.25-.57.34a2.2 2.2 0 0 1-.79.13Z" fill="#8B8E93"/><g filter="url(#b)"><path d="M309.78 59a4.78 4.78 0 0 1 4.78 4.78v75.87a4.78 4.78 0 0 1-4.78 4.78H143.63a4.78 4.78 0 0 1-4.78-4.78V63.78a4.78 4.78 0 0 1 4.78-4.78h166.15Z" fill="#fff"/></g><path opacity=".11" stroke="#000" stroke-width=".43" d="M153.06 91.25h148.37"/><path d="M158.66 103.79h.9v4.67c0 .52-.1.95-.34 1.3-.23.34-.54.6-.92.77-.38.17-.8.26-1.24.26-.46 0-.89-.09-1.27-.26a2.08 2.08 0 0 1-1.22-2.07v-4.67h.9v4.67c0 .36.07.66.2.89.14.23.32.4.56.52.24.11.52.17.83.17.32 0 .6-.06.84-.17.24-.11.42-.29.56-.52.13-.23.2-.53.2-.9v-4.66Zm3.32 0v6.9h-.91v-6.9h.91Zm4.59 0-2.88 7.5h-.75l2.88-7.5h.75Zm5.04 0h.9v4.67c0 .52-.1.95-.34 1.3-.23.34-.54.6-.92.77-.38.17-.8.26-1.24.26-.46 0-.89-.09-1.27-.26a2.09 2.09 0 0 1-.9-.78 2.38 2.38 0 0 1-.32-1.3v-4.66h.9v4.67c0 .36.07.66.2.89.14.23.32.4.56.52.24.11.52.17.83.17.32 0 .6-.06.84-.17.24-.11.43-.29.56-.52.13-.23.2-.53.2-.9v-4.66Zm2.93 0 1.66 2.64 1.66-2.64h1.07l-2.18 3.42 2.23 3.48h-1.07l-1.7-2.7-1.7 2.7h-1.08l2.23-3.48-2.18-3.42h1.06Zm8.65 2.58v4.32h-.88v-5.13h.86l.02.8Zm1.6-.84v.82a2.3 2.3 0 0 0-.43-.04c-.2 0-.38.03-.53.1-.16.06-.29.15-.4.26-.1.11-.19.25-.25.4-.06.16-.1.34-.12.52l-.25.14c0-.3.03-.6.1-.87.06-.27.15-.51.28-.72.13-.21.3-.38.5-.5a1.39 1.39 0 0 1 1.1-.1Zm2.85 5.26c-.36 0-.68-.06-.97-.18a2.19 2.19 0 0 1-1.22-1.3c-.11-.31-.17-.64-.17-1v-.2c0-.42.06-.79.19-1.12.12-.32.29-.6.5-.83a2.15 2.15 0 0 1 2.5-.5c.27.12.49.3.66.53.17.22.3.49.38.8.08.3.12.63.12.99v.4h-3.83v-.72h2.96v-.07a2.2 2.2 0 0 0-.15-.66 1.2 1.2 0 0 0-.38-.53 1.1 1.1 0 0 0-.7-.21 1.2 1.2 0 0 0-.99.5c-.12.16-.21.36-.28.6-.06.23-.1.5-.1.82v.2c0 .24.04.47.1.68.07.22.17.4.3.56.13.17.3.3.48.38.19.1.4.14.65.14.3 0 .57-.06.78-.19.22-.13.4-.3.57-.5l.53.42c-.11.16-.25.32-.42.47a2 2 0 0 1-.64.37c-.24.1-.53.15-.87.15Zm6-1.46a.74.74 0 0 0-.08-.35.72.72 0 0 0-.34-.3c-.17-.09-.42-.17-.76-.24a6.17 6.17 0 0 1-.77-.2 2.32 2.32 0 0 1-.58-.3 1.14 1.14 0 0 1-.5-.97c0-.2.05-.4.14-.58.09-.18.22-.34.38-.48.17-.14.37-.24.6-.32.24-.08.5-.12.79-.12.4 0 .76.07 1.05.22.29.14.51.34.67.58.15.24.23.5.23.8h-.88a.76.76 0 0 0-.13-.41.95.95 0 0 0-.36-.34 1.17 1.17 0 0 0-.58-.13c-.25 0-.45.04-.6.11a.76.76 0 0 0-.32.28.7.7 0 0 0-.06.62c.04.07.1.14.18.2.09.06.2.12.36.17.16.06.36.11.6.16.42.1.76.21 1.03.34.28.14.48.3.61.5.13.19.2.42.2.7a1.34 1.34 0 0 1-.54 1.1 2 2 0 0 1-.63.3c-.24.08-.51.12-.81.12-.45 0-.83-.08-1.15-.25a1.77 1.77 0 0 1-.7-.62 1.5 1.5 0 0 1-.25-.81h.88a.9.9 0 0 0 .21.57c.13.14.28.24.46.3a1.83 1.83 0 0 0 1.15 0 .84.84 0 0 0 .38-.27.6.6 0 0 0 .12-.38Zm4.16 1.46a2.2 2.2 0 0 1-2.19-1.48c-.11-.31-.17-.64-.17-1v-.2c0-.42.07-.79.19-1.12.12-.32.3-.6.5-.83a2.15 2.15 0 0 1 2.5-.5c.27.12.5.3.66.53.18.22.3.49.38.8.09.3.13.63.13.99v.4h-3.83v-.72h2.95v-.07a2.17 2.17 0 0 0-.14-.66 1.2 1.2 0 0 0-.38-.53 1.1 1.1 0 0 0-.71-.21 1.2 1.2 0 0 0-.98.5c-.12.16-.22.36-.28.6-.07.23-.1.5-.1.82v.2c0 .24.03.47.1.68.07.22.16.4.3.56.13.17.29.3.47.38.2.1.4.14.65.14.3 0 .57-.06.78-.19.22-.13.4-.3.57-.5l.53.42c-.11.16-.25.32-.42.47a2 2 0 0 1-.63.37c-.25.1-.54.15-.88.15Zm6.04-.98v-2.64c0-.2-.04-.37-.12-.52a.8.8 0 0 0-.36-.35 1.3 1.3 0 0 0-.6-.13c-.22 0-.41.04-.58.12-.16.07-.3.17-.39.3a.66.66 0 0 0-.13.4h-.88c0-.19.04-.37.14-.55.1-.18.23-.34.4-.49.19-.15.4-.26.65-.35.25-.09.54-.13.85-.13.37 0 .7.06.98.19.29.12.51.31.67.57.17.25.25.57.25.95v2.4c0 .16.02.34.04.54.04.2.08.36.14.5v.07H204a3.14 3.14 0 0 1-.14-.88Zm.16-2.23v.62h-.88c-.25 0-.47.02-.67.06-.2.04-.36.1-.5.17a.79.79 0 0 0-.4.71c0 .17.04.31.1.45a.8.8 0 0 0 .34.31 1.45 1.45 0 0 0 1.74-.47.9.9 0 0 0 .2-.48l.38.42a1.3 1.3 0 0 1-.19.44 2.1 2.1 0 0 1-.97.83c-.22.1-.47.15-.75.15-.34 0-.65-.07-.91-.2a1.44 1.44 0 0 1-.82-1.32c0-.28.05-.52.16-.73.1-.21.26-.39.46-.53s.45-.25.73-.32c.29-.07.6-.1.96-.1H204Zm2.98-1.21v4.32h-.88v-5.13h.85l.03.8Zm1.6-.84v.82a2.3 2.3 0 0 0-.43-.04c-.2 0-.38.03-.54.1a1.1 1.1 0 0 0-.39.26c-.1.11-.2.25-.26.4-.06.16-.1.34-.12.52l-.24.14c0-.3.03-.6.09-.87s.16-.51.29-.72c.13-.21.3-.38.5-.5a1.39 1.39 0 0 1 1.1-.1Zm2.77 4.54c.2 0 .4-.05.58-.13.17-.09.32-.2.43-.35a.98.98 0 0 0 .2-.52h.83c-.01.3-.12.59-.3.85a2.1 2.1 0 0 1-1.74.87c-.39 0-.72-.07-1.01-.2a2 2 0 0 1-.71-.57 2.5 2.5 0 0 1-.42-.81c-.1-.31-.14-.64-.14-.98v-.2c0-.35.04-.67.14-.98.1-.3.23-.58.42-.82a2 2 0 0 1 .7-.56c.3-.13.63-.2 1.02-.2.4 0 .75.08 1.05.24a1.92 1.92 0 0 1 1 1.61h-.84c-.02-.2-.08-.4-.18-.57-.1-.17-.24-.3-.42-.4-.17-.11-.38-.16-.61-.16a1.2 1.2 0 0 0-1.11.59c-.1.17-.18.37-.23.59-.04.21-.06.43-.06.66v.2c0 .22.02.44.06.66.05.22.12.42.23.6.1.17.25.31.43.42.18.1.4.16.68.16Zm3.9-6.66v7.28h-.87v-7.28h.87Zm-.2 4.52-.37-.01c0-.35.06-.68.16-.97.1-.3.24-.56.42-.79a1.9 1.9 0 0 1 1.5-.7c.26 0 .49.04.69.11.2.07.37.18.52.32.14.15.25.35.33.58.07.24.11.52.11.86v3.36h-.88v-3.37c0-.27-.04-.48-.12-.64a.73.73 0 0 0-.34-.36 1.24 1.24 0 0 0-.56-.11 1.3 1.3 0 0 0-1.06.51 1.9 1.9 0 0 0-.4 1.21ZM157.26 124.27l-2.28 6.3h-.94l2.64-6.91h.6l-.02.61Zm1.92 6.3-2.3-6.3v-.61h.6l2.64 6.9h-.94Zm-.12-2.56v.75h-3.88V128h3.88Zm4.93 1.37v-3.95h.88v5.13h-.84l-.04-1.18Zm.16-1.08.37-.01c0 .34-.04.65-.1.94-.08.3-.2.54-.35.75-.16.22-.37.38-.62.5-.26.12-.57.18-.94.18-.25 0-.47-.04-.68-.11a1.38 1.38 0 0 1-.88-.93 2.85 2.85 0 0 1-.12-.88v-3.3h.88v3.31c0 .23.02.42.07.57.06.15.13.27.22.36.09.08.2.14.3.18a1.6 1.6 0 0 0 1.24-.16c.22-.15.37-.34.47-.58.1-.25.15-.52.15-.82Zm4.2-2.87v.68h-2.77v-.68h2.77Zm-1.83-1.24h.88v5.1c0 .18.02.3.08.4.05.08.12.14.2.17.1.03.18.04.28.04a1.52 1.52 0 0 0 .41-.05v.71l-.27.06a2.1 2.1 0 0 1-.4.04c-.21 0-.41-.05-.6-.13a.96.96 0 0 1-.42-.43 1.8 1.8 0 0 1-.16-.81v-5.1Zm2.54 3.86v-.1c0-.38.05-.72.16-1.03.1-.32.26-.6.46-.83.2-.24.45-.42.74-.55.28-.14.6-.2.96-.2s.69.06.97.2c.3.13.54.31.75.55.2.23.36.5.46.83.11.31.16.66.16 1.02v.11c0 .37-.05.72-.16 1.03-.1.32-.26.6-.47.83a2.15 2.15 0 0 1-1.7.75 2.2 2.2 0 0 1-2.18-1.57c-.1-.32-.15-.67-.15-1.04Zm.87-.1v.1c0 .26.03.5.1.73.05.22.14.42.26.6.13.17.28.3.46.4.19.1.4.16.64.16s.45-.05.63-.15c.19-.1.34-.24.46-.41.12-.18.2-.38.27-.6.06-.23.1-.47.1-.73v-.1c0-.26-.04-.5-.1-.72a1.85 1.85 0 0 0-.28-.6 1.28 1.28 0 0 0-1.09-.57c-.24 0-.45.05-.63.15-.18.1-.33.24-.46.42-.12.17-.2.37-.27.6-.06.22-.09.46-.09.71Zm7.04-2.52v.68h-2.77v-.68h2.77Zm-1.83-1.24h.88v5.1c0 .18.02.3.07.4.06.08.13.14.21.17.09.03.18.04.28.04a1.51 1.51 0 0 0 .41-.05v.71a2.1 2.1 0 0 1-.68.1c-.2 0-.4-.05-.58-.13a.95.95 0 0 1-.44-.43 1.8 1.8 0 0 1-.15-.81v-5.1Zm4.99 6.47a2.2 2.2 0 0 1-2.19-1.48 2.9 2.9 0 0 1-.17-1v-.2c0-.42.06-.79.19-1.12.12-.33.29-.6.5-.83a2.14 2.14 0 0 1 2.5-.5c.27.12.5.3.66.53.17.22.3.49.38.8.08.3.13.63.13.99v.4h-3.84v-.72h2.96v-.07a2.2 2.2 0 0 0-.14-.66 1.2 1.2 0 0 0-.38-.53 1.1 1.1 0 0 0-.71-.21 1.2 1.2 0 0 0-.99.5c-.12.16-.2.36-.28.6-.06.23-.1.5-.1.82v.2c0 .24.04.47.1.69.07.2.17.4.3.55.14.17.3.3.48.38.2.1.4.14.65.14.3 0 .57-.06.78-.19.22-.13.4-.3.57-.5l.53.42c-.11.16-.25.32-.42.47-.17.16-.38.28-.63.37-.25.1-.54.15-.88.15Zm6-1.46a.74.74 0 0 0-.08-.35.73.73 0 0 0-.34-.3c-.16-.09-.42-.17-.75-.24a5.86 5.86 0 0 1-.78-.2 2.34 2.34 0 0 1-.58-.3 1.15 1.15 0 0 1-.5-.97c0-.2.05-.4.14-.58.1-.18.22-.34.38-.48.17-.14.37-.25.6-.32.24-.08.5-.12.79-.12.4 0 .76.07 1.05.22.29.14.51.34.67.58.15.24.23.5.23.8h-.88a.75.75 0 0 0-.13-.41.95.95 0 0 0-.36-.34 1.18 1.18 0 0 0-.58-.13c-.25 0-.44.04-.6.11a.77.77 0 0 0-.32.28.7.7 0 0 0-.06.62c.04.07.1.14.19.2.08.06.2.12.36.17.15.06.35.11.59.16.42.1.76.21 1.04.34.27.14.47.3.6.5.14.19.2.42.2.7a1.34 1.34 0 0 1-.54 1.1 2 2 0 0 1-.63.3c-.24.08-.5.12-.8.12-.46 0-.84-.08-1.16-.25a1.78 1.78 0 0 1-.7-.62 1.49 1.49 0 0 1-.25-.81h.88c.01.24.09.43.21.57.13.14.28.24.47.3a1.83 1.83 0 0 0 1.14 0 .83.83 0 0 0 .38-.27.6.6 0 0 0 .13-.38Zm4.18-3.77v.68h-2.77v-.68h2.77Zm-1.83-1.24h.87v5.1c0 .18.03.3.08.4.06.08.13.14.21.17.09.03.18.04.28.04a1.51 1.51 0 0 0 .41-.05v.71a2.1 2.1 0 0 1-.68.1c-.2 0-.4-.05-.59-.13a.96.96 0 0 1-.43-.43 1.8 1.8 0 0 1-.15-.81v-5.1Zm5.85 5.01a.74.74 0 0 0-.09-.35.73.73 0 0 0-.34-.3c-.16-.09-.42-.17-.75-.24a5.9 5.9 0 0 1-.78-.2 2.34 2.34 0 0 1-.58-.3 1.15 1.15 0 0 1-.5-.97c0-.2.05-.4.14-.58.1-.18.22-.34.38-.48.17-.14.37-.25.6-.32.24-.08.5-.12.79-.12.4 0 .76.07 1.05.22.3.14.51.34.67.58.15.24.23.5.23.8h-.88a.74.74 0 0 0-.12-.41.95.95 0 0 0-.37-.34 1.18 1.18 0 0 0-.58-.13c-.24 0-.44.04-.6.11a.76.76 0 0 0-.32.28.7.7 0 0 0-.05.62c.03.07.1.14.18.2.08.06.2.12.36.17.15.06.35.11.59.16.42.1.77.21 1.04.34.27.14.47.3.6.5.14.19.2.42.2.7a1.34 1.34 0 0 1-.54 1.1 2 2 0 0 1-.63.3c-.24.08-.5.12-.8.12-.46 0-.84-.08-1.16-.25a1.78 1.78 0 0 1-.7-.62 1.49 1.49 0 0 1-.25-.81h.88a.9.9 0 0 0 .21.57c.13.14.28.24.47.3a1.83 1.83 0 0 0 1.14 0 .83.83 0 0 0 .38-.27.6.6 0 0 0 .13-.38Z" fill="#181818"/><rect x="152.83" y="72.56" width="37.06" height="6.44" rx="3.22" fill="#E7E7E7"/><path d="M296.25 104v.44l-2.57 5.77h-.84l2.57-5.56h-3.36V104h4.2Zm1.77-.34v6.55h-.79v-6.55h.8Zm-.19 4.07-.32-.01c0-.32.05-.61.14-.88.09-.27.22-.5.38-.7a1.71 1.71 0 0 1 1.35-.63c.23 0 .44.03.62.1.18.05.33.15.46.28.13.14.23.31.3.53.07.2.1.46.1.77v3.02h-.79v-3.03c0-.24-.04-.44-.1-.58a.66.66 0 0 0-.32-.32c-.13-.07-.3-.1-.5-.1a1.16 1.16 0 0 0-.95.46 1.73 1.73 0 0 0-.37 1.09ZM294.83 124.05v6.24h-.8v-5.26l-1.58.58v-.71l2.25-.85h.13Zm3.2-.31v6.55h-.8v-6.55h.8Zm-.2 4.07-.32-.01c0-.32.05-.61.14-.88.09-.27.22-.5.38-.7a1.71 1.71 0 0 1 1.35-.63c.23 0 .44.03.62.1.18.05.33.15.46.28.13.14.23.31.3.53.07.2.1.46.1.77v3.02h-.79v-3.03c0-.24-.04-.44-.1-.58a.65.65 0 0 0-.32-.32 1.1 1.1 0 0 0-.5-.1 1.16 1.16 0 0 0-.95.46 1.73 1.73 0 0 0-.37 1.09Z" fill="#3A3B3C"/><path d="M260.32 70.43v8.28h-1.42v-8.28h1.42Zm2.6 0v1.13h-6.6v-1.13h6.6Zm-.1 5.27v-.13c0-.45.06-.86.19-1.24s.31-.71.56-1c.24-.28.54-.5.9-.65.35-.16.75-.24 1.2-.24.45 0 .85.08 1.2.24.36.15.67.37.91.66.25.28.44.61.57 1 .12.37.19.78.19 1.23v.13c0 .44-.07.85-.2 1.23a2.61 2.61 0 0 1-2.66 1.89 2.62 2.62 0 0 1-2.67-1.89c-.13-.38-.2-.79-.2-1.23Zm1.37-.13v.13c0 .28.02.54.08.78a2 2 0 0 0 .27.65c.12.19.28.33.47.44.19.1.41.16.67.16a1.3 1.3 0 0 0 1.13-.6c.12-.18.21-.4.27-.65.06-.24.09-.5.09-.78v-.13c0-.27-.03-.53-.1-.78a1.95 1.95 0 0 0-.27-.65 1.3 1.3 0 0 0-1.13-.6c-.26 0-.48.05-.67.16-.19.1-.34.25-.46.44s-.21.4-.27.65c-.06.25-.08.5-.08.78Zm8.32-3.02v1h-3.47v-1h3.47Zm-2.47-1.5h1.37V77c0 .19.03.33.08.44.06.1.13.16.23.2.1.03.22.05.35.05a2.1 2.1 0 0 0 .48-.06l.01 1.05a3.54 3.54 0 0 1-.91.13 2 2 0 0 1-.84-.16c-.24-.12-.43-.3-.56-.55-.14-.26-.21-.6-.21-1.02v-6.04Zm7 6.42v-2.93c0-.22-.04-.41-.12-.57a.83.83 0 0 0-.37-.37 1.24 1.24 0 0 0-.6-.13c-.22 0-.42.04-.58.11a.94.94 0 0 0-.38.31.74.74 0 0 0-.14.44h-1.36c0-.24.06-.48.17-.7.12-.23.3-.44.51-.62.23-.17.5-.31.8-.42.32-.1.67-.15 1.05-.15.47 0 .88.08 1.23.23.36.16.65.4.85.7.2.32.31.71.31 1.18v2.74c0 .28.02.53.06.75.04.22.1.41.18.58v.09h-1.4a2.46 2.46 0 0 1-.16-.57 4.62 4.62 0 0 1-.05-.67Zm.2-2.5v.84h-.98c-.25 0-.47.03-.67.08-.2.04-.35.11-.48.2a.9.9 0 0 0-.39.77c0 .16.04.31.11.45a.8.8 0 0 0 .34.31c.14.08.32.12.53.12a1.51 1.51 0 0 0 1.23-.6.93.93 0 0 0 .2-.49l.44.61a2.43 2.43 0 0 1-.67 1.01 2.15 2.15 0 0 1-1.47.55c-.4 0-.76-.08-1.07-.24a1.91 1.91 0 0 1-.74-.65 1.95 1.95 0 0 1-.08-1.8c.12-.26.3-.47.54-.64.24-.17.54-.3.89-.39.34-.09.74-.13 1.2-.13h1.07Zm4.07-5v8.74h-1.37v-8.74h1.37Zm1.52 8.06c0-.22.07-.4.22-.54a.78.78 0 0 1 .58-.22c.25 0 .45.07.6.22.13.14.2.32.2.54 0 .2-.06.39-.2.53a.78.78 0 0 1-.6.22.8.8 0 0 1-.58-.22.73.73 0 0 1-.22-.53Zm0-4.85a.78.78 0 0 1 .8-.76c.26 0 .46.08.6.22.14.15.21.33.21.54 0 .21-.07.39-.21.53a.78.78 0 0 1-.59.22.8.8 0 0 1-.58-.22.73.73 0 0 1-.22-.53Zm11.3 3.27c0 .52-.13.95-.36 1.3-.24.36-.57.62-.98.8-.41.18-.88.27-1.39.27-.52 0-.98-.09-1.4-.27a2.24 2.24 0 0 1-.97-.8 2.27 2.27 0 0 1-.36-1.3 2.13 2.13 0 0 1 .76-1.65c.25-.2.54-.36.87-.47.33-.11.7-.17 1.09-.17.52 0 .99.1 1.4.3.42.19.74.45.98.8.24.34.35.73.35 1.19Zm-1.38-.07c0-.28-.06-.52-.17-.73a1.2 1.2 0 0 0-.48-.48c-.2-.11-.44-.17-.71-.17-.27 0-.51.06-.71.17-.2.11-.36.27-.48.48-.1.21-.16.45-.16.73 0 .28.06.52.16.73.12.2.27.35.48.46.2.1.44.16.72.16.28 0 .52-.05.72-.16.2-.1.35-.26.46-.46.11-.2.17-.45.17-.73Zm1.19-3.78c0 .42-.11.79-.33 1.1-.22.33-.52.58-.9.77-.38.18-.82.27-1.31.27-.5 0-.93-.09-1.32-.27a2.27 2.27 0 0 1-.9-.76 1.94 1.94 0 0 1-.33-1.1c0-.5.1-.91.32-1.25.22-.34.53-.6.91-.78.38-.18.82-.27 1.31-.27.5 0 .94.1 1.32.27a2.08 2.08 0 0 1 1.23 2.02Zm-1.37.05c0-.25-.05-.46-.15-.65a1.07 1.07 0 0 0-1.03-.6c-.24 0-.44.05-.62.15-.17.1-.3.25-.4.43-.1.19-.14.41-.14.67 0 .25.04.48.14.67.1.18.23.33.4.43.18.11.4.16.63.16.24 0 .45-.05.62-.16.17-.1.3-.25.4-.43.1-.2.15-.42.15-.67Zm4.2-2.68v8.74h-1.37v-8.74h1.36Zm-.25 5.43h-.44c0-.43.06-.82.18-1.18s.28-.67.49-.94a2.17 2.17 0 0 1 1.74-.84c.3 0 .58.04.82.12.25.09.46.22.64.4.18.2.31.43.4.73.1.29.14.64.14 1.06v3.96h-1.37v-3.97c0-.3-.05-.53-.13-.7a.76.76 0 0 0-.37-.38 1.35 1.35 0 0 0-.6-.12c-.25 0-.46.05-.65.15-.19.1-.35.23-.47.4-.13.18-.22.37-.28.6-.06.22-.1.46-.1.71Z" fill="#181818"/><g filter="url(#c)"><mask id="d" maskUnits="userSpaceOnUse" x="221.7" y="166.25" width="21" height="25" fill="#000"><path fill="#fff" d="M221.7 166.25h21v25h-21z"/><path fill-rule="evenodd" clip-rule="evenodd" d="m228.59 180.94-1.13-1.72a2.9 2.9 0 0 0-3.68-.96l.3-.14a.73.73 0 0 0-.34.88l1.57 4.04c.25.64.88 1.54 1.4 2 0 0 3.15 2.59 3.15 3.56v1.23h5.1l1.28-2.54 1.27 2.54h1.28v-1.23c0-.97 1.92-4.04 1.92-4.04.35-.6.65-1.64.65-2.34v-5.12a2.15 2.15 0 0 0-2.19-2.05c-.6 0-1.08.46-1.08 1.02v.41c0-1.13-.97-2.05-2.16-2.05-.6 0-1.08.46-1.08 1.03v.4c0-1.13-.97-2.05-2.16-2.05-.6 0-1.09.46-1.09 1.03v.41c0-.18-.02-.33-.05-.44l-.33-5.3a1.36 1.36 0 0 0-1.36-1.26c-.7 0-1.27.56-1.27 1.27v11.42Zm8.94-1.27h1.28v5.08h-1.28v-5.08Zm-2.55 0h1.28v5.08h-1.28v-5.08Zm-2.55 0h1.28v5.08h-1.28v-5.08Z"/></mask><path fill-rule="evenodd" clip-rule="evenodd" d="m228.59 180.94-1.13-1.72a2.9 2.9 0 0 0-3.68-.96l.3-.14a.73.73 0 0 0-.34.88l1.57 4.04c.25.64.88 1.54 1.4 2 0 0 3.15 2.59 3.15 3.56v1.23h5.1l1.28-2.54 1.27 2.54h1.28v-1.23c0-.97 1.92-4.04 1.92-4.04.35-.6.65-1.64.65-2.34v-5.12a2.15 2.15 0 0 0-2.19-2.05c-.6 0-1.08.46-1.08 1.02v.41c0-1.13-.97-2.05-2.16-2.05-.6 0-1.08.46-1.08 1.03v.4c0-1.13-.97-2.05-2.16-2.05-.6 0-1.09.46-1.09 1.03v.41c0-.18-.02-.33-.05-.44l-.33-5.3a1.36 1.36 0 0 0-1.36-1.26c-.7 0-1.27.56-1.27 1.27v11.42Zm8.94-1.27h1.28v5.08h-1.28v-5.08Zm-2.55 0h1.28v5.08h-1.28v-5.08Zm-2.55 0h1.28v5.08h-1.28v-5.08Z" fill="#fff"/><path d="m228.59 180.94-.88.58 1.93 2.95v-3.53h-1.05Zm-1.13-1.72.88-.57-.88.57Zm-3.72-.22-.98.39.98-.38Zm1.57 4.04.98-.39-.98.39Zm1.4 2-.69.8h.02l.67-.8Zm3.15 4.8h-1.05v1.05h1.05v-1.06Zm5.1 0v1.05h.65l.3-.58-.95-.48Zm1.28-2.55.94-.47-.94-1.88-.95 1.88.95.47Zm1.27 2.54-.94.48.29.58h.65v-1.06Zm1.28 0v1.06h1.05v-1.06h-1.05Zm1.92-5.27.9.56v-.02l-.9-.54Zm.65-7.46h1.05v-.02l-1.05.02Zm-9.81-2.3-1.06.07.01.14.04.13 1-.33Zm-.33-5.28-1.06.06 1.06-.06Zm-2.63 0h-1.06 1.06Zm10.22 10.15h1.05v-1.05h-1.05v1.05Zm0 5.08v1.06h1.05v-1.06h-1.05Zm-1.28 0h-1.05v1.06h1.05v-1.06Zm0-5.08v-1.05h-1.05v1.05h1.05Zm-1.27 0h1.06v-1.05h-1.06v1.05Zm0 5.08v1.06h1.06v-1.06h-1.06Zm-1.28 0h-1.05v1.06h1.05v-1.06Zm0-5.08v-1.05h-1.05v1.05h1.05Zm-2.55 0v-1.05h-1.06v1.05h1.06Zm1.28 0h1.05v-1.05h-1.05v1.05Zm0 5.08v1.06h1.05v-1.06h-1.05Zm-1.28 0h-1.06v1.06h1.06v-1.06Zm-2.96-4.38-1.13-1.72-1.77 1.15 1.14 1.72 1.76-1.16Zm-1.13-1.72a3.96 3.96 0 0 0-5.04-1.32l.96 1.88c.79-.4 1.84-.13 2.31.6l1.77-1.16Zm-4.08.56.3-.16-.97-1.88-.29.16.96 1.88Zm-.66-2.03a1.78 1.78 0 0 0-.84 2.2l1.97-.76c.03.1.03.19 0 .25a.35.35 0 0 1-.17.19l-.97-1.88Zm-.84 2.2 1.56 4.04 1.97-.77-1.56-4.03-1.97.77Zm1.56 4.04c.31.8 1.05 1.84 1.7 2.41l1.38-1.6c-.39-.33-.92-1.1-1.1-1.58l-1.98.77Zm2.4 1.61-.68.82.03.02.1.08a20.76 20.76 0 0 1 2.37 2.33c.12.16.2.3.25.38.06.1.02.07.02-.06h2.1a2 2 0 0 0-.25-.92 4.73 4.73 0 0 0-.46-.7 13.5 13.5 0 0 0-1.17-1.28 28.25 28.25 0 0 0-1.5-1.36l-.1-.09c-.02 0-.03-.02-.03-.02h-.01v-.01l-.68.81Zm2.09 3.57v1.23h2.1v-1.23h-2.1Zm1.05 2.29h5.1v-2.11h-5.1v2.1Zm6.04-.58 1.28-2.54-1.89-.95-1.27 2.54 1.88.95Zm-.6-2.54 1.27 2.54 1.88-.95-1.27-2.54-1.89.95Zm2.21 3.12h1.28v-2.11h-1.28v2.1Zm2.33-1.06v-1.23h-2.11v1.23h2.11Zm0-1.23.04-.15.18-.48a31.26 31.26 0 0 1 1.47-2.72l.05-.1a1.21 1.21 0 0 0 .02-.02l-.9-.57-.88-.56-.01.01-.02.03-.06.1a24.8 24.8 0 0 0-.91 1.58c-.25.45-.5.96-.7 1.43-.18.41-.39.97-.39 1.45h2.11Zm1.78-3.5c.24-.4.43-.9.56-1.38.14-.48.23-1.02.23-1.5h-2.1c0 .22-.06.56-.16.93-.1.36-.23.68-.35.88l1.82 1.07Zm.8-2.88v-5.12h-2.12v5.12h2.11Zm0-5.14a3.2 3.2 0 0 0-3.25-3.09v2.11c.66 0 1.12.5 1.13 1.02l2.11-.04Zm-3.25-3.09c-1.13 0-2.13.88-2.13 2.08h2.1v.04h.03v-2.12Zm-2.13 2.08v.41h2.1v-.4h-2.1Zm2.1.41c0-1.76-1.49-3.1-3.21-3.1v2.1c.66 0 1.1.5 1.1 1h2.12Zm-3.21-3.1c-1.13 0-2.14.88-2.14 2.08h2.11v.03s-.01 0 0 0h.03v-2.12Zm-2.14 2.08v.4h2.11v-.4h-2.1Zm2.11.4c0-1.76-1.49-3.1-3.22-3.1v2.11c.67 0 1.11.5 1.11 1h2.11Zm-3.22-3.1c-1.12 0-2.13.88-2.13 2.08h2.1v.04l.03-.01v-2.11Zm-2.13 2.08v.41h2.1v-.4h-2.1Zm2.1.41c0-.25-.02-.51-.1-.77l-2 .66c-.01-.02-.01-.02 0 0v.11h2.1Zm-.05-.5-.33-5.3-2.1.13.32 5.3 2.1-.14Zm-.33-5.3a2.42 2.42 0 0 0-2.4-2.26v2.11c.15 0 .28.13.3.28l2.1-.13Zm-2.4-2.26a2.33 2.33 0 0 0-2.34 2.33h2.11c0-.12.1-.22.22-.22v-2.1Zm-2.34 2.33v5.08h2.11v-5.08h-2.1Zm0 5.08v6.34h2.11v-6.34h-2.1Zm10 6.13h1.28v-2.11h-1.28v2.11Zm.22-1.06v5.08h2.11v-5.08h-2.1Zm1.06 4.03h-1.28v2.1h1.28v-2.1Zm-.22 1.05v-5.08h-2.11v5.08h2.1Zm-3.6-4.02h1.27v-2.11h-1.28v2.11Zm.21-1.06v5.08h2.12v-5.08h-2.12Zm1.06 4.03h-1.28v2.1h1.28v-2.1Zm-.22 1.05v-5.08h-2.11v5.08h2.11Zm-3.61-4.02h1.28v-2.11h-1.28v2.11Zm.22-1.06v5.08h2.11v-5.08h-2.11Zm1.06 4.03h-1.28v2.1h1.28v-2.1Zm-.22 1.05v-5.08h-2.12v5.08h2.12Z" fill="#000" fill-opacity=".8" mask="url(#d)"/></g></g><defs><filter id="b" x="88.11" y="59" width="277.19" height="199.59" filterUnits="userSpaceOnUse" color-interpolation-filters="sRGB"><feFlood flood-opacity="0" result="BackgroundImageFix"/><feColorMatrix in="SourceAlpha" values="0 0 0 0 0 0 0 0 0 0 0 0 0 0 0 0 0 0 127 0" result="hardAlpha"/><feOffset dy="1.76"/><feGaussianBlur stdDeviation=".7"/><feColorMatrix values="0 0 0 0 0 0 0 0 0 0 0 0 0 0 0 0 0 0 0.0196802 0"/><feBlend in2="BackgroundImageFix" result="effect1_dropShadow_11821_142768"/><feColorMatrix in="SourceAlpha" values="0 0 0 0 0 0 0 0 0 0 0 0 0 0 0 0 0 0 127 0" result="hardAlpha"/><feOffset dy="4.22"/><feGaussianBlur stdDeviation="1.69"/><feColorMatrix values="0 0 0 0 0 0 0 0 0 0 0 0 0 0 0 0 0 0 0.0282725 0"/><feBlend in2="effect1_dropShadow_11821_142768" result="effect2_dropShadow_11821_142768"/><feColorMatrix in="SourceAlpha" values="0 0 0 0 0 0 0 0 0 0 0 0 0 0 0 0 0 0 127 0" result="hardAlpha"/><feOffset dy="7.94"/><feGaussianBlur stdDeviation="3.18"/><feColorMatrix values="0 0 0 0 0 0 0 0 0 0 0 0 0 0 0 0 0 0 0.035 0"/><feBlend in2="effect2_dropShadow_11821_142768" result="effect3_dropShadow_11821_142768"/><feColorMatrix in="SourceAlpha" values="0 0 0 0 0 0 0 0 0 0 0 0 0 0 0 0 0 0 127 0" result="hardAlpha"/><feOffset dy="14.17"/><feGaussianBlur stdDeviation="5.67"/><feColorMatrix values="0 0 0 0 0 0 0 0 0 0 0 0 0 0 0 0 0 0 0.0417275 0"/><feBlend in2="effect3_dropShadow_11821_142768" result="effect4_dropShadow_11821_142768"/><feColorMatrix in="SourceAlpha" values="0 0 0 0 0 0 0 0 0 0 0 0 0 0 0 0 0 0 127 0" result="hardAlpha"/><feOffset dy="26.5"/><feGaussianBlur stdDeviation="10.6"/><feColorMatrix values="0 0 0 0 0 0 0 0 0 0 0 0 0 0 0 0 0 0 0.0503198 0"/><feBlend in2="effect4_dropShadow_11821_142768" result="effect5_dropShadow_11821_142768"/><feColorMatrix in="SourceAlpha" values="0 0 0 0 0 0 0 0 0 0 0 0 0 0 0 0 0 0 127 0" result="hardAlpha"/><feOffset dy="63.42"/><feGaussianBlur stdDeviation="25.37"/><feColorMatrix values="0 0 0 0 0 0 0 0 0 0 0 0 0 0 0 0 0 0 0.07 0"/><feBlend in2="effect5_dropShadow_11821_142768" result="effect6_dropShadow_11821_142768"/><feBlend in="SourceGraphic" in2="effect6_dropShadow_11821_142768" result="shape"/></filter><filter id="c" x="219.47" y="165.08" width="26.11" height="30.03" filterUnits="userSpaceOnUse" color-interpolation-filters="sRGB"><feFlood flood-opacity="0" result="BackgroundImageFix"/><feColorMatrix in="SourceAlpha" values="0 0 0 0 0 0 0 0 0 0 0 0 0 0 0 0 0 0 127 0" result="hardAlpha"/><feOffset dy="1.06"/><feGaussianBlur stdDeviation="1.58"/><feColorMatrix values="0 0 0 0 0 0 0 0 0 0 0 0 0 0 0 0 0 0 0.2 0"/><feBlend in2="BackgroundImageFix" result="effect1_dropShadow_11821_142768"/><feBlend in="SourceGraphic" in2="effect1_dropShadow_11821_142768" result="shape"/></filter><clipPath id="a"><path fill="#fff" d="M0 0h364v416H0z"/></clipPath></defs></svg>