<svg xmlns="http://www.w3.org/2000/svg" width="205" height="132" fill="none"><g clip-path="url(#a)"><g opacity=".3"><path fill="#F4F4F4" d="M90.12 4.93H4.95V85.7h85.17V4.93Z" opacity=".1"/><path fill="#fff" d="M4.72 42.47h17.14V4.93h1.41v37.54h46.3V4.93h1.41v37.54h18.9v1.41h-18.9v41.43h-1.42V43.88H23.27v41.43h-1.41V43.88H4.72v-1.4Z" opacity=".1"/><path fill="#292A2E" d="M1.33 85.2H0v2.82h1.33V85.2Z" opacity=".1"/><path fill="#292A2E" d="M1.33 85.2H0v2.82h1.33V85.2Z" opacity=".1"/></g><path fill="#0C0C0C" d="M62.15 42.48s3.7-3.17 4.2-9.95c.4-5.25-4.2-1.56-4.2-1.56s.25-3.79-2.47-3.23c-2.72.55-4 4.6-4 4.6M45.51 29.12s-13.53 2.37-7.36 20.4h3.67"/><path fill="#E98862" d="M60.75 68.28c-.06-.01-.73 10.99-13.57 10.03-8.9-.66-12.06-10.05-12.27-10.05.96-.2 2.58-.5 3-.72 1.4-.75 3.14-1.53 3.59-4.23.26-1.56-.18-9.54-.05-11.11l13.65 3.03c-.2 3.33-1.53 11.05 3.15 12.42.78.22 1.62.43 2.5.63Z"/><path fill="#0C0C0C" d="M55.3 64.49a9.8 9.8 0 0 1-.42-2.1c-.15-1.64-.12-3.28.1-4.9a15 15 0 0 1-7.55-3.3c-.25.94-1.65 5-1.26 5.89.73 1.67 4.16 4.41 9.12 4.41Z" opacity=".52"/><path fill="#E98862" d="M52.86 61.83c-5.4-.12-12.06-3.07-12.64-10.31l-.52-6.54c-.58-7.25 2.77-13.43 9.63-13.98 6.86-.54 12.46 4.93 13.04 12.18l.24 2.9c.06.99.05 1.99-.02 2.98-.18 2.63-.46 6.63-2.06 9.43-1.5 2.64-4.21 3.42-7.67 3.34Z"/><path fill="#0C0C0C" d="M60.34 47.62c.47 0 .85-.38.85-.84a.85.85 0 0 0-.85-.84.85.85 0 0 0-.85.84c0 .46.38.84.85.84ZM52.56 47.67c.47 0 .85-.37.85-.84a.85.85 0 0 0-.85-.84.85.85 0 0 0-.85.84c0 .47.38.84.85.84Z"/><path fill="#E98862" d="M40.83 53.69c-2.09.17-3.96-1.92-4.12-4-.17-2.07 1.43-3.34 3.51-3.5l1.19 1.3 1.2 6.06-1.78.14Z"/><path fill="#0C0C0C" d="M42.68 50.22s.01-10.31 3.1-11.16c2.05-.56 7.3 2.05 11.93.85 2.02-.53 4-.16 4.26.8.1.37 1.01-5.19-2.48-9.13-2.77-3.14-11.2-3.52-14.92-2.18-10.32 3.7-4.74 17.26-4.74 17.26l.7 3.5 2.15.06Z"/><path fill="#0C0C0C" d="M56.15 52.7h.02c.67-.05 1.79-.2 1.75-.7-.03-.42-1.52-4.8-1.69-5.3a.17.17 0 0 0-.21-.1.17.17 0 0 0-.11.2 93.68 93.68 0 0 1 1.67 5.22c-.06.12-.75.29-1.44.34a.17.17 0 0 0-.17.18.17.17 0 0 0 .18.16Z" opacity=".52"/><path fill="#0C0C0C" d="M57.65 42.42a4.06 4.06 0 0 1 3.14.2c.3.17.6.38.86.61a.22.22 0 0 1-.12.38c-.06 0-.11 0-.16-.04l-.01-.01c-.24-.2-.5-.36-.79-.5a3.47 3.47 0 0 0-2.66-.05l-.02.02a.33.33 0 0 1-.37-.53.33.33 0 0 1 .11-.07l.02-.01ZM52.68 43.09a3.47 3.47 0 0 0-2.66.05c-.28.13-.55.3-.79.49h-.01a.22.22 0 0 1-.35-.18c0-.06.03-.11.07-.15a4.19 4.19 0 0 1 1.86-.96c.72-.14 1.45-.09 2.14.15a.33.33 0 0 1 .19.42.33.33 0 0 1-.41.2l-.02-.01-.02-.01Z"/><path fill="#fff" d="M56.98 54.4a8.9 8.9 0 0 1-5.62-1.22.36.36 0 0 0-.54.36c.2 1.15.87 3.24 3.31 3.39 1.58.1 2.66-1.16 3.2-1.98a.36.36 0 0 0-.35-.55Z"/><path fill="#0C0C0C" d="M56.15 35.38c1.53-.43 2.25-2.58 1.63-4.8-.63-2.24-2.37-3.7-3.9-3.28-1.52.43-2.25 2.58-1.62 4.8.63 2.24 2.37 3.7 3.9 3.28Z"/><path fill="#578BEB" d="M46.93 75.57c-8.93-.42-9.3-7.96-9.3-7.96s-4.43.28-7.37.68c-4.81.65-7.99 2.27-10.52 4.79-2.35 2.33-3.78 4.86-2.26 21.02 1.1 11.7-.05 37.8-.05 37.8H71.3s3.6-34.1 4.05-39.36c.86-10.06 1.56-18.81-.54-20.9-4.31-4.29-12.78-4.03-16.49-4.03-.06 0 .76 8.53-11.4 7.96Z"/><path fill="#578BEB" d="m125.56 131.18-38.91.19a9.84 9.84 0 0 1-8.47-6.28l-19.2-42.35a9.72 9.72 0 0 1 5.7-12.6c5.07-1.92 10.08-.63 12 4.42l17.63 37.77 32.04.52s-.55 18.34-.79 18.33Z"/><path fill="#0C0C0C" d="M74.6 94.89a.13.13 0 0 1 .13-.13.13.13 0 0 1 .13.14l-1.1 17.4c0 .04-.01.07-.04.1a.13.13 0 0 1-.1.03l-.05-.01a.13.13 0 0 1-.07-.08v-.05"/><path fill="#E98862" d="m81.23 113.55-7.89-2.75 1.13-.08a1.46 1.46 0 0 0 1.32-1.46 1.37 1.37 0 0 0-.49-.98 1.4 1.4 0 0 0-1.05-.32l-13.96 1.47.36 4.47a6.96 6.96 0 0 0 4.9 6.1l6.04 1.87a1.44 1.44 0 0 0 1.7-.64 1.38 1.38 0 0 0-.23-1.63.13.13 0 0 0 .04-.05l.01-.06a.13.13 0 0 0-.02-.06l1.11.35a1.45 1.45 0 0 0 1.8-.82 1.38 1.38 0 0 0-.6-1.68l.04-.02.45.14a1.43 1.43 0 0 0 1.7-.64 1.38 1.38 0 0 0-.51-1.86v-.03l3.29 1.15a1.3 1.3 0 0 0 1.42-.35 1.31 1.31 0 0 0 .2-1.45 1.31 1.31 0 0 0-.75-.67Z"/><path fill="#0A0A0A" d="M76.95 115h-.05l-3.18-1.16a.13.13 0 0 1-.04-.02.14.14 0 0 1-.05-.1.13.13 0 0 1 .08-.12l.05-.01.05.01 3.18 1.15c.03.01.06.03.07.06.02.02.02.05.02.08s-.02.06-.05.08a.13.13 0 0 1-.08.03ZM75.34 117.3h-.04l-2.5-.9a.13.13 0 0 1-.01-.24.13.13 0 0 1 .1 0l2.5.89c.03 0 .05.03.07.05.01.03.02.06.01.1a.13.13 0 0 1-.13.1ZM72.98 119.63h-.05l-1.17-.45a.13.13 0 0 1 0-.24.13.13 0 0 1 .1 0l1.17.44a.13.13 0 0 1 .08.15c0 .03-.02.05-.05.07a.13.13 0 0 1-.08.03Z" opacity=".2"/><path fill="#578BEB" d="m66.14 123.27-48.93 8.06a9.87 9.87 0 0 1-10.46-6.87 9.72 9.72 0 0 1-.29-4.46L16.9 78.43a9.76 9.76 0 0 1 3.99-6.33 9.86 9.86 0 0 1 13.7 2.29 9.73 9.73 0 0 1 1.67 7.28l-8 28.98 35.55-4.83 2.33 17.45Z"/><path fill="#0C0C0C" d="M21.89 111.56a.13.13 0 0 1-.1-.21.13.13 0 0 1 .08-.05l6.1-.91h.05l.04.02.04.04.02.05a.13.13 0 0 1-.11.15l-6.1.9h-.02Z"/><path fill="#0C0C0C" d="M18.57 131.52a.14.14 0 0 1-.1-.03.13.13 0 0 1 .08-.23l47.3-8.1-2.28-17.18-35.31 4.67h-.06a.13.13 0 0 1-.08-.1v-.05l3.81-16.4a.13.13 0 0 1 .06-.08.13.13 0 0 1 .14 0 .13.13 0 0 1 .06.13l-3.79 16.22 35.26-4.67h.06l.04.03c.02 0 .03.02.04.04l.01.05 2.32 17.45c0 .03 0 .07-.02.1a.13.13 0 0 1-.09.04l-47.43 8.11h-.02Z"/><path fill="#343D59" d="m104.16 127.48 12.7-39.4a3.45 3.45 0 0 1 3.26-2.38h51.76a3.39 3.39 0 0 1 2.76 1.42 3.48 3.48 0 0 1 .49 3.1l-12.7 39.4a3.45 3.45 0 0 1-3.26 2.38h-51.76a3.4 3.4 0 0 1-2.77-1.42 3.46 3.46 0 0 1-.48-3.1Z"/><path fill="#343D59" d="M114.2 129.04H79.25c-.87 0-1.58.7-1.58 1.57v.04c0 .87.7 1.57 1.58 1.57h34.93c.88 0 1.58-.7 1.58-1.57v-.04c0-.86-.7-1.57-1.58-1.57Z"/><path fill="#fff" d="M139.52 115.6a5.46 5.46 0 0 0 5.47-5.45c0-3.01-2.45-5.45-5.47-5.45a5.46 5.46 0 0 0-5.47 5.45c0 3 2.45 5.44 5.47 5.44Z" opacity=".1"/></g><path fill="#26D37C" fill-rule="evenodd" d="M21.86 17.66a9.93 9.93 0 0 0-16.9 6.97 9.82 9.82 0 0 0 2.9 6.96 9.93 9.93 0 0 0 16.9-6.96 9.82 9.82 0 0 0-2.9-6.97Zm-1.06 4.5-6.93 6.9-4.46-4.43 1.4-1.4 3.06 3.04 5.53-5.5 1.4 1.4Z" clip-rule="evenodd"/><path fill="#E2D9F7" d="M102 34.52a3 3 0 0 1 3-3h64.32a3 3 0 0 1 3 3v13.8a3 3 0 0 1-3 3h-64.31a3 3 0 0 1-3-3v-13.8Z"/><path fill="#B1A3D1" d="M161.43 47.28a5.93 5.93 0 0 0 5.94-5.9 5.93 5.93 0 0 0-5.94-5.92 5.93 5.93 0 0 0-5.95 5.91 5.93 5.93 0 0 0 5.95 5.91Z"/><path fill="#fff" d="M164.46 41.36a3.02 3.02 0 0 1-3.04 3.05 3.05 3.05 0 0 1-3.04-3.05h6.08ZM159.28 39.52a.52.52 0 1 0-.52-.52c0 .29.24.52.52.52ZM163.57 39.52a.52.52 0 1 0-.52-.52c0 .29.24.52.52.52Z"/><rect width="34.05" height="3.52" x="105.98" y="36.36" fill="#675299" opacity=".4" rx="1.76"/><rect width="21.31" height="2.83" x="106.13" y="43.43" fill="#675299" opacity=".2" rx="1.41"/><path fill="#C0F8C7" d="M134.24 61.81a3 3 0 0 1 3-3H202a3 3 0 0 1 3 3v13.8a3 3 0 0 1-3 3h-64.76a3 3 0 0 1-3-3V61.8Z"/><path fill="#26D37C" d="M194.1 74.87a5.93 5.93 0 0 0 5.95-5.91 5.93 5.93 0 0 0-5.94-5.92 5.93 5.93 0 0 0-5.95 5.92 5.93 5.93 0 0 0 5.95 5.9Z"/><path fill="#fff" d="M197.14 68.95a3 3 0 0 1-1.87 2.8 3.06 3.06 0 0 1-3.98-1.64 3 3 0 0 1-.23-1.16h6.08ZM191.96 67.1a.52.52 0 1 0 0-1.03.52.52 0 0 0-.51.51c0 .29.23.52.51.52ZM196.25 67.1a.52.52 0 1 0 0-1.03.52.52 0 0 0-.52.51c0 .29.24.52.52.52Z"/><rect width="36.7" height="3.52" x="138.66" y="63.65" fill="#26D37C" opacity=".4" rx="1.76"/><rect width="24.16" height="2.83" x="138.51" y="70.83" fill="#26D37C" opacity=".2" rx="1.41"/><defs><clipPath id="a"><path fill="#fff" d="M0 0h204.01v132H0z"/></clipPath></defs></svg>