<svg xmlns="http://www.w3.org/2000/svg" width="48" height="48" fill="none"><path d="M36.5 11.5h-25v25h25v-25z" fill="#fff"/><path d="M36.5 48L48 36.5H36.5V48z" fill="#f72a25"/><path d="M48 11.5H36.5v25H48v-25z" fill="#fbbc04"/><path d="M36.5 36.5h-25V48h25V36.5z" fill="#34a853"/><path d="M0 36.5v7.7c0 2 1.7 3.8 3.8 3.8h7.7V36.5H0z" fill="#188038"/><path d="M48 11.5V3.8c0-2-1.7-3.8-3.8-3.8h-7.7v11.5H48z" fill="#1967d2"/><path d="M36.5 0H3.8C1.7 0 0 1.7 0 3.8v32.7h11.3V11.3h25.2V0z" fill="#4285f4"/><path d="M16.5 31a5 5 0 01-2-2.8l2.2-.9c.2.8.6 1.4 1 1.8s1.2.6 1.9.6 1.3-.2 1.9-.7.7-1 .7-1.6c0-.7-.2-1.3-.8-1.7s-1.2-.7-2-.7H18v-2.2h1.1c.7 0 1.3-.2 1.8-.6s.7-.9.7-1.5-.2-1.1-.6-1.4-1-.6-1.7-.6c-.6 0-1.1.2-1.5.5s-.7.8-.9 1.3l-2.1-.9c.2-.8.8-1.5 1.6-2.2s1.7-1 3-1c.9 0 1.7.3 2.4.6s1.3.8 1.7 1.4.6 1.4.6 2.1c0 .8-.2 1.5-.6 2s-.8 1-1.4 1.2v.2c.7.3 1.3.7 1.8 1.4.5.6.7 1.3.7 2.2s-.2 1.6-.7 2.3-1 1.2-1.8 1.6a5.7 5.7 0 01-5.7-.4zM30 20l-2.4 1.8-1.2-1.8 4.3-3.2h1.7v14.9h-2.4V20z" fill="#1a73e8"/></svg>