<svg width="1950" height="1080" fill="none" xmlns="http://www.w3.org/2000/svg"><g clip-path="url(#clip0)"><path fill="#fff" d="M0 0h1950v1080H0z"/><path d="M2200.5 898.68C2200.5 1482.17 581.44 1126-2.05 1126c-583.49 0-398-812.5 169.64-542.84 567.63 269.67 731 52 1034.5-118S2033 322.68 2200.5 898.68z" fill="#5699FF"/><path opacity=".05" d="M2200.5 820.68C2200.5 1404.17 581.44 1048-2.05 1048c-583.49 0-398-812.5 169.64-542.84 567.63 269.67 731 52 1034.5-118S2033 244.68 2200.5 820.68z" fill="#5699FF"/></g><defs><clipPath id="clip0"><path fill="#fff" d="M0 0h1950v1080H0z"/></clipPath></defs></svg>