<svg width="419" height="317" xmlns="http://www.w3.org/2000/svg" xmlns:xlink="http://www.w3.org/1999/xlink"><defs><path id="a" d="M.36.59h41.545v68.073H.36z"/><path id="c" d="M0 .292h265.594V83H0z"/><path id="e" d="M0 .228h55.365V55.6H0z"/></defs><g fill="none" fill-rule="evenodd"><path d="M166.546 134.693c7.285 53.344-13.375 82.12-49.062 86.929-35.097 4.73-66.708-35.46-69.307-89.24-2.6-53.782 23.801-101.616 59.172-103.34 26.451-1.29 40.63 27.365 47.54 65.209 2.876 15.747 10.205 29.81 11.657 40.442" fill="#FDB581"/><path d="M167.51 134.617c-1.489-10.543-9.004-24.488-11.952-40.104C153.049 81.23 149.605 69.088 145 59l.046 5.582.081.153c2.395 3.242 4.041 6.956 4.587 11.25.054.428.1.856.138 1.284 1.957 7.826 2.535 16.058 2.905 24.117.354 7.72.622 15.418 1.899 23.058.33 1.5.649 3.003.941 4.51 2.685 13.854 5.444 27.696 7.987 41.575.64 3.487 1.264 6.977 1.872 10.471 3.78-12.53 4.652-27.98 2.054-46.383" fill="#FFC299"/><path d="M128.483 259.792l-1.963 2.777c-11.117 15.716-33.85 16.696-46.246 1.994-1.792-2.126-6.053-.366-6.072-3.16l2.718-7.09a69.273 69.273 0 0 0 3.567-12.812c.368-2.096.678-4.123.754-5.428.787-13.358-1.788-44.28-8.072-60.76L70 167l75 13.093-19.023 28.302c-.017 10.482-1.048 25.005 1.702 35.11l2.608 9.58a10.07 10.07 0 0 1-1.804 6.707" fill="#FDB581"/><path d="M129 217.522s-32.17.883-36.737-2.13c-4.567-3.014 4.226 12.195 10.863 17.089C113.326 240 127.254 240 127.254 240l-.78-20.47 2.526-2.008z" fill="#DD905B"/><path d="M167.227 132s11.542 7.69 13.554 33.486c2.01 25.795-9.58 46.13-43.56 55.617-33.98 9.488-99.164-1.34-86.646-77.846 0 0 20.1 18.08 44.802 19.593 24.7 1.514 72.613-17.6 71.85-30.85" fill="#66330C"/><g transform="translate(377 62)"><mask id="b" fill="#fff"><use xlink:href="#a"/></mask><path d="M34.387 41.231c-8.92 18.276-22.052 30.293-29.332 26.841C-2.224 64.62-.893 47.006 8.027 28.73S27.236-2.692 34.219 1.31c11.302 6.478 9.088 21.645.168 39.921" fill="#FDB581" mask="url(#b)"/></g><path d="M387.643 103.161c-2.734 10.175-8.101 17.68-11.989 16.763-3.886-.917-4.82-9.91-2.087-20.085s7.404-17.68 11.29-16.763c3.888.918 5.519 9.91 2.786 20.085" fill="#FDB581"/><path d="M246.416 250.866s47.52-11.03 81.116-51.138c0 0 35.039-42.187 45.196-81.116 10.157-38.93 19.272 7.21 19.272 7.21s-5.47 48.497-24.22 77.595c-18.752 29.099-43.754 74.188-107.3 100.403-54.464 22.468-14.064-52.954-14.064-52.954" fill="#FDB581"/><g transform="translate(0 234)"><mask id="d" fill="#fff"><use xlink:href="#c"/></mask><path d="M0 83S14.156 55.253 31.72 40.07c17.565-15.182 33.033-21.203 47.976-21.464 14.942-.262 35.13 6.806 41.028 2.879 5.898-3.926 4.85-15.706 33.95-20.418s63.18 13.612 75.763 13.35c12.584-.261 18.614-3.403 18.614-3.403S266.355 57.347 265.568 83H0z" fill="#56AF40" mask="url(#d)"/></g><path d="M113.822 160.758c-.538-.1-.976.463-.77.998 1.91 4.95 9.455 25.38 21.925 21.833 16.233-4.616 22.396-32.275 20.771-34.278-1.873-2.308-6.867 8.903-21.539 11.212-8.785 1.381-17.332.802-20.387.235" fill="#FFF"/><path d="M173.997 145.86c.158-.651-5.978-1.86-5.978-1.86l-34.683 14.642-45.18 9.838L85 170.332s33.02 16.464 49.811-6.727c0 0 33.503 5.776 39.186-17.745" fill="#4D2609"/><path d="M135.055 160.694s34.72 5.39 36.945-19.581c0 0-21.486-2.187-36.18 12.705 0 0-18.687-9.433-49.82 12.697 0 0 33.8 15.602 49.055-5.82" fill="#753B0E"/><path d="M67 268.911c.646.962 1.432 1.812 2.25 2.623a34.71 34.71 0 0 0 2.558 2.318c1.773 1.467 3.68 2.766 5.65 3.936 3.936 2.362 8.193 4.147 12.586 5.385 4.406 1.195 8.951 1.876 13.513 1.926 2.28.064 4.56-.078 6.834-.26 2.268-.26 4.533-.561 6.766-1.054 4.48-.8 8.712-2.506 12.626-4.804 3.924-2.278 7.48-5.187 10.62-8.483 3.105-3.323 5.815-7.063 7.745-11.196.971-2.06 1.736-4.227 2.17-6.47.131-.558.166-1.128.256-1.694.033-.569.098-1.14.086-1.712.036-1.148-.112-2.293-.34-3.426.69 2.208.84 4.599.518 6.912-.293 2.321-.934 4.595-1.793 6.776-1.77 4.348-4.385 8.327-7.492 11.851-3.106 3.532-6.77 6.582-10.802 9.054-4.036 2.443-8.538 4.27-13.194 5.134-9.197 1.926-18.95 1.743-27.953-1.076a49.068 49.068 0 0 1-12.666-6.048c-1.933-1.32-3.78-2.761-5.477-4.36-1.687-1.597-3.311-3.312-4.461-5.332" fill="#FFF"/><path d="M139 34c0 18.778-22.61 34-50.5 34S38 52.778 38 34 60.61 0 88.5 0 139 15.222 139 34" fill="#66330C"/><path d="M149.399 1.134c10.544 4.459 13.765 20.773 7.194 36.44-6.571 15.665-20.447 24.75-30.991 20.292-10.545-4.459-13.766-20.772-7.195-36.438 6.572-15.667 20.447-24.753 30.992-20.294M62.566 27.845c17.34 7.254 22.637 33.8 11.832 59.29-10.807 25.49-33.624 40.274-50.964 33.02-17.34-7.255-22.637-33.8-11.832-59.29C22.41 35.373 45.226 20.59 62.566 27.844" fill="#66330C"/><path d="M155.57 7c.214 10.126-4.447 21.207-9.676 28.607-3.242 4.59-7.509 9.17-13.061 10.803-4.548 1.338-8.994.548-13.36 2.704-3.959 1.955-7.92 4.05-12.255 5.04-5.045 1.154-10.435 1.054-15.583 1.141-4.71.079-9.42.157-14.12-.19-1.969-.144-5.047-.788-6.884.221-.044.024-.065.031-.094.044-.203.478-.29 1.316-.385 1.674-1.133 4.283-2.12 8.612-3.322 12.877-4.302 15.273-17.57 33.05-34.933 32.842-9.684-.116-18.694-4.514-25.897-11.02.925 13.805 6.962 25.047 17.26 29.398 17.293 7.308 40.047-7.583 50.823-33.257 2.782-6.628 4.485-13.324 5.197-19.74 3.084.4 6.264.617 9.52.617 13.92 0 26.516-3.836 35.62-10.033.293.149.59.29.896.42 10.633 4.493 24.625-4.663 31.25-20.45 5.063-12.059 4.357-24.493-.996-31.698M177.9 173.866c-6.726 12.367-14.335 24.592-27.174 31.207-12.655 6.52-26.958 7.227-40.866 5.598a127.957 127.957 0 0 1-21.614-4.461c-7.391-2.2-15.121-4.725-21.92-8.423-4.974-2.707-9.031-6.497-13.326-10.074 13.735 37.023 57.664 41.677 83.481 34.366 32.03-9.07 44.043-27.975 43.502-52.079-.702 1.327-1.407 2.62-2.083 3.866" fill="#542A09"/><path d="M151 57c3.017-2.793 5.703-5.838 7.843-9.212a40.003 40.003 0 0 0 4.792-10.864l.71-2.894.512-2.94c.119-.99.261-1.978.363-2.972l.21-2.995c.187-4.01.018-8.05-.268-12.123a49.537 49.537 0 0 1 1.828 12.139c.025 1.03-.002 2.062-.023 3.094-.057 1.032-.155 2.062-.233 3.095-.129 1.028-.316 2.05-.473 3.076l-.699 3.041c-.326.99-.634 1.987-.977 2.97-.41.96-.77 1.942-1.222 2.882-.5.918-.95 1.861-1.492 2.754-.572.873-1.104 1.774-1.743 2.6A32.225 32.225 0 0 1 151 57" fill="#66330C"/><path d="M12 88.906c.927.81 1.997 1.408 3.064 1.982 1.068.575 2.18 1.063 3.297 1.522a40.247 40.247 0 0 0 6.894 2.099c2.341.46 4.717.741 7.047.58 2.335-.118 4.558-.74 6.7-1.743 2.15-.967 4.218-2.193 6.169-3.593 1.972-1.371 3.83-2.912 5.64-4.515 1.773-1.642 3.479-3.367 5.043-5.222C57.432 78.17 58.864 76.19 60 74c-.725 2.37-1.972 4.562-3.362 6.617a45.811 45.811 0 0 1-4.741 5.756c-3.5 3.531-7.458 6.681-12.072 8.813-2.298 1.042-4.872 1.753-7.436 1.807-2.557.06-5.08-.29-7.494-.957a34.116 34.116 0 0 1-6.945-2.73c-1.087-.605-2.17-1.211-3.176-1.943-1.006-.72-1.993-1.495-2.774-2.457" fill="#542A09"/><path d="M25 88.66c1.813.315 3.628.564 5.444.558 1.808.017 3.615-.143 5.328-.637 3.434-.981 6.594-2.923 9.533-5.088 2.96-2.161 5.68-4.685 8.198-7.4 2.5-2.736 4.815-5.685 6.497-9.093-.579 1.82-1.458 3.528-2.408 5.183-1.01 1.612-2.097 3.184-3.323 4.63a46.673 46.673 0 0 1-8.197 7.802c-3.041 2.202-6.345 4.176-10.067 5.008-3.725.824-7.527.205-11.005-.964" fill="#542A09"/><path d="M51.482 125.225c4.423 11.634 2.867 22.98-3.475 25.341-6.341 2.362-15.067-5.156-19.49-16.79-4.422-11.635-2.866-22.98 3.476-25.342 6.341-2.362 15.067 5.156 19.49 16.79" fill="#FDB581"/><path d="M42.348 154c.286 5.796.839 11.541 1.754 17.221.478 2.836.997 5.663 1.673 8.452.656 2.792 1.403 5.562 2.316 8.275a73.745 73.745 0 0 0 3.1 7.995c1.164 2.61 2.536 5.123 4.055 7.544C58.313 208.305 62.198 212.654 67 216c-5.25-2.635-9.66-6.847-13.059-11.65-1.727-2.396-3.177-4.975-4.476-7.614-1.277-2.652-2.352-5.392-3.285-8.173-1.809-5.582-2.999-11.337-3.627-17.135-.633-5.797-.751-11.647-.205-17.428" fill="#542A09"/><g transform="translate(0 251)"><mask id="f" fill="#fff"><use xlink:href="#e"/></mask><path d="M0 55.6c2.503-6.164 5.603-12.113 9.333-17.673 1.847-2.793 3.906-5.443 6.051-8.02.513-.665 1.11-1.256 1.668-1.882l1.7-1.855c1.166-1.204 2.371-2.37 3.558-3.555 1.253-1.112 2.49-2.244 3.76-3.335 1.301-1.051 2.567-2.15 3.898-3.162 2.667-2.02 5.37-3.984 8.165-5.805C43.702 6.64 49.469 3.31 55.365.228 49.893 4.016 44.37 7.7 39.01 11.582c-.678.474-1.337.973-1.995 1.474l-1.988 1.479c-1.33.98-2.597 2.037-3.898 3.052-1.288 1.03-2.533 2.108-3.802 3.159-1.239 1.084-2.44 2.21-3.664 3.309-4.807 4.493-9.161 9.45-13.072 14.756C6.68 44.121 3.24 49.788 0 55.6" fill="#56AF40" mask="url(#f)"/></g><path d="M107.727 112.726c1.457 3.816-6.833-2.711-13.407-.397s-8.65 14.525-10.106 10.71c-1.457-3.816 2.128-12.149 8.702-14.463s13.355.335 14.811 4.15" fill="#66330C"/><path d="M107.727 112.726c1.457 3.816-6.833-2.711-13.407-.397s-8.65 14.525-10.106 10.71c-1.457-3.816 2.128-12.149 8.702-14.463s13.355.335 14.811 4.15z" stroke="#66330C"/><path d="M151.985 104.132c.341 3.59-5.33-3.888-11.395-3.342-6.066.546-10.23 8.907-10.572 5.317-.34-3.588 4.15-8.511 10.217-9.057 6.066-.545 11.41 3.493 11.75 7.082" fill="#66330C"/><path d="M151.985 104.132c.341 3.59-5.33-3.888-11.395-3.342-6.066.546-10.23 8.907-10.572 5.317-.34-3.588 4.15-8.511 10.217-9.057 6.066-.545 11.41 3.493 11.75 7.082z" stroke="#66330C"/></g></svg>