<svg width="75" height="16" fill="none" xmlns="http://www.w3.org/2000/svg"><g clip-path="url(#prefix__clip0_23333_114449)" fill="#fff"><path d="M26.878 5.22c-.608 0-1.142.214-1.51.602l-.112.114h-.135v-.107c0-.19-.24-.494-.638-.494a.662.662 0 00-.638.646v7.002c0 .342.3.647.638.647a.662.662 0 00.638-.647v-2.44h.135l.098.099c.007.007.705.608 1.516.608 1.636 0 2.912-1.323 2.912-3.018.008-1.688-1.276-3.011-2.904-3.011zm-.053 4.852c-.968 0-1.756-.822-1.756-1.833 0-1.01.788-1.832 1.756-1.832s1.756.821 1.756 1.832c0 1.004-.788 1.832-1.756 1.832zM36.59 11.25c-1.298 0-2.236-.806-2.236-1.916 0-1.163.878-1.802 2.462-1.802h1.539v-.106c0-.388-.18-1.034-1.367-1.034-.713 0-1.08.304-1.096.311-.09.076-.36.267-.562.267-.338 0-.578-.244-.578-.586 0-.486.69-1.163 2.236-1.163 1.6 0 2.635.874 2.635 2.22v3.056c0 .342-.3.646-.638.646-.39 0-.638-.243-.638-.41v-.183h-.15l-.09.114c-.023.016-.45.586-1.516.586zm.226-2.661c-1.029 0-1.134.524-1.134.745 0 .22.113.745 1.134.745 1.058 0 1.539-.578 1.539-1.148v-.342h-1.54zM45.606 11.136c-.42 0-.639-.327-.639-.646V7.768c0-.829-.57-1.384-1.418-1.384-.826 0-1.419.578-1.419 1.384v2.722c0 .342-.3.646-.638.646a.662.662 0 01-.638-.646V5.974c0-.343.3-.647.638-.647.39 0 .638.29.638.495v.098h.173a.63.63 0 01.082-.114c.015-.022.443-.593 1.457-.593 1.328 0 2.41 1.148 2.41 2.555v2.722c-.016.319-.234.646-.646.646zM60.115 11.25c-.585 0-.848-.266-1.096-1.08l-.96-3.155h-.173l-.961 3.155c-.248.821-.518 1.08-1.096 1.08-.57 0-.826-.251-1.096-1.08l-1.2-3.649a.566.566 0 01-.03-.106c-.046-.145-.076-.229-.076-.441 0-.343.3-.647.638-.647.353 0 .556.198.698.677l1.074 3.505h.172l.96-3.155c.264-.852.579-1.027 1.007-1.027.42 0 .75.175 1.02 1.027l.961 3.155h.173l1.073-3.505c.143-.479.346-.677.698-.677.338 0 .639.304.639.647 0 .212-.03.296-.075.44-.008.031-.023.069-.038.107l-1.201 3.642c-.285.836-.54 1.087-1.111 1.087zM71.157 13.622c-.278 0-.578-.304-.578-.585 0-.19.112-.441.157-.525l.766-1.673-2.192-4.447c-.007-.008-.157-.266-.157-.472 0-.28.3-.585.577-.585.368 0 .533.205.706.57l1.606 3.429h.128l1.606-3.55c.045-.107.233-.457.646-.457.278 0 .578.304.578.586 0 .22-.105.479-.105.479l-3.085 6.766c-.15.32-.353.464-.653.464zM48.863 13.622c-.277 0-.578-.304-.578-.585 0-.19.113-.441.158-.525l.766-1.673-2.192-4.447c-.008-.008-.158-.266-.158-.472 0-.28.3-.585.578-.585.368 0 .533.205.706.57l1.606 3.429h.128l1.606-3.55c.045-.107.233-.457.646-.457.277 0 .578.304.578.586 0 .22-.106.479-.106.479l-3.085 6.766c-.142.32-.345.464-.653.464zM65.445 11.25c-1.299 0-2.237-.806-2.237-1.916 0-1.163.878-1.802 2.462-1.802h1.539v-.106c0-.388-.18-1.034-1.366-1.034-.713 0-1.081.304-1.096.311-.09.076-.36.266-.563.266-.338 0-.578-.243-.578-.585 0-.487.69-1.163 2.237-1.163 1.599 0 2.634.874 2.634 2.22v3.056c0 .342-.3.646-.638.646-.39 0-.638-.243-.638-.41v-.183h-.165l-.09.114c-.007.016-.435.586-1.501.586zm.225-2.661c-1.028 0-1.133.524-1.133.745 0 .22.112.745 1.133.745 1.058 0 1.539-.578 1.539-1.148v-.342H65.67zM32.41 11.212c-.42 0-.774-.099-.991-.266-.36-.281-.51-.684-.51-1.376V3.61c0-.343.3-.647.637-.647.338 0 .638.304.638.646v5.664c0 .707.376.829.6.837h.023c.053 0 .113-.008.173-.016.068-.007.135-.022.203-.022a.486.486 0 01.443.745c-.143.22-.676.395-1.216.395zM15.597 6.24c-.543-.96-1.361-2.18-2.485-3.3A15.272 15.272 0 009.8.463a3.616 3.616 0 00-3.54 0c-.964.541-2.187 1.356-3.311 2.477a15.228 15.228 0 00-2.485 3.3 3.583 3.583 0 000 3.528c.542.96 1.36 2.18 2.485 3.3.328.328.665.632 1.001.907V8.008a4.072 4.072 0 014.076-4.062 4.072 4.072 0 014.075 4.062 4.072 4.072 0 01-6.576 3.2v3.895c.253.16.497.305.727.434a3.615 3.615 0 003.54 0c.964-.541 2.187-1.357 3.311-2.477a15.23 15.23 0 002.485-3.3 3.549 3.549 0 00.008-3.52z"/><path d="M10.535 8.008a2.502 2.502 0 00-2.5-2.492c-1.377 0-2.5 1.12-2.5 2.492a2.502 2.502 0 002.5 2.492c1.376 0 2.5-1.12 2.5-2.492z"/></g><defs><clipPath id="prefix__clip0_23333_114449"><path fill="#fff" d="M0 0h75v16H0z"/></clipPath></defs></svg>