<svg width="960" height="960" xmlns="http://www.w3.org/2000/svg" xml:space="preserve"><path fill="#26D37C" d="M205.15 456.875c-7.1-12.6-17.8-28.6-32.5-43.3-14.7-14.7-30.6-25.4-43.3-32.5-14.4-8.1-31.9-8.1-46.3 0-12.6 7.1-28.6 17.8-43.3 32.5-14.7 14.7-25.4 30.6-32.5 43.3-8.1 14.4-8.1 31.9 0 46.3 7.1 12.6 17.8 28.6 32.5 43.3 4.3 4.3 8.7 8.3 13.1 11.9v-78.3c0-29.4 23.9-53.3 53.3-53.3s53.3 23.9 53.3 53.3-23.9 53.3-53.3 53.3c-12.3 0-23.7-4.2-32.7-11.3v51.1c3.3 2.1 6.5 4 9.5 5.7 14.4 8.1 31.9 8.1 46.3 0 12.6-7.1 28.6-17.8 43.3-32.5s25.4-30.6 32.5-43.3c8.2-14.2 8.2-31.8.1-46.2z" class="st0"/><path fill="#26D37C" d="M138.95 480.075c0-18-14.7-32.7-32.7-32.7-18 0-32.7 14.7-32.7 32.7 0 18 14.7 32.7 32.7 32.7 18 0 32.7-14.7 32.7-32.7z" class="st0"/><g><path fill="#141A14" d="M313.95 437.875c-8.1 0-15.2 2.8-20.1 7.9l-1.5 1.5h-1.8v-1.4c0-2.5-3.2-6.5-8.5-6.5-4.5 0-8.5 4-8.5 8.5v92.1c0 4.5 4 8.5 8.5 8.5s8.5-4 8.5-8.5v-32.1h1.8l1.3 1.3c.1.1 9.4 8 20.2 8 21.8 0 38.8-17.4 38.8-39.7.1-22.2-17-39.6-38.7-39.6zm-.7 63.8c-12.9 0-23.4-10.8-23.4-24.1s10.5-24.1 23.4-24.1 23.4 10.8 23.4 24.1c0 13.2-10.5 24.1-23.4 24.1zM443.35 517.175c-17.3 0-29.8-10.6-29.8-25.2 0-15.3 11.7-23.7 32.8-23.7h20.5v-1.4c0-5.1-2.4-13.6-18.2-13.6-9.5 0-14.4 4-14.6 4.1-1.2 1-4.8 3.5-7.5 3.5-4.5 0-7.7-3.2-7.7-7.7 0-6.4 9.2-15.3 29.8-15.3 21.3 0 35.1 11.5 35.1 29.2v40.2c0 4.5-4 8.5-8.5 8.5-5.2 0-8.5-3.2-8.5-5.4v-2.4h-2l-1.2 1.5c-.3.2-6 7.7-20.2 7.7zm3-35c-13.7 0-15.1 6.9-15.1 9.8 0 2.9 1.5 9.8 15.1 9.8 14.1 0 20.5-7.6 20.5-15.1v-4.5h-20.5zM563.45 515.675c-5.6 0-8.5-4.3-8.5-8.5v-35.8c0-10.9-7.6-18.2-18.9-18.2-11 0-18.9 7.6-18.9 18.2v35.8c0 4.5-4 8.5-8.5 8.5s-8.5-4-8.5-8.5v-59.4c0-4.5 4-8.5 8.5-8.5 5.2 0 8.5 3.8 8.5 6.5v1.3h2.3c.5-.8.8-1.2 1.1-1.5.2-.3 5.9-7.8 19.4-7.8 17.7 0 32.1 15.1 32.1 33.6v35.8c-.2 4.2-3.1 8.5-8.6 8.5zM756.75 517.175c-7.8 0-11.3-3.5-14.6-14.2l-12.8-41.5h-2.3l-12.8 41.5c-3.3 10.8-6.9 14.2-14.6 14.2-7.6 0-11-3.3-14.6-14.2l-16-48c-.2-.5-.3-.9-.4-1.4-.6-1.9-1-3-1-5.8 0-4.5 4-8.5 8.5-8.5 4.7 0 7.4 2.6 9.3 8.9l14.3 46.1h2.3l12.8-41.5c3.5-11.2 7.7-13.5 13.4-13.5 5.6 0 10 2.3 13.6 13.5l12.8 41.5h2.3l14.3-46.1c1.9-6.3 4.6-8.9 9.3-8.9 4.5 0 8.5 4 8.5 8.5 0 2.8-.4 3.9-1 5.8-.1.4-.3.9-.5 1.4l-16 47.9c-3.8 11-7.2 14.3-14.8 14.3zM903.85 548.375c-3.7 0-7.7-4-7.7-7.7 0-2.5 1.5-5.8 2.1-6.9l10.2-22-29.2-58.5c-.1-.1-2.1-3.5-2.1-6.2 0-3.7 4-7.7 7.7-7.7 4.9 0 7.1 2.7 9.4 7.5l21.4 45.1h1.7l21.4-46.7c.6-1.4 3.1-6 8.6-6 3.7 0 7.7 4 7.7 7.7 0 2.9-1.4 6.3-1.4 6.3l-41.1 89c-2 4.2-4.7 6.1-8.7 6.1zM606.85 548.375c-3.7 0-7.7-4-7.7-7.7 0-2.5 1.5-5.8 2.1-6.9l10.2-22-29.2-58.5c-.1-.1-2.1-3.5-2.1-6.2 0-3.7 4-7.7 7.7-7.7 4.9 0 7.1 2.7 9.4 7.5l21.4 45.1h1.7l21.4-46.7c.6-1.4 3.1-6 8.6-6 3.7 0 7.7 4 7.7 7.7 0 2.9-1.4 6.3-1.4 6.3l-41.1 89c-1.9 4.2-4.6 6.1-8.7 6.1zM827.75 517.175c-17.3 0-29.8-10.6-29.8-25.2 0-15.3 11.7-23.7 32.8-23.7h20.5v-1.4c0-5.1-2.4-13.6-18.2-13.6-9.5 0-14.4 4-14.6 4.1-1.2 1-4.8 3.5-7.5 3.5-4.5 0-7.7-3.2-7.7-7.7 0-6.4 9.2-15.3 29.8-15.3 21.3 0 35.1 11.5 35.1 29.2v40.2c0 4.5-4 8.5-8.5 8.5-5.2 0-8.5-3.2-8.5-5.4v-2.4h-2.2l-1.2 1.5c-.1.2-5.8 7.7-20 7.7zm3-35c-13.7 0-15.1 6.9-15.1 9.8 0 2.9 1.5 9.8 15.1 9.8 14.1 0 20.5-7.6 20.5-15.1v-4.5h-20.5zM387.65 516.675c-5.6 0-10.3-1.3-13.2-3.5-4.8-3.7-6.8-9-6.8-18.1v-78.4c0-4.5 4-8.5 8.5-8.5s8.5 4 8.5 8.5v74.5c0 9.3 5 10.9 8 11h.3c.7 0 1.5-.1 2.3-.2.9-.1 1.8-.3 2.7-.3 1.2 0 2.3.1 3.2.6 1.2.6 2.9 1.9 3.5 4.1.4 1.6.3 3.3-.8 5.1-1.9 2.9-9 5.2-16.2 5.2z" class="st1"/></g></svg>