<svg xmlns="http://www.w3.org/2000/svg" width="20" height="20" viewBox="0 0 5.29 5.29"><path d="M0 .66v3.97c0 .18.06.34.2.47.12.13.28.2.46.2h3.97c.18 0 .34-.07.47-.2.13-.13.2-.29.2-.47V.66A.64.64 0 005.1.2.64.64 0 004.63 0H.66A.64.64 0 00.2.2.64.64 0 000 .65zM.66 1C.66.9.7.82.76.76.82.69.9.66.99.66h1c.09 0 .17.03.23.1.06.06.1.14.1.23v2.98c0 .1-.04.17-.1.23a.32.32 0 01-.24.1H1a.32.32 0 01-.23-.1.32.32 0 01-.1-.23zM3.31.66h.99c.1 0 .17.03.23.1.07.06.1.14.1.23v1.9c0 .1-.03.18-.1.24a.32.32 0 01-.23.1h-1a.32.32 0 01-.23-.1.32.32 0 01-.1-.23V1c0-.1.04-.18.1-.24.07-.07.14-.1.24-.1z" fill="#0079bf"/></svg>
