<svg width="180" height="417" fill="none" xmlns="http://www.w3.org/2000/svg"><mask id="a" style="mask-type:alpha" maskUnits="userSpaceOnUse" x="0" y="0" width="180" height="417"><path fill="#1D9EF4" d="M0 0h180v417H0z"/></mask><g mask="url(#a)"><path fill="#8FC4E7" d="M0 0h180v417H0z"/><g fill="#5B95BB"><path d="M-10 279h.1a1 1 0 0 0 0-.1v.1Zm-17 6.6Zm-12.3 4.7Zm259.1 145.4h.3a1.8 1.8 0 0 1-.4-.2l.1.2ZM-130 338.1l-.5.3a.7.7 0 0 0 .5-.3Zm253.9 97.5Zm-77.3-92.4Zm0 0Zm15.8-20-.3.1-.3.6.6-.7Zm71.2 70.1-.3.2.2-.2a.2.2 0 0 1 .2 0 .1.1 0 0 0 0-.1l-.1.1ZM250 462.5ZM18 375.4Zm110.6 79Z"/><path d="M273.4 489a3.3 3.3 0 0 1-1.5-1.4l-.1-.1c-.3 0-.6 0-.7-.4a.2.2 0 0 1 0-.1v-.1l-.5-.3a18.6 18.6 0 0 0-2.7-2.4c0-.3-.3-.5-.4-.7a.7.7 0 0 1 0-.2.7.7 0 0 1 0-.1l-.2-.2c-.6-.3-.9-1-1.6-1.2a.6.6 0 0 1-.4-.4l-.5-1a1 1 0 0 0-.2-.2.6.6 0 0 1-.4-.7h-.1c-1.1-.5-1.5-1.5-2-2.3l-.1-.2a.4.4 0 0 1-.3-.4l-.4-.4h-.1l-.7-.8a.7.7 0 0 0-.3-.2l-1-.9a1 1 0 0 1 0-.2h-.4v-.3l-.1-.3-.3-.1a9 9 0 0 0 0-.4h-.7c-.3-1.3-1.6-2-1.9-3.2h-.3c-2-2.4-4-4.6-5.5-7.3-.7 0-.6-.8-1-1.1l-.2-.2a.7.7 0 0 0-.3-.2 1.4 1.4 0 0 0-.2 0c0-.6-.5-.8-.7-1.2a.6.6 0 0 1 0-.3l-.1.1v-.4l-.3-.3-.1-.4h-.4a52.4 52.4 0 0 0-3.6-4.3 1.1 1.1 0 0 1-.3-.5 1 1 0 0 1 0-.3h-.1c-.6 0-1-.2-1-1 .1-.1-.2-.3-.3-.5l-.1-.2a3.4 3.4 0 0 0-1-.9 20.2 20.2 0 0 0-3.7-4 2.9 2.9 0 0 0-1.6-1.3h-.2a1 1 0 0 0-.2-.5h-.1c-.1-.2-.2-.3-.4-.3a.4.4 0 0 0-.3-.4c-.5-.5-1.3-.4-1.6-1a3.5 3.5 0 0 0-1.8-1.4l-.6-.2c0-.5-.5-.5-.8-.7a65.3 65.3 0 0 0-7.3-3.5c-.3-.1-.7-.2-.7-.7 0-.3-.2-.4-.4-.4a9.4 9.4 0 0 1-4.8-1.4 2.9 2.9 0 0 0-1.6-.3c-.2 0-.3-.2-.2-.5a.3.3 0 0 1 .1 0v-.2c-.3-.1-.7-.1-.8-.5h-.5a.9.9 0 0 1-.8.4.6.6 0 0 1-.4.2 2.4 2.4 0 0 1-.6 0v-.1a1.4 1.4 0 0 0-.2-.2.4.4 0 0 1-.3 0l-1.7.1c-.2 0-.3.1-.5.3l-.2-.3c-.2 0-.3-.1-.4 0l-.2.3c0 .3-.4.3-.6.3v-.6l-.1-.4h-.2a.6.6 0 0 1-.4.2.6.6 0 0 1-.5-.2h-.5c-1 .5-2 .2-3 .3a.6.6 0 0 1-.2.2.5.5 0 0 1-.5 0 3.7 3.7 0 0 0-.4-.2h-1c0 .2-.2.2-.4.3h-1l-.5.1-.2.2-.9.8-.6-.2a6 6 0 0 0-3.7.7h-.4c-1.1-.1-2 .6-3 1-.2.2-.4.5-.8.5-1.9 0-2 0-3 .9h-.1a2.2 2.2 0 0 0-1.1-.2h-.3a.7.7 0 0 1-.8.2l-.6.1a5.8 5.8 0 0 1-2.7 1l-.3.1a.7.7 0 0 1-.7.4l-.3.2c-.8.6-2 .4-2.6 1.1h-.2c-.3 0-.7 0-1 .4h-.6a.7.7 0 0 0-.8.3c-.3.1-.5.1-.7.4l-1 .3-.8.1a.2.2 0 0 1-.2 0l-.5.3c-1.5.8-3 1.2-4.4 2.1l-.3.2-3.3 1.4a.3.3 0 0 0-.4.3 5.6 5.6 0 0 0-2.2.8 9 9 0 0 1-.7.3l-1.2.5h-.1l-.2.6c-2 0-3.3 1.4-5 1.8H152.2a.9.9 0 0 1-.7.5.6.6 0 0 1-.6.3h-.5a.4.4 0 0 1-.4.3l-.4.2a9.8 9.8 0 0 1-3.6 1.6h-.4l-.2.4-.2.3h-.3c-.5.3-1 .4-1.6.6l-.3.1a.3.3 0 0 0-.3.1c-.2 0-.5.1-.7.3a.6.6 0 0 0-.7.4h-.2c-1.5.3-2.8.9-4.2 1a5 5 0 0 1-.7.1H135l-.5.2c-1 .2-2 .3-3 .2l-.5.3v.7H130c0 .4.5.7-.2.8l-.6-.1c0-.6.4-.6.8-.6-.5-.4-1.1-.7-.7-1.5-.2-.7-.8-.4-1.3-.4l-.6-.4a11 11 0 0 1-1-1.3.7.7 0 0 1-.1 0 .5.5 0 0 1-.3-.4l-.4-.3-.3-.5a11 11 0 0 1-1.5-2.5 1.5 1.5 0 0 0-.3-1.2 1 1 0 0 0-.3-.3l-.4-3.9c.4-.3.2-.7.3-1.1.4-2.1.3-4.2 1.1-6.2 0-.1 0-.4-.2-.5-1.2-.8-1.1-.9-.2-2-.6 0-1 .5-1.8.6-.7.1-.9.6-.4 1.3V438.5c-.3.2-1.1-.2-.8.6l.1.2a.2.2 0 0 0 0 .2c-.3 0-.8 0-.7-.3 0-.7-.5-1-.7-1.5 1.5 0 1.5 0 1-1.3l.1-.2.3-.3.4-.3H122.6c.1-.3.3-.6.5-.7.6-.3.3-1.1.9-1.4l.3-.3h.1c.2-.3.3-1 .6-.2-.1.4-.1 1-.3 1-.9.3-.5 1-.8 1.6H124.9l.1-.5.2-.5.5-.5v-.3l-.2-.3-.2-.4.7-.4c-.1-1 .5-1.9.4-2.9l.4-1a.4.4 0 0 0 .3-.5l.4-1.4a.5.5 0 0 0 .1-.1c.3-.3.2-.8.6-1v-1.1a.4.4 0 0 0 0-.2h.1l.2-.1v-.7c.2-.3 0-.6.3-.8h.1c0-.7.1-1.4.4-2 .8-1.3.8-2.8 1.5-4.1v-.2l.2-.2.1-.4a.8.8 0 0 1 .3-.7v-1.1a3 3 0 0 0 .7-2.2c.2-.4 0-.8.4-1.1H132.8l.1-1v-.7a20.9 20.9 0 0 0 .7-4 3 3 0 0 1 .2-.6l.2-.2v-1.1a1.6 1.6 0 0 0-.1-.6.6.6 0 0 0-.2-.1c-.7-.7-.3-1.2.1-1.7l.3-.4v-1.1a2.5 2.5 0 0 0-.3 0v-.3a1.4 1.4 0 0 0-.5-1.2h-.3a1 1 0 0 1-1-.1 1 1 0 0 1-.1-.3l-.1-.3.1-.1.1-.1.2-.2c.2.1.4.5.7.6l.4-.2c0-1-.8-1.4-1.1-2.2l-.3.3-.4.5-.2-.2a.7.7 0 0 0-.2-.2.9.9 0 0 0-.3 0c.1-.4.6-.5.9-.7l.2-.4c-.2-.4-.7-.6-.8-1-.3 0-.6-.6-.7.1a.5.5 0 0 1-.3.5c-.2 0-.3-.2-.4-.3h-.4a.5.5 0 0 0-.4-.3c.2-.4.5-.8 0-1.2a.3.3 0 0 0 0-.3.3.3 0 0 0-.3 0 2.8 2.8 0 0 0-1.8-.4l-1.5-.4h-.3c-3-2.1-6.2-2-9.5-1.5h-.2a3.7 3.7 0 0 0-.6 0h-.1c-.8 0-1.5.1-2.2.5a.9.9 0 0 1-.7.1.7.7 0 0 1-.2-.1.2.2 0 0 1-.3 0l-1 .4-.4.2V390.3h-.5a1 1 0 0 1-.1 0 1 1 0 0 1-.2 0c-.1.2-.3.2-.4 0a.5.5 0 0 1-.3 0l-.1.3-.3.4-.4.4a2.5 2.5 0 0 0-2.4.1c-.7.5-1.5.7-2.4.7-.8 0-.6.6-.6 1-.4-.1-.4-1-1-.7-.5 0-.8.2-1.1.4l-.1.6h-1.3a1.5 1.5 0 0 0-1 .4c-1.4 0-2.6 1-3.9 1.5a6.1 6.1 0 0 0-3 1.3l-.2.1c-.1-.3-.3-.2-.4 0H89.8a.3.3 0 0 0-.2 0 .3.3 0 0 0-.2.2.3.3 0 0 0 0 .2c-.8 0-1.5.3-2.2.7a3 3 0 0 0-.5.2c-.5.3-1 .6-1.7.8a2 2 0 0 1-.7 0 33 33 0 0 0-6.9 3.3l-.3.1c-1.1.5-2.3 1-3.3 1.7a10.8 10.8 0 0 0-4.3 2.3c-1-.2-1.7.7-2.5 1a2 2 0 0 0-1.2.7l-.5.2c-.7.1-1.3.4-1.7.9a.5.5 0 0 0-.3 0 .6.6 0 0 0-.8.4L60 411l-1.4.4v.3c-1 .7-2.3 1-3 2.2H55v-.3h-.3v.3l-.3.1a1.2 1.2 0 0 0-.8.6.5.5 0 0 0-.3.1.4.4 0 0 0-.5.3c-1.1.4-2 1.3-3.1 1.8l-.4.1v.1a4 4 0 0 1-2.2 1c-.5 1-1.6 1-2.5 1.4l-.2.2c-.4.6-.8 1-1.6 1-.3.5-.4.8-1.3 1a4.5 4.5 0 0 0-3.2 1.7c-.8 0-1.4.8-2.3.8h-.1v.2c-.2.8-.8.7-1.4.6H34a1.6 1.6 0 0 1-.1.4.8.8 0 0 1-.5.4c-2.3.5-4.2 1.7-6.2 2.5H27a.2.2 0 0 0 0-.2l-.3.1v.3h-.8a.8.8 0 0 1-.3.1l-.6.5a.5.5 0 0 0-.2.2c-.3.2-.8.3-1.2.3h-.2a.5.5 0 0 1-.3 0l-.3.2a15.8 15.8 0 0 1-4.8 1.7.2.2 0 0 1-.2 0h-.1l-.1.2c-.4.5-.7 1-1.8.7a4 4 0 0 0-1.2 0 5.8 5.8 0 0 0-2.6.8 1.6 1.6 0 0 1-1.8.2c-.7-.3-1.5.6-2.3.1-.8.8-2-.3-2.7.7-.2.2-.4.1-.6-.2 0-.2-.2-.4-.5-.4-1.7.5-3.2-.6-4.8-.8H-1a28 28 0 0 1-4.6-3.2v-.3a1.6 1.6 0 0 0-.9-1.5c.2-.6-.1-.8-.7-.7-.2 0-.4.2-.6 0a.3.3 0 0 1 0-.2.9.9 0 0 1 0-.5.3.3 0 0 1 .2-.2c1 0 .8-.5.6-1a1.5 1.5 0 0 0-.5-1 .3.3 0 0 1-.1.2c-.1 0-.2 0-.3-.2h.4c0-.4.5-.7 0-1 .1-.7-.4-1.3 0-1.9a2.5 2.5 0 0 0 .2-2.3c0-.4 0-.7.2-1 .3-.7.5-1.4.6-2.2l.5-2.5c0-.3.2-.5.3-.7a.4.4 0 0 1 0-.3 1.5 1.5 0 0 1-.1-.5.3.3 0 0 1 .2-.3.7.7 0 0 1 .2 0v-1.1h.4v-.7a1.8 1.8 0 0 0 .7-1.5v-1l-.1-.1c0-.1 0 0 .1 0a.7.7 0 0 0 .3-.5v-.2c.2-.1.4-.4.4-.7.3 0 .4-.2.6-.3l.2-.4a.6.6 0 0 1 .3-.5v-.7c-.4-.5.2-.7.4-1 .4-.2.4-.5 0-.7V401.6A2.3 2.3 0 0 0-.4 400c0-.3.2-.6.4-.8l.2-.2a.2.2 0 0 1 .1-.3c.3-.5.7-1 .4-1.7h1v-.4H2v-.8c.2-.4.7-.7.8-1.1a.8.8 0 0 0 .1-.3c.4-.4.4-1.2 1-1.4a1 1 0 0 1 .3-.1v-.2l.1-.4a.8.8 0 0 0 .4-.8.4.4 0 0 0 .3-.4l.2-.3.4-.8.2-.3.3-.4c.4-.2.5-.7.7-1l3.7-5.3c.3-.6.8-1.2 1.3-1.7l.2-.2a39 39 0 0 1 3.4-4.8l.5-.8.4-.3.8-1.3.3-.5.5-.4h.1a.8.8 0 0 1 .2-.3l.3-.3.2-.2c.7-.9 1-2 2-2.5h.2v-.1c.5-1.1 1.6-1.7 2.3-2.7.2 0 .3-.2.4-.4l.1-.1.2-.6a36 36 0 0 0 4.3-5c.3 0 .4-.2.6-.3a7 7 0 0 1 1.2-1l.1-.2c.2-.3.5-.5.9-.7v-.1h.1c.1-1.3 1.4-1.8 1.9-2.8 1.1-.4 1.4-1.7 2.3-2.2h.1V352.5c.3-.5 1.2-.2 1.2-1a.4.4 0 0 0 .3-.5.4.4 0 0 0 .4-.3c.5 0 .6-.3.7-.7l.3-.2.1-.1c1-.7 1.3-2 2.5-2.3h.3v-.3c.3-1 1-2 1.8-2.6.2-.2.5-.3.5-.6.4-.3.3-.8.8-1 1.3-.4 1.9-1.5 2.7-2.4l.1-.2.3-.5c.7-1 1.6-1.8 2.7-2.4l.2-.1v-.4l.3-.2 1.2-1.5a.4.4 0 0 0 .4-.5h.1l.5-.4.1-.4v-.2a22.2 22.2 0 0 0 3.1-3.7 61.7 61.7 0 0 0 4-5.1 1 1 0 0 0 .4-.3 2.4 2.4 0 0 0 .4-.8.3.3 0 0 0 0-.3l.4-.4c.8-.8 1.9-1.5 1.9-2.9l.2-.2a3.7 3.7 0 0 1 .8-.2v-.2l.6-1 .2-.5c1.1-1.2 2.4-2.2 2.5-4h.3c1-.6 1.3-1.7 2-2.4l.2-.2.3-.4a.3.3 0 0 1 .1-.3v-.2l.4-1v-.2c1-.7 1.3-1.8 2-2.7l.1-.2v-.1a.4.4 0 0 1 .3-.3v-.2c.2-1.5 1.3-2.7 1.7-4.2l.2-.7.3-.4c.3-.5.3-1.3.5-1.8l.2-.3v-.6a2 2 0 0 0-.3-.9h-.8c-.2 0-.6.1-.6-.2l.1-.2.3-.3h.2a3 3 0 0 0 .4.3l.4.4h.7c0-.7 0-1.3.4-1.9v-5.7a.2.2 0 0 1 0-.2l-.4-.2-.1-.2a.5.5 0 0 1 0-.3.3.3 0 0 1 .1-.2v-1a1 1 0 0 1-.5-.2l-.1-.2a1.1 1.1 0 0 1 .1 0h.2v-.4h-.3a.7.7 0 0 0-.7-.7c0-1 0-1.7-.9-2.3-.1 0 0-.2 0-.4v-.2a.2.2 0 0 1 0-.2l-.6-.3-.7-.3a.5.5 0 0 0 0-.2h.2a.4.4 0 0 1 0-.4 1.2 1.2 0 0 1-.3-.3l-.7-.8a1.1 1.1 0 0 0-.2-.3 1 1 0 0 0-.9-.5l-1.4-1.1-.4-.3a5.4 5.4 0 0 0-.8-.4 1 1 0 0 0-.1 0 .8.8 0 0 0-.2 0v-.1a.9.9 0 0 1 0-.2h-.3v-.4a2.5 2.5 0 0 1-.5-.1c-.4-.2-1-.5-1.5 0-.4.2-.5-.3-.8-.5a.4.4 0 0 0-.1-.1l-.3-.3a5.5 5.5 0 0 1-.5-.4c-.2-.2-.4-.4-.5 0-.4 1-.8-.2-1.2 0a2 2 0 0 0-1.6-.7h-.6a40.2 40.2 0 0 0-.3-.4l-.2-.4c-.3 0-.5-.1-.7-.3a.3.3 0 0 1-.3 0c-1.1-.6-2.2-1-3.4-1.1l-.6-.1c-.4-.4-.7-.1-1 0a.5.5 0 0 0-.3-.3 2.8 2.8 0 0 1-.4-.2.5.5 0 0 1-.1-.1.5.5 0 0 1-.4-.1h-.2a1.9 1.9 0 0 1-1.1-.2l-.2-.1a1.8 1.8 0 0 1-1.5-.2l-.3-.1-1.8-.1H47a.2.2 0 0 1-.2 0c-.2.3-.4.3-.6 0-.9.2-1.8 0-2.6-.3h-1.3a.7.7 0 0 0 0 .2c-.2 0-.3.1-.3.2a.5.5 0 0 0-.1.2h-.1a.4.4 0 0 0-.2 0v-.2l-.1-.4h-.6a.9.9 0 0 1-.6.2h-.5a1.6 1.6 0 0 0-.1-.3.5.5 0 0 1-.3 0h-.8a.4.4 0 0 1-.2 0l-.1.3v.3a.6.6 0 0 1-.7-.2.8.8 0 0 1-.1-.3h-.6c-.2.2-.4.2-.5 0h-.6c-.2.2-.3.2-.5 0a.2.2 0 0 1-.1 0 .2.2 0 0 1-.1 0 .6.6 0 0 1-.3 0l-.3.2-.2.1c-.6 0-1.3-.3-1.8.1l-.4.4c-.1.3-.2 0-.3-.2v-.3l-1 .1h-.1c.1.3.3.6-.3.4a1.2 1.2 0 0 1-.3-.3l-.2-.2a.2.2 0 0 1-.1 0 .2.2 0 0 1-.1 0l-.4.2-.9.2H27.1c-.2.2-.3.2-.5 0a.3.3 0 0 1-.3 0h-.1c-2.1.5-4.2.9-6.3 1h-.5a.6.6 0 0 1-.3 0l-.2.1c-1.6.5-3.3.6-5 1a7 7 0 0 0-1.6.6.7.7 0 0 1-.6.1.8.8 0 0 1-.4-.3h-.1l-.3.3a1.7 1.7 0 0 1-1.6.8.6.6 0 0 0 0-.2.3.3 0 0 0-.2-.1.3.3 0 0 0-.1 0c-.3 0-.6.2-.8 0a.3.3 0 0 1-.3 0h-.3c-.7.4-1.5.6-2.3.6h-.4a.9.9 0 0 0-.1.2c-.5.3-.7.9-1.3 1a.7.7 0 0 0-.1-.2.8.8 0 0 0-.9-.2l-2 .4H.2a.9.9 0 0 1-.8.4v.1c-.2.2-.4.4-.6.3a4.5 4.5 0 0 0-2.7.5.5.5 0 0 0-.4.4l-.3.1a.3.3 0 0 0-.4.3 4 4 0 0 0-3.7.6c-.4.3-.9.4-1.4.5h-1a.3.3 0 0 1-.3 0 4.7 4.7 0 0 0-.4.5.8.8 0 0 0-.1.6 3.3 3.3 0 0 0-2.6.1c-1 .5-2.2.7-3.3 1-.5.3-1.1.2-1.4 1-.1.3-.3 0-.5-.2a.2.2 0 0 0-.1 0l-.9.3a3 3 0 0 1-.8.3h-.5l-.4.2c-1.5.7-3 1.7-4.7 1.7l-.2.1c-.3.3-.7.5-1.2.6h-.1c-.6.3-1.2.5-1.9.6-.5 0-1 .2-1.3.5-.2 0-.3.2-.4.3-1 .2-1.6 1-2.6 1.1h-.6a2 2 0 0 1-1.5.7h-.3l-.2.2c-.6.4-1.3.6-2 .6-.9.8-2 1-3.1 1.4h-.2a1 1 0 0 1-.5.3h-.6l-.2.3c-.9.7-2 .9-3 1.4a5.4 5.4 0 0 1-1.6.6h-.2a.7.7 0 0 1-.8.3l-.5.3a4 4 0 0 1-.9.3l-.4.1-.1.1c-.6.6-1.5.8-2.1 1.3h-.1a3.2 3.2 0 0 0-1.1.4 2 2 0 0 0-.6.4h-1.1a.9.9 0 0 1-.7.4l-.2.1c-1.4 1-3 1.6-4.7 2l-.1.1-.3.2c-.2.3-.5.4-.8.5h-.4l-.2.2-.5.5-.5.1-.5.4-.2.2c-2 .7-4 1.6-6 2.6l-.3.2-.1.1-.3.2c-.6.4-1.3.5-1.9 1l-.2.2c-1 .2-1.9 1-3 1.1h-.1a.3.3 0 0 1-.3 0l-.3.3a28.6 28.6 0 0 1-5 2.5l-.2.2-.4.3A7 7 0 0 1-86 312l-.1.1c-1.4 1.3-3.2 1.8-4.7 2.8h-.1a5 5 0 0 0-1 .5l-.3.2c-1 .6-2 .8-2.4 2a.4.4 0 0 1-.4.2c-1.9-.1-3.1 1.1-4.6 2a3.7 3.7 0 0 1-.5.2h-.1l-.3.3a.9.9 0 0 1-.4 0v.3l-.3.1h-.4v.1l-.4.2-.8.7-.5.2-.5.3v.2l-.1.1h-.1a5.2 5.2 0 0 0-1.5.8l-.2.3h-.6a1 1 0 0 1-.8.4l-.1.1c-1.9 1.5-4.1 2.5-6 3.9-.2 0-.3.2-.5.3h-.2l-.5.3-.3.1-.3.4-.2.2h-.2l-.4.1-.4.4c-.7.7-1.7 1-2.4 1.6a4.9 4.9 0 0 1-2.3 1.3l-.4.3-1.4 1.1h-.1a.3.3 0 0 0-.3.3 4 4 0 0 0-1.5.9l-.3.2a439.5 439.5 0 0 0-1.7 1.2l-.3.2a.2.2 0 0 0-.2.1.6.6 0 0 0-.7.4.4.4 0 0 0-.3.3.5.5 0 0 0-.4.4l-.5.3c-.7.3-1.3.7-1.8 1.2a5.4 5.4 0 0 1-2 1 .9.9 0 0 1-.7.4v.3a.4.4 0 0 1 0 .3.4.4 0 0 1-.3.2c-1 .4-2 1-2.8 1.7a.7.7 0 0 0-.7.6 2.7 2.7 0 0 0-1.8 1.2h-.2a1.1 1.1 0 0 0-.8.5l-.1.2c-.8.4-1.6.8-1.7 1.8v.1c-.5-.3-.8-.2-1.2 0a47.6 47.6 0 0 0-5.3 4l-.4.4a.5.5 0 0 0-.5.3c-3 2.2-6 4.3-8.9 6.7a1 1 0 0 1-.8.2v9.8a1 1 0 0 1 1 .6l-1 .1v31.9c1 .3 1 .3 1.1-1a1 1 0 0 0 .7-.4.8.8 0 0 0 .4-.1h.3a1 1 0 0 0 0 .8v.4a3.5 3.5 0 0 1-2.5 1.8v19.5c.5 0 .9-.2 1.3-.4.3-.2.4-.5.3-.7l-.2-.3a.4.4 0 0 0 .4-.3l.3-.2a8.7 8.7 0 0 0 3-1.7c0-.3 0-.6.3-.8v-.3h.4a.6.6 0 0 1 .4.4c.3-.2.7-.3 1-.6a.8.8 0 0 0 0-.2c-.2-.8 1-.2 1-.8 0-.7.2-1 .9-.8.5 0 .5-.6.7-.9h.3l.1.1c0 .1.2.2.2 0a.6.6 0 0 0 .1 0h.1l.3.3c-1 1-1.9 1.7-3 2.5l-3.2 2.9a.7.7 0 0 0-.7.4l-.2.1a.4.4 0 0 0-.1.2c-.4.3-.6.7-.8 1.1l.1.1h-.1c-.9.2-1.6.7-2.2 1.4-.2.2-.4.4-.7.3v11.6a1.6 1.6 0 0 0 1.6-.7l.2-.3c.1 0 .3 0 .3-.2.6-1.5 2-1.9 3.3-2.4v-.7l-.1-.2.1.2c.2 0 .3-.1.3-.2.2-1 .8-.9 1.5-.6.4-.6.4-1.4 1.1-1.8.4-.6.9-.6 1.5-.3l.1.1.3.3-2.6 2.5a.4.4 0 0 1-.4.3 7.4 7.4 0 0 1-2.6 2.8c-1.7 1-2.4 2.9-3.6 4.4-.3.3-.5.7-1 .5v13.4l.4.1-.4.2v.8c.8-.1 1-.9 1.7-1.2a10.8 10.8 0 0 0 3.1-2.2l.3-.3a.5.5 0 0 1-.4-.3.4.4 0 0 1 .4.3c.6-.4 1-1.2 1.8-1.2.4 0 .4-.3.2-.7 0-.5.7-1 1-1 1.2.3 1.3-1 2-1.4h.4a.9.9 0 0 0 .8-.3h.3v1c-.6.1-1.1.4-1.5.9l-.3.2a9.8 9.8 0 0 1-1.8 1.7 4.2 4.2 0 0 0-2 2.4c0 .5-.8.4-1 .9l-.2.2c-.3.3-.7.5-.9 1-.3 0-.6.3-.7.7-.4 0-.7.2-.7.6l-1 1.1c-.6.3-.9.8-1.5.8V490h75c.2-.4.3-.8 1-.5a1.2 1.2 0 0 0 1.2-.2l.2.2a.8.8 0 0 1 .2.5h12.7a10 10 0 0 0 1.4-1.8c.7-.3.8-1 1.1-1.5h-.3V486.4l.2.1.1.1v.1a.6.6 0 0 0 .3-.3l.1-.3c.4 0 .8 0 .6.5l-.8 1.3c-.6.7-1.2 1.4-1.6 2.1h27.5c0-.4-.3-.7-.1-1.2.5.3.6.7.5 1.2h4.4v-.7c.3 0 1 0 1-.2 0-.9.7-.8 1.3-1l.5-.5c.6-.4.6-1.2 1.1-1.7a.8.8 0 0 0 .7 0 1 1 0 0 0 .8-.7c.5-.4 1.4-.6.8-1.6a3.7 3.7 0 0 1 2.4-1 .6.6 0 0 0 .4-.6.6.6 0 0 0 .4-.7c.7.4 1.1 0 1.6-.4l3.8-3.6 1-.8a4 4 0 0 0 1.6-1.4c.5-.4 1.3-.6 1.4-1.4 1 0 1.4-.8 2-1.4.3-.5-.8-.6-.4-1.1h1c0-.3.1-.4.3-.4l-.3.3c.2.4.5.4.8.1a16 16 0 0 0 2.8-2.6c1.4-.8 2.6-2 3.6-3.2a.9.9 0 0 1-.4 0 .3.3 0 0 1-.2-.4h.3a.4.4 0 0 1 .2.1l.1.2 1-.3c.6-.7 1.5-1 2-1.7.7-.1.8-1.2 1.7-1.2l.1-.2c.7-.9 1.6-1.7 2.5-2.3l.4-.3c1.2-.7 2-2 3.1-2.7h.2a8.3 8.3 0 0 0 1.7-1.8l.4-.2.7-.5c.3-.1.5-.3.8 0l-.2.2A2239.4 2239.4 0 0 0 6 456c-.5.3-.8.6-1.1 1l-.2.1h-.1V457.3l-.4.4a.5.5 0 0 0-.4.4 1.4 1.4 0 0 0-.7.7l-.4.3-.3.3-1 1-.1.2a.5.5 0 0 0-.5.3c-.6.7-1.5 1.2-2 1.9a3 3 0 0 0-.4.4l-.4.6a46 46 0 0 0-6.5 6.3c-.6.3-1 .8-1.4 1.4-.7.4-1.3 1-1.6 1.7-.2.4-.5.7-.9.9a13.4 13.4 0 0 0-4.2 4.3.8.8 0 0 0-.6.4 1.2 1.2 0 0 0-.8 1 5.9 5.9 0 0 0-2.5 2.5l-.4.4c-.7 0-1 .6-1.4 1.1a15.2 15.2 0 0 0-3.2 3.3l-1 1c-.3.1-.6.4-.3.7l.2.4v.1h-.4c-.8-.3-.8.3-1 .7h9c.2-.7.9-.8 1.4-1.1h.3c.9.3 1-1 1.6-1a.7.7 0 0 0 .6-.7v-.5a18.3 18.3 0 0 1 4.4-3.6h.8l-1.1 1.5-.9.8-.2.3a.4.4 0 0 0 0 .2l-.4.5-.2.1a1.5 1.5 0 0 0-.5.4v.2c-.5.3-.8.6-1.1 1a.5.5 0 0 0-.3.5.4.4 0 0 0-.4.3l-.1.1-1 1H4.2c.4-1.1 1.6-1.5 2.2-2.5l.1-.1c.6-.5 1.5-.8 1.7-1.7l.7-.5c.9-.2.6-1 .9-1.7.3.4.6.2 1 0h.7c-.2.6-.8 1-1 1.6l-.1.2c.3 0 .5-.4.8 0-.3.3-.6.4-.8 0a4 4 0 0 0-1.2 1.3l-.3.2c-.4.2-.5.6-.8 1-.5.4-.8.9-1 1.5a1 1 0 0 0-.7.7h18.5c.2-.4.5-.5.7 0h7.6v-.5c1.5-.3 2-1.5 3-2.4a2 2 0 0 0-.1 0l1.2-1 .7-.8a14 14 0 0 1 0-.3c-.2-.6-.1-.7.5-.8h.5c0-.5.1-.8.6-.8.4 0 .5-.3.6-.6a33.2 33.2 0 0 1 4.7-4.7c1.2-1.1 2.6-2 3.3-3.6a.9.9 0 0 1 .5-.5c1.2-.3 1.8-1.4 2.6-2.2a17.4 17.4 0 0 0 3.7-4l.5-.5c1-.1 1.5-.9 2-1.6 1-.4 1.1-1.6 2-2l.2-.2c.4-.2-.1-1 .4-1 .9.2.6-.6 1-.8.4 0 .4-.4.4-.7a.6.6 0 0 0 .7-.4v-.2c.8-.5 2-.5 1.5-1.8l1-.5a1.4 1.4 0 0 1 1.1-.7l.3-.2c.4-.4.8-.7.9-1.3l.5-.2a1.3 1.3 0 0 0 .5-.5l.2-.3c-.2-.8.4-1 .9-1.1.7-.1.7-.8 1.1-1.1 1-.7 1-.7 1 .3a.7.7 0 0 0-.6.4.4.4 0 0 0-.3.4l-.8 1c-.8.4-1.1 1.2-1.6 1.8l-.3.4-1 .7a.6.6 0 0 1-.3.5 28.1 28.1 0 0 1-3.8 4.2 7 7 0 0 0-1.8 2.1l-.3.1a1 1 0 0 0-.7 1.1c-.2.6-1.1.7-1.1 1.5l-1.1 1a5.6 5.6 0 0 0-2 2.2 1.1 1.1 0 0 0-.6.7l-5.7 6.2c-.4.4-.7.9-.8 1.4-1.2.5-1.6 1.8-2.5 2.6-3 2.6-5.3 5.8-8 8.7h17c.4-.6.9-1.2 1.5-1.6.5-.4.9-1 1.2-1.5l.4-.3c.7-.6.9-1.6 1.7-2a.4.4 0 0 1 .4-.4.3.3 0 0 1 .3-.3l-.3.3a.7.7 0 0 1 .3-.3l.4-.4v-.1c.4-1.2 1.4-1.7 2.1-2.5l.2.2.1.1.2.2-.8 1c-.3.3 0 .3.3.3a.6.6 0 0 1 .4-.4c0-.2.2-.2.3 0 .1.2 0 .4-.3.5-.3.5-1.2 0-1.5.7l-.5.2a9.1 9.1 0 0 1-.2.1l-.4.7v.3a.3.3 0 0 1-.2.2v-.1c-.3.1-.4.3-.1.4v1l-.2.4-.2.4c-.9-.7-1.1.1-1.5.6l-.2.2-.5.8v.1c-.4.3-.8.6-.7 1.2h5.1l-.3-1h.7c.8.1.6.5.3 1H64a1 1 0 0 1 .6-1 1 1 0 0 0 .5-.8l.2.2c.5.7-.3 1-.5 1.6h17a1.6 1.6 0 0 1 .7-1.8l.2.4.2.3-.7 1.1h6.1c.3-.6.5-.3.8 0h79a4.3 4.3 0 0 1 2.2-2.2l.1.3.1.6s0 .2.2.2l-.4 1.1h43.1c-.2-.7.1-1.1.7-1.4a1.8 1.8 0 0 0 1.2-1.8.3.3 0 0 1-.2 0c-.4-.1-.8.3-1-.3v-.2c.5-.3.9 0 1.1.4h.4a.5.5 0 0 1 .4-.3c1-1 1.4-2.5 2.5-3.3 0-.3 0-.7.2-.9 2.2-2 3.3-4.6 5.2-6.7l1.8-2.5.4-1v-.1c.8-.4.8-1.4 1.5-1.8 1.7-2.8 3.5-5.5 5.1-8.4a8.8 8.8 0 0 0 1.5-2.8H234.8c.5.5.8 1 1.5 1.4 0-1 .6-.7 1.2-.7-.3.5-.9.4-1.2.7-.2 1.2-1.2 1.9-2 2.7-1.2 1.6-2.5 3.1-3.6 4.8l-.6.4a1 1 0 0 0-.3.2c0 .2-.2.3-.3.5v.5l-.9 1.4c-.8.8-1.5 1.6-2.1 2.5v.4l-.4.3.3-.3v.2a.4.4 0 0 1-.3.1 8 8 0 0 1-1.5 2.2 38.6 38.6 0 0 0-3.4 4.3 10.6 10.6 0 0 1-2.6 3c-.3 1.5-1.5 2.2-2.2 3.3-.5 1.3-1.6 2-2.2 3.2h37.3l1.8-3c.3-.7.8-.7 1.2-.2 1 1 1.8 2 2.5 3.2h17a1 1 0 0 0-.6-1Zm-425.1-69c-.1-.3.2-.5.4-.6a.8.8 0 0 1 .8 0 .7.7 0 0 1-.5.6c-.2.1-.5.4-.7 0Zm-2.5 16.7a1 1 0 0 1-.3-.2h.4l-.2.2ZM9.4 487.8a.6.6 0 0 1-.1 0v-.1l-.4.1c0-.2.1-.3.4-.2h.3v.2s-.1.1-.2 0Zm118.8-12a.6.6 0 0 1 .4.4c-.3 0-.8.2-.4-.4Zm-63.8 4.4a.9.9 0 0 1-.3 0H64c0-.3 0-.6.4-.6V480.2ZM-14 478l-.2.3h-.2a1 1 0 0 0 0 .1l-.3-.2c-.4-.3-1-.6-.4-1 .6-.5.8 0 1 .4l.1.4Zm-2.5 8.2v-.5a.7.7 0 0 1 .2 0c0 .2.2.4-.2.5Zm-24 1-.1-.1-.2-.1.2-.1.1.2Zm-95.8-137.4a.3.3 0 0 1-.3-.2.4.4 0 0 1 .3-.5l.3.1a.5.5 0 0 1-.3.6Zm163.7-50.1a.3.3 0 0 1-.3 0 .3.3 0 0 1-.1-.3l.1-.3.4.3c.1.1 0 .2-.1.3Zm2.2 10.3c.1 0 .2 0 .2.2.1.2 0 .3-.2.3l-.3-.2a.3.3 0 0 1 .3-.3ZM50 281a.4.4 0 0 1 .5 0c.2.2.1.4 0 .6-.7.9-1.6.7-2.3.7l-1 .1-.3-.3.3-.4c1.2.5 2-.1 2.8-.8Zm-4 42.3a.3.3 0 0 1-.1 0h-.2a.9.9 0 0 1 0-1c.4.3.7.5.3 1Zm-3.4-18 .3-.1h.1l-.3.2Zm-6 37.9H37.2v.3h-.5l-.1-.2h-.1v-.1Zm1.6-55 .1.2-.2.2a1.6 1.6 0 0 1 0-.3l.1-.1Zm-3.5-3.7-.5.3c-.3.1-.6.3-.8 0a.3.3 0 0 1 0-.3c.3-.3.5-.2.8-.1h.5Zm-2.2 66v.6l-.6-.3v-.7h.6v.4Zm13.4-59a.3.3 0 0 1-.3-.3v-.2c.3-.5.7-.4 1.1-.3.2 0 .3.1.3.4a1 1 0 0 1-1 .4Zm.3-1.8c-.7 0-.7-.6-1-.9a19 19 0 0 1 2.6-2.1c.7-.1 1.3-.3 1.5.6v1.1a.4.4 0 0 0-.4.4c-.5.2-.4.7-.4 1l-2.3-.1Zm-14 11.2-.2.2V300.8l.1.1Zm-1.5 32-.3.2c-.2 0-.3-.1-.2-.3l.3-.1.2.3Zm0 24.4.2-.1h-.1Zm.6-.8v-.1ZM58.6 309c-.6-.4-.5-.7 0-1l.3.3v.3l-.3.4Zm-1.6-4.3c-.7.5-1.3.3-2 .2.7-.8 1.2-.8 2-.1Zm-1-3-.3.4c-.3.1-.5.4-.8.2-.3-.2 0-.5.2-.7.3-.1.1-.7.6-.6.3 0 .3.4.3.7Zm-2 19.1.2.3H54V321Zm2.5-22.6a.8.8 0 0 0 .3-.8c1.1-.5 1.4-.4 1.6.4 0 .2-.2.4-.5.4.5.8.4 1.1-.7 1.7l-.1-.3c-.4-.5.1-.6.4-.8v-1c-.4.3-.4.9-1 .7v-.3Zm-22.8-23.7v-.5l.2.2a.9.9 0 0 1-.1.3Zm1.3 153c-.4-.3-.2-.6 0-1 .3.4 0 .7 0 1Zm14.2-8.7c0 .3-.1.6-.6.5-.2 0-.4-.2-.5-.4 0-.4.3-.6.6-.6.4-.1.5.2.5.5Zm24.8-13h.2c.2 0 .3.2 0 .4h-1a.6.6 0 0 1 .3-.3l.5-.1Zm19.4-8.6c.4 0 .4.4.4.6h-.5a.3.3 0 0 1-.1-.3.3.3 0 0 1 .2-.3Zm5.7-2.6h.2a.4.4 0 0 1 .2.3H99v-.3h.2Zm10.2-2.7c.2 0 .3 0 .3.2v.2h-.3a3 3 0 0 1-.6.1 1 1 0 0 1-.2 0 .8.8 0 0 1-.5-.3l1.3-.2Zm1.2 0c.7-.8 1.3-1 2.8-.9V391.4c-.9.5-1.7 1.4-3 .8l.2-.2Zm13 18.6a3.3 3.3 0 0 0 .4 0c.6 0 1.3 0 1.7.6v.5c-.7 0-.6.6-.8 1h-.2v.5c-.6.7-.6 1.7-1 2.5h-.8c0-.5 0-1-.7-1.1v-.3l.4-.7c.2-.3.4-.7.7-.8a.8.8 0 0 1 .3 0l1-1.2c0-.7-.4-.8-1-.4 0 .2-.1.3-.2.3l-.2-.2.4-.7Zm-.3-4.6h.2v.2l-.2-.2Zm4.3-6-.2-.1.2-.1v.3Zm3.3-.6a1.4 1.4 0 0 1 .2.2 1.5 1.5 0 0 1 .5 1.5l-.5.5.2.6v.2l-.1.4v.1l-.3.1h-.7c.1-.5-.5-1.4.6-1.5.2-.5.2-1 0-1.7l.1-.4ZM122 432v-.4l.3-.1.5-.3.1.2.3.2-.1.7h-.2l-.1.1a1.5 1.5 0 0 1-.6-.2.6.6 0 0 1-.2-.2Zm-12-3.2.1.3h-.7v-.3a.4.4 0 0 1 .3-.1h.4Zm-12.7 46.7.2.2a.4.4 0 0 1-.2.2.4.4 0 0 1-.3 0l-.1-.2a.4.4 0 0 1 .4-.2Zm-2-9.5h-.1c-1 0-.7-.6-.7-1h.3c.2.3.8.5.4 1ZM71 480.2a1.4 1.4 0 0 1 0-.3h.1a.3.3 0 0 1 .1 0h.2v.2a2.4 2.4 0 0 1-.3 0H71ZM-7.1 477c-.1.2-.2.2-.3 0l.1-.3.2.2v.1ZM36 426l.7.1c.8.4.8.5.2 1l-.2.2h-.2l-.2-.2-.3-.5v-.6Zm90.4-19.2a3.9 3.9 0 0 1 .1-.1c1.4-.8 1.4-.8 2.3.4l-.2.2a146.3 146.3 0 0 0-.2.2c-.5-.3-1-.8-1.7-.3-.2.2-.3-.1-.3-.4Zm1.2 7.2h.1a.7.7 0 0 1 .6.2.7.7 0 0 1 .2.5v.1a.6.6 0 0 0 0 .2l-.2.1a.9.9 0 0 1-1 0l.2-1v-.1h.1Zm-3.2 13h-.6a.7.7 0 0 1-.4-.3 2 2 0 0 1-.1-.5l.2-.3c.6.1 1 .4 1 1v.1Zm-1.4 1.1H124c0 .3 0 .7-.5.6-.2 0-.3-.3-.3-.5Zm1-4.1v.1a.2.2 0 0 1-.2.1l-.4.2a.7.7 0 0 1 .3-.7c.1 0 .2.1.2.3Zm3-10H126.8l.1-.2h.1v.1Zm-.8.8c.2 0 .4.2.4.4s0 .5-.3.5c-.2 0-.5 0-.5-.3 0-.2 0-.6.4-.6Zm-7.9 2.8v1c-.6.2-.5 1.4-1.4 1.2a2.5 2.5 0 0 1 1.4-2.2Zm-4-17.7-.2-.2.3-.2.2.2c0 .2-.1.3-.3.2Zm16.5 5.1c-.1.2-.2.5-.6.5-.2-.3 0-.5 0-.7.1-.2.2-.6.6-.4.3.2.1.4 0 .6Zm-1.4-3.1c-.3.1-.4 0-.5-.2h.3l.2.2ZM114 395c0-.2-.3-.4-.1-.6.7-.7 2 .4 2.5-.9 0 0 .5.4.5.7a1.4 1.4 0 0 1-1 1.2c-1.1 2.2-2.1 2.4-4.4.8-.1-.4 1.6-.8 0-1.2a.8.8 0 0 1 1.2-.2c.4.3.9.2 1.3.2Zm-18.6 68.5c0 .3-.3 0-.5 0a.5.5 0 0 1 0-.3c.2 0 .6 0 .5.3Zm-12.6-2a.7.7 0 0 1-.1.4.6.6 0 0 1-.2.2 7.8 7.8 0 0 1-.4 0v-.4l-.1-.5a.6.6 0 0 0-.6-.2 2.3 2.3 0 0 1-.1.7l-.2.4h-.7V461.8l1-.8c.3-.5.5-1 1-.2l.5.6v.1Zm-15.5 20.2-.2.2-.1-.2h.2ZM17 478.9c-.4.2-.7-.2-.8-.5l.2-.1.6-.2a.9.9 0 0 1 .2 0c0 .3.2.7-.3.8Zm73.8-26.6c-.2 0-.4-.3-.2-.5s.4 0 .6.1l-.4.4Zm14.3-58.2a.3.3 0 0 1 0-.1h-.1.1v.1Zm-6.3 45.5H98.5c0-.3.2-.3.3 0Zm-27 6.8c.2-.2.1 0 .2.1l-.2-.1Zm-20.5 9.9-.1.2h-.5a.8.8 0 0 1-.1-.2h.7Zm-32.1 10.3Zm55.7-10a2 2 0 0 1-.4 0c.1-.3.2-.3.4 0ZM82 436c0 .4.3.4.5.5v.6a4.8 4.8 0 0 1-.3 0l-.4-.1-.3-.2c-.2-.3-.4-.5-.2-.8.1-.2.2-.5.5-.5s.3.3.2.6Zm2 .8c0-.3-.5-1.3.6-.7a.6.6 0 0 1 0 .2 1 1 0 0 1-.5.5H84Zm-5.9 7v-.5h.8a1.1 1.1 0 0 1-.7.7.7.7 0 0 0 0-.2Zm8.8-15c.3 0 .6 0 .9.2l.1.2c-.3 0-.7.2-1 .4H86a1.4 1.4 0 0 1 .8-.8Zm17.5 1.9a.4.4 0 0 1-.1-.3l.2-.2v.1a.3.3 0 0 1 .1.3c0 .2-.2.2-.2.1Zm-13.6-7h.4a.9.9 0 0 1 .3.5l.1.3c-.3.1-.6.5-1 .2-.2-.3 0-.5.1-.8a.7.7 0 0 0 .1-.1ZM74.4 469l-.1-.1v-.1l.2.1-.1.1ZM94 446.8l.4-.2.4.2v.1c-.1.3-.3.6-.6.6s-.4-.3-.4-.6l.2-.1Zm13-36.2h-.2l-.2-.6a.3.3 0 0 1 .2 0h.1c.3.1.2.4.2.6h-.1Zm-95.3 41.9a1.6 1.6 0 0 1-.3 0l.2-.1Zm4 21.5v.5a.5.5 0 0 1-.2.2V474.1h.3Zm60.7-7.2v-.7h.5c.2 0 .4 0 .4.2 0 .3-.2.3-.4.3l-.5.2Zm-9.1-52.6h.3l.5.4-2.3 2.2h-1l-.2.2c-.2-.2 0-.2.1-.2-.2-.4-.7-.4-.8-.8l3.4-1.8Zm-23.8 58.4c-.3 0-.4-.3-.3-.5a.3.3 0 0 1 .2-.2.3.3 0 0 1 .3 0 .3.3 0 0 1 .2.5l-.4.1Zm36.1-8.3h.5v.2c-.1.2-.4.1-.5.1v-.3Zm-14-53.8-.1.1c-.3-.1-.4-.3-.2-.6h.3v.5Zm-13 6 .2.2c.2.8-.3.6-.6.5-.2 0-.2-.4-.5-.4l-.2.1h.1v-.1h.1l.3-.8.3.3.3.2Zm-1.8 1.5-.5.3c-.2.2-.3.3-.4 0-.1-.8.5-.4.8-.5 0 0 .2.2 0 .2Zm-25.3 20.2v.3l-1.4.6a.6.6 0 0 1-.5 0 .5.5 0 0 1-.3-.2c.7-.4 1.2-1.4 2.2-.8Zm49 39a1 1 0 0 1-.2 0 .8.8 0 0 1-.4-.5.4.4 0 0 0 .1 0l.2-.1a1.2 1.2 0 0 0 1-.3v-.1c.5.1.4.4.4.7l-.7.2a.8.8 0 0 0-.3.2Zm9.6-18.3c-.4.8-.9.7-1.2 0a.9.9 0 0 0 .2-.2c.5-.2.6-.8.9-1.2.3-.5.8-1 1.4-1.2h.4a1 1 0 0 1-.4 1c-.6.4-1 1-1.3 1.6Zm43-34.5h.7a1 1 0 0 1 0 .3c-.3 0-.6 0-.7-.3Zm1-29.7v.3h-.2l.3-.3Zm-.6.7h.4v.7a.3.3 0 0 1-.5.1.3.3 0 0 1-.1-.2c0-.2 0-.4.2-.6Zm-2 12.6c.7 0 1.1.4 1.3 1.2.3.2.4.5 0 .8l-.8.6a.6.6 0 0 1-.2 0l-.7-.8a.8.8 0 0 0-.2-.2c-.3-.5.2-1 0-1.5h.6Zm-26-12.6c-.2.3-.2.7-.7.5-.2-.1-.2-.4 0-.6l.7.1ZM47.7 420l-.1-.1.1-.1h.2c0 .2 0 .2-.2.2Zm-18.1 13.8H29.9c-.2 1-1.4 1-1.8 1.9l-.2.1-.8.6a1.3 1.3 0 0 1-.8.7c-.2.1-.4.4-.8.2-.4-.3 0-.7 0-1h.3l.8-.3c.4-.3.5-.5.4-.7a.8.8 0 0 0-.3-.4l2.9-1.1ZM-63.7 487a1 1 0 0 0-.3 0c-.3 0-.5.5-.8.2-.2-.2 0-.4.1-.6l.7-1h.4l-.1 1.4Zm-92.2-30 .1.4h-.1l-.1-.2v-.1Zm147.3-34.3h-.2v-.6h-.4v-.5c0-.1 0-.2.2-.2l.1.5v.2l.2.1a.5.5 0 0 1 .1.5ZM-147.4 459l.1-.3.2.2a.3.3 0 0 1-.1.2.5.5 0 0 1-.2.1v-.2Zm146-68.7-.2.1a.7.7 0 0 1-.1 0 .8.8 0 0 1-.2-.2 1 1 0 0 1-.2-.3c.6-.5.8-1.3 1.6-1.6.6.5-.1.9 0 1.3a1 1 0 0 0-.8.7Zm-2.8 50.5c-.1.2-.3.4-.5.2s0-.3.2-.4l.3.2Zm-151.5 33a.3.3 0 0 1 .2.3h-.2v-.4Zm42.1-99.2c.2-.4.6-.3 1-.3h.2l1-.8c.2-.1.2-.3 0-.5l.3-1.1v-.1a.4.4 0 0 1-.2 0c0-.2.1-.1.1 0 .4 0 1 .2 1.2-.3l.2-.2a.8.8 0 0 1 .4 0c.3.1.6.3 1 0 .8-1 1.8-1.9 2.9-2.6l.5-.6v-.6c.7-.7 1.9-.3 2.5-1.2-.1-.2-.1-.5 0-.8v-.2l1.5-1h.2l.3.2h.2v.4h-.4c0 .6.5 1.2 0 1.7-.9.3-1.3 1.2-2 1.6a.4.4 0 0 0-.5.3c-1.4.7-2.4 2-3.6 3-.4.1-.6.6-1.1.7a15 15 0 0 1 0 .7c0 .2.4.6 0 .7-.6 0-.6-.3-.7-.6v-.1h-.4c-.3.5-.8 1-1.3 1.2a15.5 15.5 0 0 0-4.5 3.5 1.2 1.2 0 0 0-1 .7l-.8.7-1 .4-.2.2-.3.5-1 .8c-.9.4-1.7 1-2.2 1.8-.5 0-.7.3-1 .6a13.5 13.5 0 0 1-3.5 2.6h-.2v.4a4.2 4.2 0 0 1-1.8 1.3l-.4.2v-1.2a4 4 0 0 0 2.2-1v.1c.6-.4 1-1 1-1.6l.1-.3h.4c.9.1 1.3-.2 1.3-1v-.5a10 10 0 0 1 2.3-1.8c.4-.4.5-1.4 1.4-.7.7 0 1-.7 1.5-.8a.7.7 0 0 1 0-.2l.4-.2a1.9 1.9 0 0 0 1-1.2v-.5c1.2-.5 2.4-1 3-2.3ZM1 322.6v-.6c.6.3.8.8.5 1-.4.5-.5 0-.5-.4Zm-11.7 99.3a.3.3 0 0 0 0 .3c0 .2-.1.3-.3.3h-.1a.3.3 0 0 1-.1 0 .3.3 0 0 1-.1-.2v-.2a.4.4 0 0 1 .4-.2.9.9 0 0 1 .2 0Zm-140.8 41.3.3-.6c.3.3.2.7.3 1 0 .2.2.2.2.3a.6.6 0 0 1-.1.1.8.8 0 0 1-.6.2l-.3-.3.2-.7Zm34.5-91 .3.1c-.2.3-.2 0-.3-.1Zm13.4-7.1a.4.4 0 0 1-.4.1h-.1a.3.3 0 0 1 .3-.3h.3a.5.5 0 0 1 0 .2Zm13.8 99h-.2.1Zm12-115.5c.1 0 .3-.2.3-.4 0-.5.4-.6.8-.7 0-.3 0-.5.4-.6l.7-1.5.4-.1c.6-.4 1-1.1 1.5-1.7a7.5 7.5 0 0 0 2-1.6l.5-.4c0-.3-.4 0-.7-.2.7-.6 1.7 0 2.2-.7 0-1.5.5-1.8 2-1.6l.2-.1c1.5-1.4 1.9-1.6 3.4-.8l.5.2c-.3.8-1 1.1-1.7 1.6l-4.9 3.8-.3.2c-1.6 1-2.9 2.4-4.4 3.4l-1 .5-.4.3a1 1 0 0 1-.4.4l.1.4v.4a.8.8 0 0 1-.1.3c-.5.4-1 0-1.4 0v-1.1h.3Zm68.6 58.7c0-.2 0-.3.3-.3l-.3.3Zm-92 56.8s.1-.2.2-.1l.2.1-.1.1a1.7 1.7 0 0 1-.3 0Zm-11-83.6h-.1c-.2-.1-.2-.2 0-.3l.3.1a1 1 0 0 1-.2.2Zm14.9-30.4-.2.2-.1-.1.2-.2Zm87 82.3v.3h-.2c-.5 0-.7-.7-1.3-.7l-.4-.3c-.5 0-1 .2-1.6-.2.2-.8.5-1.6 1.6-1.2 0 .5.4.8.7 1 .6.1.9.6 1.2 1a5 5 0 0 0 0 .2Zm-4.2-11.5h.1v.1h-.1Zm-1.2 1.6.1-.1.1.3s0 .1-.1 0a.2.2 0 0 1-.1-.2Zm1.4.1-.4-.1v-.2h.1a.4.4 0 0 1 .3.3Zm1.4-6v.2a.7.7 0 0 1 .3.5c-.4 0-1 .3-1-.4a2.6 2.6 0 0 1-1.4 1.4.8.8 0 0 0 .6.6.5.5 0 0 0 0 .4c-.2.3 0 .5 0 .6v.1c-.4 0-.7.1-.7.6a1.8 1.8 0 0 1-1.3 1.7v.4l-.3.2h-.5v.2a.6.6 0 0 0 0 .2 42.5 42.5 0 0 0-6 5.3c-.5.6-1 1.1-1.7 1.6a15 15 0 0 1-2.4 2.6c-.8.4-1 1.3-1.8 1.8l-.8.7a18.1 18.1 0 0 0-.4-.4l.7-.5H-29.3l-.2-.2V433.9c1-.2 1-1.2 1.7-1.6.6-.9 1.3-1.7 2-2.4l.2-.1.2-.5.1-.2c.8-.4.6-1.6 1.6-1.8l-.4-.6c-.8-.7-.4-1 .3-1.2v.2l.2.6.2.2v-.3c.3-.7 1.2-.7 1.5-1.4l1-1.5v-.4c1-.4 1.1-1.5 1.8-2.2l.3-.2c.6-.5.6-.8.2-1.2l-.4-.4c0-.5.4-.7.7-1 2.2-2 2.2-2 3.2-4l1-1.5c.3.7-.3 1.2-.2 1.8h.3l.3.5.1.3h-.7c0 .5.2.7.7.7.5 0 .7.3.8.7v.2Zm-88.4-40.9c0 .2 0 .5-.4.4a.3.3 0 0 1-.2-.2.5.5 0 0 1 .3-.5c.2 0 .3.1.3.3Zm91-8H-10.7l.1-.2.1.2Zm-4 40c-.6-.1-1 .6-2 .4.9-.4 1-1.7 2-.8v.4Zm-76.9-54.8a.4.4 0 0 1 0 .3.4.4 0 0 1-.4.1.5.5 0 0 1 .4-.4Zm25.2 4.9h.1l-.1.2-.1-.1.1-.1Zm-41.1 38.5v-.1l1-.8a1.1 1.1 0 0 0 .8-1h.1c.9-.1.6-1.3 1.3-1.5 1-.3 1.5-1.2 2-1.9l1.6-1.4c1-.7 2.2-1.1 2.7-2.5.1-.4.9-.4 1-1 .2-.6.3 0 .3 0 .3.6.6.2.6 0a1.9 1.9 0 0 1 0-.6v-.1a.4.4 0 0 1 .1-.1c.6.5.7 0 .8-.4.2 0 .4 0 .6-.2.8-.3 1.1-1.2 1.8-1.8a2 2 0 0 1 .2-.2l.2.1c0 .3.2.5.5.3l.7-.8h-.2.2c.7-.6 1.6-1 2-2 .2-.5.8-.7 1.3-.8.4 0 .9-.3 1.3-.5a.6.6 0 0 1 .4-.3c.9-.9 1.6-2 2.9-2.4.6-.2.6-.9 1.1-1.2v-.3h.2l.9-.1c-.5-1.1.7-1.2 1.1-1.7l.4-.4.7-.5c.4-.2.5-.7 1-.6l3.3-2.5h.4l.4.7-.8 1c-.3 0-.5 0-.6.4a.4.4 0 0 0-.4.4h-.7c-.2 0-.3.2-.4.4v.3l-.4.4h.1a.5.5 0 0 0-.4.3c-.6.6-1.5.7-1.8 1.5L-82 377c-1 .9-2 1.6-3.1 2.3l-.4.2c-.6.8-1.2 1.4-2 2-.6.7-1.7 1-2.1 1.8a.7.7 0 0 0-.6.5l-1 .6c-2.6 2.5-5.5 4.6-8.2 7-.6.1-.9.7-1.4 1a1.3 1.3 0 0 0-1 .8l-.4.3-1.3 1-.1.2a33.6 33.6 0 0 0-3.6 2.6.5.5 0 0 1-.2-.2c-.1-.3.1-.6.2-.8Zm92.9-54.6v.2l-.1.2h-.7l-.2-.1-.2-.3c.4-.4.7-.6 1.2 0Zm-4.1 2.2.2.2h-.1a.6.6 0 0 1-.1-.2Zm-60.2 49.6a3.3 3.3 0 0 1 0-.3.3.3 0 0 1 .3.1.3.3 0 0 1 0 .3h-.3Zm-2.5 14.2h-.1l.1-.7h.2l.1-.1a.9.9 0 0 1 .8.4v.4H-81ZM-93.3 420c0-.2-.1-.5.1-.5s.2.3.2.5h-.3Zm7.6-23.2c.6.6.3 1.3.7 1.7-1.4 0-.8-.8-.7-1.7Zm49.8-21.2.2.2c0 .2-.1.4-.3.3l-.2-.2c0-.2 0-.3.3-.3Zm-2.8 1.7a.3.3 0 0 1 .3 0v.1l.1.1-.1.3a2.5 2.5 0 0 1-.4-.3.3.3 0 0 1 .1-.2Zm.8-12.4c0 .3-.2.4-.5.3v-.1c0-.3.3-.2.5-.2Zm15 6h.2l-.2.1v-.2Zm-4.8-16.5v-.5h.3c0 .3-.1.4-.3.5Zm-40 23c-.1.1-.2.5-.5.4l-.1-.5h.6Zm-42.5 57.6h.5v.2c-.2 0-.4.2-.5-.2Zm6.7-4.4a.6.6 0 0 1-.1.1.5.5 0 0 1-.2.2h-.4c0-.4.3-.4.6-.4Zm79.6-79.7c-.2 0-.4.2-.5 0 0-.3 0-.4.3-.5.3 0 .5 0 .7.4l-.5.1Zm-7.9-.7h-.1a.3.3 0 0 1 .1-.1ZM-76 367.6a.9.9 0 0 1 .3-.1h.2a.4.4 0 0 1-.4.3l-.1-.2Zm-26 73.8c.3 0 .4-.3.6-.1a.3.3 0 0 1 0 .4c-.2.1-.4 0-.5-.3Zm67.9-2.5c.2 0 .3.1.3.3l-.3-.3Zm-4.3-8.4c.2-.2.4 0 .5 0h.1a.9.9 0 0 1 0 .1.5.5 0 0 1-.2.2.4.4 0 0 1-.4 0 .3.3 0 0 1 0-.3Zm10.8-10.8.1-.3.2.2-.2.3v-.2Zm7.8-97.9c0 .5.5 1 0 1.7a1.5 1.5 0 0 1-.1-1.6h.1Zm-3.6 3c.2 0 .3.1.2.3a.8.8 0 0 1-.4.3c-.1 0-.3 0-.3-.3a.5.5 0 0 1 .5-.3ZM-88 355.4a.7.7 0 0 1-.3-.6c.4 0 .4.3.3.6Zm-5.2-1.6c.3.2.2.4.2.6-.2 0-.4-.2-.3-.5h.1Zm65.4 76.6v-.2h.3c.1.2 0 .4-.1.6h-.3l.1-.4Zm-6.8-97.7a.6.6 0 0 0 0 .1.5.5 0 0 0-.1.1c-.3 0-.6.3-.8 0-.3-.2 0-.4.1-.5.2.2.6 0 .8.3ZM-64 454.2c0 .1-.1.2-.3.2 0 0-.2 0-.2-.2a.4.4 0 0 1 .3-.3.9.9 0 0 1 .2 0 .4.4 0 0 0 0 .2v.1Zm-69.3-62-.2.3-.4-.3a.6.6 0 0 0 0-.1c.3-.1.5-.4.7 0Zm92.2 87.7.4-.1a.7.7 0 0 0 .3-.3.8.8 0 0 1 .2.1c.2.2.1.4-.2.6a1.2 1.2 0 0 0-.4.7c-.4-.3-.4-.6-.3-1Zm29.6-64.7h-.1v-.1Zm-24.7-104.9a.3.3 0 0 1 .3-.3s.2 0 .2.2 0 .3-.3.3l-.2-.2Zm-5.4 171c.2 0 .4 0 .6.2l.5.2c-1 .5-1.1.5-1.4-.4a.7.7 0 0 1 .2 0Zm-38.9-140 .4.1h.1c.1.2.3.3.5.3h.6c.4 0 .5.2.5.4a1 1 0 0 1 0 .3 3.4 3.4 0 0 0-2-.3.5.5 0 0 1-.6-.4.5.5 0 0 1 0-.2.9.9 0 0 0 .3-.2h.2Zm-19.7 22.7v-.6c.2-.3.5-.6 1-.3a.8.8 0 0 1 .2.7c-.2.6-.8.4-1.2.5v-.2Zm-30.1 24.8v-.3l.3-.2c.3 0 .6 0 .8.6l-.1.1a.7.7 0 0 0 0 .2l-.6.2c-.2.8-1.2 1-1.6 1.6v-.1c-.7-.8-.7-1 0-1.4.4-.3.9-.2 1.2-.6ZM-10.7 415h1.1c0 .4-.1.8-.5.8s-.9-.2-.6-.8Zm-12.1-109.5-.1-.1s0-.1 0 0h.2l-.1.1Zm-15.8-5.8c-.2-.3 0-.5.3-.6a.5.5 0 0 0 .4.3l-.2.3c-.2.1-.3.2-.4.1a.3.3 0 0 1-.2 0ZM-144 393.5c-.3-.3 0-.3.1-.3l-.1.3Zm-7-5c.1.2 0 .4-.1.4-.3.1-.4-.2-.4-.4a1.6 1.6 0 0 1 0-.2c0-.2 0-.3.2-.3a.2.2 0 0 1 .2 0l.1.5Zm142 70.3c0 .3-.2.4-.3 0a2 2 0 0 1 .3 0Zm-1.8-37.7v.3c-.5-.1-.5-.4 0-.6v.3Zm.7-2.4a27.8 27.8 0 0 1-.3.6c-.2.2-.6.8-.6.3 0-1-.6-1.9-.1-2.8l.7-.5c.4 0 .3.3.5.5.4.4.7.7 0 1-.2.1-.1.5-.1.7v.2Zm10.5-27c0-.4.2-.3.4-.3v.3H.5Zm-35-93.6-.2-.1c0-.3.1-.4.4-.5l.3.1c0 .3-.2.5-.4.5Zm-96.7 46.4h-.1v-.1ZM-33.5 482l.3-.2h.3c.2.2.4.3.2.6-.3.3-.5.2-.6 0a2 2 0 0 1-.2-.4Zm34-39.1v-.4h.7c-.1.4-.4.4-.7.4Zm-10-31.3c-.3 0-.3-.2-.3-.4.2-.6.6-.7 1.1-.6h.2l-.2.3c-.2.3-.4.8-.9.7Zm8.3-18.7v-.2l-.1-.6a1 1 0 0 0 0-.1 1 1 0 0 0-.7-.6l-.1-.1-.3-.3v-.4l.4.2h.2l.2.2a.4.4 0 0 0 .3 0l.8.4c-.2.5-.3 1 .1 1.3a.7.7 0 0 0 .1 0v.1l-1 .1ZM20.6 307l-.3.2c-.2-.2-.2-.4-.1-.7 0-.1.1-.2.2 0a.4.4 0 0 1 .3.4.4.4 0 0 1-.1.1Zm-52.8-11.2c.2 0 .3-.3.5-.5l-.2-.2.1-.1.1.3c.5.7.4 1-.5 1.1-1 .2-1.6-.7-2.4-1.1l.2-.2.5-.2h.4c.3.3.7.3 1 .6l.3.3Zm-11.8 7.9a.4.4 0 0 1-.4.3h-.1l-.1-.2c.2-.2.4-.2.6-.1Zm-1.8.1a.5.5 0 0 1 0 .2c0 .1 0 .5-.3.4v-.5a.4.4 0 0 1 0-.1l.3-.2v.2Zm-16.7 9c-.3 0-.4-.2-.4-.4a.4.4 0 0 1 .4.3Zm-23 9.6.4.5c0 .3-.2.5-.3.7l-.2-.3a.3.3 0 0 1-.1 0c0-.4-.3-.7.1-1Zm-4 3v-.3c0-.2.2-.4.4-.3l.2.3c-.1.2-.3.4-.5.3Zm-62.2 72.4c.3-.2.2-.4.1-.7a1.4 1.4 0 0 1 0-.2l.2-.4.2.2c.5.6.1 1.5.8 2-.6 0-1.3.1-1.4-.8h.1Zm5.4 9.1.8.4.3.2c-.3.5-.8.3-1.2.1-.4-.1-.1-.4 0-.7Zm-2.2 49 .1-.1v.1Zm.7.5c0-.2.5-.1.8-.1v-.3h.3v-.4l.4-.1v-.3c.1-.3.4-.4.7-.4v-.3h.4a1.2 1.2 0 0 1 1-1.2c.2-.4.7-.5.8-1l.3-.3.1-.4.1-.1c1.4-1.1 2.3-2.7 3.8-3.6l.3-.3a9 9 0 0 1 1.7-1.7 1.7 1.7 0 0 0 1-1.6c1.2-.2 1.6-1.3 2.4-2l.1-.1a19 19 0 0 0 1.7-1.8 2 2 0 0 1 1.5-.8l.3.3c.4.3 1.1 0 1.6.3-.2.6-.7.9-1 1.2-1.4 1.6-3.2 2.7-4.5 4.4l-1 .7-.5.3a12 12 0 0 0-2.1 2.2l-.1.1a32.2 32.2 0 0 0-3.6 3.3l-.3.3-.4.3c-.7.3-1 1-1.8 1.5l-.2.1-.4.3-.4.4a.8.8 0 0 1-.2.3h.3l-.3.1-.2.2-.4.4a1 1 0 0 0-.3 0l-.4.4-.3.3v.3h-.4v.2c-.2.6-.8.8-1.3 1.1a1.1 1.1 0 0 0-.2.2.4.4 0 0 0-.4.3l-.1.2-.2.2-.4.4H-150.2v-.3l.2-.3v-.1c.7-1 2-1.4 2.1-2.8ZM5.7 441.1c-.3.4-.6.3-.9 0l.2-.5a.2.2 0 0 1 .1 0 .4.4 0 0 1 .4.1l.2.4ZM.9 395.4v-.7H1c.2 0 .5 0 .5.2 0 .3-.1.4-.4.5H1Zm14.9-117 1-.4v.1c0 .3.2.7-.3 1v.3a2.2 2.2 0 0 0-1.4.4h-1l-.6-.1c.2-.6 1-.1 1.2-.7.2-.2.4-.3.4-.5v-.1l.3-.1h.4Zm-26.5 7.4a.4.4 0 0 1 .4-.3c1-.4 2-.7 3.1-.9.8-.2 1.5-.1 2-1 .2-.4.5-.2.8.2.2.2.4 0 .6-.1a.4.4 0 0 1 0-.3c.3-1 .4-1 1.1-.5.4-.5 1.5 0 1.6-1 .6 0 1.1 0 1.7.2.4 0 .4.8-.2 1-1 .7-2 1.2-3 1.7-1.3 1-2.6 1.8-4 2.5a3.3 3.3 0 0 1-2.2.5 1 1 0 0 0-1.1.2l-.8.1v-.3c.4-.3.4-.5 0-.7l-.7-.5h-.3v-.7h1ZM-146 444.2c.2-.2.4-.5.7-.6l.5.4-.8 1H-146v-.4l-.1-.4Zm-8.4 11.8v.2l-.2.2-.1.1c-.2.2-.5.2-.6 0-.2-.4 0-.6.4-.7l.5.1Zm145.2 27.8s.2 0 .2.2l.2.4a1.3 1.3 0 0 0 .3.6c0 .2.4.5.1.7-.1.1-.5 0-.8 0l-.7-.8a.6.6 0 0 1 0-.3l.7-.8Zm68-20.7c-.5-.3-.5-.7-.5-1.2v-.5c.3.1.5.4.7.7v1a1 1 0 0 1-.2 0Zm25.5 4.7c-.2-.5.2-.2.4-.3-.1.2-.4.4-.4.3Zm1.8-9.4h-.7a.1.1 0 0 1 0-.2c.2-.2.5-.4.7-.2a.5.5 0 0 1 .1.1.7.7 0 0 0-.1.3Zm14-9.6v-.6c.3 0 .4.3.6.5 0 .4-.1.8-.7.6v-.5Zm15-7.4v-.4l.5-.6a.9.9 0 0 1 .3-.4h.2v.7a1.1 1.1 0 0 0-.2 1v.1l-.2.2-.2.1-.4-.3v-.4Zm7.2 6.8-.2-.2.2-.2s.1 0 0 .1v.3Zm-1.2-14.6-.5-.1a.5.5 0 0 1-.4.3.4.4 0 0 1 .4-.4c.2-.5.9-.2 1.1-.7l.2.2c.3.4 0 .6-.5.7a.8.8 0 0 1-.3 0Zm8.1-13.4v-.2c.2.2.1.5.1.7l-.1-.5Zm-3.7-21.5.6-1c0-.3.2-.5.4-.6l.1-.1c.4-.2.7-.2.6.4-.2.9.2 1 1 .8h1.1c0 .6 0 1-.6.7a1 1 0 0 0-1 .3l-.2.2c-.9.1-.8.7-.7 1.2v.2c-.7 0-1.5.3-1.8-.3-.2-.5.1-1.3.5-1.8Zm-1.9-5a.3.3 0 0 1 0 .4c-.3.4-.8.1-1.4.2.5-.9 1-.8 1.4-.5ZM16.1 433.6c-.2.3-.4.4-.6 0h.6Zm-3.3.7v.3c-.3 0-.7 0-1.1.3a1.8 1.8 0 0 1-2-.3 8.7 8.7 0 0 1 3.1-.3Zm-3.3.5v.4l-.2-.2.2-.2Zm-.4 3.6c.1.4-.3.6-.6.8l-.3.2-.6.1c-.6-.1-1.2-.3-1.7-.7l-.2-.2c.4 0 .8 0 .7-.6l1.6-.1a1 1 0 0 1 1.1.5Zm-11.9-39.4-.6.2a.3.3 0 0 0-.4.3H-4.2v-.1l.3-1h.1l.9-.3a.9.9 0 0 0 .1 0h.4c.1.2.5.6.4.8-.1.4-.6 0-.9 0Zm9.6-12.5H6l.4-.8c.4.1.7.3.4.8Zm16-111v-.2.1Zm36 49.6-.1-.1v-.1h.2l-.1.2Zm9-13h.2c0 .2-.1.3-.2 0Zm0-3c0 .2-.2.3-.4.1-.3-.2-.1-.4.1-.6l.2-.1.3.4-.2.2Zm4.6-21.3.1-.1.1-.1.1-.1a.6.6 0 0 0 0 .3h-.3Zm0-.7H72v-.4H72.3l.3.1v.3h-.3Zm-5.8 24-.2-.2-.2-.3v-.3h.5l.2.2a.6.6 0 0 1 0 .2l-.3.4Zm7-26.3c.6.9.7.9-.1 1.2v-1.2Zm-.5-.8-.2.1a.9.9 0 0 1-.3-.1l.2-.2c.2 0 .3 0 .3.2Zm-5-5.2h.4l.1.1.1.2H68.1a.5.5 0 0 1 0-.3Zm-30.2-6.2V273.1h-.3c-.1-.2-.3-.2-.5 0-.7.2-1.3.7-2 0l.2-.3.1-.3.4-.3c.3-.2.6-.3.8 0 .4.4.9.3 1.3.3Zm-6.2.4-.5.3H31a1 1 0 0 1-.4 0 1.4 1.4 0 0 1-.7-.3h1.8Zm-8.3.8V274.6h-.2a1 1 0 0 0-.8-.2.8.8 0 0 1-.7 0l-.4-.4 2-.3Zm-5 1 .3.3-1.5.4-.3-.3v-.2c.4-.4 1-.1 1.4-.3Zm-4 .7c.8.2 1.5-.7 2.4-.4v.4l-2 .7H14a.4.4 0 0 1-.2-.3c-.2-.4.3-.5.5-.4Zm-29.5 8.4.3.1-.3.2-.3-.1c0-.3.2-.3.3-.2Zm-3.6 5.4 2-2 .2.1c.5 0 .7-.3.7-.7h1.2l-.1.7c-.3 0-.6 0-.7.4l-1 .2.2.3a2.1 2.1 0 0 1-2.4 1c.3.7-.2 1-.8 1l-.3-1a2 2 0 0 1 1 0Zm-1.8.3v1.1h-.7c-.2-.4-.9.3-1-.3l.3-.4a.3.3 0 0 1 .3 0 1.5 1.5 0 0 1 1.1-.4Zm-2.5.5v.6l.1.2a.3.3 0 0 1 0-.2h-.1c-.4.2-.8.3-.7-.3v-.1l.3-.3h.4Zm-25 10.4c.1.3.2.3.4 0h.3a.4.4 0 0 0 .4-.3 1 1 0 0 0 .2 0l.6.1-.3.6-.2.3a.9.9 0 0 0-.2 0c-.5-.1-.8.4-1.2.7a1 1 0 0 1-.4.1v.3h-.7v.3l-1.9.8v-.3l-.2-.6v-.2h.2a18.3 18.3 0 0 0 1.8-1.2l.5-.5c.2-.1.5-.2.7-.1Zm-16 7.7.3.2c.3.3.6.5 1 .1.6-.4 1.3-.5 1.8-1l.2-.1c0-.3 0-.6.3-.7l.4-.3.1.2h-.4c.8.9 1.4 0 2-.3h.3a6 6 0 0 0 1.6-.7l.4-.4v-.3a.4.4 0 0 1-.3-.4h1a.7.7 0 0 0 .7.4l.3-.2a3.5 3.5 0 0 1 2.7-1l-.4.5h-.1a1 1 0 0 0-.8.4l-.2.3c-.4-.1-.7.2-1 .2a.9.9 0 0 1-.1 0 .3.3 0 0 1-.1.1.3.3 0 0 1-.2 0 113.8 113.8 0 0 1-1.1.7 1 1 0 0 1-.4.3l-.8.8c-2.3.9-4.2 2.5-6.4 3.7a.7.7 0 0 0 0 .2v.1c-.2.4-1 .4-.7 1 .1.3.3.7-.1.7a.4.4 0 0 1-.4-.1.5.5 0 0 1-.1-.4c0-.2 0-.4-.2-.5-.9.4-1.1 1.5-2.1 1.8l-.8-.2c-.9-.3-1.8-.1-2.6.3-.2-1 1-.6 1-1.4l-1.4-.5-1-.3c1.1 0 2.1-.3 3-1a.7.7 0 0 1 .6 0v.4s0 .1 0 0c1-.2 2-.6 3-1.1a.4.4 0 0 0 0-.6v-.2l1-.7Zm-19.3 4.7c.1-.2-.2-.8.3-.6a1.3 1.3 0 0 1 .7.7c.1.3-.2.5-.5.6-.5.2-1 .3-1.6.2.2-.6.9-.5 1.1-1Zm-3.1 3.6.1.2h-.3l-.1-.1.3-.1Zm-13.1 8.7v.3a.4.4 0 0 1-.2-.1.6.6 0 0 1-.2-.3h.4Zm-.8 7.3c-.2.7-.6.7-1.2.5.4-.5.8-.3 1.2-.5Zm-48.3 21.2c-.4-.3 0-.5.1-.7a.4.4 0 0 0 .4-.3h.3a366.6 366.6 0 0 1 0 .4v.3c-.2.2-.5.6-.8.3Zm1.6-1h-.3v-.2a.8.8 0 0 1 .3-.1h.5a.3.3 0 0 1 0 .2.2.2 0 0 1-.2.1h-.3Zm5.7-3h-.4v-.1l.4.2Zm-12.2 15.7c.3 0 .6 0 .7-.4l.4-.6.4.1c.8.2.8 0 .7-1.1v-.1a1.4 1.4 0 0 0 1-.4h.4l.7.3v-.7h-.8a.5.5 0 0 1 .4-.4l.2-.3c.8-.9.8-.9 1.6 0l.4-.4c.2-1.6.6-1.9 2.2-1.6 0-.5-.5-1.4.7-1.3v-.1h.2-.1v.1c1 .6 1.2-.4 1.5-.8.8-1.2 1.8-2.2 3-3 .7-.5 1.7-.6 2-1.6l3.2-1.5a.3.3 0 0 1-.3-.2.3.3 0 0 1 0-.1l.3.3h.1c.5 0 .9-.3 1.3-.4l.7.1v.7a24.2 24.2 0 0 0-4 2.9 1.1 1.1 0 0 0-.1 0c-.4.1-.7.3-1 .6l-.3.5c-.4 0-.8.3-1 .5l-7 5-.6.3c-.2 0-.3.2-.4.3l-.7.4c-.2.3-.4.4-.7.5l-.4.3v.6c-1.3.1-2 1.3-3.3 1.6l-.4.6-.4-.1-.2-.1h-.2a.8.8 0 0 1-.2-.2v-.2Zm-2.6-6.8h.3l-.1.2-.3-.1.1-.1Zm-2 10.5h-.2c0-.4.4-.4.7-.6v-.2c.7-.3 1-1 1.9-.7h.7c-.5 1-1.6 1.3-2.5 1.8a15.7 15.7 0 0 0-.6-.3Zm6.8 84.4c.4.5.7 1 .2 1.2-.4.2-.3-.2-.3-.5l.1-.7Zm-5.5 30.8-.2.2v-.1l.2-.1Zm63.6 1.2a.5.5 0 0 1 0-.3l.2.2c0 .2-.2.2-.2 0Zm13 1.2h.2-.1Zm15 1.5.1.5h-.3c0-.2-.1-.5.2-.5Zm4.5-1H-62.1v-.5a.9.9 0 0 1 1-1c.5 0 .6.2.7.5v.6l-.3.4Zm36.3 1.5a1 1 0 0 1-.8-1.1l.2-.2c.5-.5.6 0 .7.3l.2.3v.3l-.2.2-.1.2Zm90.7-32.7-.2.2c-.2 0-.2-.2-.1-.3a.3.3 0 0 1 .2-.1c.2 0 .2 0 .1.2Zm.7 5.9-.2.2v-.1l.2-.1Zm-2.8 19.4a.4.4 0 0 1 .3-.2h.2V481.3l-.3.3H64a.6.6 0 0 1 0-.4Zm-1.7 6c-.3-.2-.3-.5-.2-.8H63l.2.2.1.1c-.1.4-.3.7-.8.5Zm2.7.6a2.1 2.1 0 0 0-.4-.3c-.3-.1-.7 0-.6-.4 0-.3.2-.4.4-.5l.8-.2a.6.6 0 0 0 .7.3h.1a.7.7 0 0 1 .4.5.7.7 0 0 1-.2.5c-.4.6-.8.2-1.2 0Zm9.4.7-.2-.2c0-.2.1-.3.3-.3l.2.2c0 .2 0 .4-.3.3Zm4.8-6.7c0-.8.5-1 1.2-1.1-.2.7-.6 1-1.2 1Zm13 1.7-.3-.1c.3-.3.2 0 .3.1Zm8.8-12.3c-.2 0-.4 0-.4-.2a.5.5 0 0 1 .4-.5c.2 0 .3.2.3.4s-.2.2-.3.3Zm21 5.6v-.1l.1.1h-.1Zm107.4 6a3 3 0 0 1 .5 0v.2c-.2 0-.4.2-.5-.1Zm14.9-26a2.6 2.6 0 0 1-1.6 1.2c0-1 .3-1.6 1.6-1.3Zm-2.7 18.5-.2.1-.1-.1v-.1h.3ZM168 448.7l.3.1c-.2.3-.7.7-1 .3-.2-.3.4-.4.7-.4Zm39-2c-.2 0-.3 0-.1-.3l.2-.1.2.3-.2.2Zm-1.2-7a2 2 0 0 0-1 .2c-.3 0-.5-.3-.7.1h-.8v-.4c.8-1.1 2-1.2 3.2-1 0 .5 0 1-.8 1Zm-19-1.4h.5a1 1 0 0 0 0 .1h-.4Zm-14.5 5.7c.1.4-.3.3-.5.4-.2 0-.5 0-.5-.3s.2-.4.4-.5l.4.1.2.3Zm-8.7 2.9.1.1-.1.1h-.1v-.2Zm-4.4 5v-.2h.1v.1Zm-26.5 8.6a.4.4 0 0 1-.1.3.4.4 0 0 1-.3.1v-.6c.2 0 .4 0 .4.2Zm9.2 1.2.1-.3.2.1.1.1.1.1h1c.4-.4.9-.5 1.1-1a.7.7 0 0 1 .6-.2.7.7 0 0 1 .5.2l1.9-.5c.3 0 .7-.5 1 0 .2.4-.4.6-.7.8l-.4.4c0 1-1.2 1.1-1.5 2l-.3-.2a1 1 0 0 0-.9 0c-.6.4-1.1.7-1.7 0a.8.8 0 0 1-.3-.8l-.2-.3c-.3.4-.8.4-.8 1 0 .7-.7.6-1.1.8l-.2.1-.2.2H139.9v-.2a217.8 217.8 0 0 0-.1-.8c.3-1 1.4-1.1 2.1-1.5Zm1.6 27.6a.6.6 0 0 1-.2-.2h-.1a.8.8 0 0 1 0-.5.8.8 0 0 1 .2-.1l.2.1h.1l.4.3c0 .4-.3.4-.6.4Zm16.3-18.6c-.4 0-.5-.2-.6-.5a.3.3 0 0 1 .3-.4c.4 0 .5.3.5.5s0 .4-.2.4Zm0-3.5v.3a.3.3 0 0 0-.2.2.4.4 0 0 0 0 .2l-1.3 1.4-.1-.1-.3-.3 1.2-1.7H159.4v-.4l.1-.1.2-.1v-.2a.3.3 0 0 0 .3-.3c2-2.3 3.6-5 5.5-7.3.6-1 .9-2 1-3.2-.6-.3-1.1.2-1.6.2a1.6 1.6 0 0 0-.1-.2c-.3-.6-.9-.4-1.4-.4a1.9 1.9 0 0 1-.4 0c-.5-.2-.5-.9-1-1l-.4.2v-.1l.3-.2h.2c1.3-.7 2.3-1.7 3.9-1.8a16.9 16.9 0 0 1 3.5-1.9c.2-.4 1-.1 1.1-.9.1-.5 1-.2 1.5-.2.3-.4.7-.4 1.1-.6a.3.3 0 0 1 .4 0l3-1.6a7.6 7.6 0 0 1-2.3 2.7 20 20 0 0 0-1.6 2.3c-.6 1-1.3 1.8-2.1 2.6l-.7.4a7.1 7.1 0 0 0-1.6 2.1 17.6 17.6 0 0 1-1.7 2c-1.7 2.8-4.3 5-6.2 7.6a2 2 0 0 1-.6.4Zm69.8-13.5c-1.5-.3-.7-1.2-.1-2-.7 0-1.4.7-1.3-.4-.5 0-1-.2-1.4.2-.4-.6-.6-1.4-1.3-1.8v-.3c.6-.2.5-.9.9-1.4 1 .8 1.9 1.7 2.6 2.8 1.5.7.9 1.9.6 3Zm4-4.6c-.2 0-.4 0-.4-.3l.3-.2c.2 0 .4 0 .4.3 0 0-.2 0-.3.2Zm9 31a1.5 1.5 0 0 1-1.6.3c-.9-.3-.6-.8-.3-1.3.4-.2.4-.6.4-1a4.7 4.7 0 0 0 1.9-2.8c.2-.8.7-1.5 1.4-2.1.9.5 1 1.6 1.7 2.4.3.3 0 .7-.2 1a27.1 27.1 0 0 1-3.4 3.5Z"/><path d="M166 452.3v.3l.4-.1-.4-.2Zm-15.6-.7ZM-14 471.1ZM169.7 489s.1 0 0-.1c0-.1 0 0 0 0Zm-184.4-73v.4c.3-.1.4-.2 0-.3Zm31-137h.2-.1ZM121 436Zm45 16.7ZM166 452.7Zm-.2.2.1-.2c-.1 0-.3 0-.1.2Zm-21.1 9.2a.6.6 0 0 0 .6-.2l-.2-.1h-.6s0 .2.2.3Zm2-.8h.4c-.1-.2-.2-.3-.4 0Zm-20-52.1Zm-.3.1.3-.1-.3.1Zm79.2 29.9.3-.1-.3-.1h-.2l.2.2Zm-58 21.6.2.1h-.2ZM-142 453l.4-.3a.5.5 0 0 0-.4.3Zm-8.4-23.4-.2-.1c0 .1 0 .3.2.1ZM-150.6 429.5Zm136.8-13.3h.1v-.1Zm-106.8-35.3a.2.2 0 0 0 .1 0v-.3h-.4v.2l.3.1Zm-.3-.4Zm1.3-.6h.1c-.1 0-.2 0 0 0Zm38-4.8h-.2.2Z"/></g><g fill="#F1FAFF"><path d="M-8.3 213Zm19.9 46.9c0-.2.1-.2.3-.2l-.3.2Z"/><path d="M17.1 253.8V254.4c.3.3.1.4-.2.6a15.9 15.9 0 0 1-5.3 4c-.5.3-1.1.3-1.4.9-.5 1.3-1.8 1.6-3 1.9-2 .4-4.2.2-6.1 1l-.6-.2h-.8c-1.9-.1-3.7-.6-5.5-1.2l-3.9-1v-.3l-1-.3-1.6-.3v-.4c-.3-.8-.7-1.5-1.8-1l-1.1-.2c-.2-.4 1.5-.4.1-1-.8-.3-1.7-.7-2.6-.7-.7 0-1.5 0-1.7-1-.1-.2-.3-.2-.6 0-.4.4-.7.2-.8-.3 0-.2-.2-.3-.4-.3-.5 0-.2.8-.8.8-.5-.1.5-1.1-.4-1-.7.2-.5-.3-.7-.6-.2-.3-.7-.4-.9-.8-.5-1.5-2-2.3-2.7-3.7-.4 0-.6-.2-.7-.5h-.2a.7.7 0 0 1-.3-.3l-.2-.3-.7-.6c-.2 0-.3-.2-.3-.5l-.3-.2-.3-.3-.5-1.2-.1-.2h-.2l-.1-.1v-.4l-.3-.1c0-.5-.2-.8-.6-1.1.1 0 .1-.1 0-.2l.1-.2.1-.2a10.6 10.6 0 0 1-1.6-4l-.2-.1h-.2l.1-.2.1-.3h-.2l-.1-.1v-.2l.1-.5a12 12 0 0 1 .9-7.6l.7-2.3c.5-.4.6-1 .7-1.5.1 0 .2-.1.1-.3.4-.3.6-.7.6-1.2.2 0 .2-.1.2-.2 1-1 1.3-2.3 2-3.4.3 0 .5-.3.6-.7.3 0 .5-.3.6-.6.8-.8 1.7-1.7 2.3-2.7l2.7-1.5c.5 0 1-.1 1.3-.5h.1a27 27 0 0 1 7.4-1.4l.7.2c2.4-.2 4.7-.6 7.1-.4.4 0 .8-.2 1.1-.3 2.3-1.2 4.9-1 7.3-1.3l.6.2h.1c1.1 0 2 .5 3 .7h.4c.4.2.7 1 1.3.4h.2c.4.5 1 .5 1.6.7l.3.2c.1.3.4.5.7.5.5.7 1.2.6 1.9 1h.3v.4c.2 0 .3.1.4.4l.4.1.6.3h.3c.6 1 1.8 1 2.6 1.3l5.8 2 .3.1.2.2c.4.3.9.4 1.4.6l.2.1v.3c1.1.3 1.9 1.2 3 1.6 0 0 0 .1.1 0 .2.5.5.6 1 .6 0 .1 0 .2.2.2.3.4.7.5 1.2.6 0 .1.1.2.2.1.4.6.9 1 1.5 1.2l2.6 2.7 5.3 8.7c0 .3 0 .5.2.8.7 1.8.5 2.8-1 4.2-.9 1-2.2 1.5-3.1 2.6a33 33 0 0 0-7.4 3.5c-1.8.2-3 1.4-4.3 2.3-1.5 1-3 2.2-4.5 3.4-1.2-.3-2.4.3-3.5 0Zm-33-33.5c0-.2 0-.4-.4-.4-.5 0-.6.3-.8.7 0 .2.1.3.3.3.5.1.8-.1.8-.6Zm10.5 4-.1.2.2-.2Zm16.2 14h.4c.1-.2 0-.4 0-.4-.2-.2-.4-.2-.5 0l.1.4ZM-2 261.6v.2l.2-.2a.2.2 0 0 1-.2 0Zm1.1.3c0 .2 0 .2.2 0a.2.2 0 0 1-.2 0ZM-8 248.8l.1.1h.1v-.2H-8Zm10.8-34.3c-.1.5-.7 1-.2 1.5h.3c.4-.5.5-1 .1-1.6l-.2.1Zm5-.8-.6-.3a.6.6 0 0 1 0-.2H7l-.2-.2h-.3l-.2.1h-.8c.6.8 1.5 1.2 2.5 1.4l.2-.3c.1-.3 0-.4-.4-.5Zm12 6.3-.7-.3c-.5-.1-.6 0-.7.2l.1.5 1.2.2v-.4l.1-.2Z"/></g><g fill="#FAFDFF"><path d="M92.6 75.8Zm-27.1 25.8ZM93.8-28.9v.1a7.8 7.8 0 0 0 2 2.9 10.2 10.2 0 0 1 .4 0v.7l.3.1c.4.3.6.7.8 1.1l.3.4c.5.9.8 1.9 1.7 2.4l.2.1v.1c0 .5.4.8.5 1.1.4.2.6.5.8.9l.2.1c.3.3.5.6.6 1v.5c1.2 1.8 2 3.9 3.3 5.6.4.4.3 1 .4 1.5 0 .8.3 1.4 1.1 1.5h.1c-.2 1.2.3 2.3.9 3.2 1.2 1.6 1.5 3.6 2 5.5.1.2.2.5.4.6l.3.3c.3.3.4.7.5 1.2v.2a4 4 0 0 0 .7 3.6c.5.6.4 1.6.9 2.3v.2c0 .3.2.7.5.8v.2c0 1.4.7 2.6 1 4a81.2 81.2 0 0 0 1.7 6.5l.3 2.8.3.5v.2c-.2.2-.3.4 0 .5l-.3.6-.2.2c-.3.2-.8.3-.2.6.3.2.4.4.4.7V26.9c-.3 3.5-.7 7-2 10.2-.3.8-.6 1.7-.6 2.6v.1l-.7 1.4c-.8 1.5-1.6 3-2.2 4.8a26.8 26.8 0 0 1-1.6 3.4l-4.5 8.4a58.8 58.8 0 0 0-2.1 4l-.1.4c-.2.5-.5.9-.8 1.2l-.2.2c.3.7-1.3.4-.7 1.4.2.5-.5 1-.8 1.6L96.7 70l-.1.2-.5.5-.1.2a5.2 5.2 0 0 1-1.3 2.1c-.8.8-1.8 1.5-2.1 2.6-2 1.6-3.7 3.4-5.5 5.2l-.2.2-.4.3c-1.7 1.3-3.1 2.8-4.7 4.2a62.8 62.8 0 0 1-4.4 3.6l-5 4.5c-1.8 1.6-3.7 3.3-5.7 4.8a112.2 112.2 0 0 1-13.2 8.6c-3.3 1.7-6.5 3.6-9.8 5.4a89.5 89.5 0 0 1-10.5 4.8l-7 3c0 .2-.2.3-.3.3-.3.2-.7.1-1 .1h-.3c-1.3.3-2.3 1.3-3.7 1.2 0 .2-.2.2-.2.3-.4.4-.8.5-1.2.6a3 3 0 0 0-.9 0H18V123.1l-.3.1c-5.4 1.3-10.8 2.5-16.3 3.3-.5.1-1 .2-1.4 0V-30h92.2c.6.4.7 1.3 1.6 1.2Zm-85 152.9.1.2h.3c0-.1 0-.2-.2-.2H9ZM42 105.4l.1.1h.1l-.1-.2s-.1.1 0 .1Zm2.8-2.6-.2.2.4.1.1-.1c0-.2-.2-.2-.3-.2ZM20.5-21.8l-.5.2-.4.4.5.2c.4-.2.5-.5.4-.8ZM13.6-9.5v.3l.7.1c.3-.2.5-.5.1-.8-.3-.2-.5.2-.8.3ZM43.1-8c1.2-.4 1.4-1.6 2-2.5h-.9l-1.7 2c-1.7 1.2-2.8 3.1-4.7 4.2l-.8.8a.8.8 0 0 1-.2.3c0 .2-.1.3-.3.4l-1 .9.5.3c.1-.2.2-.3.5-.3.5.5.6 1.2 1.3 1.5 0-1 .2-2 1.6-2 .7 0 .3-.5.4-.8 0-.6-.3-1.4 1-1.2.5 0 0-1 .6-1.2l.2-.3c.2-.5.3-1.2 1-1.3 0-.2.2-.4.4-.4V-8ZM37.3 4.7c-.1.6-.5 1.1-.4 1.8v.2c.7-.1.8-.7.9-1.2V4.6l-.5.1Zm5.7 9h1.3c0-1 1.3-1.7.5-3-.6-1-.7-1.2-1.5-.4l-1 1c-.6 1 .4 1.6.7 2.4Zm-7.2-2.2c-.2.1-.2.3-.2.5.1.2.3.3.5.1 0 0 .2-.2.1-.3 0-.2-.1-.3-.4-.3Zm6-2.7-.1.1-.7.7c.1.3.3.5.6.3.4-.2.2-.7.2-1Zm-1.2-1.2-.5-.3h-.3c0 1-1.2.5-1.5 1.2.1.2.3.3.6.3.4-.6 1.5-.3 1.7-1.2Zm-2.3-.4L38 7l-.2.3c0 .2.2.3.4.2.2 0 .2-.1 0-.3Zm-1 1.6c-.3-.5-.8-.4-1.2-.4 0 1.2.7.5 1.2.4Zm13.6 2.1c0-.4.4-.6.8-.8 0-.4-.1-.7-.5-1-.6.4-.7 1-1.1 1.4.1.3.4.4.7.4Zm-1.2 1.2.1.2.1-.4-.1-.1-.1.3ZM3.7-.2c0-.2-.2-.3-.4-.4 0 .3.1.4.3.4Zm41.3-6h-.2.2Zm1.3.3c-.3.5-.7.4-1.1.4H45c0 .3 0 .7.2 1 .3.3.7 1 1 0 .2-.7 1-.6 1.2-1-.2-.7-.6-.7-1.2-.4Zm-.8 4c-.2-.1-.5-.3-.5-.5-.2-1.3-.2-1.3-1.3-1.1h-.2v-1.2l-.1-.1c-.2-.4-.4-.8-.7-1-.3-.3-.4-.2-.5 0v.3c.6.6 0 1.2.1 1.8 0 .4-.1 1.2.7 1a2 2 0 0 1 .1-.3.6.6 0 0 1 .3-.4c0 .2 0 .4-.2.6a.5.5 0 0 1-.2.2c.2 1 1.3.6 1.7 1.2l.8-.4ZM100.6 9Zm-46.9-.2c0 .5-.1 1 .4 1.2 0-.4.3-1-.4-1.2ZM51 17.3l.3-.1c.3-.2.6-.5.6-.8-.1-.5-.6-.2-1-.3l.1 1.2Zm7.5 3.8a.5.5 0 0 1-.2 0c0 .3.3.5.5.7h.2c.6-1 0-.7-.5-.7Zm8.6 1.7-.1.1.1.1h.1l-.1-.2Zm-16.5 5.3c0 .3-.1.5.2.7l.3-.2c0-.3-.3-.4-.5-.5Zm2.8-2.1c.2.4.3.2.4 0a3.8 3.8 0 0 1-.4 0Zm-3.1 5.4-.2.3.3.1v-.3h-.1ZM60.6 15c0 .3 0 .6.3.6l.2-.6h-.4Zm4 1.1c-.3-.7.3-1.1.3-1.8 0-.2-.2-.4-.5-.2l-.8.6-.6.7-.7.5.3.3h1v.2l1-.3Zm48 2c0-.4-.2-.6-.5-.5l-.2.4c0 .3.1.5.3.4.2 0 .4-.2.4-.4Zm-52.8 1.5v.4c1 0 .9-.3.4-.9l-.4.5Zm10.5 5.7-.4-.4c-.2 0-.4 0-.4.3l.4.4c.1 0 .3 0 .4-.3Zm-14.6.4c-.6-.7-.8-.9-1-.6l-.3.6c.4.5.9.4 1.3.3a.6.6 0 0 0 0-.3Zm11 8.7V34l-.2.2.1.2h.1Zm-19.6 7.5-.1.3c.1 0 .2.2.3.1l.2-.3c-.1-.2-.2-.2-.3-.1Zm18.3 26.3-.1.2h.2l-.1-.2ZM33 74.3h-.1l.1.1v-.1ZM76.9 81v-.2l-.1.2h.1Zm-29-2.8c-.7-.6-1.5-.2-1.9-.9 0 1.8 1 1 1.9.9Zm9.5-.4c-.6.6.1.6.4.8l.3-.7h.1l-.8-.1ZM51.8 70l.2-.1h-.2Zm-25.5-9.3.2.2s.1 0 0 0v-.4l-.2.2ZM35 65l-.2.2.2-.2Zm-6 5.5c0 .3.1.3.3.3.2 0 .4-.2.4-.4l-.5-.4-.2.5Zm-2-2v.8c.3 0 .4-.2.5-.3.3-.3.4-.6.5-1-.7-.7-.7.3-1 .4ZM40.6 63h1.2a.8.8 0 0 0 0-.4c.3-.8 0-1-1.2-1.2.4.5 0 1 0 1.6ZM46 44.8c-.2 0-.4 0-.4.3h.3v-.3Zm-8.5 6.7c-.3.3-.1.5.2.6l.1-.4-.3-.2Zm-1.4 2.3a.5.5 0 0 0-.4-.4c0 .2.2.3.4.4Zm.8-1-.4-.3c0 .3.1.4.4.4Zm-4.4 2 .3-.6-.1-.5c-.4-.1-.4.4-.7.5v.4c-.1.2-.4.5 0 .6.2 0 .4-.1.5-.3Zm9.7-9v.2h.4c0-.3-.2-.4-.4-.4v.2Zm13 .7-.1-.2c-.3.3-.2.6-.2 1 .4-.2.5-.5.4-.8Zm3.7-.3.2.3c.7-.1.6-.7 1-1.2-.8 0-1.2.3-1.2 1Zm12.3 1.3v-.2l-.1.2Zm-24 1.2-1 1.7c.9-.1 1.2-.7 1-1.7ZM39 50.5c-.3.1-.4.5-.4.8h.5v-.8Zm14.3-10.3c.3.6.6.1.9 0V40h-.8v.3Zm0-1.2v-.3c-.2 0-.3 0-.3.3h.3Zm-2.8-1.3c-.7-.3-.8.5-1.2.5l-1.4 1.6c1.6-.2 2.2-1 2.6-2Zm-2.4.5.2.2v-.1H48Zm-.5 0c-.2 0-.4-.3-.6-.1v.3c.3.2.5 0 .6-.2Zm21.4-.7.2.1.1-.3-.1-.1c-.2 0-.3.1-.2.3Zm15.2 3.3c.5-.1 1 .2 1.4 0 .7-.5 1.4-.9.9-2v-.7c0-.4 0-.7-.4-.9-.4-.1-.7.2-1 .5l-2.3 2.5-1 1.4.1.3 2.3-1.2Zm-27.6 1.6c-.6-.4-1.2-.9-1 .5v.7c-.4.4-.7.8-1.3.8L52.5 46l.4.5c.4-.2.7-.6 1.1-.6.8-.3 1.2-1 1.8-1.5.4-.3.3-.8.4-1.2 0-.2.2-.4.4-.5a5.8 5.8 0 0 0 0-.4Zm-.8 6.8c0-.2-.2-.3-.4-.3l-.2.3c-.1.2 0 .4.2.4.3 0 .4-.2.4-.4Zm17.7 15.6.3-.3c.3-.2.7-.5.3-1-.6-.6-.7.4-1 .4l-.3.6c0 .2-.3.5 0 .7.3.2.4-.4.7-.4ZM92.5 69c-.2 0-.2.1 0 .2h.2V69h-.2Zm-45.8 2.5c0-.2 0-.6-.4-.5-.2 0-.3.3-.3.5s0 .5.4.5c.2 0 .3-.3.3-.5Zm-9.8.6-.7-.3a2 2 0 0 0-.1 0v-.5c-.4.2-.4.3 0 .4-.2.7-1.2 1.2-.5 2 .2-.3.5-.6.9-.8l.3-.4a1.2 1.2 0 0 1 0-.4Zm51.3 1.7c-.5-.6-1-.5-1.7-.4.3 1.5 1.2.3 1.7.4ZM64 73.4l-.8.4v.7c.6-.1.8-.6.8-1.1ZM55.6 82 55 82c-.4.2-.7.7-.3 1 .6.3.8-.4 1-.9ZM82 83a9 9 0 0 0-.1-.2l-.1.2h.2Zm-54.4-6.6c1.4-1.1 2.8-2.2 4-3.5h.1v.2c.1 0 .1 0 0-.1.2-.5.7-.7 1.1-.9 0-.2-.3-.6-.1-.7.9-.3 1.5-.9 1.9-1.7.1-.3.4-.2.6 0 .3-1 1-1.6 1.4-2.4.7 0 .8-.6 1.2-1 0-.2.5-.5 0-.7h-.8c0 .6-.4.8-.7 1l-.2.2h-.3c-1.3.6-2 1.9-3.4 2.5l-5.2 4.1-.3.1c-.8.3-1.3 1-2.2 1.2.2 1.3 1.9 1.1 2.4 2.2l.5-.5ZM13.9 59a7.3 7.3 0 0 0-3.3 2.6c-.7 1-1.9 1.8-3 2.7-.4.4-1 .6-1 1.4.6 0 1.2 0 1.6-.4l6.2-6.2c.6-.5 1.3-.9 1.6-1.7h-.5c-.7.4-1.1 1-1.6 1.6ZM38 38.6c.1.4.4.7.8.8 0-.6-.2-.9-.8-.8Zm7.8.6c.3.5 0 .8-.4 1 .4.6.4 1.1 0 1.7-.4.1-.7.4-.8.8-.4 0-.7 0-1 .3-.5.7-1 .3-1.5 0l-.4.5c.2.5.3 1 .9 1.3.5-.8 1.7-1 2-2 .5 0 .8-.3.8-.9 1 0 1.4-.8 2-1.2l-1.2-2.1c-.3 0-.5.3-.4.6Zm-28.6-8.6.1.1.1-.3-.1-.2-.1.4Zm23.8-4h.2l-.1-.1H41Zm4-9.4v.2c.2.5 1.4 1 0 1.7v.7h.4c.5-.2.9-.7 1.2-1.1.5 0 1-.2 1.2-.6.2-.6.6-1 1.3-1.1.3-.7 1-.9 1.6-1.3 2.1-.7 3.1-2.7 4.7-4 .3-.3.4-.9.2-1.3-.2-.5-.7-.3-1-.3-.4 1-1.5 1.1-2 2-.1.1-.4.2-.6-.1-.5-.6-.8.2-1.2.1v.3c1.2.4.3.9 0 1.3l-.4.4a3.1 3.1 0 0 1-1.7 1.6c.3-1.5-.7-.7-1.2-.8l-.4.1c-.3.3.5 1 0 1.1.4.7.5-.2.8-.1h.2c.2.2.1.4.1.6-.4.4-1.2.3-1.2 1.2l-.4.4h-.1c-.6-.4-.7-1.2-1.5-1.2v.2Zm-11.4-6.5c-.5-.3-.9.2-1 .8.6.2 1.3.4 2 1.2 0-1.2-.4-1.7-1-2ZM.7 2.9c.4.5.7.1 1-.2l-.5-.5c-.3.2-.7.4-.5.7ZM9.6-8.7v.3c-.3 0-.6.1-.8.4l.8.5.4-.4.4-.4.4-.8-.2-.2-.2-.3-.8.9Zm1.8-3c.4.3.3.5.1.8v.5l-.1.1H12c.2-.4.5-.7.8-.9l.3-.3.1-.1c0-.3 0-.7-.4-.5-.6.2-.9-.2-1.3-.4-.3.2-.4.5-.1.8Zm1.3-2c.1.2.3.4.6.3.2 0 .3-.3.2-.4-.2-.3-.4-.2-.7-.3a2.4 2.4 0 0 1-.1.4Zm4.6-4.9a.6.6 0 0 1-.2.3l-.2.1c-.4.2-.8.5-.7 1 .2.5.7 0 1 .1l.6.2c.9 0 .8-1 1.5-1.3-.1-.4-.1-.6.2-.9.3-.2.6-.6.3-.8-.2-.3-.6 0-.9 0-.4.7-.8 1.3-1.6 1.3Zm2-4v.4c.5 0 .9-.2.8-.8a1.3 1.3 0 0 0-.3 0l-.4.4Z"/><path d="m41.6 62.5.2.2h-.1v-.2Z"/></g><path d="M170.3-11A176 176 0 0 0 158 3c-3.3 4.4-6.3 9-9.2 13.6a204.7 204.7 0 0 0-13.4 26c-2 4.5-4 9-5.7 13.5a511 511 0 0 0-7.6 20.4 326.8 326.8 0 0 1-3.8 10.4c-1.8 4.7-3.6 9.5-5.6 14.2l-3.6 9-4.7 10a110.2 110.2 0 0 1-6 11 99.7 99.7 0 0 1-9 12.4 67.1 67.1 0 0 1-15.2 13.9 39.1 39.1 0 0 1-16.1 5.9c-6 .7-11.7 0-17.3-1.9a37.7 37.7 0 0 1-12.7-7.1A46.5 46.5 0 0 1 18 141c-3-5.6-5.4-11.5-7.9-17.4a176 176 0 0 0-4.5-10.3 87.2 87.2 0 0 0-12-18.8 66.2 66.2 0 0 0-11.2-10.4 32.3 32.3 0 0 0-6.9-4c-2.4-1.6-5-2.5-7.7-3.4a62.3 62.3 0 0 0-14.5-3c-2.8-.3-5.6-.6-8.5-.3-.2-.3-.5-.2-.8-.2-5.7.1-11.3.7-16.9 1.6A120 120 0 0 0-89 78.4a114 114 0 0 0-18.9 7.7c-.3.2-.6.6-1.1.4v1.8c.3-.1.5-.3.8-.3l.4-.1.9-.6c1.2-.7 2.5-1.2 3.7-1.8l.6-.3 1.4-.6c4.4-2 9-3.6 13.6-5l3.2-.9 1.2-.2a43 43 0 0 1 3.3-.8 87 87 0 0 1 5.7-1c1-.3 2.2-.4 3.3-.6h.1l8.7-1h3.3c3-.2 6-.1 9 0l1.5.1h.9l.8.2 3.6.5c3.3.6 6.6 1.3 9.8 2.4h.4l.2.2c.3.3.8.3 1.1.6a16.6 16.6 0 0 1 4.6 1.8l.5.2 1.6.8.3.2.5.2a4.2 4.2 0 0 1 1 .7 13.2 13.2 0 0 1 2.8 1.7l.6.5.6.3a9.8 9.8 0 0 1 1.6 1.3l.5.5.4.2.8.7.3.3 1 .9a34 34 0 0 1 4.2 4l.9 1.2a.4.4 0 0 1 .3.3l.2.2c.4.2.6.6.8 1l.2.3c.2 0 .3.2.3.3.2 0 .3.2.3.4l.3.2c.3.2.5.5.7.9l.2.4.5.6c.3.3.5.5.6.8l.4.7c.4.2.6.5.7 1a4.6 4.6 0 0 1 .8 1l.4.7.2.2c.3.3.5.7.6 1l.1.3c.2 0 .3.2.3.4l.2.2a1.6 1.6 0 0 1 .4 1l.2.1.4.6v.2l.2.1.1.3v.2h.1l.2.4v.2a.4.4 0 0 1 .2 0v.1l.1.2.2.2.1.2.2.3.1.5.2.2c.2.3.4.5.4.8v.2l.5.7a5.2 5.2 0 0 1 .8 1.8c.2 0 .3.3.3.6l.4.8a25 25 0 0 1 1.7 3.7l.8 1.6 1.9 4.6 1.5 3.6.3 1.2.7 1.3 1 2.6.8 1.8.5 1 1.3 2.6.6 1.6 1 1.4 1 2 .8 1.4a2.3 2.3 0 0 1 .6.8l.2.5c.3.1.3.3.4.6h.2l.3.6v.3c.2 0 .3.1.3.3l.4.3c.3.4.6.7.8 1.2v.3l.4.3a3.2 3.2 0 0 1 .9 1.2l.8.8 2 2 .8.9.8.6a16 16 0 0 1 1.7 1.5l.9.6 2.8 1.8 1.4 1c.3-.1.5 0 .6.2l2.7 1 .5.3 1.8.7a41.8 41.8 0 0 0 20.6 2.1c.5 0 1-.1 1.4-.3a5 5 0 0 1 1.2-.1c.5-.4 1-.3 1.5-.4l.9-.4 3-1a51.1 51.1 0 0 0 7-3.3v-.1l1.2-.6c0-.2.2-.3.4-.3a.5.5 0 0 1 .3-.3 1 1 0 0 1 .3 0l.5-.5.7-.4c.2-.3.5-.5.9-.7l.2-.2c.2-.3.5-.5.8-.6h.2l.3-.4.7-.5.5-.4.3-.3a11.2 11.2 0 0 1 2-1.8l.4-.3v-.1l.6-.6.4-.2c0-.2.2-.3.3-.4l.8-.8.4-.3.3-.4c.6-.6 1-1.3 1.7-1.9l.7-.5.1-.3.5-.6.3-.3.6-.8.6-.6.6-.7.3-.3.5-.8.7-.8.7-.8.3-.5 1-1.2.2-.2s0-.2.2-.3a4 4 0 0 1 .4-.7l.3-.4c0-.2.2-.2.2-.3l.4-.6.3-.4.2-.4a2 2 0 0 1 .4-.5l.3-.3.2-.5.2-.3a.8.8 0 0 1 .2-.1l.1-.3c0-.2.2-.3.3-.4l.2-.2.1-.3.5-.9.4-.3v-.4s.1-.2.3-.2l.2-.5a9.3 9.3 0 0 1 1.3-2 11 11 0 0 1 1.8-3.3c0-.2 0-.5.3-.6v-.3c0-.3.2-.5.4-.7l.2-.2.3-.7c0-.3.2-.6.3-.8l.3-.3v-.4c.1-.2.2-.5.4-.6 0-.1.1-.2.3-.2 0-.3 0-.5.2-.7a15.7 15.7 0 0 1 1.2-2.8l.7-1.1.2-.9a7.9 7.9 0 0 1 1-1.8l.1-.7.1-.2.4-.7.4-1c.2-.6.4-1.2.8-1.8 0-.2.2-.3.3-.5v-.4l.4-.8.2-.3c0-.3.2-.6.3-.8l.8-2 .4-.9a11.3 11.3 0 0 1 1.5-3.6 5.4 5.4 0 0 1 .6-1.8l.3-.6.1-.4.3-.7.2-.5a.8.8 0 0 1 .4-.6V95c.2-.8.6-1.5 1-2.3v-.3l1.7-4.4 1-2.2h-.1l.4-1.2a17.6 17.6 0 0 1 1.1-2.8v-.4a.8.8 0 0 1 .1-.3l.2-.2.2-.6a9.9 9.9 0 0 1 .8-2l.3-1.4a18.2 18.2 0 0 1 1.5-3.5v-.5a.8.8 0 0 1 .2-.5v-.2l.2-.6h.2a.8.8 0 0 1 .3-.7v-.4c0-.8.5-1.5.8-2.3.5-1.5 1-3 1.7-4.5l.5-1.3.1-.5a4.2 4.2 0 0 1 .8-1.6l.4-1.2a19.1 19.1 0 0 1 1.4-3.4c.1-.3 0-.6.3-.9a6.7 6.7 0 0 1 1-2l.1-.8.6-1.5.5-.8c0-.3 0-.5.3-.7l.2-.8.6-1.4.4-.5.2-.8a14 14 0 0 1 1.6-3.4 6.7 6.7 0 0 1 1.2-2.7l.2-.6.1-.3.3-.4v-.4l.1-.1a.6.6 0 0 1 .3-.4c0-.3.2-.6.3-.8l.4-.8.5-.8c0-.3.2-.6.4-1l1-2.1.7-1.2v-.4l.4-.6.2-.2.4-1c.6-1 1.1-2.1 1.8-3 .1-.4.3-.6.5-.9V24l.1-.2.1-.1.2-.2c0-.1 0-.2.3-.3a.4.4 0 0 1 .2-.3v-.2a.6.6 0 0 1 .2-.2l.1-.2.4-.6a20.1 20.1 0 0 1 2-3.3l.4-.8A9 9 0 0 1 153 15l.3-.7c.6-1.2 1.5-2.2 2.2-3.3.5-.7.9-1.5 1.4-2l.3-.4c0-.2.2-.2.3-.3 0-.2.2-.4.4-.6v-.2c.1-.3.3-.5.5-.6l.4-.4c0-.1 0-.3.2-.4l.4-.2.2-.5.7-1 .6-.6c.1-.4.3-.7.6-1v-.1h.1a.4.4 0 0 1 .2-.1l.4-.6c.3-.4.6-.9 1-1.2l.5-.4.5-.8.8-1 .4-.3.2-.4.2-.3a.7.7 0 0 1 .3-.2l.2-.3a.7.7 0 0 1 .4-.3l.4-.6 1-1.2.7-.6.6-.8c1-1.4 2.4-2.5 3.6-3.8.5-.5 1-1.2 1.6-1.6l.3-.2c.1-.3.3-.5.6-.6 0-.2.1-.3.3-.4l.2-.2c.4-.7 1.2-1 1.7-1.8H174c-1.1 1.5-2.5 2.7-3.8 4Zm51 334a105.5 105.5 0 0 1-9.4-6c-1.3-.9-3-1.7-4.4-2.8L205 312a17.6 17.6 0 0 0-4-2.6c-.7-.4-1.3-.6-2.6-1.8a45.8 45.8 0 0 0-4.2-3.4 114.4 114.4 0 0 1-6.2-5l-1.9-1.8c-1.2-1.3-2.5-2.6-4-3.8l-3.3-3.3-3.4-3.8a129 129 0 0 1-7-8.9l-1.4-2.2a62.9 62.9 0 0 0-3-4.5l-3-4.4c-1-1.5-2-3-2.8-4.6-.8-1.3-1-2-.7-2 .3 0-.1-1-.9-2.5l-2.9-5.6a36.6 36.6 0 0 1-3-8.9l-.9-3.9c-.2-.9-.4-1.4-.7-2a8.8 8.8 0 0 1-.7-3.4c0-2.6-.2-5.7 0-9.2a31.6 31.6 0 0 1 2-9.8c.2-.7.5-1.4.9-2 .3-.5.6-1 1.1-1.4l1-1.1 1-1 .6-.4.6-.4 1.1-.8 2.3-1.4a21.2 21.2 0 0 1 4.7-2.4c1-.3 1.9-.5 2.6-.5h1.7a5 5 0 0 0 2-.3c.6-.2 1.1-.4 2-.5a21.5 21.5 0 0 1 7.9.8l3.5 1.2 6 2.6c4.8 1.9 9.5 4 14.3 5.7l9 3.1a40.5 40.5 0 0 0 9 2.2c2.4.4 5 .7 7.1.8 3 0 3.2.1 6.6 1 .8.2 1.4.2 2.1.2a17.8 17.8 0 0 1 1.8-.1c3.6.6 8.2.7 11.5 1a7.8 7.8 0 0 0 4-.5 9 9 0 0 1 2.3-.4c1-.1 1.6-.3 2.5-.6a36.5 36.5 0 0 0 5.2-2.3 11.7 11.7 0 0 0 4.1-3.5 10.6 10.6 0 0 0 2.5-5.3c.5-3.3-.5-6.7-1.8-9.7a14.6 14.6 0 0 0-2-3.2c-1.2-1.4-2-2.9-3.2-4.1-.8-.7-1.3-1.4-1.8-2l-1.3-1.6a15.4 15.4 0 0 0-2.8-2.6l-5.4-4c-2-1.3-3.7-2.8-5.6-3.8-2.6-1.3-5.5-3.3-8.1-4.5-1.7-.7-3.1-1.8-4-2.6a34.1 34.1 0 0 0-6.1-4.1c-2.8-1.5-5.4-2.9-8.2-4.8l-3.5-1.9-3.5-2c-2.4-1.4-4.3-3-6.8-4.4l-7-3.8-4.8-2.8c-3.6-2.2-7.4-4.3-10.3-6.7l-4.6-3a28.2 28.2 0 0 1-5.4-3.6 9 9 0 0 0-1-.9 37.5 37.5 0 0 1-6.4-5 95 95 0 0 1-2.6-2.4l-2.4-2.4c-1.5-1.7-3.2-3-4.6-5a2057.8 2057.8 0 0 0-1.7-2.3l-1.7-2.1a30.1 30.1 0 0 1-3-4.8l-1-1.9c-.2-.7-.5-1.3-.8-1.8a36.6 36.6 0 0 1-3.5-10.1 28.6 28.6 0 0 1 3.8-20.5l.7-1 1.4-1.3c.5-.4.9-1 1.3-1.6a10 10 0 0 1 4.2-3.7c1-.4 1.4-.6 3-1.7a23.6 23.6 0 0 1 7.9-3.2l4-.8c2.3-.5 4.4-.7 6.8-.6l9.6.8c2.5.3 5.4 1 8.2 1.8 3.5 1.1 6.8 2.7 10.3 4 .4 0 1 .3 1.3.5a338 338 0 0 0 13.5 6.5 28.2 28.2 0 0 1 3.6 2 159.9 159.9 0 0 0 5.2 3.3c1.7 1 3.5 2.1 5.3 3l2.3 1.5c5.1 3.8 10.7 7.4 16 11a579.1 579.1 0 0 1 12.6 9l3.3 2.3c3.1 1.9 6.1 4 9 6a48.6 48.6 0 0 0 5.8 3.7 101.5 101.5 0 0 1 7 4.1l2.3 1.5a54 54 0 0 0 4.7 2.7l6.1 3.2 3.2 1.4 1.5.7 1.6.7c4.3 1.7 8.5 3.4 13 4.7l3.8 1c1.3.3 2.6.5 4 1l4 .8c1.2.2 2.5.5 3.9.6l3.3.5 3 .5c2.2.3 2.7 1.2.9 1.4-.1 0-.8 0-1-.2l-.9-.2c-.8-.2-1.8-.3-2-.1-.2.3-1.1.4-2.5.4l-2.4-.2-2.9-.5a54.4 54.4 0 0 1-6.8-1.6 43 43 0 0 0-5.1-1.4 42.8 42.8 0 0 1-6.6-2 215.3 215.3 0 0 1-20.3-9.6c-2-1-4-2.3-6-3.5l-2.3-1.4c-8-4.4-15.8-9.9-23.5-15a254 254 0 0 0-6.8-4.5 122 122 0 0 1-11.2-7.8l-4.1-3.2A34.3 34.3 0 0 0 240 87c-5.4-3.2-11-6.8-16.7-9.8a145.7 145.7 0 0 1-11.1-6.3 5 5 0 0 0-2-.8c-.7 0-2.3-.5-4-1.3a129.4 129.4 0 0 0-11.5-4.4 28.4 28.4 0 0 0-6.4-1.3c-2-.1-4.2-.4-6.4-.7a27.1 27.1 0 0 0-11.7 1 51.9 51.9 0 0 0-10.7 5c-1.5.9-3 2-4.1 3.2-.7.6-1.2 1.3-1.7 2l-.7 1a36.5 36.5 0 0 0-3.6 8.3l-.5 1.9a12 12 0 0 0-.2 1.8c0 2.3.3 4-.2 4.5l-.2 1.3.6 1c.1.4.3.4.5.9l.7 2.2a36.8 36.8 0 0 0 2 6.2c.9 2 2.1 3.8 3.3 5.8l1.5 2.3 1.4 2.1c1.7 2.8 4 4.8 6 7.1l2.9 3 3 2.7a59 59 0 0 0 7.6 5.6 75.7 75.7 0 0 1 7.4 5.6l.3.9.5.5c.4.4 1 .6 1.2.6.4 0 .6-.3 1-.4.2 0 2 .8 2.8 1.4 3.5 2.6 7.5 5 11.5 7.3l6 3.3 4.6 3c1 .6 2.4 1 3.2 1.8 1 1 1.9 1.5 3.8 2.5 2.2 1.2 4.2 2.1 6.9 3.8 1.7 1.2 3.7 2.2 5.7 3.5l7 4.3c3 1.7 5.4 3.5 8.2 5a106.5 106.5 0 0 1 18.5 14.7 35.2 35.2 0 0 1 4.8 6.2 22.2 22.2 0 0 1 3 7.6c.3 2 .3 4 0 6l-.8 3-1.5 2.7a16.6 16.6 0 0 1-6.4 5.3 24.7 24.7 0 0 1-7.5 2.3l-2.1.4-2 .3-5.4.3A89.4 89.4 0 0 1 233 222l-6.9-1.1-6.8-1.2c-4.6-1.4-10-2.7-14.4-4.6a17 17 0 0 0-2.5-.9 43.2 43.2 0 0 1-3.8-1.3c-6-2.5-12-5-18-7a38.2 38.2 0 0 0-7.8-1c-2.2 0-4.5 0-6.7.5a19.6 19.6 0 0 0-6 2.3 18.1 18.1 0 0 0-8.3 10.8l-.3 1.3-.5 2.6a39.6 39.6 0 0 0 1.4 16.2l.8 2.7.8 2.6c1.1 3.5 2.4 7 3.9 10.4l2.8 6.2c.8 1.7 1.7 3.4 2.6 4.8l6.1 9a140 140 0 0 0 21.4 23.6c2.7 2.5 5.3 4.8 8.3 7.1a231.8 231.8 0 0 1 7.5 5.8 202.1 202.1 0 0 0 26.3 15.6l3.8 1.8a22.3 22.3 0 0 1 5.3 3.6c.2.2 0 .3-.5.1a99.3 99.3 0 0 1-11.5-4.4 130.5 130.5 0 0 1-8.6-4.5Z" fill="#5B95BB"/></g></svg>