<svg xmlns="http://www.w3.org/2000/svg" width="30" height="30" fill="none"><path fill="#535353" d="M2.9 18.7a.28.28 0 0 1 .22-.35c.15-.04.32.07.35.23.03.1.55 2.25 3.24 3.25.14.05.23.22.18.36-.03.06-.06.12-.13.16a.3.3 0 0 1-.23.01C3.5 21.25 2.93 18.8 2.9 18.7ZM1.25 19c-.04-.15.07-.3.22-.34.15-.04.32.07.35.23.01.03.73 3.13 4.5 4.5.14.05.23.21.18.35-.03.06-.07.12-.13.16a.3.3 0 0 1-.23.02c-4.08-1.48-4.86-4.78-4.9-4.91ZM14.44 5.85c-.14-.05-.2-.2-.16-.33.05-.15.2-.2.34-.16.1.02 2.37.84 3.18 3.78a.27.27 0 0 1-.17.33.27.27 0 0 1-.33-.18c-.75-2.66-2.78-3.4-2.86-3.44ZM14.98 4.5c-.14-.05-.2-.2-.15-.34.05-.14.2-.2.34-.15.12.03 3.17 1.13 4.27 5.1a.27.27 0 0 1-.18.33.27.27 0 0 1-.33-.18 6.96 6.96 0 0 0-3.95-4.76Z"/><mask id="a" width="20" height="20" x="4" y="6" maskUnits="userSpaceOnUse" style="mask-type:alpha"><path fill="#FFC93A" d="M4.44 15.94c.5-.43 1.36-.37 1.93.09l3.07 2.1c.62.29.7-.4.49-.6L4.99 12.5c-.53-.48-.87-1.1-.4-1.63.49-.53 1.2-.43 1.74.05 0 0 4.52 4.46 5.1 4.78.6.32.7 0 .43-.37-.17-.23-5.03-6-5.03-6-.45-.54-.62-1.23-.08-1.69.54-.45 1.13-.2 1.59.34l5.28 5.87c.34.39.75.15.49-.36A233 233 0 0 0 10.5 8c-.42-.56-.52-1.25.05-1.66.56-.42 1.19-.13 1.6.44 0 0 3.69 4.9 4.32 5.83.69 1 2.46 3.47 3.15 3.08.66-.38 1.07-1.79 1.01-2.97a2.74 2.74 0 0 1 1.38-2.47c1.31-.74 1.3.73 1.13 2.25-.34 3.22-.04 4.57.04 6.5a6.06 6.06 0 0 1-2.65 5.38c-3.26 2.36-6 2.42-10.54-2.84-1-1.18-4.83-4.4-5.32-4.74-.13-.02-.54-.65-.24-.87Z"/></mask><g mask="url(#a)"><path fill="#FFC93A" d="M4.44 15.94c.5-.43 1.36-.37 1.93.09l3.07 2.1c.62.29.7-.4.49-.6L4.99 12.5c-.53-.48-.87-1.1-.4-1.63.49-.53 1.2-.43 1.74.05 0 0 4.52 4.46 5.1 4.78.6.32.7 0 .43-.37-.17-.23-5.03-6-5.03-6-.45-.54-.62-1.23-.08-1.69.54-.45 1.13-.2 1.59.34l5.28 5.87c.34.39.75.15.49-.36A233 233 0 0 0 10.5 8c-.42-.56-.52-1.25.05-1.66.56-.42 1.19-.13 1.6.44 0 0 3.69 4.9 4.32 5.83.69 1 2.46 3.47 3.15 3.08.66-.38 1.07-1.79 1.01-2.97a2.74 2.74 0 0 1 1.38-2.47c1.31-.74 1.3.73 1.13 2.25-.34 3.22-.04 4.57.04 6.5a6.06 6.06 0 0 1-2.65 5.38c-3.26 2.36-6 2.42-10.54-2.84-1-1.18-4.83-4.4-5.32-4.74-.13-.02-.54-.65-.24-.87Z"/><g filter="url(#b)"><path fill="#FFE393" fill-opacity=".7" d="M21.31 19.96c0 1.08-1.14 1.44-1.74 1.44-1.08.1-2.06-2.77-1.3-4.2 0-.43 2.05-1.33 2.17-1.65.2-.5.76-5.74 1.96-5.33 0 2.16-.76 8.3-1.09 9.74Z"/></g><g filter="url(#c)"><path fill="#FFE393" fill-opacity=".7" d="M16.87 21.07c1.1.02 1.8.82 1.79 1.52-.02.7-1.43 1.93-2.54 1.91-1.1-.02-5.06-2.96-5.05-3.66.01-.44 2.11-.9 3.7-.4.84 0 1.7.62 2.1.63Z"/></g><g filter="url(#d)"><path fill="#FFF3D0" d="M9.6 15.6c.93.49 1.1.72.85 1.2-.26.5-2.78-2.36-3.71-2.85-.93-.5-1.94-2.4-1.68-2.89.16-.31 1.16 1.48 2.31 2.51.72.36 1.9 1.84 2.23 2.02Z"/></g><g filter="url(#e)"><path fill="#BC6C09" d="M9.15 16.26c.73.83 1.31 1.15 1.05 1.64-.26.5-3.06-2.94-4.02-3.45-.96-.51-2.65-2.92-2.24-3.53.28-.23.26.14.62.72.44.69 1.51 1.69 2.27 2.44.76.74 1.6 1.67 2.32 2.18Z"/></g><g filter="url(#f)"><path fill="#BC6C09" d="M8.76 16.94c.79.73 1.54.96 1.04 1.36-.63 0-3.4-2.4-4.2-2.5-.98-.39-2.13 1.14-1.8.5.25-.26-.32-3.87.1-3.34.48.62 1.61 1.47 2.41 2.12.8.64 1.7 1.44 2.45 1.86Z"/></g><g filter="url(#g)"><path fill="#BC6C09" d="M9.12 12.47c.64.85 3.24 3.13 2.68 3.43-1.1-.3-4.9-4.57-5.6-5-.9-.7-1.84.17-1.4-.4.29-.21-.07-3.41.24-2.82.37.7 1.33 1.74 2 2.52.68.77 1.42 1.72 2.08 2.27Z"/></g><g filter="url(#h)"><path fill="#BC6C09" d="M11.78 10.66c.55.92 2.9 3.44 2.32 3.69-1-.85-5.45-6.05-6.1-6.55-.82-.8-1.7.32-1.2-.2.31-.18 1.15-2.73 1.4-2.11.29.73 1.14 1.86 1.74 2.7.6.84 1.23 1.86 1.84 2.47Z"/></g><g filter="url(#i)"><path fill="#BC6C09" d="M10.4 13.2c.7.8 2.3 2.5 1.9 2.6-.26.49-2.93-3-3.85-3.5-.93-.48-3.25-4.2-2.55-4.7.16-.31.91 1.38 2.3 3 .64.75 1.4 1.8 2.2 2.6Z"/></g><g filter="url(#j)"><path fill="#BC6C09" d="M13.2 11.3c.57.9 1.82 2.66 1.4 2.7-.33.44-2.27-3.37-3.11-4-.84-.63-1.89-3.2-1.19-3.6.5-.5-.09.6 1 2.1.61.83 1.24 1.88 1.9 2.8Z"/></g><g filter="url(#k)"><path fill="#BC6C09" fill-opacity=".7" d="M17.6 14.3c.7.9 1 1.3 2 1.6.5-.3.9-1.3 1.2-2.9-.3-1.5.8-2.6 1.8-2.9-.3-.6-2.23.07-2.3 0-.84-.63-8.8-5-9.4-3.9.9-.1 3.5 3.72 4.6 5.2.62.82 1.2 2 2.1 2.9Z"/></g><g filter="url(#l)"><path fill="#BC6C09" d="M13.1 24.3c.94.5 1.4.82 1.15 1.3-.26.5-2.79-2.36-3.71-2.85-.93-.5-6.5-6.06-6.24-6.55.02-.04-.05-.32.1-.2.12.7 1.88 1.92 3.2 3 1.5 1.4 3.01 3.01 3.6 3.6.66.66 1.56 1.52 1.9 1.7Z"/></g><g filter="url(#m)"><path fill="#FFF3D0" d="M8.35 18.84c.71.77.52.75.92.37.4-.37-1.86-1.8-2.57-2.56-.72-.77-1.17-.8-1.57-.42-.26.23.08.28 1.37 1.13.54.6 1.59 1.2 1.85 1.48Z"/></g><g filter="url(#n)"><path fill="#FFF3D0" d="M11.8 13.83c.96.85 1.15 1.13.89 1.42-.26.3-2.9-3.32-3.86-4.17-.96-.86-2.02-2.95-1.76-3.24.16-.19 1.2 1.8 2.41 3.22.74.64 1.97 2.46 2.32 2.77Z"/></g><g filter="url(#o)"><path fill="#FFE8A9" d="M12.45 17.59c-.37.8-.57.95-1.05.73-.47-.22 1.95-2.4 2.33-3.2.37-.8 2.05-1.68 2.52-1.45.3.14-1.27 1-2.12 2-.27.61-1.54 1.63-1.68 1.92Z"/></g><g filter="url(#p)"><path fill="#EB9603" fill-opacity=".9" d="M16.5 24.5c-2.2 0-4.32-.97-4.1-.5.1.22 2.4 3.4 7.1 1.2 1.2-.4 3.1-1.81 3.7-4.2.3-2 .22-10.13 0-10.6-1-.7-1.1 6.7-.7 9.5-.2 1.6-.6 1.21-2.3 3-1.4 1.01-2.12 1.6-3.7 1.6Z"/></g><g filter="url(#q)"><path fill="#AA630B" fill-opacity=".9" d="M16.4 25.7c-2.2 0-3.7-1.07-3.47-.6.1.22 2.4 3.4 7.1 1.2 1.2-.4 3.1-1.8 3.7-4.2.3-2 .1-10.03-.13-10.5-1-.7-.7 7.6-.8 9.5-.93 1.7-1.3 2.2-2.07 2.9-1.4 1.01-2.75 1.7-4.33 1.7Z"/></g><g filter="url(#r)"><path fill="#FFF3D0" d="M14.48 12.25c.8.84.93 1.11.65 1.38-.28.27-2.48-2.93-3.1-4.07-.8-.84-1.61-2.49-1.33-2.76.18-.17.99 1.38 1.95 2.76.61.63 1.54 2.39 1.83 2.7Z"/></g></g><defs><filter id="b" width="8.4" height="15.2" x="16" y="8.2" color-interpolation-filters="sRGB" filterUnits="userSpaceOnUse"><feFlood flood-opacity="0" result="BackgroundImageFix"/><feBlend in="SourceGraphic" in2="BackgroundImageFix" result="shape"/><feGaussianBlur result="effect1_foregroundBlur_30477_16504" stdDeviation="1"/></filter><filter id="c" width="11.59" height="8.28" x="9.07" y="18.23" color-interpolation-filters="sRGB" filterUnits="userSpaceOnUse"><feFlood flood-opacity="0" result="BackgroundImageFix"/><feBlend in="SourceGraphic" in2="BackgroundImageFix" result="shape"/><feGaussianBlur result="effect1_foregroundBlur_30477_16504" stdDeviation="1"/></filter><filter id="d" width="7.94" height="8.24" x="3.82" y="9.82" color-interpolation-filters="sRGB" filterUnits="userSpaceOnUse"><feFlood flood-opacity="0" result="BackgroundImageFix"/><feBlend in="SourceGraphic" in2="BackgroundImageFix" result="shape"/><feGaussianBlur result="effect1_foregroundBlur_30477_16504" stdDeviation=".6"/></filter><filter id="e" width="7.99" height="8.69" x="3.08" y="10.05" color-interpolation-filters="sRGB" filterUnits="userSpaceOnUse"><feFlood flood-opacity="0" result="BackgroundImageFix"/><feBlend in="SourceGraphic" in2="BackgroundImageFix" result="shape"/><feGaussianBlur result="effect1_foregroundBlur_30477_16504" stdDeviation=".4"/></filter><filter id="f" width="7.82" height="6.99" x="2.94" y="12.11" color-interpolation-filters="sRGB" filterUnits="userSpaceOnUse"><feFlood flood-opacity="0" result="BackgroundImageFix"/><feBlend in="SourceGraphic" in2="BackgroundImageFix" result="shape"/><feGaussianBlur result="effect1_foregroundBlur_30477_16504" stdDeviation=".4"/></filter><filter id="g" width="8.79" height="9.89" x="3.89" y="6.81" color-interpolation-filters="sRGB" filterUnits="userSpaceOnUse"><feFlood flood-opacity="0" result="BackgroundImageFix"/><feBlend in="SourceGraphic" in2="BackgroundImageFix" result="shape"/><feGaussianBlur result="effect1_foregroundBlur_30477_16504" stdDeviation=".4"/></filter><filter id="h" width="9.13" height="10.55" x="5.86" y="4.59" color-interpolation-filters="sRGB" filterUnits="userSpaceOnUse"><feFlood flood-opacity="0" result="BackgroundImageFix"/><feBlend in="SourceGraphic" in2="BackgroundImageFix" result="shape"/><feGaussianBlur result="effect1_foregroundBlur_30477_16504" stdDeviation=".4"/></filter><filter id="i" width="8.19" height="9.88" x="4.97" y="6.76" color-interpolation-filters="sRGB" filterUnits="userSpaceOnUse"><feFlood flood-opacity="0" result="BackgroundImageFix"/><feBlend in="SourceGraphic" in2="BackgroundImageFix" result="shape"/><feGaussianBlur result="effect1_foregroundBlur_30477_16504" stdDeviation=".4"/></filter><filter id="j" width="6.22" height="9.35" x="9.27" y="5.48" color-interpolation-filters="sRGB" filterUnits="userSpaceOnUse"><feFlood flood-opacity="0" result="BackgroundImageFix"/><feBlend in="SourceGraphic" in2="BackgroundImageFix" result="shape"/><feGaussianBlur result="effect1_foregroundBlur_30477_16504" stdDeviation=".4"/></filter><filter id="k" width="13.3" height="11.48" x="10.1" y="5.22" color-interpolation-filters="sRGB" filterUnits="userSpaceOnUse"><feFlood flood-opacity="0" result="BackgroundImageFix"/><feBlend in="SourceGraphic" in2="BackgroundImageFix" result="shape"/><feGaussianBlur result="effect1_foregroundBlur_30477_16504" stdDeviation=".4"/></filter><filter id="l" width="11.63" height="11.29" x="3.49" y="15.17" color-interpolation-filters="sRGB" filterUnits="userSpaceOnUse"><feFlood flood-opacity="0" result="BackgroundImageFix"/><feBlend in="SourceGraphic" in2="BackgroundImageFix" result="shape"/><feGaussianBlur result="effect1_foregroundBlur_30477_16504" stdDeviation=".4"/></filter><filter id="m" width="6.67" height="5.88" x="3.85" y="14.79" color-interpolation-filters="sRGB" filterUnits="userSpaceOnUse"><feFlood flood-opacity="0" result="BackgroundImageFix"/><feBlend in="SourceGraphic" in2="BackgroundImageFix" result="shape"/><feGaussianBlur result="effect1_foregroundBlur_30477_16504" stdDeviation=".6"/></filter><filter id="n" width="8.17" height="9.85" x="5.83" y="6.62" color-interpolation-filters="sRGB" filterUnits="userSpaceOnUse"><feFlood flood-opacity="0" result="BackgroundImageFix"/><feBlend in="SourceGraphic" in2="BackgroundImageFix" result="shape"/><feGaussianBlur result="effect1_foregroundBlur_30477_16504" stdDeviation=".6"/></filter><filter id="o" width="8.15" height="7.98" x="9.74" y="12.03" color-interpolation-filters="sRGB" filterUnits="userSpaceOnUse"><feFlood flood-opacity="0" result="BackgroundImageFix"/><feBlend in="SourceGraphic" in2="BackgroundImageFix" result="shape"/><feGaussianBlur result="effect1_foregroundBlur_30477_16504" stdDeviation=".8"/></filter><filter id="p" width="15.01" height="19.62" x="10.38" y="8.35" color-interpolation-filters="sRGB" filterUnits="userSpaceOnUse"><feFlood flood-opacity="0" result="BackgroundImageFix"/><feBlend in="SourceGraphic" in2="BackgroundImageFix" result="shape"/><feGaussianBlur result="effect1_foregroundBlur_30477_16504" stdDeviation="1"/></filter><filter id="q" width="14.57" height="19.12" x="11.11" y="9.76" color-interpolation-filters="sRGB" filterUnits="userSpaceOnUse"><feFlood flood-opacity="0" result="BackgroundImageFix"/><feBlend in="SourceGraphic" in2="BackgroundImageFix" result="shape"/><feGaussianBlur result="effect1_foregroundBlur_30477_16504" stdDeviation=".9"/></filter><filter id="r" width="7.02" height="9.26" x="9.44" y="5.59" color-interpolation-filters="sRGB" filterUnits="userSpaceOnUse"><feFlood flood-opacity="0" result="BackgroundImageFix"/><feBlend in="SourceGraphic" in2="BackgroundImageFix" result="shape"/><feGaussianBlur result="effect1_foregroundBlur_30477_16504" stdDeviation=".6"/></filter></defs></svg>