<svg xmlns="http://www.w3.org/2000/svg" width="440" height="1080" fill="none"><g clip-path="url(#a)"><path fill="url(#b)" d="M0 0h440v1080H0z"/><circle cx="252.8" cy="585.2" r="3.8" fill="#fff"/><circle cx="264" cy="607.7" r="3.8" fill="#fff"/><circle cx="331.5" cy="585.2" r="3.8" fill="#fff"/><circle cx="342.8" cy="607.7" r="3.8" fill="#fff"/><circle cx="410.3" cy="585.2" r="3.8" fill="#fff"/><circle cx="421.5" cy="607.7" r="3.8" fill="#fff"/><circle cx="279" cy="585.2" r="3.8" fill="#fff"/><circle cx="290.3" cy="607.7" r="3.8" fill="#fff"/><circle cx="357.8" cy="585.2" r="3.8" fill="#fff"/><circle cx="369" cy="607.7" r="3.8" fill="#fff"/><circle cx="436.5" cy="585.2" r="3.8" fill="#fff"/><circle cx="305.3" cy="585.2" r="3.8" fill="#fff"/><circle cx="316.5" cy="607.7" r="3.8" fill="#fff"/><circle cx="384" cy="585.2" r="3.8" fill="#fff"/><circle cx="395.3" cy="607.7" r="3.8" fill="#fff"/><path stroke="#FEFFF9" stroke-width="3" d="m-39 349 9-34c4-8 7-12 12-13 5-2 10 0 17 5l26 23 107 101 25 25c5 7 7 12 5 17-1 4-5 8-12 12l-34 11-141 42c-15 4-25 8-34 9-8 1-13 0-17-4-4-3-5-8-4-17l7-34 34-143Z"/><path fill="#E1F895" d="m47 326 22-6 28 105-22 6z"/><path fill="#E1F895" d="m17 372 6-22 105 28-6 23z"/><path fill="#E1F895" d="m42 422-16-16 77-77 16 16z"/><path stroke="#FEFFF9" stroke-width="3" d="M271 467a107 107 0 0 0-62 29A457 457 0 0 0 84 708c-4 18-4 37 1 55 4 17 13 33 26 47a501 501 0 0 0 63 55v1-1l1 1a413 413 0 0 0 148 69c18 5 37 5 54 0 18-4 35-13 48-27a495 495 0 0 0 78-96c24-41 38-83 47-115a108 108 0 0 0-27-102 461 461 0 0 0-181-116l-31-9c-14-4-27-5-40-3Zm209 380Z"/><rect width="142.8" height="42.2" x="-2.1" y=".3" stroke="#FEFFF9" stroke-width="3" rx="18.5" transform="matrix(-.8 -.6 -.6 .8 216 647)"/><path fill="#6AD17A" fill-rule="evenodd" d="M169 837a47 47 0 0 1 38-26 200 200 0 0 1 105 19 47 47 0 0 1 27 39v36a178 178 0 0 1-20 69 47 47 0 0 1-39 26l-11 1-25-1a178 178 0 0 1-69-20 47 47 0 0 1-26-38 200 200 0 0 1 20-105Z" clip-rule="evenodd"/><mask id="c" width="192" height="193" x="148" y="809" maskUnits="userSpaceOnUse" style="mask-type:alpha"><path fill="#68C075" fill-rule="evenodd" d="M169 837a47 47 0 0 1 38-26 200 200 0 0 1 105 19 47 47 0 0 1 27 39v36a178 178 0 0 1-20 69 47 47 0 0 1-39 26l-11 1-25-1a178 178 0 0 1-69-20 47 47 0 0 1-26-38 200 200 0 0 1 20-105Z" clip-rule="evenodd"/></mask><g stroke="#F1F3F8" stroke-linecap="round" stroke-width="3" mask="url(#c)"><path d="M133 944c28-13 87-50 95-94 8-43-31-72-52-81"/><path d="M216 1013c-12-8-35-28-33-48 3-25 82-49 85-97 3-39-14-70-23-81M299 1026c-13-14-36-52-23-93 17-51 44-67 88-73"/></g></g><defs><linearGradient id="b" x1="666.5" x2="157.5" y1="1142.5" y2="251" gradientUnits="userSpaceOnUse"><stop stop-color="#E0F794"/><stop offset="1" stop-color="#70C985"/></linearGradient><clipPath id="a"><path fill="#fff" d="M0 0h440v1080H0z"/></clipPath></defs></svg>