<svg width="24" height="20" viewBox="0 0 24 20" fill="none" xmlns="http://www.w3.org/2000/svg">
<path d="M24 2.36772C23.117 2.76969 22.168 3.0404 21.172 3.16243C22.189 2.53794 22.97 1.5484 23.337 0.369155C22.386 0.947498 21.332 1.36792 20.21 1.59454C19.313 0.613208 18.032 0 16.616 0C13.437 0 11.101 3.04143 11.819 6.19873C7.728 5.98851 4.1 3.97867 1.671 0.923913C0.381 3.19319 1.002 6.16181 3.194 7.66509C2.388 7.63843 1.628 7.41181 0.965 7.03343C0.911 9.37244 2.546 11.5607 4.914 12.0478C4.221 12.2406 3.462 12.2857 2.69 12.1339C3.316 14.1397 5.134 15.5988 7.29 15.6399C5.22 17.3041 2.612 18.0476 0 17.7317C2.179 19.1643 4.768 20 7.548 20C16.69 20 21.855 12.0826 21.543 4.98154C22.505 4.26887 23.34 3.37982 24 2.36772Z" fill="#60A0F0"/>
</svg>
