<svg xmlns="http://www.w3.org/2000/svg" fill="currentColor" viewBox="0 0 64 64"><path d="M14.653 25.1c-.538-1.563-1.571-3.742-3.504-5.674-1.986-1.987-4.297-3.055-5.923-3.607-.306-.104-.3-.95.007-1.052a14.98 14.98 0 0 0 5.818-3.588c2.063-2.064 3.122-4.357 3.651-5.948.101-.305.91-.31 1.011-.005.545 1.63 1.615 3.983 3.634 6.002 1.896 1.897 4.03 2.927 5.586 3.473.307.108.302 1.025-.005 1.131-1.558.536-3.698 1.562-5.63 3.495-1.98 1.98-3.024 4.192-3.562 5.77-.104.307-.978.31-1.083.003Zm19.731 33.552c-1.398-3.895-4.348-11.204-7.901-14.757-3.542-3.541-10.815-6.376-14.72-7.717-.757-.26-.76-1.432-.004-1.696 3.853-1.348 11.006-4.203 14.724-7.92 3.747-3.748 6.618-10.986 7.952-14.816.26-.748 1.41-.759 1.68-.014 1.347 3.713 4.173 10.688 7.701 14.83 3.435 4.033 10.383 6.678 14.36 7.93.788.248.809 1.512.027 1.78-3.94 1.351-10.842 4.078-14.387 7.623-3.653 3.653-6.438 10.871-7.743 14.74-.255.757-1.42.769-1.689.017Z"/></svg>