<svg xmlns="http://www.w3.org/2000/svg" fill="currentColor" viewBox="0 0 64 64"><path fill-rule="evenodd" d="M36.332 1.083c.523.497 1.161.917 1.883.917h7.038c4.554 0 8.345 3.028 9.578 7.111.336 1.114-.599 2.117-1.763 2.117H10.832c-1.164 0-2.1-1.003-1.763-2.117C10.302 5.028 14.093 2 18.647 2h5.996c.72 0 1.36-.42 1.882-.917A3.916 3.916 0 0 1 29.235 0h4.388c1.05 0 2.004.412 2.71 1.083ZM9.843 19.023a2 2 0 0 1 1.992-2.18H51.75a2 2 0 0 1 1.992 2.18l-3.268 35.884A10 10 0 0 1 40.514 64H23.07a10 10 0 0 1-9.959-9.093L9.843 19.024Zm12.215 30.503a3 3 0 1 0 5.995-.245l-.919-22.456a3 3 0 1 0-5.995.245l.919 22.456ZM39.775 23.95a3 3 0 0 1 2.874 3.12l-.918 22.456a3 3 0 0 1-5.995-.245l.918-22.456a3 3 0 0 1 3.12-2.875Z"/></svg>