<svg width="64" height="64" viewBox="0 0 64 64" fill="currentColor" xmlns="http://www.w3.org/2000/svg">
<g id="notes">
<g id="Union">
<path d="M18.5 25C17.6716 25 17 25.6716 17 26.5C17 27.3284 17.6716 28 18.5 28H45.5C46.3284 28 47 27.3284 47 26.5C47 25.6716 46.3284 25 45.5 25H18.5Z" />
<path d="M18.5 32C17.6716 32 17 32.6716 17 33.5C17 34.3284 17.6716 35 18.5 35H45.5C46.3284 35 47 34.3284 47 33.5C47 32.6716 46.3284 32 45.5 32H18.5Z" />
<path d="M17 40.5C17 39.6716 17.6716 39 18.5 39H38.5C39.3284 39 40 39.6716 40 40.5C40 41.3284 39.3284 42 38.5 42H18.5C17.6716 42 17 41.3284 17 40.5Z" />
<path fill-rule="evenodd" clip-rule="evenodd" d="M23.5 4C22.1193 4 21 5.11929 21 6.5V9H15C11.134 9 8 12.134 8 16V53C8 56.866 11.134 60 15 60H49C52.866 60 56 56.866 56 53V16C56 12.134 52.866 9 49 9H43V6.5C43 5.11929 41.8807 4 40.5 4C39.1193 4 38 5.11929 38 6.5V9H26V6.5C26 5.11929 24.8807 4 23.5 4ZM38 16.5V14H26V16.5C26 17.8807 24.8807 19 23.5 19C22.1193 19 21 17.8807 21 16.5V14H15C13.8954 14 13 14.8954 13 16V53C13 54.1046 13.8954 55 15 55H49C50.1046 55 51 54.1046 51 53V16C51 14.8954 50.1046 14 49 14H43V16.5C43 17.8807 41.8807 19 40.5 19C39.1193 19 38 17.8807 38 16.5Z" />
</g>
</g>
</svg>
