<svg xmlns="http://www.w3.org/2000/svg" fill="currentColor" viewBox="0 0 64 64"><path fill-rule="evenodd" d="M27.375 4C14.465 4 4 14.465 4 27.375c0 12.909 10.465 23.374 23.375 23.374a23.27 23.27 0 0 0 11.227-2.868c.824-.452 1.858-.349 2.523.316L51.46 58.532a5 5 0 0 0 7.07-7.071L48.198 41.127c-.665-.665-.769-1.7-.317-2.524a23.27 23.27 0 0 0 2.869-11.229C50.749 14.466 40.284 4 27.374 4ZM12 27.375C12 18.883 18.883 12 27.375 12c8.49 0 15.374 6.883 15.374 15.375 0 8.49-6.883 15.374-15.375 15.374-8.49 0-15.374-6.883-15.374-15.375Z"/></svg>