<svg xmlns="http://www.w3.org/2000/svg" fill="currentColor" viewBox="0 0 64 65"><path fill-rule="evenodd" d="M7.827 57.595a4 4 0 0 0 6.347 4.87l42.992-56.03a4 4 0 0 0-6.346-4.87l-2.51 3.272a9.956 9.956 0 0 0-4.287-.962h-5.839c-.72 0-1.359-.423-1.89-.91A3.671 3.671 0 0 0 33.806 2h-4.115c-.958 0-1.83.366-2.486.965-.532.487-1.17.91-1.891.91h-4.86c-4.301 0-7.92 2.7-9.349 6.439-.432 1.131.514 2.212 1.725 2.212h29.578L38.37 17.79H13.518a2 2 0 0 0-1.992 2.181l2.67 29.323-6.37 8.301Zm14.549-18.96 5.701-7.43-.166-4.064a3 3 0 0 0-5.995.245l.46 11.248ZM39.697 62H24.53l11.097-14.462-.027.655a3 3 0 1 0 5.995.246l.375-9.167L52.1 26.07l-2.444 26.837A10 10 0 0 1 39.697 62Z"/></svg>