<svg viewBox="0 0 24 24" fill="none" xmlns="http://www.w3.org/2000/svg"><g clip-path="url(#prefix__clip0)" fill="#7bc86c"><path fill-rule="evenodd" clip-rule="evenodd" d="M1.4 14.9a4.75 4.75 0 013.35-1.4h8.5A4.75 4.75 0 0118 18.25v2a.75.75 0 01-1.5 0v-2A3.25 3.25 0 0013.25 15h-8.5a3.25 3.25 0 00-3.25 3.25v2a.75.75 0 01-1.5 0v-2c0-1.26.5-2.47 1.4-3.36zM9 2.91a3.08 3.08 0 100 6.16 3.08 3.08 0 000-6.16zM4.5 6a4.5 4.5 0 119 0 4.5 4.5 0 01-9 0zm15.02 8.2a.75.75 0 01.92-.55 4.75 4.75 0 013.56 4.6v2a.75.75 0 01-1.5 0v-2a3.25 3.25 0 00-2.44-3.14.75.75 0 01-.54-.92zm-4.5-12.15a.75.75 0 01.91-.53 4.75 4.75 0 012.57 1.65 4.54 4.54 0 010 5.66 4.75 4.75 0 01-2.57 1.65.75.75 0 01-.9-.53.73.73 0 01.53-.89 3.25 3.25 0 001.76-1.12A3.11 3.11 0 0018 6c0-.7-.24-1.38-.68-1.94a3.25 3.25 0 00-1.76-1.12.73.73 0 01-.54-.9z"/><path d="M.64 19.5h16.6V21H.64v-1.5z"/></g><defs><clipPath id="prefix__clip0"><path fill="#fff" d="M0 0h24v24H0z"/></clipPath></defs></svg>