<svg xmlns="http://www.w3.org/2000/svg" fill="currentColor" viewBox="0 0 64 64"><path d="M17.887 52.984V11.016h-3.379a3.509 3.509 0 0 1 0-7.016h15.13c5.122 0 8.953.301 11.514.925 2.561.625 4.821 2.174 6.78 4.692 1.958 2.518 2.927 5.445 2.927 8.824a14.109 14.109 0 0 1-1.744 7.038 11.305 11.305 0 0 1-5.122 4.756c3.12 1.076 5.51 2.841 7.188 5.338 1.68 2.475 2.519 5.316 2.519 8.522a15.166 15.166 0 0 1-1.873 7.533 13.813 13.813 0 0 1-4.971 5.23 19.675 19.675 0 0 1-6.78 2.496c-2.453.43-5.79.646-10.03.646H14.509A3.509 3.509 0 0 1 11 56.492c0-1.937 1.571-3.508 3.486-3.508h3.401Zm8.458-25.676h5.273c4.025 0 6.822-.71 8.437-2.109 1.614-1.399 2.389-3.487 2.389-6.22 0-5.316-3.616-7.963-10.826-7.963h-5.273v16.292Zm0 25.676h3.185c4.154 0 7.21-.215 9.126-.624a8.106 8.106 0 0 0 4.735-2.927c1.226-1.55 1.829-3.53 1.829-5.94 0-2.196-.581-4.046-1.743-5.531-1.141-1.464-2.712-2.519-4.498-2.97-1.83-.495-4.434-.754-7.791-.754h-4.843v18.746Z"/></svg>