<svg xmlns="http://www.w3.org/2000/svg" fill="currentColor" viewBox="0 0 64 64"><path d="M31.591 52.322a3.692 3.692 0 0 1-3.68-3.68V34.846H11.36v13.796a3.679 3.679 0 0 1-3.68 3.68A3.665 3.665 0 0 1 4 48.642V14.68A3.679 3.679 0 0 1 7.68 11a3.692 3.692 0 0 1 3.68 3.68v13.172h16.55V14.68A3.679 3.679 0 0 1 31.592 11a3.665 3.665 0 0 1 3.68 3.68v33.962a3.679 3.679 0 0 1-3.68 3.68Zm24.707 0c-2.023 0-3.659-1.657-3.659-3.68v-30.13l-5.057 1.377c-.28.086-.581.129-.883.129a3.297 3.297 0 0 1-3.292-3.315c0-1.377.882-2.625 2.173-3.099l6.5-2.346A4.073 4.073 0 0 1 53.522 11h2.905A3.564 3.564 0 0 1 60 14.573v34.069c-.022 2.023-1.657 3.68-3.702 3.68Z"/></svg>