<svg xmlns="http://www.w3.org/2000/svg" fill="currentColor" viewBox="0 0 64 64"><path d="M27.277 49.776a3.314 3.314 0 0 1-3.313-3.313V35.17H10.626v11.294a3.316 3.316 0 0 1-3.227 3.4A3.316 3.316 0 0 1 4 46.634V18.066a3.316 3.316 0 0 1 3.4-3.227 3.309 3.309 0 0 1 3.226 3.227v10.778h13.338V18.066a3.316 3.316 0 0 1 3.4-3.227 3.309 3.309 0 0 1 3.226 3.227v28.376a3.32 3.32 0 0 1-3.313 3.334Zm12.843.001c-1.914 0-3.463-1.55-3.463-3.443 0-.903.344-1.764.968-2.41L48.77 32.352c1.85-1.893 3.98-4.432 3.98-7.143 0-2.86-1.936-4.775-4.84-4.775a6.283 6.283 0 0 0-4.346 1.742c-.602.58-1.42.925-2.259.925-.538 0-1.076-.15-1.549-.409l-.172-.107a3.254 3.254 0 0 1-1.592-2.41 3.113 3.113 0 0 1 .904-2.646C41.175 15.248 44.337 14 47.8 14c3.12 0 6.002 1.011 8.11 2.861 2.26 1.98 3.464 4.733 3.464 7.96 0 3.679-1.785 7.25-5.464 10.929l-7.594 7.659H56.75c1.742-.043 3.205 1.333 3.248 3.076.043 1.743-1.334 3.206-3.076 3.248h-.172l-16.63.044Z"/></svg>