<svg xmlns="http://www.w3.org/2000/svg" fill="currentColor" viewBox="0 0 64 64"><path d="M52.442 4h-24.93a4.092 4.092 0 0 0-4.093 4.094 4.092 4.092 0 0 0 4.093 4.094H35.7a12643.101 12643.101 0 0 1-16.418 39.409.77.77 0 0 1-.151.215h-8.037A4.092 4.092 0 0 0 7 55.906 4.092 4.092 0 0 0 11.094 60h24.93a4.092 4.092 0 0 0 4.093-4.094 4.092 4.092 0 0 0-4.093-4.094h-8.188C33.287 38.67 38.76 25.547 44.233 12.403a.774.774 0 0 1 .15-.215h8.037a4.092 4.092 0 0 0 4.094-4.094A4.074 4.074 0 0 0 52.442 4Z"/></svg>