<svg xmlns="http://www.w3.org/2000/svg" fill="currentColor" viewBox="0 0 64 64"><defs><clipPath id="a"><rect width="64" height="64"/></clipPath></defs><g clip-path="url(#a)"><path d="M7.5 0A7.5 7.5 0 0 0 0 7.5v39A7.5 7.5 0 0 0 7.5 54h10.273a3.5 3.5 0 1 0 0-7H7.5a.5.5 0 0 1-.5-.5v-39a.5.5 0 0 1 .5-.5h32a.5.5 0 0 1 .5.5v12.425a3.5 3.5 0 1 0 7 0V7.5A7.5 7.5 0 0 0 39.5 0h-32Z"/><path d="M14 11a3.5 3.5 0 1 0 0 7h19a3.5 3.5 0 1 0 0-7H14Zm-3.5 14.5A3.5 3.5 0 0 1 14 22h12a3.5 3.5 0 1 1 0 7H14a3.5 3.5 0 0 1-3.5-3.5Zm33.128 2.878a12.015 12.015 0 0 1 16.853.147 12.034 12.034 0 0 1 .146 16.86l-.021.022-.022.021-5.111 5.117a12.023 12.023 0 0 1-4.3 2.768c-3.657 1.365-8.464.965-11.699-2.248a3.5 3.5 0 1 1 4.933-4.966c.91.903 2.669 1.271 4.317.656a5.019 5.019 0 0 0 1.795-1.156l5.089-5.093a5.034 5.034 0 0 0-.08-7.034 5.016 5.016 0 0 0-7.035-.062 3.5 3.5 0 0 1-4.865-5.032Z"/><path d="M37.827 35.688c3.713-1.387 8.434-.891 11.657 2.207a3.5 3.5 0 1 1-4.85 5.047c-.983-.945-2.752-1.296-4.358-.696A5.02 5.02 0 0 0 38.48 43.4l-5.088 5.094a5.034 5.034 0 0 0 .08 7.034 5.016 5.016 0 0 0 7.035.061 3.5 3.5 0 1 1 4.865 5.032 12.015 12.015 0 0 1-16.853-.146 12.034 12.034 0 0 1-.103-16.904l5.111-5.117a12.022 12.022 0 0 1 4.3-2.767Z"/></g></svg>
