<svg xmlns="http://www.w3.org/2000/svg" fill="currentColor" viewBox="0 0 64 64"><path fill-rule="evenodd" d="M27.052 50.717a9.5 9.5 0 0 1-13.435-13.435l4.596-4.596a3.5 3.5 0 0 0-4.95-4.95l-4.596 4.596c-6.443 6.444-6.443 16.891 0 23.335 6.444 6.444 16.891 6.444 23.335 0l4.596-4.596a3.5 3.5 0 1 0-4.95-4.95l-4.596 4.596Zm24.042-24.041a9.5 9.5 0 0 0 0-13.435 9.5 9.5 0 0 0-13.435 0l-4.597 4.596a3.5 3.5 0 0 1-4.95-4.95L32.71 8.29c6.444-6.444 16.89-6.444 23.334 0 6.444 6.443 6.444 16.89 0 23.334l-4.596 4.596a3.5 3.5 0 0 1-4.95-4.95l4.597-4.596Z"/><path fill-rule="evenodd" d="M21.749 42.585a3.5 3.5 0 0 1 0-4.95l16.97-16.97a3.5 3.5 0 0 1 4.95 4.95l-16.97 16.97a3.5 3.5 0 0 1-4.95 0Z"/></svg>