<svg xmlns="http://www.w3.org/2000/svg" fill="currentColor" viewBox="0 0 64 64"><path d="M12.53 14.265a4.265 4.265 0 1 1-8.53 0 4.265 4.265 0 0 1 8.53 0Zm29.274 3.619H20.802c-2.52 0-4.157-1.4-4.2-3.511-.044-2.197 1.636-3.64 4.243-3.64 2.88 0 6.45-.003 10.282-.005 8.582-.005 18.483-.01 24.916.004 2.499 0 4.006 1.465 3.92 3.748-.086 2.047-1.53 3.404-3.813 3.404-3.188.014-6.376.01-9.564.005a2540.84 2540.84 0 0 0-4.782-.005Zm0 18.139H20.802c-2.52 0-4.18-1.4-4.2-3.512-.044-2.197 1.636-3.64 4.243-3.64 2.868 0 6.42-.002 10.235-.004h.054c8.58-.005 18.478-.011 24.909.004 2.563 0 4.093 1.55 3.92 3.899-.15 1.96-1.594 3.252-3.813 3.252-3.188.015-6.376.01-9.564.005-1.594-.002-3.188-.005-4.782-.005ZM46.67 46.98c-1.578.003-3.156.005-4.736.005l-5.643-.004h-.012c-5.515-.005-12.56-.011-15.951.004-2.154.022-3.727 1.53-3.748 3.533-.022 2.003 1.53 3.619 3.64 3.619 9.608.021 26.496.021 36.103 0 1.594 0 2.822-.711 3.403-2.262.97-2.542-.732-4.868-3.597-4.89-3.157-.014-6.305-.01-9.456-.005h-.004ZM8.265 36.818a4.265 4.265 0 1 0 0-8.53 4.265 4.265 0 0 0 0 8.53Zm4.265 13.765a4.265 4.265 0 1 1-8.53 0 4.265 4.265 0 0 1 8.53 0Z"/></svg>