<svg xmlns="http://www.w3.org/2000/svg" fill="currentColor" viewBox="0 0 64 64"><path fill-rule="evenodd" d="M31.85 52.425c5.325 0 8.925-2.7 8.925-7.5 0-2.775-1.125-4.8-3.3-6.225h11.923c.626 1.644.977 3.525.977 5.7 0 5.325-1.875 9.375-5.55 12.15-3.675 2.775-8.1 4.125-13.425 4.125-6.675 0-17.025-2.325-17.025-14.25 0-2.175 1.725-4.2 4.35-4.2 2.325 0 3.675 1.575 4.2 3.9.825 4.125 2.4 6.3 8.925 6.3ZM15.5 18.45c0 2.473.43 4.521 1.182 6.25h12.47a27.29 27.29 0 0 1-1.427-.85c-1.875-1.275-2.775-3.15-2.775-5.775 0-4.8 3.45-6.675 8.175-6.675 1.275 0 2.775.225 4.35.75 1.575.525 2.625 1.725 3.075 3.6.525 2.025 1.95 3.825 4.35 3.825 2.175 0 4.05-1.575 4.05-4.275 0-4.2-1.575-7.275-4.8-9.3-3.225-2.025-6.975-3-11.325-3-5.025 0-9.15 1.275-12.45 3.9C17.15 9.45 15.5 13.275 15.5 18.45ZM10 27.7a4 4 0 0 0 0 8h44a4 4 0 0 0 0-8H10Z"/></svg>