<svg xmlns="http://www.w3.org/2000/svg" fill="currentColor" viewBox="0 0 64 64"><path fill-rule="evenodd" d="M13 4a3.5 3.5 0 1 0 0 7h1.5v17c0 .035 0 .07.002.105-.002.079-.002.157-.002.236 0 9.665 7.835 17.5 17.5 17.5s17.5-7.835 17.5-17.5c0-.079 0-.157-.002-.236.002-.035.002-.07.002-.105V11H51a3.5 3.5 0 1 0 0-7H41a3.5 3.5 0 1 0 0 7h1.5v17h-.005c.003.113.005.227.005.34 0 5.8-4.701 10.5-10.5 10.5s-10.5-4.7-10.5-10.5c0-.113.002-.227.005-.34H21.5V11H23a3.5 3.5 0 1 0 0-7H13Zm-1.5 49a3.5 3.5 0 1 0 0 7h41a3.5 3.5 0 1 0 0-7h-41Z"/></svg>