<svg viewBox="0 0 56 56" fill="#000" xmlns="http://www.w3.org/2000/svg"><path fill-rule="evenodd" fill="#8B8E93" clip-rule="evenodd" d="M28 49.94a21.94 21.94 0 1 0 0-43.88 21.94 21.94 0 0 0 0 43.88ZM28 53a25 25 0 1 0 0-50 25 25 0 0 0 0 50Z"/><path class="left-arrow" fill-rule="evenodd" fill="#8B8E93" clip-rule="evenodd" d="m18.3 30.2-5.67-5.66c-.6-.6-.6-1.57 0-2.17l5.66-5.66a1.53 1.53 0 0 1 2.17 2.17l-3.05 3.04h12.63a1.53 1.53 0 1 1 0 3.07H17.41l3.05 3.04a1.53 1.53 0 1 1-2.17 2.17Z"/><path class="right-arrow" fill-rule="evenodd" fill="#8B8E93" clip-rule="evenodd" d="M37.7 40.45l5.67-5.66c.6-.6.6-1.57 0-2.17l-5.66-5.66a1.53 1.53 0 1 0-2.17 2.17l3.05 3.05H25.96a1.53 1.53 0 1 0 0 3.06h12.63l-3.05 3.04a1.53 1.53 0 1 0 2.17 2.17Z"/></svg>