<svg width="12" height="12" fill="none" xmlns="http://www.w3.org/2000/svg"><path d="M6.281 1.876a.5.5 0 00-.664 0l-3.7 3.288a.5.5 0 00-.04.706l.647.729a.5.5 0 00.706.041l2.719-2.417L8.668 6.64a.5.5 0 00.706-.041l.647-.729a.5.5 0 00-.041-.706L6.28 1.876z" fill="#2979FF" stroke="#fff" stroke-linejoin="round"/><path d="M6.281 4.876a.5.5 0 00-.664 0l-3.7 3.288a.5.5 0 00-.04.706l.647.729a.5.5 0 00.706.041l2.719-2.417L8.668 9.64a.5.5 0 00.706-.041l.647-.729a.5.5 0 00-.041-.706L6.28 4.876z" fill="#2979FF" stroke="#fff" stroke-linejoin="round"/></svg>