<?xml version="1.0" encoding="UTF-8"?>
<svg width="15px" height="3px" viewBox="0 0 15 3" version="1.1" xmlns="http://www.w3.org/2000/svg" xmlns:xlink="http://www.w3.org/1999/xlink">
    <!-- Generator: sketchtool 53.2 (72643) - https://sketchapp.com -->
    <title>09CD98F4-C1B2-4053-9A3C-A1F68382EFB6</title>
    <desc>Created with sketchtool.</desc>
    <g id="SP-redesign" stroke="none" stroke-width="1" fill="none" fill-rule="evenodd">
        <g id="DI-v2" transform="translate(-860.000000, -573.000000)" fill="#0CB754">
            <path d="M861.5,576 C860.671573,576 860,575.328427 860,574.5 C860,573.671573 860.671573,573 861.5,573 C862.328427,573 863,573.671573 863,574.5 C863,575.328427 862.328427,576 861.5,576 Z M867.5,576 C866.671573,576 866,575.328427 866,574.5 C866,573.671573 866.671573,573 867.5,573 C868.328427,573 869,573.671573 869,574.5 C869,575.328427 868.328427,576 867.5,576 Z M873.5,576 C872.671573,576 872,575.328427 872,574.5 C872,573.671573 872.671573,573 873.5,573 C874.328427,573 875,573.671573 875,574.5 C875,575.328427 874.328427,576 873.5,576 Z" id="Combined-Shape"></path>
        </g>
    </g>
</svg>