<?xml version="1.0" encoding="UTF-8"?>
<svg width="15px" height="15px" viewBox="0 0 15 15" version="1.1" xmlns="http://www.w3.org/2000/svg" xmlns:xlink="http://www.w3.org/1999/xlink">
    <!-- Generator: Sketch 51.3 (57544) - http://www.bohemiancoding.com/sketch -->
    <title>Search-2</title>
    <desc>Created with Sketch.</desc>
    <defs></defs>
    <g id="SP-redesign" stroke="none" stroke-width="1" fill="none" fill-rule="evenodd">
        <g id="Search-2" transform="translate(-1293.000000, -383.000000)" fill="#9199AB" fill-rule="nonzero">
            <path d="M1299,393.3 C1301.37482,393.3 1303.3,391.374824 1303.3,389 C1303.3,386.625176 1301.37482,384.7 1299,384.7 C1296.62518,384.7 1294.7,386.625176 1294.7,389 C1294.7,391.374824 1296.62518,393.3 1299,393.3 Z M1303.89075,392.476534 L1307.94975,396.535534 L1306.53553,397.949747 L1302.47653,393.890748 C1301.49572,394.589209 1300.29583,395 1299,395 C1295.68629,395 1293,392.313708 1293,389 C1293,385.686292 1295.68629,383 1299,383 C1302.31371,383 1305,385.686292 1305,389 C1305,390.29583 1304.58921,391.495715 1303.89075,392.476534 Z"></path>
        </g>
    </g>
</svg>