<?xml version="1.0" encoding="utf-8"?>
<!-- Generator: Adobe Illustrator 22.0.0, SVG Export Plug-In . SVG Version: 6.00 Build 0)  -->
<svg version="1.1" id="Color" xmlns="http://www.w3.org/2000/svg" xmlns:xlink="http://www.w3.org/1999/xlink" x="0px" y="0px"
	 viewBox="0 0 512 512" style="enable-background:new 0 0 512 512;" xml:space="preserve">
<style type="text/css">
	.st0{fill:#4B8BF4;}
	.st1{fill:#FFFFFF;}
	.st2{fill:#DEDEDE;}
	.st3{fill:#E6E7E8;}
</style>
<g>
	<path class="st0" d="M449.3,480.5H62.7c-32.3,0-58.5-26.2-58.5-58.5V90c0-32.3,26.2-58.5,58.5-58.5h386.6
		c32.3,0,58.5,26.2,58.5,58.5v332C507.8,454.3,481.6,480.5,449.3,480.5z"/>
	<path class="st1" d="M419,114.2H93c-21.7,0-39.3,17.6-39.3,39.3v213.6c0,21.7,17.6,39.3,39.3,39.3h325.9
		c21.7,0,39.3-17.6,39.3-39.3V153.5C458.3,131.8,440.7,114.2,419,114.2z"/>
	<path class="st2" d="M256,114.2H93c-21.7,0-39.3,17.6-39.3,39.3v213.6c0,21.7,17.6,39.3,39.3,39.3h163V114.2z"/>
	<g>
		<path class="st0" d="M354.1,345.5H157.9c-15.5,0-28-12.5-28-28V203.1c0-15.5,12.5-28,28-28h196.2c15.5,0,28,12.5,28,28v114.3
			C382.1,332.9,369.6,345.5,354.1,345.5z"/>
		<path class="st3" d="M300.4,218h-38v-12.6c0-3.5-2.8-6.3-6.3-6.3s-6.3,2.8-6.3,6.3V218h-38c-3.5,0-6.3,2.8-6.3,6.3
			c0,3.5,2.8,6.3,6.3,6.3h73.6c-7.3,14.3-17.2,27.1-29.3,37.6c-1.9-1.8-3.9-3.7-5.8-5.6c-2.1-2.2-4.2-4.3-6.2-6.6
			c-2-2.2-3.9-4.4-5.7-6.7c-2.2-2.7-6.1-3.2-8.9-1.1c-2.7,2.2-3.2,6.1-1.1,8.9c2,2.4,4,5,6.2,7.4c2.1,2.4,4.3,4.7,6.6,7.1
			c1.8,1.8,3.6,3.6,5.4,5.3c-10.2,8.9-21,17.1-32.1,24.7c-3,1.9-3.7,5.9-1.8,8.7c1.9,3,5.9,3.7,8.7,1.8c12.1-8.1,23.6-17,34.6-26.6
			c1.9,1.7,3.9,3.4,5.7,5c2.2,1.9,4.4,3.6,6.5,5.3c2.1,1.7,4.1,3.3,6,4.6c1.9,1.5,3.7,2.7,5.4,4s3.2,2.3,4.4,3.3l6.4,4.4
			c3,1.9,6.8,1.1,8.7-1.8c1.9-3,1.2-6.8-1.8-8.7l-6.1-4.2c-1.3-0.9-2.7-2-4.3-3.2c-1.6-1.2-3.3-2.4-5.2-3.9c-1.8-1.4-3.8-3-5.8-4.5
			c-2-1.6-4.1-3.3-6.2-5.1c-1.5-1.3-3-2.5-4.4-3.8c14.4-13.8,28-30.1,33.4-46.1h1.6c3.5,0,6.3-2.8,6.3-6.3
			C306.7,220.8,303.8,218,300.4,218z"/>
	</g>
</g>
</svg>
 