<svg xmlns="http://www.w3.org/2000/svg" viewBox="0 0 16 16" fill="none"><path fill-rule="evenodd" clip-rule="evenodd" d="M3.83 3a.83.83 0 00-.83.83v8.34c0 .46.37.83.83.83h8.34c.46 0 .83-.37.83-.83V3.83a.83.83 0 00-.83-.83H3.83zM2 3.83C2 2.83 2.82 2 3.83 2h8.34c1 0 1.83.82 1.83 1.83v8.34c0 1-.82 1.83-1.83 1.83H3.83A1.83 1.83 0 012 12.17V3.83z" fill="#8B8E93"/><path fill-rule="evenodd" clip-rule="evenodd" d="M10.5 1c.28 0 .5.22.5.5v3a.5.5 0 01-1 0v-3c0-.28.22-.5.5-.5zM5.5 1c.28 0 .5.22.5.5v3a.5.5 0 01-1 0v-3c0-.28.22-.5.5-.5zM2 6.5c0-.28.2-.5.44-.5h11.12c.24 0 .44.22.44.5s-.2.5-.44.5H2.44C2.2 7 2 6.78 2 6.5z" fill="#8B8E93"/></svg>