<svg width="16" height="16" fill="none" xmlns="http://www.w3.org/2000/svg"><path d="M2 2.8A1.8 1.8 0 0 1 3.8 1h1.6c.8 0 .8 1 0 1H3.8a.8.8 0 0 0-.8.8v10.4a.8.8 0 0 0 .8.8h8.4a.8.8 0 0 0 .8-.8v-2.7a.5.5 0 0 1 1 0v2.7a1.8 1.8 0 0 1-1.8 1.8H3.8A1.8 1.8 0 0 1 2 13.2V2.8Z" fill="#757575"/><path d="M5 3.6h1.6l.6.1.6.2.3.4.1.7v.6l-.4.5-.5.2a3 3 0 0 1-.7 0H6v1.8H5V3.6Zm1 2h.6l.2-.1H7l.2-.2v-.6L7 4.6l-.3-.1H6v1ZM8.7 3.6h1.2c.4 0 .7 0 1 .2.3 0 .6.2.8.4.3.1.4.4.6.6l.2 1c0 .4 0 .7-.2 1a2 2 0 0 1-.5.7L11 8a3 3 0 0 1-1 .2H8.7V3.6Zm1 3.6h.2l.6-.1.5-.2.4-.4v-.7a1.2 1.2 0 0 0-.3-1l-.5-.2a2 2 0 0 0-.6 0h-.4v2.6ZM13 3.6h3v1h-2v.8h1.8v1H14V8h-1V3.6Z" fill="#757575"/></svg>