<svg width="16" height="16" fill="none" xmlns="http://www.w3.org/2000/svg"><g clip-path="url(#a)" fill="#8B8E93"><path fill-rule="evenodd" clip-rule="evenodd" d="M.93 10.92c.6-.59 1.4-.92 2.24-.92h5.66A3.17 3.17 0 0 1 12 13.16v1.34a.5.5 0 1 1-1 0v-1.34A2.17 2.17 0 0 0 8.83 11H3.17A2.17 2.17 0 0 0 1 13.16v1.34a.5.5 0 1 1-1 0v-1.34c0-.84.33-1.64.93-2.24ZM6 2.94a2.05 2.05 0 1 0 0 4.1 2.05 2.05 0 0 0 0-4.1ZM3 5a3 3 0 1 1 6 0 3 3 0 0 1-6 0ZM13.02 10.46a.5.5 0 0 1 .6-.36A3.17 3.17 0 0 1 16 13.16v1.34a.5.5 0 1 1-1 0v-1.34a2.17 2.17 0 0 0-1.63-2.1.5.5 0 0 1-.35-.6ZM10.02 2.36a.5.5 0 0 1 .6-.35c.68.17 1.29.56 1.72 1.1a3.03 3.03 0 0 1 0 3.78c-.43.54-1.04.92-1.72 1.1a.5.5 0 0 1-.6-.36.49.49 0 0 1 .36-.6c.46-.1.87-.37 1.17-.74a2.07 2.07 0 0 0 0-2.59c-.3-.37-.7-.63-1.17-.75a.49.49 0 0 1-.36-.59Z"/><path d="M.43 14H11.5v1H.43v-1Z"/></g><defs><clipPath id="a"><path fill="#fff" transform="translate(0 1)" d="M0 0h16v16H0z"/></clipPath></defs></svg>