<?xml version="1.0" encoding="utf-8"?>
<!-- Generator: Adobe Illustrator 22.0.0, SVG Export Plug-In . SVG Version: 6.00 Build 0)  -->
<svg version="1.1" id="图层_1" xmlns="http://www.w3.org/2000/svg" xmlns:xlink="http://www.w3.org/1999/xlink" x="0px" y="0px"
	 viewBox="0 0 200.4 200" style="enable-background:new 0 0 200.4 200;" xml:space="preserve">
<style type="text/css">
	.st0{fill:#DC4B39;}
	.st1{fill:#FFFFFF;}
</style>
<path class="st0" d="M165.4,200.4H35c-19.3,0-35-15.8-35-35V35C0,15.8,15.8,0,35,0h130.4c19.3,0,35,15.8,35,35v130.4
	C200.4,184.6,184.6,200.4,165.4,200.4z"/>
<path class="st1" d="M125,63.4c4.7,0.7,9.5-0.2,13.3,0.5c6.2,1.1,9.3,6.3,8.6,14h-7.5c-0.2,13.7-0.1,27.2-0.1,41
	c0,6.9,0.6,14.2-0.1,20.4c-0.6,5.9-5,9.4-10.2,10.3c-5.2,0.9-12.1,0.2-17.8,0.2c-12,0-24.2,0.2-35.9,0c-5.7-0.1-10-1.9-12.5-5.4
	c-2.6-3.5-2.3-8.7-2.3-14.9V77.8h-7.1c-1.2-7.1,1.9-12.2,7.1-13.9c3.8-1.2,8.9-0.2,14.3-0.6c-0.4-7.6,0-13.4,6.5-14.2
	c2.9-0.4,6.9,0,10.4,0h20.9c4,0,8.1-0.4,10.1,1.4C125.6,53,124.9,58.6,125,63.4z M81.9,56.7v6.9h35.9v-7.2H82.1
	C81.9,56.4,81.9,56.6,81.9,56.7z M74.9,78.6v43.7c0,3.7-0.9,11.7,1.4,13.3c0.9,0.6,3.2,0.7,4.2,0c2.3-1.6,1.5-9.3,1.5-13.2V78.3h-7
	C74.9,78.3,74.9,78.5,74.9,78.6z M96.3,78.6V121c0,3.3-0.8,11.3,0.6,13.5c0.9,1.5,3.9,2.2,5.4,1c2-1.6,1.1-10,1.1-13.4V78.3h-7
	C96.3,78.3,96.3,78.5,96.3,78.6z M117.9,78.6v44.3c0,4.5-0.9,11.5,2.1,12.7c1.3,0.5,3.6,0.1,4.1-0.3c1.9-1.6,1-10.1,1-13.4V78.3H118
	C117.8,78.3,117.9,78.5,117.9,78.6z"/>
</svg>
