<?xml version="1.0" encoding="utf-8"?>
<!-- Generator: Adobe Illustrator 22.0.0, SVG Export Plug-In . SVG Version: 6.00 Build 0)  -->
<svg version="1.1" id="图层_1" xmlns="http://www.w3.org/2000/svg" xmlns:xlink="http://www.w3.org/1999/xlink" x="0px" y="0px"
	 viewBox="0 0 200.4 200" style="enable-background:new 0 0 200.4 200;" xml:space="preserve">
<style type="text/css">
	.st0{fill:#3EB0AC;}
	.st1{fill:#FFFFFF;}
</style>
<path class="st0" d="M165.4,200.4H35c-19.3,0-35-15.8-35-35V35C0,15.8,15.8,0,35,0h130.4c19.3,0,35,15.8,35,35v130.4
	C200.4,184.6,184.6,200.4,165.4,200.4z"/>
<path class="st1" d="M53.4,154.2h92.9c4.2,0,7.7-3.5,7.7-7.7c0-4.2-3.5-7.7-7.7-7.7H53.4c-4.2,0-7.7,3.5-7.7,7.7
	C45.7,150.8,49.2,154.2,53.4,154.2z M136,79.8h-16.8V48.5c0-4-3.3-7.3-7.3-7.3H87.7c-4,0-7.3,3.3-7.3,7.3v31.4H63.6
	c-3.2,0-4.9,3.8-2.7,6.2l36.2,39.1c1.5,1.6,4,1.6,5.5,0l36.2-39.1C140.9,83.7,139.2,79.8,136,79.8z"/>
</svg>
