<?xml version="1.0" standalone="no"?><!DOCTYPE svg PUBLIC "-//W3C//DTD SVG 1.1//EN" "http://www.w3.org/Graphics/SVG/1.1/DTD/svg11.dtd"><svg t="1630143045309" class="icon" viewBox="0 0 1024 1024" version="1.1" xmlns="http://www.w3.org/2000/svg" p-id="3056" width="20" height="20" xmlns:xlink="http://www.w3.org/1999/xlink"><defs><style type="text/css"></style></defs><path d="M885.333333 544A32 32 0 0 1 917.333333 576v202.666667h-0.426666A128 128 0 0 1 768 915.562667v1.792H256v-1.578667A128 128 0 0 1 107.093333 800L106.666667 800V597.333333a32 32 0 0 1 64 0v192.810667a64 64 0 0 0 64 63.36h21.312L256 853.333333h512l-0.021333 0.170667h21.546666L789.504 853.333333l3.584-0.106666A64 64 0 0 0 853.333333 789.504h0.192l-0.021333-10.837333H853.333333V576a32 32 0 0 1 32-32z" p-id="3057" fill="#00cc9d"></path><path d="M248.021333 396.714667l241.344 241.344a32 32 0 0 0 45.269334 0l241.344-241.344a32 32 0 0 0-45.248-45.269334l-186.112 186.069334V138.026667a32 32 0 0 0-64 0v400.768l-187.349334-187.349334a32 32 0 1 0-45.248 45.269334z" p-id="3058" fill="#00cc9d"></path></svg>