<?xml version="1.0" standalone="no"?><!DOCTYPE svg PUBLIC "-//W3C//DTD SVG 1.1//EN" "http://www.w3.org/Graphics/SVG/1.1/DTD/svg11.dtd"><svg t="1652939295364" class="icon" viewBox="0 0 1024 1024" version="1.1" xmlns="http://www.w3.org/2000/svg" p-id="16645" xmlns:xlink="http://www.w3.org/1999/xlink" width="20" height="20"><defs><style type="text/css">@font-face { font-family: feedback-iconfont;  }
</style></defs><path d="M246.1 413L512 577.1 327.9 730.5 64.2 558.8 246.1 413z m530.7 298.7v58.1L513.1 927.5v0.6l-0.5-0.6-0.6 0.6v-0.6L248.8 769.8v-58.1l79.1 51.7L512 610.5v-1.1l0.6 0.6 0.5-0.6v1.1l184.6 152.9 79.1-51.7zM327.9 95.9L512 249.3 246.1 413 64.2 267.6 327.9 95.9z m450 317.1l181.9 145.9-263.2 171.6L512 577.1 777.9 413zM696.6 95.9l263.2 171.7L777.9 413 512 249.3 696.6 95.9z m0 0" fill="#1296db" p-id="16646"></path></svg>