<?xml version="1.0" encoding="utf-8"?>
<!-- Generator: Adobe Illustrator 22.0.0, SVG Export Plug-In . SVG Version: 6.00 Build 0)  -->
<svg version="1.1" id="图层_1" xmlns="http://www.w3.org/2000/svg" xmlns:xlink="http://www.w3.org/1999/xlink" x="0px" y="0px"
	 viewBox="0 0 200.4 200" style="enable-background:new 0 0 200.4 200;" xml:space="preserve">
<style type="text/css">
	.st0{fill:#FF8345;}
	.st1{fill:#FFFFFF;}
</style>
<path class="st0" d="M165.4,200.4H35c-19.3,0-35-15.8-35-35V35C0,15.8,15.8,0,35,0h130.4c19.3,0,35,15.8,35,35v130.4
	C200.4,184.6,184.6,200.4,165.4,200.4z"/>
<path class="st1" d="M68.7,130.6c2.2,0,4.3-0.7,6.5-2.2h0.7l-20.1-20.1v0.7c-1.4,2.2-2.2,4.3-2.2,6.5l-7.2,22.3L68.7,130.6
	L68.7,130.6z M140.6,50.1l-6.5-6.5c-3.5-3.6-9.3-3.6-12.9-0.1c0,0,0,0-0.1,0.1l-6.5,6.5l19.4,19.4l6.5-6.5
	C144.2,59.5,144.2,53.7,140.6,50.1C140.6,50.1,140.6,50.1,140.6,50.1L140.6,50.1z M127.7,76l-19.4-19.4L63,101.8l19.4,19.4L127.7,76
	L127.7,76z M40.7,144.3h115v7.2h-115V144.3z"/>
</svg>
