<?xml version="1.0" encoding="utf-8"?>
<!-- Generator: Adobe Illustrator 22.0.0, SVG Export Plug-In . SVG Version: 6.00 Build 0)  -->
<svg version="1.1" id="图层_1" xmlns="http://www.w3.org/2000/svg" xmlns:xlink="http://www.w3.org/1999/xlink" x="0px" y="0px"
	 viewBox="0 0 200 200" style="enable-background:new 0 0 200 200;" xml:space="preserve">
<style type="text/css">
	.st0{fill:#64A73E;}
	.st1{fill:#376C1D;}
	.st2{fill:#FFFFFF;}
	.st3{fill:#F4B200;}
</style>
<path class="st0" d="M188.8,55.3l-0.3,122.6c0,12.2-10,22.2-22.2,22.1l-133.1-0.3c-12.2,0-22.2-10-22.1-22.2l0.3-155.5
	c0-12.2,10-22.2,22.2-22.1l100.3,0.3L188.8,55.3L188.8,55.3z"/>
<path class="st1" d="M134,44l0.1-43.9l54.8,54.9l-44,0C138.8,55.2,134,50.2,134,44"/>
<g>
	<path class="st2" d="M50.4,65.7V24.4H81v7H58.7v9.1h20.7v7H58.7v11.3h23.1v7H50.4z"/>
</g>
<path class="st2" d="M126.9,169.1h-7c-1.9,0-3.5-1.6-3.5-3.5s1.6-3.5,3.5-3.5h7c9.6,0,17.5-7.9,17.5-17.5c0-8.4-6.3-15.9-14.7-17.3
	c-1.6-0.2-2.8-1.6-3-3.2c-1.4-14.2-13.5-25-27.8-25S72.5,110,71.1,124.3c-0.2,1.6-1.4,2.8-3,3.2c-8.4,1.2-14.7,8.8-14.7,17.2
	c0,9.6,7.9,17.5,17.5,17.5h7c1.9,0,3.5,1.6,3.5,3.5s-1.6,3.5-3.5,3.5h-7c-13.5,0-24.5-11-24.5-24.5c0-11,7.5-20.7,18-23.6
	c3-16.6,17.3-28.9,34.5-28.9s31.5,12.3,34.5,28.9c10.5,3,18,12.6,18,23.6C151.4,158.1,140.4,169.1,126.9,169.1z"/>
<path class="st3" d="M115.8,145c-0.9,0-1.8-0.4-2.5-1.1l-15.1-15.1L83.3,144c-1.4,1.4-3.5,1.4-4.9,0s-1.4-3.5,0-4.9l17.5-17.5
	c1.4-1.4,3.5-1.4,4.9,0l17.5,17.5c1.4,1.4,1.4,3.5,0,4.9C117.6,144.7,116.7,145,115.8,145z"/>
<path class="st3" d="M98.3,180c-1.9,0-3.5-1.6-3.5-3.5v-50.8c0-1.9,1.6-3.5,3.5-3.5c1.9,0,3.5,1.6,3.5,3.5v50.8
	C101.8,178.5,100.3,180,98.3,180z"/>
</svg>
