<?xml version="1.0" encoding="utf-8"?>
<!-- Generator: Adobe Illustrator 22.0.0, SVG Export Plug-In . SVG Version: 6.00 Build 0)  -->
<svg version="1.1" id="图层_1" xmlns="http://www.w3.org/2000/svg" xmlns:xlink="http://www.w3.org/1999/xlink" x="0px" y="0px"
	 viewBox="0 0 200 200" style="enable-background:new 0 0 200 200;" xml:space="preserve">
<style type="text/css">
	.st0{fill:#DDF4D7;}
	.st1{fill:#64A73E;}
	.st2{fill:#376C1D;}
	.st3{fill:#FFFFFF;}
	.st4{fill:url(#SVGID_1_);}
	.st5{fill:url(#SVGID_2_);}
	.st6{fill:url(#SVGID_3_);}
	.st7{fill:url(#SVGID_4_);}
	.st8{fill:url(#SVGID_5_);}
	.st9{fill:url(#SVGID_6_);}
	.st10{fill:url(#SVGID_7_);}
	.st11{fill:url(#SVGID_8_);}
	.st12{fill:url(#SVGID_9_);}
	.st13{fill:url(#SVGID_10_);}
	.st14{fill:url(#SVGID_11_);}
	.st15{fill:url(#SVGID_12_);}
	.st16{fill:url(#SVGID_13_);}
	.st17{fill:url(#SVGID_14_);}
</style>
<circle class="st0" cx="99" cy="99.9" r="98"/>
<path class="st1" d="M169.2,65.1l-0.2,95.5c0,9.5-7.8,17.3-17.3,17.2l-103.7-0.2c-9.5,0-17.3-7.8-17.2-17.3L31,39.2
	c0-9.5,7.8-17.3,17.3-17.2l78.1,0.2L169.2,65.1L169.2,65.1z"/>
<path class="st2" d="M126.5,56.3l0.1-34.2l42.7,42.8L135,64.9C130.3,65,126.5,61.1,126.5,56.3"/>
<g>
	<path class="st3" d="M91.4,155.9v-26.7h19.8v4.5H96.8v5.9h13.4v4.5H96.8v7.3h14.9v4.5H91.4z"/>
</g>
<g>
	
		<linearGradient id="SVGID_1_" gradientUnits="userSpaceOnUse" x1="-105.1742" y1="308.1408" x2="35.9294" y2="358.3321" gradientTransform="matrix(0.921 0.3896 0.3896 -0.921 29.9804 377.8687)">
		<stop  offset="0" style="stop-color:#D9FE64"/>
		<stop  offset="1" style="stop-color:#64A73E"/>
	</linearGradient>
	<path class="st4" d="M98.6,65.4c2.3,0,4-1.6,4-3.5V45c0-1.9-1.9-3.5-4-3.5L23,41.6c-2.3,0-4,1.6-4,3.5v17c0,1.9,1.9,3.5,4,3.5
		L98.6,65.4z"/>
	
		<linearGradient id="SVGID_2_" gradientUnits="userSpaceOnUse" x1="-96.7713" y1="284.5177" x2="44.3322" y2="334.7089" gradientTransform="matrix(0.921 0.3896 0.3896 -0.921 29.9804 377.8687)">
		<stop  offset="0" style="stop-color:#D9FE64"/>
		<stop  offset="1" style="stop-color:#64A73E"/>
	</linearGradient>
	<path class="st5" d="M69.2,68.1H52.5c-2.3,0-4,1.6-4,3.5v14.2c0,1.9,1.9,3.5,4,3.5h16.7c2.3,0,4-1.6,4-3.5V71.6
		C73.1,69.7,71.3,68.1,69.2,68.1z"/>
	
		<linearGradient id="SVGID_3_" gradientUnits="userSpaceOnUse" x1="-97.3402" y1="286.1173" x2="43.7633" y2="336.3085" gradientTransform="matrix(0.921 0.3896 0.3896 -0.921 29.9804 377.8687)">
		<stop  offset="0" style="stop-color:#D9FE64"/>
		<stop  offset="1" style="stop-color:#64A73E"/>
	</linearGradient>
	<path class="st6" d="M98.3,68.1H81.6c-2.3,0-4,1.6-4,3.5v14.2c0,1.9,1.9,3.5,4,3.5h16.7c2.3,0,4-1.6,4-3.5l0.1-14.2
		C102.5,69.7,100.6,68.2,98.3,68.1z"/>
	
		<linearGradient id="SVGID_4_" gradientUnits="userSpaceOnUse" x1="-96.1512" y1="282.7743" x2="44.9524" y2="332.9655" gradientTransform="matrix(0.921 0.3896 0.3896 -0.921 29.9804 377.8687)">
		<stop  offset="0" style="stop-color:#D9FE64"/>
		<stop  offset="1" style="stop-color:#64A73E"/>
	</linearGradient>
	<path class="st7" d="M39.8,89.3c2.3,0,4-1.6,4-3.5V71.7c0-1.9-1.9-3.5-4-3.5H23.1c-2.3,0-4,1.6-4,3.5v14.2c0,1.9,1.9,3.5,4,3.5
		H39.8z"/>
	
		<linearGradient id="SVGID_5_" gradientUnits="userSpaceOnUse" x1="-88.2387" y1="260.5299" x2="52.8649" y2="310.721" gradientTransform="matrix(0.921 0.3896 0.3896 -0.921 29.9804 377.8687)">
		<stop  offset="0" style="stop-color:#D9FE64"/>
		<stop  offset="1" style="stop-color:#64A73E"/>
	</linearGradient>
	<path class="st8" d="M43.8,95.4c0-1.9-1.9-3.5-4-3.5H23.1c-2.3,0-4,1.6-4,3.5v14.2c0,1.9,1.9,3.5,4,3.5h16.7c2.3,0,4-1.6,4-3.5
		V95.4z"/>
	
		<linearGradient id="SVGID_6_" gradientUnits="userSpaceOnUse" x1="-89.3869" y1="263.758" x2="51.7166" y2="313.9493" gradientTransform="matrix(0.921 0.3896 0.3896 -0.921 29.9804 377.8687)">
		<stop  offset="0" style="stop-color:#D9FE64"/>
		<stop  offset="1" style="stop-color:#64A73E"/>
	</linearGradient>
	<path class="st9" d="M102.5,109.5V95.4c0-1.9-1.9-3.5-4-3.5H81.7c-2.3,0-4,1.6-4,3.5v14.2c0,1.9,1.9,3.5,4,3.5h16.7
		C100.7,113,102.5,111.4,102.5,109.5z"/>
	
		<linearGradient id="SVGID_7_" gradientUnits="userSpaceOnUse" x1="-88.8141" y1="262.1476" x2="52.2894" y2="312.3389" gradientTransform="matrix(0.921 0.3896 0.3896 -0.921 29.9804 377.8687)">
		<stop  offset="0" style="stop-color:#D9FE64"/>
		<stop  offset="1" style="stop-color:#64A73E"/>
	</linearGradient>
	<path class="st10" d="M73.2,95.4c0-1.9-1.9-3.5-4-3.5H52.5c-2.3,0-4,1.6-4,3.5v14.2c0,1.9,1.9,3.5,4,3.5h16.7c2.3,0,4-1.6,4-3.5
		V95.4z"/>
	
		<linearGradient id="SVGID_8_" gradientUnits="userSpaceOnUse" x1="-140.0385" y1="310.6921" x2="-37.5669" y2="310.6921" gradientTransform="matrix(0.921 0.3896 0.3896 -0.921 29.9804 377.8687)">
		<stop  offset="0" style="stop-color:#D9FE64"/>
		<stop  offset="1" style="stop-color:#64A73E"/>
	</linearGradient>
	<path class="st11" d="M98.6,65.4c2.3,0,4-1.6,4-3.5V45c0-1.9-1.9-3.5-4-3.5L23,41.6c-2.3,0-4,1.6-4,3.5v17c0,1.9,1.9,3.5,4,3.5
		L98.6,65.4z"/>
	
		<linearGradient id="SVGID_9_" gradientUnits="userSpaceOnUse" x1="-140.0427" y1="287.5788" x2="-37.5713" y2="287.5788" gradientTransform="matrix(0.921 0.3896 0.3896 -0.921 29.9804 377.8687)">
		<stop  offset="0" style="stop-color:#D9FE64"/>
		<stop  offset="1" style="stop-color:#64A73E"/>
	</linearGradient>
	<path class="st12" d="M69.2,68.1H52.5c-2.3,0-4,1.6-4,3.5v14.2c0,1.9,1.9,3.5,4,3.5h16.7c2.3,0,4-1.6,4-3.5V71.6
		C73.1,69.7,71.3,68.1,69.2,68.1z"/>
	
		<linearGradient id="SVGID_10_" gradientUnits="userSpaceOnUse" x1="-140.0427" y1="298.9209" x2="-37.5713" y2="298.9209" gradientTransform="matrix(0.921 0.3896 0.3896 -0.921 29.9804 377.8687)">
		<stop  offset="0" style="stop-color:#D9FE64"/>
		<stop  offset="1" style="stop-color:#64A73E"/>
	</linearGradient>
	<path class="st13" d="M98.3,68.1H81.6c-2.3,0-4,1.6-4,3.5v14.2c0,1.9,1.9,3.5,4,3.5h16.7c2.3,0,4-1.6,4-3.5l0.1-14.2
		C102.5,69.7,100.6,68.2,98.3,68.1z"/>
	
		<linearGradient id="SVGID_11_" gradientUnits="userSpaceOnUse" x1="-140.0427" y1="276.0077" x2="-37.5713" y2="276.0077" gradientTransform="matrix(0.921 0.3896 0.3896 -0.921 29.9804 377.8687)">
		<stop  offset="0" style="stop-color:#D9FE64"/>
		<stop  offset="1" style="stop-color:#64A73E"/>
	</linearGradient>
	<path class="st14" d="M39.8,89.3c2.3,0,4-1.6,4-3.5V71.7c0-1.9-1.9-3.5-4-3.5H23.1c-2.3,0-4,1.6-4,3.5v14.2c0,1.9,1.9,3.5,4,3.5
		H39.8z"/>
	
		<linearGradient id="SVGID_12_" gradientUnits="userSpaceOnUse" x1="-140.0427" y1="254.2262" x2="-37.5713" y2="254.2262" gradientTransform="matrix(0.921 0.3896 0.3896 -0.921 29.9804 377.8687)">
		<stop  offset="0" style="stop-color:#D9FE64"/>
		<stop  offset="1" style="stop-color:#64A73E"/>
	</linearGradient>
	<path class="st15" d="M43.8,95.4c0-1.9-1.9-3.5-4-3.5H23.1c-2.3,0-4,1.6-4,3.5v14.2c0,1.9,1.9,3.5,4,3.5h16.7c2.3,0,4-1.6,4-3.5
		V95.4z"/>
	
		<linearGradient id="SVGID_13_" gradientUnits="userSpaceOnUse" x1="-140.0427" y1="277.0789" x2="-37.5713" y2="277.0789" gradientTransform="matrix(0.921 0.3896 0.3896 -0.921 29.9804 377.8687)">
		<stop  offset="0" style="stop-color:#D9FE64"/>
		<stop  offset="1" style="stop-color:#64A73E"/>
	</linearGradient>
	<path class="st16" d="M102.5,109.5V95.4c0-1.9-1.9-3.5-4-3.5H81.7c-2.3,0-4,1.6-4,3.5v14.2c0,1.9,1.9,3.5,4,3.5h16.7
		C100.7,113,102.5,111.4,102.5,109.5z"/>
	
		<linearGradient id="SVGID_14_" gradientUnits="userSpaceOnUse" x1="-140.0427" y1="265.6786" x2="-37.5713" y2="265.6786" gradientTransform="matrix(0.921 0.3896 0.3896 -0.921 29.9804 377.8687)">
		<stop  offset="0" style="stop-color:#D9FE64"/>
		<stop  offset="1" style="stop-color:#64A73E"/>
	</linearGradient>
	<path class="st17" d="M73.2,95.4c0-1.9-1.9-3.5-4-3.5H52.5c-2.3,0-4,1.6-4,3.5v14.2c0,1.9,1.9,3.5,4,3.5h16.7c2.3,0,4-1.6,4-3.5
		V95.4z"/>
</g>
</svg>
