<?xml version="1.0" standalone="no"?><!DOCTYPE svg PUBLIC "-//W3C//DTD SVG 1.1//EN" "http://www.w3.org/Graphics/SVG/1.1/DTD/svg11.dtd"><svg t="1628842155201" class="icon" viewBox="0 0 1024 1024" version="1.1" xmlns="http://www.w3.org/2000/svg" p-id="7645" xmlns:xlink="http://www.w3.org/1999/xlink" width="30" height="30"><defs><style type="text/css"></style></defs><path d="M923.87342113 855.59537458h-808.38747754l-30.69826056-30.69826078v-624.19792253l30.69826056-30.69826045h808.38747754l30.69825206 30.69826045v624.19792253l-30.69825206 30.69826078z m-777.68921703-61.39651281h746.99095637v-562.80140982h-746.99095637v562.80140982z" fill="#1296db" p-id="7646"></path><path d="M448.45971835 670.29045691l151.16846427-211.01983088a20.48596716 20.48596716 0 0 1 33.27691145 0l177.03685509 247.110745a10.23275353 10.23275353 0 0 1-8.30900002 16.19844626h-564.65352728a10.23275353 10.23275353 0 0 1-8.50342291-15.9323953l105.1517681-157.03182204a20.46550701 20.46550701 0 0 1 34.00343606 0l80.82851524 120.67485696z" fill="#1296db" p-id="7647"></path><path d="M299.67549844 384.87850772m-61.39652119 0a61.39652107 61.39652107 0 1 0 122.79303397 0 61.39652107 61.39652107 0 1 0-122.79303397 0Z" fill="#1296db" p-id="7648"></path></svg>