<?xml version="1.0" encoding="utf-8"?>
<!-- Generator: Adobe Illustrator 22.0.0, SVG Export Plug-In . SVG Version: 6.00 Build 0)  -->
<svg version="1.1" xmlns="http://www.w3.org/2000/svg" xmlns:xlink="http://www.w3.org/1999/xlink" x="0px" y="0px"
	 viewBox="0 0 200 200" style="enable-background:new 0 0 200 200;" xml:space="preserve" fill="#fff">
<path d="M166.7,31.8c0-12.8-9.2-22-20.8-22H30.7c-11,0-24.4,8.5-24.4,21.1V146c0,11.6,10.1,21.4,22.9,21.4v-8.5
	c-8.6,0-13.4-6.1-13.4-12.8V30.9c0-7,8.2-12.2,15.3-12.2h115.1c7,0,12.2,4.6,12.2,13.1H54.6c-11.6,0-21.4,9.5-21.4,21.4v115.1
	c0,11.6,9.5,21.7,21.4,21.7h115.1c11.6,0,22.3-9.5,22.3-21.4V53.5c0-11.6-10.7-21.7-22.3-21.7L166.7,31.8L166.7,31.8z M91.5,159.7
	H49.1v-9.5h42.5V159.7z M122.1,129.2h-73v-9.5h73V129.2z M152.6,98.7H49.1v-9.5h103.5V98.7z M177,68.2H48.8v-9.5H177V68.2z"/>
</svg>
