<?xml version="1.0" standalone="no"?><!DOCTYPE svg PUBLIC "-//W3C//DTD SVG 1.1//EN" "http://www.w3.org/Graphics/SVG/1.1/DTD/svg11.dtd"><svg t="1630292326562" class="icon" viewBox="0 0 1024 1024" version="1.1" xmlns="http://www.w3.org/2000/svg" p-id="14042" xmlns:xlink="http://www.w3.org/1999/xlink" width="200" height="200"><defs><style type="text/css"></style></defs><path d="M473.472 201.92c13.888 13.952 14.08 36.416 0.384 50.56l-0.384 0.384L250.24 475.968h609.728a35.968 35.968 0 1 1 0 72H250.944l222.464 222.464c13.888 13.952 14.08 36.416 0.384 50.56l-0.384 0.384a36.032 36.032 0 0 1-50.56 0.384L139.392 538.24a36.224 36.224 0 0 1-4.864-5.632l3.84 4.48a35.648 35.648 0 0 1-0.384-50.432l284.608-284.736c14.08-14.08 36.864-14.08 50.944 0h-0.064z" fill="#05aa84" p-id="14043"></path></svg>