<?xml version="1.0" standalone="no"?><!DOCTYPE svg PUBLIC "-//W3C//DTD SVG 1.1//EN" "http://www.w3.org/Graphics/SVG/1.1/DTD/svg11.dtd"><svg t="1628912213482" class="icon" viewBox="0 0 1024 1024" version="1.1" xmlns="http://www.w3.org/2000/svg" p-id="5261" xmlns:xlink="http://www.w3.org/1999/xlink" width="30" height="30"><defs><style type="text/css">.icon {transform: scale(0.8);}</style></defs><path d="M192 0h448.1536L960 320v576c0 70.6944-57.3056 128-128 128H192C121.3056 1024 64 966.6944 64 896V128C64 57.3056 121.3056 0 192 0z" fill="#E9494A" p-id="5262"></path><path d="M323.1104 647.8592v72.1408h-42.1888V515.2512h79.872c12.096 0 22.912 1.6896 32.4224 5.056 9.5104 3.3792 17.5744 8.0896 24.192 14.144 6.6048 6.0416 11.648 13.2096 15.104 21.504 3.4688 8.3072 5.2096 17.3312 5.2096 27.072 0 9.9456-1.7408 18.8928-5.2096 26.8672a55.552 55.552 0 0 1-15.104 20.3904c-6.6176 5.632-14.6816 9.9584-24.192 13.0048-9.5232 3.0464-20.3264 4.5696-32.4224 4.5696h-37.6832z m0-34.176h37.6832c6.0032 0 11.1872-0.7424 15.5392-2.24 4.352-1.5104 7.936-3.584 10.688-6.272 2.7648-2.6624 4.8128-5.8752 6.1184-9.6256 1.3184-3.7504 1.9712-7.8208 1.9712-12.2368 0-4.4032-0.6528-8.64-1.9712-12.7232a30.1824 30.1824 0 0 0-6.1184-10.8288 29.504 29.504 0 0 0-10.688-7.5264c-4.352-1.8688-9.536-2.816-15.5392-2.816h-37.6832v64.2688zM466.688 720V515.2512h63.0016c13.7856 0 26.4064 2.368 37.888 7.104 11.4944 4.736 21.3376 11.392 29.5424 19.968a91.264 91.264 0 0 1 19.2 30.8608c4.5824 12.0064 6.8864 25.3184 6.8864 39.936v9.28c0 14.6304-2.2784 27.9168-6.8224 39.872a89.4208 89.4208 0 0 1-19.264 30.7968 85.76 85.76 0 0 1-29.7472 19.904c-11.52 4.6848-24.2304 7.0272-38.1056 7.0272H466.688z m42.1888-170.5728v136.6784h20.3904c16.6912 0 29.3888-5.504 38.1056-16.512 8.7168-11.0208 13.0816-26.752 13.0816-47.1936v-9.5616c0-20.8128-4.3136-36.5824-12.928-47.3088-8.64-10.752-21.248-16.1024-37.8368-16.1024h-20.8128z m268.16 86.912H696.064v83.6608h-42.1888V515.2512h133.312v34.176h-91.136v52.864h81.0112v34.048z" fill="#FFFFFF" opacity=".9" p-id="5263"></path><path d="M640 0l320 320H768c-70.6944 0-128-57.3056-128-128V0z" fill="#FF7171" p-id="5264"></path></svg>