<?xml version="1.0" encoding="utf-8"?>
<!-- Generator: Adobe Illustrator 22.0.0, SVG Export Plug-In . SVG Version: 6.00 Build 0)  -->
<svg version="1.1" id="图层_1" xmlns="http://www.w3.org/2000/svg" xmlns:xlink="http://www.w3.org/1999/xlink" x="0px" y="0px"
	 viewBox="0 0 200 200" style="enable-background:new 0 0 200 200;" xml:space="preserve">
<style type="text/css">
	.st0{fill:#E36A5F;}
	.st1{fill:#AF5149;}
	.st2{fill:#FFFFFF;}
	.st3{fill:#F4B200;}
</style>
<path class="st0" d="M188.8,55.3l-0.3,122.6c0,12.2-10,22.2-22.2,22.1l-133.1-0.3c-12.2,0-22.2-10-22.1-22.2l0.3-155.5
	c0-12.2,10-22.2,22.2-22.1l100.3,0.3L188.8,55.3L188.8,55.3z"/>
<path class="st1" d="M134,44l0.1-43.9l54.8,54.9l-44,0C138.8,55.2,134,50.2,134,44"/>
<g>
	<path class="st2" d="M31.6,65.7V31.5h11.2c4.2,0,6.9,0.1,8.2,0.5c1.9,0.5,3.6,1.7,4.9,3.3c1.3,1.7,2.1,4,2.1,6.7
		c0,2.1-0.4,3.9-1.2,5.3s-1.8,2.6-3,3.3c-1.2,0.8-2.4,1.4-3.6,1.7c-1.7,0.4-4.1,0.5-7.2,0.5h-4.5v13L31.6,65.7L31.6,65.7z
		 M38.6,37.2V47h3.9c2.7,0,4.6-0.1,5.5-0.5c0.9-0.4,1.7-0.9,2.2-1.7c0.5-0.8,0.8-1.7,0.8-2.7c0-1.3-0.4-2.3-1.2-3.1
		c-0.8-0.8-1.7-1.3-2.8-1.5c-0.8-0.1-2.4-0.3-5-0.3L38.6,37.2L38.6,37.2z"/>
	<path class="st2" d="M63.6,31.5h12.7c2.8,0,5,0.3,6.5,0.6c2.1,0.6,3.7,1.7,5.1,3.2s2.6,3.3,3.3,5.5c0.8,2.2,1.2,4.9,1.2,8.1
		c0,2.8-0.4,5.3-1,7.3c-0.9,2.4-2.1,4.5-3.7,6c-1.2,1.2-2.8,2.1-4.9,2.7c-1.5,0.5-3.6,0.8-6.2,0.8H63.6V31.5z M70.5,37.2V60h5.1
		c1.9,0,3.3-0.1,4.2-0.4c1.2-0.3,2.1-0.8,2.8-1.4c0.8-0.6,1.3-1.8,1.8-3.3c0.5-1.5,0.6-3.6,0.6-6.3c0-2.7-0.3-4.7-0.6-6.2
		C84,41,83.4,39.8,82.6,39c-0.9-0.8-1.9-1.3-3.2-1.7c-1-0.3-2.8-0.4-5.6-0.4h-3.2V37.2z"/>
	<path class="st2" d="M98.3,65.7V31.5h23.5v5.8h-16.6v8.1h14.4v5.8h-14.4v14.6H98.3z"/>
</g>
<path class="st2" d="M128.2,168.9h-7c-1.9,0-3.5-1.6-3.5-3.5c0-1.9,1.6-3.5,3.5-3.5h7c9.6,0,17.5-7.9,17.5-17.5
	c0-8.4-6.3-15.9-14.7-17.3c-1.6-0.2-2.8-1.6-3-3.2c-1.4-14.2-13.5-25-27.8-25s-26.4,10.9-27.8,25.2c-0.2,1.6-1.4,2.8-3,3.2
	c-8.4,1.2-14.7,8.8-14.7,17.2c0,9.6,7.9,17.5,17.5,17.5h7c1.9,0,3.5,1.6,3.5,3.5c0,1.9-1.6,3.5-3.5,3.5h-7
	c-13.5,0-24.5-11-24.5-24.5c0-11,7.5-20.7,18-23.6c3-16.6,17.3-28.9,34.5-28.9s31.5,12.3,34.5,28.9c10.5,3,18,12.6,18,23.6
	C152.7,157.8,141.7,168.9,128.2,168.9z"/>
<path class="st3" d="M117.2,144.8c-0.9,0-1.8-0.4-2.5-1.1l-15.1-15.1l-15.1,15.1c-1.4,1.4-3.5,1.4-4.9,0s-1.4-3.5,0-4.9l17.5-17.5
	c1.4-1.4,3.5-1.4,4.9,0l17.5,17.5c1.4,1.4,1.4,3.5,0,4.9C118.9,144.4,118,144.8,117.2,144.8z"/>
<path class="st3" d="M99.7,179.8c-1.9,0-3.5-1.6-3.5-3.5v-50.8c0-1.9,1.6-3.5,3.5-3.5s3.5,1.6,3.5,3.5v50.8
	C103.2,178.2,101.6,179.8,99.7,179.8z"/>
</svg>
