<?xml version="1.0" encoding="utf-8"?>
<!-- Generator: Adobe Illustrator 22.0.0, SVG Export Plug-In . SVG Version: 6.00 Build 0)  -->
<svg version="1.1" id="图层_1" xmlns="http://www.w3.org/2000/svg" xmlns:xlink="http://www.w3.org/1999/xlink" x="0px" y="0px"
	 viewBox="0 0 200 200" style="enable-background:new 0 0 200 200;" xml:space="preserve">
<style type="text/css">
	.st0{fill:#F2E5D7;}
	.st1{fill:#FE7651;}
	.st2{fill:#BE5C41;}
	.st3{fill:#FFFFFF;}
	.st4{fill:url(#SVGID_1_);}
</style>
<circle class="st0" cx="99" cy="99.9" r="98"/>
<path class="st1" d="M169.2,65.1l-0.2,95.5c0,9.5-7.8,17.3-17.3,17.2L48,177.6c-9.5,0-17.3-7.8-17.2-17.3L31,39.2
	c0-9.5,7.8-17.3,17.3-17.2l78.1,0.2L169.2,65.1L169.2,65.1z"/>
<path class="st2" d="M126.5,56.3l0.1-34.2l42.7,42.8l-34.3,0C130.3,65,126.5,61.1,126.5,56.3"/>
<g>
	<path class="st3" d="M91.4,155.9v-26.7h8.7c3.3,0,5.4,0.1,6.4,0.4c1.5,0.4,2.8,1.3,3.8,2.6s1.6,3.1,1.6,5.2c0,1.6-0.3,3-0.9,4.1
		s-1.4,2-2.3,2.6s-1.9,1.1-2.8,1.3c-1.3,0.3-3.2,0.4-5.6,0.4h-3.5v10.1L91.4,155.9L91.4,155.9z M96.8,133.7v7.6h3
		c2.1,0,3.6-0.1,4.3-0.4c0.7-0.3,1.3-0.7,1.7-1.3c0.4-0.6,0.6-1.3,0.6-2.1c0-1-0.3-1.8-0.9-2.4c-0.6-0.6-1.3-1-2.2-1.2
		c-0.6-0.1-1.9-0.2-3.9-0.2L96.8,133.7L96.8,133.7z"/>
</g>
<linearGradient id="SVGID_1_" gradientUnits="userSpaceOnUse" x1="-84.0442" y1="-23.845" x2="-0.8477" y2="-23.845" gradientTransform="matrix(0.9306 0.3661 -0.3661 0.9306 91.7167 115.4648)">
	<stop  offset="0" style="stop-color:#FFEE74"/>
	<stop  offset="1" style="stop-color:#FE7651"/>
</linearGradient>
<path class="st4" d="M25.9,68.4l9.9-8.9l18.8,11.8c1.1,0.8,2.6,0.6,3.6-0.4L81.6,49l4.6,4.6L90.5,37l-16.4,4.6l3.4,3.3L55.7,65.3
	L37,53.7c-1.1-0.6-2.6-0.6-3.6,0.3L21.8,64.2c-1.1,1.1-1,3,0,4.1C23,69.3,24.6,69.4,25.9,68.4L25.9,68.4z M21.3,114.5l70.2-0.8
	l-0.1-7.3l-70.2,0.8L21.3,114.5z M41.4,67.6l-5.3-3.3L21,77.7l0.3,24.3l20.4-0.1L41.4,67.6L41.4,67.6z M52.1,74.5l-6.3-4l0.3,31.4
	l20.4-0.1l-0.4-33.1l-5.3,4.9c-1.4,1.3-3.1,2-5,1.9C54.8,75.6,53.3,75.2,52.1,74.5z M88.4,61.3l-7-7L70.5,64.4l0.3,37.2l20.4-0.1
	l-0.4-49.6L88.4,61.3z"/>
</svg>
