<?xml version="1.0" encoding="utf-8"?>
<!-- Generator: Adobe Illustrator 22.0.0, SVG Export Plug-In . SVG Version: 6.00 Build 0)  -->
<svg version="1.1" id="图层_1" xmlns="http://www.w3.org/2000/svg" xmlns:xlink="http://www.w3.org/1999/xlink" x="0px" y="0px"
	 viewBox="0 0 200 200" style="enable-background:new 0 0 200 200;" xml:space="preserve">
<style type="text/css">
	.st0{fill:#FE7651;}
	.st1{fill:#BE5C41;}
	.st2{fill:#FFFFFF;}
	.st3{fill:#F4B200;}
</style>
<path class="st0" d="M188.8,55.3l-0.3,122.6c0,12.2-10,22.2-22.2,22.1l-133.1-0.3c-12.2,0-22.2-10-22.1-22.2l0.3-155.5
	c0-12.2,10-22.2,22.2-22.1l100.3,0.3L188.8,55.3L188.8,55.3z"/>
<path class="st1" d="M134,44l0.1-43.9l54.8,54.9h-44C138.8,55.2,134,50.2,134,44"/>
<g>
	<path class="st2" d="M56.8,68.6V27.6h13.3c5.1,0,8.3,0.2,9.8,0.6c2.3,0.6,4.3,2,5.8,4s2.5,4.8,2.5,8c0,2.5-0.5,4.6-1.4,6.3
		s-2.1,3.1-3.5,4c-1.4,0.9-2.9,1.7-4.3,2c-2,0.5-4.9,0.6-8.6,0.6H65v15.5L56.8,68.6L56.8,68.6z M65,34.5v11.7h4.6
		c3.2,0,5.5-0.2,6.6-0.6c1.1-0.5,2-1.1,2.6-2c0.6-0.9,0.9-2,0.9-3.2c0-1.5-0.5-2.8-1.4-3.7c-0.9-0.9-2-1.5-3.4-1.8
		c-0.9-0.2-2.9-0.3-6-0.3L65,34.5L65,34.5z"/>
</g>
<path class="st2" d="M126.3,168.8h-7c-1.9,0-3.5-1.6-3.5-3.5s1.6-3.5,3.5-3.5h7c9.6,0,17.5-7.9,17.5-17.5c0-8.4-6.3-15.9-14.7-17.3
	c-1.6-0.2-2.8-1.6-3-3.2c-1.4-14.2-13.5-25-27.8-25S71.9,109.6,70.5,124c-0.2,1.6-1.4,2.8-3,3.2c-8.4,1.2-14.7,8.8-14.7,17.2
	c0,9.6,7.9,17.5,17.5,17.5h7c1.9,0,3.5,1.6,3.5,3.5s-1.6,3.5-3.5,3.5h-7c-13.5,0-24.5-11-24.5-24.5c0-11,7.5-20.7,18-23.6
	c3-16.6,17.3-28.9,34.5-28.9s31.5,12.3,34.5,28.9c10.5,3,18,12.6,18,23.6C150.8,157.8,139.8,168.8,126.3,168.8z"/>
<path class="st3" d="M115.3,144.7c-0.9,0-1.8-0.4-2.5-1.1l-15.1-15.1l-15.1,15.1c-1.4,1.4-3.5,1.4-4.9,0s-1.4-3.5,0-4.9l17.5-17.5
	c1.4-1.4,3.5-1.4,4.9,0l17.5,17.5c1.4,1.4,1.4,3.5,0,4.9C117,144.3,116.1,144.7,115.3,144.7z"/>
<path class="st3" d="M97.8,179.7c-1.9,0-3.5-1.6-3.5-3.5v-50.8c0-1.9,1.6-3.5,3.5-3.5c1.9,0,3.5,1.6,3.5,3.5v50.8
	C101.3,178.1,99.7,179.7,97.8,179.7z"/>
</svg>
