<?xml version="1.0" standalone="no"?><!DOCTYPE svg PUBLIC "-//W3C//DTD SVG 1.1//EN" "http://www.w3.org/Graphics/SVG/1.1/DTD/svg11.dtd"><svg t="1630143290695" class="icon" viewBox="0 0 1024 1024" version="1.1" xmlns="http://www.w3.org/2000/svg" p-id="4014" xmlns:xlink="http://www.w3.org/1999/xlink" width="20" height="20"><defs><style type="text/css"></style></defs><path d="M764.45 838.057a55.607 55.607 0 0 1-54.836 56.186H314.45a55.607 55.607 0 0 1-54.9-56.186V241.421h504.9v596.636z m-395.164-697.5c0-6.493 4.885-11.571 11.25-11.571H644.17c6.365 0 11.25 5.078 11.25 11.571v33.879H369.286v-33.879z m559.671 33.879H720.8v-33.879C720.8 97.293 686.343 62 644.171 62H380.536c-42.3 0.064-76.565 35.229-76.629 78.557v33.879H95.043A33.429 33.429 0 0 0 62 208.25c0 18.771 14.786 33.879 33.043 33.879h98.421v595.928C193.464 906.521 247.657 962 314.45 962h395.1c66.857 0 120.986-55.479 120.986-123.943V241.421h98.357A33.429 33.429 0 0 0 962 207.543a32.786 32.786 0 0 0-33.043-33.107zM512 792.67a33.429 33.429 0 0 0 33.043-33.878V398.536A33.429 33.429 0 0 0 512 364.657a33.429 33.429 0 0 0-33.043 33.879v360.257c0 18.771 14.786 33.878 33.043 33.878m-153.964 0a33.429 33.429 0 0 0 33.043-33.878V398.536a33.429 33.429 0 0 0-33.043-33.879 33.429 33.429 0 0 0-33.043 33.879v360.257c0.643 18.771 15.428 33.878 33.043 33.878m307.928 0a33.429 33.429 0 0 0 33.107-33.878V398.536a33.429 33.429 0 0 0-33.107-33.879 33.429 33.429 0 0 0-33.043 33.879v360.257c0 18.771 14.786 33.878 33.043 33.878" p-id="4015" fill="#00cc9d"></path></svg>