<?xml version="1.0" encoding="utf-8"?>
<!-- Generator: Adobe Illustrator 22.0.0, SVG Export Plug-In . SVG Version: 6.00 Build 0)  -->
<svg version="1.1" id="图层_1" xmlns="http://www.w3.org/2000/svg" xmlns:xlink="http://www.w3.org/1999/xlink" x="0px" y="0px"
	 viewBox="0 0 200 200" style="enable-background:new 0 0 200 200;" xml:space="preserve">
<style type="text/css">
	.st0{fill:#FFFFFF;}
	.st1{fill:#98ACFF;}
	.st2{fill:url(#SVGID_1_);}
	.st3{fill:url(#SVGID_2_);}
	.st4{fill:#4A69EB;}
</style>
<path class="st0" d="M196.8,55.7L196.6,177c0,12.1-9.9,22-22,21.8L43,198.5c-12.1,0-22-9.9-21.8-22l0.3-153.7c0-12.1,9.9-22,22-21.8
	l99.2,0.3L196.8,55.7L196.8,55.7z"/>
<path class="st1" d="M142.6,44.5l0.1-43.4L197,55.5h-43.5C147.4,55.6,142.6,50.6,142.6,44.5"/>
<linearGradient id="SVGID_1_" gradientUnits="userSpaceOnUse" x1="26.1438" y1="-247.0372" x2="137.6104" y2="-247.0372" gradientTransform="matrix(1 -5.402807e-03 5.402807e-03 1 -19.1115 325.3806)">
	<stop  offset="0" style="stop-color:#BFC7F3"/>
	<stop  offset="1" style="stop-color:#6699F5"/>
	<stop  offset="1" style="stop-color:#000000"/>
</linearGradient>
<polygon class="st2" points="117.2,90.4 5.9,90.8 5.6,65.4 117.1,65 "/>
<linearGradient id="SVGID_2_" gradientUnits="userSpaceOnUse" x1="26.1829" y1="-279.7127" x2="137.6611" y2="-279.7127" gradientTransform="matrix(1 -5.402807e-03 5.402807e-03 1 -19.1115 325.3806)">
	<stop  offset="0" style="stop-color:#15BBFF"/>
	<stop  offset="1" style="stop-color:#6699F5"/>
</linearGradient>
<polygon class="st3" points="117.1,57.8 5.6,58.1 5.5,32.7 117,32.1 "/>
<path class="st4" d="M66.9,114.9h85.7c4.3,0,7.1,2.6,7.1,6.6s-2.9,6.6-7.1,6.6H66.9c-4.3,0-7.1-2.6-7.1-6.6S62.6,114.9,66.9,114.9z"
	/>
<path class="st4" d="M66.9,150.3h85.7c4.3,0,7.1,2.6,7.1,6.6s-2.9,6.6-7.1,6.6H66.9c-4.3,0-7.1-2.6-7.1-6.6S62.6,150.3,66.9,150.3z"
	/>
</svg>
