<?xml version="1.0" encoding="utf-8"?>
<!-- Generator: Adobe Illustrator 22.0.0, SVG Export Plug-In . SVG Version: 6.00 Build 0)  -->
<svg version="1.1" id="图层_1" xmlns="http://www.w3.org/2000/svg" xmlns:xlink="http://www.w3.org/1999/xlink" x="0px" y="0px"
	 viewBox="0 0 200 200" style="enable-background:new 0 0 200 200;" xml:space="preserve">
<style type="text/css">
	.st0{fill:#4A69EB;}
</style>
<path d="M153.3,162.9H140c-3.7,0-6.7-3-6.7-6.7c0-3.7,3-6.7,6.7-6.7h13.3c18.3,0,33.3-15,33.3-33.3c0-16-12-30.3-28-33
	c-3-0.3-5.3-3-5.7-6c-2.7-27-25.7-47.7-53-47.7s-50.3,20.7-53,48c-0.3,3-2.7,5.3-5.7,6c-16,2.3-28,16.7-28,32.7
	c0,18.3,15,33.3,33.3,33.3H60c3.7,0,6.7,3,6.7,6.7c0,3.7-3,6.7-6.7,6.7H46.7C21,162.9,0,141.9,0,116.3c0-21,14.3-39.3,34.3-45
	c5.7-31.7,33-55,65.7-55s60,23.3,65.7,55c20,5.7,34.3,24,34.3,45C200,141.9,179,162.9,153.3,162.9z"/>
<path class="st0" d="M132.3,117.1c-1.7,0-3.3-0.7-4.7-2L98.9,86.4l-28.7,28.7c-2.7,2.7-6.7,2.7-9.3,0s-2.7-6.7,0-9.3l33.3-33.3
	c2.7-2.7,6.7-2.7,9.3,0l33.3,33.3c2.7,2.7,2.7,6.7,0,9.3C135.6,116.4,133.9,117.1,132.3,117.1z"/>
<path class="st0" d="M98.9,183.7c-3.7,0-6.7-3-6.7-6.7V80.4c0-3.7,3-6.7,6.7-6.7c3.7,0,6.7,3,6.7,6.7v96.7
	C105.6,180.7,102.6,183.7,98.9,183.7z"/>
</svg>
