<?xml version="1.0" encoding="utf-8"?>
<!-- Generator: Adobe Illustrator 22.0.0, SVG Export Plug-In . SVG Version: 6.00 Build 0)  -->
<svg version="1.1" id="图层_1" xmlns="http://www.w3.org/2000/svg" xmlns:xlink="http://www.w3.org/1999/xlink" x="0px" y="0px"
	 viewBox="0 0 200 200" style="enable-background:new 0 0 200 200;" xml:space="preserve">
<style type="text/css">
	.st0{fill:#F49000;}
</style>
<path d="M101.8,76.3c2.1,2.1,2.1,5.2,0,7.3c-2.1,2.1-5.2,2.1-7.3,0c-12.5-12.5-10.4-33.9,3.7-48l21.9-21.9c18.3-18.3,48-18.3,66.2,0
	s18.3,48,0,66.2l-21.9,21.9c-13.6,13.6-36.5,15.1-48,3.7c-2.1-2.1-2.1-5.2,0-7.3c2.1-2.1,5.2-2.1,7.3,0c6.8,6.8,23.5,5.7,33.4-3.7
	L179,72.6c14.1-14.1,14.1-37.5,0-51.6s-37.5-14.1-51.6,0l-21.9,21.9C95,53.3,94,68.4,101.8,76.3z M83.6,94.5c2.1,2.1,2.1,5.2,0,7.3
	c-2.1,2.1-5.2,2.1-7.3,0c-7.8-7.8-22.9-6.8-33.4,3.7L21,127.4C6.9,141.5,6.9,164.9,21,179s37.5,14.1,51.6,0l21.9-21.9
	c9.4-9.4,10.4-26.1,3.7-33.4c-2.1-2.1-2.1-5.2,0-7.3c2.1-2.1,5.2-2.1,7.3,0c11.5,11.5,9.9,34.4-3.7,48l-21.9,21.9
	c-18.3,18.3-48,18.3-66.2,0s-18.3-48,0-66.2l21.9-21.9C49.7,84.1,71.1,82.5,83.6,94.5z"/>
<path class="st0" d="M134.4,59.6c2.1-2.1,5.2-2.1,7.3,0s2.1,5.2,0,7.3l-73.5,73.5c-2.1,2.1-5.2,2.1-7.3,0c-2.1-2.1-2.1-5.2,0-7.3
	L134.4,59.6z"/>
</svg>
