<?xml version="1.0" encoding="utf-8"?>
<!-- Generator: Adobe Illustrator 22.0.0, SVG Export Plug-In . SVG Version: 6.00 Build 0)  -->
<svg version="1.1" id="图层_1" xmlns="http://www.w3.org/2000/svg" xmlns:xlink="http://www.w3.org/1999/xlink" x="0px" y="0px"
	 viewBox="0 0 200.4 200" style="enable-background:new 0 0 200.4 200;" xml:space="preserve">
<style type="text/css">
	.st0{fill:#E66272;}
	.st1{fill:#FFFFFF;}
</style>
<path class="st0" d="M165.4,200.4H35c-19.3,0-35-15.8-35-35V35C0,15.8,15.8,0,35,0h130.4c19.3,0,35,15.8,35,35v130.4
	C200.4,184.6,184.6,200.4,165.4,200.4z"/>
<path class="st1" d="M48.1,82.9c1.7,0.6,3.6-0.3,4.5-1.7c0.6-0.8,0.6-1.7,0.6-2.5V66.1c0-4.8,2.2-8.1,6.2-10.6
	c2-1.1,3.9-1.7,6.2-1.7h15.7c1.7,0,2.8-0.6,3.6-2c0.8-1.1,0.8-2.5,0-3.9c-0.6-1.4-1.7-2-3.4-2h-21c-3.1,0.3-5.9,1.4-8.4,3.4
	c-4.5,3.1-7,7.6-7,13.2V79C45,80.7,46.1,82.4,48.1,82.9z M135.8,102.2C129.3,89.6,116.5,81,101.6,81s-28,8.7-34.2,21.3
	c6.4,12.6,19.3,21.3,34.2,21.3S129.3,114.8,135.8,102.2z M95.2,89.1c3.6,0,6.4,2.8,6.4,6.4s-2.8,6.4-6.4,6.4s-6.4-2.8-6.4-6.4
	S91.5,89.1,95.2,89.1z M118.4,112.3c-5,3.4-10.9,5-16.8,5c-5.9,0-11.8-1.7-16.8-5c-3.9-2.5-7.6-5.9-10.1-10.1
	c2.5-3.9,5.9-7.6,10.1-10.1c0.3-0.3,0.6-0.3,0.8-0.6c-0.6,2-1.1,3.9-1.1,5.9c0,9.5,7.6,17.1,17.1,17.1s17.1-7.6,17.1-17.1
	c0-2-0.3-3.9-1.1-5.9c0.3,0.3,0.6,0.3,0.8,0.6c3.9,2.5,7.6,5.9,10.1,10.1C126,106.2,122.3,109.8,118.4,112.3L118.4,112.3z
	 M120.7,53.8h15.7c2.2,0,4.5,0.6,6.2,1.7c3.9,2.5,6.2,5.9,6.2,10.6v12.6c0,0.8,0,1.7,0.6,2.5c0.8,1.4,2.8,2.2,4.5,1.7
	c1.7-0.6,2.8-2,2.8-3.9V62.5c0-5.6-2.5-10.1-7-13.4c-2.5-2-5.3-2.8-8.4-3.4h-20.5c-1.7,0-2.8,0.8-3.4,2.2c-0.6,1.4-0.6,2.5,0,3.9
	C117.9,53.2,119.3,53.8,120.7,53.8z M81.4,146.2H65.8c-2.2,0-4.5-0.6-6.2-1.7c-3.9-2.5-6.2-5.9-6.2-10.6v-12.6c0-0.8,0-1.7-0.6-2.5
	c-0.8-1.4-2.8-2.2-4.5-1.7c-1.7,0.6-2.8,2-2.8,3.9v16.5c0,5.6,2.5,10.1,7,13.4c2.5,2,5.3,2.8,8.4,3.4h20.5c1.7,0,2.8-0.8,3.4-2.2
	c0.6-1.4,0.6-2.5,0-3.9C84.2,146.8,82.8,146.2,81.4,146.2z M154,117.1c-1.7-0.6-3.6,0.3-4.5,1.7c-0.6,0.8-0.6,1.7-0.6,2.5v12.6
	c0,4.8-2.2,8.1-6.2,10.6c-2,1.1-3.9,1.7-6.2,1.7h-15.7c-1.7,0-2.8,0.6-3.6,2c-0.8,1.1-0.8,2.5,0,3.9c0.8,1.4,2,2.2,3.4,2.2H142
	c3.1-0.3,5.9-1.4,8.4-3.4c4.5-3.4,6.7-7.8,7-13.4V121C157.1,119.3,156,117.6,154,117.1L154,117.1z"/>
</svg>
