<?xml version="1.0" encoding="utf-8"?>
<!-- Generator: Adobe Illustrator 22.0.0, SVG Export Plug-In . SVG Version: 6.00 Build 0)  -->
<svg version="1.1" id="图层_1" xmlns="http://www.w3.org/2000/svg" xmlns:xlink="http://www.w3.org/1999/xlink" x="0px" y="0px"
	 viewBox="0 0 200 200" style="enable-background:new 0 0 200 200;" xml:space="preserve">
<style type="text/css">
	.st0{fill:#E2EBFA;}
	.st1{fill:#6699F5;}
	.st2{fill:#2E61C9;}
	.st3{fill:#FFFFFF;}
	.st4{fill:url(#SVGID_1_);}
	.st5{fill:url(#SVGID_2_);}
</style>
<circle class="st0" cx="98" cy="99.9" r="98"/>
<path class="st1" d="M170.2,66.4l-0.5,90.6c0,9-7.5,16.4-16.5,16.3l-98.4-0.4c-9,0-16.4-7.5-16.3-16.5l0.5-114.9
	c0-9,7.5-16.4,16.5-16.3l74.3,0.4L170.2,66.4L170.2,66.4z"/>
<path class="st2" d="M129.7,57.9l0.2-32.4l40.4,40.7l-32.4-0.2C133.4,66.3,129.7,62.5,129.7,57.9"/>
<g>
	<path class="st3" d="M91.6,153.8l-7.9-34.5l7.1,0.1l5,23.7l6.5-23.6l8.3,0.1l5.9,24.2l5.4-24l7,0.1l-8.7,34.4l-7.4,0l-6.7-25.7
		l-7,25.6L91.6,153.8z"/>
</g>
<linearGradient id="SVGID_1_" gradientUnits="userSpaceOnUse" x1="104.9664" y1="-118.708" x2="203.0667" y2="-118.708" gradientTransform="matrix(1 4.711484e-03 -4.711484e-03 1 -83.6753 209.348)">
	<stop  offset="0" style="stop-color:#BFC7F3"/>
	<stop  offset="1" style="stop-color:#6699F5"/>
	<stop  offset="1" style="stop-color:#000000"/>
</linearGradient>
<polygon class="st4" points="119.9,106 21.8,105.6 21.9,76.7 120,77.2 "/>
<linearGradient id="SVGID_2_" gradientUnits="userSpaceOnUse" x1="104.8977" y1="-155.6023" x2="203.0834" y2="-155.6023" gradientTransform="matrix(1 4.711484e-03 -4.711484e-03 1 -83.6753 209.348)">
	<stop  offset="0" style="stop-color:#15BBFF"/>
	<stop  offset="1" style="stop-color:#6699F5"/>
</linearGradient>
<polygon class="st5" points="120.1,69.1 22,68.6 22,39.8 120.2,40.2 "/>
</svg>
