<?xml version="1.0" encoding="utf-8"?>
<!-- Generator: Adobe Illustrator 22.0.0, SVG Export Plug-In . SVG Version: 6.00 Build 0)  -->
<svg version="1.1" id="图层_1" xmlns="http://www.w3.org/2000/svg" xmlns:xlink="http://www.w3.org/1999/xlink" x="0px" y="0px"
	 viewBox="0 0 200 200" style="enable-background:new 0 0 200 200;" xml:space="preserve">
<style type="text/css">
	.st0{fill:#6699F5;}
	.st1{fill:#2E61C9;}
	.st2{fill:#FFFFFF;}
	.st3{fill:#F4B200;}
</style>
<path class="st0" d="M188.9,55.6L188.2,178c0,12.2-10.1,22.1-22.3,22L33,199.5c-12.2,0-22.1-10.1-22-22.3L11.7,22
	C11.7,9.9,21.8-0.1,34,0l100.3,0.5L188.9,55.6L188.9,55.6z"/>
<path class="st1" d="M134.2,44.2l0.3-43.8l54.6,55l-43.8-0.3C139.2,55.5,134.2,50.4,134.2,44.2"/>
<g>
	<path class="st2" d="M52.2,68.9L41.5,22.3l9.6,0.1l6.8,32l8.8-31.9l11.2,0.1l8,32.7L93.1,23l9.5,0.1L90.8,69.5h-10l-9-34.7
		l-9.5,34.6L52.2,68.9z"/>
</g>
<path class="st2" d="M131.1,174.6h-7.4c-2,0-3.7-1.7-3.7-3.7s1.7-3.7,3.7-3.7h7.4c10.1,0,18.4-8.3,18.4-18.4
	c0-8.8-6.6-16.8-15.5-18.2c-1.7-0.2-2.9-1.7-3.1-3.3c-1.5-14.9-14.2-26.3-29.3-26.3s-27.8,11.4-29.3,26.5c-0.2,1.7-1.5,2.9-3.1,3.3
	c-8.8,1.3-15.5,9.2-15.5,18c0,10.1,8.3,18.4,18.4,18.4h7.4c2,0,3.7,1.7,3.7,3.7s-1.7,3.7-3.7,3.7h-7.4c-14.2,0-25.8-11.6-25.8-25.8
	c0-11.6,7.9-21.7,19-24.9c3.1-17.5,18.2-30.4,36.3-30.4s33.1,12.9,36.3,30.4c11,3.1,19,13.3,19,24.9
	C156.9,163,145.3,174.6,131.1,174.6z"/>
<path class="st3" d="M119.5,149.3c-0.9,0-1.8-0.4-2.6-1.1l-15.8-15.8l-15.8,15.8c-1.5,1.5-3.7,1.5-5.2,0c-1.5-1.5-1.5-3.7,0-5.2
	l18.4-18.4c1.5-1.5,3.7-1.5,5.2,0L122,143c1.5,1.5,1.5,3.7,0,5.2C121.3,148.9,120.4,149.3,119.5,149.3z"/>
<path class="st3" d="M101.1,186.1c-2,0-3.7-1.7-3.7-3.7V129c0-2,1.7-3.7,3.7-3.7s3.7,1.7,3.7,3.7v53.4
	C104.7,184.4,103.1,186.1,101.1,186.1z"/>
</svg>
