<svg xmlns="http://www.w3.org/2000/svg" version="1.1" xmlns:xlink="http://www.w3.org/1999/xlink" xmlns:svgjs="http://svgjs.com/svgjs" width="1200" height="500" preserveAspectRatio="none" viewBox="0 0 1200 500"><g mask="url(&quot;#SvgjsMask6293&quot;)" fill="none"><rect width="1200" height="500" x="0" y="0" fill="#0e2a47"></rect><use xlink:href="#SvgjsSymbol6300" x="0" y="0"></use><use xlink:href="#SvgjsSymbol6300" x="720" y="0"></use></g><defs><mask id="SvgjsMask6293"><rect width="1200" height="500" fill="#ffffff"></rect></mask><path d="M-1 0 a1 1 0 1 0 2 0 a1 1 0 1 0 -2 0z" id="SvgjsPath6299"></path><path d="M-3 0 a3 3 0 1 0 6 0 a3 3 0 1 0 -6 0z" id="SvgjsPath6297"></path><path d="M-5 0 a5 5 0 1 0 10 0 a5 5 0 1 0 -10 0z" id="SvgjsPath6295"></path><path d="M2 -2 L-2 2z" id="SvgjsPath6296"></path><path d="M6 -6 L-6 6z" id="SvgjsPath6294"></path><path d="M30 -30 L-30 30z" id="SvgjsPath6298"></path></defs><symbol id="SvgjsSymbol6300"><use xlink:href="#SvgjsPath6294" x="30" y="30" stroke="#1c538e"></use><use xlink:href="#SvgjsPath6295" x="30" y="90" stroke="#1c538e"></use><use xlink:href="#SvgjsPath6296" x="30" y="150" stroke="#1c538e"></use><use xlink:href="#SvgjsPath6295" x="30" y="210" stroke="#1c538e"></use><use xlink:href="#SvgjsPath6294" x="30" y="270" stroke="#1c538e"></use><use xlink:href="#SvgjsPath6294" x="30" y="330" stroke="#1c538e"></use><use xlink:href="#SvgjsPath6297" x="30" y="390" stroke="#1c538e"></use><use xlink:href="#SvgjsPath6295" x="30" y="450" stroke="#1c538e"></use><use xlink:href="#SvgjsPath6296" x="30" y="510" stroke="#1c538e"></use><use xlink:href="#SvgjsPath6296" x="90" y="30" stroke="#1c538e"></use><use xlink:href="#SvgjsPath6295" x="90" y="90" stroke="#1c538e"></use><use xlink:href="#SvgjsPath6297" x="90" y="150" stroke="#1c538e"></use><use xlink:href="#SvgjsPath6296" x="90" y="210" stroke="#1c538e"></use><use xlink:href="#SvgjsPath6298" x="90" y="270" stroke="#1c538e" stroke-width="3"></use><use xlink:href="#SvgjsPath6294" x="90" y="330" stroke="#1c538e"></use><use xlink:href="#SvgjsPath6295" x="90" y="390" stroke="#1c538e"></use><use xlink:href="#SvgjsPath6295" x="90" y="450" stroke="#1c538e"></use><use xlink:href="#SvgjsPath6294" x="90" y="510" stroke="#1c538e"></use><use xlink:href="#SvgjsPath6294" x="150" y="30" stroke="#1c538e"></use><use xlink:href="#SvgjsPath6294" x="150" y="90" stroke="#1c538e"></use><use xlink:href="#SvgjsPath6294" x="150" y="150" stroke="#1c538e"></use><use xlink:href="#SvgjsPath6297" x="150" y="210" stroke="#1c538e"></use><use xlink:href="#SvgjsPath6295" x="150" y="270" stroke="#1c538e"></use><use xlink:href="#SvgjsPath6299" x="150" y="330" stroke="#1c538e"></use><use xlink:href="#SvgjsPath6295" x="150" y="390" stroke="#1c538e"></use><use xlink:href="#SvgjsPath6294" x="150" y="450" stroke="#1c538e"></use><use xlink:href="#SvgjsPath6297" x="150" y="510" stroke="#1c538e"></use><use xlink:href="#SvgjsPath6295" x="210" y="30" stroke="#1c538e"></use><use xlink:href="#SvgjsPath6296" x="210" y="90" stroke="#1c538e"></use><use xlink:href="#SvgjsPath6295" x="210" y="150" stroke="#1c538e"></use><use xlink:href="#SvgjsPath6297" x="210" y="210" stroke="#1c538e"></use><use xlink:href="#SvgjsPath6294" x="210" y="270" stroke="#1c538e"></use><use xlink:href="#SvgjsPath6294" x="210" y="330" stroke="#1c538e"></use><use xlink:href="#SvgjsPath6296" x="210" y="390" stroke="#1c538e"></use><use xlink:href="#SvgjsPath6297" x="210" y="450" stroke="#1c538e"></use><use xlink:href="#SvgjsPath6299" x="210" y="510" stroke="#1c538e"></use><use xlink:href="#SvgjsPath6299" x="270" y="30" stroke="#1c538e"></use><use xlink:href="#SvgjsPath6294" x="270" y="90" stroke="#1c538e"></use><use xlink:href="#SvgjsPath6294" x="270" y="150" stroke="#1c538e"></use><use xlink:href="#SvgjsPath6295" x="270" y="210" stroke="#1c538e"></use><use xlink:href="#SvgjsPath6296" x="270" y="270" stroke="#1c538e"></use><use xlink:href="#SvgjsPath6294" x="270" y="330" stroke="#1c538e"></use><use xlink:href="#SvgjsPath6299" x="270" y="390" stroke="#1c538e"></use><use xlink:href="#SvgjsPath6297" x="270" y="450" stroke="#1c538e"></use><use xlink:href="#SvgjsPath6295" x="270" y="510" stroke="#1c538e"></use><use xlink:href="#SvgjsPath6294" x="330" y="30" stroke="#1c538e"></use><use xlink:href="#SvgjsPath6298" x="330" y="90" stroke="#1c538e" stroke-width="3"></use><use xlink:href="#SvgjsPath6295" x="330" y="150" stroke="#1c538e"></use><use xlink:href="#SvgjsPath6295" x="330" y="210" stroke="#1c538e"></use><use xlink:href="#SvgjsPath6298" x="330" y="270" stroke="#1c538e" stroke-width="3"></use><use xlink:href="#SvgjsPath6299" x="330" y="330" stroke="#1c538e"></use><use xlink:href="#SvgjsPath6295" x="330" y="390" stroke="#1c538e"></use><use xlink:href="#SvgjsPath6295" x="330" y="450" stroke="#1c538e"></use><use xlink:href="#SvgjsPath6294" x="330" y="510" stroke="#1c538e"></use><use xlink:href="#SvgjsPath6296" x="390" y="30" stroke="#1c538e"></use><use xlink:href="#SvgjsPath6296" x="390" y="90" stroke="#1c538e"></use><use xlink:href="#SvgjsPath6296" x="390" y="150" stroke="#1c538e"></use><use xlink:href="#SvgjsPath6295" x="390" y="210" stroke="#1c538e"></use><use xlink:href="#SvgjsPath6295" x="390" y="270" stroke="#1c538e"></use><use xlink:href="#SvgjsPath6294" x="390" y="330" stroke="#1c538e"></use><use xlink:href="#SvgjsPath6295" x="390" y="390" stroke="#1c538e"></use><use xlink:href="#SvgjsPath6295" x="390" y="450" stroke="#1c538e"></use><use xlink:href="#SvgjsPath6295" x="390" y="510" stroke="#1c538e"></use><use xlink:href="#SvgjsPath6294" x="450" y="30" stroke="#1c538e"></use><use xlink:href="#SvgjsPath6297" x="450" y="90" stroke="#1c538e"></use><use xlink:href="#SvgjsPath6299" x="450" y="150" stroke="#1c538e"></use><use xlink:href="#SvgjsPath6296" x="450" y="210" stroke="#1c538e"></use><use xlink:href="#SvgjsPath6295" x="450" y="270" stroke="#1c538e"></use><use xlink:href="#SvgjsPath6295" x="450" y="330" stroke="#1c538e"></use><use xlink:href="#SvgjsPath6298" x="450" y="390" stroke="#1c538e" stroke-width="3"></use><use xlink:href="#SvgjsPath6298" x="450" y="450" stroke="#1c538e" stroke-width="3"></use><use xlink:href="#SvgjsPath6294" x="450" y="510" stroke="#1c538e"></use><use xlink:href="#SvgjsPath6295" x="510" y="30" stroke="#1c538e"></use><use xlink:href="#SvgjsPath6299" x="510" y="90" stroke="#1c538e"></use><use xlink:href="#SvgjsPath6294" x="510" y="150" stroke="#1c538e"></use><use xlink:href="#SvgjsPath6299" x="510" y="210" stroke="#1c538e"></use><use xlink:href="#SvgjsPath6296" x="510" y="270" stroke="#1c538e"></use><use xlink:href="#SvgjsPath6294" x="510" y="330" stroke="#1c538e"></use><use xlink:href="#SvgjsPath6294" x="510" y="390" stroke="#1c538e"></use><use xlink:href="#SvgjsPath6296" x="510" y="450" stroke="#1c538e"></use><use xlink:href="#SvgjsPath6299" x="510" y="510" stroke="#1c538e"></use><use xlink:href="#SvgjsPath6296" x="570" y="30" stroke="#1c538e"></use><use xlink:href="#SvgjsPath6294" x="570" y="90" stroke="#1c538e"></use><use xlink:href="#SvgjsPath6295" x="570" y="150" stroke="#1c538e"></use><use xlink:href="#SvgjsPath6295" x="570" y="210" stroke="#1c538e"></use><use xlink:href="#SvgjsPath6295" x="570" y="270" stroke="#1c538e"></use><use xlink:href="#SvgjsPath6296" x="570" y="330" stroke="#1c538e"></use><use xlink:href="#SvgjsPath6294" x="570" y="390" stroke="#1c538e"></use><use xlink:href="#SvgjsPath6298" x="570" y="450" stroke="#1c538e" stroke-width="3"></use><use xlink:href="#SvgjsPath6294" x="570" y="510" stroke="#1c538e"></use><use xlink:href="#SvgjsPath6298" x="630" y="30" stroke="#1c538e" stroke-width="3"></use><use xlink:href="#SvgjsPath6295" x="630" y="90" stroke="#1c538e"></use><use xlink:href="#SvgjsPath6297" x="630" y="150" stroke="#1c538e"></use><use xlink:href="#SvgjsPath6294" x="630" y="210" stroke="#1c538e"></use><use xlink:href="#SvgjsPath6296" x="630" y="270" stroke="#1c538e"></use><use xlink:href="#SvgjsPath6294" x="630" y="330" stroke="#1c538e"></use><use xlink:href="#SvgjsPath6294" x="630" y="390" stroke="#1c538e"></use><use xlink:href="#SvgjsPath6294" x="630" y="450" stroke="#1c538e"></use><use xlink:href="#SvgjsPath6295" x="630" y="510" stroke="#1c538e"></use><use xlink:href="#SvgjsPath6299" x="690" y="30" stroke="#1c538e"></use><use xlink:href="#SvgjsPath6295" x="690" y="90" stroke="#1c538e"></use><use xlink:href="#SvgjsPath6296" x="690" y="150" stroke="#1c538e"></use><use xlink:href="#SvgjsPath6295" x="690" y="210" stroke="#1c538e"></use><use xlink:href="#SvgjsPath6296" x="690" y="270" stroke="#1c538e"></use><use xlink:href="#SvgjsPath6295" x="690" y="330" stroke="#1c538e"></use><use xlink:href="#SvgjsPath6295" x="690" y="390" stroke="#1c538e"></use><use xlink:href="#SvgjsPath6299" x="690" y="450" stroke="#1c538e"></use><use xlink:href="#SvgjsPath6294" x="690" y="510" stroke="#1c538e"></use></symbol></svg>