<svg width="32" height="32" fill="none" xmlns="http://www.w3.org/2000/svg"><path d="M16 .4a16 16 0 0 0-5.06 31.18c.8.14 1.1-.35 1.1-.78L12 28.1c-4.45.96-5.38-2.15-5.38-2.15-.74-1.85-1.78-2.34-1.78-2.34-1.46-1 .1-.98.1-.98 1.61.12 2.46 1.66 2.46 1.66 1.43 2.44 3.74 1.74 4.65 1.33a3.44 3.44 0 0 1 1.02-2.15c-3.55-.4-7.29-1.77-7.29-7.9 0-1.75.62-3.18 1.65-4.3-.17-.4-.71-2.03.15-4.23 0 0 1.35-.43 4.4 1.64a15.18 15.18 0 0 1 8.02 0c3.05-2.07 4.4-1.64 4.4-1.64.86 2.2.32 3.83.15 4.24a6.18 6.18 0 0 1 1.65 4.29c0 6.15-3.75 7.5-7.3 7.9.57.49 1.08 1.47 1.08 2.96l-.02 4.38c0 .43.28.93 1.1.77A16 16 0 0 0 16 .4Zm0 0" fill="#191717"/></svg>