<?xml version="1.0" encoding="utf-8"?>
<!-- Generator: Adobe Illustrator 22.0.0, SVG Export Plug-In . SVG Version: 6.00 Build 0)  -->
<svg version="1.1" id="图层_1" xmlns="http://www.w3.org/2000/svg" xmlns:xlink="http://www.w3.org/1999/xlink" x="0px" y="0px"
	 viewBox="0 0 200 200" style="enable-background:new 0 0 200 200;" xml:space="preserve">
<style type="text/css">
	.st0{fill:#F3DCDA;}
	.st1{fill:#C87270;}
	.st2{fill:#AF5149;}
	.st3{fill:#FFFFFF;}
</style>
<circle class="st0" cx="100" cy="100.9" r="98"/>
<path class="st1" d="M167,65.3l0.2,90.6c0,9-7.3,16.4-16.3,16.4l-98.5,0.2c-9,0-16.4-7.3-16.4-16.3L35.7,41.4C35.7,32.4,43,25,52,25
	l74.3-0.2L167,65.3L167,65.3z"/>
<path class="st2" d="M126.4,57.2l-0.1-32.4L167,65.3l-32.4,0.1C130.1,65.4,126.4,61.7,126.4,57.2"/>
<g>
	<g>
		<path class="st3" d="M50.9,152.3c-0.2-1.8-0.4-3.6-0.6-5.8c-3.6,0-7.3-0.1-11,0.1c-0.7,0-1.4,0.8-2.1,1.3c-2.2,1.3-4.3,1.1-6-0.7
			c-1.6-1.7-1.7-3.9-0.3-5.8c1.4-2,3.8-2.8,5.5-1.4c2.5,1.9,5.2,1.5,7.9,1.6c2,0.1,4,0,5.6,0c0.8-3,1.5-5.6,2.2-8.2
			c-1.7-1,9.8,0.2,8.9,0.4c0.4,0.8,1,1.6,1.2,2.5c0.3,1.7,0.4,3.3,0.6,5.4c3.8,0,7.5,0.1,11.2-0.1c0.7,0,1.4-0.9,2.1-1.3
			c2.2-1.2,4.3-0.9,5.9,0.9c1.6,1.8,1.6,3.9,0.1,5.8c-1.5,1.9-3.7,2.8-5.5,1.3c-2.2-1.8-4.6-1.6-7-1.6c-2.2,0-4.4,0-6.9,0
			c-0.1,2-0.2,3.9-0.3,5.8C58.5,152.3,54.7,152.3,50.9,152.3L50.9,152.3z"/>
		<polygon class="st3" points="95.5,135.1 52.9,135.1 52.9,128.3 116.7,128.3 		"/>
		<path class="st3" d="M62.6,116.2l-12.4,7.2c-1,0.6-2.5,0.2-3.1-0.8l-0.3-0.6c-0.6-1-0.2-2.5,0.8-3.1l12.4-7.2
			c1-0.6,2.5-0.2,3.1,0.8l0.3,0.6C64.1,114.2,63.7,115.7,62.6,116.2z"/>
		<path class="st3" d="M62.6,106.3l-12.4,7.2c-1,0.6-2.5,0.2-3.1-0.8l-0.3-0.6c-0.6-1-0.2-2.5,0.8-3.1l12.4-7.2
			c1-0.6,2.5-0.2,3.1,0.8l0.3,0.6C64,104.3,63.6,105.6,62.6,106.3z"/>
		<path class="st3" d="M62.6,95.4l-12.4,7.2c-1,0.6-2.5,0.2-3.1-0.8l-0.3-0.6c-0.6-1-0.2-2.5,0.8-3.1L59.9,91c1-0.6,2.5-0.2,3.1,0.8
			l0.3,0.6C64,93.4,63.6,94.8,62.6,95.4z"/>
		<path class="st3" d="M62.6,84.7l-12.4,7.2c-1,0.6-2.5,0.2-3.1-0.8l-0.3-0.6c-0.6-1-0.2-2.5,0.8-3.1L60,80.3c1-0.6,2.5-0.2,3.1,0.8
			l0.3,0.6C64,82.8,63.6,84.1,62.6,84.7z"/>
		<path class="st3" d="M62.6,73.3l-12.4,7.2c-1,0.6-2.5,0.2-3.1-0.8l-0.3-0.6c-0.6-1-0.2-2.5,0.8-3.1L60,68.8c1-0.6,2.5-0.2,3.1,0.8
			l0.3,0.6C64,71.3,63.6,72.6,62.6,73.3z"/>
		<path class="st3" d="M62.6,62.6l-12.4,7.2c-1,0.6-2.5,0.2-3.1-0.8l-0.3-0.6c-0.6-1-0.2-2.5,0.8-3.1L60,58.2c1-0.6,2.5-0.2,3.1,0.8
			l0.3,0.6C64,60.5,63.6,62,62.6,62.6z"/>
		<polygon class="st3" points="98.8,44.4 55.8,44.4 55.8,51.4 120.1,51.4 		"/>
		<rect x="52.1" y="44.4" class="st3" width="7.4" height="19.5"/>
		<path class="st3" d="M63.2,127l-12.4,7.1c-1,0.6-2.5,0.2-3.1-0.8l-0.3-0.6c-0.6-1-0.2-2.5,0.8-3.1l12.4-7.2c1-0.6,2.5-0.2,3.1,0.8
			l0.3,0.6C64.6,125,64.2,126.3,63.2,127z"/>
		<path class="st3" d="M131.7,87h-4.4c-0.2,0-0.5-0.2-0.5-0.5v-8.7c0-1-0.4-2.1-1.2-2.8l-15.3-15.3c-0.7-0.7-1.7-1.2-2.8-1.2H78.6
			c-1.7,0-2.9,1.3-2.9,2.9v25.1c0,0.2-0.2,0.5-0.5,0.5h-4.4c-0.6,0-0.9,0.5-0.9,0.9v24.6c0,0.6,0.5,0.9,0.9,0.9h4.9
			c0,2.1,0.9,4.1,2.3,5.5s3.4,2.3,5.5,2.3h40.3c1.7,0,2.9-1.3,2.9-2.9v-4c0-0.6,0.5-0.9,0.9-0.9h4c0.6,0,0.9-0.5,0.9-0.9V88
			C132.6,87.5,132.2,87,131.7,87z M112.9,68.1l4.3,4.3h-4c-0.2,0-0.2-0.1-0.2-0.2L112.9,68.1L112.9,68.1z M79.6,63
			c0-0.2,0.2-0.5,0.5-0.5h25.1c2.1,0,4,1.7,4,4v8.9c0,0.6,0.5,0.9,0.9,0.9h8.9c2.1,0,4,1.7,4,4v6.4c0,0.2-0.2,0.5-0.5,0.5H80
			c-0.2,0-0.5-0.2-0.5-0.5L79.6,63L79.6,63z M111.1,100.4c0,2.5-0.8,4.6-2.5,6.2s-3.8,2.3-6.3,2.3h-5.7V92.3h5.7
			C108.2,92.3,111.1,95,111.1,100.4z M93.1,97.6c0,1.7-0.6,3.1-1.9,4c-1.3,1-2.8,1.5-4.7,1.5h-1.8v5.8h-3.5V92.3h5.7
			C91,92.3,93.1,94.1,93.1,97.6z M122.8,117c0,0.2-0.2,0.5-0.5,0.5H83.5c-2.1,0-4-1.7-4-4h42.8c0.2,0,0.5,0.2,0.5,0.5V117z
			 M124.1,95.3h-5.9v4.3h5.5v2.8h-5.5v6.5h-3.6V92.3h9.4L124.1,95.3L124.1,95.3z"/>
		<path class="st3" d="M89.4,97.7c0,1.8-1,2.7-3.1,2.7h-1.5v-5.3h1.6C88.3,95.1,89.4,96,89.4,97.7L89.4,97.7z"/>
		<path class="st3" d="M107.5,100.5c0,1.7-0.5,3.1-1.4,4c-0.9,1-2.3,1.5-4,1.5h-1.9V95.3h1.9c1.6,0,2.9,0.5,3.9,1.3
			C106.9,97.6,107.5,98.8,107.5,100.5z"/>
	</g>
	<g>
		<path class="st3" d="M50.9,152.3c-0.2-1.8-0.4-3.6-0.6-5.8c-3.6,0-7.3-0.1-11,0.1c-0.7,0-1.4,0.8-2.1,1.3c-2.2,1.3-4.3,1.1-6-0.7
			c-1.6-1.7-1.7-3.9-0.3-5.8c1.4-2,3.8-2.8,5.5-1.4c2.5,1.9,5.2,1.5,7.9,1.6c2,0.1,4,0,5.6,0c0.8-3,1.5-5.6,2.2-8.2
			c-1.7-1,9.8,0.2,8.9,0.4c0.4,0.8,1,1.6,1.2,2.5c0.3,1.7,0.4,3.3,0.6,5.4c3.8,0,7.5,0.1,11.2-0.1c0.7,0,1.4-0.9,2.1-1.3
			c2.2-1.2,4.3-0.9,5.9,0.9c1.6,1.8,1.6,3.9,0.1,5.8c-1.5,1.9-3.7,2.8-5.5,1.3c-2.2-1.8-4.6-1.6-7-1.6c-2.2,0-4.4,0-6.9,0
			c-0.1,2-0.2,3.9-0.3,5.8C58.5,152.3,54.7,152.3,50.9,152.3L50.9,152.3z"/>
		<polygon class="st3" points="95.5,135.1 52.9,135.1 52.9,128.3 116.7,128.3 		"/>
		<path class="st3" d="M62.6,116.2l-12.4,7.2c-1,0.6-2.5,0.2-3.1-0.8l-0.3-0.6c-0.6-1-0.2-2.5,0.8-3.1l12.4-7.2
			c1-0.6,2.5-0.2,3.1,0.8l0.3,0.6C64.1,114.2,63.7,115.7,62.6,116.2z"/>
		<path class="st3" d="M62.6,106.3l-12.4,7.2c-1,0.6-2.5,0.2-3.1-0.8l-0.3-0.6c-0.6-1-0.2-2.5,0.8-3.1l12.4-7.2
			c1-0.6,2.5-0.2,3.1,0.8l0.3,0.6C64,104.3,63.6,105.6,62.6,106.3z"/>
		<path class="st3" d="M62.6,95.4l-12.4,7.2c-1,0.6-2.5,0.2-3.1-0.8l-0.3-0.6c-0.6-1-0.2-2.5,0.8-3.1L59.9,91c1-0.6,2.5-0.2,3.1,0.8
			l0.3,0.6C64,93.4,63.6,94.8,62.6,95.4z"/>
		<path class="st3" d="M62.6,84.7l-12.4,7.2c-1,0.6-2.5,0.2-3.1-0.8l-0.3-0.6c-0.6-1-0.2-2.5,0.8-3.1L60,80.3c1-0.6,2.5-0.2,3.1,0.8
			l0.3,0.6C64,82.8,63.6,84.1,62.6,84.7z"/>
		<path class="st3" d="M62.6,73.3l-12.4,7.2c-1,0.6-2.5,0.2-3.1-0.8l-0.3-0.6c-0.6-1-0.2-2.5,0.8-3.1L60,68.8c1-0.6,2.5-0.2,3.1,0.8
			l0.3,0.6C64,71.3,63.6,72.6,62.6,73.3z"/>
		<path class="st3" d="M62.6,62.6l-12.4,7.2c-1,0.6-2.5,0.2-3.1-0.8l-0.3-0.6c-0.6-1-0.2-2.5,0.8-3.1L60,58.2c1-0.6,2.5-0.2,3.1,0.8
			l0.3,0.6C64,60.5,63.6,62,62.6,62.6z"/>
		<polygon class="st3" points="98.8,44.4 55.8,44.4 55.8,51.4 120.1,51.4 		"/>
		<rect x="52.1" y="44.4" class="st3" width="7.4" height="19.5"/>
		<path class="st3" d="M63.2,127l-12.4,7.1c-1,0.6-2.5,0.2-3.1-0.8l-0.3-0.6c-0.6-1-0.2-2.5,0.8-3.1l12.4-7.2c1-0.6,2.5-0.2,3.1,0.8
			l0.3,0.6C64.6,125,64.2,126.3,63.2,127z"/>
		<path class="st3" d="M131.7,87h-4.4c-0.2,0-0.5-0.2-0.5-0.5v-8.7c0-1-0.4-2.1-1.2-2.8l-15.3-15.3c-0.7-0.7-1.7-1.2-2.8-1.2H78.6
			c-1.7,0-2.9,1.3-2.9,2.9v25.1c0,0.2-0.2,0.5-0.5,0.5h-4.4c-0.6,0-0.9,0.5-0.9,0.9v24.6c0,0.6,0.5,0.9,0.9,0.9h4.9
			c0,2.1,0.9,4.1,2.3,5.5s3.4,2.3,5.5,2.3h40.3c1.7,0,2.9-1.3,2.9-2.9v-4c0-0.6,0.5-0.9,0.9-0.9h4c0.6,0,0.9-0.5,0.9-0.9V88
			C132.6,87.5,132.2,87,131.7,87z M112.9,68.1l4.3,4.3h-4c-0.2,0-0.2-0.1-0.2-0.2L112.9,68.1L112.9,68.1z M79.6,63
			c0-0.2,0.2-0.5,0.5-0.5h25.1c2.1,0,4,1.7,4,4v8.9c0,0.6,0.5,0.9,0.9,0.9h8.9c2.1,0,4,1.7,4,4v6.4c0,0.2-0.2,0.5-0.5,0.5H80
			c-0.2,0-0.5-0.2-0.5-0.5L79.6,63L79.6,63z M111.1,100.4c0,2.5-0.8,4.6-2.5,6.2s-3.8,2.3-6.3,2.3h-5.7V92.3h5.7
			C108.2,92.3,111.1,95,111.1,100.4z M93.1,97.6c0,1.7-0.6,3.1-1.9,4c-1.3,1-2.8,1.5-4.7,1.5h-1.8v5.8h-3.5V92.3h5.7
			C91,92.3,93.1,94.1,93.1,97.6z M122.8,117c0,0.2-0.2,0.5-0.5,0.5H83.5c-2.1,0-4-1.7-4-4h42.8c0.2,0,0.5,0.2,0.5,0.5V117z
			 M124.1,95.3h-5.9v4.3h5.5v2.8h-5.5v6.5h-3.6V92.3h9.4L124.1,95.3L124.1,95.3z"/>
		<path class="st3" d="M89.4,97.7c0,1.8-1,2.7-3.1,2.7h-1.5v-5.3h1.6C88.3,95.1,89.4,96,89.4,97.7L89.4,97.7z"/>
		<path class="st3" d="M107.5,100.5c0,1.7-0.5,3.1-1.4,4c-0.9,1-2.3,1.5-4,1.5h-1.9V95.3h1.9c1.6,0,2.9,0.5,3.9,1.3
			C106.9,97.6,107.5,98.8,107.5,100.5z"/>
	</g>
</g>
</svg>
