<?xml version="1.0" encoding="utf-8"?>
<!-- Generator: Adobe Illustrator 22.0.0, SVG Export Plug-In . SVG Version: 6.00 Build 0)  -->
<svg version="1.1" id="图层_1" xmlns="http://www.w3.org/2000/svg" xmlns:xlink="http://www.w3.org/1999/xlink" x="0px" y="0px"
	 viewBox="0 0 200 200" style="enable-background:new 0 0 200 200;" xml:space="preserve">
<style type="text/css">
	.st0{fill:#DCEFFF;}
	.st1{fill:#2693F7;}
	.st2{fill:#1D64A5;}
	.st3{enable-background:new    ;}
	.st4{fill:url(#SVGID_1_);}
	.st5{fill:#E36A5F;}
	.st6{fill:#AF5149;}
	.st7{fill:#FFFFFF;}
</style>
<circle class="st0" cx="100" cy="100.9" r="98"/>
<g>
	<g>
		<path class="st1" d="M132.1,53.4l-0.2,78.2c0,7.8-6.4,14.2-14.2,14.1l-84.9-0.1c-7.8,0-14.2-6.4-14.1-14.2L19,32.3
			c0-7.8,6.4-14.2,14.2-14.1l63.9,0.1L132.1,53.4L132.1,53.4z"/>
	</g>
	<path class="st2" d="M97.2,46.1l0.1-28l34.9,35.1l-28-0.1C100.3,53.3,97.2,50.1,97.2,46.1"/>
	<g class="st3">
		<path class="st2" d="M32.4,40.8l7,0c1.6,0,2.8,0.1,3.6,0.4c1.1,0.3,2.1,0.9,2.9,1.8s1.4,1.9,1.8,3.1c0.4,1.2,0.6,2.7,0.6,4.5
			c0,1.6-0.2,2.9-0.6,4.1c-0.5,1.4-1.2,2.5-2.1,3.4c-0.7,0.6-1.6,1.2-2.7,1.5c-0.9,0.3-2,0.4-3.4,0.4l-7.3,0L32.4,40.8z M36.3,44.1
			l0,12.7l2.9,0c1.1,0,1.9-0.1,2.3-0.2c0.6-0.2,1.1-0.4,1.6-0.8c0.4-0.4,0.8-1,1-1.8c0.3-0.9,0.4-2,0.4-3.5c0-1.5-0.1-2.6-0.4-3.4
			s-0.6-1.4-1.1-1.9c-0.5-0.4-1.1-0.7-1.8-0.9c-0.5-0.1-1.6-0.2-3.2-0.2L36.3,44.1z"/>
		<path class="st2" d="M50.9,50.5c0-1.9,0.3-3.6,0.9-4.9c0.4-1,1-1.8,1.8-2.6c0.8-0.8,1.6-1.3,2.5-1.7c1.2-0.5,2.6-0.8,4.1-0.7
			c2.8,0,5.1,0.9,6.8,2.6s2.5,4.2,2.5,7.3c0,3.1-0.9,5.5-2.5,7.2c-1.7,1.7-3.9,2.6-6.7,2.6c-2.8,0-5.1-0.9-6.8-2.6
			C51.8,56,50.9,53.6,50.9,50.5z M54.9,50.4c0,2.2,0.5,3.8,1.5,4.9c1,1.1,2.3,1.7,3.8,1.7c1.5,0,2.8-0.5,3.8-1.7
			c1-1.1,1.5-2.8,1.5-5c0-2.2-0.5-3.8-1.4-4.9c-1-1.1-2.2-1.6-3.8-1.6c-1.6,0-2.9,0.5-3.8,1.6C55.4,46.6,54.9,48.2,54.9,50.4z"/>
		<path class="st2" d="M84.7,53l3.7,1.2c-0.6,2.1-1.5,3.6-2.9,4.6c-1.3,1-3,1.5-5.1,1.5c-2.5,0-4.6-0.9-6.2-2.6
			c-1.6-1.7-2.4-4.1-2.4-7.1c0-3.2,0.8-5.6,2.5-7.4s3.8-2.6,6.5-2.6c2.3,0,4.2,0.7,5.7,2.1c0.9,0.8,1.5,2,1.9,3.5l-3.8,0.9
			c-0.2-1-0.7-1.8-1.4-2.3s-1.6-0.9-2.6-0.9c-1.4,0-2.6,0.5-3.4,1.5c-0.9,1-1.3,2.7-1.3,4.9c0,2.4,0.4,4.1,1.3,5.2
			c0.9,1,2,1.5,3.4,1.5c1,0,1.9-0.3,2.6-1C83.8,55.4,84.4,54.4,84.7,53z"/>
	</g>
</g>
<linearGradient id="SVGID_1_" gradientUnits="userSpaceOnUse" x1="112.7613" y1="-372.5793" x2="158.0312" y2="-372.5793" gradientTransform="matrix(0.9832 -0.1825 0.1825 0.9832 -6.5476 498.182)">
	<stop  offset="0" style="stop-color:#FFFFFF"/>
	<stop  offset="1" style="stop-color:#2693F7"/>
</linearGradient>
<path class="st4" d="M34.4,89.6c0.1,0.5,0.3,1.4,0.7,2.8s1,2.7,1.6,4c0.7,1.3,1.7,2.7,3.2,4.3c1.4,1.6,3.1,3,4.9,4.1
	c1.9,1.1,4.3,2.2,7.4,3c3,0.9,6.4,1.4,10.1,1.6l-0.3-4.9c0-0.1,0-0.5,0-0.7s0.1-0.4,0.3-0.7c0.2-0.4,0.4-0.6,0.7-0.8
	c0.3-0.2,0.9-0.5,1.6-0.4c0.7,0.1,1.6,0.4,2.6,1L81.6,113c0,0,0.1,0.1,0.2,0.1l0.4,0.4c0.2,0.2,0.3,0.4,0.5,0.6
	c0.1,0.2,0.3,0.4,0.4,0.8c0.1,0.3,0.2,0.6,0.1,0.9c0,0.3-0.1,0.6-0.3,0.9c-0.2,0.3-0.5,0.7-0.8,1l-14.3,10.5l-0.5,0.3
	c-0.3,0.1-0.5,0.2-0.8,0.2s-0.3,0-0.6,0c-0.3,0-0.4-0.1-0.7-0.1c-0.3-0.1-0.6-0.2-0.8-0.4c-0.2-0.2-0.5-0.4-0.7-0.7
	c-0.2-0.4-0.3-0.8-0.4-1.3l-0.2-4.9c-4-0.1-8.2-1-12.4-2.7c-9.6-3.8-15.1-10.2-16.5-19.4c-0.4-3.3-0.4-6.8,0.2-10.6
	C34.3,88.8,34.3,89.2,34.4,89.6z"/>
<g>
	<path class="st5" d="M181.9,106.7l-0.1,64.2c0,6.3-5.3,11.6-11.6,11.6l-69.8-0.2c-6.3,0-11.6-5.3-11.6-11.6L89,89.3
		c-0.1-6.3,5.2-11.5,11.6-11.5l52.7,0.1L181.9,106.7L181.9,106.7z"/>
	<path class="st6" d="M153.1,100.9l0.1-22.9l28.7,28.8l-22.9-0.1C155.7,106.7,153.1,104.1,153.1,100.9"/>
	<g class="st3">
		<path class="st7" d="M107.8,166.9l0-22.4l7.3,0c2.8,0,4.5,0.1,5.4,0.3c1.3,0.3,2.4,1.1,3.2,2.2c0.9,1.1,1.3,2.6,1.3,4.4
			c0,1.4-0.3,2.5-0.8,3.5c-0.5,0.9-1.1,1.7-1.9,2.2c-0.8,0.5-1.6,0.9-2.4,1.1c-1.1,0.2-2.6,0.3-4.7,0.3l-3,0l0,8.5L107.8,166.9z
			 M112.4,148.3l0,6.4l2.5,0c1.8,0,3-0.1,3.6-0.3c0.6-0.2,1.1-0.6,1.4-1.1c0.3-0.5,0.5-1.1,0.5-1.7c0-0.8-0.2-1.5-0.7-2
			s-1.1-0.9-1.8-1c-0.5-0.1-1.6-0.2-3.3-0.2L112.4,148.3z"/>
		<path class="st7" d="M128.7,144.5l8.3,0c1.9,0,3.3,0.1,4.3,0.4c1.3,0.4,2.4,1.1,3.4,2.1c0.9,1,1.6,2.2,2.1,3.6
			c0.5,1.4,0.7,3.2,0.7,5.3c0,1.8-0.2,3.4-0.7,4.8c-0.6,1.6-1.4,3-2.4,4c-0.8,0.8-1.8,1.4-3.2,1.8c-1,0.3-2.3,0.5-4,0.5l-8.5,0
			L128.7,144.5z M133.2,148.3l0,14.9l3.4,0c1.3,0,2.2-0.1,2.7-0.2c0.7-0.2,1.3-0.5,1.8-0.9c0.5-0.4,0.9-1.2,1.2-2.2
			c0.3-1,0.5-2.4,0.5-4.1c0-1.7-0.1-3.1-0.5-4c-0.3-0.9-0.7-1.7-1.3-2.2c-0.5-0.5-1.2-0.9-2.1-1.1c-0.6-0.1-1.9-0.2-3.7-0.2
			L133.2,148.3z"/>
		<path class="st7" d="M151.4,167l0-22.4l15.4,0l0,3.8l-10.8,0l0,5.3l9.4,0l0,3.8l-9.4,0l0,9.5L151.4,167z"/>
	</g>
</g>
</svg>
