<?xml version="1.0" encoding="utf-8"?>
<!-- Generator: Adobe Illustrator 22.0.0, SVG Export Plug-In . SVG Version: 6.00 Build 0)  -->
<svg version="1.1" id="图层_1" xmlns="http://www.w3.org/2000/svg" xmlns:xlink="http://www.w3.org/1999/xlink" x="0px" y="0px"
	 viewBox="0 0 200 200" style="enable-background:new 0 0 200 200;" xml:space="preserve">
<style type="text/css">
	.st0{fill:#F3DCDA;}
	.st1{fill:#E36A5F;}
	.st2{fill:#AF5149;}
	.st3{enable-background:new    ;}
	.st4{fill:#FFFFFF;}
	.st5{fill:url(#SVGID_1_);}
	.st6{fill:url(#SVGID_2_);}
	.st7{fill:url(#SVGID_3_);}
	.st8{fill:url(#SVGID_4_);}
</style>
<circle class="st0" cx="100" cy="100.9" r="98"/>
<path class="st1" d="M167,65.3l0.2,90.6c0,9-7.3,16.4-16.3,16.4l-98.5,0.2c-9,0-16.4-7.3-16.4-16.3L35.7,41.4C35.7,32.4,43,25,52,25
	l74.3-0.2L167,65.3L167,65.3z"/>
<path class="st2" d="M126.4,57.2l-0.1-32.4L167,65.3l-32.4,0.1C130.1,65.4,126.4,61.7,126.4,57.2"/>
<g class="st3">
	<path class="st4" d="M69.7,151.6l-0.1-24.9l8.1,0c3.1,0,5.1,0.1,6,0.4c1.4,0.4,2.6,1.2,3.6,2.4s1.5,2.9,1.5,4.8
		c0,1.5-0.3,2.8-0.8,3.9c-0.6,1-1.3,1.9-2.1,2.5c-0.9,0.6-1.7,1-2.6,1.2c-1.2,0.2-2.9,0.4-5.2,0.4l-3.3,0l0,9.4L69.7,151.6z
		 M74.7,130.9l0,7.1l2.8,0c2,0,3.3-0.1,4-0.4c0.7-0.3,1.2-0.7,1.6-1.2s0.6-1.2,0.6-1.9c0-0.9-0.3-1.7-0.8-2.2c-0.5-0.6-1.2-1-2-1.1
		c-0.6-0.1-1.8-0.2-3.6-0.2L74.7,130.9z"/>
	<path class="st4" d="M92.9,126.7l9.2,0c2.1,0,3.7,0.1,4.7,0.5c1.5,0.4,2.7,1.2,3.8,2.3c1,1.1,1.8,2.4,2.4,4
		c0.5,1.6,0.8,3.6,0.8,5.9c0,2.1-0.2,3.8-0.8,5.3c-0.6,1.8-1.5,3.3-2.7,4.4c-0.9,0.9-2,1.5-3.5,2c-1.1,0.4-2.6,0.5-4.4,0.5l-9.5,0
		L92.9,126.7z M97.9,130.9l0,16.5l3.8,0c1.4,0,2.4-0.1,3-0.2c0.8-0.2,1.5-0.6,2-1c0.5-0.5,1-1.3,1.3-2.4c0.3-1.1,0.5-2.6,0.5-4.6
		c0-1.9-0.2-3.4-0.5-4.4c-0.3-1-0.8-1.8-1.4-2.4c-0.6-0.6-1.4-1-2.3-1.2c-0.7-0.2-2.1-0.2-4.1-0.2L97.9,130.9z"/>
	<path class="st4" d="M118.1,151.5l-0.1-24.9l17.1,0l0,4.2l-12,0l0,5.9l10.4,0l0,4.2l-10.4,0l0,10.6L118.1,151.5z"/>
</g>
<linearGradient id="SVGID_1_" gradientUnits="userSpaceOnUse" x1="31.3714" y1="105.8" x2="90.279" y2="105.8" gradientTransform="matrix(1 0 0 -1 0 199)">
	<stop  offset="0" style="stop-color:#FFEED6"/>
	<stop  offset="1" style="stop-color:#E36A5F"/>
</linearGradient>
<path class="st5" d="M88.3,111h-55c-1.1,0-2-0.9-2-2v-0.5c0-1.1,0.9-2,2-2h54.9c1.1,0,2,0.9,2,2v0.5C90.3,110.1,89.4,111,88.3,111z
	 M61.6,95.6H34.3c-1.1,0-2-0.9-2-2v-0.5c0-1.1,0.9-2,2-2h27.3c1.1,0,2,0.9,2,2v0.5C63.6,94.7,62.7,95.6,61.6,95.6z M51.4,79.9H34.3
	c-1.1,0-2-0.9-2-2v-0.5c0-1.1,0.9-2,2-2h17.1c1.1,0,2,0.9,2,2v0.5C53.4,79,52.5,79.9,51.4,79.9z"/>
<linearGradient id="SVGID_2_" gradientUnits="userSpaceOnUse" x1="31.3714" y1="143.65" x2="90.279" y2="143.65" gradientTransform="matrix(1 0 0 -1 0 199)">
	<stop  offset="0" style="stop-color:#FFEED6"/>
	<stop  offset="1" style="stop-color:#E36A5F"/>
</linearGradient>
<path class="st6" d="M88.3,45.2h-55c-1.1,0-2,0.9-2,2v0.5c0,1.1,0.9,2,2,2h54.9c1.1,0,2-0.9,2-2v-0.5C90.3,46.1,89.4,45.2,88.3,45.2
	z M61.6,61H34.3c-1.1,0-2,0.9-2,2v0.5c0,1.1,0.9,2,2,2h27.3c1.1,0,2-0.9,2-2V63C63.6,61.9,62.7,61,61.6,61z"/>
<linearGradient id="SVGID_3_" gradientUnits="userSpaceOnUse" x1="67.7" y1="103.45" x2="90.7" y2="103.45" gradientTransform="matrix(1 0 0 -1 0 199)">
	<stop  offset="0" style="stop-color:#FFEED6"/>
	<stop  offset="1" style="stop-color:#E36A5F"/>
</linearGradient>
<path class="st7" d="M78.4,105.5l12.3-19.8l-23-0.1L78.4,105.5z"/>
<linearGradient id="SVGID_4_" gradientUnits="userSpaceOnUse" x1="66.9487" y1="136.6" x2="93.0849" y2="136.6" gradientTransform="matrix(1 0 0 -1 0 199)">
	<stop  offset="0" style="stop-color:#FFEED6"/>
	<stop  offset="1" style="stop-color:#E36A5F"/>
</linearGradient>
<path class="st8" d="M85.3,88.5H73c-3.4,0-6.1-2.8-6-6.2l1.4-39.8c0.1-3.4,3-6.2,6.4-6.2h12.3c3.4,0,6.1,2.8,6,6.2l-1.4,39.8
	C91.6,85.8,88.7,88.5,85.3,88.5L85.3,88.5z"/>
</svg>
