<?xml version="1.0" encoding="utf-8"?>
<!-- Generator: Adobe Illustrator 22.0.0, SVG Export Plug-In . SVG Version: 6.00 Build 0)  -->
<svg version="1.1" id="图层_1" xmlns="http://www.w3.org/2000/svg" xmlns:xlink="http://www.w3.org/1999/xlink" x="0px" y="0px"
	 viewBox="0 0 200 200" style="enable-background:new 0 0 200 200;" xml:space="preserve">
<style type="text/css">
	.st0{fill:#DDF4D7;}
	.st1{fill:#64A73E;}
	.st2{fill:#376C1D;}
	.st3{fill:#FFFFFF;}
	.st4{enable-background:new    ;}
	.st5{fill:url(#SVGID_1_);}
	.st6{fill:url(#SVGID_2_);}
	.st7{fill:url(#SVGID_3_);}
	.st8{fill:url(#SVGID_4_);}
	.st9{fill:url(#SVGID_5_);}
	.st10{fill:url(#SVGID_6_);}
	.st11{fill:url(#SVGID_7_);}
	.st12{fill:url(#SVGID_8_);}
	.st13{fill:url(#SVGID_9_);}
	.st14{fill:url(#SVGID_10_);}
	.st15{fill:url(#SVGID_11_);}
	.st16{fill:url(#SVGID_12_);}
	.st17{fill:url(#SVGID_13_);}
	.st18{fill:url(#SVGID_14_);}
</style>
<circle class="st0" cx="100" cy="100.9" r="98"/>
<path class="st1" d="M169.2,65.3l-0.1,92.2c0,9.1-7.6,16.7-16.7,16.6l-100.2-0.2c-9.1,0-16.7-7.6-16.6-16.7l0.2-116.8
	c-0.1-9,7.5-16.5,16.6-16.5L128,24L169.2,65.3L169.2,65.3z"/>
<path class="st2" d="M127.8,56.9l0.1-32.9l41.2,41.4l-32.9-0.1C131.5,65.3,127.8,61.5,127.8,56.9"/>
<g>
	<path class="st3" d="M113.6,145.9c1.3-0.2,2.5-0.9,3.6-2l0.4-0.1l-14.2-9.8l0.1,0.4c-0.6,1.4-0.8,2.8-0.6,4.1l-1.8,14.1
		C101.1,152.6,113.6,145.9,113.6,145.9z"/>
	<path class="st3" d="M147.5,90.1l-4.6-3.1c-2.5-1.7-6-1.1-7.7,1.4l-3.1,4.6l13.7,9.4l3.1-4.6C150.7,95.2,150,91.8,147.5,90.1z"/>
	
		<rect x="105.4" y="109.9" transform="matrix(0.5669 -0.8238 0.8238 0.5669 -43.2941 154.0326)" class="st3" width="38.8" height="16.6"/>
</g>
<g class="st4">
	<path class="st3" d="M72.1,83.8l0.1-35.1l26.1,0l0,5.9l-19,0l0,7.8l17.6,0l0,5.9l-17.6,0l0,9.6l19.6,0l0,5.9L72.1,83.8z"/>
</g>
<g>
	
		<linearGradient id="SVGID_1_" gradientUnits="userSpaceOnUse" x1="-112.3103" y1="-182.1611" x2="7.0401" y2="-224.6146" gradientTransform="matrix(0.921 0.3896 -0.3896 0.921 82.6628 317.1017)">
		<stop  offset="0" style="stop-color:#D9FE64"/>
		<stop  offset="1" style="stop-color:#64A73E"/>
	</linearGradient>
	<path class="st5" d="M88.6,116c1.9,0,3.4-1.4,3.4-2.9V98.7c0-1.6-1.6-2.9-3.4-2.9l-64,0.1c-1.9,0-3.4,1.4-3.4,2.9v14.4
		c0,1.6,1.6,2.9,3.4,2.9L88.6,116z"/>
	
		<linearGradient id="SVGID_2_" gradientUnits="userSpaceOnUse" x1="-105.2355" y1="-162.2713" x2="14.1149" y2="-204.7248" gradientTransform="matrix(0.921 0.3896 -0.3896 0.921 82.6628 317.1017)">
		<stop  offset="0" style="stop-color:#D9FE64"/>
		<stop  offset="1" style="stop-color:#64A73E"/>
	</linearGradient>
	<path class="st6" d="M63.7,118.2H49.6c-1.9,0-3.4,1.4-3.4,2.9v12c0,1.6,1.6,2.9,3.4,2.9h14.1c1.9,0,3.4-1.4,3.4-2.9v-12
		C67,119.6,65.6,118.2,63.7,118.2z"/>
	
		<linearGradient id="SVGID_3_" gradientUnits="userSpaceOnUse" x1="-105.7181" y1="-163.6274" x2="13.6322" y2="-206.0809" gradientTransform="matrix(0.921 0.3896 -0.3896 0.921 82.6628 317.1017)">
		<stop  offset="0" style="stop-color:#D9FE64"/>
		<stop  offset="1" style="stop-color:#64A73E"/>
	</linearGradient>
	<path class="st7" d="M88.4,118.2H74.3c-1.9,0-3.4,1.4-3.4,2.9v12c0,1.6,1.6,2.9,3.4,2.9h14.1c1.9,0,3.4-1.4,3.4-2.9l0.1-12
		C91.9,119.6,90.3,118.4,88.4,118.2z"/>
	
		<linearGradient id="SVGID_4_" gradientUnits="userSpaceOnUse" x1="-104.683" y1="-160.7184" x2="14.6673" y2="-203.1719" gradientTransform="matrix(0.921 0.3896 -0.3896 0.921 82.6628 317.1017)">
		<stop  offset="0" style="stop-color:#D9FE64"/>
		<stop  offset="1" style="stop-color:#64A73E"/>
	</linearGradient>
	<path class="st8" d="M38.9,136.2c1.9,0,3.4-1.4,3.4-2.9v-12c0-1.6-1.6-2.9-3.4-2.9H24.8c-1.9,0-3.4,1.4-3.4,2.9v12
		c0,1.6,1.6,2.9,3.4,2.9H38.9z"/>
	
		<linearGradient id="SVGID_5_" gradientUnits="userSpaceOnUse" x1="-97.9919" y1="-141.9074" x2="21.3585" y2="-184.3608" gradientTransform="matrix(0.921 0.3896 -0.3896 0.921 82.6628 317.1017)">
		<stop  offset="0" style="stop-color:#D9FE64"/>
		<stop  offset="1" style="stop-color:#64A73E"/>
	</linearGradient>
	<path class="st9" d="M42.3,141.3c0-1.6-1.6-2.9-3.4-2.9H24.8c-1.9,0-3.4,1.4-3.4,2.9v12c0,1.6,1.6,2.9,3.4,2.9h14.1
		c1.9,0,3.4-1.4,3.4-2.9C42.3,153.3,42.3,141.3,42.3,141.3z"/>
	
		<linearGradient id="SVGID_6_" gradientUnits="userSpaceOnUse" x1="-98.9628" y1="-144.6369" x2="20.3877" y2="-187.0906" gradientTransform="matrix(0.921 0.3896 -0.3896 0.921 82.6628 317.1017)">
		<stop  offset="0" style="stop-color:#D9FE64"/>
		<stop  offset="1" style="stop-color:#64A73E"/>
	</linearGradient>
	<path class="st10" d="M91.9,153.3v-12c0-1.6-1.6-2.9-3.4-2.9H74.4c-1.9,0-3.4,1.4-3.4,2.9v12c0,1.6,1.6,2.9,3.4,2.9h14.1
		C90.4,156.2,91.9,154.9,91.9,153.3z"/>
	
		<linearGradient id="SVGID_7_" gradientUnits="userSpaceOnUse" x1="-98.4773" y1="-143.2722" x2="20.873" y2="-185.7256" gradientTransform="matrix(0.921 0.3896 -0.3896 0.921 82.6628 317.1017)">
		<stop  offset="0" style="stop-color:#D9FE64"/>
		<stop  offset="1" style="stop-color:#64A73E"/>
	</linearGradient>
	<path class="st11" d="M67.1,141.3c0-1.6-1.6-2.9-3.4-2.9H49.6c-1.9,0-3.4,1.4-3.4,2.9v12c0,1.6,1.6,2.9,3.4,2.9h14.1
		c1.9,0,3.4-1.4,3.4-2.9V141.3z"/>
	
		<linearGradient id="SVGID_8_" gradientUnits="userSpaceOnUse" x1="-141.8385" y1="-184.3113" x2="-55.1644" y2="-184.3113" gradientTransform="matrix(0.921 0.3896 -0.3896 0.921 82.6628 317.1017)">
		<stop  offset="0" style="stop-color:#D9FE64"/>
		<stop  offset="1" style="stop-color:#64A73E"/>
	</linearGradient>
	<path class="st12" d="M88.6,116c1.9,0,3.4-1.4,3.4-2.9V98.7c0-1.6-1.6-2.9-3.4-2.9l-64,0.1c-1.9,0-3.4,1.4-3.4,2.9v14.4
		c0,1.6,1.6,2.9,3.4,2.9L88.6,116z"/>
	
		<linearGradient id="SVGID_9_" gradientUnits="userSpaceOnUse" x1="-141.8132" y1="-164.8496" x2="-55.1393" y2="-164.8496" gradientTransform="matrix(0.921 0.3896 -0.3896 0.921 82.6628 317.1017)">
		<stop  offset="0" style="stop-color:#D9FE64"/>
		<stop  offset="1" style="stop-color:#64A73E"/>
	</linearGradient>
	<path class="st13" d="M63.7,118.2H49.6c-1.9,0-3.4,1.4-3.4,2.9v12c0,1.6,1.6,2.9,3.4,2.9h14.1c1.9,0,3.4-1.4,3.4-2.9v-12
		C67,119.6,65.6,118.2,63.7,118.2z"/>
	
		<linearGradient id="SVGID_10_" gradientUnits="userSpaceOnUse" x1="-141.8132" y1="-174.4393" x2="-55.1393" y2="-174.4393" gradientTransform="matrix(0.921 0.3896 -0.3896 0.921 82.6628 317.1017)">
		<stop  offset="0" style="stop-color:#D9FE64"/>
		<stop  offset="1" style="stop-color:#64A73E"/>
	</linearGradient>
	<path class="st14" d="M88.4,118.2H74.3c-1.9,0-3.4,1.4-3.4,2.9v12c0,1.6,1.6,2.9,3.4,2.9h14.1c1.9,0,3.4-1.4,3.4-2.9l0.1-12
		C91.9,119.6,90.3,118.4,88.4,118.2z"/>
	
		<linearGradient id="SVGID_11_" gradientUnits="userSpaceOnUse" x1="-141.8132" y1="-155.0062" x2="-55.1393" y2="-155.0062" gradientTransform="matrix(0.921 0.3896 -0.3896 0.921 82.6628 317.1017)">
		<stop  offset="0" style="stop-color:#D9FE64"/>
		<stop  offset="1" style="stop-color:#64A73E"/>
	</linearGradient>
	<path class="st15" d="M38.9,136.2c1.9,0,3.4-1.4,3.4-2.9v-12c0-1.6-1.6-2.9-3.4-2.9H24.8c-1.9,0-3.4,1.4-3.4,2.9v12
		c0,1.6,1.6,2.9,3.4,2.9H38.9z"/>
	
		<linearGradient id="SVGID_12_" gradientUnits="userSpaceOnUse" x1="-141.8132" y1="-136.5867" x2="-55.1393" y2="-136.5867" gradientTransform="matrix(0.921 0.3896 -0.3896 0.921 82.6628 317.1017)">
		<stop  offset="0" style="stop-color:#D9FE64"/>
		<stop  offset="1" style="stop-color:#64A73E"/>
	</linearGradient>
	<path class="st16" d="M42.3,141.3c0-1.6-1.6-2.9-3.4-2.9H24.8c-1.9,0-3.4,1.4-3.4,2.9v12c0,1.6,1.6,2.9,3.4,2.9h14.1
		c1.9,0,3.4-1.4,3.4-2.9C42.3,153.3,42.3,141.3,42.3,141.3z"/>
	
		<linearGradient id="SVGID_13_" gradientUnits="userSpaceOnUse" x1="-141.8132" y1="-155.9103" x2="-55.1393" y2="-155.9103" gradientTransform="matrix(0.921 0.3896 -0.3896 0.921 82.6628 317.1017)">
		<stop  offset="0" style="stop-color:#D9FE64"/>
		<stop  offset="1" style="stop-color:#64A73E"/>
	</linearGradient>
	<path class="st17" d="M91.9,153.3v-12c0-1.6-1.6-2.9-3.4-2.9H74.4c-1.9,0-3.4,1.4-3.4,2.9v12c0,1.6,1.6,2.9,3.4,2.9h14.1
		C90.4,156.2,91.9,154.9,91.9,153.3z"/>
	
		<linearGradient id="SVGID_14_" gradientUnits="userSpaceOnUse" x1="-141.8132" y1="-146.2485" x2="-55.1393" y2="-146.2485" gradientTransform="matrix(0.921 0.3896 -0.3896 0.921 82.6628 317.1017)">
		<stop  offset="0" style="stop-color:#D9FE64"/>
		<stop  offset="1" style="stop-color:#64A73E"/>
	</linearGradient>
	<path class="st18" d="M67.1,141.3c0-1.6-1.6-2.9-3.4-2.9H49.6c-1.9,0-3.4,1.4-3.4,2.9v12c0,1.6,1.6,2.9,3.4,2.9h14.1
		c1.9,0,3.4-1.4,3.4-2.9V141.3z"/>
</g>
</svg>
