<?xml version="1.0" encoding="utf-8"?>
<!-- Generator: Adobe Illustrator 22.0.0, SVG Export Plug-In . SVG Version: 6.00 Build 0)  -->
<svg version="1.1" id="图层_1" xmlns="http://www.w3.org/2000/svg" xmlns:xlink="http://www.w3.org/1999/xlink" x="0px" y="0px"
	 viewBox="0 0 200 200" style="enable-background:new 0 0 200 200;" xml:space="preserve">
<style type="text/css">
	.st0{fill:#E8FFE3;}
	.st1{fill:#64A73E;}
	.st2{fill:#376C1D;}
	.st3{fill:#E36A5F;}
	.st4{fill:#AF5149;}
	.st5{enable-background:new    ;}
	.st6{fill:#FFFFFF;}
	.st7{fill:url(#SVGID_1_);}
	.st8{fill:url(#SVGID_2_);}
	.st9{fill:url(#SVGID_3_);}
	.st10{fill:url(#SVGID_4_);}
	.st11{fill:url(#SVGID_5_);}
	.st12{fill:url(#SVGID_6_);}
	.st13{fill:url(#SVGID_7_);}
	.st14{fill:url(#SVGID_8_);}
	.st15{fill:url(#SVGID_9_);}
	.st16{fill:url(#SVGID_10_);}
	.st17{fill:url(#SVGID_11_);}
	.st18{fill:url(#SVGID_12_);}
	.st19{fill:url(#SVGID_13_);}
	.st20{fill:url(#SVGID_14_);}
	.st21{fill:url(#SVGID_15_);}
</style>
<circle class="st0" cx="100" cy="100.9" r="98"/>
<path class="st1" d="M132.3,52.5l-0.1,78.9c0,7.8-6.5,14.3-14.3,14.2l-85.8-0.2c-7.8,0-14.3-6.5-14.2-14.3l0.2-100
	C18,23.4,24.5,17,32.3,17L97,17.1L132.3,52.5L132.3,52.5z"/>
<path class="st2" d="M96.9,45.3L97,17.1l35.3,35.4l-28.2-0.1C100.1,52.5,96.9,49.3,96.9,45.3"/>
<g>
	<path class="st3" d="M181.9,106.7l-0.1,64.2c0,6.3-5.3,11.6-11.6,11.6l-69.8-0.2c-6.3,0-11.6-5.3-11.6-11.6L89,89.3
		c-0.1-6.3,5.2-11.5,11.6-11.5l52.7,0.1L181.9,106.7L181.9,106.7z"/>
	<path class="st4" d="M153.1,100.9l0.1-22.9l28.7,28.8l-22.9-0.1C155.7,106.7,153.1,104.1,153.1,100.9"/>
	<g class="st5">
		<path class="st6" d="M107.8,166.9l0-22.4l7.3,0c2.8,0,4.5,0.1,5.4,0.3c1.3,0.3,2.4,1.1,3.2,2.2c0.9,1.1,1.3,2.6,1.3,4.4
			c0,1.4-0.3,2.5-0.8,3.5c-0.5,0.9-1.1,1.7-1.9,2.2c-0.8,0.5-1.6,0.9-2.4,1.1c-1.1,0.2-2.6,0.3-4.7,0.3l-3,0l0,8.5L107.8,166.9z
			 M112.4,148.3l0,6.4l2.5,0c1.8,0,3-0.1,3.6-0.3c0.6-0.2,1.1-0.6,1.4-1.1c0.3-0.5,0.5-1.1,0.5-1.7c0-0.8-0.2-1.5-0.7-2
			s-1.1-0.9-1.8-1c-0.5-0.1-1.6-0.2-3.3-0.2L112.4,148.3z"/>
		<path class="st6" d="M128.7,144.5l8.3,0c1.9,0,3.3,0.1,4.3,0.4c1.3,0.4,2.4,1.1,3.4,2.1c0.9,1,1.6,2.2,2.1,3.6
			c0.5,1.4,0.7,3.2,0.7,5.3c0,1.8-0.2,3.4-0.7,4.8c-0.6,1.6-1.4,3-2.4,4c-0.8,0.8-1.8,1.4-3.2,1.8c-1,0.3-2.3,0.5-4,0.5l-8.5,0
			L128.7,144.5z M133.2,148.3l0,14.9l3.4,0c1.3,0,2.2-0.1,2.7-0.2c0.7-0.2,1.3-0.5,1.8-0.9c0.5-0.4,0.9-1.2,1.2-2.2
			c0.3-1,0.5-2.4,0.5-4.1c0-1.7-0.1-3.1-0.5-4c-0.3-0.9-0.7-1.7-1.3-2.2c-0.5-0.5-1.2-0.9-2.1-1.1c-0.6-0.1-1.9-0.2-3.7-0.2
			L133.2,148.3z"/>
		<path class="st6" d="M151.4,167l0-22.4l15.4,0l0,3.8l-10.8,0l0,5.3l9.4,0l0,3.8l-9.4,0l0,9.5L151.4,167z"/>
	</g>
</g>
<g>
	<path class="st2" d="M46.7,67.9L46,33.5L71.5,33l0.1,5.8l-18.5,0.3l0.2,7.7l17.3-0.4l0.1,5.8l-17.3,0.4l0.2,9.4l19.2-0.4l0.1,5.8
		L46.7,67.9z"/>
</g>
<g>
	
		<linearGradient id="SVGID_1_" gradientUnits="userSpaceOnUse" x1="-132.1899" y1="-187.8755" x2="-26.588" y2="-225.4386" gradientTransform="matrix(0.921 0.3896 -0.3896 0.921 82.6628 317.1017)">
		<stop  offset="0" style="stop-color:#D9FE64"/>
		<stop  offset="0.6974" style="stop-color:#64A73E"/>
	</linearGradient>
	<path class="st7" d="M68.1,101.8c1.7,0,3-1.2,3-2.6V86.5c0-1.4-1.4-2.6-3-2.6L11.5,84c-1.7,0-3,1.2-3,2.6v12.7c0,1.4,1.4,2.6,3,2.6
		L68.1,101.8z"/>
	
		<linearGradient id="SVGID_2_" gradientUnits="userSpaceOnUse" x1="-125.9011" y1="-170.1959" x2="-20.2992" y2="-207.759" gradientTransform="matrix(0.921 0.3896 -0.3896 0.921 82.6628 317.1017)">
		<stop  offset="0" style="stop-color:#D9FE64"/>
		<stop  offset="0.6974" style="stop-color:#64A73E"/>
	</linearGradient>
	<path class="st8" d="M46.1,103.8H33.6c-1.7,0-3,1.2-3,2.6V117c0,1.4,1.4,2.6,3,2.6h12.5c1.7,0,3-1.2,3-2.6v-10.6
		C49,105,47.7,103.8,46.1,103.8z"/>
	
		<linearGradient id="SVGID_3_" gradientUnits="userSpaceOnUse" x1="-126.3269" y1="-171.3931" x2="-20.7251" y2="-208.9562" gradientTransform="matrix(0.921 0.3896 -0.3896 0.921 82.6628 317.1017)">
		<stop  offset="0" style="stop-color:#D9FE64"/>
		<stop  offset="0.6974" style="stop-color:#64A73E"/>
	</linearGradient>
	<path class="st9" d="M67.9,103.8H55.4c-1.7,0-3,1.2-3,2.6V117c0,1.4,1.4,2.6,3,2.6h12.5c1.7,0,3-1.2,3-2.6l0.1-10.6
		C71,105,69.6,103.9,67.9,103.8z"/>
	
		<linearGradient id="SVGID_4_" gradientUnits="userSpaceOnUse" x1="-125.4371" y1="-168.8912" x2="-19.8352" y2="-206.4543" gradientTransform="matrix(0.921 0.3896 -0.3896 0.921 82.6628 317.1017)">
		<stop  offset="0" style="stop-color:#D9FE64"/>
		<stop  offset="0.6974" style="stop-color:#64A73E"/>
	</linearGradient>
	<path class="st10" d="M24.1,119.7c1.7,0,3-1.2,3-2.6v-10.6c0-1.4-1.4-2.6-3-2.6H11.6c-1.7,0-3,1.2-3,2.6v10.6c0,1.4,1.4,2.6,3,2.6
		H24.1z"/>
	
		<linearGradient id="SVGID_5_" gradientUnits="userSpaceOnUse" x1="-119.5154" y1="-152.2435" x2="-13.9135" y2="-189.8065" gradientTransform="matrix(0.921 0.3896 -0.3896 0.921 82.6628 317.1017)">
		<stop  offset="0" style="stop-color:#D9FE64"/>
		<stop  offset="0.6974" style="stop-color:#64A73E"/>
	</linearGradient>
	<path class="st11" d="M27.1,124.2c0-1.4-1.4-2.6-3-2.6H11.6c-1.7,0-3,1.2-3,2.6v10.6c0,1.4,1.4,2.6,3,2.6h12.5c1.7,0,3-1.2,3-2.6
		V124.2z"/>
	
		<linearGradient id="SVGID_6_" gradientUnits="userSpaceOnUse" x1="-120.3746" y1="-154.6594" x2="-14.7727" y2="-192.2226" gradientTransform="matrix(0.921 0.3896 -0.3896 0.921 82.6628 317.1017)">
		<stop  offset="0" style="stop-color:#D9FE64"/>
		<stop  offset="0.6974" style="stop-color:#64A73E"/>
	</linearGradient>
	<path class="st12" d="M71,134.8v-10.6c0-1.4-1.4-2.6-3-2.6H55.5c-1.7,0-3,1.2-3,2.6v10.6c0,1.4,1.4,2.6,3,2.6H68
		C69.7,137.4,71,136.2,71,134.8z"/>
	
		<linearGradient id="SVGID_7_" gradientUnits="userSpaceOnUse" x1="-119.946" y1="-153.4542" x2="-14.3442" y2="-191.0173" gradientTransform="matrix(0.921 0.3896 -0.3896 0.921 82.6628 317.1017)">
		<stop  offset="0" style="stop-color:#D9FE64"/>
		<stop  offset="0.6974" style="stop-color:#64A73E"/>
	</linearGradient>
	<path class="st13" d="M49.1,124.2c0-1.4-1.4-2.6-3-2.6H33.6c-1.7,0-3,1.2-3,2.6v10.6c0,1.4,1.4,2.6,3,2.6h12.5c1.7,0,3-1.2,3-2.6
		V124.2z"/>
	
		<linearGradient id="SVGID_8_" gradientUnits="userSpaceOnUse" x1="-158.2823" y1="-189.7849" x2="-81.5926" y2="-189.7849" gradientTransform="matrix(0.921 0.3896 -0.3896 0.921 82.6628 317.1017)">
		<stop  offset="0" style="stop-color:#D9FE64"/>
		<stop  offset="0.6974" style="stop-color:#64A73E"/>
	</linearGradient>
	<path class="st14" d="M68.1,101.8c1.7,0,3-1.2,3-2.6V86.5c0-1.4-1.4-2.6-3-2.6L11.5,84c-1.7,0-3,1.2-3,2.6v12.7
		c0,1.4,1.4,2.6,3,2.6L68.1,101.8z"/>
	
		<linearGradient id="SVGID_9_" gradientUnits="userSpaceOnUse" x1="-158.2854" y1="-172.4869" x2="-81.5958" y2="-172.4869" gradientTransform="matrix(0.921 0.3896 -0.3896 0.921 82.6628 317.1017)">
		<stop  offset="0" style="stop-color:#D9FE64"/>
		<stop  offset="0.6974" style="stop-color:#64A73E"/>
	</linearGradient>
	<path class="st15" d="M46.1,103.8H33.6c-1.7,0-3,1.2-3,2.6V117c0,1.4,1.4,2.6,3,2.6h12.5c1.7,0,3-1.2,3-2.6v-10.6
		C49,105,47.7,103.8,46.1,103.8z"/>
	
		<linearGradient id="SVGID_10_" gradientUnits="userSpaceOnUse" x1="-158.2854" y1="-180.9753" x2="-81.5958" y2="-180.9753" gradientTransform="matrix(0.921 0.3896 -0.3896 0.921 82.6628 317.1017)">
		<stop  offset="0" style="stop-color:#D9FE64"/>
		<stop  offset="0.6974" style="stop-color:#64A73E"/>
	</linearGradient>
	<path class="st16" d="M67.9,103.8H55.4c-1.7,0-3,1.2-3,2.6V117c0,1.4,1.4,2.6,3,2.6h12.5c1.7,0,3-1.2,3-2.6l0.1-10.6
		C71,105,69.6,103.9,67.9,103.8z"/>
	
		<linearGradient id="SVGID_11_" gradientUnits="userSpaceOnUse" x1="-158.2854" y1="-163.827" x2="-81.5958" y2="-163.827" gradientTransform="matrix(0.921 0.3896 -0.3896 0.921 82.6628 317.1017)">
		<stop  offset="0" style="stop-color:#D9FE64"/>
		<stop  offset="0.6974" style="stop-color:#64A73E"/>
	</linearGradient>
	<path class="st17" d="M24.1,119.7c1.7,0,3-1.2,3-2.6v-10.6c0-1.4-1.4-2.6-3-2.6H11.6c-1.7,0-3,1.2-3,2.6v10.6c0,1.4,1.4,2.6,3,2.6
		H24.1z"/>
	
		<linearGradient id="SVGID_12_" gradientUnits="userSpaceOnUse" x1="-158.2854" y1="-147.5258" x2="-81.5958" y2="-147.5258" gradientTransform="matrix(0.921 0.3896 -0.3896 0.921 82.6628 317.1017)">
		<stop  offset="0" style="stop-color:#D9FE64"/>
		<stop  offset="0.6974" style="stop-color:#64A73E"/>
	</linearGradient>
	<path class="st18" d="M27.1,124.2c0-1.4-1.4-2.6-3-2.6H11.6c-1.7,0-3,1.2-3,2.6v10.6c0,1.4,1.4,2.6,3,2.6h12.5c1.7,0,3-1.2,3-2.6
		V124.2z"/>
	
		<linearGradient id="SVGID_13_" gradientUnits="userSpaceOnUse" x1="-158.2854" y1="-164.6287" x2="-81.5958" y2="-164.6287" gradientTransform="matrix(0.921 0.3896 -0.3896 0.921 82.6628 317.1017)">
		<stop  offset="0" style="stop-color:#D9FE64"/>
		<stop  offset="0.6974" style="stop-color:#64A73E"/>
	</linearGradient>
	<path class="st19" d="M71,134.8v-10.6c0-1.4-1.4-2.6-3-2.6H55.5c-1.7,0-3,1.2-3,2.6v10.6c0,1.4,1.4,2.6,3,2.6H68
		C69.7,137.4,71,136.2,71,134.8z"/>
	
		<linearGradient id="SVGID_14_" gradientUnits="userSpaceOnUse" x1="-158.2854" y1="-156.0968" x2="-81.5958" y2="-156.0968" gradientTransform="matrix(0.921 0.3896 -0.3896 0.921 82.6628 317.1017)">
		<stop  offset="0" style="stop-color:#D9FE64"/>
		<stop  offset="0.6974" style="stop-color:#64A73E"/>
	</linearGradient>
	<path class="st20" d="M49.1,124.2c0-1.4-1.4-2.6-3-2.6H33.6c-1.7,0-3,1.2-3,2.6v10.6c0,1.4,1.4,2.6,3,2.6h12.5c1.7,0,3-1.2,3-2.6
		V124.2z"/>
</g>
<linearGradient id="SVGID_15_" gradientUnits="userSpaceOnUse" x1="112.7613" y1="-372.5793" x2="158.0312" y2="-372.5793" gradientTransform="matrix(0.9832 -0.1825 0.1825 0.9832 -6.5476 498.182)">
	<stop  offset="0" style="stop-color:#FFFFFF"/>
	<stop  offset="1" style="stop-color:#64A73E"/>
</linearGradient>
<path class="st21" d="M34.4,89.6c0.1,0.5,0.3,1.4,0.7,2.8s1,2.7,1.6,4c0.7,1.3,1.7,2.7,3.2,4.3c1.4,1.6,3.1,3,4.9,4.1
	c1.9,1.1,4.3,2.2,7.4,3c3,0.9,6.4,1.4,10.1,1.6l-0.3-4.9c0-0.1,0-0.5,0-0.7s0.1-0.4,0.3-0.7c0.2-0.4,0.4-0.6,0.7-0.8
	c0.3-0.2,0.9-0.5,1.6-0.4c0.7,0.1,1.6,0.4,2.6,1L81.6,113c0,0,0.1,0.1,0.2,0.1l0.4,0.4c0.2,0.2,0.3,0.4,0.5,0.6
	c0.1,0.2,0.3,0.4,0.4,0.8c0.1,0.3,0.2,0.6,0.1,0.9c0,0.3-0.1,0.6-0.3,0.9c-0.2,0.3-0.5,0.7-0.8,1l-14.3,10.5l-0.5,0.3
	c-0.3,0.1-0.5,0.2-0.8,0.2s-0.3,0-0.6,0c-0.3,0-0.4-0.1-0.7-0.1c-0.3-0.1-0.6-0.2-0.8-0.4c-0.2-0.2-0.5-0.4-0.7-0.7
	c-0.2-0.4-0.3-0.8-0.4-1.3l-0.2-4.9c-4-0.1-8.2-1-12.4-2.7c-9.6-3.8-15.1-10.2-16.5-19.4c-0.4-3.3-0.4-6.8,0.2-10.6
	C34.3,88.8,34.3,89.2,34.4,89.6z"/>
</svg>
