<?xml version="1.0" encoding="utf-8"?>
<!-- Generator: Adobe Illustrator 22.0.0, SVG Export Plug-In . SVG Version: 6.00 Build 0)  -->
<svg version="1.1" id="图层_1" xmlns="http://www.w3.org/2000/svg" xmlns:xlink="http://www.w3.org/1999/xlink" x="0px" y="0px"
	 viewBox="0 0 200 200" style="enable-background:new 0 0 200 200;" xml:space="preserve">
<style type="text/css">
	.st0{fill:#DDF4D7;}
	.st1{fill:#64A73E;}
	.st2{fill:#376C1D;}
	.st3{enable-background:new    ;}
	.st4{fill:#FFFFFF;}
	.st5{fill:url(#SVGID_1_);}
	.st6{fill:url(#SVGID_2_);}
	.st7{fill:url(#SVGID_3_);}
	.st8{fill:url(#SVGID_4_);}
	.st9{fill:url(#SVGID_5_);}
	.st10{fill:url(#SVGID_6_);}
	.st11{fill:url(#SVGID_7_);}
	.st12{fill:url(#SVGID_8_);}
	.st13{fill:url(#SVGID_9_);}
	.st14{fill:url(#SVGID_10_);}
	.st15{fill:url(#SVGID_11_);}
	.st16{fill:url(#SVGID_12_);}
	.st17{fill:url(#SVGID_13_);}
	.st18{fill:url(#SVGID_14_);}
</style>
<circle class="st0" cx="100" cy="100.9" r="98"/>
<path class="st1" d="M169.2,65.3l-0.1,92.2c0,9.1-7.6,16.7-16.7,16.6l-100.2-0.2c-9.1,0-16.7-7.6-16.6-16.7l0.2-116.8
	c-0.1-9,7.5-16.5,16.6-16.5L128,24L169.2,65.3L169.2,65.3z"/>
<path class="st2" d="M127.8,56.9l0.1-32.9l41.2,41.4l-32.9-0.1C131.5,65.3,127.8,61.5,127.8,56.9"/>
<g class="st3">
	<path class="st4" d="M72.1,83.8l0.1-35.1l26.1,0l0,5.9l-19,0l0,7.8l17.6,0l0,5.9l-17.6,0l0,9.6l19.6,0l0,5.9L72.1,83.8z"/>
</g>
<g>
	
		<linearGradient id="SVGID_1_" gradientUnits="userSpaceOnUse" x1="-137.1552" y1="343.6719" x2="-17.8048" y2="386.1254" gradientTransform="matrix(0.921 0.3896 0.3896 -0.921 42.6204 475.5327)">
		<stop  offset="0" style="stop-color:#D9FE64"/>
		<stop  offset="1" style="stop-color:#64A73E"/>
	</linearGradient>
	<path class="st5" d="M88.6,116c1.9,0,3.4-1.4,3.4-2.9V98.7c0-1.6-1.6-2.9-3.4-2.9l-64,0.1c-1.9,0-3.4,1.4-3.4,2.9v14.4
		c0,1.6,1.6,2.9,3.4,2.9L88.6,116z"/>
	
		<linearGradient id="SVGID_2_" gradientUnits="userSpaceOnUse" x1="-130.0804" y1="323.7821" x2="-10.73" y2="366.2356" gradientTransform="matrix(0.921 0.3896 0.3896 -0.921 42.6204 475.5327)">
		<stop  offset="0" style="stop-color:#D9FE64"/>
		<stop  offset="1" style="stop-color:#64A73E"/>
	</linearGradient>
	<path class="st6" d="M63.7,118.2H49.6c-1.9,0-3.4,1.4-3.4,2.9v12c0,1.6,1.6,2.9,3.4,2.9h14.1c1.9,0,3.4-1.4,3.4-2.9v-12
		C67,119.6,65.6,118.2,63.7,118.2z"/>
	
		<linearGradient id="SVGID_3_" gradientUnits="userSpaceOnUse" x1="-130.5631" y1="325.1382" x2="-11.2128" y2="367.5917" gradientTransform="matrix(0.921 0.3896 0.3896 -0.921 42.6204 475.5327)">
		<stop  offset="0" style="stop-color:#D9FE64"/>
		<stop  offset="1" style="stop-color:#64A73E"/>
	</linearGradient>
	<path class="st7" d="M88.4,118.2H74.3c-1.9,0-3.4,1.4-3.4,2.9v12c0,1.6,1.6,2.9,3.4,2.9h14.1c1.9,0,3.4-1.4,3.4-2.9l0.1-12
		C91.9,119.6,90.3,118.4,88.4,118.2z"/>
	
		<linearGradient id="SVGID_4_" gradientUnits="userSpaceOnUse" x1="-129.5279" y1="322.2292" x2="-10.1776" y2="364.6826" gradientTransform="matrix(0.921 0.3896 0.3896 -0.921 42.6204 475.5327)">
		<stop  offset="0" style="stop-color:#D9FE64"/>
		<stop  offset="1" style="stop-color:#64A73E"/>
	</linearGradient>
	<path class="st8" d="M38.9,136.2c1.9,0,3.4-1.4,3.4-2.9v-12c0-1.6-1.6-2.9-3.4-2.9H24.8c-1.9,0-3.4,1.4-3.4,2.9v12
		c0,1.6,1.6,2.9,3.4,2.9H38.9z"/>
	
		<linearGradient id="SVGID_5_" gradientUnits="userSpaceOnUse" x1="-122.8368" y1="303.4182" x2="-3.4864" y2="345.8716" gradientTransform="matrix(0.921 0.3896 0.3896 -0.921 42.6204 475.5327)">
		<stop  offset="0" style="stop-color:#D9FE64"/>
		<stop  offset="1" style="stop-color:#64A73E"/>
	</linearGradient>
	<path class="st9" d="M42.3,141.3c0-1.6-1.6-2.9-3.4-2.9H24.8c-1.9,0-3.4,1.4-3.4,2.9v12c0,1.6,1.6,2.9,3.4,2.9h14.1
		c1.9,0,3.4-1.4,3.4-2.9C42.3,153.3,42.3,141.3,42.3,141.3z"/>
	
		<linearGradient id="SVGID_6_" gradientUnits="userSpaceOnUse" x1="-123.8077" y1="306.1477" x2="-4.4573" y2="348.6014" gradientTransform="matrix(0.921 0.3896 0.3896 -0.921 42.6204 475.5327)">
		<stop  offset="0" style="stop-color:#D9FE64"/>
		<stop  offset="1" style="stop-color:#64A73E"/>
	</linearGradient>
	<path class="st10" d="M91.9,153.3v-12c0-1.6-1.6-2.9-3.4-2.9H74.4c-1.9,0-3.4,1.4-3.4,2.9v12c0,1.6,1.6,2.9,3.4,2.9h14.1
		C90.4,156.2,91.9,154.9,91.9,153.3z"/>
	
		<linearGradient id="SVGID_7_" gradientUnits="userSpaceOnUse" x1="-123.3222" y1="304.783" x2="-3.9719" y2="347.2364" gradientTransform="matrix(0.921 0.3896 0.3896 -0.921 42.6204 475.5327)">
		<stop  offset="0" style="stop-color:#D9FE64"/>
		<stop  offset="1" style="stop-color:#64A73E"/>
	</linearGradient>
	<path class="st11" d="M67.1,141.3c0-1.6-1.6-2.9-3.4-2.9H49.6c-1.9,0-3.4,1.4-3.4,2.9v12c0,1.6,1.6,2.9,3.4,2.9h14.1
		c1.9,0,3.4-1.4,3.4-2.9V141.3z"/>
	
		<linearGradient id="SVGID_8_" gradientUnits="userSpaceOnUse" x1="-166.6834" y1="345.8221" x2="-80.0093" y2="345.8221" gradientTransform="matrix(0.921 0.3896 0.3896 -0.921 42.6204 475.5327)">
		<stop  offset="0" style="stop-color:#D9FE64"/>
		<stop  offset="1" style="stop-color:#64A73E"/>
	</linearGradient>
	<path class="st12" d="M88.6,116c1.9,0,3.4-1.4,3.4-2.9V98.7c0-1.6-1.6-2.9-3.4-2.9l-64,0.1c-1.9,0-3.4,1.4-3.4,2.9v14.4
		c0,1.6,1.6,2.9,3.4,2.9L88.6,116z"/>
	
		<linearGradient id="SVGID_9_" gradientUnits="userSpaceOnUse" x1="-166.6581" y1="326.3604" x2="-79.9842" y2="326.3604" gradientTransform="matrix(0.921 0.3896 0.3896 -0.921 42.6204 475.5327)">
		<stop  offset="0" style="stop-color:#D9FE64"/>
		<stop  offset="1" style="stop-color:#64A73E"/>
	</linearGradient>
	<path class="st13" d="M63.7,118.2H49.6c-1.9,0-3.4,1.4-3.4,2.9v12c0,1.6,1.6,2.9,3.4,2.9h14.1c1.9,0,3.4-1.4,3.4-2.9v-12
		C67,119.6,65.6,118.2,63.7,118.2z"/>
	
		<linearGradient id="SVGID_10_" gradientUnits="userSpaceOnUse" x1="-166.6581" y1="335.9501" x2="-79.9842" y2="335.9501" gradientTransform="matrix(0.921 0.3896 0.3896 -0.921 42.6204 475.5327)">
		<stop  offset="0" style="stop-color:#D9FE64"/>
		<stop  offset="1" style="stop-color:#64A73E"/>
	</linearGradient>
	<path class="st14" d="M88.4,118.2H74.3c-1.9,0-3.4,1.4-3.4,2.9v12c0,1.6,1.6,2.9,3.4,2.9h14.1c1.9,0,3.4-1.4,3.4-2.9l0.1-12
		C91.9,119.6,90.3,118.4,88.4,118.2z"/>
	
		<linearGradient id="SVGID_11_" gradientUnits="userSpaceOnUse" x1="-166.6581" y1="316.5169" x2="-79.9842" y2="316.5169" gradientTransform="matrix(0.921 0.3896 0.3896 -0.921 42.6204 475.5327)">
		<stop  offset="0" style="stop-color:#D9FE64"/>
		<stop  offset="1" style="stop-color:#64A73E"/>
	</linearGradient>
	<path class="st15" d="M38.9,136.2c1.9,0,3.4-1.4,3.4-2.9v-12c0-1.6-1.6-2.9-3.4-2.9H24.8c-1.9,0-3.4,1.4-3.4,2.9v12
		c0,1.6,1.6,2.9,3.4,2.9H38.9z"/>
	
		<linearGradient id="SVGID_12_" gradientUnits="userSpaceOnUse" x1="-166.6581" y1="298.0975" x2="-79.9842" y2="298.0975" gradientTransform="matrix(0.921 0.3896 0.3896 -0.921 42.6204 475.5327)">
		<stop  offset="0" style="stop-color:#D9FE64"/>
		<stop  offset="1" style="stop-color:#64A73E"/>
	</linearGradient>
	<path class="st16" d="M42.3,141.3c0-1.6-1.6-2.9-3.4-2.9H24.8c-1.9,0-3.4,1.4-3.4,2.9v12c0,1.6,1.6,2.9,3.4,2.9h14.1
		c1.9,0,3.4-1.4,3.4-2.9C42.3,153.3,42.3,141.3,42.3,141.3z"/>
	
		<linearGradient id="SVGID_13_" gradientUnits="userSpaceOnUse" x1="-166.6581" y1="317.4211" x2="-79.9842" y2="317.4211" gradientTransform="matrix(0.921 0.3896 0.3896 -0.921 42.6204 475.5327)">
		<stop  offset="0" style="stop-color:#D9FE64"/>
		<stop  offset="1" style="stop-color:#64A73E"/>
	</linearGradient>
	<path class="st17" d="M91.9,153.3v-12c0-1.6-1.6-2.9-3.4-2.9H74.4c-1.9,0-3.4,1.4-3.4,2.9v12c0,1.6,1.6,2.9,3.4,2.9h14.1
		C90.4,156.2,91.9,154.9,91.9,153.3z"/>
	
		<linearGradient id="SVGID_14_" gradientUnits="userSpaceOnUse" x1="-166.6581" y1="307.7593" x2="-79.9842" y2="307.7593" gradientTransform="matrix(0.921 0.3896 0.3896 -0.921 42.6204 475.5327)">
		<stop  offset="0" style="stop-color:#D9FE64"/>
		<stop  offset="1" style="stop-color:#64A73E"/>
	</linearGradient>
	<path class="st18" d="M67.1,141.3c0-1.6-1.6-2.9-3.4-2.9H49.6c-1.9,0-3.4,1.4-3.4,2.9v12c0,1.6,1.6,2.9,3.4,2.9h14.1
		c1.9,0,3.4-1.4,3.4-2.9V141.3z"/>
</g>
<path class="st4" d="M104.2,147.6V139c0-1.2-1-2.2-2.2-2.2s-2.2,1-2.2,2.2v9.3c0,2,1.6,3.6,3.6,3.6h9.3c1.2,0,2.2-1,2.2-2.2
	s-1-2.2-2.2-2.2L104.2,147.6L104.2,147.6z M104.2,102.3h8.6c1.2,0,2.2-1,2.2-2.2s-1-2.2-2.2-2.2h-9.3c-2,0-3.6,1.6-3.6,3.6v9.3
	c0,1.2,1,2.2,2.2,2.2s2.2-1,2.2-2.2L104.2,102.3L104.2,102.3z M149.4,102.3v8.6c0,1.2,1,2.2,2.2,2.2s2.2-1,2.2-2.2v-9.3
	c0-2-1.6-3.6-3.6-3.6h-9.3c-1.2,0-2.2,1-2.2,2.2s1,2.2,2.2,2.2L149.4,102.3L149.4,102.3z M149.4,147.6h-8.6c-1.2,0-2.2,1-2.2,2.2
	s1,2.2,2.2,2.2h9.3c2,0,3.6-1.6,3.6-3.6V139c0-1.2-1-2.2-2.2-2.2s-2.2,1-2.2,2.2L149.4,147.6L149.4,147.6z M126.8,113.5
	c-11.4,0-19.1,11.4-19.1,11.4s7.6,11.4,19.1,11.4s19.1-11.4,19.1-11.4S138.2,113.5,126.8,113.5z M126.8,132.5
	c-4.2,0-7.6-3.4-7.6-7.6c0-4.2,3.4-7.6,7.6-7.6s7.6,3.4,7.6,7.6C134.4,129.1,131,132.5,126.8,132.5z M123,124.9c0,1,0.4,2,1.1,2.7
	c0.7,0.7,1.7,1.1,2.7,1.1s2-0.4,2.7-1.1c0.7-0.7,1.1-1.7,1.1-2.7s-0.4-2-1.1-2.7c-0.7-0.7-1.7-1.1-2.7-1.1s-2,0.4-2.7,1.1
	C123.4,122.9,123,123.9,123,124.9z"/>
</svg>
