<?xml version="1.0" encoding="utf-8"?>
<!-- Generator: Adobe Illustrator 22.0.0, SVG Export Plug-In . SVG Version: 6.00 Build 0)  -->
<svg version="1.1" id="图层_1" xmlns="http://www.w3.org/2000/svg" xmlns:xlink="http://www.w3.org/1999/xlink" x="0px" y="0px"
	 viewBox="0 0 200 200" style="enable-background:new 0 0 200 200;" xml:space="preserve">
<style type="text/css">
	.st0{fill:#F9E8FF;}
	.st1{fill:#B968CA;}
	.st2{fill:#81478D;}
	.st3{enable-background:new    ;}
	.st4{fill:url(#SVGID_1_);}
	.st5{fill:url(#SVGID_2_);}
	.st6{fill:#E36A5F;}
	.st7{fill:#AF5149;}
	.st8{fill:#FFFFFF;}
</style>
<circle class="st0" cx="100" cy="100.9" r="98"/>
<g>
	<g>
		<path class="st1" d="M132.1,53.4l-0.2,78.2c0,7.8-6.4,14.2-14.2,14.1l-84.9-0.1c-7.8,0-14.2-6.4-14.1-14.2L19,32.3
			c0-7.8,6.4-14.2,14.2-14.1l63.9,0.1L132.1,53.4L132.1,53.4z"/>
	</g>
	<path class="st2" d="M97.2,46.1l0.1-28l34.9,35.1l-28-0.1C100.3,53.3,97.2,50.1,97.2,46.1"/>
	<g class="st3">
		<path class="st2" d="M41.9,39l4.1,0l0,12.9c0,1.7-0.2,3-0.5,3.9c-0.4,1.2-1.1,2.1-2.2,2.8c-1,0.7-2.4,1.1-4.1,1.1
			c-2,0-3.6-0.6-4.6-1.7c-1.1-1.1-1.6-2.8-1.6-4.9l3.9-0.4c0,1.2,0.2,2,0.5,2.5c0.4,0.7,1.1,1.1,2,1.1c0.9,0,1.6-0.3,1.9-0.8
			s0.6-1.6,0.6-3.3L41.9,39z"/>
		<path class="st2" d="M50.3,59.4l0-20.3l6.6,0c2.5,0,4.1,0.1,4.9,0.3c1.2,0.3,2.1,1,2.9,2c0.8,1,1.2,2.3,1.2,4
			c0,1.2-0.2,2.3-0.7,3.1s-1,1.5-1.7,2c-0.7,0.5-1.4,0.8-2.1,1c-1,0.2-2.4,0.3-4.3,0.3l-2.7,0l0,7.7L50.3,59.4z M54.4,42.5l0,5.8
			l2.2,0c1.6,0,2.7-0.1,3.2-0.3c0.5-0.2,1-0.5,1.3-1c0.3-0.5,0.5-1,0.5-1.6c0-0.7-0.2-1.4-0.6-1.8c-0.4-0.5-1-0.8-1.6-0.9
			c-0.5-0.1-1.5-0.1-3-0.1L54.4,42.5z"/>
		<path class="st2" d="M78.7,52l0-3.4l8.8,0l0,8.1c-0.9,0.8-2.1,1.6-3.7,2.2c-1.6,0.6-3.3,0.9-5,0.9c-2.1,0-4-0.5-5.6-1.4
			c-1.6-0.9-2.8-2.2-3.6-3.8c-0.8-1.7-1.2-3.5-1.2-5.4c0-2.1,0.5-4,1.3-5.6c0.9-1.6,2.2-2.9,3.9-3.8c1.3-0.7,2.9-1,4.9-1
			c2.5,0,4.5,0.5,5.9,1.6c1.4,1.1,2.3,2.5,2.7,4.4l-4.1,0.8c-0.3-1-0.8-1.8-1.6-2.4c-0.8-0.6-1.8-0.9-3-0.9c-1.8,0-3.2,0.6-4.3,1.7
			s-1.6,2.8-1.6,5.1c0,2.4,0.5,4.2,1.6,5.4c1.1,1.2,2.5,1.8,4.2,1.8c0.9,0,1.7-0.2,2.6-0.5c0.9-0.3,1.6-0.7,2.2-1.2l0-2.6L78.7,52z"
			/>
	</g>
	
		<linearGradient id="SVGID_1_" gradientUnits="userSpaceOnUse" x1="4" y1="-60" x2="81.1" y2="-60" gradientTransform="matrix(1 0 0 1 0 160)">
		<stop  offset="0" style="stop-color:#F4C2FF"/>
		<stop  offset="0.9231" style="stop-color:#B968CA"/>
	</linearGradient>
	<path class="st4" d="M81.1,126.8H4c8.4-12.6,23.4-33.6,27.2-33.6c3.7,0,16.2,17,21.9,22.9c0,0,7.2-10,11.1-10
		C68.1,106.1,81,126.7,81.1,126.8z M54.5,82.7c0,5.2,4.2,9.5,9.3,9.5s9.3-4.3,9.3-9.5s-4.1-9.5-9.2-9.5S54.5,77.5,54.5,82.7z"/>
</g>
<linearGradient id="SVGID_2_" gradientUnits="userSpaceOnUse" x1="96.818" y1="398.3222" x2="142.0879" y2="398.3222" gradientTransform="matrix(0.9832 -0.1825 -0.1825 -0.9832 13.8259 520.5828)">
	<stop  offset="0" style="stop-color:#FFFFFF"/>
	<stop  offset="1" style="stop-color:#B968CA"/>
</linearGradient>
<path class="st5" d="M34.4,89.6c0.1,0.5,0.3,1.4,0.7,2.8s1,2.7,1.6,4c0.7,1.3,1.7,2.7,3.2,4.3c1.4,1.6,3.1,3,4.9,4.1
	c1.9,1.1,4.3,2.2,7.4,3c3,0.9,6.4,1.4,10.1,1.6l-0.3-4.9c0-0.1,0-0.5,0-0.7s0.1-0.4,0.3-0.7c0.2-0.4,0.4-0.6,0.7-0.8
	c0.3-0.2,0.9-0.5,1.6-0.4c0.7,0.1,1.6,0.4,2.6,1L81.6,113c0,0,0.1,0.1,0.2,0.1l0.4,0.4c0.2,0.2,0.3,0.4,0.5,0.6
	c0.1,0.2,0.3,0.4,0.4,0.8c0.1,0.3,0.2,0.6,0.1,0.9c0,0.3-0.1,0.6-0.3,0.9c-0.2,0.3-0.5,0.7-0.8,1l-14.3,10.5l-0.5,0.3
	c-0.3,0.1-0.5,0.2-0.8,0.2s-0.3,0-0.6,0c-0.3,0-0.4-0.1-0.7-0.1c-0.3-0.1-0.6-0.2-0.8-0.4c-0.2-0.2-0.5-0.4-0.7-0.7
	c-0.2-0.4-0.3-0.8-0.4-1.3l-0.2-4.9c-4-0.1-8.2-1-12.4-2.7c-9.6-3.8-15.1-10.2-16.5-19.4c-0.4-3.3-0.4-6.8,0.2-10.6
	C34.3,88.8,34.3,89.2,34.4,89.6z"/>
<g>
	<path class="st6" d="M181.9,106.7l-0.1,64.2c0,6.3-5.3,11.6-11.6,11.6l-69.8-0.2c-6.3,0-11.6-5.3-11.6-11.6L89,89.3
		c-0.1-6.3,5.2-11.5,11.6-11.5l52.7,0.1L181.9,106.7L181.9,106.7z"/>
	<path class="st7" d="M153.1,100.9l0.1-22.9l28.7,28.8l-22.9-0.1C155.7,106.7,153.1,104.1,153.1,100.9"/>
	<g class="st3">
		<path class="st8" d="M107.8,166.9l0-22.4l7.3,0c2.8,0,4.5,0.1,5.4,0.3c1.3,0.3,2.4,1.1,3.2,2.2c0.9,1.1,1.3,2.6,1.3,4.4
			c0,1.4-0.3,2.5-0.8,3.5c-0.5,0.9-1.1,1.7-1.9,2.2c-0.8,0.5-1.6,0.9-2.4,1.1c-1.1,0.2-2.6,0.3-4.7,0.3l-3,0l0,8.5L107.8,166.9z
			 M112.4,148.3l0,6.4l2.5,0c1.8,0,3-0.1,3.6-0.3c0.6-0.2,1.1-0.6,1.4-1.1c0.3-0.5,0.5-1.1,0.5-1.7c0-0.8-0.2-1.5-0.7-2
			s-1.1-0.9-1.8-1c-0.5-0.1-1.6-0.2-3.3-0.2L112.4,148.3z"/>
		<path class="st8" d="M128.7,144.5l8.3,0c1.9,0,3.3,0.1,4.3,0.4c1.3,0.4,2.4,1.1,3.4,2.1c0.9,1,1.6,2.2,2.1,3.6
			c0.5,1.4,0.7,3.2,0.7,5.3c0,1.8-0.2,3.4-0.7,4.8c-0.6,1.6-1.4,3-2.4,4c-0.8,0.8-1.8,1.4-3.2,1.8c-1,0.3-2.3,0.5-4,0.5l-8.5,0
			L128.7,144.5z M133.2,148.3l0,14.9l3.4,0c1.3,0,2.2-0.1,2.7-0.2c0.7-0.2,1.3-0.5,1.8-0.9c0.5-0.4,0.9-1.2,1.2-2.2
			c0.3-1,0.5-2.4,0.5-4.1c0-1.7-0.1-3.1-0.5-4c-0.3-0.9-0.7-1.7-1.3-2.2c-0.5-0.5-1.2-0.9-2.1-1.1c-0.6-0.1-1.9-0.2-3.7-0.2
			L133.2,148.3z"/>
		<path class="st8" d="M151.4,167l0-22.4l15.4,0l0,3.8l-10.8,0l0,5.3l9.4,0l0,3.8l-9.4,0l0,9.5L151.4,167z"/>
	</g>
</g>
</svg>
