<?xml version="1.0" encoding="utf-8"?>
<!-- Generator: Adobe Illustrator 22.0.0, SVG Export Plug-In . SVG Version: 6.00 Build 0)  -->
<svg version="1.1" id="图层_1" xmlns="http://www.w3.org/2000/svg" xmlns:xlink="http://www.w3.org/1999/xlink" x="0px" y="0px"
	 viewBox="0 0 200 200" style="enable-background:new 0 0 200 200;" xml:space="preserve">
<style type="text/css">
	.st0{fill:#CFF8FF;}
	.st1{fill:#047273;}
	.st2{fill:#055152;}
	.st3{fill:#009294;}
	.st4{fill:url(#SVGID_1_);}
	.st5{fill:url(#SVGID_2_);}
	.st6{fill:#FFFFFF;}
</style>
<circle class="st0" cx="100" cy="100.9" r="98"/>
<g>
	<path class="st1" d="M144.2,58.3l-0.1,83c0,8.2-6.8,15.1-15.1,14.9L38.7,156c-8.2,0-15.1-6.8-14.9-15.1L24,35.7
		c-0.1-8.1,6.7-14.8,14.9-14.8L107,21L144.2,58.3L144.2,58.3z"/>
	<path class="st2" d="M107,50.7l0.1-29.7l37.2,37.3l-29.7-0.1C110.3,58.3,107,54.9,107,50.7"/>
</g>
<g>
	<path class="st3" d="M177.9,81l-0.1,83c0,8.2-6.8,15.1-15.1,14.9l-90.3-0.2c-8.2,0-15.1-6.8-14.9-15.1l0.2-105.3
		c-0.1-8.1,6.7-14.8,14.9-14.8l68.1,0.1L177.9,81L177.9,81z"/>
	<path class="st1" d="M140.6,73.4l0.1-29.7L177.9,81l-29.7-0.1C144,81,140.6,77.6,140.6,73.4"/>
</g>
<g>
	<linearGradient id="SVGID_1_" gradientUnits="userSpaceOnUse" x1="46.5962" y1="103.4896" x2="111.4353" y2="103.4896">
		<stop  offset="0" style="stop-color:#52D5D8"/>
		<stop  offset="1" style="stop-color:#0F9EA5"/>
	</linearGradient>
	<path class="st4" d="M58.1,135.9h-2.9c-4.8,0-8.6-3.9-8.6-8.6V79.7c0-4.8,3.9-8.6,8.6-8.6h47.6c4.8,0,8.6,3.9,8.6,8.6v2.9
		c0,1.6-1.3,2.9-2.9,2.9c-1.6,0-2.9-1.3-2.9-2.9v-2.9c0-0.8-0.3-1.5-0.8-2.1c-0.5-0.6-1.3-0.8-2.1-0.8H55.2c-1.6,0-2.9,1.3-2.9,2.9
		v47.6c0,0.8,0.3,1.5,0.8,2.1c0.5,0.5,1.3,0.8,2.1,0.8h2.9c1.6,0,2.9,1.3,2.9,2.9C60.9,134.6,59.6,135.9,58.1,135.9L58.1,135.9z"/>
	<linearGradient id="SVGID_2_" gradientUnits="userSpaceOnUse" x1="61.8751" y1="118.7043" x2="126.65" y2="118.7043">
		<stop  offset="0" style="stop-color:#52D5D8"/>
		<stop  offset="1" style="stop-color:#0F9EA5"/>
	</linearGradient>
	<path class="st5" d="M120.9,86.3H67.6c-3.1,0-5.7,2.6-5.7,5.7v53.3c0,3.1,2.6,5.7,5.7,5.7h53.3c1.5,0,3-0.6,4-1.7s1.7-2.5,1.7-4V92
		C126.7,88.9,124.1,86.3,120.9,86.3z"/>
</g>
<path class="st6" d="M99,133.1h-6v-22.6c-2.2,2.1-4.9,3.6-7.7,4.6v-5.5c1.9-0.7,3.6-1.7,5.1-2.9c1.7-1.3,3.1-3,3.8-5h4.9L99,133.1z"
	/>
</svg>
