<?xml version="1.0" encoding="utf-8"?>
<!-- Generator: Adobe Illustrator 22.0.0, SVG Export Plug-In . SVG Version: 6.00 Build 0)  -->
<svg version="1.1" id="图层_1" xmlns="http://www.w3.org/2000/svg" xmlns:xlink="http://www.w3.org/1999/xlink" x="0px" y="0px"
	 viewBox="0 0 200 200" style="enable-background:new 0 0 200 200;" xml:space="preserve">
<style type="text/css">
	.st0{fill:#F3DCDA;}
	.st1{fill:#E36A5F;}
	.st2{fill:#AF5149;}
	.st3{enable-background:new    ;}
	.st4{fill:url(#SVGID_1_);}
	.st5{fill:#B7AC65;}
	.st6{fill:#928952;}
	.st7{fill:#FFFFFF;}
	.st8{fill:url(#SVGID_2_);}
</style>
<circle class="st0" cx="100" cy="100.9" r="98"/>
<path class="st1" d="M132.3,52.5l-0.1,78.9c0,7.8-6.5,14.3-14.3,14.2l-85.8-0.2c-7.8,0-14.3-6.5-14.2-14.3l0.2-100
	C18,23.4,24.5,17,32.3,17L97,17.1L132.3,52.5L132.3,52.5z"/>
<path class="st2" d="M96.9,45.3L97,17.1l35.3,35.4l-28.2-0.1C100.1,52.5,96.9,49.3,96.9,45.3"/>
<g class="st3">
	<path class="st2" d="M33,77.7l0-23.4l7.6,0c2.9,0,4.7,0.1,5.6,0.4c1.3,0.4,2.5,1.1,3.4,2.3c0.9,1.2,1.4,2.7,1.3,4.6
		c0,1.4-0.3,2.6-0.8,3.6s-1.2,1.7-2,2.3c-0.8,0.6-1.6,0.9-2.5,1.1c-1.1,0.2-2.8,0.3-4.9,0.3l-3.1,0l0,8.8L33,77.7z M37.8,58.3l0,6.6
		l2.6,0c1.9,0,3.1-0.1,3.7-0.4s1.1-0.6,1.5-1.1c0.4-0.5,0.5-1.1,0.5-1.8c0-0.9-0.2-1.6-0.7-2.1c-0.5-0.6-1.1-0.9-1.9-1
		c-0.6-0.1-1.7-0.2-3.4-0.2L37.8,58.3z"/>
	<path class="st2" d="M54.9,54.4l8.6,0c1.9,0,3.4,0.2,4.5,0.5c1.4,0.4,2.5,1.1,3.5,2.2s1.7,2.3,2.2,3.8c0.5,1.5,0.8,3.3,0.8,5.5
		c0,1.9-0.2,3.6-0.7,5c-0.6,1.7-1.4,3.1-2.5,4.1c-0.8,0.8-1.9,1.4-3.3,1.9c-1,0.3-2.4,0.5-4.2,0.5l-8.9,0L54.9,54.4z M59.6,58.3
		l0,15.5l3.5,0c1.3,0,2.3-0.1,2.9-0.2c0.8-0.2,1.4-0.5,1.9-1c0.5-0.5,0.9-1.2,1.2-2.3c0.3-1,0.5-2.5,0.5-4.3c0-1.8-0.2-3.2-0.5-4.2
		c-0.3-1-0.8-1.7-1.3-2.3c-0.6-0.5-1.3-0.9-2.2-1.1c-0.7-0.2-2-0.2-3.9-0.2L59.6,58.3z"/>
	<path class="st2" d="M78.5,77.8l0-23.4l16,0l0,4l-11.3,0l0,5.5l9.8,0l0,4l-9.8,0l0,9.9L78.5,77.8z"/>
</g>
<linearGradient id="SVGID_1_" gradientUnits="userSpaceOnUse" x1="80.8747" y1="-186.0652" x2="126.1446" y2="-186.0652" gradientTransform="matrix(0.9832 -0.1825 0.1825 0.9832 -9.2356 308.982)">
	<stop  offset="0" style="stop-color:#FFEED6"/>
	<stop  offset="1" style="stop-color:#E36A5F"/>
</linearGradient>
<path class="st4" d="M34.4,89.6c0.1,0.5,0.3,1.4,0.7,2.8s1,2.7,1.6,4c0.7,1.3,1.7,2.7,3.2,4.3c1.4,1.6,3.1,3,4.9,4.1
	c1.9,1.1,4.3,2.2,7.4,3c3,0.9,6.4,1.4,10.1,1.6l-0.3-4.9c0-0.1,0-0.5,0-0.7s0.1-0.4,0.3-0.7c0.2-0.4,0.4-0.6,0.7-0.8
	c0.3-0.2,0.9-0.5,1.6-0.4c0.7,0.1,1.6,0.4,2.6,1L81.6,113c0,0,0.1,0.1,0.2,0.1l0.4,0.4c0.2,0.2,0.3,0.4,0.5,0.6
	c0.1,0.2,0.3,0.4,0.4,0.8c0.1,0.3,0.2,0.6,0.1,0.9c0,0.3-0.1,0.6-0.3,0.9c-0.2,0.3-0.5,0.7-0.8,1l-14.3,10.5l-0.5,0.3
	c-0.3,0.1-0.5,0.2-0.8,0.2s-0.3,0-0.6,0c-0.3,0-0.4-0.1-0.7-0.1c-0.3-0.1-0.6-0.2-0.8-0.4c-0.2-0.2-0.5-0.4-0.7-0.7
	c-0.2-0.4-0.3-0.8-0.4-1.3l-0.2-4.9c-4-0.1-8.2-1-12.4-2.7c-9.6-3.8-15.1-10.2-16.5-19.4c-0.4-3.3-0.4-6.8,0.2-10.6
	C34.3,88.8,34.3,89.2,34.4,89.6z"/>
<g>
	<path class="st5" d="M182.9,106.7l-0.2,64.3c0,6.4-5.3,11.6-11.7,11.6l-69.8-0.1c-6.4,0-11.6-5.3-11.6-11.7l0.2-81.5
		c0-6.4,5.3-11.6,11.7-11.6l52.7,0.1L182.9,106.7L182.9,106.7z"/>
	<path class="st6" d="M154.1,100.8l0.1-23l28.7,28.9l-23-0.1C156.7,106.7,154.1,104,154.1,100.8"/>
	<g class="st3">
		<path class="st7" d="M107.2,167v-22.3h7.2c2.7,0,4.5,0.1,5.3,0.3c1.3,0.3,2.3,1.1,3.2,2.2s1.3,2.6,1.3,4.3c0,1.4-0.3,2.5-0.8,3.4
			s-1.1,1.7-1.9,2.2s-1.5,0.9-2.3,1c-1.1,0.2-2.6,0.3-4.7,0.3h-2.9v8.4L107.2,167z M111.7,148.6v6.3h2.5c1.8,0,3-0.1,3.6-0.3
			s1.1-0.6,1.4-1.1s0.5-1.1,0.5-1.7c0-0.8-0.2-1.5-0.7-2s-1.1-0.9-1.8-1c-0.5-0.1-1.6-0.2-3.2-0.2H111.7z"/>
		<path class="st7" d="M128,167.1v-22.3h4.4l9.1,14.9v-14.9h4.2v22.3h-4.5l-8.9-14.5v14.5H128z"/>
		<path class="st7" d="M160.8,159v-3.8h9.7v8.9c-0.9,0.9-2.3,1.7-4.1,2.4s-3.6,1-5.4,1c-2.3,0-4.4-0.5-6.1-1.5c-1.7-1-3-2.4-3.9-4.2
			s-1.3-3.8-1.3-5.9c0-2.3,0.5-4.4,1.5-6.2s2.4-3.2,4.3-4.1c1.4-0.7,3.2-1.1,5.3-1.1c2.8,0,4.9,0.6,6.5,1.8s2.5,2.8,3,4.8l-4.5,0.8
			c-0.3-1.1-0.9-2-1.8-2.6s-1.9-1-3.2-1c-2,0-3.5,0.6-4.7,1.9c-1.2,1.2-1.7,3.1-1.8,5.5c0,2.6,0.6,4.6,1.7,5.9c1.2,1.3,2.7,2,4.6,2
			c0.9,0,1.9-0.2,2.8-0.5c0.9-0.4,1.8-0.8,2.4-1.3V159L160.8,159z"/>
	</g>
	
		<linearGradient id="SVGID_2_" gradientUnits="userSpaceOnUse" x1="80" y1="90.7" x2="143.4" y2="90.7" gradientTransform="matrix(1 0 0 -1 0 199)">
		<stop  offset="0" style="stop-color:#FFFFFF"/>
		<stop  offset="1" style="stop-color:#B7AC65"/>
	</linearGradient>
	<path class="st8" d="M143.4,130.3H80c7-10.4,19.2-27.7,22.3-27.7c3,0,13.3,14,18,18.8c0,0,5.9-8.2,9.1-8.2
		C132.7,113.4,143.3,130.2,143.4,130.3z M124.8,94.1c0,4.3,3.4,7.8,7.7,7.8c4.2,0,7.7-3.5,7.7-7.8s-3.4-7.8-7.7-7.8
		C128.2,86.3,124.8,89.8,124.8,94.1z"/>
</g>
</svg>
