<?xml version="1.0" standalone="no"?><!DOCTYPE svg PUBLIC "-//W3C//DTD SVG 1.1//EN" "http://www.w3.org/Graphics/SVG/1.1/DTD/svg11.dtd"><svg t="1630050177039" class="icon" viewBox="0 0 1024 1024" version="1.1" xmlns="http://www.w3.org/2000/svg" p-id="22761" xmlns:xlink="http://www.w3.org/1999/xlink" width="200" height="200"><defs><style type="text/css"></style></defs><path d="M896 1024H128c-70.656 0-128-57.856-128-128V128C0 57.856 57.856 0 128 0h768c70.656 0 128 57.856 128 128v768c0 70.656-57.344 128-128 128z" fill="#EB5D5D" p-id="22762"></path><path d="M705.024 323.072h92.672L658.944 184.32v92.672c0 36.864 9.216 46.08 46.08 46.08z" fill="#FFFFFF" p-id="22763"></path><path d="M507.904 755.712s73.728-110.592 184.32-110.592c40.448 0 76.288 14.848 104.96 33.792V369.152h-154.112c-11.264 0-30.72-9.216-30.72-30.72V184.32H304.128c-33.792 0-61.44 27.648-61.44 61.44v524.288c0 33.792 27.648 61.44 61.44 61.44h281.6c-48.64-32.256-77.824-75.776-77.824-75.776z" fill="#FFFFFF" p-id="22764"></path><path d="M691.712 658.944c-96.768 0-161.792 96.768-161.792 96.768s65.024 96.768 161.792 96.768c96.768 0 161.792-96.768 161.792-96.768s-65.024-96.768-161.792-96.768z m0 160.768c-35.84 0-64-29.184-64-64s29.184-64 64-64c35.328 0 64 29.184 64 64 0 35.328-28.16 64-64 64z m-32.256-64c0 17.92 14.336 32.256 32.256 32.256s32.256-14.336 32.256-32.256-14.336-32.256-32.256-32.256c-8.704 0-16.896 3.584-23.04 9.216-6.144 6.144-9.216 14.336-9.216 23.04z" fill="#FFFFFF" p-id="22765"></path><path d="M384.512 534.016v49.152h-30.208V441.856h48.64c35.328 0 52.736 14.848 52.736 44.544 0 14.336-5.12 26.112-15.872 34.816s-24.064 12.8-39.936 12.8h-15.36z m0-68.608v45.568h13.312c17.92 0 26.624-7.68 26.624-23.04 0-14.848-8.704-22.528-26.112-22.528h-13.824zM477.184 583.68V441.856h48.64c50.176 0 75.264 23.04 75.264 69.12 0 22.016-7.168 39.424-20.992 52.736s-32.256 19.968-54.272 19.968h-48.64z m30.208-117.248v92.16h16.384c14.336 0 25.6-4.096 33.792-12.8s12.288-19.968 12.288-34.816c0-13.824-4.096-25.088-12.8-32.768s-19.456-11.776-33.28-11.776h-16.384zM706.048 466.432H655.36v36.352h46.592v24.576H655.36v55.808h-30.208V441.856h80.896v24.576z" fill="#EB5D5D" p-id="22766"></path></svg>