<?xml version="1.0" encoding="utf-8"?>
<!-- Generator: Adobe Illustrator 22.0.0, SVG Export Plug-In . SVG Version: 6.00 Build 0)  -->
<svg version="1.1" id="图层_1" xmlns="http://www.w3.org/2000/svg" xmlns:xlink="http://www.w3.org/1999/xlink" x="0px" y="0px"
	 viewBox="0 0 200 200" style="enable-background:new 0 0 200 200;" xml:space="preserve">
<style type="text/css">
	.st0{fill:#F3DCDA;}
	.st1{fill:#90433C;}
	.st2{fill:#6F332E;}
	.st3{fill:#E36A5F;}
	.st4{fill:#AF5149;}
	.st5{enable-background:new    ;}
	.st6{fill:#FFFFFF;}
	.st7{fill:url(#SVGID_1_);}
</style>
<circle class="st0" cx="100" cy="100.9" r="98"/>
<g>
	<path class="st1" d="M144.2,58.3l-0.1,83c0,8.2-6.8,15.1-15.1,14.9L38.7,156c-8.2,0-15.1-6.8-14.9-15.1L24,35.7
		c-0.1-8.1,6.7-14.8,14.9-14.8L107,21L144.2,58.3L144.2,58.3z"/>
	<path class="st2" d="M107,50.7l0.1-29.7l37.2,37.3l-29.7-0.1C110.3,58.3,107,54.9,107,50.7"/>
</g>
<g>
	<path class="st3" d="M177.9,81l-0.1,83c0,8.2-6.8,15.1-15.1,14.9l-90.3-0.2c-8.2,0-15.1-6.8-14.9-15.1l0.2-105.3
		c-0.1-8.1,6.7-14.8,14.9-14.8l68.1,0.1L177.9,81L177.9,81z"/>
	<path class="st4" d="M140.6,73.4l0.1-29.7L177.9,81l-29.7-0.1C144,81,140.6,77.6,140.6,73.4"/>
</g>
<g class="st5">
	<path class="st6" d="M89.3,155.3l0-22.4l7.3,0c2.8,0,4.5,0.1,5.4,0.3c1.3,0.3,2.4,1.1,3.2,2.2c0.9,1.1,1.3,2.6,1.3,4.4
		c0,1.4-0.3,2.5-0.8,3.5c-0.5,0.9-1.1,1.7-1.9,2.2c-0.8,0.5-1.6,0.9-2.4,1.1c-1.1,0.2-2.6,0.3-4.7,0.3l-3,0l0,8.5L89.3,155.3z
		 M93.8,136.6l0,6.4l2.5,0c1.8,0,3-0.1,3.6-0.3c0.6-0.2,1.1-0.6,1.4-1.1c0.3-0.5,0.5-1.1,0.5-1.7c0-0.8-0.2-1.5-0.7-2
		s-1.1-0.9-1.8-1c-0.5-0.1-1.6-0.2-3.3-0.2L93.8,136.6z"/>
	<path class="st6" d="M110.2,132.9l8.3,0c1.9,0,3.3,0.1,4.3,0.4c1.3,0.4,2.4,1.1,3.4,2.1c0.9,1,1.6,2.2,2.1,3.6
		c0.5,1.4,0.7,3.2,0.7,5.3c0,1.8-0.2,3.4-0.7,4.8c-0.6,1.6-1.4,3-2.4,4c-0.8,0.8-1.8,1.4-3.2,1.8c-1,0.3-2.3,0.5-4,0.5l-8.5,0
		L110.2,132.9z M114.7,136.7l0,14.9l3.4,0c1.3,0,2.2-0.1,2.7-0.2c0.7-0.2,1.3-0.5,1.8-0.9c0.5-0.4,0.9-1.2,1.2-2.2
		c0.3-1,0.5-2.4,0.5-4.1c0-1.7-0.1-3.1-0.5-4c-0.3-0.9-0.7-1.7-1.3-2.2c-0.5-0.5-1.2-0.9-2.1-1.1c-0.6-0.1-1.9-0.2-3.7-0.2
		L114.7,136.7z"/>
	<path class="st6" d="M132.8,155.3l0-22.4l15.4,0l0,3.8l-10.8,0l0,5.3l9.4,0l0,3.8l-9.4,0l0,9.5L132.8,155.3z"/>
</g>
<linearGradient id="SVGID_1_" gradientUnits="userSpaceOnUse" x1="13.2859" y1="45.2563" x2="88.6984" y2="45.2563" gradientTransform="matrix(0.8601 0.5102 0.5102 -0.8601 14.9479 101.269)">
	<stop  offset="0" style="stop-color:#FFEED6"/>
	<stop  offset="1" style="stop-color:#E36A5F"/>
</linearGradient>
<path class="st7" d="M121.9,88c-0.7,4.5-1.9,8.6-3.5,12.2c-5.5,12.3-15.4,19.1-29.8,20.3c-6.8,0.6-13.3-0.1-19.5-1.9v-0.1l-2.4,6.4
	c-0.5,1-0.9,1.4-1.5,1.8c-0.4,0.3-1.2,0.6-1.8,0.7c-0.6,0.1-1,0.1-1.7-0.1c-0.6-0.1-0.8-0.4-1-0.5s-0.7-0.6-0.8-0.7l-14.5-20.9
	c-0.4-0.6-0.6-1.1-0.7-1.7c-0.1-0.5-0.1-1,0-1.4s0.3-0.7,0.6-1.1c0.3-0.3,0.5-0.6,0.8-0.8c0.3-0.2,0.6-0.4,0.9-0.6
	c0.3-0.2,0.6-0.3,0.7-0.3c0.1,0,0.2-0.1,0.3-0.1l23.6-6.9c1.3-0.3,2.5-0.5,3.2-0.4c0.8,0.1,0.9,0.1,1.4,0.3c0.5,0.2,1.1,0.6,1.3,1.1
	c0.3,0.4,0.4,0.8,0.4,1.2c0.1,0.3,0.1,0.7,0,1.1c0,0.4-0.1,0.7-0.1,0.8c-0.1,0.1-0.1,0.2-0.1,0.3l-2.5,6.4c5,1.5,9.7,2.3,14.1,2.5
	s8.1,0,11.2-0.7s5.9-1.8,8.4-3.3c2.6-1.5,4.6-2.9,6.1-4.2c1.5-1.4,2.8-2.9,3.9-4.5c1.2-1.6,1.9-2.8,2.2-3.4
	C121.5,88.9,121.8,88.4,121.9,88z M42.1,87.6c1.1-5.3,2.7-10,4.8-14.1C53.1,62.1,63.5,56.2,78,55.9c6.4-0.2,12.3,0.6,17.7,2.4
	l2.6-6.3c0.4-0.7,0.8-1.2,1.2-1.5c0.4-0.4,0.9-0.5,1.3-0.6s0.8-0.2,1.3-0.1c0.4,0,0.6,0.1,1,0.2c0.3,0.1,0.4,0.1,0.7,0.3
	c0.3,0.2,0.6,0.4,0.9,0.7l0.6,0.6L119,72.3c0.3,0.6,0.5,1.2,0.6,1.8c0.1,0.5,0.1,1,0,1.4s-0.3,0.7-0.6,1.1c-0.3,0.3-0.6,0.6-0.9,0.8
	c-0.3,0.2-0.6,0.4-0.9,0.6l-0.7,0.4c-0.1,0.1-0.2,0.1-0.3,0.1l-23.8,6.3c-1.6,0.3-2.9,0.3-3.9,0.1c-1-0.2-1.7-0.8-2-1.3
	c-0.3-0.4-0.4-0.7-0.5-1.4c-0.1-0.6,0-0.8,0-1.1c0.1-0.3,0.2-0.7,0.3-0.9l2.7-6.3c-4.9-1.6-9.6-2.5-14.1-2.8
	c-4.4-0.3-8.1-0.1-11.2,0.5c-3,0.6-5.9,1.6-8.5,3s-4.7,2.8-6.2,4.1c-1.5,1.4-2.9,2.8-4.1,4.4c-1.2,1.6-2,2.7-2.3,3.3
	C42.4,86.8,42.2,87.3,42.1,87.6z"/>
</svg>
