<?xml version="1.0" encoding="utf-8"?>
<!-- Generator: Adobe Illustrator 22.0.0, SVG Export Plug-In . SVG Version: 6.00 Build 0)  -->
<svg version="1.1" id="图层_1" xmlns="http://www.w3.org/2000/svg" xmlns:xlink="http://www.w3.org/1999/xlink" x="0px" y="0px"
	 viewBox="0 0 200 200" style="enable-background:new 0 0 200 200;" xml:space="preserve">
<style type="text/css">
	.st0{fill:#F2E5D7;}
	.st1{fill:#FE7651;}
	.st2{fill:#BE5C41;}
	.st3{enable-background:new    ;}
	.st4{fill:#FFFFFF;}
	.st5{fill:url(#SVGID_1_);}
</style>
<circle class="st0" cx="100" cy="100.9" r="98"/>
<path class="st1" d="M169.2,65.3l-0.1,92.2c0,9.1-7.6,16.7-16.7,16.6l-100.2-0.2c-9.1,0-16.7-7.6-16.6-16.7l0.2-116.8
	c-0.1-9,7.5-16.5,16.6-16.5L128,24L169.2,65.3L169.2,65.3z"/>
<path class="st2" d="M127.8,56.9l0.1-32.9l41.2,41.4l-32.9-0.1C131.5,65.3,127.8,61.5,127.8,56.9"/>
<g class="st3">
	<path class="st4" d="M71.1,83.8l0.1-35.1l11.4,0c4.3,0,7.1,0.2,8.4,0.5c2,0.5,3.7,1.7,5.1,3.4c1.4,1.8,2,4.1,2,6.8
		c0,2.2-0.4,4-1.2,5.4c-0.8,1.5-1.8,2.6-3,3.5c-1.2,0.8-2.4,1.4-3.7,1.7c-1.7,0.3-4.1,0.5-7.4,0.5l-4.6,0l0,13.3L71.1,83.8z
		 M78.3,54.6l0,10l3.9,0c2.8,0,4.7-0.2,5.6-0.5c0.9-0.4,1.7-0.9,2.2-1.7c0.5-0.8,0.8-1.7,0.8-2.7c0-1.3-0.4-2.3-1.1-3.2
		s-1.7-1.4-2.9-1.6c-0.8-0.2-2.5-0.2-5.1-0.2L78.3,54.6z"/>
</g>
<linearGradient id="SVGID_1_" gradientUnits="userSpaceOnUse" x1="-36.3275" y1="52.7656" x2="30.0854" y2="52.7656" gradientTransform="matrix(0.9306 0.3661 0.3661 -0.9306 42.5988 175.4942)">
	<stop  offset="0" style="stop-color:#FFEE74"/>
	<stop  offset="1" style="stop-color:#FE7651"/>
</linearGradient>
<path class="st5" d="M31,117.8l7.9-7.1l15,9.4c0.9,0.6,2.1,0.5,2.9-0.3l18.7-17.5l3.7,3.7l3.4-13.3l-13.1,3.7l2.7,2.6l-17.4,16.3
	L39.9,106c-0.9-0.5-2.1-0.5-2.9,0.2l-9.3,8.2c-0.9,0.9-0.8,2.4,0,3.3C28.7,118.5,30,118.6,31,117.8L31,117.8z M27.3,154.6l56-0.6
	l-0.1-5.8l-56,0.6L27.3,154.6z M43.4,117.1l-4.2-2.6l-12.1,10.7l0.2,19.4l16.3-0.1L43.4,117.1L43.4,117.1z M51.9,122.6l-5-3.2
	l0.2,25.1l16.3-0.1L63.1,118l-4.2,3.9c-1.1,1-2.5,1.6-4,1.5C54.1,123.5,52.9,123.2,51.9,122.6z M80.9,112.1l-5.6-5.6l-8.7,8.1
	l0.2,29.7l16.3-0.1l-0.3-39.6L80.9,112.1z"/>
<path class="st4" d="M147.8,125.6H129v18.8c0,1.5-1.2,2.7-2.7,2.7s-2.7-1.2-2.7-2.7l0,0v-18.8h-18.8c-1.5,0-2.7-1.2-2.7-2.7
	s1.2-2.7,2.7-2.7l0,0h18.8v-18.8c0-1.5,1.2-2.7,2.7-2.7s2.7,1.2,2.7,2.7v18.8h18.8c1.5,0,2.7,1.2,2.7,2.7S149.3,125.6,147.8,125.6
	L147.8,125.6z"/>
</svg>
