<?xml version="1.0" encoding="utf-8"?>
<!-- Generator: Adobe Illustrator 22.0.0, SVG Export Plug-In . SVG Version: 6.00 Build 0)  -->
<svg version="1.1" id="图层_1" xmlns="http://www.w3.org/2000/svg" xmlns:xlink="http://www.w3.org/1999/xlink" x="0px" y="0px"
	 viewBox="0 0 200 200" style="enable-background:new 0 0 200 200;" xml:space="preserve">
<style type="text/css">
	.st0{fill:#FCF0E4;}
	.st1{fill:#FE7651;}
	.st2{fill:#BA5236;}
	.st3{fill:#E36A5F;}
	.st4{fill:#AF5149;}
	.st5{enable-background:new    ;}
	.st6{fill:#FFFFFF;}
	.st7{fill:url(#SVGID_1_);}
	.st8{fill:url(#SVGID_2_);}
</style>
<circle class="st0" cx="100" cy="100.9" r="98"/>
<path class="st1" d="M132.3,52.5l-0.1,78.9c0,7.8-6.5,14.3-14.3,14.2l-85.8-0.2c-7.8,0-14.3-6.5-14.2-14.3l0.2-100
	C18,23.4,24.5,17,32.3,17L97,17.1L132.3,52.5L132.3,52.5z"/>
<path class="st2" d="M96.9,45.3L97,17.1l35.3,35.4l-28.2-0.1C100.1,52.5,96.9,49.3,96.9,45.3"/>
<g>
	<path class="st3" d="M181.9,106.7l-0.1,64.2c0,6.3-5.3,11.6-11.6,11.6l-69.8-0.2c-6.3,0-11.6-5.3-11.6-11.6L89,89.3
		c-0.1-6.3,5.2-11.5,11.6-11.5l52.7,0.1L181.9,106.7L181.9,106.7z"/>
	<path class="st4" d="M153.1,100.9l0.1-22.9l28.7,28.8l-22.9-0.1C155.7,106.7,153.1,104.1,153.1,100.9"/>
	<g class="st5">
		<path class="st6" d="M107.8,166.9l0-22.4l7.3,0c2.8,0,4.5,0.1,5.4,0.3c1.3,0.3,2.4,1.1,3.2,2.2c0.9,1.1,1.3,2.6,1.3,4.4
			c0,1.4-0.3,2.5-0.8,3.5c-0.5,0.9-1.1,1.7-1.9,2.2c-0.8,0.5-1.6,0.9-2.4,1.1c-1.1,0.2-2.6,0.3-4.7,0.3l-3,0l0,8.5L107.8,166.9z
			 M112.4,148.2l0,6.4l2.5,0c1.8,0,3-0.1,3.6-0.3c0.6-0.2,1.1-0.6,1.4-1.1s0.5-1.1,0.5-1.7c0-0.8-0.2-1.5-0.7-2s-1.1-0.9-1.8-1
			c-0.5-0.1-1.6-0.2-3.3-0.2L112.4,148.2z"/>
		<path class="st6" d="M128.8,144.5l8.3,0c1.9,0,3.3,0.1,4.3,0.4c1.3,0.4,2.4,1.1,3.4,2.1c0.9,1,1.6,2.2,2.1,3.6
			c0.5,1.4,0.7,3.2,0.7,5.3c0,1.8-0.2,3.4-0.7,4.8c-0.6,1.6-1.4,3-2.4,4c-0.8,0.8-1.8,1.4-3.2,1.8c-1,0.3-2.3,0.5-4,0.5l-8.5,0
			L128.8,144.5z M133.3,148.3l0,14.9l3.4,0c1.3,0,2.2-0.1,2.7-0.2c0.7-0.2,1.3-0.5,1.8-0.9s0.9-1.2,1.2-2.2c0.3-1,0.5-2.4,0.5-4.1
			c0-1.7-0.1-3.1-0.5-4c-0.3-0.9-0.7-1.7-1.3-2.2c-0.5-0.5-1.2-0.9-2.1-1.1c-0.6-0.1-1.9-0.2-3.7-0.2L133.3,148.3z"/>
		<path class="st6" d="M151.4,166.9l0-22.4l15.4,0l0,3.8l-10.8,0l0,5.3l9.4,0l0,3.8l-9.4,0l0,9.5L151.4,166.9z"/>
	</g>
</g>
<g class="st5">
	<path class="st2" d="M49.2,68.3L49,33.9l11.2-0.1c4.2,0,7,0.1,8.3,0.5c2,0.5,3.6,1.6,5,3.3c1.3,1.7,2,4,2,6.7
		c0,2.1-0.4,3.9-1.1,5.3c-0.8,1.4-1.7,2.6-2.9,3.4c-1.2,0.8-2.4,1.4-3.6,1.7c-1.7,0.3-4.1,0.5-7.2,0.5h-4.5l0.1,13L49.2,68.3z
		 M55.9,39.7l0.1,9.8h3.8c2.7,0,4.6-0.2,5.5-0.6c0.9-0.4,1.6-0.9,2.2-1.7c0.5-0.8,0.8-1.7,0.8-2.7c0-1.3-0.4-2.3-1.1-3.1
		s-1.7-1.3-2.8-1.5c-0.8-0.2-2.5-0.2-5-0.2H55.9z"/>
</g>
<linearGradient id="SVGID_1_" gradientUnits="userSpaceOnUse" x1="-32.1072" y1="100.1282" x2="25.9787" y2="100.1282" gradientTransform="matrix(0.9306 0.3661 -0.3661 0.9306 80.6127 14.0408)">
	<stop  offset="0" style="stop-color:#FFEE74"/>
	<stop  offset="0.7487" style="stop-color:#FE7651"/>
</linearGradient>
<path class="st7" d="M16.6,99.6l6.9-6.2l13.1,8.2c0.8,0.5,1.8,0.4,2.5-0.3L55.5,86l3.2,3.2l3-11.6l-11.5,3.2l2.4,2.3L37.4,97.4
	l-13-8.2c-0.8-0.4-1.8-0.4-2.5,0.2l-8.1,7.2c-0.8,0.8-0.7,2.1,0,2.9C14.6,100.2,15.7,100.3,16.6,99.6L16.6,99.6z M13.4,131.8l49-0.5
	l-0.1-5.1l-49,0.5L13.4,131.8z M27.5,99l-3.7-2.3l-10.6,9.4l0.2,17l14.3-0.1L27.5,99L27.5,99z M34.9,103.8l-4.4-2.8l0.2,22l14.3-0.1
	l-0.3-23.1l-3.7,3.4c-1,0.9-2.2,1.4-3.5,1.3C36.8,104.6,35.8,104.3,34.9,103.8z M60.3,94.6l-4.9-4.9l-7.6,7.1l0.2,26l14.3-0.1L62,88
	L60.3,94.6z"/>
<linearGradient id="SVGID_2_" gradientUnits="userSpaceOnUse" x1="96.818" y1="398.3222" x2="142.0879" y2="398.3222" gradientTransform="matrix(0.9832 -0.1825 -0.1825 -0.9832 13.8259 520.5828)">
	<stop  offset="0" style="stop-color:#FFFFFF"/>
	<stop  offset="1" style="stop-color:#FE7651"/>
</linearGradient>
<path class="st8" d="M34.4,89.6c0.1,0.5,0.3,1.4,0.7,2.8s1,2.7,1.6,4c0.7,1.3,1.7,2.7,3.2,4.3c1.4,1.6,3.1,3,4.9,4.1
	c1.9,1.1,4.3,2.2,7.4,3c3,0.9,6.4,1.4,10.1,1.6l-0.3-4.9c0-0.1,0-0.5,0-0.7s0.1-0.4,0.3-0.7c0.2-0.4,0.4-0.6,0.7-0.8
	c0.3-0.2,0.9-0.5,1.6-0.4c0.7,0.1,1.6,0.4,2.6,1L81.6,113c0,0,0.1,0.1,0.2,0.1l0.4,0.4c0.2,0.2,0.3,0.4,0.5,0.6
	c0.1,0.2,0.3,0.4,0.4,0.8c0.1,0.3,0.2,0.6,0.1,0.9c0,0.3-0.1,0.6-0.3,0.9c-0.2,0.3-0.5,0.7-0.8,1l-14.3,10.5l-0.5,0.3
	c-0.3,0.1-0.5,0.2-0.8,0.2s-0.3,0-0.6,0c-0.3,0-0.4-0.1-0.7-0.1c-0.3-0.1-0.6-0.2-0.8-0.4c-0.2-0.2-0.5-0.4-0.7-0.7
	c-0.2-0.4-0.3-0.8-0.4-1.3l-0.2-4.9c-4-0.1-8.2-1-12.4-2.7c-9.6-3.8-15.1-10.2-16.5-19.4c-0.4-3.3-0.4-6.8,0.2-10.6
	C34.3,88.8,34.3,89.2,34.4,89.6z"/>
</svg>
