<?xml version="1.0" encoding="utf-8"?>
<!-- Generator: Adobe Illustrator 22.0.0, SVG Export Plug-In . SVG Version: 6.00 Build 0)  -->
<svg version="1.1" id="图层_1" xmlns="http://www.w3.org/2000/svg" xmlns:xlink="http://www.w3.org/1999/xlink" x="0px" y="0px"
	 viewBox="0 0 200 200" style="enable-background:new 0 0 200 200;" xml:space="preserve">
<style type="text/css">
	.st0{fill:#CFF8FF;}
	.st1{fill:#366378;}
	.st2{fill:#2A4C5B;}
	.st3{fill:#4E8FAD;}
	.st4{fill:url(#SVGID_1_);}
</style>
<circle class="st0" cx="100" cy="100.9" r="98"/>
<g>
	<path class="st1" d="M144.2,58.3l-0.1,83c0,8.2-6.8,15.1-15.1,14.9L38.7,156c-8.2,0-15.1-6.8-14.9-15.1L24,35.7
		c-0.1-8.1,6.7-14.8,14.9-14.8L107,21L144.2,58.3L144.2,58.3z"/>
	<path class="st2" d="M107,50.7l0.1-29.7l37.2,37.3l-29.7-0.1C110.3,58.3,107,54.9,107,50.7"/>
</g>
<g>
	<path class="st3" d="M177.9,81l-0.1,83c0,8.2-6.8,15.1-15.1,14.9l-90.3-0.2c-8.2,0-15.1-6.8-14.9-15.1l0.2-105.3
		c-0.1-8.1,6.7-14.8,14.9-14.8l68.1,0.1L177.9,81L177.9,81z"/>
	<path class="st1" d="M140.6,73.4l0.1-29.7L177.9,81l-29.7-0.1C144,81,140.6,77.6,140.6,73.4"/>
</g>
<linearGradient id="SVGID_1_" gradientUnits="userSpaceOnUse" x1="41.1099" y1="104.4896" x2="128.8859" y2="104.4896">
	<stop  offset="0" style="stop-color:#FFFFFF"/>
	<stop  offset="1" style="stop-color:#4E8FAD"/>
</linearGradient>
<path class="st4" d="M41.1,79.3v-2c0.9-1.6,2.4-2.1,4.3-2c5.6,0.1,11.3,0,16.9,0c0.7,0,1.5,0,2.4-0.1v-2.4c0.1-4.4,2.9-7.1,7.8-7.3
	c1.1,0,2.2,0,3.3,0c7,0,14,0,21.1,0c5.5,0,8.3,2.5,8.6,7.5l0.1,2.2c6.5,0,12.9,0,19.2,0c1.9,0,3.2,0.5,4.1,2v2c-1.2,1.6-3,1.9-5,1.8
	c-2.5-0.1-5.1,0-7.8,0v50.5c0,4.7-1.9,8.4-6.6,10.6c-1.3,0.6-2.8,0.9-4.3,1.3H64.8c-8.8-2.6-10.9-5.2-10.9-13.9V81.1
	c-2.9,0-5.6-0.1-8.3,0C43.7,81.1,42.2,80.7,41.1,79.3z M71,75.1h28c0-0.8,0-1.5,0-2.2c0.1-1.2-0.5-1.7-1.8-1.7c-8.1,0-16.2,0-24.3,0
	c-1.3,0-1.9,0.5-1.8,1.7L71,75.1L71,75.1z M103.1,110.9c0-4.9,0-9.9,0-15c0-2.4-0.9-3.7-2.8-3.7c-1.8,0-3,1.3-3,3.7
	c0,9.9,0,19.7,0,29.7c0,2.3,1.2,3.7,3,3.7c1.8,0,2.9-1.4,2.9-3.8L103.1,110.9L103.1,110.9L103.1,110.9z M73.1,110.7
	C73.1,110.7,73.1,110.7,73.1,110.7c0-5.1,0-10.2,0-15.4c0-1.9-1.3-3.1-2.9-3.1c-1.7,0-2.8,1.2-2.9,3.2v29.7c0,0.5-0.1,1.1,0,1.6
	c0.3,1.6,1.3,2.5,2.9,2.5c1.6,0,2.6-1,2.8-2.6c0.1-0.6,0.1-1.3,0.1-2L73.1,110.7L73.1,110.7z M88.2,110.7V95.5
	c0-2.1-1.1-3.4-2.9-3.4c-1.8,0-3,1.3-3,3.5v30.1c0,2.1,1.1,3.4,2.9,3.4c1.8,0,3-1.3,3-3.5V110.7L88.2,110.7z"/>
</svg>
