<?xml version="1.0" encoding="utf-8"?>
<!-- Generator: Adobe Illustrator 22.0.0, SVG Export Plug-In . SVG Version: 6.00 Build 0)  -->
<svg version="1.1" id="图层_1" xmlns="http://www.w3.org/2000/svg" xmlns:xlink="http://www.w3.org/1999/xlink" x="0px" y="0px"
	 viewBox="0 0 200 200" style="enable-background:new 0 0 200 200;" xml:space="preserve">
<style type="text/css">
	.st0{fill:#DCFEFF;}
	.st1{fill:#1DBCA0;}
	.st2{fill:#1E937E;}
	.st3{fill:#E36A5F;}
	.st4{fill:#AF5149;}
	.st5{enable-background:new    ;}
	.st6{fill:#FFFFFF;}
	.st7{fill:url(#SVGID_1_);}
</style>
<circle class="st0" cx="100" cy="100.9" r="98"/>
<path class="st1" d="M132.3,52.5l-0.1,78.9c0,7.8-6.5,14.3-14.3,14.2l-85.8-0.2c-7.8,0-14.3-6.5-14.2-14.3l0.2-100
	C18,23.4,24.5,17,32.3,17L97,17.1L132.3,52.5L132.3,52.5z"/>
<path class="st2" d="M96.9,45.3L97,17.1l35.3,35.4l-28.2-0.1C100.1,52.5,96.9,49.3,96.9,45.3"/>
<g>
	<path class="st3" d="M181.9,106.7l-0.1,64.2c0,6.3-5.3,11.6-11.6,11.6l-69.8-0.2c-6.3,0-11.6-5.3-11.6-11.6L89,89.3
		c-0.1-6.3,5.2-11.5,11.6-11.5l52.7,0.1L181.9,106.7L181.9,106.7z"/>
	<path class="st4" d="M153.1,100.9l0.1-22.9l28.7,28.8l-22.9-0.1C155.7,106.7,153.1,104.1,153.1,100.9"/>
	<g class="st5">
		<path class="st6" d="M107.8,166.9l0-22.4l7.3,0c2.8,0,4.5,0.1,5.4,0.3c1.3,0.3,2.4,1.1,3.2,2.2c0.9,1.1,1.3,2.6,1.3,4.4
			c0,1.4-0.3,2.5-0.8,3.5c-0.5,0.9-1.1,1.7-1.9,2.2c-0.8,0.5-1.6,0.9-2.4,1.1c-1.1,0.2-2.6,0.3-4.7,0.3l-3,0l0,8.5L107.8,166.9z
			 M112.4,148.3l0,6.4l2.5,0c1.8,0,3-0.1,3.6-0.3c0.6-0.2,1.1-0.6,1.4-1.1c0.3-0.5,0.5-1.1,0.5-1.7c0-0.8-0.2-1.5-0.7-2
			s-1.1-0.9-1.8-1c-0.5-0.1-1.6-0.2-3.3-0.2L112.4,148.3z"/>
		<path class="st6" d="M128.7,144.5l8.3,0c1.9,0,3.3,0.1,4.3,0.4c1.3,0.4,2.4,1.1,3.4,2.1c0.9,1,1.6,2.2,2.1,3.6
			c0.5,1.4,0.7,3.2,0.7,5.3c0,1.8-0.2,3.4-0.7,4.8c-0.6,1.6-1.4,3-2.4,4c-0.8,0.8-1.8,1.4-3.2,1.8c-1,0.3-2.3,0.5-4,0.5l-8.5,0
			L128.7,144.5z M133.2,148.3l0,14.9l3.4,0c1.3,0,2.2-0.1,2.7-0.2c0.7-0.2,1.3-0.5,1.8-0.9c0.5-0.4,0.9-1.2,1.2-2.2
			c0.3-1,0.5-2.4,0.5-4.1c0-1.7-0.1-3.1-0.5-4c-0.3-0.9-0.7-1.7-1.3-2.2c-0.5-0.5-1.2-0.9-2.1-1.1c-0.6-0.1-1.9-0.2-3.7-0.2
			L133.2,148.3z"/>
		<path class="st6" d="M151.4,167l0-22.4l15.4,0l0,3.8l-10.8,0l0,5.3l9.4,0l0,3.8l-9.4,0l0,9.5L151.4,167z"/>
	</g>
</g>
<linearGradient id="SVGID_1_" gradientUnits="userSpaceOnUse" x1="33.9212" y1="90.35" x2="83.2414" y2="90.35" gradientTransform="matrix(1 0 0 -1 0 199)">
	<stop  offset="0" style="stop-color:#FFFFFF"/>
	<stop  offset="1" style="stop-color:#1DBCA0"/>
</linearGradient>
<path class="st7" d="M34.4,89.6c0.1,0.5,0.3,1.4,0.7,2.8s1,2.7,1.6,4c0.7,1.3,1.7,2.7,3.2,4.3c1.4,1.6,3.1,3,4.9,4.1
	c1.9,1.1,4.3,2.2,7.4,3c3,0.9,6.4,1.4,10.1,1.6l-0.3-4.9c0-0.1,0-0.5,0-0.7s0.1-0.4,0.3-0.7c0.2-0.4,0.4-0.6,0.7-0.8
	c0.3-0.2,0.9-0.5,1.6-0.4c0.7,0.1,1.6,0.4,2.6,1L81.6,113c0,0,0.1,0.1,0.2,0.1l0.4,0.4c0.2,0.2,0.3,0.4,0.5,0.6
	c0.1,0.2,0.3,0.4,0.4,0.8c0.1,0.3,0.2,0.6,0.1,0.9c0,0.3-0.1,0.6-0.3,0.9c-0.2,0.3-0.5,0.7-0.8,1l-14.3,10.5l-0.5,0.3
	c-0.3,0.1-0.5,0.2-0.8,0.2s-0.3,0-0.6,0c-0.3,0-0.4-0.1-0.7-0.1c-0.3-0.1-0.6-0.2-0.8-0.4c-0.2-0.2-0.5-0.4-0.7-0.7
	c-0.2-0.4-0.3-0.8-0.4-1.3l-0.2-4.9c-4-0.1-8.2-1-12.4-2.7c-9.6-3.8-15.1-10.2-16.5-19.4c-0.4-3.3-0.4-6.8,0.2-10.6
	C34.3,88.8,34.3,89.2,34.4,89.6z"/>
<g class="st5">
	<path class="st2" d="M33.8,58.5l-4.4-18.7l3.9,0L36,52.7l3.4-12.8l4.5,0l3.3,13.1l2.9-13.1l3.8,0l-4.6,18.7l-4,0l-3.7-14l-3.7,14
		L33.8,58.5z"/>
	<path class="st2" d="M55.8,58.5l0-18.7l13.9,0l0,3.2l-10.1,0l0,4.1l9.4,0l0,3.2l-9.4,0l0,5.1l10.4,0l0,3.2L55.8,58.5z"/>
	<path class="st2" d="M73.3,39.9l7.5,0c1.5,0,2.6,0.1,3.3,0.2c0.7,0.1,1.4,0.4,2,0.8c0.6,0.4,1.1,0.9,1.4,1.6
		c0.4,0.7,0.6,1.4,0.6,2.2c0,0.9-0.2,1.7-0.7,2.4s-1.1,1.3-1.9,1.6c1.1,0.3,2,0.9,2.6,1.7c0.6,0.8,0.9,1.7,0.9,2.8
		c0,0.9-0.2,1.7-0.6,2.5c-0.4,0.8-0.9,1.4-1.6,1.9c-0.7,0.5-1.5,0.8-2.5,0.9c-0.6,0.1-2.1,0.1-4.6,0.1l-6.4,0L73.3,39.9z M77,50.4
		l0,5l3.5,0c1.4,0,2.2,0,2.6-0.1c0.6-0.1,1-0.3,1.4-0.7c0.4-0.4,0.5-0.9,0.5-1.6c0-0.6-0.1-1-0.4-1.4c-0.3-0.4-0.7-0.7-1.2-0.9
		s-1.6-0.3-3.3-0.3L77,50.4z M77,43l0,4.3l2.5,0c1.5,0,2.4,0,2.7-0.1c0.6-0.1,1.2-0.3,1.5-0.7c0.4-0.4,0.6-0.9,0.6-1.5
		c0-0.6-0.2-1-0.5-1.4s-0.8-0.6-1.4-0.7C82.1,43,81,43,79.2,43L77,43z"/>
</g>
</svg>
