<?xml version="1.0" encoding="utf-8"?>
<!-- Generator: Adobe Illustrator 22.0.0, SVG Export Plug-In . SVG Version: 6.00 Build 0)  -->
<svg version="1.1" id="图层_1" xmlns="http://www.w3.org/2000/svg" xmlns:xlink="http://www.w3.org/1999/xlink" x="0px" y="0px"
	 viewBox="0 0 200 200" style="enable-background:new 0 0 200 200;" xml:space="preserve">
<style type="text/css">
	.st0{fill:#CFF8FF;}
	.st1{fill:#078499;}
	.st2{fill:#066D7E;}
	.st3{fill:#00AAC7;}
	.st4{fill:url(#SVGID_1_);}
</style>
<circle class="st0" cx="100" cy="100.9" r="98"/>
<g>
	<path class="st1" d="M144.2,58.3l-0.1,83c0,8.2-6.8,15.1-15.1,14.9L38.7,156c-8.2,0-15.1-6.8-14.9-15.1L24,35.7
		c-0.1-8.1,6.7-14.8,14.9-14.8L107,21L144.2,58.3L144.2,58.3z"/>
	<path class="st2" d="M107,50.7l0.1-29.7l37.2,37.3l-29.7-0.1C110.3,58.3,107,54.9,107,50.7"/>
</g>
<g>
	<path class="st3" d="M177.9,81l-0.1,83c0,8.2-6.8,15.1-15.1,14.9l-90.3-0.2c-8.2,0-15.1-6.8-14.9-15.1l0.2-105.3
		c-0.1-8.1,6.7-14.8,14.9-14.8l68.1,0.1L177.9,81L177.9,81z"/>
	<path class="st1" d="M140.6,73.4l0.1-29.7L177.9,81l-29.7-0.1C144,81,140.6,77.6,140.6,73.4"/>
</g>
<linearGradient id="SVGID_1_" gradientUnits="userSpaceOnUse" x1="45.6874" y1="108.8857" x2="134.269" y2="108.8857">
	<stop  offset="0.4154" style="stop-color:#A2DBED"/>
	<stop  offset="1" style="stop-color:#00AAC7"/>
</linearGradient>
<path class="st4" d="M130.6,72.5c-1.5-0.6-3-1-4.7-1c-5.3-0.9-12.5,0.4-18.2,3.3c-0.1,0.1-0.3,0-0.4-0.1c-0.1-0.1-0.1-0.1,0-0.2
	c0.7-3.3-5.3-1.6-7.7-1c-7.8,2.1-15.2,5.7-21.5,10.7c-0.1,0.1-0.3,0.1-0.5-0.1c-0.1-0.1-0.1-0.1-0.1-0.2c-0.1-2.6-4.3-0.6-7.3,1.9
	c-6.6,5.2-11.6,11.9-14.9,19.6c-2.7,6.4-2.8,13.5-0.5,19.9c0.1,0.2,0.3,0.3,0.4,0.2c0.1,0,0.1-0.1,0.1-0.1
	c8.4-9.3,16.4-18.1,26.7-27c10.7-9.4,23.4-16.7,31.7-18.4c0.2,0,0.3,0.1,0.4,0.3c0,0.1-0.1,0.3-0.1,0.3c-29.3,15.3-49,40-68.2,65.3
	c-0.1,0.1-0.1,0.3,0.1,0.5c0.1,0.1,0.1,0.1,0.2,0.1h32.7c0.3,0,0.6-0.3,0.6-0.6c0-0.3-0.3-0.6-0.6-0.6H50.3c-0.2,0-0.3-0.1-0.3-0.3
	c0-0.1,0.1-0.2,0.1-0.3c0.2-0.1,0.3-0.3,0.6-0.5c2.3-2.5,4.1-5.3,6.5-7.7c3-3,3.2-2.7,5.8-2.8c5.1-0.1,10.1-0.6,15.2-1.4
	c10.4-1.7,19.7-7,26.5-15.1c1.5-1.9,3-4.8,0.2-5.4c-0.1,0.1-0.3,0-0.5-0.1c-0.1-0.1,0-0.3,0.1-0.5c0.1,0,0.1-0.1,0.2,0
	c1-0.4,1.8-0.8,2.5-1.2c8.1-4.5,15.6-9.7,20.4-17.9c1.2-2,2.5-5.7-0.6-5.7c-0.2,0-0.3-0.1-0.3-0.3c0-0.1,0.1-0.2,0.1-0.3
	c2.1-1.8,4.1-3.8,5.9-5.9C135.4,76.5,134.7,74.2,130.6,72.5L130.6,72.5z"/>
</svg>
