<?xml version="1.0" encoding="utf-8"?>
<!-- Generator: Adobe Illustrator 22.0.0, SVG Export Plug-In . SVG Version: 6.00 Build 0)  -->
<svg version="1.1" id="图层_1" xmlns="http://www.w3.org/2000/svg" xmlns:xlink="http://www.w3.org/1999/xlink" x="0px" y="0px"
	 viewBox="0 0 200 200" style="enable-background:new 0 0 200 200;" xml:space="preserve">
<style type="text/css">
	.st0{fill:#D7F7FF;}
	.st1{fill:#0B6F8F;}
	.st2{fill:#1A6172;}
	.st3{fill:#0099C9;}
	.st4{fill:url(#SVGID_1_);}
	.st5{fill:url(#SVGID_2_);}
</style>
<circle class="st0" cx="100" cy="100.9" r="98"/>
<g>
	<path class="st1" d="M144.2,58.3l-0.1,83c0,8.2-6.8,15.1-15.1,14.9L38.7,156c-8.2,0-15.1-6.8-14.9-15.1L24,35.7
		c-0.1-8.1,6.7-14.8,14.9-14.8L107,21L144.2,58.3L144.2,58.3z"/>
	<path class="st2" d="M107,50.7l0.1-29.7l37.2,37.3l-29.7-0.1C110.3,58.3,107,54.9,107,50.7"/>
</g>
<g>
	<path class="st3" d="M177.9,81l-0.1,83c0,8.2-6.8,15.1-15.1,14.9l-90.3-0.2c-8.2,0-15.1-6.8-14.9-15.1l0.2-105.3
		c-0.1-8.1,6.7-14.8,14.9-14.8l68.1,0.1L177.9,81L177.9,81z"/>
	<path class="st1" d="M140.6,73.4l0.1-29.7L177.9,81l-29.7-0.1C144,81,140.6,77.6,140.6,73.4"/>
</g>
<g>
	<linearGradient id="SVGID_1_" gradientUnits="userSpaceOnUse" x1="46.9132" y1="131.1854" x2="114.8326" y2="131.1854">
		<stop  offset="0" style="stop-color:#B6F1FF"/>
		<stop  offset="1" style="stop-color:#00ADCC"/>
	</linearGradient>
	<path class="st4" d="M105.1,104.5c5.4,0,9.7,4.3,9.7,9.7v34c0,5.4-4.3,9.7-9.7,9.7H56.6c-5.4,0-9.7-4.3-9.7-9.7v-34
		c0-5.4,4.3-9.7,9.7-9.7H105.1z M80.9,114.2c-5.4,0-9.7,4.3-9.7,9.7c0,3.5,1.9,6.8,5,8.5c-0.1,0.4-0.2,0.8-0.2,1.2v9.7
		c0,2.7,2.2,4.9,4.9,4.8c2.7,0,4.8-2.2,4.8-4.8v-9.7c0-0.4-0.1-0.8-0.2-1.2c4.7-2.6,6.4-8.5,3.8-13.2
		C87.7,116.1,84.4,114.2,80.9,114.2z"/>
	<linearGradient id="SVGID_2_" gradientUnits="userSpaceOnUse" x1="90.5757" y1="85.0938" x2="129.3868" y2="85.0938">
		<stop  offset="0" style="stop-color:#B6F1FF"/>
		<stop  offset="1" style="stop-color:#00ADCC"/>
	</linearGradient>
	<path class="st5" d="M129.4,99.7h-9.7v-9.7c0-5.4-4.3-9.7-9.7-9.7c-5.1,0-9.4,3.9-9.7,9l0,0.7v9.7h-9.7v-9.7
		c0-10.7,8.7-19.4,19.4-19.4s19.4,8.7,19.4,19.4c0,0,0,0,0,0V99.7z"/>
</g>
</svg>
