<?xml version="1.0" encoding="utf-8"?>
<!-- Generator: Adobe Illustrator 22.0.0, SVG Export Plug-In . SVG Version: 6.00 Build 0)  -->
<svg version="1.1" id="图层_1" xmlns="http://www.w3.org/2000/svg" xmlns:xlink="http://www.w3.org/1999/xlink" x="0px" y="0px"
	 viewBox="0 0 200 200" style="enable-background:new 0 0 200 200;" xml:space="preserve">
<style type="text/css">
	.st0{fill:#FFD4D4;}
	.st1{fill:#A63330;}
	.st2{fill:#822624;}
	.st3{fill:#F24A46;}
	.st4{fill:url(#SVGID_1_);}
</style>
<circle class="st0" cx="100" cy="100.9" r="98"/>
<g>
	<path class="st1" d="M144.2,58.3l-0.1,83c0,8.2-6.8,15.1-15.1,14.9L38.7,156c-8.2,0-15.1-6.8-14.9-15.1L24,35.7
		c-0.1-8.1,6.7-14.8,14.9-14.8L107,21L144.2,58.3L144.2,58.3z"/>
	<path class="st2" d="M107,50.7l0.1-29.7l37.2,37.3l-29.7-0.1C110.3,58.3,107,54.9,107,50.7"/>
</g>
<g>
	<path class="st3" d="M177.9,81l-0.1,83c0,8.2-6.8,15.1-15.1,14.9l-90.3-0.2c-8.2,0-15.1-6.8-14.9-15.1l0.2-105.3
		c-0.1-8.1,6.7-14.8,14.9-14.8l68.1,0.1L177.9,81L177.9,81z"/>
	<path class="st1" d="M140.6,73.4l0.1-29.7L177.9,81l-29.7-0.1C144,81,140.6,77.6,140.6,73.4"/>
</g>
<linearGradient id="SVGID_1_" gradientUnits="userSpaceOnUse" x1="50.3268" y1="106.0236" x2="121.5521" y2="106.0236">
	<stop  offset="0" style="stop-color:#FFEED6"/>
	<stop  offset="1" style="stop-color:#E36A5F"/>
</linearGradient>
<path class="st4" d="M50.4,139.7h71.2v7.3H50.4C50.4,147.1,50.4,139.7,50.4,139.7z M121.4,129.3c0,0,0.2-4.5-5.1-5.1H54.9
	c0,0-4.3,0.5-4.6,5.3v7.4h71.1V129.3z M70.8,103l0.4,0.3c0.7,0.7,2.1,2.5,0.4,4.3c-1.5,1.7-2.5,2.6-3,3.4c-1,1-1.6,2.3-1.6,3.6v0.7
	c0,2.7,2.2,4.9,4.9,4.9h28c2.7,0,4.9-2.2,4.9-4.9v-0.7c0-1-0.3-2-0.9-2.8c-0.8-1.2-1.8-2.3-2.9-3.2c-2.1-1.8-2-3.4-0.7-4.8
	c0.3-0.3,0.5-0.7,0.7-1c8.7-8.4,8.9-22.3,0.5-31s-22.3-8.9-31-0.5c-4.3,4.1-6.7,9.8-6.7,15.8C63.8,93,66.4,98.8,70.8,103z"/>
</svg>
