<?xml version="1.0" encoding="utf-8"?>
<!-- Generator: Adobe Illustrator 22.0.0, SVG Export Plug-In . SVG Version: 6.00 Build 0)  -->
<svg version="1.1" id="图层_1" xmlns="http://www.w3.org/2000/svg" xmlns:xlink="http://www.w3.org/1999/xlink" x="0px" y="0px"
	 viewBox="0 0 200 200" style="enable-background:new 0 0 200 200;" xml:space="preserve">
<style type="text/css">
	.st0{fill:#DAEDF2;}
	.st1{fill:#6699F5;}
	.st2{fill:#2E61C9;}
	.st3{fill:#FFFFFF;}
	.st4{fill:url(#SVGID_1_);}
	.st5{fill:url(#SVGID_2_);}
</style>
<circle class="st0" cx="100" cy="100.9" r="98"/>
<path class="st1" d="M169.2,65.3l-0.1,92.2c0,9.1-7.6,16.7-16.7,16.6l-100.2-0.2c-9.1,0-16.7-7.6-16.6-16.7l0.2-116.8
	c-0.1-9,7.5-16.5,16.6-16.5L128,24L169.2,65.3L169.2,65.3z"/>
<path class="st2" d="M127.8,56.9l0.1-32.9l41.2,41.4l-32.9-0.1C131.5,65.3,127.8,61.5,127.8,56.9"/>
<g>
	<path class="st3" d="M71.4,80.9l-7.6-31l6.4-0.1L75,71l5.5-21.3H88l5.5,21.6l4.7-21.6h6.3l-7.4,31l-6.7,0.1l-6.3-23.1l-6,23.1
		L71.4,80.9z"/>
</g>
<linearGradient id="SVGID_1_" gradientUnits="userSpaceOnUse" x1="42.4297" y1="225.2284" x2="113.0293" y2="225.2284" gradientTransform="matrix(1 -5.402807e-03 -5.402807e-03 -1 -18.4686 363.9484)">
	<stop  offset="0" style="stop-color:#BFC7F3"/>
	<stop  offset="1" style="stop-color:#6699F5"/>
	<stop  offset="1" style="stop-color:#000000"/>
</linearGradient>
<polygon class="st4" points="93.4,148.5 22.8,148.8 22.7,128.1 93.2,127.8 "/>
<linearGradient id="SVGID_2_" gradientUnits="userSpaceOnUse" x1="42.4729" y1="251.8285" x2="112.9854" y2="251.8285" gradientTransform="matrix(1 -5.402807e-03 -5.402807e-03 -1 -18.4686 363.9484)">
	<stop  offset="0" style="stop-color:#15BBFF"/>
	<stop  offset="1" style="stop-color:#6699F5"/>
</linearGradient>
<polygon class="st5" points="93.2,121.9 22.7,122.3 22.6,101.6 93.1,101.1 "/>
<path class="st3" d="M103.5,147.6V139c0-1.2-1-2.2-2.2-2.2c-1.2,0-2.2,1-2.2,2.2v9.3c0,2,1.6,3.6,3.6,3.6h9.3c1.2,0,2.2-1,2.2-2.2
	s-1-2.2-2.2-2.2L103.5,147.6L103.5,147.6z M103.5,102.3h8.6c1.2,0,2.2-1,2.2-2.2c0-1.2-1-2.2-2.2-2.2h-9.3c-2,0-3.6,1.6-3.6,3.6v9.3
	c0,1.2,1,2.2,2.2,2.2s2.2-1,2.2-2.2L103.5,102.3L103.5,102.3z M148.8,102.3v8.6c0,1.2,1,2.2,2.2,2.2s2.2-1,2.2-2.2v-9.3
	c0-2-1.6-3.6-3.6-3.6h-9.3c-1.2,0-2.2,1-2.2,2.2c0,1.2,1,2.2,2.2,2.2L148.8,102.3L148.8,102.3z M148.8,147.6h-8.6
	c-1.2,0-2.2,1-2.2,2.2c0,1.2,1,2.2,2.2,2.2h9.3c2,0,3.6-1.6,3.6-3.6V139c0-1.2-1-2.2-2.2-2.2s-2.2,1-2.2,2.2L148.8,147.6
	L148.8,147.6z M126.1,113.5c-11.4,0-19.1,11.4-19.1,11.4s7.6,11.4,19.1,11.4s19.1-11.4,19.1-11.4S137.5,113.5,126.1,113.5z
	 M126.1,132.5c-4.2,0-7.6-3.4-7.6-7.6c0-4.2,3.4-7.6,7.6-7.6c4.2,0,7.6,3.4,7.6,7.6C133.7,129.1,130.3,132.5,126.1,132.5z
	 M122.3,125c0,1,0.4,2,1.1,2.7c0.7,0.7,1.7,1.1,2.7,1.1s2-0.4,2.7-1.1c0.7-0.7,1.1-1.7,1.1-2.7s-0.4-2-1.1-2.7
	c-0.7-0.7-1.7-1.1-2.7-1.1s-2,0.4-2.7,1.1C122.7,123,122.3,124,122.3,125z"/>
</svg>
