<?xml version="1.0" encoding="utf-8"?>
<!-- Generator: Adobe Illustrator 22.0.0, SVG Export Plug-In . SVG Version: 6.00 Build 0)  -->
<svg version="1.1" id="图层_1" xmlns="http://www.w3.org/2000/svg" xmlns:xlink="http://www.w3.org/1999/xlink" x="0px" y="0px"
	 viewBox="0 0 200 200" style="enable-background:new 0 0 200 200;" xml:space="preserve">
<style type="text/css">
	.st0{fill:#DAEDF2;}
	.st1{fill:#6699F5;}
	.st2{fill:#2E61C9;}
	.st3{fill:#FFFFFF;}
	.st4{fill:url(#SVGID_1_);}
	.st5{fill:url(#SVGID_2_);}
</style>
<circle class="st0" cx="100" cy="100.9" r="98"/>
<path class="st1" d="M169.2,65.3l-0.1,92.2c0,9.1-7.6,16.7-16.7,16.6l-100.2-0.2c-9.1,0-16.7-7.6-16.6-16.7l0.2-116.8
	c-0.1-9,7.5-16.5,16.6-16.5l75.6,0.1L169.2,65.3L169.2,65.3z"/>
<path class="st2" d="M127.8,56.9l0.1-32.9l41.2,41.4l-32.9-0.1C131.5,65.3,127.8,61.5,127.8,56.9"/>
<g>
	<path class="st3" d="M71.4,80.9l-7.6-31l6.4-0.1L75,71l5.5-21.3H88l5.5,21.6l4.7-21.6h6.3l-7.4,31l-6.7,0.1l-6.3-23.1l-6,23.1
		L71.4,80.9z"/>
</g>
<linearGradient id="SVGID_1_" gradientUnits="userSpaceOnUse" x1="41.9803" y1="-25.8044" x2="112.5554" y2="-25.8044" gradientTransform="matrix(1 -5.402807e-03 5.402807e-03 1 -19.1115 164.5162)">
	<stop  offset="0" style="stop-color:#BFC7F3"/>
	<stop  offset="1" style="stop-color:#6699F5"/>
	<stop  offset="1" style="stop-color:#000000"/>
</linearGradient>
<polygon class="st4" points="93.4,148.5 22.8,148.8 22.7,128.1 93.2,127.8 "/>
<linearGradient id="SVGID_2_" gradientUnits="userSpaceOnUse" x1="42.0068" y1="-52.3695" x2="112.5819" y2="-52.3695" gradientTransform="matrix(1 -5.402807e-03 5.402807e-03 1 -19.1115 164.5162)">
	<stop  offset="0" style="stop-color:#15BBFF"/>
	<stop  offset="1" style="stop-color:#6699F5"/>
</linearGradient>
<polygon class="st5" points="93.2,121.9 22.7,122.3 22.6,101.6 93.1,101.1 "/>
<g>
	<path class="st3" d="M113.6,145.9c1.3-0.2,2.5-0.9,3.6-2l0.4-0.1l-14.2-9.8l0.1,0.4c-0.6,1.4-0.8,2.8-0.6,4.1l-1.8,14.1
		C101.1,152.6,113.6,145.9,113.6,145.9z"/>
	<path class="st3" d="M147.5,90.1l-4.6-3.1c-2.5-1.7-6-1.1-7.7,1.4l-3.1,4.6l13.7,9.4l3.1-4.6C150.7,95.2,150,91.8,147.5,90.1z"/>
	
		<rect x="105.4" y="109.9" transform="matrix(0.5669 -0.8238 0.8238 0.5669 -43.2803 153.9928)" class="st3" width="38.8" height="16.6"/>
</g>
</svg>
