<svg xmlns="http://www.w3.org/2000/svg" fill="currentColor" viewBox="0 0 512 512"><defs><clipPath id="a"><rect width="512" height="512"/></clipPath></defs><g clip-path="url(#a)"><path fill-rule="evenodd" d="M100.328 80.878C100.328 36.21 136.538 0 181.206 0s80.878 36.21 80.878 80.878v12.366h72.914l15.997-37.195A10 10 0 0 1 360.181 50h45.233c4.39-16.135 19.144-28 36.67-28 20.987 0 38 17.013 38 38s-17.013 38-38 38c-17.526 0-32.28-11.865-36.67-28h-38.648l-15.997 37.195a10 10 0 0 1-9.187 6.049h-79.498v51.274h89.427c4.39-16.135 19.144-28 36.67-28 20.987 0 38 17.013 38 38s-17.013 38-38 38c-17.526 0-32.28-11.865-36.67-28h-89.427V246h171.33c4.39-16.135 19.144-28 36.67-28 20.987 0 38 17.013 38 38s-17.013 38-38 38c-17.526 0-32.28-11.865-36.67-28h-171.33v56.632h89.427c4.39-16.135 19.144-28 36.67-28 20.987 0 38 17.013 38 38s-17.013 38-38 38c-17.526 0-32.28-11.865-36.67-28h-89.427v51.274h79.498a10 10 0 0 1 9.187 6.049l15.997 37.195h38.648c4.39-16.135 19.144-28 36.67-28 20.987 0 38 17.013 38 38s-17.013 38-38 38c-17.526 0-32.28-11.865-36.67-28h-45.233a10 10 0 0 1-9.186-6.049l-15.997-37.195h-72.914v11.101c0 48.046-38.948 86.994-86.994 86.994-42.688 0-78.194-30.747-85.582-71.302a68.08 68.08 0 0 1-7.332.395c-37.252 0-67.45-30.199-67.45-67.451a67.196 67.196 0 0 1 13.68-40.729A91.788 91.788 0 0 1 4.98 302.53c-2.382-4.982-.274-10.953 4.709-13.335 4.983-2.382 10.953-.274 13.335 4.709 10.233 21.404 30.879 37.202 56.142 40.141 5.486.638 9.416 5.603 8.777 11.088-.638 5.486-5.602 9.416-11.088 8.778-11.465-1.334-22.184-4.737-31.829-9.792a47.206 47.206 0 0 0-10.3 29.524c0 26.206 21.244 47.451 47.45 47.451 2.044 0 4.054-.129 6.024-.378 1.177-24.211 12.26-45.83 29.253-60.87 4.135-3.661 10.455-3.275 14.115.86 3.661 4.136 3.276 10.456-.86 14.116-13.883 12.289-22.612 30.211-22.612 50.185 0 36.999 29.994 66.994 66.994 66.994s66.994-29.994 66.994-66.994V80.878c0-33.622-27.256-60.878-60.878-60.878s-60.878 27.256-60.878 60.878c0 18.15 7.931 34.436 20.548 45.604 4.136 3.661 4.521 9.98.86 14.116-3.66 4.135-9.98 4.521-14.116.86a81.05 81.05 0 0 1-21.728-31.049 41.597 41.597 0 0 0-7.794-.732c-22.826 0-41.33 18.504-41.33 41.33 0 8.881 2.792 17.093 7.555 23.828a90.98 90.98 0 0 1 30.906-2.608c5.502.476 9.577 5.322 9.101 10.824-.475 5.503-5.322 9.577-10.824 9.102-24.453-2.114-47.266 8.439-61.72 26.404-3.461 4.303-9.756 4.984-14.06 1.522-4.302-3.462-4.984-9.757-1.522-14.06a91.79 91.79 0 0 1 29.071-23.834c-5.402-9.136-8.507-19.801-8.507-31.178 0-33.872 27.459-61.33 61.33-61.33.908 0 1.811.02 2.71.059a81.754 81.754 0 0 1-.48-8.858ZM442.084 42c-9.941 0-18 8.059-18 18s8.059 18 18 18 18-8.059 18-18-8.059-18-18-18Zm-53.903 114.518c-9.941 0-18 8.059-18 18s8.059 18 18 18 18-8.059 18-18-8.059-18-18-18Zm-195.937 18.847c5.523 0 10 4.477 10 10 0 24.47-19.836 44.307-44.307 44.307-5.523 0-10-4.477-10-10s4.477-10 10-10c13.425 0 24.307-10.883 24.307-24.307 0-5.523 4.477-10 10-10ZM470.084 238c-9.941 0-18 8.059-18 18s8.059 18 18 18 18-8.059 18-18-8.059-18-18-18Zm-329.978 60.589c23.543-11.987 52.344-2.62 64.331 20.922 11.987 23.541 2.619 52.343-20.922 64.33-4.922 2.506-10.943.548-13.449-4.374-2.506-4.921-.548-10.942 4.374-13.448 13.698-6.975 19.149-23.735 12.174-37.434-6.975-13.698-23.734-19.149-37.433-12.174-4.922 2.506-10.943.548-13.449-4.374-2.506-4.921-.548-10.943 4.374-13.448Zm248.075 16.043c-9.941 0-18 8.059-18 18s8.059 18 18 18 18-8.059 18-18-8.059-18-18-18Zm53.903 114.518c-9.941 0-18 8.059-18 18s8.059 18 18 18 18-8.059 18-18-8.059-18-18-18Z"/></g></svg>