<svg xmlns="http://www.w3.org/2000/svg" fill="currentColor" viewBox="0 0 512 512"><g clip-path="url(#a)"><path d="M386.441 263.066a43.337 43.337 0 0 0-12.594 2.065c-8.005-22.593-32.811-34.419-55.404-26.413a43.188 43.188 0 0 0-4.33 1.803 43.756 43.756 0 0 0-35.055-17.732 43.02 43.02 0 0 0-9.779 1.194v-78.097c-.478-24.257-20.53-43.533-44.787-43.055-23.583.465-42.591 19.472-43.055 43.055v167.083c-23.108-22.16-58.895-24.236-84.412-4.898-16.309 12.229-20.233 35.063-8.943 52.036l60.433 90.658A137.248 137.248 0 0 0 262.947 512h30.721c55.028.04 104.77-32.76 126.412-83.354a127.328 127.328 0 0 0 10.274-50.5v-71.168c-.029-24.24-19.673-43.884-43.913-43.912Zm9.78 115.08a93.364 93.364 0 0 1-7.595 37.052c-16.267 38.043-53.669 62.705-95.045 62.668h-30.72a103.204 103.204 0 0 1-86.033-46.079l-60.347-90.624a4.301 4.301 0 0 1 1.006-5.803c13.525-10.242 32.756-7.793 43.281 5.513l24.389 30.464c5.887 7.362 16.626 8.557 23.988 2.671a17.07 17.07 0 0 0 6.408-13.321V145.886c.226-5.406 4.79-9.605 10.196-9.379a9.797 9.797 0 0 1 9.379 9.379v147.661c0 9.425 7.64 17.067 17.067 17.067 9.426 0 17.066-7.641 17.066-17.067v-26.846c-.003-5.401 4.373-9.782 9.774-9.785 5.401-.003 9.782 4.373 9.785 9.774v40.287c0 9.425 7.64 17.066 17.067 17.066 9.425 0 17.066-7.64 17.066-17.066v-26.844c.226-5.406 4.791-9.605 10.197-9.379a9.797 9.797 0 0 1 9.379 9.379v40.276c0 9.426 7.64 17.067 17.066 17.067 9.426 0 17.067-7.64 17.067-17.067v-13.431c-.003-5.401 4.373-9.782 9.774-9.785 5.401-.003 9.781 4.373 9.785 9.774v71.179ZM225.554 85.333c9.425 0 17.066-7.64 17.066-17.067v-51.2C242.62 7.642 234.98 0 225.554 0c-9.427 0-17.067 7.64-17.067 17.067v51.2c0 9.425 7.641 17.066 17.067 17.066Zm51.2 17.067a17.062 17.062 0 0 0 12.066-5.001L325.018 61.2c6.78-6.548 6.968-17.352.42-24.132-6.549-6.78-17.352-6.968-24.133-.42-.142.138-.282.277-.419.42l-36.199 36.198c-6.664 6.666-6.662 17.472.003 24.136a17.068 17.068 0 0 0 12.064 4.998Zm-114.467-5c6.78 6.548 17.584 6.361 24.133-.419 6.388-6.614 6.388-17.099 0-23.713L150.221 37.07c-6.779-6.548-17.584-6.36-24.132.42-6.388 6.613-6.388 17.099 0 23.712L162.287 97.4Zm-56.2 56.2h51.2c9.425 0 17.067-7.64 17.067-17.067 0-9.426-7.64-17.066-17.067-17.066h-51.2c-9.425 0-17.067 7.64-17.067 17.066 0 9.427 7.642 17.067 17.067 17.067Z"/><path d="M276.754 136.533c0 9.426 7.64 17.067 17.067 17.067h51.2c9.425 0 17.067-7.64 17.067-17.067 0-9.426-7.641-17.066-17.067-17.066h-51.2c-9.427 0-17.067 7.64-17.067 17.066Z"/></g><defs><clipPath id="a"><rect width="512" height="512"/></clipPath></defs></svg>