<svg xmlns="http://www.w3.org/2000/svg" fill="currentColor" viewBox="0 0 683 683"><defs><clipPath id="a"><rect width="682.667" height="682.667"/></clipPath></defs><g clip-path="url(#a)"><path d="M397.44 556.719c6.517 4.135 8.448 12.77 4.313 19.287-4.134 6.517-12.769 8.448-19.285 4.313-6.517-4.134-8.449-12.769-4.315-19.286 4.135-6.518 12.77-8.448 19.287-4.314ZM355.064 56.126c0 7.718-6.256 13.974-13.974 13.974s-13.974-6.256-13.974-13.974c0-7.72 6.256-13.975 13.974-13.975s13.974 6.256 13.974 13.975Zm-117.795 68.668c0 7.719-6.256 13.975-13.974 13.975-7.719 0-13.975-6.256-13.975-13.975 0-7.717 6.256-13.974 13.975-13.974 7.718 0 13.974 6.257 13.974 13.974Zm235.59 0c0 7.719-6.256 13.975-13.973 13.975-7.72 0-13.976-6.256-13.976-13.975 0-7.717 6.256-13.974 13.976-13.974 7.717 0 13.973 6.257 13.973 13.974Z"/><path fill-rule="evenodd" d="M265.697 355.237a13.334 13.334 0 0 0 15.674 0l59.719-43.389 59.719 43.389a13.334 13.334 0 0 0 20.517-14.908l-22.811-70.204 59.718-43.387a13.332 13.332 0 0 0-7.837-24.12h-73.815l-22.811-70.204a13.332 13.332 0 0 0-25.361 0l-22.811 70.204h-73.815a13.333 13.333 0 0 0-7.837 24.12l59.719 43.387-22.812 70.204a13.334 13.334 0 0 0 4.844 14.908Zm33.199-45.695 13.124-40.389a13.333 13.333 0 0 0-4.844-14.907l-34.357-24.961h42.467c5.776 0 10.895-3.72 12.68-9.214l13.124-40.389 13.123 40.389a13.333 13.333 0 0 0 12.681 9.214h42.466l-34.357 24.961a13.333 13.333 0 0 0-4.843 14.907l13.123 40.389-34.356-24.962a13.334 13.334 0 0 0-15.674 0l-34.357 24.962Zm25.414 372.147a13.334 13.334 0 0 0 15.457-5.713l28.291-46.08c3.853-6.276 1.889-14.486-4.387-18.339-6.064-3.723-13.936-2.014-17.936 3.769l4.689-63.533a13.332 13.332 0 0 0-13.297-14.315h-64.389l63.703-103.761-4.686 63.488a13.335 13.335 0 0 0 13.297 14.315h64.918c-1.68 5.645.551 11.932 5.809 15.16 6.275 3.853 14.486 1.889 18.339-4.387l10.517-17.131a13.331 13.331 0 0 0-11.363-20.309h-73.866l7.666-103.873a13.334 13.334 0 0 0-24.66-7.958L237.544 543.836a13.334 13.334 0 0 0 11.363 20.309h73.866l-7.666 103.873a13.335 13.335 0 0 0 9.203 13.671ZM86.55 152.103c4.875 0 9.36-2.66 11.699-6.936l20.123-36.795 36.794-20.122a13.333 13.333 0 0 0 0-23.396l-36.794-20.123L98.249 7.936a13.333 13.333 0 0 0-23.396 0L54.729 44.73 17.935 64.855a13.333 13.333 0 0 0 0 23.396l36.794 20.122 20.124 36.795a13.334 13.334 0 0 0 11.698 6.936Zm0-41.121L76.252 92.15a13.334 13.334 0 0 0-5.3-5.3l-18.83-10.298 18.83-10.3a13.333 13.333 0 0 0 5.3-5.3l10.3-18.831L96.85 60.952a13.333 13.333 0 0 0 5.3 5.3l18.831 10.3L102.15 86.85a13.335 13.335 0 0 0-5.3 5.3l-10.3 18.832Zm509.079 41.121c4.874 0 9.359-2.66 11.698-6.936l20.123-36.795 36.794-20.122a13.333 13.333 0 0 0 0-23.396L627.45 44.731 607.327 7.936a13.333 13.333 0 0 0-23.396 0L563.807 44.73l-36.794 20.124a13.333 13.333 0 0 0 .001 23.396l36.793 20.122 20.124 36.795a13.333 13.333 0 0 0 11.698 6.936Zm0-41.121L585.33 92.15a13.34 13.34 0 0 0-5.301-5.3l-18.83-10.298 18.83-10.3a13.333 13.333 0 0 0 5.301-5.3l10.299-18.831 10.299 18.831a13.337 13.337 0 0 0 5.3 5.3l18.831 10.3-18.831 10.298a13.337 13.337 0 0 0-5.3 5.3l-10.299 18.832ZM66.258 325.081c0 7.364 5.97 13.334 13.333 13.334h25.852c7.364 0 13.333-5.97 13.333-13.334 0-7.363-5.969-13.333-13.333-13.333H79.591c-7.364 0-13.333 5.97-13.333 13.333Zm91.534 0c0 7.364 5.969 13.334 13.333 13.334h25.852c7.364 0 13.333-5.97 13.333-13.334 0-7.363-5.969-13.333-13.333-13.333h-25.852c-7.364 0-13.333 5.97-13.333 13.333Zm-19.508 72.026c7.364 0 13.333-5.969 13.333-13.333v-25.852c0-7.364-5.969-13.333-13.333-13.333s-13.334 5.969-13.334 13.333v25.852c0 7.364 5.97 13.333 13.334 13.333Zm0-91.534c7.364 0 13.333-5.97 13.333-13.333v-25.851c0-7.364-5.969-13.333-13.333-13.333s-13.334 5.969-13.334 13.333v25.851c0 7.363 5.97 13.333 13.334 13.333Zm333.586 19.508c0 7.364 5.969 13.334 13.333 13.334h25.852c7.364 0 13.333-5.97 13.333-13.334 0-7.363-5.969-13.333-13.333-13.333h-25.852c-7.364 0-13.333 5.97-13.333 13.333Zm91.534 0c0 7.364 5.969 13.334 13.333 13.334h25.852c7.364 0 13.333-5.97 13.333-13.334 0-7.363-5.969-13.333-13.333-13.333h-25.852c-7.364 0-13.333 5.97-13.333 13.333Zm-19.508 72.026c7.363 0 13.333-5.969 13.333-13.333v-25.852c0-7.364-5.97-13.333-13.333-13.333-7.364 0-13.334 5.969-13.334 13.333v25.852c0 7.364 5.97 13.333 13.334 13.333Zm0-91.534c7.363 0 13.333-5.97 13.333-13.333v-25.851c0-7.364-5.97-13.333-13.333-13.333-7.364 0-13.334 5.969-13.334 13.333v25.851c0 7.363 5.97 13.333 13.334 13.333Z"/></g></svg>